<svg width="573" height="368" viewBox="0 0 573 368" fill="none" xmlns="http://www.w3.org/2000/svg">
<path d="M549.295 367.166C515.612 367.166 24.9101 367.279 24.6168 366.4L24.5717 366.287C24.5717 366.287 24.5265 366.175 24.5265 366.13C24.346 365.702 -51.0754 242.464 66.1741 156.7C112.041 123.147 63.3089 100.974 99.79 63.613C141.708 20.686 187.462 68.1648 234.096 48.6956C242.33 45.2479 250.588 39.7271 258.868 31.2319C263.515 26.4547 268.637 22.2859 274.096 18.6805C274.931 18.1172 275.788 17.5764 276.646 17.0581C279.917 15.0526 283.301 13.2273 286.798 11.5824C289.145 10.4782 291.536 9.46418 293.973 8.54029C297.831 7.05306 301.801 5.76863 305.862 4.687C311.615 3.1547 317.549 2.00548 323.595 1.23933C326.235 0.901321 328.897 0.630915 331.559 0.428111C383.653 -3.47024 442.266 18.4101 472.52 50.3856C478.612 56.8303 506.317 90.1353 484.478 135.902C470.693 164.812 528.449 192.416 548.957 225.428C601.141 309.367 549.769 366.062 549.295 367.166Z" fill="#D0E5F3"/>
<g opacity="0.8">
<path opacity="0.8" d="M247.294 144.239C247.294 148.768 246.888 153.207 246.098 157.534C244.203 167.877 240.165 177.476 234.434 185.836C221.123 205.261 198.765 218.015 173.429 218.015C143.288 218.015 117.343 199.965 105.859 174.096C104.347 170.694 103.084 167.133 102.091 163.483C100.422 157.354 99.542 150.887 99.542 144.216C99.542 138.831 100.129 133.581 101.212 128.51C101.212 128.443 101.234 128.398 101.257 128.33C104.325 114.337 111.364 101.853 121.133 92.0732C123.908 89.3016 126.886 86.7552 130.09 84.4343C131.601 83.3301 133.18 82.2935 134.782 81.302C146.018 74.3842 159.261 70.4182 173.429 70.4182C175.302 70.4182 177.174 70.4858 179.002 70.621C181.596 70.8013 184.168 71.1393 186.673 71.59C197.276 73.5053 207.068 77.6741 215.573 83.6005C220.875 87.2735 225.658 91.6451 229.832 96.5574C232.02 99.1263 234.028 101.875 235.856 104.737C236.984 106.517 238.044 108.365 239.014 110.235C241.36 114.765 243.256 119.564 244.654 124.59C246.392 130.876 247.294 137.456 247.294 144.239Z" fill="#D7E5FF"/>
<g opacity="0.8">
<path opacity="0.8" d="M148.342 111.204C145.386 115.869 149.582 123.959 140.739 121.75C131.895 119.542 126.48 118.55 126.006 123.463C125.51 128.375 132.639 128.375 132.639 133.535C132.639 138.696 129.436 140.386 124.54 137.952C119.621 135.496 118.223 131.936 112.492 134.144C106.784 136.352 103.468 134.888 102.182 130.471C101.956 129.705 101.64 129.074 101.257 128.533C101.257 128.465 101.279 128.42 101.302 128.353C104.37 114.359 111.409 101.875 121.178 92.0958C123.953 89.3241 126.931 86.7778 130.135 84.4568C131.646 83.3526 133.226 82.3161 134.828 81.3246C137.129 81.4147 139.881 82.271 142.228 85.1779C147.394 91.5549 150.823 88.3777 149.605 95.7237C148.364 103.092 150.35 104.061 154.523 103.813C158.697 103.565 163.615 103.565 164.112 106.765C164.563 109.988 151.297 106.54 148.342 111.204Z" fill="#AEC3FF"/>
<path opacity="0.8" d="M148.861 145.276C148.861 145.276 144.393 150.458 140.558 147.484C136.723 144.509 137.873 142.639 132.256 144.509C126.638 146.38 124.156 143.293 121.268 145.636C118.381 147.98 120.727 148.273 118.719 153.23C116.734 158.187 112.605 158.999 115.786 163.956C118.967 168.914 124.901 166.367 128.014 168.981C131.128 171.595 130.112 174.164 134.015 175.246C137.918 176.305 141.641 172.519 141.709 177.229C141.776 181.938 140.287 186.512 145.115 190.884C149.966 195.256 149.064 196.247 154.027 198.365C159.013 200.506 164.969 198.568 164.202 195.594C163.457 192.597 157.028 192.011 156.892 188.631C156.757 185.251 160.186 185.544 158.81 181.194C157.434 176.845 161.269 174.502 159.961 171.708C158.675 168.891 151.32 167.945 152.177 165.105C153.034 162.289 159.69 164.677 160.051 158.706C160.412 152.734 156.373 150.594 156.96 144.757C157.614 138.898 149.537 141.693 148.861 145.276Z" fill="#AEC3FF"/>
<path opacity="0.8" d="M247.295 144.239C247.295 148.768 246.889 153.208 246.099 157.534C244.204 167.877 240.166 177.476 234.435 185.837C232.472 186.467 230.487 186.467 228.524 185.679C219.319 182.006 226.133 172.068 229.81 167.088C233.487 162.131 224.102 164.339 217.289 159.72C210.475 155.123 218.033 142.797 211.017 144.825C204.023 146.853 195.54 149.422 191.479 142.617C187.418 135.811 195.156 134.707 191.659 129.006C188.162 123.305 193.69 119.993 200.684 119.429C207.678 118.888 206.753 113.909 215.416 113.165C224.08 112.421 223.899 123.463 233.465 122.742C243.053 121.998 242.625 124.206 242.625 124.206C243.324 124.184 243.978 124.342 244.633 124.635C246.392 130.876 247.295 137.456 247.295 144.239Z" fill="#AEC3FF"/>
<path opacity="0.8" d="M239.037 110.281C231.073 114.156 227.87 103.633 221.056 106.788C214.198 109.988 215.393 103.836 210.001 99.915C204.587 95.9941 193.78 103.115 194.276 96.963C194.773 90.8338 202.872 92.5464 204.587 87.634C206.301 82.7216 214.175 83.961 214.175 83.961C214.626 83.7807 215.1 83.6906 215.596 83.6455C220.898 87.3186 225.681 91.6901 229.855 96.6025C232.043 99.1714 234.051 101.92 235.879 104.782C237.007 106.562 238.067 108.41 239.037 110.281Z" fill="#AEC3FF"/>
<path opacity="0.8" d="M171.918 89.1213C171.918 89.1213 176.092 83.1047 169.459 81.3246C162.826 79.5444 162.938 81.8654 157.795 81.3246C152.628 80.7838 150.62 84.7722 154.478 89.1213C158.336 93.4703 161.472 101.83 164.969 97.3686C168.488 92.9295 167.812 89.5494 171.918 89.1213Z" fill="#AEC3FF"/>
</g>
</g>
<path d="M262.319 223.738L251.016 358.108C251.016 358.108 249.821 366.242 255.89 366.265C265.862 366.287 305.524 366.265 305.524 366.265C305.524 366.265 298.011 364.575 298.101 360.744C298.214 356.237 311.322 222.454 311.322 222.454L262.319 223.738Z" fill="#7599EA"/>
<path d="M309.268 363.876C307.305 363.876 268.906 363.944 259.183 363.831C254.941 363.786 254.197 360.068 254.174 357.679C254.152 356.53 254.309 355.674 254.309 355.674L254.603 352.181L255.347 343.28L256.002 335.416L256.859 325.321L257.581 316.781L265.612 221.305L314.638 220.043C314.638 220.043 309.11 276.039 305.207 316.781C304.778 321.332 304.35 325.681 303.966 329.738C303.831 331.044 303.718 332.306 303.605 333.546C303.244 337.399 302.906 340.937 302.613 344.069C302.455 345.714 302.319 347.246 302.184 348.643C301.688 354.142 301.394 357.657 301.394 358.31C301.394 358.693 301.417 359.054 301.484 359.392C302.319 363.673 308.524 363.876 309.268 363.876Z" fill="#90AFF4"/>
<path d="M143.287 150.616L170.857 261.19L174.624 276.332L187.462 327.822H425.931L378.621 150.616H143.287Z" fill="#AEC3FF"/>
<path d="M143.287 150.616L139.475 151.901L182.386 331.676L187.462 327.822L143.287 150.616Z" fill="#90AFF4"/>
<path d="M182.386 331.676H419.367L425.909 327.822H187.462L182.386 331.676Z" fill="#7599EA"/>
<path d="M265.608 366.316H316.912V363.882H265.608V366.316Z" fill="#AEC3FF"/>
<path d="M303.876 331.676L303.606 333.546L255.348 343.28L256.024 335.416L256.34 331.676H303.876Z" fill="#5888DD"/>
<path opacity="0.4" d="M309.269 363.876C307.306 363.876 268.907 363.944 259.183 363.831C254.942 363.786 254.197 360.068 254.175 357.679L302.207 348.643C301.711 354.142 301.418 357.657 301.418 358.31C301.418 358.693 301.44 359.054 301.508 359.392C302.32 363.673 308.524 363.876 309.269 363.876Z" fill="#5888DD"/>
<path d="M143.287 150.616H378.621L416.794 293.03H178.798L143.287 150.616Z" fill="#C2D5FF"/>
<path d="M405.695 286.878H185.364L177.49 255.534L174.445 243.41L173.204 238.475L165.104 206.275L164.698 204.607L160.412 187.594L158.494 179.978L156.87 173.488L153.034 158.255H370.184L374.403 173.488L376.185 179.978L378.283 187.594L392.136 237.754L393.309 242.013L393.85 243.974L403.416 278.608L405.695 286.878Z" fill="#739AF0"/>
<path d="M374.403 173.488H156.87L153.034 158.255H370.184L374.403 173.488Z" fill="#607CF4"/>
<path d="M162.012 165.128C161.742 164.069 162.396 163.235 163.434 163.235C164.494 163.235 165.554 164.091 165.825 165.128C166.096 166.187 165.442 167.021 164.404 167.021C163.344 167.043 162.283 166.187 162.012 165.128Z" fill="#E9F3FE"/>
<path d="M168.352 165.128C168.082 164.069 168.736 163.235 169.774 163.235C170.834 163.235 171.894 164.091 172.165 165.128C172.436 166.187 171.782 167.021 170.744 167.021C169.683 167.043 168.623 166.187 168.352 165.128Z" fill="#E9F3FE"/>
<path d="M175.166 165.128C174.895 164.069 175.549 163.235 176.587 163.235C177.647 163.235 178.708 164.091 178.979 165.128C179.249 166.187 178.595 167.021 177.557 167.021C176.497 167.043 175.436 166.187 175.166 165.128Z" fill="#E9F3FE"/>
<path opacity="0.5" d="M268.185 293.03L187.53 328.25L178.799 293.03H268.185Z" fill="#90AFF4"/>
<path d="M198.065 113.728C194.185 115.17 191.681 118.528 191.681 122.246V204.382C191.681 221.192 199.667 236.921 213.046 246.498L261.349 277.414C264.553 279.465 268.93 279.465 272.156 277.414L320.459 246.498C333.838 236.921 341.824 221.17 341.824 204.382V122.471C341.824 118.663 339.162 115.238 335.101 113.841C276.42 93.7633 252.911 93.245 198.065 113.728Z" fill="#F99746"/>
<path d="M335.101 113.841C306.539 104.084 286.302 98.9461 266.741 98.6081V278.969C268.636 278.969 270.531 278.451 272.133 277.437L320.436 246.52C333.815 236.943 341.802 221.192 341.802 204.404V122.471C341.824 118.663 339.162 115.215 335.101 113.841Z" fill="#F78248"/>
<path d="M271.659 186.963H260.672C250.813 186.963 242.804 178.964 242.804 169.116V166.976C242.804 157.128 250.813 149.129 260.672 149.129H271.659C281.518 149.129 289.528 157.128 289.528 166.976V169.116C289.528 178.964 281.518 186.963 271.659 186.963ZM260.672 156.272C254.761 156.272 249.956 161.072 249.956 166.976V169.116C249.956 175.02 254.761 179.82 260.672 179.82H271.659C277.57 179.82 282.376 175.02 282.376 169.116V166.976C282.376 161.072 277.57 156.272 271.659 156.272H260.672Z" fill="#FFDAA4"/>
<path d="M276.307 236.808H258.958C242.714 236.808 229.561 223.671 229.561 207.446V178.806C229.561 175.178 232.493 172.249 236.126 172.249H295.506C300.154 172.249 303.922 176.012 303.922 180.654V209.227C303.922 224.459 291.558 236.808 276.307 236.808Z" fill="#FFDAA4"/>
<path d="M269.946 200.768C275.002 198.997 277.663 193.467 275.889 188.418C274.116 183.368 268.58 180.711 263.524 182.482C258.469 184.253 255.808 189.783 257.581 194.832C259.355 199.882 264.891 202.539 269.946 200.768Z" fill="#F78248"/>
<path d="M266.742 196.134C267.892 196.134 268.84 197.081 268.84 198.23V214.364C268.84 215.514 267.892 216.46 266.742 216.46C265.591 216.46 264.644 215.514 264.644 214.364V198.23C264.644 197.081 265.591 196.134 266.742 196.134Z" fill="#F78248"/>
<path d="M232.426 129.592C232.426 124.837 236.126 120.939 241.202 120.939C244.225 120.939 246.03 121.75 247.767 123.238L245.443 126.032C244.158 124.95 243.007 124.342 241.067 124.342C238.382 124.342 236.261 126.708 236.261 129.592C236.261 132.657 238.359 134.887 241.337 134.887C242.668 134.887 243.864 134.549 244.812 133.873V131.485H241.112V128.308H248.376V135.564C246.662 137.028 244.293 138.223 241.225 138.223C236.013 138.223 232.426 134.572 232.426 129.592Z" fill="#FFDAA4"/>
<path d="M251.918 121.232H258.438C263.695 121.232 267.327 124.837 267.327 129.592C267.327 134.302 263.695 137.952 258.438 137.952H251.918V121.232ZM258.438 134.617C261.461 134.617 263.492 132.589 263.492 129.57C263.492 126.618 261.461 124.522 258.438 124.522H255.595V134.595H258.438V134.617Z" fill="#FFDAA4"/>
<path d="M270.622 121.232H277.458C281.451 121.232 283.865 123.598 283.865 127.068C283.865 130.944 280.842 132.95 277.097 132.95H274.3V137.975H270.622V121.232ZM277.21 129.66C279.06 129.66 280.12 128.555 280.12 127.091C280.12 125.446 278.97 124.567 277.142 124.567H274.3V129.682H277.21V129.66Z" fill="#FFDAA4"/>
<path d="M286.595 121.232H294.243C296.364 121.232 298.011 121.818 299.116 122.922C300.041 123.846 300.56 125.175 300.56 126.798C300.56 129.502 299.094 131.192 296.973 131.981L301.056 137.952H296.747L293.115 132.612H290.272V137.952H286.595V121.232ZM294.017 129.344C295.822 129.344 296.837 128.398 296.837 126.933C296.837 125.356 295.732 124.544 293.95 124.544H290.295V129.344H294.017Z" fill="#FFDAA4"/>
<path d="M376.997 64.4467C375.937 64.8523 375.237 65.7537 375.237 66.7677V89.2565C375.237 93.8534 377.426 98.1573 381.081 100.794L394.301 109.267C395.181 109.83 396.377 109.83 397.257 109.267L410.478 100.794C414.132 98.1799 416.321 93.8534 416.321 89.2565V66.8353C416.321 65.7988 415.599 64.8523 414.493 64.4693C398.453 58.971 392 58.8358 376.997 64.4467Z" fill="#AEC3FF"/>
<path opacity="0.4" d="M414.516 64.4692C406.687 61.7877 401.159 60.3906 395.812 60.3005V109.672C396.331 109.672 396.85 109.537 397.302 109.244L410.522 100.771C414.177 98.1573 416.366 93.8308 416.366 89.2339V66.8128C416.343 65.7762 415.621 64.8523 414.516 64.4692Z" fill="#5888DD"/>
<path d="M398.114 36.4822L403.303 37.1582L399.603 40.8763L400.55 46.014L395.88 43.648L391.278 46.1267L392.09 40.9665L388.3 37.361L393.466 36.5498L395.722 31.8177L398.114 36.4822Z" fill="#F99746"/>
<path d="M398.114 125.829L403.303 126.505L399.603 130.2L400.55 135.361L395.88 132.972L391.278 135.473L392.09 130.313L388.3 126.708L393.466 125.896L395.722 121.164L398.114 125.829Z" fill="#F99746"/>
<path d="M359.873 58.4302L365.062 59.1062L361.362 62.8017L362.333 67.9394L357.662 65.5734L353.06 68.0746L353.872 62.9144L350.082 59.309L355.248 58.4978L357.505 53.7657L359.873 58.4302Z" fill="#F99746"/>
<path d="M436.851 58.4302L442.04 59.1062L438.34 62.8017L439.31 67.9394L434.64 65.5734L430.038 68.0746L430.85 62.9144L427.06 59.309L432.226 58.4978L434.482 53.7657L436.851 58.4302Z" fill="#F99746"/>
<path d="M359.873 104.151L365.062 104.827L361.362 108.545L362.333 113.683L357.662 111.317L353.06 113.796L353.872 108.636L350.082 105.03L355.248 104.219L357.505 99.4868L359.873 104.151Z" fill="#F99746"/>
<path d="M436.851 104.151L442.04 104.827L438.34 108.545L439.31 113.683L434.64 111.317L430.038 113.796L430.85 108.636L427.06 105.03L432.226 104.219L434.482 99.4868L436.851 104.151Z" fill="#F99746"/>
<path d="M376.456 42.3861L381.645 43.0621L377.945 46.7802L378.892 51.9179L374.222 49.5519L369.62 52.0306L370.432 46.8703L366.642 43.2649L371.808 42.4537L374.064 37.7216L376.456 42.3861Z" fill="#F99746"/>
<path d="M420.878 42.3861L426.067 43.0621L422.39 46.7802L423.337 51.9179L418.667 49.5519L414.065 52.0306L414.877 46.8703L411.087 43.2649L416.253 42.4537L418.509 37.7216L420.878 42.3861Z" fill="#F99746"/>
<path d="M376.456 120.083L381.645 120.759L377.945 124.477L378.892 129.615L374.222 127.249L369.62 129.727L370.432 124.567L366.642 120.962L371.808 120.15L374.064 115.418L376.456 120.083Z" fill="#F99746"/>
<path d="M420.878 120.083L426.067 120.759L422.39 124.477L423.337 129.615L418.667 127.249L414.065 129.727L414.877 124.567L411.087 120.962L416.253 120.15L418.509 115.418L420.878 120.083Z" fill="#F99746"/>
<path d="M353.759 82.4738L358.948 83.1498L355.248 86.8679L356.218 92.0056L351.548 89.6396L346.946 92.1183L347.758 86.958L343.968 83.3526L349.134 82.5414L351.39 77.8093L353.759 82.4738Z" fill="#F99746"/>
<path d="M444.364 82.4738L449.553 83.1498L445.853 86.8679L446.8 92.0056L442.13 89.6396L437.528 92.1183L438.34 86.958L434.55 83.3526L439.716 82.5414L441.972 77.8093L444.364 82.4738Z" fill="#F99746"/>
<path d="M74.8819 207.379C75.085 207.559 75.085 207.875 74.8819 208.077C74.7015 208.28 74.3856 208.28 74.1826 208.077C73.9795 207.897 73.9795 207.582 74.1826 207.379C74.3856 207.176 74.7015 207.176 74.8819 207.379Z" fill="#D5E5FB"/>
<path d="M73.2804 208.979C73.4834 209.159 73.4834 209.475 73.2804 209.677C73.0999 209.88 72.784 209.88 72.581 209.677C72.3779 209.497 72.3779 209.182 72.581 208.979C72.784 208.798 73.0999 208.798 73.2804 208.979Z" fill="#D5E5FB"/>
<path d="M70.9791 210.624C71.1596 210.421 71.4755 210.421 71.6785 210.624C71.8816 210.804 71.8816 211.119 71.6785 211.322C71.498 211.525 71.1822 211.525 70.9791 211.322C70.7986 211.119 70.7986 210.804 70.9791 210.624Z" fill="#D5E5FB"/>
<path d="M70.0529 212.246C70.2559 212.426 70.2559 212.742 70.0529 212.945C69.8724 213.148 69.5565 213.148 69.3535 212.945C69.1504 212.764 69.1504 212.449 69.3535 212.246C69.5565 212.043 69.8498 212.043 70.0529 212.246Z" fill="#D5E5FB"/>
<path d="M68.4523 213.846C68.6553 214.026 68.6553 214.342 68.4523 214.545C68.2718 214.747 67.9559 214.747 67.7529 214.545C67.5498 214.364 67.5498 214.049 67.7529 213.846C67.9559 213.666 68.2718 213.666 68.4523 213.846Z" fill="#D5E5FB"/>
<path d="M66.1503 215.491C66.3308 215.288 66.6467 215.288 66.8497 215.491C67.0528 215.671 67.0528 215.987 66.8497 216.19C66.6692 216.392 66.3534 216.392 66.1503 216.19C65.9473 215.987 65.9473 215.671 66.1503 215.491Z" fill="#D5E5FB"/>
<path d="M65.2941 217.046C65.4971 217.226 65.4971 217.542 65.2941 217.744C65.1136 217.947 64.7977 217.947 64.5947 217.744C64.3916 217.564 64.3916 217.249 64.5947 217.046C64.7752 216.866 65.091 216.866 65.2941 217.046Z" fill="#D5E5FB"/>
<path d="M63.6916 218.668C63.8946 218.849 63.8946 219.164 63.6916 219.367C63.5111 219.57 63.1952 219.57 62.9921 219.367C62.7891 219.187 62.7891 218.871 62.9921 218.668C63.1726 218.465 63.4885 218.465 63.6916 218.668Z" fill="#D5E5FB"/>
<path d="M61.3678 220.291C61.5483 220.088 61.8641 220.088 62.0672 220.291C62.2702 220.471 62.2702 220.786 62.0672 220.989C61.8867 221.192 61.5708 221.192 61.3678 220.989C61.1873 220.809 61.1873 220.494 61.3678 220.291Z" fill="#D5E5FB"/>
<path d="M60.4425 221.936C60.6455 222.116 60.6455 222.431 60.4425 222.634C60.262 222.837 59.9462 222.837 59.7431 222.634C59.5401 222.454 59.5401 222.139 59.7431 221.936C59.9462 221.733 60.262 221.733 60.4425 221.936Z" fill="#D5E5FB"/>
<path d="M58.8409 223.536C59.044 223.716 59.044 224.031 58.8409 224.234C58.6604 224.437 58.3446 224.437 58.1415 224.234C57.9385 224.054 57.9385 223.738 58.1415 223.536C58.3446 223.355 58.6604 223.355 58.8409 223.536Z" fill="#D5E5FB"/>
<path d="M56.5397 225.181C56.7202 224.978 57.036 224.978 57.2391 225.181C57.4421 225.361 57.4421 225.676 57.2391 225.879C57.0586 226.082 56.7427 226.082 56.5397 225.879C56.3592 225.676 56.3592 225.361 56.5397 225.181Z" fill="#D5E5FB"/>
<path d="M96.9672 198.287C97.9275 192.467 93.9819 186.97 88.1543 186.011C82.3268 185.052 76.8242 188.993 75.8638 194.814C74.9035 200.634 78.8491 206.13 84.6767 207.089C90.5042 208.048 96.0068 204.108 96.9672 198.287Z" fill="#C6DCF7"/>
<path d="M82.9805 192.259C82.9805 190.366 84.5146 188.833 86.4097 188.833C88.3049 188.833 89.839 190.366 89.839 192.259C89.839 194.151 88.3049 195.684 86.4097 195.684C84.5146 195.684 82.9805 194.151 82.9805 192.259Z" fill="#EBF3FA"/>
<path d="M86.4104 195.684C83.0939 195.684 80.4092 198.365 80.4092 201.678H92.4342C92.4342 198.365 89.7269 195.684 86.4104 195.684Z" fill="#EBF3FA"/>
<path d="M47.6736 229.507L47.2675 228.516C46.8388 227.456 45.8236 226.78 44.6955 226.78H37.3857V231.422V251.207H67.64V231.422H50.5162C49.2754 231.422 48.1473 230.679 47.6736 229.507Z" fill="#C6DCF7"/>
<path d="M57.0366 237.957H56.0213C56.0439 237.799 56.0665 237.619 56.0665 237.461V237.123C56.0665 235.524 54.7805 234.239 53.1787 234.239H51.3963C49.7945 234.239 48.5085 235.524 48.5085 237.123V237.461C48.5085 237.642 48.5311 237.799 48.5536 237.957H47.4256C46.839 237.957 46.3652 238.43 46.3652 239.016V243.658C46.3652 246.272 48.486 248.413 51.1256 248.413H53.9232C56.3823 248.413 58.3902 246.407 58.3902 243.951V239.309C58.4128 238.566 57.8037 237.957 57.0366 237.957ZM52.7274 242.599V244.762C52.7274 244.943 52.5695 245.1 52.389 245.1C52.2085 245.1 52.0506 244.943 52.0506 244.762V242.599C51.3512 242.441 50.8323 241.81 50.8323 241.067C50.8323 240.211 51.5317 239.49 52.4116 239.49C53.2689 239.49 53.9908 240.188 53.9908 241.067C53.9683 241.833 53.4268 242.464 52.7274 242.599ZM54.9159 237.439C54.9159 237.619 54.8933 237.777 54.8482 237.935H49.7494C49.7043 237.777 49.6817 237.597 49.6817 237.439V237.101C49.6817 236.154 50.4488 235.366 51.4189 235.366H53.2012C54.1488 235.366 54.9384 236.132 54.9384 237.101V237.439H54.9159Z" fill="#EBF3FA"/>
<path d="M136.339 227.614C136.339 227.614 136.903 221.395 129.954 221.395C129.954 221.395 132.052 221.958 133.158 223.107C133.158 223.107 128.713 220.516 123.885 224.505C119.057 228.493 122.058 238.521 120.591 240.436C119.125 242.329 113.417 242.712 114.094 248.864C114.793 255.015 132.233 262.722 131.127 267.815C131.127 267.815 137.963 257.787 133.067 253.19C133.067 253.19 135.459 255.421 135.684 258.102C135.684 258.102 136.339 252.897 133.022 251.23C130.089 249.765 127.675 244.379 127.946 243.41C128.194 242.464 136.339 227.614 136.339 227.614Z" fill="#2C3A64"/>
<path d="M129.48 257.472C129.48 257.472 134.669 278.946 139.768 283.228C142.836 285.819 151.951 291.723 151.951 291.723L148.16 293.097C148.16 293.097 135.526 288.839 132.684 285.504C129.864 282.169 122.103 265.516 122.103 265.516L129.48 257.472Z" fill="#FFB27D"/>
<path d="M159.486 299.587L158.268 296.568C156.96 293.323 153.801 291.205 150.304 291.205H127.766V305.491V366.445H220.965V305.491H168.24C164.382 305.491 160.93 303.148 159.486 299.587Z" fill="#F99746"/>
<path d="M80.6357 295.193C80.6808 295.283 80.7259 295.351 80.771 295.441C81.8991 297.424 84.5162 302.246 87.3814 307.542C88.7351 310.043 90.1564 312.657 91.5101 315.136C93.8339 319.372 95.9546 323.158 97.1954 325.163C98.4589 327.191 99.3839 328.611 99.7448 329.197C99.8576 329.377 99.8802 329.58 99.8576 329.783C99.7223 331.585 99.7674 333.343 99.9479 335.101C101.685 352.316 113.304 361.555 113.304 361.555L116.756 362.074C116.756 362.074 111.86 343.979 110.416 333.749C110.168 332.014 110.078 330.616 110.145 329.693C110.394 327.034 109.92 323.113 109.04 318.628C107.438 310.651 104.505 300.849 101.978 292.985C101.82 292.489 96.9473 274.913 96.9473 274.913C92.8637 278.473 77.9735 279.938 77.9735 279.938C77.9735 279.938 75.4918 286.067 80.6357 295.193Z" fill="#2F539B"/>
<path d="M124.043 366.445H109.604C109.604 366.445 109.266 364.259 110.01 362.592C110.732 360.992 111.77 360.947 110.146 358.446C111.071 359.392 114.003 359.775 116.102 359.505C116.35 359.91 117.749 362.705 118.606 363.313C119.553 363.944 123.75 363.719 124.043 366.445Z" fill="#233862"/>
<path d="M80.6367 295.193C80.6818 295.283 80.727 295.351 80.7721 295.441C81.9001 297.424 88.0593 308.759 90.9245 314.054C87.5855 300.376 89.9093 286.698 89.9093 286.698L80.6367 295.193Z" fill="#233862"/>
<path d="M134.354 226.735C134.444 226.352 126.119 230.499 125.69 230.972C121.787 235.298 122.893 240.954 125.126 240.999C126.57 241.044 126.277 243.41 126.277 243.41L142.25 236.65C142.273 236.673 140.355 225.473 134.354 226.735Z" fill="#2C3A64"/>
<path d="M128.985 254.249C128.985 254.249 131.421 259.094 131.105 263.037C131.105 263.037 128.172 267.657 120.569 268.829C120.592 268.829 127.112 254.249 128.985 254.249Z" fill="#739AF0"/>
<path d="M91.8939 280.997L91.939 278.293C86.5695 278.969 73.3939 271.871 73.3939 271.871C73.3939 271.871 67.7762 275.611 67.0091 286.27C66.6256 291.475 64.2567 313.513 63.9859 320.093C63.8957 322.482 63.8506 324.172 63.8506 324.848C63.8506 325.05 63.7603 325.231 63.625 325.411C62.5195 326.831 61.5493 328.318 60.7146 329.873C52.5024 345.128 56.8115 365.837 56.8115 365.837L58.7067 365.363C58.7067 365.363 65.6329 343.889 70.1677 334.605C70.9347 333.027 71.6341 331.811 72.2207 331.09C73.9353 329.016 75.7177 325.501 77.5 321.287C80.839 313.31 91.8939 280.997 91.8939 280.997Z" fill="#2F539B"/>
<path d="M68.2726 366.445H53.8336C53.8336 366.445 53.4952 364.259 54.2397 362.592C54.9616 360.992 56.0897 360.271 55.8189 358.333C56.7439 359.279 58.233 360.338 60.3086 360.046C60.5568 360.451 61.9555 362.682 62.8129 363.29C63.783 363.944 67.9793 363.719 68.2726 366.445Z" fill="#233862"/>
<path d="M119.599 271.916C117.659 272.254 119.915 273.786 117.253 274.079C113.462 274.485 109.537 274.778 107.484 275.589C106.739 275.882 106.243 276.265 106.085 276.715C105.205 279.397 99.5649 283.971 99.5649 283.971C74.4319 282.822 72.8301 271.645 72.8301 271.645C89.1417 255.827 103.017 247.196 114.478 246.137C117.275 245.867 121.02 246.227 122.803 247.016C126.819 248.796 129.007 254.227 129.007 254.227C129.007 254.227 126.976 270.676 119.599 271.916Z" fill="#739AF0"/>
<path d="M117.252 274.079C113.462 274.485 109.536 274.778 107.483 275.589C106.648 263.083 112.559 253.663 112.559 253.663C112.559 253.663 116.417 269.347 117.252 274.079Z" fill="#5A7DE0"/>
<path d="M120.524 251.545C120.524 251.545 110.98 251.027 109.288 256.998C107.596 262.97 112.469 286.856 113.53 289.334C115.447 293.819 125.081 307.181 125.081 307.181L128.172 305.581C128.172 305.581 121.967 286.022 120.569 284.084C118.403 281.042 123.389 254.159 120.524 251.545Z" fill="#FFB27D"/>
<path d="M128.172 305.604C128.172 305.604 128.962 306.302 129.616 307.069C130.248 307.857 129.684 308.128 131.534 311.688C131.534 311.688 131.443 312.184 131.037 312.094C130.631 312.003 129.255 310.629 128.533 310.719C128.533 310.719 128.014 311.147 127.969 312.522C127.924 313.829 127.924 316.691 127.676 317.231C127.45 317.772 125.803 314.955 124.968 312.95C124.246 311.17 124.946 305.176 124.946 305.176L128.172 305.604Z" fill="#FFB27D"/>
<path d="M107.416 265.02C107.439 265.156 116.44 266.665 122.081 263.826C122.081 263.826 126.796 249.111 120.073 249.81C113.35 250.509 109.379 252.627 109.198 255.849C109.018 259.049 107.416 265.02 107.416 265.02Z" fill="#739AF0"/>
<path d="M122.577 248.075C122.667 249.269 122.825 250.666 124.382 252.266C125.577 253.506 127.315 254.452 128.51 253.235C129.119 252.627 129.954 251.703 130.383 250.959C131.421 249.157 132.684 247.309 132.684 247.309L127.292 242.577L126.976 242.284C125.555 244.74 124.179 245.934 122.96 246.836C122.577 247.151 122.532 247.624 122.577 248.075Z" fill="#FFB27D"/>
<path d="M132.684 247.331C132.684 247.331 131.443 249.157 130.383 250.982C127.021 248.909 127.021 244.762 127.292 242.622L132.684 247.331Z" fill="#ED985F"/>
<path d="M132.842 249.697C132.842 249.697 124.698 245.168 127.585 240.143C130.496 235.118 131.398 231.152 136.723 233.834C142.047 236.515 141.934 239.016 141.393 240.932C140.829 242.825 135.031 250.756 132.842 249.697Z" fill="#FFB27D"/>
<path d="M142.769 237.98C142.386 235.749 141.258 235.546 140.468 235.681C137.467 230.701 132.549 232.639 132.549 232.639C129.932 235.929 126.119 236.493 126.119 236.493C126.119 236.493 127.067 238.25 130.97 239.332C132.165 239.67 133.519 239.467 134.805 239.016C132.098 240.526 129.278 241.089 129.278 241.089C134.422 241.563 139.295 236.876 139.814 236.38C140.062 237.101 140.468 238.633 140.22 239.737C139.881 241.247 138.528 243.996 139.362 244.334C139.34 244.379 143.333 241.337 142.769 237.98Z" fill="#2C3A64"/>
<path d="M153.463 291.745C153.463 291.745 151.184 293.458 152.899 294.562C154.613 295.666 157.682 295.982 157.682 295.238C157.727 292.805 156.486 291.047 153.463 291.745Z" fill="#FFB27D"/>
<path d="M187.8 325.456H184.868C184.958 324.983 185.003 324.487 185.003 323.991V322.977C185.003 318.358 181.235 314.595 176.61 314.595H171.444C166.819 314.595 163.051 318.358 163.051 322.977V323.991C163.051 324.487 163.096 324.983 163.186 325.456H159.915C158.2 325.456 156.824 326.831 156.824 328.543V341.996C156.824 349.612 163.006 355.787 170.632 355.787H178.776C185.95 355.787 191.749 349.995 191.749 342.83V329.4C191.749 327.236 189.989 325.456 187.8 325.456ZM175.279 338.999V345.241C175.279 345.782 174.828 346.232 174.286 346.232C173.745 346.232 173.294 345.782 173.294 345.241V338.999C171.263 338.548 169.729 336.723 169.729 334.56C169.729 332.036 171.76 330.008 174.286 330.008C176.813 330.008 178.844 332.036 178.844 334.56C178.844 336.723 177.31 338.548 175.279 338.999ZM181.641 323.991C181.641 324.51 181.574 324.983 181.416 325.456H166.616C166.48 324.983 166.39 324.51 166.39 323.991V322.977C166.39 320.206 168.646 317.952 171.421 317.952H176.588C179.363 317.952 181.619 320.206 181.619 322.977V323.991H181.641Z" fill="#FFDAA4"/>
<path d="M532.645 366.58H419.524C403.754 348.486 404.408 326.448 425.932 306.438C429.79 302.855 436.535 298.979 441.973 297.672C452.012 295.283 463.383 294.72 463.473 294.675C463.496 294.652 476.13 292.917 479.717 288.546C490.907 274.958 493.773 273.02 493.773 273.02C505.166 270.789 514.89 270.136 522.087 274.169C528.765 277.91 533.277 285.661 534.969 299.903C535.285 302.607 535.511 305.514 535.623 308.691C536.029 320.251 538.308 330.549 539.662 339.247C541.625 351.866 543.001 361.465 532.645 366.58Z" fill="#F99746"/>
<path d="M516.446 288.613C509.542 292.376 508.775 304.77 497.946 307.97C487.117 311.17 468.752 310.877 458.329 322.166C448.267 333.05 437.189 305.356 441.972 297.559C452.012 295.171 463.383 294.63 463.473 294.585C463.495 294.562 478.905 294.517 482.514 290.168C493.705 276.648 493.772 273.02 493.772 273.02C505.166 270.812 514.889 270.158 522.086 274.169C530.028 282.349 523.372 284.85 516.446 288.613Z" fill="#ED7D2B"/>
<path d="M539.661 338.931C523.801 319.147 491.2 346.12 482.762 345.353C475.001 344.655 497.878 317.614 526.26 313.581C537.721 311.958 534.991 300.106 534.968 299.745C535.284 302.427 535.51 305.333 535.623 308.511C536.051 320.025 538.33 330.256 539.661 338.931Z" fill="#ED7D2B"/>
<path d="M451.155 349.703C450.05 351.843 449.802 355.764 449.463 357.094C449.125 358.423 443.327 362.952 442.808 362.727C441.544 362.164 442.763 359.933 443.53 358.333C443.552 358.265 443.597 358.198 443.62 358.13C444.387 356.508 443.733 352.857 444.116 350.987C444.522 349.117 442.605 344.047 442.605 344.047L445.808 339.99C445.808 339.99 448.064 344.272 449.689 345.061C449.982 345.196 450.23 345.376 450.478 345.556C451.606 346.48 452.08 347.945 451.155 349.703Z" fill="#FFB27D"/>
<path d="M494.224 241.901C491.133 242.171 488.245 243.546 485.989 245.709C484.568 247.061 482.988 248.931 482.018 251.14C479.897 255.962 480.619 261.595 479.424 264.682C478.205 267.769 477.483 268.31 479.424 269.707C481.364 271.105 481.68 272.434 479.379 273.921C477.055 275.408 475.363 280.005 481.815 280.411C488.268 280.817 500.812 278.473 502.413 277.279C504.015 276.084 508.415 274.304 510.535 271.127C514.754 264.75 511.393 260.446 508.144 259.364C503.158 257.697 504.985 240.999 494.224 241.901Z" fill="#163560"/>
<path d="M485.741 268.648C485.741 268.648 479.334 283.093 478.003 284.354C476.671 285.616 470.422 288.072 470.986 290.168C471.55 292.264 476.265 294.314 478.228 293.819C480.191 293.323 485.177 284.828 485.177 284.828L485.741 268.648Z" fill="#739AF0"/>
<path d="M471.482 291.43C471.482 291.43 471.821 288.951 477.912 288.14C481.274 287.689 486.914 278.315 486.914 278.315L481.274 293.12L475.814 295.486L471.482 291.43Z" fill="#5A7DE0"/>
<path d="M473.964 296.117C473.964 296.117 442.333 293.909 438.002 298.911C434.572 302.9 440.822 346.345 440.822 346.345C440.822 346.345 449.417 346.593 450.117 344.317C450.117 344.317 448.515 323.225 449.846 319.575C451.2 315.924 450.342 310.877 450.342 310.877C450.342 310.877 467.173 313.401 472.52 312.116C477.867 310.832 473.964 296.117 473.964 296.117Z" fill="#233862"/>
<path d="M439.875 362.231C437.641 363.155 434.911 365.995 433.806 366.806C432.7 367.617 425.323 367.324 425.097 366.828C424.465 365.521 427.06 364.597 428.684 363.831C428.707 363.831 428.729 363.809 428.752 363.809C430.376 362.998 432.181 359.865 433.67 358.716C435.182 357.544 436.987 352.452 436.987 352.452L442.063 351.415C442.063 351.415 441.025 356.147 441.747 357.792C441.815 357.95 441.883 358.108 441.928 358.265C442.401 359.73 441.883 361.398 439.875 362.231Z" fill="#FFB27D"/>
<path d="M487.862 297.649C487.862 297.649 453.343 301.142 450.32 304.68C447.297 308.195 435.362 353.939 435.362 353.939C435.362 353.939 438.882 355.899 442.085 354.074C442.085 354.074 451.223 338.548 455.261 333.681C459.3 328.814 460.743 316.082 462.887 314.707C463.473 314.347 483.778 316.623 491.223 310.922C498.668 305.198 487.862 297.649 487.862 297.649Z" fill="#2A4E96"/>
<path d="M502.91 297.717C502.03 299.407 501.06 301.007 500.022 302.449C497.428 306.054 494.45 308.623 491.201 309.299C486.486 310.268 470.716 301.12 471.505 296.072C471.934 293.323 480.71 288.388 482.131 286.405C483.553 284.422 484.388 274.417 485.155 270.338C485.719 267.296 487.591 266.981 489.96 266.192C499.955 262.767 507.084 266.395 507.084 266.395C511.664 268.941 509.114 285.864 502.91 297.717Z" fill="#739AF0"/>
<path d="M502.414 255.984C502.414 255.984 502.955 253.528 503.158 250.914C503.316 249.044 500.473 242.96 496.051 243.208C496.051 243.208 494.089 243.591 492.329 245.033C490.93 246.182 488.99 248.548 491.945 254.272L492.758 256.21L502.414 255.984Z" fill="#163560"/>
<path d="M493.48 265.832C493.615 266.868 494.563 267.477 496.616 267.341C498.714 267.206 501.692 265.944 501.444 264.975C501.218 264.119 500.293 262.136 499.91 257.088L499.526 257.201L493.119 259.004C493.119 259.004 493.435 261.032 493.593 262.97C493.728 264.547 493.412 265.291 493.48 265.832Z" fill="#FFB27D"/>
<path d="M493.142 258.959C493.142 258.959 493.457 260.987 493.615 262.925C497.248 262.542 498.917 259.071 499.571 257.156L493.142 258.959Z" fill="#F4A269"/>
<path d="M493.007 261.933C493.007 261.933 501.399 259.838 500 254.632C498.602 249.427 498.76 245.664 493.345 246.791C487.93 247.917 487.434 250.171 487.479 252.018C487.502 253.866 490.773 262.339 493.007 261.933Z" fill="#FFB27D"/>
<path d="M489.487 247.669C489.487 247.669 492.307 253.032 497.609 253.596C500.723 253.934 501.58 255.984 501.58 255.984C501.58 255.984 500.655 250.126 499.076 246.565C499.076 246.565 490.435 244.312 489.487 247.669Z" fill="#163560"/>
<path d="M490.457 248.39C490.457 248.39 488.629 250.261 488.043 251.59C487.208 253.551 488.832 257.652 489.509 258.553C489.509 258.553 485.606 251.928 486.915 249.066C488.314 246.024 490.457 248.39 490.457 248.39Z" fill="#163560"/>
<path d="M464.872 296.635C464.872 296.635 463.203 298.393 463 298.506C461.894 299.024 460.495 298.731 459.818 298.889C459.142 299.069 459.254 298.641 459.751 298.303C460.247 297.965 461.465 298.1 460.969 297.965C460.473 297.83 457.765 297.334 456.75 297.604C455.148 298.032 453.862 297.537 453.772 297.356C453.682 297.176 457.45 295.351 458.533 295.418C459.615 295.486 462.706 295.328 462.706 295.328L464.872 296.635Z" fill="#FFB27D"/>
<path d="M509.927 269.64C509.927 269.64 510.919 294.202 508.032 297.649C505.234 300.984 493.254 298.731 488.065 297.604C487.817 297.559 487.276 297.604 486.915 297.942C486.509 298.303 486.328 295.486 486.328 295.486C486.328 295.486 501.963 293.21 503.001 292.917C504.512 292.489 503.452 275.566 503.452 275.566L509.927 269.64Z" fill="#FFB27D"/>
<path d="M487.546 297.266C487.546 297.266 486.147 298.686 485.606 299.407C485.064 300.128 481.342 301.435 481.274 301.052C481.184 300.669 482.943 299.475 483.101 299.046C483.259 298.618 485.177 296.387 486.328 296.14C487.501 295.892 487.546 297.266 487.546 297.266Z" fill="#FFB27D"/>
<path d="M486.328 295.486C486.328 295.486 480.597 296.816 479.605 297.199C478.635 297.604 476.559 300.511 477.394 300.962C477.913 301.232 480.169 300.038 481.319 299.79C482.47 299.542 485.719 300.106 487.208 297.154C487.411 296.838 486.328 295.486 486.328 295.486Z" fill="#FFB27D"/>
<path d="M439.875 362.231C437.641 363.155 434.911 365.995 433.806 366.806C432.7 367.617 425.323 367.324 425.097 366.828C424.465 365.521 427.06 364.597 428.684 363.831C428.707 363.831 428.729 363.809 428.752 363.809L428.978 363.741C428.978 363.741 432.159 364.868 434.798 363.741C436.851 362.862 439.92 359.572 441.928 358.243C442.401 359.73 441.883 361.398 439.875 362.231Z" fill="#2A4E96"/>
<path d="M451.155 349.703C450.05 351.843 449.802 355.764 449.463 357.094C449.125 358.423 443.327 362.952 442.808 362.727C441.544 362.164 442.763 359.933 443.53 358.333C443.981 358.31 444.59 358.153 445.312 357.679C446.756 356.711 449.238 353.06 449.441 350.897C449.621 349.139 449.508 346.615 450.478 345.556C451.606 346.48 452.08 347.945 451.155 349.703Z" fill="#193B72"/>
<path d="M478.928 301.705H453.93L446.417 283.025H471.37L478.928 301.705Z" fill="#EF8035"/>
<path d="M453.637 300.962H486.666V301.705H453.93L453.637 300.962Z" fill="#ED7D2B"/>
<path d="M460.247 292.354C460.067 291.7 460.428 291.16 461.105 291.16C461.759 291.16 462.458 291.7 462.639 292.354C462.819 293.007 462.458 293.548 461.782 293.548C461.105 293.548 460.428 293.007 460.247 292.354Z" fill="white"/>
<path d="M502.91 297.717C502.03 299.407 501.06 301.007 500.022 302.449C492.013 302.156 490.072 298.911 490.072 298.911L502.91 297.717Z" fill="#5A7DE0"/>
<path d="M490.456 294.652C490.456 294.652 499.616 292.557 500.744 290.596C501.872 288.636 503.474 275.544 503.474 275.544L507.286 280.433L506.519 291.926C506.519 291.926 502.165 296.23 501.894 296.072C501.601 295.937 490.456 294.652 490.456 294.652Z" fill="#5A7DE0"/>
<path d="M507.084 266.372C507.084 266.372 509.25 267.454 510.084 268.986C511.664 271.893 513.378 294.382 508.844 298.1C504.331 301.818 491.201 301.075 489.667 298.438C489.667 298.438 489.554 295.982 490.456 294.652C490.456 294.652 502.256 293.098 502.797 292.354C503.316 291.61 502.414 275.679 502.978 274.237C503.519 272.795 507.084 266.372 507.084 266.372Z" fill="#739AF0"/>
<path d="M509.046 297.852C509.046 297.852 505.639 301.052 491.38 301.503C480.235 301.863 468.481 306.347 462.999 314.077C461.464 316.217 460.404 319.778 459.998 322.166C459.254 326.56 487.071 333.365 487.522 332.735C487.974 332.104 505.842 316.758 505.842 316.758L509.046 297.852Z" fill="#F99746"/>
<path d="M380.065 209.88C380.065 209.88 393.94 224.257 394.595 229.642C395.249 235.05 387.939 243.5 387.939 243.5L380.065 209.88Z" fill="#ED7D2B"/>
<path d="M373.793 358.761C373.793 358.761 373.297 366.378 371.83 366.49C371.627 366.513 364.34 366.49 364.34 366.49L355.022 366.423C355.022 366.423 355.09 364.192 357.82 363.719C360.55 363.245 365.107 361.352 366.754 357.77C368.491 353.984 373.793 358.761 373.793 358.761Z" fill="#0E2644"/>
<path d="M394.527 358.806C394.527 358.806 394.03 366.423 392.564 366.535C392.361 366.558 385.074 366.535 385.074 366.535L375.756 366.468C375.756 366.468 375.824 364.237 378.553 363.764C381.283 363.29 385.841 361.398 387.488 357.815C389.225 354.029 394.527 358.806 394.527 358.806Z" fill="#0E2644"/>
<path d="M363.663 276.851C363.663 276.851 366.055 292.399 375.079 320.025C384.103 347.652 385.322 359.595 385.322 359.595L395.068 359.347C395.068 359.347 395.226 329.174 391.052 315.293C386.901 301.412 390.263 265.246 390.263 265.246L363.663 276.851Z" fill="#163560"/>
<path d="M358.948 266.034C358.948 266.034 358.542 289.47 362.558 318.245C366.551 347.021 365.152 359.234 365.152 359.234L374.876 359.572C374.876 359.572 380.742 330.797 379.118 316.397C377.493 301.998 387.172 267.003 387.172 267.003L358.948 266.034Z" fill="#1C468A"/>
<path d="M377.9 211.232L372.711 214.612L365.221 213.192C365.334 212.584 365.83 210.083 366.281 207.829C366.304 207.694 366.326 207.559 366.371 207.424C366.755 205.486 367.093 203.841 367.093 203.841L374.087 200.776L376.704 199.627C376.704 199.672 376.501 201.768 376.479 202.083C375.96 207.537 377.9 211.232 377.9 211.232Z" fill="#FFB27D"/>
<path d="M367.138 209.497C367.274 209.429 376.163 206.838 377.11 207.153C378.08 207.469 378.644 209.339 378.644 209.339L364.138 212.584C364.138 212.607 365.288 210.286 367.138 209.497Z" fill="#ED7D2B"/>
<path d="M390.895 268.986C389.383 275.837 364.363 276.58 357.911 270.361C357.189 269.64 357.144 266.35 357.437 261.911C358.001 253.235 359.761 240.166 359.851 233.495C359.896 230.273 360.347 226.983 360.934 223.986C362.197 217.609 364.138 212.607 364.138 212.607C364.138 212.607 376.366 208.686 378.644 209.362C389.677 212.607 392.407 262.159 390.895 268.986Z" fill="#F99746"/>
<path d="M357.437 261.911C358.001 253.235 359.76 240.166 359.851 233.496C359.896 230.273 360.347 226.983 360.933 223.986L368.288 222.702C368.288 222.702 375.418 252.041 357.437 261.911Z" fill="#ED7D2B"/>
<path d="M361.452 249.81C361.452 249.81 361.948 251.004 360.888 251.815C359.828 252.627 359.151 253.911 359.376 254.858C359.625 255.804 361.926 257.359 362.715 257.111C363.505 256.863 365.152 255.624 364.972 255.105C364.791 254.587 366.077 250.711 364.137 249.202C362.219 247.714 361.452 249.81 361.452 249.81Z" fill="#FFB27D"/>
<path d="M369.755 210.849C369.755 210.849 362.581 212.178 356.85 220.561C351.12 228.966 347.352 235.208 348.39 238.228C349.427 241.247 359.016 251.793 360.663 251.793C362.31 251.793 364.995 250.599 365.152 247.895C365.152 247.895 358.429 237.777 359.76 236.267C360.324 235.614 368.537 228.989 369.71 231.986C371.627 236.988 369.755 210.849 369.755 210.849Z" fill="#F99746"/>
<path d="M375.937 202.196C374.402 204.787 368.672 207.018 366.28 207.852C366.303 207.717 366.325 207.582 366.371 207.446C366.754 205.508 367.093 203.864 367.093 203.864L374.086 200.799C375.621 200.776 376.568 201.137 375.937 202.196Z" fill="#FCA56B"/>
<path d="M364.453 203.435C364.453 203.435 375.711 206.973 377.809 199.943C379.907 192.912 382.772 188.631 375.666 186.084C368.559 183.538 366.371 185.791 365.085 187.977C363.821 190.14 361.588 202.331 364.453 203.435Z" fill="#FFB27D"/>
<path d="M365.536 187.279C365.536 187.279 366.235 195.481 367.928 195.12C369.62 194.76 371.154 194.512 370.906 196.968C370.657 199.424 368.288 202.286 373.523 202.737C378.757 203.188 386.292 189.735 384.871 187.188C380.742 179.82 359.557 178.288 365.536 187.279Z" fill="#163560"/>
<path d="M456.345 166.007C456.142 166.21 456.142 166.547 456.345 166.75C456.548 166.953 456.886 166.953 457.089 166.75C457.292 166.547 457.292 166.21 457.089 166.007C456.886 165.804 456.548 165.804 456.345 166.007Z" fill="#D5E5FB"/>
<path d="M458.082 167.764C457.879 167.967 457.879 168.305 458.082 168.508C458.285 168.711 458.623 168.711 458.826 168.508C459.029 168.305 459.029 167.967 458.826 167.764C458.623 167.562 458.285 167.562 458.082 167.764Z" fill="#D5E5FB"/>
<path d="M460.609 169.545C460.406 169.342 460.067 169.342 459.864 169.545C459.661 169.747 459.661 170.085 459.864 170.288C460.067 170.491 460.406 170.491 460.609 170.288C460.812 170.085 460.812 169.747 460.609 169.545Z" fill="#D5E5FB"/>
<path d="M461.602 171.302C461.398 171.505 461.398 171.843 461.602 172.046C461.805 172.249 462.143 172.249 462.346 172.046C462.549 171.843 462.549 171.505 462.346 171.302C462.143 171.099 461.805 171.099 461.602 171.302Z" fill="#D5E5FB"/>
<path d="M463.339 173.06C463.136 173.263 463.136 173.601 463.339 173.803C463.542 174.006 463.88 174.006 464.083 173.803C464.287 173.601 464.287 173.263 464.083 173.06C463.903 172.857 463.564 172.857 463.339 173.06Z" fill="#D5E5FB"/>
<path d="M465.865 174.84C465.662 174.637 465.324 174.637 465.121 174.84C464.918 175.043 464.918 175.381 465.121 175.584C465.324 175.786 465.662 175.786 465.865 175.584C466.068 175.403 466.068 175.065 465.865 174.84Z" fill="#D5E5FB"/>
<path d="M466.791 176.553C466.588 176.755 466.588 177.093 466.791 177.296C466.994 177.499 467.332 177.499 467.535 177.296C467.738 177.093 467.738 176.755 467.535 176.553C467.332 176.35 467.017 176.35 466.791 176.553Z" fill="#D5E5FB"/>
<path d="M468.528 178.31C468.325 178.513 468.325 178.851 468.528 179.054C468.731 179.257 469.07 179.257 469.273 179.054C469.476 178.851 469.476 178.513 469.273 178.31C469.092 178.085 468.754 178.085 468.528 178.31Z" fill="#D5E5FB"/>
<path d="M471.055 180.09C470.852 179.888 470.514 179.888 470.31 180.09C470.107 180.293 470.107 180.631 470.31 180.834C470.514 181.037 470.852 181.037 471.055 180.834C471.258 180.631 471.258 180.293 471.055 180.09Z" fill="#D5E5FB"/>
<path d="M472.07 181.848C471.867 182.051 471.867 182.389 472.07 182.592C472.273 182.794 472.612 182.794 472.815 182.592C473.018 182.389 473.018 182.051 472.815 181.848C472.612 181.645 472.273 181.645 472.07 181.848Z" fill="#D5E5FB"/>
<path d="M473.808 183.606C473.605 183.808 473.605 184.146 473.808 184.349C474.011 184.552 474.349 184.552 474.552 184.349C474.755 184.146 474.755 183.808 474.552 183.606C474.349 183.403 474.011 183.403 473.808 183.606Z" fill="#D5E5FB"/>
<path d="M476.312 185.386C476.109 185.183 475.77 185.183 475.567 185.386C475.364 185.589 475.364 185.927 475.567 186.129C475.77 186.332 476.109 186.332 476.312 186.129C476.537 185.927 476.537 185.589 476.312 185.386Z" fill="#D5E5FB"/>
<path d="M435.181 171.415C434.888 171.347 434.617 171.527 434.549 171.82C434.482 172.113 434.662 172.384 434.955 172.451C435.249 172.519 435.519 172.339 435.587 172.046C435.655 171.775 435.474 171.482 435.181 171.415Z" fill="#D5E5FB"/>
<path d="M434.618 173.826C434.324 173.758 434.054 173.939 433.986 174.232C433.918 174.524 434.099 174.795 434.392 174.862C434.685 174.93 434.956 174.75 435.024 174.457C435.091 174.186 434.911 173.894 434.618 173.826Z" fill="#D5E5FB"/>
<path d="M434.459 176.891C434.527 176.598 434.346 176.327 434.053 176.26C433.76 176.192 433.489 176.372 433.421 176.665C433.354 176.958 433.534 177.229 433.828 177.296C434.121 177.364 434.392 177.183 434.459 176.891Z" fill="#D5E5FB"/>
<path d="M433.512 178.693C433.219 178.626 432.948 178.806 432.88 179.099C432.813 179.392 432.993 179.662 433.286 179.73C433.58 179.797 433.851 179.617 433.918 179.324C433.963 179.054 433.783 178.761 433.512 178.693Z" fill="#D5E5FB"/>
<path d="M432.948 181.104C432.654 181.037 432.384 181.217 432.316 181.51C432.248 181.803 432.429 182.073 432.722 182.141C433.015 182.209 433.286 182.028 433.354 181.735C433.421 181.465 433.241 181.172 432.948 181.104Z" fill="#D5E5FB"/>
<path d="M432.79 184.169C432.858 183.876 432.677 183.606 432.384 183.538C432.091 183.47 431.82 183.651 431.752 183.944C431.685 184.237 431.865 184.507 432.159 184.575C432.429 184.642 432.723 184.462 432.79 184.169Z" fill="#D5E5FB"/>
<path d="M431.843 185.882C431.55 185.814 431.279 185.994 431.211 186.287C431.144 186.58 431.324 186.85 431.618 186.918C431.911 186.986 432.182 186.805 432.249 186.512C432.317 186.242 432.137 185.949 431.843 185.882Z" fill="#D5E5FB"/>
<path d="M431.302 188.293C431.009 188.225 430.738 188.405 430.67 188.698C430.603 188.991 430.783 189.262 431.077 189.329C431.37 189.397 431.641 189.217 431.708 188.924C431.753 188.631 431.573 188.36 431.302 188.293Z" fill="#D5E5FB"/>
<path d="M431.144 191.357C431.212 191.064 431.031 190.794 430.738 190.726C430.444 190.659 430.174 190.839 430.106 191.132C430.038 191.425 430.219 191.695 430.512 191.763C430.783 191.831 431.076 191.65 431.144 191.357Z" fill="#D5E5FB"/>
<path d="M430.173 193.16C429.88 193.092 429.609 193.273 429.542 193.566C429.474 193.859 429.654 194.129 429.948 194.197C430.241 194.264 430.512 194.084 430.579 193.791C430.647 193.521 430.467 193.228 430.173 193.16Z" fill="#D5E5FB"/>
<path d="M429.61 195.571C429.317 195.504 429.046 195.684 428.978 195.977C428.91 196.27 429.091 196.54 429.384 196.608C429.678 196.675 429.948 196.495 430.016 196.202C430.084 195.909 429.903 195.639 429.61 195.571Z" fill="#D5E5FB"/>
<path d="M429.451 198.636C429.519 198.343 429.339 198.072 429.045 198.005C428.752 197.937 428.481 198.117 428.414 198.41C428.346 198.703 428.526 198.974 428.82 199.041C429.113 199.109 429.384 198.929 429.451 198.636Z" fill="#D5E5FB"/>
<path d="M455.441 154.222C455.441 147.799 450.23 142.594 443.8 142.594C437.37 142.594 432.158 147.799 432.158 154.222C432.158 160.644 437.37 165.849 443.8 165.849C450.23 165.849 455.441 160.644 455.441 154.222Z" fill="#C6DCF7"/>
<path d="M447.522 149.557C447.522 147.484 445.853 145.816 443.777 145.816C441.702 145.816 440.032 147.484 440.032 149.557C440.032 151.63 441.702 153.298 443.777 153.298C445.853 153.275 447.522 151.608 447.522 149.557Z" fill="#EBF3FA"/>
<path d="M443.8 153.275C447.409 153.275 450.342 156.205 450.342 159.81H437.257C437.257 156.205 440.19 153.275 443.8 153.275Z" fill="#EBF3FA"/>
<path d="M472.182 190.118L471.753 189.059C471.279 187.91 470.174 187.166 468.933 187.166H460.969V192.214V213.756H493.908V192.214H475.272C473.919 192.191 472.678 191.38 472.182 190.118Z" fill="#C6DCF7"/>
<path d="M482.356 199.289H481.251C481.273 199.109 481.296 198.929 481.296 198.748V198.365C481.296 196.63 479.874 195.233 478.16 195.233H476.22C474.482 195.233 473.084 196.653 473.084 198.365V198.748C473.084 198.929 473.106 199.109 473.129 199.289H471.91C471.279 199.289 470.76 199.807 470.76 200.438V205.486C470.76 208.348 473.084 210.646 475.926 210.646H478.972C481.657 210.646 483.845 208.483 483.845 205.779V200.776C483.845 199.965 483.191 199.289 482.356 199.289ZM477.663 204.382V206.725C477.663 206.928 477.506 207.086 477.302 207.086C477.099 207.086 476.941 206.928 476.941 206.725V204.382C476.174 204.224 475.61 203.526 475.61 202.714C475.61 201.768 476.377 201.002 477.325 201.002C478.273 201.002 479.04 201.768 479.04 202.714C479.017 203.526 478.43 204.202 477.663 204.382ZM480.055 198.748C480.055 198.929 480.032 199.131 479.965 199.289H474.415C474.37 199.109 474.324 198.929 474.324 198.748V198.365C474.324 197.329 475.182 196.472 476.22 196.472H478.16C479.198 196.472 480.055 197.329 480.055 198.365V198.748Z" fill="#EBF3FA"/>
<path d="M416.479 215.153C416.479 221.102 426.541 231.941 426.541 231.941C426.541 231.941 436.603 221.102 436.603 215.153C436.603 209.204 432.091 204.404 426.541 204.404C420.991 204.404 416.479 209.227 416.479 215.153ZM420.697 214.071C420.697 210.849 423.315 208.235 426.541 208.235C429.767 208.235 432.384 210.849 432.384 214.071C432.384 217.294 429.767 219.908 426.541 219.908C423.315 219.908 420.697 217.294 420.697 214.071Z" fill="#C6DCF7"/>
<path d="M183.785 210.917C183.537 209.88 183.988 209.091 184.936 209.091C185.883 209.091 186.718 209.88 186.966 210.917C187.214 211.953 186.763 212.742 185.815 212.742C184.868 212.764 184.033 211.953 183.785 210.917ZM186.154 210.917C185.996 210.286 185.567 209.79 185.094 209.79C184.62 209.79 184.439 210.263 184.597 210.917C184.755 211.57 185.184 212.043 185.658 212.043C186.131 212.043 186.312 211.57 186.154 210.917Z" fill="#F99746"/>
<path d="M170.045 184.327L169.458 184.485L169.143 183.854L170.09 183.538H170.632L171.489 187.099H170.722L170.045 184.327Z" fill="#2F539B"/>
<path d="M172.82 185.341C172.572 184.304 173.023 183.516 173.971 183.516C174.918 183.516 175.753 184.304 176.001 185.341C176.249 186.377 175.798 187.166 174.851 187.166C173.903 187.166 173.068 186.377 172.82 185.341ZM175.189 185.341C175.031 184.71 174.602 184.214 174.129 184.214C173.655 184.214 173.474 184.687 173.632 185.341C173.79 185.994 174.219 186.467 174.693 186.467C175.167 186.467 175.347 185.972 175.189 185.341Z" fill="#2F539B"/>
<path d="M189.605 234.577C189.357 233.541 189.808 232.752 190.756 232.752C191.704 232.752 192.538 233.541 192.786 234.577C193.035 235.614 192.583 236.402 191.636 236.402C190.688 236.402 189.853 235.614 189.605 234.577ZM191.974 234.577C191.816 233.946 191.388 233.45 190.914 233.45C190.44 233.45 190.26 233.924 190.418 234.577C190.575 235.231 191.004 235.704 191.478 235.704C191.952 235.704 192.132 235.231 191.974 234.577Z" fill="#2F539B"/>
<path d="M174.061 200.979L173.474 201.137L173.158 200.506L174.106 200.191H174.647L175.504 203.751H174.737L174.061 200.979Z" fill="#2F539B"/>
<path d="M176.858 201.993C176.61 200.957 177.061 200.168 178.009 200.168C178.956 200.168 179.791 200.957 180.039 201.993C180.288 203.03 179.836 203.818 178.889 203.818C177.941 203.818 177.106 203.03 176.858 201.993ZM179.227 201.971C179.069 201.34 178.641 200.844 178.167 200.844C177.693 200.844 177.513 201.317 177.67 201.971C177.828 202.624 178.257 203.097 178.731 203.097C179.205 203.12 179.385 202.624 179.227 201.971Z" fill="#2F539B"/>
<path d="M176.385 192.597L175.798 192.754L175.482 192.123L176.43 191.808H176.971L177.829 195.368H177.062L176.385 192.597Z" fill="#F99746"/>
<path d="M179.182 193.611C178.934 192.574 179.386 191.785 180.333 191.785C181.281 191.785 182.115 192.574 182.364 193.611C182.612 194.647 182.161 195.436 181.213 195.436C180.265 195.436 179.431 194.647 179.182 193.611ZM181.551 193.611C181.393 192.98 180.965 192.484 180.491 192.484C180.017 192.484 179.837 192.957 179.995 193.611C180.153 194.264 180.581 194.737 181.055 194.737C181.529 194.737 181.709 194.264 181.551 193.611Z" fill="#F99746"/>
<path d="M176.249 209.925L175.663 210.083L175.347 209.452L176.294 209.136H176.836L177.693 212.697H176.926L176.249 209.925Z" fill="#2F539B"/>
<path d="M179.024 210.939C178.776 209.903 179.227 209.114 180.175 209.114C181.122 209.114 181.957 209.903 182.205 210.939C182.454 211.976 182.002 212.764 181.055 212.764C180.107 212.764 179.272 211.976 179.024 210.939ZM181.416 210.939C181.258 210.308 180.829 209.812 180.355 209.812C179.882 209.812 179.701 210.286 179.859 210.939C180.017 211.593 180.446 212.066 180.919 212.066C181.371 212.066 181.574 211.593 181.416 210.939Z" fill="#2F539B"/>
<path d="M186.334 185.341C186.086 184.304 186.537 183.516 187.484 183.516C188.432 183.516 189.267 184.304 189.515 185.341C189.763 186.377 189.312 187.166 188.364 187.166C187.394 187.166 186.582 186.377 186.334 185.341ZM188.703 185.318C188.545 184.687 188.116 184.192 187.642 184.192C187.169 184.192 186.988 184.665 187.146 185.318C187.304 185.972 187.733 186.445 188.206 186.445C188.68 186.445 188.861 185.972 188.703 185.318Z" fill="#F99746"/>
<path d="M178.775 184.327L178.189 184.484L177.873 183.854L178.821 183.538H179.362L180.219 187.098H179.452L178.775 184.327Z" fill="#2F539B"/>
<path d="M181.574 185.341C181.326 184.304 181.777 183.516 182.725 183.516C183.672 183.516 184.507 184.304 184.755 185.341C185.003 186.377 184.552 187.166 183.605 187.166C182.634 187.166 181.822 186.377 181.574 185.341ZM183.943 185.341C183.785 184.71 183.356 184.214 182.883 184.214C182.409 184.214 182.228 184.687 182.386 185.341C182.544 185.994 182.973 186.467 183.447 186.467C183.92 186.467 184.101 185.994 183.943 185.341Z" fill="#2F539B"/>
<path d="M187.935 228.2C187.687 227.164 188.138 226.375 189.086 226.375C190.034 226.375 190.868 227.164 191.117 228.2C191.365 229.237 190.913 230.025 189.966 230.025C189.018 230.025 188.184 229.237 187.935 228.2ZM190.304 228.2C190.146 227.569 189.718 227.073 189.244 227.073C188.77 227.073 188.59 227.547 188.748 228.2C188.906 228.854 189.334 229.327 189.808 229.327C190.282 229.327 190.462 228.854 190.304 228.2Z" fill="#F99746"/>
<path d="M178.212 218.263L177.625 218.42L177.31 217.789L178.257 217.474H178.799L179.656 221.034H178.889L178.212 218.263Z" fill="#2F539B"/>
<path d="M181.01 219.277C180.761 218.24 181.213 217.451 182.16 217.451C183.108 217.451 183.943 218.24 184.191 219.277C184.439 220.313 183.988 221.102 183.04 221.102C182.07 221.102 181.258 220.313 181.01 219.277ZM183.379 219.277C183.221 218.646 182.792 218.15 182.318 218.15C181.844 218.15 181.664 218.623 181.822 219.277C181.98 219.93 182.408 220.403 182.882 220.403C183.356 220.403 183.536 219.908 183.379 219.277Z" fill="#2F539B"/>
<path d="M185.769 219.254C185.521 218.218 185.972 217.429 186.92 217.429C187.868 217.429 188.702 218.218 188.95 219.254C189.199 220.291 188.747 221.079 187.8 221.079C186.83 221.102 186.018 220.291 185.769 219.254ZM188.138 219.254C187.98 218.623 187.552 218.127 187.078 218.127C186.604 218.127 186.424 218.601 186.582 219.254C186.739 219.908 187.168 220.381 187.642 220.381C188.116 220.381 188.296 219.908 188.138 219.254Z" fill="#2F539B"/>
<path d="M190.891 218.24L190.304 218.398L189.988 217.767L190.936 217.451H191.477L192.335 221.012H191.568L190.891 218.24Z" fill="#2F539B"/>
<path d="M180.378 227.209L179.791 227.366L179.476 226.735L180.423 226.42H180.965L181.822 229.98H181.055L180.378 227.209Z" fill="#2F539B"/>
<path d="M183.176 228.223C182.927 227.186 183.379 226.397 184.326 226.397C185.274 226.397 186.109 227.186 186.357 228.223C186.605 229.259 186.154 230.048 185.206 230.048C184.259 230.048 183.424 229.259 183.176 228.223ZM185.545 228.223C185.387 227.592 184.958 227.096 184.484 227.096C184.01 227.096 183.83 227.569 183.988 228.223C184.146 228.876 184.574 229.349 185.048 229.349C185.522 229.349 185.702 228.876 185.545 228.223Z" fill="#2F539B"/>
<path d="M192.133 248.052C191.884 247.016 192.336 246.227 193.283 246.227C194.231 246.227 195.066 247.016 195.314 248.052C195.562 249.089 195.111 249.878 194.163 249.878C193.216 249.878 192.403 249.089 192.133 248.052ZM194.524 248.052C194.366 247.421 193.938 246.926 193.464 246.926C192.99 246.926 192.809 247.399 192.967 248.052C193.125 248.706 193.554 249.179 194.028 249.179C194.479 249.179 194.682 248.706 194.524 248.052Z" fill="#2F539B"/>
<path d="M197.275 247.038L196.689 247.196L196.373 246.565L197.321 246.25H197.862L198.719 249.81H197.952L197.275 247.038Z" fill="#2F539B"/>
<path d="M184.597 247.061L184.01 247.219L183.694 246.588L184.642 246.272H185.183L186.041 249.833H185.274L184.597 247.061Z" fill="#2F539B"/>
<path d="M187.394 248.052C187.146 247.016 187.597 246.227 188.545 246.227C189.493 246.227 190.327 247.016 190.575 248.052C190.824 249.089 190.372 249.878 189.425 249.878C188.455 249.878 187.643 249.089 187.394 248.052ZM189.763 248.052C189.605 247.421 189.177 246.926 188.703 246.926C188.229 246.926 188.049 247.399 188.207 248.052C188.365 248.706 188.793 249.179 189.267 249.179C189.741 249.179 189.921 248.706 189.763 248.052Z" fill="#2F539B"/>
<path d="M200.051 248.03C199.802 246.993 200.254 246.205 201.201 246.205C202.149 246.205 202.984 246.993 203.232 248.03C203.48 249.066 203.029 249.855 202.081 249.855C201.134 249.855 200.299 249.066 200.051 248.03ZM202.442 248.03C202.284 247.399 201.856 246.903 201.382 246.903C200.908 246.903 200.727 247.376 200.885 248.03C201.043 248.683 201.472 249.157 201.946 249.157C202.397 249.157 202.6 248.683 202.442 248.03Z" fill="#F99746"/>
<path d="M204.811 248.03C204.563 246.993 205.014 246.205 205.962 246.205C206.91 246.205 207.744 246.993 207.992 248.03C208.241 249.066 207.789 249.855 206.842 249.855C205.894 249.855 205.06 249.066 204.811 248.03ZM207.18 248.03C207.022 247.399 206.594 246.903 206.12 246.903C205.646 246.903 205.466 247.376 205.624 248.03C205.781 248.683 206.21 249.157 206.684 249.157C207.158 249.157 207.361 248.683 207.18 248.03Z" fill="#F99746"/>
<path d="M186.266 254.43C186.018 253.393 186.47 252.604 187.417 252.604C188.365 252.604 189.199 253.393 189.448 254.43C189.696 255.466 189.244 256.255 188.297 256.255C187.327 256.255 186.515 255.466 186.266 254.43ZM188.635 254.43C188.477 253.799 188.049 253.303 187.575 253.303C187.101 253.303 186.921 253.776 187.079 254.43C187.237 255.083 187.665 255.556 188.139 255.556C188.613 255.556 188.793 255.083 188.635 254.43Z" fill="#2F539B"/>
<path d="M191.388 253.415L190.801 253.573L190.485 252.942L191.433 252.627H191.974L192.832 256.187H192.065L191.388 253.415Z" fill="#2F539B"/>
<path d="M194.185 254.43C193.937 253.393 194.388 252.604 195.336 252.604C196.284 252.604 197.118 253.393 197.366 254.43C197.615 255.466 197.163 256.255 196.216 256.255C195.246 256.255 194.434 255.466 194.185 254.43ZM196.554 254.407C196.396 253.776 195.968 253.28 195.494 253.28C195.02 253.28 194.84 253.754 194.998 254.407C195.155 255.06 195.584 255.534 196.058 255.534C196.532 255.534 196.712 255.06 196.554 254.407Z" fill="#2F539B"/>
<path d="M198.946 254.407C198.698 253.37 199.149 252.582 200.097 252.582C201.044 252.582 201.879 253.37 202.127 254.407C202.375 255.444 201.924 256.232 200.977 256.232C200.006 256.232 199.194 255.444 198.946 254.407ZM201.315 254.407C201.157 253.776 200.728 253.28 200.255 253.28C199.781 253.28 199.6 253.754 199.758 254.407C199.916 255.06 200.345 255.534 200.819 255.534C201.292 255.534 201.473 255.06 201.315 254.407Z" fill="#2F539B"/>
<path d="M336.117 248.052C335.869 247.016 336.32 246.227 337.268 246.227C338.215 246.227 339.05 247.016 339.298 248.052C339.546 249.089 339.095 249.878 338.148 249.878C337.177 249.878 336.365 249.089 336.117 248.052ZM338.486 248.052C338.328 247.421 337.899 246.926 337.426 246.926C336.952 246.926 336.771 247.399 336.929 248.052C337.087 248.706 337.516 249.179 337.99 249.179C338.463 249.179 338.644 248.706 338.486 248.052Z" fill="#2F539B"/>
<path d="M341.238 247.038L340.652 247.196L340.336 246.565L341.284 246.25H341.825L342.682 249.81H341.915L341.238 247.038Z" fill="#2F539B"/>
<path d="M328.559 247.061L327.972 247.219L327.656 246.588L328.604 246.272H329.145L330.003 249.833H329.236L328.559 247.061Z" fill="#2F539B"/>
<path d="M331.356 248.052C331.108 247.016 331.559 246.227 332.507 246.227C333.454 246.227 334.289 247.016 334.537 248.052C334.786 249.089 334.334 249.878 333.387 249.878C332.417 249.878 331.604 249.089 331.356 248.052ZM333.725 248.052C333.567 247.421 333.139 246.926 332.665 246.926C332.191 246.926 332.011 247.399 332.168 248.052C332.326 248.706 332.755 249.179 333.229 249.179C333.703 249.179 333.883 248.706 333.725 248.052Z" fill="#2F539B"/>
<path d="M344.013 248.03C343.764 246.993 344.216 246.205 345.163 246.205C346.111 246.205 346.946 246.993 347.194 248.03C347.442 249.066 346.991 249.855 346.043 249.855C345.096 249.855 344.283 249.066 344.013 248.03ZM346.404 248.03C346.246 247.399 345.818 246.903 345.344 246.903C344.87 246.903 344.689 247.376 344.847 248.03C345.005 248.683 345.434 249.157 345.908 249.157C346.359 249.157 346.562 248.683 346.404 248.03Z" fill="#F99746"/>
<path d="M348.773 248.03C348.525 246.993 348.976 246.205 349.924 246.205C350.871 246.205 351.706 246.993 351.954 248.03C352.203 249.066 351.751 249.855 350.804 249.855C349.856 249.855 349.044 249.066 348.773 248.03ZM351.165 248.03C351.007 247.399 350.578 246.903 350.104 246.903C349.631 246.903 349.45 247.376 349.608 248.03C349.766 248.683 350.195 249.157 350.668 249.157C351.12 249.157 351.323 248.683 351.165 248.03Z" fill="#F99746"/>
<path d="M317.075 254.43C316.827 253.393 317.278 252.604 318.226 252.604C319.173 252.604 320.008 253.393 320.256 254.43C320.504 255.466 320.053 256.255 319.105 256.255C318.158 256.255 317.323 255.466 317.075 254.43ZM319.444 254.43C319.286 253.799 318.857 253.303 318.384 253.303C317.91 253.303 317.729 253.776 317.887 254.43C318.045 255.083 318.474 255.556 318.948 255.556C319.421 255.556 319.602 255.083 319.444 254.43Z" fill="#2F539B"/>
<path d="M322.196 253.415L321.61 253.573L321.294 252.942L322.241 252.627H322.783L323.64 256.187H322.873L322.196 253.415Z" fill="#2F539B"/>
<path d="M324.994 254.43C324.746 253.393 325.197 252.604 326.145 252.604C327.092 252.604 327.927 253.393 328.175 254.43C328.423 255.466 327.972 256.255 327.024 256.255C326.077 256.255 325.242 255.466 324.994 254.43ZM327.363 254.407C327.205 253.776 326.776 253.28 326.303 253.28C325.829 253.28 325.648 253.754 325.806 254.407C325.964 255.06 326.393 255.534 326.867 255.534C327.34 255.534 327.521 255.06 327.363 254.407Z" fill="#2F539B"/>
<path d="M329.755 254.407C329.507 253.37 329.958 252.582 330.905 252.582C331.853 252.582 332.688 253.37 332.936 254.407C333.184 255.444 332.733 256.232 331.785 256.232C330.838 256.232 330.003 255.444 329.755 254.407ZM332.124 254.407C331.966 253.776 331.537 253.28 331.063 253.28C330.589 253.28 330.409 253.754 330.567 254.407C330.725 255.06 331.153 255.534 331.627 255.534C332.101 255.534 332.282 255.06 332.124 254.407Z" fill="#2F539B"/>
<path d="M198.179 271.127C197.93 270.09 198.382 269.302 199.329 269.302C200.277 269.302 201.112 270.09 201.36 271.127C201.608 272.164 201.157 272.952 200.209 272.952C199.261 272.975 198.427 272.164 198.179 271.127ZM200.57 271.127C200.412 270.496 199.983 270 199.51 270C199.036 270 198.855 270.474 199.013 271.127C199.171 271.781 199.6 272.254 200.074 272.254C200.525 272.254 200.728 271.781 200.57 271.127Z" fill="#F99746"/>
<path d="M203.3 270.113L202.713 270.271L202.397 269.64L203.345 269.324H203.886L204.744 272.885H203.977L203.3 270.113Z" fill="#F99746"/>
<path d="M188.477 261.19L187.89 261.347L187.574 260.716L188.522 260.401H189.063L189.921 263.961H189.153L188.477 261.19Z" fill="#2F539B"/>
<path d="M191.252 262.204C191.004 261.167 191.455 260.378 192.402 260.378C193.35 260.378 194.185 261.167 194.433 262.204C194.681 263.24 194.23 264.029 193.282 264.029C192.335 264.029 191.5 263.24 191.252 262.204ZM193.643 262.181C193.485 261.55 193.057 261.054 192.583 261.054C192.109 261.054 191.929 261.528 192.087 262.181C192.244 262.835 192.673 263.308 193.147 263.308C193.598 263.33 193.801 262.835 193.643 262.181Z" fill="#2F539B"/>
<path d="M196.013 262.181C195.764 261.145 196.216 260.356 197.163 260.356C198.111 260.356 198.945 261.145 199.194 262.181C199.442 263.218 198.991 264.006 198.043 264.006C197.095 264.006 196.261 263.218 196.013 262.181ZM198.381 262.181C198.223 261.55 197.795 261.054 197.321 261.054C196.847 261.054 196.667 261.528 196.825 262.181C196.983 262.835 197.411 263.308 197.885 263.308C198.359 263.308 198.539 262.835 198.381 262.181Z" fill="#2F539B"/>
<path d="M201.134 261.167L200.547 261.325L200.231 260.694L201.179 260.378H201.72L202.578 263.939H201.811L201.134 261.167Z" fill="#2F539B"/>
<path d="M327.77 261.19L327.183 261.347L326.867 260.716L327.815 260.401H328.356L329.214 263.961H328.446L327.77 261.19Z" fill="#2F539B"/>
<path d="M330.566 262.204C330.318 261.167 330.769 260.378 331.717 260.378C332.664 260.378 333.499 261.167 333.747 262.204C333.996 263.24 333.544 264.029 332.597 264.029C331.649 264.029 330.814 263.24 330.566 262.204ZM332.935 262.181C332.777 261.55 332.349 261.054 331.875 261.054C331.401 261.054 331.221 261.528 331.378 262.181C331.536 262.835 331.965 263.308 332.439 263.308C332.913 263.33 333.093 262.835 332.935 262.181Z" fill="#2F539B"/>
<path d="M335.327 262.181C335.079 261.145 335.53 260.356 336.478 260.356C337.425 260.356 338.26 261.145 338.508 262.181C338.756 263.218 338.305 264.006 337.357 264.006C336.387 264.006 335.575 263.218 335.327 262.181ZM337.696 262.181C337.538 261.55 337.109 261.054 336.636 261.054C336.162 261.054 335.981 261.528 336.139 262.181C336.297 262.835 336.726 263.308 337.2 263.308C337.673 263.308 337.854 262.835 337.696 262.181Z" fill="#2F539B"/>
<path d="M340.448 261.167L339.862 261.325L339.546 260.694L340.493 260.378H341.035L341.892 263.939H341.125L340.448 261.167Z" fill="#2F539B"/>
<path d="M190.644 270.136L190.057 270.293L189.741 269.662L190.689 269.347H191.23L192.088 272.907H191.32L190.644 270.136Z" fill="#2F539B"/>
<path d="M193.418 271.15C193.17 270.113 193.621 269.324 194.568 269.324C195.516 269.324 196.351 270.113 196.599 271.15C196.847 272.186 196.396 272.975 195.448 272.975C194.501 272.975 193.689 272.186 193.418 271.15ZM195.809 271.15C195.651 270.519 195.223 270.023 194.749 270.023C194.275 270.023 194.095 270.496 194.253 271.15C194.411 271.803 194.839 272.276 195.313 272.276C195.764 272.276 195.967 271.803 195.809 271.15Z" fill="#2F539B"/>
<path d="M206.098 271.127C205.849 270.09 206.301 269.302 207.248 269.302C208.196 269.302 209.03 270.09 209.279 271.127C209.527 272.164 209.076 272.952 208.128 272.952C207.18 272.952 206.346 272.164 206.098 271.127ZM208.466 271.127C208.308 270.496 207.88 270 207.406 270C206.932 270 206.752 270.474 206.91 271.127C207.068 271.78 207.496 272.254 207.97 272.254C208.444 272.254 208.624 271.78 208.466 271.127Z" fill="#2F539B"/>
<path d="M210.858 271.104C210.61 270.068 211.061 269.279 212.009 269.279C212.956 269.279 213.791 270.068 214.039 271.104C214.288 272.141 213.836 272.93 212.889 272.93C211.941 272.952 211.106 272.141 210.858 271.104ZM213.227 271.104C213.069 270.474 212.641 269.978 212.167 269.978C211.693 269.978 211.513 270.451 211.67 271.104C211.828 271.758 212.257 272.231 212.731 272.231C213.205 272.231 213.385 271.758 213.227 271.104Z" fill="#2F539B"/>
<path d="M200.029 277.459C199.781 276.423 200.232 275.634 201.18 275.634C202.127 275.634 202.962 276.423 203.21 277.459C203.458 278.496 203.007 279.284 202.06 279.284C201.09 279.284 200.277 278.496 200.029 277.459ZM202.398 277.459C202.24 276.828 201.811 276.332 201.338 276.332C200.864 276.332 200.683 276.806 200.841 277.459C200.999 278.113 201.428 278.586 201.902 278.586C202.375 278.586 202.556 278.113 202.398 277.459Z" fill="#F99746"/>
<path d="M205.15 276.445L204.564 276.603L204.248 275.972L205.196 275.656H205.737L206.594 279.217H205.827L205.15 276.445Z" fill="#F99746"/>
<path d="M195.268 277.459C195.02 276.423 195.471 275.634 196.419 275.634C197.367 275.634 198.201 276.423 198.449 277.459C198.698 278.496 198.246 279.284 197.299 279.284C196.329 279.284 195.517 278.496 195.268 277.459ZM197.637 277.459C197.479 276.828 197.051 276.332 196.577 276.332C196.103 276.332 195.923 276.806 196.081 277.459C196.239 278.113 196.667 278.586 197.141 278.586C197.615 278.586 197.795 278.113 197.637 277.459Z" fill="#2F539B"/>
<path d="M207.947 277.437C207.699 276.4 208.15 275.611 209.098 275.611C210.045 275.611 210.88 276.4 211.128 277.437C211.376 278.473 210.925 279.262 209.978 279.262C209.007 279.262 208.195 278.473 207.947 277.437ZM210.316 277.437C210.158 276.806 209.729 276.31 209.256 276.31C208.782 276.31 208.601 276.783 208.759 277.437C208.917 278.09 209.346 278.563 209.82 278.563C210.293 278.563 210.474 278.09 210.316 277.437Z" fill="#2F539B"/>
<path d="M212.685 277.437C212.437 276.4 212.888 275.611 213.836 275.611C214.784 275.611 215.618 276.4 215.866 277.437C216.115 278.473 215.663 279.262 214.716 279.262C213.768 279.262 212.956 278.473 212.685 277.437ZM215.077 277.437C214.919 276.806 214.49 276.31 214.016 276.31C213.543 276.31 213.362 276.783 213.52 277.437C213.678 278.09 214.107 278.563 214.581 278.563C215.032 278.563 215.235 278.09 215.077 277.437Z" fill="#2F539B"/>
<path d="M229.064 277.459C228.816 276.423 229.267 275.634 230.215 275.634C231.162 275.634 231.997 276.423 232.245 277.459C232.494 278.496 232.042 279.284 231.095 279.284C230.147 279.284 229.312 278.496 229.064 277.459ZM231.433 277.459C231.275 276.828 230.847 276.332 230.373 276.332C229.899 276.332 229.719 276.806 229.876 277.459C230.034 278.113 230.463 278.586 230.937 278.586C231.411 278.586 231.591 278.113 231.433 277.459Z" fill="#F99746"/>
<path d="M234.186 276.445L233.599 276.603L233.283 275.972L234.231 275.656H234.772L235.63 279.217H234.862L234.186 276.445Z" fill="#F99746"/>
<path d="M224.305 277.459C224.056 276.423 224.508 275.634 225.455 275.634C226.403 275.634 227.237 276.423 227.486 277.459C227.734 278.496 227.283 279.284 226.335 279.284C225.387 279.284 224.553 278.496 224.305 277.459ZM226.696 277.459C226.538 276.828 226.109 276.332 225.636 276.332C225.162 276.332 224.981 276.806 225.139 277.459C225.297 278.113 225.726 278.586 226.2 278.586C226.673 278.586 226.854 278.113 226.696 277.459Z" fill="#2F539B"/>
<path d="M236.983 277.437C236.735 276.4 237.186 275.611 238.134 275.611C239.081 275.611 239.916 276.4 240.164 277.437C240.413 278.473 239.961 279.262 239.014 279.262C238.066 279.262 237.231 278.473 236.983 277.437ZM239.352 277.437C239.194 276.806 238.766 276.31 238.292 276.31C237.818 276.31 237.638 276.783 237.795 277.437C237.953 278.09 238.382 278.563 238.856 278.563C239.33 278.563 239.51 278.09 239.352 277.437Z" fill="#2F539B"/>
<path d="M241.744 277.437C241.496 276.4 241.947 275.611 242.895 275.611C243.842 275.611 244.677 276.4 244.925 277.437C245.173 278.473 244.722 279.262 243.774 279.262C242.827 279.262 241.992 278.473 241.744 277.437ZM244.113 277.437C243.955 276.806 243.526 276.31 243.053 276.31C242.579 276.31 242.398 276.783 242.556 277.437C242.714 278.09 243.143 278.563 243.617 278.563C244.09 278.563 244.271 278.09 244.113 277.437Z" fill="#2F539B"/>
<path d="M295.214 277.459C294.966 276.423 295.417 275.634 296.364 275.634C297.312 275.634 298.147 276.423 298.395 277.459C298.643 278.496 298.192 279.284 297.244 279.284C296.274 279.284 295.462 278.496 295.214 277.459ZM297.583 277.459C297.425 276.828 296.996 276.332 296.522 276.332C296.049 276.332 295.868 276.806 296.026 277.459C296.184 278.113 296.613 278.586 297.086 278.586C297.56 278.586 297.741 278.113 297.583 277.459Z" fill="#F99746"/>
<path d="M300.335 276.445L299.748 276.603L299.433 275.972L300.38 275.656H300.922L301.779 279.217H301.012L300.335 276.445Z" fill="#F99746"/>
<path d="M290.453 277.459C290.205 276.423 290.656 275.634 291.604 275.634C292.551 275.634 293.386 276.423 293.634 277.459C293.882 278.496 293.431 279.284 292.483 279.284C291.536 279.284 290.701 278.496 290.453 277.459ZM292.822 277.459C292.664 276.828 292.235 276.332 291.762 276.332C291.288 276.332 291.107 276.806 291.265 277.459C291.423 278.113 291.852 278.586 292.326 278.586C292.799 278.586 292.98 278.113 292.822 277.459Z" fill="#2F539B"/>
<path d="M303.11 277.437C302.862 276.4 303.313 275.611 304.261 275.611C305.208 275.611 306.043 276.4 306.291 277.437C306.539 278.473 306.088 279.262 305.141 279.262C304.193 279.262 303.381 278.473 303.11 277.437ZM305.502 277.437C305.344 276.806 304.915 276.31 304.441 276.31C303.967 276.31 303.787 276.783 303.945 277.437C304.103 278.09 304.531 278.563 305.005 278.563C305.456 278.563 305.659 278.09 305.502 277.437Z" fill="#2F539B"/>
<path d="M307.871 277.437C307.623 276.4 308.074 275.611 309.021 275.611C309.969 275.611 310.804 276.4 311.052 277.437C311.3 278.473 310.849 279.262 309.901 279.262C308.954 279.262 308.119 278.473 307.871 277.437ZM310.262 277.437C310.104 276.806 309.676 276.31 309.202 276.31C308.728 276.31 308.548 276.783 308.706 277.437C308.864 278.09 309.292 278.563 309.766 278.563C310.217 278.563 310.42 278.09 310.262 277.437Z" fill="#2F539B"/>
<path d="M324.25 277.459C324.002 276.423 324.453 275.634 325.4 275.634C326.348 275.634 327.183 276.423 327.431 277.459C327.679 278.496 327.228 279.284 326.28 279.284C325.333 279.284 324.498 278.496 324.25 277.459ZM326.619 277.459C326.461 276.828 326.032 276.332 325.558 276.332C325.085 276.332 324.904 276.806 325.062 277.459C325.22 278.113 325.649 278.586 326.122 278.586C326.596 278.586 326.777 278.113 326.619 277.459Z" fill="#F99746"/>
<path d="M329.371 276.445L328.785 276.603L328.469 275.972L329.416 275.656H329.958L330.815 279.217H330.048L329.371 276.445Z" fill="#F99746"/>
<path d="M319.489 277.459C319.241 276.423 319.692 275.634 320.64 275.634C321.587 275.634 322.422 276.423 322.67 277.459C322.918 278.496 322.467 279.284 321.52 279.284C320.572 279.284 319.737 278.496 319.489 277.459ZM321.858 277.459C321.7 276.828 321.271 276.332 320.798 276.332C320.324 276.332 320.143 276.806 320.301 277.459C320.459 278.113 320.888 278.586 321.362 278.586C321.835 278.586 322.016 278.113 321.858 277.459Z" fill="#2F539B"/>
<path d="M332.169 277.437C331.921 276.4 332.372 275.611 333.319 275.611C334.267 275.611 335.102 276.4 335.35 277.437C335.598 278.473 335.147 279.262 334.199 279.262C333.252 279.262 332.417 278.473 332.169 277.437ZM334.538 277.437C334.38 276.806 333.951 276.31 333.477 276.31C333.004 276.31 332.823 276.783 332.981 277.437C333.139 278.09 333.568 278.563 334.041 278.563C334.515 278.563 334.696 278.09 334.538 277.437Z" fill="#2F539B"/>
<path d="M336.929 277.437C336.68 276.4 337.132 275.611 338.079 275.611C339.027 275.611 339.862 276.4 340.11 277.437C340.358 278.473 339.907 279.262 338.959 279.262C337.989 279.262 337.177 278.473 336.929 277.437ZM339.298 277.437C339.14 276.806 338.711 276.31 338.237 276.31C337.763 276.31 337.583 276.783 337.741 277.437C337.899 278.09 338.327 278.563 338.801 278.563C339.275 278.563 339.455 278.09 339.298 277.437Z" fill="#2F539B"/>
<path d="M215.618 271.104C215.37 270.068 215.821 269.279 216.769 269.279C217.716 269.279 218.551 270.068 218.799 271.104C219.047 272.141 218.596 272.93 217.648 272.93C216.701 272.93 215.866 272.141 215.618 271.104ZM217.987 271.104C217.829 270.474 217.4 269.978 216.927 269.978C216.453 269.978 216.272 270.451 216.43 271.104C216.588 271.758 217.017 272.231 217.491 272.231C217.964 272.231 218.145 271.758 217.987 271.104Z" fill="#2F539B"/>
<path d="M220.379 271.104C220.131 270.068 220.582 269.279 221.529 269.279C222.477 269.279 223.312 270.068 223.56 271.104C223.808 272.141 223.357 272.93 222.409 272.93C221.462 272.93 220.627 272.141 220.379 271.104ZM222.748 271.104C222.59 270.474 222.161 269.978 221.687 269.978C221.214 269.978 221.033 270.451 221.191 271.104C221.349 271.758 221.778 272.231 222.251 272.231C222.725 272.231 222.906 271.758 222.748 271.104Z" fill="#2F539B"/>
<path d="M307.374 271.104C307.126 270.068 307.577 269.279 308.525 269.279C309.472 269.279 310.307 270.068 310.555 271.104C310.803 272.141 310.352 272.93 309.404 272.93C308.434 272.93 307.622 272.141 307.374 271.104ZM309.743 271.104C309.585 270.474 309.156 269.978 308.682 269.978C308.209 269.978 308.028 270.451 308.186 271.104C308.344 271.758 308.773 272.231 309.247 272.231C309.72 272.231 309.901 271.758 309.743 271.104Z" fill="#2F539B"/>
<path d="M312.134 271.104C311.885 270.068 312.337 269.279 313.284 269.279C314.232 269.279 315.067 270.068 315.315 271.104C315.563 272.141 315.112 272.93 314.164 272.93C313.217 272.93 312.382 272.141 312.134 271.104ZM314.503 271.104C314.345 270.474 313.916 269.978 313.442 269.978C312.968 269.978 312.788 270.451 312.946 271.104C313.104 271.758 313.532 272.231 314.006 272.231C314.48 272.231 314.661 271.758 314.503 271.104Z" fill="#2F539B"/>
</svg>
