<svg width="914" height="378" viewBox="0 0 914 378" fill="none" xmlns="http://www.w3.org/2000/svg">
<g clip-path="url(#clip0)">
<path d="M889.558 370.565H24.9501C24.9501 370.565 24.2133 363.432 23.9789 351.911C23.845 345.18 23.9119 336.975 24.3808 327.832C24.4143 327.095 24.4478 326.325 24.5148 325.555C24.7827 321.369 25.1176 316.982 25.5529 312.46C25.5864 312.059 25.6199 311.657 25.6869 311.255C26.1892 306.533 26.7921 301.61 27.5958 296.586C28.2321 292.5 28.9689 288.281 29.8062 284.027C29.8731 283.726 29.9401 283.425 29.9736 283.123C30.409 280.946 30.8778 278.77 31.3802 276.559C31.5811 275.689 31.7821 274.818 31.983 273.981C32.3849 272.306 32.8202 270.598 33.2556 268.89C34.3273 264.704 35.5329 260.518 36.8725 256.298C37.0065 255.863 37.1404 255.427 37.2744 254.992C37.8772 253.116 38.5135 251.241 39.1833 249.332C40.188 246.452 41.2597 243.605 42.3983 240.725C43.1016 238.917 43.8384 237.142 44.6087 235.333C51.876 218.387 61.588 201.776 74.5486 186.907C104.254 152.848 151.039 127.931 224.449 128.668C239.218 128.802 252.916 128.434 265.742 127.596H265.776C269.661 127.328 273.478 127.027 277.196 126.692H277.229C362.026 118.889 404.524 89.8198 443.172 61.4539C444.545 60.4492 445.951 59.411 447.324 58.4063C460.821 48.4598 474.049 38.6808 488.617 30.0739C492.335 27.8636 496.152 25.7202 500.104 23.6773C524.25 11.1521 552.851 2.07638 592.335 0.100477C596.187 -0.100462 599.938 -0.0669725 603.588 0.167457C604.995 0.267926 606.368 0.368396 607.741 0.535845C623.112 2.21034 636.676 7.70267 648.062 16.3431C677.667 38.8482 692.403 82.8539 684.7 137.811C679.476 175.018 691.264 195.212 711.459 208.407C767.253 244.911 887.448 227.932 889.558 370.565Z" fill="#F8FBFF"/>
<path d="M471.537 228.133V211.154H467.552V181.95H446.219V211.154H426.226V163.564H404.189V194.442H399.166V157.57H377.129V226.726H349.266V267.082H338.851V249.131H314.939V259.747H301.208V212.192H284.262V247.39H267.283V376.326H284.262H298.797H301.208H314.939H322.708H335.133H338.851H349.266H359.045H377.129H382.689H393.707H399.166H404.189H415.743H423.58H426.226H446.219H467.217H467.552H471.537H488.55V228.133H471.537Z" fill="#D0E5F3"/>
<path d="M710.688 286.539V376.326H496.889V298.194H513.266V276.894H529.642V305.695H542.938V299.265H566.046V310.15H576.093V285.702H603.018V243.773H624.318V266.144H629.174V247.423H650.474V276.258H669.764V258.542H690.394V276.258H694.245V286.539H710.688Z" fill="#D0E5F3"/>
<path d="M269.46 251.341V375.89H74.5151V267.517H89.4516V237.945H104.422V277.899H116.511V268.957H137.577V284.061H146.753V250.169H171.301V192.031H190.725V223.042H195.146V197.054H214.536V237.075H232.152V212.527H250.973V237.075H254.456V251.341H269.46Z" fill="#D0E5F3"/>
<path d="M500.037 23.7108V375.522H488.55V30.0739C492.301 27.8636 496.119 25.7537 500.037 23.7108Z" fill="#DEEDFF"/>
<path d="M277.196 126.726V370.565V375.522H265.709V370.565V127.63L277.196 126.726Z" fill="#DEEDFF"/>
<path d="M447.291 58.4063V85.7675C447.291 89.217 446.42 92.0301 445.349 92.0301H445.081C444.009 92.0301 443.138 89.217 443.138 85.7675V61.4539C444.511 60.4492 445.884 59.4445 447.291 58.4063Z" fill="#F99746"/>
<path d="M444.109 80.9785C429.005 80.9785 416.748 93.9391 416.748 109.914H471.504C471.504 93.9391 459.247 80.9785 444.109 80.9785Z" fill="#F99746"/>
<path d="M446.286 81.3469C445.516 81.1794 444.712 81.079 443.875 81.079C434.029 81.079 426.025 94.0061 426.025 109.947H430.847C430.881 95.3122 437.579 83.2223 446.286 81.3469Z" fill="#FFB278"/>
<path d="M607.707 0.569347V79.17C607.707 79.8733 607.707 80.5431 607.674 81.1794C607.54 87.3081 606.736 92.0301 605.765 92.0301H605.497C604.593 92.0301 603.856 87.9779 603.622 82.4855C603.588 82.0502 603.588 81.5813 603.588 81.1124C603.588 81.079 603.588 81.0455 603.588 81.012C603.588 80.4092 603.555 79.8063 603.555 79.17V0.200958C604.961 0.301428 606.334 0.401897 607.707 0.569347Z" fill="#F99746"/>
<path d="M604.559 80.9785C589.456 80.9785 577.198 93.9391 577.198 109.914H631.954C631.921 93.9391 619.663 80.9785 604.559 80.9785Z" fill="#F99746"/>
<path d="M606.736 81.3469C605.966 81.1794 605.162 81.079 604.325 81.079C594.479 81.079 586.475 94.0061 586.475 109.947H591.297C591.297 95.3122 598.029 83.2223 606.736 81.3469Z" fill="#FFB278"/>
<path d="M889.558 375.957H710.722V376.024H648.029V16.3765C677.634 39.2166 692.37 83.8921 684.667 139.686C679.443 177.463 691.231 197.959 711.426 211.354C767.253 248.428 887.448 231.147 889.558 375.957Z" fill="#D0E5F3"/>
<path d="M779.108 333.459C779.108 333.459 772.209 325.421 778.672 320.297C778.672 320.297 783.394 317.417 787.246 317.651C787.246 317.651 781.787 326.828 783.562 327.732C785.337 328.636 788.92 317.082 788.92 317.082C788.92 317.082 799.67 316.044 803.153 317.718C803.153 317.718 793.944 325.254 795.886 325.689C797.828 326.124 807.775 318.756 807.775 318.756C807.775 318.756 817.788 320.464 817.252 326.56C816.717 332.655 813.267 334.564 811.76 334.396C810.253 334.229 801.378 330.846 801.177 332.085C800.976 333.325 806.335 337.377 810.052 337.578C810.052 337.578 802.986 345.381 798.297 343.104C793.609 340.86 793.207 337.276 790.26 335.97C787.346 334.631 784.834 334.631 786.04 336.004C787.246 337.377 792.537 338.683 794.211 341.664C795.886 344.611 797.393 346.62 792.537 345.883C787.681 345.147 779.777 341.597 779.442 337.544C779.108 333.459 779.108 333.459 779.108 333.459Z" fill="#82B378"/>
<path d="M812.331 326.727C812.331 326.727 785.103 325.689 779.108 333.459C779.108 333.459 777.769 337.444 773.683 341.061L773.047 342.802C773.047 342.802 777.769 337.846 779.443 337.544C779.443 337.544 776.798 327.899 812.331 326.727Z" fill="#82B378"/>
<path d="M773.682 341.094C773.682 341.094 767.855 345.414 767.42 353.117L768.492 353.218C768.492 353.218 770.367 345.247 773.716 342.132C777.098 338.984 773.682 341.094 773.682 341.094Z" fill="#82B378"/>
<path d="M754.962 323.345C754.962 323.345 765.947 317.182 760.823 308.843C760.823 308.843 756.737 303.719 752.316 302.413C752.316 302.413 754.661 314.872 752.316 315.14C749.972 315.441 750.709 301.074 750.709 301.074C750.709 301.074 739.155 295.514 734.6 295.95C734.6 295.95 741.767 308.107 739.423 307.805C737.079 307.504 729.041 295.213 729.041 295.213C729.041 295.213 717.186 293.003 715.277 300.036C713.368 307.068 716.449 310.585 718.19 311.02C719.932 311.456 731.218 311.322 730.916 312.762C730.615 314.235 723.013 316.58 718.76 315.24C718.76 315.24 723.448 326.794 729.577 326.225C735.739 325.655 737.614 321.838 741.432 321.536C745.25 321.235 748.03 322.273 746.121 323.278C744.212 324.316 737.782 323.612 734.701 326.225C731.62 328.837 729.141 330.444 734.835 331.617C740.528 332.789 750.776 332.052 752.852 327.665C754.962 323.345 754.962 323.345 754.962 323.345Z" fill="#A8D29F"/>
<path d="M720.702 302.279C720.702 302.279 751.446 312.226 754.962 323.345C754.962 323.345 754.828 328.335 757.876 334.028V336.238C757.876 336.238 754.661 328.77 752.886 327.732C752.919 327.732 759.785 318.087 720.702 302.279Z" fill="#82B378"/>
<path d="M757.91 334.028C757.91 334.028 762.665 341.228 759.953 350.002L758.747 349.668C758.747 349.668 759.919 340.023 757.441 335.167C754.929 330.31 757.91 334.028 757.91 334.028Z" fill="#82B378"/>
<path d="M772.444 314.872C772.444 314.872 757.976 306.767 764.741 295.782C764.741 295.782 770.133 289.017 775.926 287.276C775.926 287.276 772.845 303.686 775.926 304.054C779.007 304.456 778.036 285.535 778.036 285.535C778.036 285.535 793.274 278.2 799.269 278.77C799.269 278.77 789.825 294.778 792.906 294.409C795.987 294.007 806.603 277.798 806.603 277.798C806.603 277.798 822.243 274.918 824.755 284.161C827.266 293.438 823.214 298.06 820.903 298.629C818.592 299.198 803.723 299.031 804.125 300.94C804.527 302.882 814.54 305.963 820.133 304.222C820.133 304.222 813.971 319.46 805.866 318.689C797.762 317.919 795.25 312.896 790.227 312.527C785.203 312.125 781.553 313.499 784.064 314.838C786.576 316.178 795.049 315.274 799.101 318.723C803.154 322.172 806.436 324.282 798.9 325.823C791.365 327.363 777.869 326.392 775.156 320.598C772.444 314.872 772.444 314.872 772.444 314.872Z" fill="#A8D29F"/>
<path d="M817.587 287.075C817.587 287.075 777.065 300.203 772.443 314.872C772.443 314.872 772.644 321.436 768.592 328.971V331.851C768.592 331.851 772.845 322.005 775.156 320.665C775.122 320.665 766.08 307.906 817.587 287.075Z" fill="#82B378"/>
<path d="M768.592 328.971C768.592 328.971 762.329 338.449 765.913 350.003L767.52 349.567C767.52 349.567 765.946 336.841 769.228 330.444C772.51 324.048 768.592 328.971 768.592 328.971Z" fill="#82B378"/>
<path d="M771.942 375.053C787.615 375.053 800.275 362.36 800.275 346.687H743.576C743.61 362.36 756.302 375.053 771.942 375.053Z" fill="#F1A34F"/>
<path d="M778.941 374.819C777.802 374.952 776.596 375.019 775.424 375.019C759.751 375.019 747.092 362.327 747.092 346.654H754.125C754.091 361.155 764.942 373.111 778.941 374.819Z" fill="#FFB973"/>
<path d="M800.676 376.493H743.207C743.207 374.551 744.781 373.01 746.69 373.01H797.193C799.135 372.977 800.676 374.551 800.676 376.493Z" fill="#F1A34F"/>
<path d="M800.944 346.687H742.672V347.558H800.944V346.687Z" fill="#D86713"/>
<path d="M652.784 287.644C653.286 275.153 654.425 264.268 655.731 256.7C657.841 244.61 659.75 237.678 659.783 237.611C660.051 236.539 664.104 232.252 673.045 232.386C682.021 232.52 681.15 238.146 681.15 238.146C681.15 238.347 681.116 238.515 681.083 238.649C680.983 238.95 672.778 268.354 673.112 306.332C673.112 306.868 673.179 307.772 673.146 308.408C673.146 308.408 652.382 308.944 652.382 308.408C651.679 305.093 652.014 295.916 652.784 287.644Z" fill="#D1A586"/>
<path d="M650.172 306.164C650.172 306.7 650.474 307.102 650.809 307.102C651.144 307.102 651.445 306.667 651.445 306.164H669.228C669.228 306.7 669.53 307.102 669.865 307.102C670.199 307.102 670.501 306.667 670.501 306.131C670.4 295.247 671.037 285.099 671.974 276.157C674.352 253.82 678.706 238.883 678.773 238.649C678.806 238.515 678.84 238.347 678.84 238.146C678.84 238.146 679.677 232.52 670.735 232.386C661.76 232.252 657.741 236.539 657.473 237.611C657.473 237.678 656.368 241.596 654.928 248.662C654.459 251.006 653.923 253.686 653.421 256.7C652.081 264.268 650.976 275.153 650.474 287.644C649.704 295.916 649.436 302.849 650.172 306.164Z" fill="#E5BD9E"/>
<path d="M650.172 306.164C650.172 306.7 650.474 307.102 650.809 307.102C651.144 307.102 651.445 306.667 651.445 306.164H669.228C669.228 306.7 669.53 307.102 669.864 307.102C670.199 307.102 670.501 306.667 670.501 306.131C670.4 295.247 671.037 285.099 671.974 276.157C669.027 261.991 657.674 251.14 654.928 248.696C654.459 251.04 653.923 253.719 653.421 256.733C652.081 264.302 650.976 275.186 650.474 287.678C649.704 295.916 649.436 302.849 650.172 306.164Z" fill="#DFB697"/>
<path d="M668.088 305.997L668.055 305.963C668.055 305.963 668.021 305.93 668.021 305.863C668.021 305.729 667.988 305.595 667.887 305.494C667.318 304.925 665.175 304.959 662.429 304.992C659.448 305.026 655.731 305.059 652.047 304.423C650.138 304.088 651.41 289.587 652.783 275.99C653.018 273.679 653.185 271.871 653.286 270.799C654.157 259.245 659.28 238.749 659.314 238.582C659.548 237.711 662.63 234.529 669.294 234.63C671.806 234.663 673.614 235.3 674.619 236.472C675.624 237.677 675.456 238.984 675.423 239.051C675.423 239.185 675.423 239.319 675.356 239.452C675.322 239.553 670.734 266.077 669.964 272.44C668.725 282.922 668.222 304.624 668.222 305.863V305.896V305.963L668.088 305.997ZM664.137 304.758C666.146 304.758 667.519 304.858 668.021 305.361C668.021 304.858 668.055 303.92 668.122 302.146C668.189 300.069 668.289 296.821 668.423 293.17C668.691 286.774 669.127 277.966 669.796 272.373C670.567 265.842 675.155 239.419 675.188 239.352C675.222 239.252 675.222 239.118 675.222 239.017C675.222 238.984 675.389 237.711 674.451 236.606C673.48 235.467 671.739 234.864 669.294 234.831C662.73 234.73 659.749 237.811 659.515 238.649C659.448 238.85 654.357 259.245 653.487 270.832C653.42 271.904 653.219 273.713 652.984 276.023C652.08 285.066 650.205 303.887 652.08 304.222C655.764 304.858 659.448 304.825 662.429 304.791C663.031 304.758 663.601 304.758 664.137 304.758Z" fill="#D1A586"/>
<path d="M671.806 307.102H602.047C602.047 307.102 603.688 300.605 644.077 301.576C672.677 302.279 671.806 307.102 671.806 307.102Z" fill="#E5BD9E"/>
<path d="M677.5 374.852C669.395 334.463 671.505 309.681 671.505 309.346C671.538 308.71 670.366 308.174 669.73 308.14C669.094 308.14 666.314 307.973 665.979 308.475C665.544 309.178 663.936 339.721 675.993 374.818H677.5V374.852Z" fill="#D1A586"/>
<path d="M612.362 374.852C620.467 334.463 618.357 309.681 618.357 309.346C618.324 308.71 619.496 308.174 620.132 308.14C620.768 308.14 623.548 307.973 623.883 308.475C624.318 309.178 625.926 339.721 613.869 374.818H612.362V374.852Z" fill="#D1A586"/>
<path d="M599.435 374.852C607.539 334.463 605.429 309.681 605.429 309.346C605.396 308.71 606.568 308.174 607.204 308.14C607.841 308.14 610.62 307.973 610.955 308.475C611.391 309.178 612.998 339.721 600.942 374.818H599.435V374.852Z" fill="#A0795F"/>
<path d="M664.505 374.852C656.401 334.463 658.511 309.681 658.511 309.346C658.544 308.71 657.372 308.174 656.736 308.14C656.1 308.14 653.32 307.973 652.985 308.475C652.55 309.178 650.942 339.721 662.998 374.818H664.505V374.852Z" fill="#A0795F"/>
<path d="M601.98 309.178H671.773C672.543 309.178 673.179 308.542 673.179 307.772V306.868C673.179 306.097 672.543 305.461 671.773 305.461H601.98C601.21 305.461 600.573 306.097 600.573 306.868V307.772C600.573 308.542 601.21 309.178 601.98 309.178Z" fill="#D1A586"/>
<path d="M388.717 286.439C389.219 273.78 390.358 262.761 391.664 255.059C393.774 242.801 395.683 235.769 395.716 235.702C395.984 234.63 400.036 230.276 408.978 230.41C417.953 230.544 417.083 236.271 417.083 236.271C417.083 236.472 417.049 236.639 417.016 236.773C416.915 237.075 408.71 266.881 409.045 305.394C409.045 305.93 409.112 306.868 409.078 307.504C409.078 307.504 388.315 308.04 388.315 307.504C387.611 304.121 387.946 294.811 388.717 286.439Z" fill="#D1A586"/>
<path d="M386.105 305.193C386.105 305.729 386.406 306.164 386.741 306.164C387.076 306.164 387.377 305.729 387.377 305.193H405.16C405.16 305.729 405.462 306.164 405.797 306.164C406.132 306.164 406.433 305.729 406.433 305.16C406.332 294.141 406.969 283.827 407.907 274.751C410.284 252.078 414.638 236.941 414.705 236.74C414.738 236.606 414.772 236.438 414.772 236.237C414.772 236.237 415.609 230.511 406.667 230.377C397.692 230.243 393.673 234.596 393.405 235.668C393.405 235.735 392.3 239.72 390.86 246.887C390.391 249.265 389.855 251.978 389.353 255.025C388.014 262.694 386.908 273.713 386.406 286.405C385.636 294.811 385.368 301.844 386.105 305.193Z" fill="#E5BD9E"/>
<path d="M386.105 305.193C386.105 305.729 386.406 306.164 386.741 306.164C387.076 306.164 387.377 305.729 387.377 305.193H405.16C405.16 305.729 405.462 306.164 405.797 306.164C406.132 306.164 406.433 305.729 406.433 305.16C406.332 294.141 406.969 283.827 407.906 274.751C404.959 260.384 393.606 249.366 390.86 246.887C390.391 249.265 389.855 251.978 389.353 255.025C388.014 262.694 386.908 273.713 386.406 286.405C385.636 294.811 385.368 301.844 386.105 305.193Z" fill="#DFB697"/>
<path d="M404.055 305.026L404.022 304.992C404.022 304.992 403.988 304.959 403.988 304.892C403.988 304.724 403.955 304.624 403.854 304.523C403.285 303.954 401.141 303.954 398.395 303.988C395.415 304.021 391.697 304.054 388.013 303.418C386.105 303.083 387.377 288.381 388.75 274.617C388.985 272.273 389.152 270.431 389.253 269.325C390.123 257.671 395.247 236.84 395.281 236.673C395.515 235.802 398.596 232.554 405.261 232.654C407.772 232.688 409.547 233.324 410.552 234.496C411.59 235.702 411.389 237.075 411.389 237.108C411.389 237.242 411.389 237.376 411.322 237.51C411.289 237.611 406.701 264.503 405.931 270.966C404.691 281.583 404.189 303.619 404.189 304.825V304.858V304.925L404.055 305.026ZM400.07 303.787C402.046 303.787 403.452 303.887 403.955 304.389C403.955 303.887 403.988 302.949 404.055 301.141C404.122 299.031 404.223 295.749 404.357 292.032C404.624 285.535 405.06 276.626 405.73 270.933C406.5 264.335 411.088 237.544 411.121 237.443C411.155 237.343 411.155 237.209 411.155 237.108C411.155 237.075 411.322 235.769 410.351 234.63C409.38 233.491 407.672 232.888 405.227 232.855C405.127 232.855 405.026 232.855 404.926 232.855C398.596 232.855 395.683 235.903 395.448 236.706C395.381 236.907 390.291 257.604 389.42 269.325H389.32H389.42C389.353 270.431 389.152 272.273 388.918 274.617C388.013 283.793 386.138 302.882 388.013 303.217C391.697 303.854 395.381 303.82 398.362 303.787C398.965 303.787 399.534 303.787 400.07 303.787Z" fill="#D1A586"/>
<path d="M407.739 306.164H337.98C337.98 306.164 339.621 299.6 380.01 300.572C408.61 301.275 407.739 306.164 407.739 306.164Z" fill="#E5BD9E"/>
<path d="M413.432 374.852C405.328 333.894 407.438 308.777 407.438 308.442C407.471 307.805 406.299 307.236 405.663 307.203C405.026 307.203 402.247 307.002 401.912 307.571C401.476 308.274 399.869 339.252 411.925 374.852H413.432Z" fill="#D1A586"/>
<path d="M348.294 374.852C356.399 333.894 354.289 308.777 354.289 308.442C354.256 307.805 355.428 307.236 356.064 307.203C356.7 307.203 359.48 307.002 359.815 307.571C360.25 308.274 361.858 339.252 349.801 374.852H348.294Z" fill="#D1A586"/>
<path d="M335.368 374.852C343.472 333.894 341.362 308.777 341.362 308.442C341.329 307.805 342.501 307.236 343.137 307.203C343.774 307.203 346.553 307.002 346.888 307.571C347.324 308.274 348.931 339.252 336.875 374.852H335.368Z" fill="#A0795F"/>
<path d="M400.438 374.852C392.334 333.894 394.41 308.777 394.443 308.442C394.477 307.805 393.305 307.236 392.668 307.203C392.032 307.203 389.253 307.002 388.918 307.571C388.482 308.274 386.875 339.252 398.931 374.852H400.438Z" fill="#A0795F"/>
<path d="M337.946 308.274H407.706C408.476 308.274 409.146 307.638 409.146 306.834V305.896C409.146 305.126 408.51 304.456 407.706 304.456H337.946C337.176 304.456 336.506 305.093 336.506 305.896V306.834C336.506 307.638 337.143 308.274 337.946 308.274Z" fill="#D1A586"/>
<path d="M434.263 253.217C434.263 253.217 440.023 255.561 444.143 249.667C444.109 249.667 437.478 248.528 434.263 253.217Z" fill="#6BB7BF"/>
<path d="M433.861 250.806C433.861 250.806 433.46 248.729 431.048 248.662C431.015 248.662 431.952 250.739 433.861 250.806Z" fill="#6BB7BF"/>
<path d="M435.067 238.749C435.067 238.749 437.847 239.051 438.918 235.969C438.918 235.969 435.871 236.304 435.067 238.749Z" fill="#6BB7BF"/>
<path d="M441.698 198.226C436.072 197.021 435.971 192.399 435.971 192.399C442.602 194.509 441.698 198.226 441.698 198.226Z" fill="#6BB7BF"/>
<path d="M442.1 197.188C442.1 197.188 445.617 198.628 448.128 195.011C448.095 195.011 444.043 194.342 442.1 197.188Z" fill="#6BB7BF"/>
<path d="M434.364 266.747L433.627 267.584C433.526 267.718 433.292 267.617 433.292 267.45C433.325 243.706 436.34 222.607 438.885 210.149C441.664 196.552 444.444 188.514 444.478 188.447C444.444 188.514 441.932 196.686 439.153 210.249C436.607 222.708 433.727 239.017 434.464 266.412C434.498 266.546 434.431 266.646 434.364 266.747Z" fill="#6BB7BF"/>
<path d="M444.444 185.232C443.54 185.969 440.09 189.05 443.439 191.428C443.439 191.428 445.985 192.232 446.855 190.256C447.492 188.749 447.693 187.074 447.726 186.371C447.726 186.17 447.592 186.036 447.425 186.003C447.224 185.969 446.956 185.936 446.688 185.835C446.387 185.701 446.219 185.232 445.784 185.132C445.516 185.065 445.248 184.998 444.947 185.031C444.746 185.031 444.578 185.098 444.444 185.232Z" fill="#F99746"/>
<path d="M442.535 190.557C442.535 190.557 443.54 191.361 443.171 192.667V193.136C443.171 193.136 443.439 191.93 444.679 191.562C444.679 191.562 443.573 191.696 442.535 190.557Z" fill="#6BB7BF"/>
<path d="M441.698 198.226C436.072 197.021 435.971 192.399 435.971 192.399C435.971 192.399 440.425 194.877 441.698 198.226Z" fill="#8AD8DB"/>
<path d="M436.273 195.078C436.273 195.078 432.723 196.452 430.312 192.801C430.312 192.801 434.364 192.198 436.273 195.078Z" fill="#6BB7BF"/>
<path d="M442.602 264.771L443.305 265.608C443.406 265.742 443.64 265.675 443.64 265.508C444.076 241.763 441.497 220.598 439.186 208.106C436.708 194.476 434.062 186.371 434.029 186.304C434.062 186.371 436.407 194.61 438.918 208.206C441.196 220.732 443.774 237.075 442.502 264.469C442.502 264.57 442.535 264.67 442.602 264.771Z" fill="#6BB7BF"/>
<path d="M434.163 183.056C435.033 183.792 438.416 186.94 435.033 189.251C435.033 189.251 432.455 190.021 431.651 188.012C431.048 186.505 430.881 184.797 430.847 184.094C430.847 183.893 430.981 183.759 431.182 183.725C431.383 183.725 431.651 183.658 431.919 183.591C432.254 183.491 432.421 182.989 432.823 182.888C433.091 182.821 433.359 182.788 433.694 182.821C433.861 182.888 434.029 182.955 434.163 183.056Z" fill="#F99746"/>
<path d="M435.971 188.414C435.971 188.414 434.933 189.218 435.301 190.524V190.993C435.301 190.993 435.067 189.787 433.794 189.385C433.794 189.419 434.9 189.553 435.971 188.414Z" fill="#6BB7BF"/>
<path d="M437.78 190.926C437.78 190.926 441.531 191.562 443.172 187.51C443.205 187.51 439.086 187.711 437.78 190.926Z" fill="#6BB7BF"/>
<path d="M445.416 260.484L444.88 261.455C444.813 261.589 444.578 261.556 444.545 261.422C439.421 238.247 437.746 216.981 437.512 204.288C437.244 190.423 438.215 181.984 438.249 181.883C438.249 181.95 437.546 190.49 437.813 204.322C438.048 217.048 438.785 233.592 445.483 260.149C445.483 260.25 445.483 260.384 445.416 260.484Z" fill="#6BB7BF"/>
<path d="M437.478 178.735C436.742 179.64 434.062 183.39 437.847 184.998C437.847 184.998 440.526 185.232 440.928 183.123C441.229 181.515 441.028 179.841 440.928 179.137C440.894 178.97 440.727 178.836 440.559 178.869C440.359 178.903 440.091 178.903 439.823 178.869C439.488 178.802 439.22 178.4 438.784 178.367C438.517 178.367 438.215 178.367 437.947 178.467C437.746 178.467 437.612 178.601 437.478 178.735Z" fill="#F99746"/>
<path d="M436.775 184.328C436.775 184.328 437.947 184.898 437.88 186.271L437.981 186.739C437.981 186.739 437.981 185.5 439.119 184.864C439.119 184.864 438.048 185.232 436.775 184.328Z" fill="#6BB7BF"/>
<path d="M440.861 186.739C440.861 186.739 440.861 183.759 443.406 182.855C443.44 182.855 444.009 185.333 440.861 186.739Z" fill="#6BB7BF"/>
<path d="M434.866 181.984C434.866 181.984 434.933 179.707 432.857 179.07C432.857 179.07 432.355 181.18 434.866 181.984Z" fill="#ED9F4A"/>
<path d="M441.732 195.581C441.799 195.648 442.837 193.37 440.76 191.562C440.76 191.562 439.89 194.007 441.732 195.581Z" fill="#ED9F4A"/>
<path d="M443.205 195.413C443.138 195.413 443.205 194.275 444.276 194.107C444.243 194.141 444.444 195.078 443.205 195.413Z" fill="#6BB7BF"/>
<path d="M432.488 191.562C432.488 191.562 431.584 189.687 428.67 190.021C428.67 190.021 429.106 192.031 432.488 191.562Z" fill="#6BB7BF"/>
<path d="M448.53 269.526H429.943C428.704 269.526 427.733 268.421 427.9 267.182L436.541 207.537C436.608 206.967 437.11 206.565 437.646 206.565H440.425C441.028 206.565 441.531 207.001 441.631 207.604L450.506 267.249C450.673 268.421 449.736 269.526 448.53 269.526Z" fill="#F99746"/>
<path d="M434.029 267.718L438.617 206.565C438.115 206.632 437.713 207.001 437.646 207.537L429.006 267.182C428.838 268.421 429.776 269.526 431.049 269.526H434.766C434.264 269.091 433.996 268.421 434.029 267.718Z" fill="#FFB278"/>
<path d="M616.381 262.996C616.381 262.996 603.622 277.564 601.009 277.33C598.33 277.095 596.723 276.258 594.379 277.33C592.704 278.1 587.446 282.353 588.853 282.052C590.259 281.784 592.838 281.449 593.508 281.382C594.445 281.281 595.919 281.281 596.957 281.08C597.594 280.98 599.904 280.913 600.675 280.879C604.024 280.779 619.898 271.502 619.898 271.502L616.381 262.996Z" fill="#FFB27D"/>
<path d="M595.417 247.457C594.915 247.155 593.91 247.256 593.207 247.423V246.385C593.207 246.15 593.207 245.916 593.173 245.715H582.456C582.423 245.95 582.423 246.15 582.423 246.385V248.495C582.423 251.475 584.868 253.887 587.815 253.887C589.422 253.887 590.862 253.183 591.867 252.045C591.867 252.045 594.412 251.408 595.216 250.471C595.986 249.499 596.254 247.959 595.417 247.457ZM594.848 249.399C594.58 250.102 593.374 250.471 592.771 250.605C593.006 250.069 593.173 249.466 593.207 248.83C593.575 248.327 594.178 248.026 594.58 248.093C594.948 248.16 595.182 248.495 594.848 249.399Z" fill="#C45446"/>
<path d="M583.26 246.351V248.461C583.26 251.442 585.705 253.853 588.652 253.853C588.886 253.853 589.154 253.82 589.389 253.786C586.743 253.418 584.7 251.174 584.7 248.428V246.318C584.7 246.084 584.7 245.849 584.733 245.648H583.293C583.293 245.916 583.26 246.15 583.26 246.351Z" fill="#E37970"/>
<path d="M589.991 253.418H585.57V254.088H589.991V253.418Z" fill="#C45446"/>
<path d="M625.223 189.017C625.223 189.017 625.792 181.716 636.308 183.591C639.088 184.094 640.996 179.137 645.551 180.912C655.364 184.73 655.933 179.707 658.78 186.739C659.952 189.687 667.52 193.136 665.21 198.226C662.899 203.317 666.75 206.766 664.037 210.752C662.631 212.828 663.2 216.512 656.603 216.646C653.321 216.713 648.163 222.808 644.479 223.913C640.796 225.018 629.677 223.411 630.112 218.354C630.447 214.402 625.826 214.737 622.979 210.182C620.501 206.197 624.921 205.192 622.544 198.762C620.869 194.107 625.39 192.969 625.223 189.017Z" fill="#1C468A"/>
<path d="M567.386 369.025C567.62 371.47 564.204 372.072 560.252 372.273C556.301 372.474 557.506 373.278 552.081 374.249C546.655 375.22 544.512 373.747 544.11 373.01C543.775 372.374 546.287 371.336 548.966 370.197C549.301 370.063 549.636 369.896 549.971 369.762C552.985 368.422 554.693 365.743 557.037 363.231C559.281 360.853 561.391 353.251 561.391 353.251L568.725 351.677C568.725 351.677 566.649 358.509 565.946 361.456C565.51 363.164 566.147 365.106 566.682 366.547C567.017 367.35 567.319 368.154 567.386 369.025Z" fill="#FFB27D"/>
<path d="M560.252 372.273C556.3 372.474 557.506 373.278 552.081 374.249C546.655 375.22 544.512 373.747 544.11 373.01C543.775 372.374 546.287 371.336 548.966 370.197L549 370.23C549 370.23 552.818 371.537 557.205 370.331C560.788 369.36 564.238 367.216 566.716 366.547C567.017 367.35 567.319 368.154 567.386 369.025C567.62 371.47 564.204 372.072 560.252 372.273Z" fill="#C65447"/>
<path d="M632.457 276.358C632.457 276.358 591.733 278.2 582.523 283.994C573.314 289.788 558.578 357.404 558.578 357.404C558.578 357.404 559.482 358.14 561.525 358.341C563.401 358.542 567.587 357.437 567.587 357.437C567.587 357.437 588.786 327.196 590.26 319.56C591.767 311.925 591.398 305.16 594.781 304.959C598.197 304.791 640.561 310.116 646.958 298.83C653.388 287.544 632.457 276.358 632.457 276.358Z" fill="#163560"/>
<path d="M584.197 369.293C584.432 371.737 581.016 372.34 577.064 372.541C573.112 372.742 574.318 373.546 568.892 374.517C563.5 375.488 561.324 374.015 560.922 373.278C560.587 372.642 563.099 371.603 565.778 370.465C566.113 370.331 566.448 370.163 566.782 370.029C569.797 368.69 571.505 366.011 573.849 363.499C576.093 361.121 578.203 353.519 578.203 353.519L585.537 351.945C585.537 351.945 583.46 358.777 582.757 361.724C582.322 363.432 582.958 365.374 583.494 366.814C583.795 367.618 584.097 368.455 584.197 369.293Z" fill="#FFB27D"/>
<path d="M577.064 372.541C573.112 372.742 574.318 373.546 568.892 374.517C563.5 375.488 561.324 374.015 560.922 373.278C560.587 372.642 563.099 371.603 565.778 370.465L565.811 370.498C565.811 370.498 569.629 371.804 574.016 370.599C577.6 369.628 581.049 367.484 583.527 366.814C583.829 367.618 584.13 368.422 584.197 369.293C584.398 371.737 581.016 372.34 577.064 372.541Z" fill="#C65447"/>
<path d="M648.263 277.329C648.263 277.329 604.894 279.372 595.919 285.534C586.943 291.697 574.854 359.815 574.854 359.815C574.854 359.815 575.791 360.518 577.834 360.652C579.743 360.786 583.862 359.514 583.862 359.514C583.862 359.514 603.856 328.469 605.061 320.799C606.267 313.13 605.631 306.365 609.013 306.03C612.396 305.729 654.961 309.379 660.922 297.859C666.85 286.338 648.263 277.329 648.263 277.329Z" fill="#1C468A"/>
<path d="M661.224 221.904C661.224 221.87 661.191 221.87 661.157 221.837C660.822 221.435 660.387 221.1 659.951 220.765C656.402 218.287 650.072 217.751 650.072 217.751C650.072 217.751 649.369 217.684 648.297 217.651C647.46 215.507 646.522 212.326 646.221 207.671L645.584 207.838L635.035 210.685C635.035 210.685 635.504 214.034 635.705 217.215C635.738 217.919 635.772 218.588 635.805 219.225C635.504 219.325 628.94 220.263 627.5 221.803C626.06 223.344 623.213 233.558 622.51 235.367L663.166 236.036C663.166 236.003 664.171 225.387 661.224 221.904Z" fill="#FFB27D"/>
<path d="M662.731 294.577C657.909 295.046 641.7 285.233 636.308 282.052C636.207 281.985 636.107 281.951 636.04 281.884C633.796 280.578 630.614 279.942 627.6 279.439C623.749 278.803 620.199 278.401 619.027 277.028C617.654 275.387 621.673 273.579 624.888 271.703C626.495 270.765 627.935 269.794 628.371 268.823C628.706 268.053 628.672 266.412 628.471 264.268C628.438 263.867 628.371 263.465 628.337 263.029C628.069 263.565 627.734 264.135 627.366 264.704C626.428 266.11 625.156 267.55 623.917 268.723C622.376 270.163 620.869 271.268 619.931 271.469C619.295 271.636 618.659 271.536 618.022 271.301C616.348 270.632 614.707 268.79 613.401 266.981C613.099 266.546 612.798 266.144 612.53 265.742C611.659 264.402 611.023 263.297 610.789 263.029C610.052 262.226 613.702 260.652 615.176 259.479C616.649 258.307 622.476 235.3 622.476 235.3C623.213 233.491 626.06 223.277 627.466 221.736C627.466 221.736 633.026 228.535 640.26 228.133C647.426 227.765 659.717 220.832 659.918 220.732C660.554 221 661.191 221.87 661.191 221.87C664.138 225.353 663.1 235.97 663.1 235.97C663.1 235.97 657.473 260.752 657.473 263.23C657.473 267.818 661.258 278.368 663.066 285.936C664.272 290.792 664.64 294.409 662.731 294.577Z" fill="#6BB7BF"/>
<path d="M635.035 210.651C635.035 210.651 635.504 214 635.705 217.182C641.666 216.612 644.479 210.953 645.584 207.838L635.035 210.651Z" fill="#F4A269"/>
<path d="M633.227 213.799C633.227 213.799 647.393 213.096 646.824 204.255C646.255 195.447 647.695 189.385 638.619 189.486C629.543 189.553 628.003 193.036 627.467 196.05C626.964 199.03 629.543 213.732 633.227 213.799Z" fill="#FFB27D"/>
<path d="M632.624 192.6C632.624 192.6 636.007 191.796 637.112 193.471C638.217 195.112 637.413 196.05 639.891 196.719C642.37 197.423 643.207 197.356 642.972 199.097C642.738 200.839 645.451 202.111 645.585 203.484C645.685 204.857 646.824 205.561 647.929 205.661C649.001 205.762 648.532 187.811 644.312 187.007C640.126 186.204 636.04 187.141 634.834 188.146C633.595 189.184 632.624 192.6 632.624 192.6Z" fill="#1C468A"/>
<path d="M632.624 192.6C632.624 192.6 629.342 192.366 628.739 194.241C628.137 196.117 628.94 196.552 628.103 197.691C627.266 198.829 627.735 200.839 627.735 200.839C627.735 200.839 621.204 188.849 628.103 188.046C634.969 187.309 634.801 188.682 632.624 192.6Z" fill="#1C468A"/>
<path d="M628.337 260.25C627.399 263.063 625.725 266.177 623.95 268.79C622.409 270.23 620.902 271.335 619.965 271.536C619.328 271.703 618.692 271.603 618.056 271.368C616.381 270.699 614.74 268.857 613.434 267.048C613.133 266.613 612.831 266.211 612.563 265.809C617.051 262.192 625.591 253.92 626.495 242.601C627.701 227.128 628.404 260.953 628.337 260.25Z" fill="#599DAD"/>
<path d="M618.021 271.335C619.596 268.924 622.777 266.579 627.365 264.704C625.255 267.852 621.638 271.067 619.93 271.502C619.294 271.67 618.658 271.603 618.021 271.335Z" fill="#599DAD"/>
<path d="M655.497 241.596C655.497 241.596 651.947 277.162 636.274 282.052C636.174 281.985 636.073 281.951 636.006 281.884C633.762 280.578 630.581 279.942 627.567 279.439C623.716 278.803 620.166 278.401 618.993 277.028C617.62 275.387 621.639 273.579 624.854 271.703C626.462 270.765 627.902 269.794 628.337 268.823C628.672 268.053 628.639 266.412 628.438 264.268C643.709 258.676 655.497 241.596 655.497 241.596Z" fill="#599DAD"/>
<path d="M659.516 231.08C657.875 223.679 650.44 227.932 650.44 227.932C647.861 227.329 628.906 258.039 627.399 258.743C626.127 259.346 608.645 254.255 603.353 252.715C601.98 251.643 597.191 247.892 596.321 247.858C595.349 247.791 588.752 249.466 588.819 250.504C588.852 251.542 590.393 253.083 592.838 253.451C594.68 253.753 597.794 254.958 599.77 255.26C599.77 255.26 619.027 268.388 627.232 269.995C634.6 271.402 661.157 238.481 659.516 231.08Z" fill="#FFB27D"/>
<path d="M615.812 256.164C615.812 256.164 611.358 267.584 616.683 271.904C622.008 276.258 633.562 274.784 646.221 257.135C658.88 239.486 664.004 229.874 657.44 227.095C650.876 224.282 645.451 228.702 642.068 235.568C638.552 242.701 632.122 252.58 628.237 252.949C624.386 253.317 615.812 256.164 615.812 256.164Z" fill="#6BB7BF"/>
<path d="M504.458 148.896V150.604C504.458 150.604 503.989 155.996 510.62 156.766C517.251 157.57 522.71 157.436 522.509 153.283C521.906 150.068 520.835 145.078 520.801 142.399C520.801 141.394 520.868 140.356 521.036 139.184L508.175 138.916L504.391 139.519L504.458 148.896Z" fill="#FFB27D"/>
<path d="M504.391 139.552L504.425 148.862C505.798 149.499 507.338 149.901 509.046 149.901C514.94 149.901 518.792 145.58 520.768 142.432C520.768 141.428 520.835 140.39 521.002 139.217L508.142 138.949L504.391 139.552Z" fill="#E2915A"/>
<path d="M522.04 137.141C520.533 145.179 510.185 144.911 505.697 144.408C504.425 144.274 503.655 144.107 503.655 144.107C502.248 143.738 501.444 141.495 501.076 138.548C500.339 132.754 501.277 124.247 502.248 122.037C503.721 118.755 506.501 115.205 516.95 117.784C527.365 120.329 523.949 126.826 522.04 137.141Z" fill="#FFB27D"/>
<path d="M530.513 374.852H515.845C515.945 374.082 516.314 371.737 517.017 369.594C517.251 368.857 517.519 368.121 517.854 367.484C519.294 364.638 528.336 366.446 528.336 366.446C528.336 366.446 529.174 367.183 529.843 369.929C530.111 371.135 530.379 372.742 530.513 374.852Z" fill="#233862"/>
<path d="M486.139 370.23C486.106 372.24 485.838 374.115 485.134 374.852H456.099C456.467 373.814 457.505 372.206 460.486 371.737C463.868 371.202 469.16 369.561 472.241 366.312C473.346 365.14 474.15 363.8 474.518 362.193C475.891 356.098 485.804 364.068 485.804 364.068C485.804 364.068 486.206 367.25 486.139 370.23Z" fill="#233862"/>
<path d="M505.463 304.49C505.061 306.734 504.793 308.542 504.726 309.848C503.788 327.866 489.555 369.025 487.01 369.996C483.058 371.469 476.862 368.321 473.614 367.283C472.274 366.848 471.37 365.508 471.671 364.135C478.704 331.717 481.316 285.066 482.254 257.437C482.723 243.505 485.134 233.893 485.134 233.893C485.134 233.893 519.863 224.617 520.064 236.338C520.232 246.686 508.544 287.376 505.463 304.49Z" fill="#2B478B"/>
<path d="M505.462 304.49L482.254 257.403C482.723 243.471 485.134 233.86 485.134 233.86C485.134 233.86 519.863 224.583 520.064 236.304C520.231 246.686 508.543 287.376 505.462 304.49Z" fill="#233862"/>
<path d="M497.727 236.371L516.079 369.393C516.079 369.393 524.15 371.336 530.413 369.795C530.413 369.795 535.771 299.064 535.336 281.951C534.9 264.838 539.187 236.17 534.364 233.022C529.508 229.841 497.727 236.371 497.727 236.371Z" fill="#2B478B"/>
<path d="M499.032 114.401C499.032 114.401 503.62 114.033 509.046 111.689C513.433 109.78 518.992 111.89 520.801 112.827C520.767 112.526 520.633 112.158 520.365 111.756C520.365 111.756 521.169 112.325 521.303 113.129C521.37 113.196 521.437 113.229 521.404 113.263C521.404 113.263 522.308 113.095 522.911 113.363C522.911 113.363 522.509 113.296 522.341 113.564C522.341 113.598 522.308 113.631 522.274 113.631C529.14 116.947 529.776 127.797 527.566 130.276C524.92 133.29 521.738 140.088 521.738 140.088C521.738 140.088 520.566 138.481 521.069 135.835C521.538 133.189 519.26 133.189 516.347 131.984C513.467 130.778 515.878 127.395 513.333 125.353C510.787 123.31 501.511 124.515 501.611 122.941C498.128 121.669 499.032 114.77 499.032 114.401Z" fill="#233862"/>
<path d="M524.083 155.627L519.863 246.284C519.863 246.284 484.598 246.854 485.603 238.883C486.608 230.913 498.329 158.407 498.329 158.407L524.083 155.627Z" fill="#E9F3FE"/>
<path d="M536.675 207.001C534.565 213.297 538.517 234.429 539.957 241.562C540.259 243.069 540.459 243.974 540.459 243.974C535.57 251.911 517.686 251.81 517.686 251.81C514.237 236.606 512.462 212.393 512.462 212.393L526.193 152.245L543.474 168.22C543.474 168.22 542.167 177.965 540.56 187.845C539.254 195.681 537.814 203.685 536.675 207.001Z" fill="#22407A"/>
<path d="M507.338 138.447C507.338 138.447 507.004 139.485 504.391 139.117C504.391 139.117 502.181 138.815 502.348 137.643C502.348 137.643 504.559 136.974 507.338 138.447Z" fill="white"/>
<path d="M487.512 156.9C487.512 156.9 487.512 156.9 487.512 156.933C486.675 157.737 463.131 180.611 458.577 189.553C453.922 198.628 479.809 216.713 479.809 216.713C479.809 216.713 481.484 217.383 482.622 217.115C481.417 227.162 480.044 236.438 480.848 240.39C482.321 247.524 488.919 249.935 488.919 249.399C488.919 249.232 491.33 223.411 492.636 209.948C495.449 181.08 502.515 152.412 502.515 152.412C494.813 153.216 487.512 156.9 487.512 156.9ZM473.48 193.504C473.446 193.471 473.446 193.404 473.446 193.37C473.446 192.064 478.436 189.184 483.828 185.768C483.895 185.701 483.929 185.668 483.929 185.668C483.828 188.447 483.828 191.194 483.996 193.705C484.297 198.427 483.962 204.054 483.393 209.78C480.848 205.762 473.982 194.978 473.48 193.504Z" fill="#22407A"/>
<path d="M525.088 152.144C525.121 151.274 521.036 150.068 521.036 150.068C521.036 150.068 516.347 156.565 508.611 156.699C508.611 156.699 510.821 160.986 513.4 162.091C513.4 162.091 524.82 157.268 525.088 152.144Z" fill="#D9E9F9"/>
<path d="M508.611 156.532C508.611 156.532 504.525 154.12 504.491 151.475C504.491 151.475 501.846 151.14 500.707 152.412C500.707 152.412 499.736 156.934 501.008 159.546C501.008 159.579 506.903 158.675 508.611 156.532Z" fill="#D9E9F9"/>
<path d="M511.39 156.163L505.831 154.824C505.831 154.824 505.094 154.891 505.128 155.795C505.161 156.699 506.702 159.345 507.371 159.546C508.075 159.747 512.696 157.972 511.39 156.163Z" fill="#BA4C43"/>
<path d="M524.452 151.709C524.485 150.838 521.705 149.063 521.705 149.063C521.705 149.063 516.347 155.326 508.611 155.46C508.611 155.46 510.821 159.747 513.4 160.852C513.4 160.818 524.184 156.833 524.452 151.709Z" fill="#E9F3FE"/>
<path d="M508.61 155.426C508.61 155.426 504.458 153.216 504.458 150.604C504.458 150.604 501.946 151.709 500.807 152.982C500.807 152.982 499.736 155.828 501.042 158.441C501.008 158.441 506.902 157.57 508.61 155.426Z" fill="#E9F3FE"/>
<path d="M497.76 217.985C497.961 220.095 498.932 222.071 500.472 223.511L502.917 225.789C503.52 226.358 504.491 226.291 505.027 225.621L508.075 221.736C508.878 220.698 509.28 219.392 509.146 218.086C508.845 215.172 508.343 209.513 507.907 204.087C507.572 199.667 507.271 195.38 507.271 192.801C507.204 184.462 508.845 157.938 508.845 157.938L506.836 158.039C506.836 158.039 501.879 168.354 499.3 182.352C498.664 185.802 498.162 189.486 497.927 193.27C497.961 193.236 496.889 208.407 497.76 217.985Z" fill="#C65447"/>
<path d="M497.76 217.985C497.961 220.095 498.932 222.071 500.472 223.511L502.917 225.789C503.52 226.358 504.491 226.291 505.027 225.621L508.075 221.736C508.878 220.698 509.28 219.392 509.146 218.086C508.845 215.172 508.343 209.513 507.907 204.087C502.381 197.892 500.171 189.318 499.3 182.352C498.664 185.802 498.162 189.486 497.927 193.27C497.961 193.236 496.889 208.407 497.76 217.985Z" fill="#BA4C43"/>
<path d="M478.135 218.22C478.135 215.909 480.178 214.067 482.455 214.402C483.091 214.503 483.661 214.77 484.062 215.273C485.636 217.349 487.143 223.444 484.33 223.746C483.192 223.846 481.752 223.076 480.613 222.205C479.474 221.334 478.135 219.995 478.135 218.555V218.22Z" fill="#FFB27D"/>
<path d="M539.957 241.596C534.9 236.338 526.159 225.99 526.461 217.483C526.863 205.594 540.526 187.878 540.526 187.878C539.254 195.715 537.814 203.685 536.675 207.034C534.565 213.297 538.551 234.429 539.957 241.596Z" fill="#233862"/>
<path d="M539.79 220.866C539.79 220.866 536.139 222.674 533.962 221.77C531.752 220.866 529.173 220.162 526.695 222.975C524.217 225.789 523.715 227.731 524.217 228.769C524.753 229.807 530.48 229.406 531.451 228.769C532.388 228.133 533.929 226.525 534.867 226.793C537.512 227.564 539.723 225.554 540.962 223.947C541.699 223.009 539.689 222.54 539.79 220.866Z" fill="#FFB27D"/>
<path d="M526.193 152.245C526.193 152.245 540.661 153.852 544.077 160.149C547.492 166.445 565.242 191.997 564.673 202.614C564.103 213.23 540.46 225.152 540.46 225.152C540.46 225.152 535.235 222.942 535.135 220.564C535.068 218.186 551.478 203.953 550.473 201.308C549.468 198.662 531.384 177.664 529.642 170.731C527.901 163.799 526.193 152.245 526.193 152.245Z" fill="#22407A"/>
<path d="M483.929 185.634C483.929 185.634 483.895 185.668 483.828 185.735C478.436 189.151 473.446 192.031 473.446 193.337C472.71 191.026 479.743 181.415 482.02 179.439C484.331 177.463 483.929 185.634 483.929 185.634Z" fill="#233862"/>
<path d="M521.705 149.03C521.705 149.03 510.721 195.078 512.462 212.393C512.462 212.393 516.514 193.873 526.226 178.668C526.226 178.668 522.676 175.554 522.877 174.382C522.877 174.382 525.523 173.611 528.068 174.114C528.068 174.114 527.8 154.254 526.193 152.178C524.585 150.135 521.705 149.03 521.705 149.03Z" fill="#233862"/>
<path d="M504.458 150.604C504.692 150.47 493.573 195.581 492.636 209.981C492.636 209.981 493.741 184.328 493.64 176.927C493.64 176.927 498.195 174.516 498.195 173.678C498.195 172.841 493.339 170.53 493.339 170.53C493.339 170.53 496.42 154.723 498.095 152.982C499.769 151.24 504.458 150.604 504.458 150.604Z" fill="#233862"/>
<path d="M361.49 350.003C362.059 350.672 362.159 351.409 361.858 352.213C361.322 353.686 359.581 355.327 357.538 356.968C357.27 357.169 357.036 357.37 356.835 357.538C356.768 357.571 356.734 357.638 356.667 357.672C356.634 357.705 356.6 357.739 356.533 357.772C354.624 359.514 355.361 359.916 351.945 363.499C348.06 367.551 345.348 367.618 344.611 367.25C343.974 366.948 345.281 364.772 346.721 362.36C346.788 362.26 346.855 362.126 346.922 361.992C347.123 361.657 347.323 361.356 347.491 361.021C349.199 358.107 348.764 356.734 348.362 352.414C348.027 348.897 342.903 332.755 342.903 332.755L350.371 331.483C350.371 331.483 352.615 344.343 355.093 346.319C356.433 347.357 357.906 347.39 359.179 348.161C359.279 348.228 359.346 348.261 359.447 348.328C360.15 348.864 360.887 349.366 361.49 350.003Z" fill="#FFB27D"/>
<path d="M361.49 350.003C362.059 350.672 362.16 351.409 361.858 352.213C361.222 353.686 359.481 355.327 357.538 356.935C357.27 357.136 357.069 357.337 356.835 357.538C356.768 357.571 356.735 357.638 356.668 357.672C356.634 357.705 356.601 357.739 356.534 357.772C354.625 359.514 355.361 359.916 351.945 363.499C348.061 367.551 345.348 367.618 344.611 367.25C343.975 366.948 345.281 364.772 346.721 362.36C347.491 362.092 351.008 360.652 353.653 357.236C355.998 354.256 357.572 350.404 359.179 348.161C359.28 348.228 359.347 348.261 359.447 348.328C360.15 348.864 360.887 349.366 361.49 350.003Z" fill="#C65447"/>
<path d="M301.242 345.347C300.773 347.658 297.491 347.256 293.807 346.386C290.123 345.481 290.994 346.553 285.769 345.984C280.545 345.414 278.971 343.472 278.803 342.668C278.669 341.965 281.248 341.731 284.028 341.429C284.363 341.396 284.731 341.362 285.066 341.295C288.18 340.893 290.491 338.884 293.338 337.243C296.017 335.669 300.036 329.272 300.036 329.272L307.203 329.842C307.203 329.842 303.452 335.568 301.978 338.047C301.108 339.52 301.175 341.429 301.275 342.936C301.375 343.706 301.409 344.544 301.242 345.347Z" fill="#FFB27D"/>
<path d="M293.84 346.386C290.157 345.481 291.027 346.553 285.803 345.984C280.579 345.414 279.004 343.472 278.837 342.668C278.703 341.965 281.282 341.731 284.061 341.429L284.095 341.496C284.095 341.496 287.243 343.706 291.563 343.807C295.113 343.907 298.864 342.869 301.309 342.903C301.376 343.706 301.409 344.544 301.242 345.347C300.773 347.658 297.491 347.29 293.84 346.386Z" fill="#C65447"/>
<path d="M317.183 240.089C317.183 240.089 315.475 235.903 313.599 235.735C311.724 235.568 305.729 234.63 305.327 235.467C304.892 236.304 305.327 239.386 306.6 240.491C307.873 241.596 315.81 243.404 315.81 243.404L317.183 240.089Z" fill="#FFB27D"/>
<path d="M328.703 299.533L344.142 341.094C344.142 341.094 346.52 341.329 348.797 340.659C350.873 340.056 353.285 338.482 353.285 338.482C353.285 338.482 349.467 298.562 342.434 290.257C335.401 281.985 328.703 299.533 328.703 299.533Z" fill="#AA413E"/>
<path d="M389.789 282.721C389.789 282.721 345.415 267.718 335.502 270.899C325.622 274.081 295.917 333.224 295.917 333.224C295.917 333.224 296.587 334.128 298.429 334.798C300.137 335.434 304.256 335.401 304.256 335.401C304.256 335.401 331.081 312.427 334.263 305.695C337.444 298.997 338.717 292.601 341.932 293.237C345.114 293.874 383.124 308.877 391.731 299.935C400.338 290.993 398.094 279.372 398.094 279.372L389.789 282.721Z" fill="#C65447"/>
<path d="M362.696 212.895C361.992 211.422 361.189 208.843 360.82 204.188C360.887 204.657 361.691 210.484 363.935 213.799C373.178 219.861 390.86 240.089 390.492 243.94C390.492 243.94 396.721 233.357 396.822 233.324C396.822 233.324 408.309 218.722 394.678 210.35C387.746 206.097 387.779 200.638 388.081 195.882C388.382 191.127 386.205 170.731 372.307 176.056C372.307 176.056 370.097 175.052 369.092 175.219C369.092 175.219 369.896 175.386 370.331 175.788C368.724 175.688 366.413 175.822 364.504 176.893C359.414 179.807 354.859 205.728 362.696 212.895Z" fill="#B5453C"/>
<path d="M364.437 214.134C364.403 214.168 368.891 216.478 372.273 215.574C375.455 214.704 377.531 210.584 377.498 210.551C376.158 210.283 375.756 208.441 375.79 200.47L375.187 200.604L364.939 202.647C364.939 202.647 365.174 205.862 365.174 208.91C365.174 211.422 365.04 213.866 364.437 214.134Z" fill="#FFB27D"/>
<path d="M364.939 202.614C364.939 202.614 365.174 205.829 365.174 208.876C370.901 208.709 373.948 203.484 375.187 200.571L364.939 202.614Z" fill="#ED975D"/>
<path d="M376.259 199.466C376.259 199.466 379.273 194.71 379.976 190.658C380.479 187.744 379.005 176.994 368.221 178.568C368.221 178.568 365.073 178.869 362.126 180.879C359.782 182.453 356.399 185.869 360.184 195.279L361.155 198.461L376.259 199.466Z" fill="#B5453C"/>
<path d="M363.03 205.494C363.03 205.494 376.594 205.728 376.627 197.255C376.627 188.782 378.402 183.123 369.728 182.62C361.055 182.118 359.38 185.333 358.677 188.18C357.974 190.993 359.481 205.226 363.03 205.494Z" fill="#FFB27D"/>
<path d="M363.533 182.419C363.533 182.419 367.25 192.332 372.943 193.806C378.637 195.279 381.115 193.739 381.115 193.739C381.115 193.739 376.728 190.256 375.823 184.194C375.823 184.194 366.312 177.697 363.533 182.419Z" fill="#B5453C"/>
<path d="M364.437 183.223C364.437 183.223 361.658 185.433 360.988 187.577C360.318 189.72 360.017 194.174 358.71 194.007C358.71 194.007 355.897 187.275 359.045 183.457C362.394 179.439 364.437 183.223 364.437 183.223Z" fill="#B5453C"/>
<path d="M400.204 282.956C399.468 284.999 397.224 285.501 394.21 285.166C388.483 284.496 379.943 280.645 373.814 277.966C364.437 273.914 360.184 277.731 357.203 275.153C354.223 272.574 360.619 266.814 355.06 240.156C353.185 231.114 365.073 211.723 365.073 211.723C365.073 211.723 366.112 217.349 377.465 210.584C377.867 210.35 382.354 216.981 386.674 225.152C391.43 234.161 395.985 245.079 394.645 250.672C392.133 261.355 402.348 277.028 400.204 282.956Z" fill="#699DEE"/>
<path d="M365.107 211.689L358.107 240.457C358.107 240.457 357.236 241.998 355.863 244.208C352.648 249.399 346.721 258.24 342.903 259.111C341.027 259.546 337.042 258.006 332.621 255.762C324.282 251.542 314.403 244.911 314.403 244.911C313.767 241.094 317.082 237.945 317.082 237.945C317.082 237.945 337.076 245.481 339.085 245.615C343.405 245.916 347.826 225.018 351.878 218.052C354.758 213.062 365.107 211.689 365.107 211.689Z" fill="#699DEE"/>
<path d="M366.045 200.37C366.045 200.37 365.777 201.441 363.131 201.274C363.131 201.274 360.887 201.14 360.954 199.968C360.921 199.934 363.097 199.097 366.045 200.37Z" fill="white"/>
<path d="M400.204 282.956C399.467 284.999 397.223 285.501 394.209 285.166C390.224 283.425 373.077 276.794 373.278 272.273C373.58 265.608 376.594 265.407 374.45 257.169C372.742 250.571 388.583 238.28 391.128 235.601C395.884 244.61 396.018 245.045 394.678 250.672C392.133 261.355 402.347 277.028 400.204 282.956Z" fill="#4A75CB"/>
<path d="M355.83 244.242C352.615 249.432 346.688 258.274 342.87 259.145C340.994 259.58 337.009 258.039 332.588 255.796C335.803 256.633 338.951 256.599 341.999 256.298C345.315 255.963 346.252 251.944 351.477 245.883C354.859 241.931 355.663 242.935 355.83 244.242Z" fill="#4A75CB"/>
<path d="M371.738 257.001C371.738 257.001 368.858 254.757 366.145 255.293C363.432 255.829 362.093 257.704 362.193 258.542C362.294 259.379 363.734 261.79 365.81 261.991C367.887 262.192 373.781 260.719 373.781 260.719L371.738 257.001Z" fill="#FFB27D"/>
<path d="M377.498 210.551C377.498 210.551 388.55 211.221 392.401 216.579C397.793 224.114 407.17 254.791 404.591 261.824L370.934 261.69C370.934 261.69 370.13 257.872 371.269 256.03C372.408 254.188 390.861 251.207 391.698 250.37C392.535 249.533 381.048 233.759 381.048 231.214C381.048 228.635 377.498 210.551 377.498 210.551Z" fill="#699DEE"/>
<path d="M368.858 269.56H328.101L320.733 243.94H361.457L368.858 269.56Z" fill="#1C468A"/>
<path d="M381.517 268.589H328.235V269.593H381.517V268.589Z" fill="#163560"/>
<path d="M341.028 256.331C340.76 255.427 341.296 254.69 342.2 254.69C343.104 254.69 344.042 255.427 344.31 256.331C344.577 257.236 344.042 257.972 343.137 257.972C342.233 257.972 341.296 257.236 341.028 256.331Z" fill="#163560"/>
<path d="M240.792 211.421C240.792 211.421 245.246 207.771 246.854 207.771C248.461 207.738 251.509 206.967 251.375 207.47C251.241 208.005 248.696 208.675 249.131 208.91C249.566 209.144 253.284 208.139 254.322 208.742C255.36 209.345 257.805 211.823 255.829 212.895C253.853 213.967 247.992 215.708 246.452 215.507C244.945 215.306 241.495 215.072 241.495 215.072L240.792 211.421Z" fill="#FFB27D"/>
<path d="M183.893 346.821L187.61 362.561L193.203 362.528L193.404 346.821H183.893Z" fill="#FFB27D"/>
<path d="M230.946 347.491L241.596 362.561L245.748 357.236L239.318 345.414L230.946 347.491Z" fill="#FFB27D"/>
<path d="M209.178 157.201C209.178 157.168 209.178 157.134 209.178 157.067C209.111 156.297 209.01 155.493 208.91 154.723C208.575 152.379 208.14 150.102 207.57 148.059C207.235 146.887 206.9 145.815 206.499 144.844C206.432 144.71 206.398 144.542 206.331 144.408C205.427 142.198 204.389 140.59 203.317 139.988C201.375 138.882 199.064 138.782 197.456 138.849C197.858 138.414 198.695 138.28 198.695 138.28C197.691 138.146 195.447 139.117 195.447 139.117C181.482 133.725 179.271 154.288 179.573 159.077C179.874 163.866 174.884 165.406 167.617 169.191C153.752 176.358 152.546 186.003 152.546 186.003C152.647 186.07 152.781 186.137 152.881 186.237C153.585 185.065 154.991 182.888 156.197 182.553C156.163 182.654 154.79 185.567 154.288 187.242C156.029 188.581 158.441 190.591 161.019 192.868C164.502 195.882 168.287 199.332 171.368 202.145C171.334 201.174 171.368 199.834 171.736 199.131L172.305 202.647L172.372 203.116C174.315 204.891 175.855 206.331 176.626 207.068C176.693 207.135 176.76 207.202 176.827 207.269C177.061 207.47 177.161 207.604 177.161 207.604C177.061 206.365 178.769 203.484 181.482 199.901C181.683 199.667 181.85 199.399 182.051 199.131C182.922 197.992 183.859 196.82 184.898 195.614C185.266 195.179 185.634 194.744 186.036 194.308C186.338 193.94 186.639 193.605 186.974 193.236C187.744 192.366 188.514 191.529 189.285 190.658C191.328 188.414 193.471 186.237 195.581 184.228C198.628 181.314 201.542 178.836 203.92 177.262C204.02 177.128 204.087 176.994 204.188 176.86C204.623 176.157 204.991 175.353 205.326 174.516C205.427 174.281 205.527 174.013 205.594 173.745C206.532 171.066 206.934 168.354 207.034 167.684C206.8 170.363 206.432 172.372 206.03 173.846C205.929 174.181 205.862 174.482 205.762 174.75C205.561 175.386 205.36 175.889 205.125 176.324C205.527 175.956 205.896 175.52 206.231 175.051C206.465 174.75 206.666 174.415 206.867 174.08C209.245 169.961 209.747 163.464 209.178 157.201Z" fill="#163560"/>
<path d="M203.384 177.496C203.417 177.53 198.896 179.874 195.48 178.936C192.265 178.066 190.189 173.913 190.222 173.879C191.595 173.611 191.964 171.736 191.93 163.732L192.533 163.866L202.848 165.909C202.848 165.909 202.613 169.157 202.613 172.205C202.613 174.784 202.781 177.228 203.384 177.496Z" fill="#FFB27D"/>
<path d="M191.696 143.404C191.696 143.404 196.786 137.978 203.183 143.136C203.183 143.102 199.465 142.466 191.696 143.404Z" fill="#E37970"/>
<path d="M202.881 165.909C202.881 165.909 202.647 169.157 202.647 172.205C196.853 172.037 193.806 166.779 192.566 163.832L202.881 165.909Z" fill="#ED975D"/>
<path d="M191.495 162.727C191.495 162.727 188.481 157.938 187.744 153.852C187.242 150.939 188.715 140.088 199.599 141.662C199.599 141.662 202.747 141.963 205.728 143.973C208.106 145.58 211.488 149.03 207.704 158.474L206.699 161.656L191.495 162.727Z" fill="#163560"/>
<path d="M244.04 353.117L238.582 353.285L232.654 353.452C232.654 353.452 218.956 338.214 211.287 313.767C211.12 313.197 210.919 312.628 210.718 312.059C206.532 299.801 197.791 284.429 193.203 270.498C192.466 268.287 191.83 266.177 191.227 264.202C191.026 263.565 190.858 262.962 190.691 262.326C187.309 250.571 186.337 242.868 185.433 234.596L218.588 234.864C218.555 234.898 223.913 291.194 244.04 353.117Z" fill="#2B478B"/>
<path d="M213.933 215.842C213.866 231.616 216.244 238.381 216.244 238.381C216.244 238.381 202.044 245.581 185.165 240.29C184.964 240.223 171.2 237.075 171.2 237.075C171.468 236.438 173.979 225.789 174.281 225.219C177.831 217.584 180.543 214.201 180.979 211.857C181.749 207.47 181.782 202.915 181.381 198.628C180.342 187.275 177.295 177.865 177.295 177.865C181.883 176.826 186.203 174.984 190.992 173.176C192.097 174.549 195.446 175.989 198.36 175.922C201.709 175.855 202.814 174.415 202.647 172.841C206.23 174.817 209.077 176.726 209.077 176.726C212.124 182.017 218.286 187.141 218.755 195.246C218.856 197.289 213.933 215.407 213.933 215.842Z" fill="#E7F1FD"/>
<path d="M204.824 168.822C204.824 168.822 191.16 169.057 191.127 160.517C191.127 152.01 189.352 146.284 198.092 145.781C206.833 145.279 208.508 148.528 209.211 151.374C209.881 154.221 208.374 168.521 204.824 168.822Z" fill="#FFB27D"/>
<path d="M204.288 145.58C204.288 145.58 200.537 155.56 194.81 157.067C189.05 158.541 186.572 157 186.572 157C186.572 157 190.992 153.484 191.897 147.389C191.897 147.389 201.475 140.825 204.288 145.58Z" fill="#163560"/>
<path d="M203.384 146.384C203.384 146.384 206.163 148.628 206.867 150.771C207.537 152.948 207.871 157.402 209.144 157.268C209.144 157.268 211.957 150.47 208.809 146.619C205.427 142.566 203.384 146.384 203.384 146.384Z" fill="#163560"/>
<path d="M187.442 361.657C187.442 361.657 187.878 364.772 186.739 368.121C186.739 368.121 185.835 372.307 189.92 372.374C194.04 372.441 195.044 372.072 194.576 369.494C194.107 366.948 193.236 362.494 193.236 362.494L187.442 361.657Z" fill="#FFB27D"/>
<path d="M195.112 374.852H186.103C185.735 373.01 186.538 369.058 186.672 368.288C186.672 368.221 186.706 368.188 186.706 368.154C186.706 368.121 186.706 368.121 186.706 368.121C191.361 372.374 194.275 368.02 194.275 368.02C194.275 368.02 194.275 368.02 194.275 368.054C194.978 369.695 195.112 374.216 195.112 374.852Z" fill="#C45446"/>
<path d="M255.628 369.929C255.628 369.929 248.059 361.523 245.715 357.236L240.088 360.116L252.681 371.938L255.628 371.537V369.929Z" fill="#FFB27D"/>
<path d="M260.451 374.852C260.451 374.852 251.073 374.852 250.906 374.852C249.499 374.852 248.394 372.541 246.854 369.494C246.251 368.255 244.844 367.585 243.438 367.216L243.471 374.852H241.261L239.251 366.781C237.912 364.303 239.151 362.092 240.089 360.116C241.194 360.116 244.141 360.853 249.734 367.183C251.576 369.259 253.619 369.996 255.628 369.929C255.661 369.962 255.695 369.962 255.728 369.962C260.384 372.072 260.451 374.852 260.451 374.852Z" fill="#C45446"/>
<path d="M238.581 353.285L232.654 353.452C232.654 353.452 218.956 338.214 211.287 313.766C211.12 313.197 210.919 312.628 210.718 312.058C206.532 299.801 197.791 284.429 193.203 270.498C192.466 268.287 191.83 266.177 191.227 264.201C191.026 263.565 190.858 262.962 190.691 262.326L195.58 258.609C195.58 258.609 210.249 282.353 214.77 304.691C218.688 324.115 234.496 347.457 238.581 353.285Z" fill="#233862"/>
<path d="M196.083 306.801C196.15 317.651 195.614 342.635 194.207 352.983H188.949C186.036 352.983 184.596 352.95 184.596 352.95C181.046 334.966 178.534 320.096 176.692 307.303C175.185 296.787 173.846 287.778 172.807 280.009C171.769 272.206 171.032 265.642 170.798 260.116C170.764 259.245 170.731 258.408 170.698 257.57C170.698 256.733 170.664 255.93 170.698 255.159L199.331 252.38C198.963 271.368 196.016 300.471 196.083 306.801Z" fill="#2B478B"/>
<path d="M188.95 352.983C186.036 352.983 184.596 352.95 184.596 352.95C181.046 334.966 178.534 320.096 176.693 307.303C175.186 296.787 173.846 287.778 172.808 280.009C171.77 272.206 171.033 265.642 170.798 260.116L181.314 266.311C181.314 266.311 174.616 268.689 177.161 286.606C179.707 304.49 185.4 350.438 188.95 352.983Z" fill="#233862"/>
<path d="M190.289 259.915C190.289 259.915 188.28 267.216 181.281 266.278C174.315 265.34 164.368 261.154 164.368 261.154C164.368 261.154 167.349 251.743 171.066 239.352C175.554 224.349 176.659 203.283 179.305 191.093C180.041 187.677 184.998 186.572 185.165 184.529L190.959 173.31C190.959 173.31 199.599 192.701 200.068 197.59C200.537 202.446 190.289 259.915 190.289 259.915Z" fill="#F99746"/>
<path d="M185.433 211.957C185.131 219.861 182.352 233.357 171.233 239.285C171.2 239.319 171.133 239.319 171.099 239.352C175.587 224.349 175.52 209.981 178.165 197.791C184.127 196.552 185.6 207.604 185.433 211.957Z" fill="#ED7D2B"/>
<path d="M257.637 207.202H246.921C246.921 207.269 246.921 207.47 246.887 207.738C246.854 208.709 246.787 210.618 246.787 210.785C246.921 213.062 248.528 214.302 250.035 214.904C250.035 214.904 250.035 214.904 250.069 214.904C250.437 215.038 250.805 215.139 251.14 215.206C251.408 215.273 251.643 215.306 251.877 215.306C252.011 215.306 252.178 215.34 252.279 215.34C253.049 215.34 253.819 215.172 254.489 214.871C256.365 214.034 257.704 212.125 257.704 209.948V207.838C257.671 207.671 257.671 207.436 257.637 207.202Z" fill="#C45446"/>
<path d="M256.767 207.202H255.326C255.36 207.436 255.36 207.637 255.36 207.872V209.981C255.36 211.455 254.757 212.795 253.819 213.766C253.351 214.235 252.781 214.636 252.145 214.904C251.81 215.038 251.475 215.172 251.14 215.239C251.006 215.273 250.839 215.306 250.671 215.306C250.906 215.34 251.14 215.373 251.408 215.373C251.576 215.373 251.71 215.373 251.877 215.34C252.48 215.306 253.083 215.139 253.618 214.904C254.623 214.469 255.46 213.699 256.03 212.761C256.264 212.393 256.432 211.991 256.566 211.555C256.733 211.053 256.8 210.517 256.8 209.948V207.838C256.8 207.671 256.8 207.436 256.767 207.202Z" fill="#E37970"/>
<path d="M250.076 215.585H254.497V214.915H250.076V215.585Z" fill="#C45446"/>
<path d="M173.209 229.506C173.209 229.506 178.199 228.434 179.472 229.841C180.745 231.281 181.481 233.525 180.209 234.329C178.936 235.132 175.219 232.955 173.879 233.826C172.908 234.463 172.606 236.07 171.669 235.501C170.698 234.931 169.693 231.281 169.693 231.281L173.209 229.506Z" fill="#FFB27D"/>
<path d="M190.959 173.277C190.959 173.277 177.496 173.879 174.281 176.86C171.033 179.874 151.675 203.082 151.374 209.144C151.039 215.239 168.353 232.52 168.353 232.52C168.353 232.52 173.142 231.348 175.252 228.334C175.252 228.334 164.535 209.211 165.172 208.374C165.808 207.537 183.993 192.667 185.467 195.949C186.706 198.829 190.959 173.277 190.959 173.277Z" fill="#F99746"/>
<path d="M242.165 209.446C242.165 209.446 226.793 214.57 224.884 214.134C222.975 213.699 220.229 192.902 218.722 185.735C216.813 176.559 209.546 174.717 209.546 174.717L202.647 172.875C202.647 172.875 210.551 192.433 210.785 196.385C211.019 200.336 211.723 261.053 211.723 261.053C211.723 261.053 211.254 263.833 216.612 262.694C221.971 261.522 223.344 260.384 223.344 260.384C223.344 260.384 221.033 243.404 219.928 228.334C225.387 227.396 242.902 218.521 242.902 218.521C245.648 214.235 242.165 209.446 242.165 209.446Z" fill="#F99746"/>
<path d="M285.099 275.019L282.286 290.859L274.55 334.664L267.651 373.814C267.551 374.417 267.015 374.852 266.412 374.852C265.876 374.852 265.441 374.383 265.508 373.847L271.469 329.473L277.832 281.985L278.803 274.818L285.099 275.019Z" fill="#C69D7F"/>
<path d="M315.709 275.019L312.896 290.859L305.16 334.664L298.261 373.814C298.161 374.417 297.625 374.852 297.022 374.852C296.486 374.852 296.051 374.383 296.118 373.847L302.079 329.473L308.442 281.985L309.413 274.818L315.709 275.019Z" fill="#C69D7F"/>
<path d="M282.319 290.859C282.688 284.061 277.865 281.985 277.865 281.985L278.836 274.818L285.132 274.985L282.319 290.859Z" fill="#A0795F"/>
<path d="M549.033 374.852C548.43 374.852 547.894 374.417 547.794 373.814L541.665 339.018L532.824 289.018L530.346 275.019L536.642 274.851L537.747 282.989L545.416 340.056L549.971 373.881C550.004 374.383 549.569 374.852 549.033 374.852Z" fill="#C69D7F"/>
<path d="M537.747 282.956C533.661 284.764 532.824 289.017 532.824 289.017L530.346 275.019L536.642 274.851L537.747 282.956Z" fill="#A0795F"/>
<path d="M584.298 374.852C583.695 374.852 583.159 374.417 583.059 373.814L576.93 339.018L568.089 289.018L565.61 275.019L571.906 274.851L573.012 282.989L580.681 340.056L585.235 373.881C585.269 374.383 584.834 374.852 584.298 374.852Z" fill="#C69D7F"/>
<path d="M572.978 282.956C568.893 284.764 568.055 289.017 568.055 289.017L565.577 275.019L571.873 274.851L572.978 282.956Z" fill="#A0795F"/>
<path d="M583.46 280.511H255.327C252.346 280.511 249.901 278.066 249.901 275.086V274.952C249.901 271.971 252.346 269.526 255.327 269.526H583.427C586.407 269.526 588.852 271.971 588.852 274.952V275.052C588.886 278.066 586.441 280.511 583.46 280.511Z" fill="#E0B594"/>
<path d="M320.532 262.895C320.029 262.594 319.025 262.694 318.321 262.862V261.824C318.321 261.589 318.321 261.355 318.288 261.154H307.571C307.538 261.388 307.538 261.589 307.538 261.824V263.934C307.538 266.914 309.982 269.325 312.929 269.325C314.537 269.325 315.977 268.622 316.982 267.484C316.982 267.484 319.527 266.847 320.331 265.91C321.101 264.972 321.369 263.431 320.532 262.895ZM319.962 264.838C319.694 265.541 318.489 265.91 317.886 266.043C318.12 265.508 318.288 264.905 318.321 264.269C318.69 263.766 319.293 263.465 319.694 263.532C320.063 263.632 320.297 263.967 319.962 264.838Z" fill="#C45446"/>
<path d="M308.375 261.824V263.934C308.375 266.914 310.82 269.325 313.767 269.325C314.001 269.325 314.269 269.292 314.504 269.259C311.858 268.89 309.815 266.646 309.815 263.9V261.79C309.815 261.556 309.815 261.321 309.849 261.12H308.442C308.408 261.388 308.375 261.589 308.375 261.824Z" fill="#E37970"/>
<path d="M315.106 268.857H310.686V269.526H315.106V268.857Z" fill="#C45446"/>
<path d="M472.877 262.895C472.375 262.594 471.37 262.694 470.667 262.862V261.824C470.667 261.589 470.667 261.355 470.633 261.154H459.916C459.883 261.388 459.883 261.589 459.883 261.824V263.934C459.883 266.914 462.328 269.325 465.275 269.325C466.882 269.325 468.322 268.622 469.327 267.484C469.327 267.484 471.872 266.847 472.676 265.91C473.48 264.972 473.714 263.431 472.877 262.895ZM472.308 264.838C472.04 265.541 470.834 265.91 470.231 266.043C470.466 265.508 470.633 264.905 470.667 264.269C471.035 263.766 471.638 263.465 472.04 263.532C472.408 263.632 472.642 263.967 472.308 264.838Z" fill="#C45446"/>
<path d="M460.72 261.824V263.934C460.72 266.914 463.165 269.325 466.112 269.325C466.347 269.325 466.614 269.292 466.849 269.259C464.203 268.89 462.16 266.646 462.16 263.9V261.79C462.16 261.556 462.16 261.321 462.194 261.12H460.754C460.754 261.388 460.72 261.589 460.72 261.824Z" fill="#E37970"/>
<path d="M467.485 268.857H463.064V269.526H467.485V268.857Z" fill="#C45446"/>
<path d="M74.5151 186.94V374.852H24.9501C24.9501 374.852 24.2133 367.551 23.9789 355.729C23.845 348.864 23.9119 340.458 24.3808 331.081C24.4143 330.311 24.4478 329.54 24.5148 328.77C24.7827 324.483 25.1176 319.996 25.5529 315.374C25.5864 314.972 25.6199 314.537 25.6869 314.135C26.1892 309.312 26.7921 304.289 27.5958 299.098C28.2321 294.912 28.9689 290.625 29.8061 286.271C29.8731 285.97 29.9401 285.669 29.9736 285.367C30.409 283.157 30.8778 280.913 31.3802 278.669C31.5811 277.798 31.7821 276.894 31.983 276.023C32.3849 274.282 32.8202 272.54 33.2556 270.799C34.3273 266.546 35.5329 262.226 36.8725 257.905C37.0065 257.47 37.1404 257.035 37.2744 256.566C37.8772 254.657 38.5135 252.715 39.1833 250.806C40.188 247.858 41.2597 244.945 42.3983 241.998C43.1016 240.156 43.8384 238.314 44.6087 236.505C51.8425 219.158 61.5545 202.145 74.5151 186.94Z" fill="#D0E5F3"/>
</g>
<defs>
<clipPath id="clip0">
<rect width="913.168" height="378" fill="white"/>
</clipPath>
</defs>
</svg>
