<svg width="129" height="32" viewBox="0 0 129 32" fill="none" xmlns="http://www.w3.org/2000/svg">
<path d="M51.0143 18.7428L58.0773 27.4285H52.5L46.2142 19.4515V27.4285H41.6427V4.5715H46.2142V18.0115L52.02 11.4285H57.8485L51.0143 18.7428ZM32.7285 10.9715C31.7276 10.9865 30.7452 11.2438 29.8655 11.7215C28.9858 12.1992 28.2349 12.8829 27.6772 13.7142V11.4285H23.3573V27.4285H27.9285V19.9543C27.8685 19.4117 27.9207 18.8627 28.0821 18.3413C28.2434 17.8198 28.5103 17.3372 28.8663 16.9234C29.2222 16.5095 29.6594 16.1734 30.1509 15.9359C30.6423 15.6984 31.1774 15.5646 31.7227 15.5428C34.3742 15.5428 34.7858 18.1485 34.7858 19.9543V27.4285H39.3573V18.9485C39.3573 13.92 37.6885 10.9715 32.82 10.9715H32.7285ZM73.6428 19.7943C73.6603 20.1292 73.6603 20.465 73.6428 20.8H61.6427V20.96C61.8376 21.9132 62.3656 22.7657 63.1322 23.3647C63.8988 23.9637 64.8538 24.27 65.8258 24.2285C66.5968 24.262 67.3667 24.1397 68.0894 23.8687C68.812 23.5977 69.4726 23.1837 70.0315 22.6515L73.0715 24.9373C72.108 25.9205 70.9491 26.6909 69.6696 27.1987C68.39 27.7066 67.0183 27.9406 65.6428 27.8857C64.5036 27.9577 63.3623 27.7844 62.2958 27.3775C61.2294 26.9706 60.2627 26.3396 59.4611 25.5271C58.6594 24.7146 58.0414 23.7395 57.6489 22.6677C57.2564 21.5959 57.0984 20.4523 57.1857 19.3143C57.1623 18.1908 57.3706 17.0745 57.7975 16.035C58.2244 14.9956 58.8609 14.0552 59.6672 13.2725C60.4735 12.4897 61.4324 11.8815 62.4841 11.4856C63.5358 11.0898 64.6577 10.9147 65.78 10.9715C70.0772 10.9715 73.6428 14.0115 73.6428 19.7943ZM69.3915 17.8285C69.3747 17.3758 69.2659 16.9312 69.0717 16.5218C68.8775 16.1125 68.602 15.747 68.2619 15.4476C67.9219 15.1482 67.5245 14.9212 67.0939 14.7804C66.6633 14.6395 66.2085 14.5879 65.7572 14.6285C63.7472 14.4113 61.927 15.827 61.6427 17.8285H69.3915ZM5.0715 4.5715H0.5V27.4285H14.2142V22.8575H5.0715V4.5715ZM87.3572 4.5715H91.9285V27.4285H87.6085V25.8285C87.0599 26.5043 86.3608 27.0424 85.567 27.3996C84.7733 27.7569 83.9069 27.9233 83.0372 27.8857C81.9748 27.8585 80.9291 27.6142 79.9646 27.1679C79 26.7217 78.1369 26.0829 77.4283 25.2908C76.7196 24.4986 76.1805 23.57 75.844 22.5619C75.5075 21.5537 75.3807 20.4874 75.4715 19.4285C75.3636 18.3681 75.4776 17.2968 75.8062 16.2828C76.1349 15.2689 76.671 14.3344 77.3805 13.5389C78.09 12.7435 78.9573 12.1044 79.9272 11.6624C80.8971 11.2204 81.9484 10.9851 83.0143 10.9715C83.8081 10.9367 84.6009 11.0603 85.3466 11.335C86.0922 11.6097 86.7757 12.03 87.3572 12.5715V4.5715ZM87.7 19.4285C87.7719 18.9007 87.7298 18.3636 87.5764 17.8535C87.4231 17.3433 87.1622 16.872 86.8113 16.4713C86.4604 16.0705 86.0276 15.7497 85.5422 15.5304C85.0567 15.3111 84.5299 15.1984 83.9973 15.2C81.8105 15.3587 80.1535 17.2393 80.2715 19.4285C80.1535 21.6177 81.8105 23.4985 83.9973 23.6572C84.53 23.6588 85.0568 23.5462 85.5423 23.3269C86.0277 23.1076 86.4605 22.7867 86.8114 22.3859C87.1623 21.9851 87.4232 21.5138 87.5765 21.0036C87.7298 20.4934 87.7719 19.9563 87.7 19.4285ZM18.7857 4.11425C18.0506 4.12467 17.3469 4.41364 16.8165 4.92281C16.2862 5.43198 15.9688 6.12342 15.9285 6.8575C15.9285 8.43525 17.2078 9.7145 18.7857 9.7145C20.3637 9.7145 21.6425 8.435 21.6425 6.8575C21.6021 6.1235 21.2848 5.43216 20.7545 4.92305C20.2242 4.41394 19.5205 4.12498 18.7855 4.1145L18.7857 4.11425ZM16.5 27.4285H21.0715V11.4285H16.5V27.4285ZM128.5 2.28575V29.7143C128.5 30.3205 128.259 30.9019 127.831 31.3305C127.402 31.7592 126.82 32 126.214 32H98.7858C98.1795 32 97.5981 31.7592 97.1695 31.3305C96.7408 30.9019 96.5 30.3205 96.5 29.7143V2.28575C96.5 1.67953 96.7408 1.09814 97.1695 0.669481C97.5981 0.240819 98.1795 0 98.7858 0L126.214 0C126.82 0 127.402 0.240819 127.831 0.669481C128.259 1.09814 128.5 1.67953 128.5 2.28575ZM105.643 11.4285H101.072V27.4285H105.643V11.4285ZM106.214 6.85725C106.214 5.27925 104.935 4 103.357 4C101.779 4 100.5 5.27925 100.5 6.85725C100.5 8.435 101.779 9.71425 103.357 9.71425C104.935 9.71425 106.214 8.435 106.214 6.85725ZM123.928 18.9485C123.928 13.92 122.26 10.9715 117.392 10.9715C116.375 10.9716 115.374 11.2218 114.477 11.7002C113.58 12.1785 112.815 12.8702 112.248 13.7142V11.4285H107.928V27.4285H112.5V19.9543C112.44 19.4117 112.492 18.8627 112.654 18.3413C112.815 17.8198 113.082 17.3372 113.438 16.9234C113.794 16.5095 114.231 16.1734 114.722 15.9359C115.214 15.6984 115.749 15.5646 116.294 15.5428C118.946 15.5428 119.357 18.1485 119.357 19.9543V27.4285H123.928V18.9485Z" fill="#0A66C2"/>
</svg>
