<svg width="867" height="377" viewBox="0 0 867 377" fill="none" xmlns="http://www.w3.org/2000/svg">
<path d="M866.558 370.565H1.95012C1.95012 370.565 1.21335 363.432 0.978916 351.911C0.844957 345.18 0.911938 336.975 1.3808 327.832C1.41429 327.095 1.44777 326.325 1.51475 325.555C1.78267 321.369 2.11757 316.982 2.55294 312.46C2.58643 312.059 2.61992 311.657 2.6869 311.255C3.18925 306.533 3.79207 301.61 4.59582 296.586C5.23213 292.5 5.96891 288.281 6.80615 284.027C6.87313 283.726 6.94011 283.425 6.9736 283.123C7.40897 280.946 7.87783 278.77 8.38017 276.559C8.58111 275.689 8.78205 274.818 8.98299 273.981C9.38487 272.306 9.82024 270.598 10.2556 268.89C11.3273 264.704 12.5329 260.518 13.8725 256.298C14.0065 255.863 14.1404 255.427 14.2744 254.992C14.8772 253.116 15.5135 251.241 16.1833 249.332C17.188 246.452 18.2597 243.605 19.3983 240.725C20.1016 238.917 20.8384 237.142 21.6087 235.333C28.876 218.387 38.588 201.776 51.5486 186.907C81.2541 152.848 128.039 127.931 201.449 128.668C216.218 128.802 229.916 128.434 242.742 127.596H242.776C246.661 127.328 250.478 127.027 254.196 126.692H254.229C339.026 118.889 381.524 89.8198 420.172 61.4539C421.545 60.4492 422.951 59.411 424.324 58.4063C437.821 48.4598 451.049 38.6808 465.617 30.0739C469.335 27.8636 473.152 25.7202 477.104 23.6773C501.25 11.1521 529.851 2.07638 569.335 0.100477C573.187 -0.100462 576.938 -0.0669725 580.588 0.167457C581.995 0.267926 583.368 0.368396 584.741 0.535845C600.112 2.21034 613.676 7.70267 625.062 16.3431C654.667 38.8482 669.403 82.8539 661.7 137.811C656.476 175.018 668.264 195.212 688.459 208.407C744.253 244.911 864.448 227.932 866.558 370.565Z" fill="#F8FBFF"/>
<path d="M448.537 228.133V211.154H444.552V181.95H423.219V211.154H403.226V163.564H381.189V194.442H376.166V157.57H354.129V226.726H326.266V267.082H315.851V249.131H291.939V259.747H278.208V212.192H261.262V247.39H244.283V376.326H261.262H275.797H278.208H291.939H299.708H312.133H315.851H326.266H336.045H354.129H359.689H370.707H376.166H381.189H392.743H400.58H403.226H423.219H444.217H444.552H448.537H465.55V228.133H448.537Z" fill="#D0E5F3"/>
<path d="M687.688 286.539V376.326H473.889V298.194H490.266V276.894H506.642V305.695H519.938V299.265H543.046V310.15H553.093V285.702H580.018V243.773H601.318V266.144H606.174V247.423H627.474V276.258H646.764V258.542H667.394V276.258H671.245V286.539H687.688Z" fill="#D0E5F3"/>
<path d="M246.46 251.341V375.89H51.5151V267.517H66.4516V237.945H81.4216V277.899H93.5114V268.957H114.577V284.061H123.753V250.169H148.301V192.031H167.725V223.042H172.146V197.054H191.536V237.075H209.152V212.527H227.973V237.075H231.456V251.341H246.46Z" fill="#D0E5F3"/>
<path d="M477.037 23.7108V375.522H465.55V30.0739C469.301 27.8636 473.119 25.7537 477.037 23.7108Z" fill="#DEEDFF"/>
<path d="M254.196 126.726V370.565V375.522H242.709V370.565V127.63L254.196 126.726Z" fill="#DEEDFF"/>
<path d="M424.291 58.4063V85.7675C424.291 89.217 423.42 92.0301 422.349 92.0301H422.081C421.009 92.0301 420.138 89.217 420.138 85.7675V61.4539C421.511 60.4492 422.884 59.4445 424.291 58.4063Z" fill="#F99746"/>
<path d="M421.109 80.9785C406.005 80.9785 393.748 93.9391 393.748 109.914H448.504C448.504 93.9391 436.247 80.9785 421.109 80.9785Z" fill="#F99746"/>
<path d="M423.286 81.3469C422.516 81.1794 421.712 81.079 420.875 81.079C411.029 81.079 403.025 94.0061 403.025 109.947H407.847C407.881 95.3122 414.579 83.2223 423.286 81.3469Z" fill="#FFB278"/>
<path d="M584.707 0.569347V79.17C584.707 79.8733 584.707 80.5431 584.674 81.1794C584.54 87.3081 583.736 92.0301 582.765 92.0301H582.497C581.593 92.0301 580.856 87.9779 580.622 82.4855C580.588 82.0502 580.588 81.5813 580.588 81.1124C580.588 81.079 580.588 81.0455 580.588 81.012C580.588 80.4092 580.555 79.8063 580.555 79.17V0.200958C581.961 0.301428 583.334 0.401897 584.707 0.569347Z" fill="#F99746"/>
<path d="M581.559 80.9785C566.456 80.9785 554.198 93.9391 554.198 109.914H608.954C608.921 93.9391 596.663 80.9785 581.559 80.9785Z" fill="#F99746"/>
<path d="M583.736 81.3469C582.966 81.1794 582.162 81.079 581.325 81.079C571.479 81.079 563.475 94.0061 563.475 109.947H568.297C568.297 95.3122 575.029 83.2223 583.736 81.3469Z" fill="#FFB278"/>
<path d="M866.558 375.957H687.722V376.024H625.029V16.3765C654.634 39.2166 669.37 83.8921 661.667 139.686C656.443 177.463 668.231 197.959 688.426 211.354C744.253 248.428 864.448 231.147 866.558 375.957Z" fill="#D0E5F3"/>
<path d="M756.108 333.459C756.108 333.459 749.209 325.421 755.672 320.297C755.672 320.297 760.394 317.417 764.246 317.651C764.246 317.651 758.787 326.828 760.562 327.732C762.337 328.636 765.92 317.082 765.92 317.082C765.92 317.082 776.67 316.044 780.153 317.718C780.153 317.718 770.944 325.254 772.886 325.689C774.828 326.124 784.775 318.756 784.775 318.756C784.775 318.756 794.788 320.464 794.252 326.56C793.717 332.655 790.267 334.564 788.76 334.396C787.253 334.229 778.378 330.846 778.177 332.085C777.976 333.325 783.335 337.377 787.052 337.578C787.052 337.578 779.986 345.381 775.297 343.104C770.609 340.86 770.207 337.276 767.26 335.97C764.346 334.631 761.834 334.631 763.04 336.004C764.246 337.377 769.537 338.683 771.211 341.664C772.886 344.611 774.393 346.62 769.537 345.883C764.681 345.147 756.777 341.597 756.442 337.544C756.108 333.459 756.108 333.459 756.108 333.459Z" fill="#82B378"/>
<path d="M789.331 326.727C789.331 326.727 762.103 325.689 756.108 333.459C756.108 333.459 754.769 337.444 750.683 341.061L750.047 342.802C750.047 342.802 754.769 337.846 756.443 337.544C756.443 337.544 753.798 327.899 789.331 326.727Z" fill="#82B378"/>
<path d="M750.682 341.094C750.682 341.094 744.855 345.414 744.42 353.117L745.492 353.218C745.492 353.218 747.367 345.247 750.716 342.132C754.098 338.984 750.682 341.094 750.682 341.094Z" fill="#82B378"/>
<path d="M731.962 323.345C731.962 323.345 742.947 317.182 737.823 308.843C737.823 308.843 733.737 303.719 729.316 302.413C729.316 302.413 731.661 314.872 729.316 315.14C726.972 315.441 727.709 301.074 727.709 301.074C727.709 301.074 716.155 295.514 711.6 295.95C711.6 295.95 718.767 308.107 716.423 307.805C714.079 307.504 706.041 295.213 706.041 295.213C706.041 295.213 694.186 293.003 692.277 300.036C690.368 307.068 693.449 310.585 695.19 311.02C696.932 311.456 708.218 311.322 707.916 312.762C707.615 314.235 700.013 316.58 695.76 315.24C695.76 315.24 700.448 326.794 706.577 326.225C712.739 325.655 714.614 321.838 718.432 321.536C722.25 321.235 725.03 322.273 723.121 323.278C721.212 324.316 714.782 323.612 711.701 326.225C708.62 328.837 706.141 330.444 711.835 331.617C717.528 332.789 727.776 332.052 729.852 327.665C731.962 323.345 731.962 323.345 731.962 323.345Z" fill="#A8D29F"/>
<path d="M697.702 302.279C697.702 302.279 728.446 312.226 731.962 323.345C731.962 323.345 731.828 328.335 734.876 334.028V336.238C734.876 336.238 731.661 328.77 729.886 327.732C729.919 327.732 736.785 318.087 697.702 302.279Z" fill="#82B378"/>
<path d="M734.91 334.028C734.91 334.028 739.665 341.228 736.953 350.002L735.747 349.668C735.747 349.668 736.919 340.023 734.441 335.167C731.929 330.31 734.91 334.028 734.91 334.028Z" fill="#82B378"/>
<path d="M749.444 314.872C749.444 314.872 734.976 306.767 741.741 295.782C741.741 295.782 747.133 289.017 752.926 287.276C752.926 287.276 749.845 303.686 752.926 304.054C756.007 304.456 755.036 285.535 755.036 285.535C755.036 285.535 770.274 278.2 776.269 278.77C776.269 278.77 766.825 294.778 769.906 294.409C772.987 294.007 783.603 277.798 783.603 277.798C783.603 277.798 799.243 274.918 801.755 284.161C804.266 293.438 800.214 298.06 797.903 298.629C795.592 299.198 780.723 299.031 781.125 300.94C781.527 302.882 791.54 305.963 797.133 304.222C797.133 304.222 790.971 319.46 782.866 318.689C774.762 317.919 772.25 312.896 767.227 312.527C762.203 312.125 758.553 313.499 761.064 314.838C763.576 316.178 772.049 315.274 776.101 318.723C780.154 322.172 783.436 324.282 775.9 325.823C768.365 327.363 754.869 326.392 752.156 320.598C749.444 314.872 749.444 314.872 749.444 314.872Z" fill="#A8D29F"/>
<path d="M794.587 287.075C794.587 287.075 754.065 300.203 749.443 314.872C749.443 314.872 749.644 321.436 745.592 328.971V331.851C745.592 331.851 749.845 322.005 752.156 320.665C752.122 320.665 743.08 307.906 794.587 287.075Z" fill="#82B378"/>
<path d="M745.592 328.971C745.592 328.971 739.329 338.449 742.913 350.003L744.52 349.567C744.52 349.567 742.946 336.841 746.228 330.444C749.51 324.048 745.592 328.971 745.592 328.971Z" fill="#82B378"/>
<path d="M748.942 375.053C764.615 375.053 777.275 362.36 777.275 346.687H720.576C720.61 362.36 733.302 375.053 748.942 375.053Z" fill="#F1A34F"/>
<path d="M755.941 374.819C754.802 374.952 753.596 375.019 752.424 375.019C736.751 375.019 724.092 362.327 724.092 346.654H731.125C731.091 361.155 741.942 373.111 755.941 374.819Z" fill="#FFB973"/>
<path d="M777.676 376.493H720.207C720.207 374.551 721.781 373.01 723.69 373.01H774.193C776.135 372.977 777.676 374.551 777.676 376.493Z" fill="#F1A34F"/>
<path d="M777.944 346.687H719.672V347.558H777.944V346.687Z" fill="#D86713"/>
<path d="M629.784 287.644C630.286 275.153 631.425 264.268 632.731 256.7C634.841 244.61 636.75 237.678 636.783 237.611C637.051 236.539 641.104 232.252 650.045 232.386C659.021 232.52 658.15 238.146 658.15 238.146C658.15 238.347 658.116 238.515 658.083 238.649C657.983 238.95 649.778 268.354 650.112 306.332C650.112 306.868 650.179 307.772 650.146 308.408C650.146 308.408 629.382 308.944 629.382 308.408C628.679 305.093 629.014 295.916 629.784 287.644Z" fill="#D1A586"/>
<path d="M627.172 306.164C627.172 306.7 627.474 307.102 627.809 307.102C628.144 307.102 628.445 306.667 628.445 306.164H646.228C646.228 306.7 646.53 307.102 646.865 307.102C647.199 307.102 647.501 306.667 647.501 306.131C647.4 295.247 648.037 285.099 648.974 276.157C651.352 253.82 655.706 238.883 655.773 238.649C655.806 238.515 655.84 238.347 655.84 238.146C655.84 238.146 656.677 232.52 647.735 232.386C638.76 232.252 634.741 236.539 634.473 237.611C634.473 237.678 633.368 241.596 631.928 248.662C631.459 251.006 630.923 253.686 630.421 256.7C629.081 264.268 627.976 275.153 627.474 287.644C626.704 295.916 626.436 302.849 627.172 306.164Z" fill="#E5BD9E"/>
<path d="M627.172 306.164C627.172 306.7 627.474 307.102 627.809 307.102C628.144 307.102 628.445 306.667 628.445 306.164H646.228C646.228 306.7 646.53 307.102 646.864 307.102C647.199 307.102 647.501 306.667 647.501 306.131C647.4 295.247 648.037 285.099 648.974 276.157C646.027 261.991 634.674 251.14 631.928 248.696C631.459 251.04 630.923 253.719 630.421 256.733C629.081 264.302 627.976 275.186 627.474 287.678C626.704 295.916 626.436 302.849 627.172 306.164Z" fill="#DFB697"/>
<path d="M645.088 305.997L645.055 305.963C645.055 305.963 645.021 305.93 645.021 305.863C645.021 305.729 644.988 305.595 644.887 305.494C644.318 304.925 642.175 304.959 639.429 304.992C636.448 305.026 632.731 305.059 629.047 304.423C627.138 304.088 628.41 289.587 629.783 275.99C630.018 273.679 630.185 271.871 630.286 270.799C631.157 259.245 636.28 238.749 636.314 238.582C636.548 237.711 639.63 234.529 646.294 234.63C648.806 234.663 650.614 235.3 651.619 236.472C652.624 237.677 652.456 238.984 652.423 239.051C652.423 239.185 652.423 239.319 652.356 239.452C652.322 239.553 647.734 266.077 646.964 272.44C645.725 282.922 645.222 304.624 645.222 305.863V305.896V305.963L645.088 305.997ZM641.137 304.758C643.146 304.758 644.519 304.858 645.021 305.361C645.021 304.858 645.055 303.92 645.122 302.146C645.189 300.069 645.289 296.821 645.423 293.17C645.691 286.774 646.127 277.966 646.796 272.373C647.567 265.842 652.155 239.419 652.188 239.352C652.222 239.252 652.222 239.118 652.222 239.017C652.222 238.984 652.389 237.711 651.451 236.606C650.48 235.467 648.739 234.864 646.294 234.831C639.73 234.73 636.749 237.811 636.515 238.649C636.448 238.85 631.357 259.245 630.487 270.832C630.42 271.904 630.219 273.713 629.984 276.023C629.08 285.066 627.205 303.887 629.08 304.222C632.764 304.858 636.448 304.825 639.429 304.791C640.031 304.758 640.601 304.758 641.137 304.758Z" fill="#D1A586"/>
<path d="M648.806 307.102H579.047C579.047 307.102 580.688 300.605 621.077 301.576C649.677 302.279 648.806 307.102 648.806 307.102Z" fill="#E5BD9E"/>
<path d="M654.5 374.852C646.395 334.463 648.505 309.681 648.505 309.346C648.538 308.71 647.366 308.174 646.73 308.14C646.094 308.14 643.314 307.973 642.979 308.475C642.544 309.178 640.936 339.721 652.993 374.818H654.5V374.852Z" fill="#D1A586"/>
<path d="M589.362 374.852C597.467 334.463 595.357 309.681 595.357 309.346C595.324 308.71 596.496 308.174 597.132 308.14C597.768 308.14 600.548 307.973 600.883 308.475C601.318 309.178 602.926 339.721 590.869 374.818H589.362V374.852Z" fill="#D1A586"/>
<path d="M576.435 374.852C584.539 334.463 582.429 309.681 582.429 309.346C582.396 308.71 583.568 308.174 584.204 308.14C584.841 308.14 587.62 307.973 587.955 308.475C588.391 309.178 589.998 339.721 577.942 374.818H576.435V374.852Z" fill="#A0795F"/>
<path d="M641.505 374.852C633.401 334.463 635.511 309.681 635.511 309.346C635.544 308.71 634.372 308.174 633.736 308.14C633.1 308.14 630.32 307.973 629.985 308.475C629.55 309.178 627.942 339.721 639.998 374.818H641.505V374.852Z" fill="#A0795F"/>
<path d="M578.98 309.178H648.773C649.543 309.178 650.179 308.542 650.179 307.772V306.868C650.179 306.097 649.543 305.461 648.773 305.461H578.98C578.21 305.461 577.573 306.097 577.573 306.868V307.772C577.573 308.542 578.21 309.178 578.98 309.178Z" fill="#D1A586"/>
<path d="M365.717 286.439C366.219 273.78 367.358 262.761 368.664 255.059C370.774 242.801 372.683 235.769 372.716 235.702C372.984 234.63 377.036 230.276 385.978 230.41C394.953 230.544 394.083 236.271 394.083 236.271C394.083 236.472 394.049 236.639 394.016 236.773C393.915 237.075 385.71 266.881 386.045 305.394C386.045 305.93 386.112 306.868 386.078 307.504C386.078 307.504 365.315 308.04 365.315 307.504C364.611 304.121 364.946 294.811 365.717 286.439Z" fill="#D1A586"/>
<path d="M363.105 305.193C363.105 305.729 363.406 306.164 363.741 306.164C364.076 306.164 364.377 305.729 364.377 305.193H382.16C382.16 305.729 382.462 306.164 382.797 306.164C383.132 306.164 383.433 305.729 383.433 305.16C383.332 294.141 383.969 283.827 384.907 274.751C387.284 252.078 391.638 236.941 391.705 236.74C391.738 236.606 391.772 236.438 391.772 236.237C391.772 236.237 392.609 230.511 383.667 230.377C374.692 230.243 370.673 234.596 370.405 235.668C370.405 235.735 369.3 239.72 367.86 246.887C367.391 249.265 366.855 251.978 366.353 255.025C365.014 262.694 363.908 273.713 363.406 286.405C362.636 294.811 362.368 301.844 363.105 305.193Z" fill="#E5BD9E"/>
<path d="M363.105 305.193C363.105 305.729 363.406 306.164 363.741 306.164C364.076 306.164 364.377 305.729 364.377 305.193H382.16C382.16 305.729 382.462 306.164 382.797 306.164C383.132 306.164 383.433 305.729 383.433 305.16C383.332 294.141 383.969 283.827 384.906 274.751C381.959 260.384 370.606 249.366 367.86 246.887C367.391 249.265 366.855 251.978 366.353 255.025C365.014 262.694 363.908 273.713 363.406 286.405C362.636 294.811 362.368 301.844 363.105 305.193Z" fill="#DFB697"/>
<path d="M381.055 305.026L381.022 304.992C381.022 304.992 380.988 304.959 380.988 304.892C380.988 304.724 380.955 304.624 380.854 304.523C380.285 303.954 378.141 303.954 375.395 303.988C372.415 304.021 368.697 304.054 365.013 303.418C363.105 303.083 364.377 288.381 365.75 274.617C365.985 272.273 366.152 270.431 366.253 269.325C367.123 257.671 372.247 236.84 372.281 236.673C372.515 235.802 375.596 232.554 382.261 232.654C384.772 232.688 386.547 233.324 387.552 234.496C388.59 235.702 388.389 237.075 388.389 237.108C388.389 237.242 388.389 237.376 388.322 237.51C388.289 237.611 383.701 264.503 382.931 270.966C381.691 281.583 381.189 303.619 381.189 304.825V304.858V304.925L381.055 305.026ZM377.07 303.787C379.046 303.787 380.452 303.887 380.955 304.389C380.955 303.887 380.988 302.949 381.055 301.141C381.122 299.031 381.223 295.749 381.357 292.032C381.624 285.535 382.06 276.626 382.73 270.933C383.5 264.335 388.088 237.544 388.121 237.443C388.155 237.343 388.155 237.209 388.155 237.108C388.155 237.075 388.322 235.769 387.351 234.63C386.38 233.491 384.672 232.888 382.227 232.855C382.127 232.855 382.026 232.855 381.926 232.855C375.596 232.855 372.683 235.903 372.448 236.706C372.381 236.907 367.291 257.604 366.42 269.325H366.32H366.42C366.353 270.431 366.152 272.273 365.918 274.617C365.013 283.793 363.138 302.882 365.013 303.217C368.697 303.854 372.381 303.82 375.362 303.787C375.965 303.787 376.534 303.787 377.07 303.787Z" fill="#D1A586"/>
<path d="M384.739 306.164H314.98C314.98 306.164 316.621 299.6 357.01 300.572C385.61 301.275 384.739 306.164 384.739 306.164Z" fill="#E5BD9E"/>
<path d="M390.432 374.852C382.328 333.894 384.438 308.777 384.438 308.442C384.471 307.805 383.299 307.236 382.663 307.203C382.026 307.203 379.247 307.002 378.912 307.571C378.476 308.274 376.869 339.252 388.925 374.852H390.432Z" fill="#D1A586"/>
<path d="M325.294 374.852C333.399 333.894 331.289 308.777 331.289 308.442C331.256 307.805 332.428 307.236 333.064 307.203C333.7 307.203 336.48 307.002 336.815 307.571C337.25 308.274 338.858 339.252 326.801 374.852H325.294Z" fill="#D1A586"/>
<path d="M312.368 374.852C320.472 333.894 318.362 308.777 318.362 308.442C318.329 307.805 319.501 307.236 320.137 307.203C320.774 307.203 323.553 307.002 323.888 307.571C324.324 308.274 325.931 339.252 313.875 374.852H312.368Z" fill="#A0795F"/>
<path d="M377.438 374.852C369.334 333.894 371.41 308.777 371.443 308.442C371.477 307.805 370.305 307.236 369.668 307.203C369.032 307.203 366.253 307.002 365.918 307.571C365.482 308.274 363.875 339.252 375.931 374.852H377.438Z" fill="#A0795F"/>
<path d="M314.946 308.274H384.706C385.476 308.274 386.146 307.638 386.146 306.834V305.896C386.146 305.126 385.51 304.456 384.706 304.456H314.946C314.176 304.456 313.506 305.093 313.506 305.896V306.834C313.506 307.638 314.143 308.274 314.946 308.274Z" fill="#D1A586"/>
<path d="M411.263 253.217C411.263 253.217 417.023 255.561 421.143 249.667C421.109 249.667 414.478 248.528 411.263 253.217Z" fill="#6BB7BF"/>
<path d="M410.861 250.806C410.861 250.806 410.46 248.729 408.048 248.662C408.015 248.662 408.952 250.739 410.861 250.806Z" fill="#6BB7BF"/>
<path d="M412.067 238.749C412.067 238.749 414.847 239.051 415.918 235.969C415.918 235.969 412.871 236.304 412.067 238.749Z" fill="#6BB7BF"/>
<path d="M418.698 198.226C413.072 197.021 412.971 192.399 412.971 192.399C419.602 194.509 418.698 198.226 418.698 198.226Z" fill="#6BB7BF"/>
<path d="M419.1 197.188C419.1 197.188 422.617 198.628 425.128 195.011C425.095 195.011 421.043 194.342 419.1 197.188Z" fill="#6BB7BF"/>
<path d="M411.364 266.747L410.627 267.584C410.526 267.718 410.292 267.617 410.292 267.45C410.325 243.706 413.34 222.607 415.885 210.149C418.664 196.552 421.444 188.514 421.478 188.447C421.444 188.514 418.932 196.686 416.153 210.249C413.607 222.708 410.727 239.017 411.464 266.412C411.498 266.546 411.431 266.646 411.364 266.747Z" fill="#6BB7BF"/>
<path d="M421.444 185.232C420.54 185.969 417.09 189.05 420.439 191.428C420.439 191.428 422.985 192.232 423.855 190.256C424.492 188.749 424.693 187.074 424.726 186.371C424.726 186.17 424.592 186.036 424.425 186.003C424.224 185.969 423.956 185.936 423.688 185.835C423.387 185.701 423.219 185.232 422.784 185.132C422.516 185.065 422.248 184.998 421.947 185.031C421.746 185.031 421.578 185.098 421.444 185.232Z" fill="#F99746"/>
<path d="M419.535 190.557C419.535 190.557 420.54 191.361 420.171 192.667V193.136C420.171 193.136 420.439 191.93 421.679 191.562C421.679 191.562 420.573 191.696 419.535 190.557Z" fill="#6BB7BF"/>
<path d="M418.698 198.226C413.072 197.021 412.971 192.399 412.971 192.399C412.971 192.399 417.425 194.877 418.698 198.226Z" fill="#8AD8DB"/>
<path d="M413.273 195.078C413.273 195.078 409.723 196.452 407.312 192.801C407.312 192.801 411.364 192.198 413.273 195.078Z" fill="#6BB7BF"/>
<path d="M419.602 264.771L420.305 265.608C420.406 265.742 420.64 265.675 420.64 265.508C421.076 241.763 418.497 220.598 416.186 208.106C413.708 194.476 411.062 186.371 411.029 186.304C411.062 186.371 413.407 194.61 415.918 208.206C418.196 220.732 420.774 237.075 419.502 264.469C419.502 264.57 419.535 264.67 419.602 264.771Z" fill="#6BB7BF"/>
<path d="M411.163 183.056C412.033 183.792 415.416 186.94 412.033 189.251C412.033 189.251 409.455 190.021 408.651 188.012C408.048 186.505 407.881 184.797 407.847 184.094C407.847 183.893 407.981 183.759 408.182 183.725C408.383 183.725 408.651 183.658 408.919 183.591C409.254 183.491 409.421 182.989 409.823 182.888C410.091 182.821 410.359 182.788 410.694 182.821C410.861 182.888 411.029 182.955 411.163 183.056Z" fill="#F99746"/>
<path d="M412.971 188.414C412.971 188.414 411.933 189.218 412.301 190.524V190.993C412.301 190.993 412.067 189.787 410.794 189.385C410.794 189.419 411.9 189.553 412.971 188.414Z" fill="#6BB7BF"/>
<path d="M414.78 190.926C414.78 190.926 418.531 191.562 420.172 187.51C420.205 187.51 416.086 187.711 414.78 190.926Z" fill="#6BB7BF"/>
<path d="M422.416 260.484L421.88 261.455C421.813 261.589 421.578 261.556 421.545 261.422C416.421 238.247 414.746 216.981 414.512 204.288C414.244 190.423 415.215 181.984 415.249 181.883C415.249 181.95 414.546 190.49 414.813 204.322C415.048 217.048 415.785 233.592 422.483 260.149C422.483 260.25 422.483 260.384 422.416 260.484Z" fill="#6BB7BF"/>
<path d="M414.478 178.735C413.742 179.64 411.062 183.39 414.847 184.998C414.847 184.998 417.526 185.232 417.928 183.123C418.229 181.515 418.028 179.841 417.928 179.137C417.894 178.97 417.727 178.836 417.559 178.869C417.359 178.903 417.091 178.903 416.823 178.869C416.488 178.802 416.22 178.4 415.784 178.367C415.517 178.367 415.215 178.367 414.947 178.467C414.746 178.467 414.612 178.601 414.478 178.735Z" fill="#F99746"/>
<path d="M413.775 184.328C413.775 184.328 414.947 184.898 414.88 186.271L414.981 186.739C414.981 186.739 414.981 185.5 416.119 184.864C416.119 184.864 415.048 185.232 413.775 184.328Z" fill="#6BB7BF"/>
<path d="M417.861 186.739C417.861 186.739 417.861 183.759 420.406 182.855C420.44 182.855 421.009 185.333 417.861 186.739Z" fill="#6BB7BF"/>
<path d="M411.866 181.984C411.866 181.984 411.933 179.707 409.857 179.07C409.857 179.07 409.355 181.18 411.866 181.984Z" fill="#ED9F4A"/>
<path d="M418.732 195.581C418.799 195.648 419.837 193.37 417.76 191.562C417.76 191.562 416.89 194.007 418.732 195.581Z" fill="#ED9F4A"/>
<path d="M420.205 195.413C420.138 195.413 420.205 194.275 421.276 194.107C421.243 194.141 421.444 195.078 420.205 195.413Z" fill="#6BB7BF"/>
<path d="M409.488 191.562C409.488 191.562 408.584 189.687 405.67 190.021C405.67 190.021 406.106 192.031 409.488 191.562Z" fill="#6BB7BF"/>
<path d="M425.53 269.526H406.943C405.704 269.526 404.733 268.421 404.9 267.182L413.541 207.537C413.608 206.967 414.11 206.565 414.646 206.565H417.425C418.028 206.565 418.531 207.001 418.631 207.604L427.506 267.249C427.673 268.421 426.736 269.526 425.53 269.526Z" fill="#F99746"/>
<path d="M411.029 267.718L415.617 206.565C415.115 206.632 414.713 207.001 414.646 207.537L406.006 267.182C405.838 268.421 406.776 269.526 408.049 269.526H411.766C411.264 269.091 410.996 268.421 411.029 267.718Z" fill="#FFB278"/>
<path d="M593.381 262.996C593.381 262.996 580.622 277.564 578.009 277.33C575.33 277.095 573.723 276.258 571.379 277.33C569.704 278.1 564.446 282.353 565.853 282.052C567.259 281.784 569.838 281.449 570.508 281.382C571.445 281.281 572.919 281.281 573.957 281.08C574.594 280.98 576.904 280.913 577.675 280.879C581.024 280.779 596.898 271.502 596.898 271.502L593.381 262.996Z" fill="#FFB27D"/>
<path d="M572.417 247.457C571.915 247.155 570.91 247.256 570.207 247.423V246.385C570.207 246.15 570.207 245.916 570.173 245.715H559.456C559.423 245.95 559.423 246.15 559.423 246.385V248.495C559.423 251.475 561.868 253.887 564.815 253.887C566.422 253.887 567.862 253.183 568.867 252.045C568.867 252.045 571.412 251.408 572.216 250.471C572.986 249.499 573.254 247.959 572.417 247.457ZM571.848 249.399C571.58 250.102 570.374 250.471 569.771 250.605C570.006 250.069 570.173 249.466 570.207 248.83C570.575 248.327 571.178 248.026 571.58 248.093C571.948 248.16 572.182 248.495 571.848 249.399Z" fill="#C45446"/>
<path d="M560.26 246.351V248.461C560.26 251.442 562.705 253.853 565.652 253.853C565.886 253.853 566.154 253.82 566.389 253.786C563.743 253.418 561.7 251.174 561.7 248.428V246.318C561.7 246.084 561.7 245.849 561.733 245.648H560.293C560.293 245.916 560.26 246.15 560.26 246.351Z" fill="#E37970"/>
<path d="M566.991 253.418H562.57V254.088H566.991V253.418Z" fill="#C45446"/>
<path d="M602.223 189.017C602.223 189.017 602.792 181.716 613.308 183.591C616.088 184.094 617.996 179.137 622.551 180.912C632.364 184.73 632.933 179.707 635.78 186.739C636.952 189.687 644.52 193.136 642.21 198.226C639.899 203.317 643.75 206.766 641.037 210.752C639.631 212.828 640.2 216.512 633.603 216.646C630.321 216.713 625.163 222.808 621.479 223.913C617.796 225.018 606.677 223.411 607.112 218.354C607.447 214.402 602.826 214.737 599.979 210.182C597.501 206.197 601.921 205.192 599.544 198.762C597.869 194.107 602.39 192.969 602.223 189.017Z" fill="#1C468A"/>
<path d="M544.386 369.025C544.62 371.47 541.204 372.072 537.252 372.273C533.301 372.474 534.506 373.278 529.081 374.249C523.655 375.22 521.512 373.747 521.11 373.01C520.775 372.374 523.287 371.336 525.966 370.197C526.301 370.063 526.636 369.896 526.971 369.762C529.985 368.422 531.693 365.743 534.037 363.231C536.281 360.853 538.391 353.251 538.391 353.251L545.725 351.677C545.725 351.677 543.649 358.509 542.946 361.456C542.51 363.164 543.147 365.106 543.682 366.547C544.017 367.35 544.319 368.154 544.386 369.025Z" fill="#FFB27D"/>
<path d="M537.252 372.273C533.3 372.474 534.506 373.278 529.081 374.249C523.655 375.22 521.512 373.747 521.11 373.01C520.775 372.374 523.287 371.336 525.966 370.197L526 370.23C526 370.23 529.818 371.537 534.205 370.331C537.788 369.36 541.238 367.216 543.716 366.547C544.017 367.35 544.319 368.154 544.386 369.025C544.62 371.47 541.204 372.072 537.252 372.273Z" fill="#C65447"/>
<path d="M609.457 276.358C609.457 276.358 568.733 278.2 559.523 283.994C550.314 289.788 535.578 357.404 535.578 357.404C535.578 357.404 536.482 358.14 538.525 358.341C540.401 358.542 544.587 357.437 544.587 357.437C544.587 357.437 565.786 327.196 567.26 319.56C568.767 311.925 568.398 305.16 571.781 304.959C575.197 304.791 617.561 310.116 623.958 298.83C630.388 287.544 609.457 276.358 609.457 276.358Z" fill="#163560"/>
<path d="M561.197 369.293C561.432 371.737 558.016 372.34 554.064 372.541C550.112 372.742 551.318 373.546 545.892 374.517C540.5 375.488 538.324 374.015 537.922 373.278C537.587 372.642 540.099 371.603 542.778 370.465C543.113 370.331 543.448 370.163 543.782 370.029C546.797 368.69 548.505 366.011 550.849 363.499C553.093 361.121 555.203 353.519 555.203 353.519L562.537 351.945C562.537 351.945 560.46 358.777 559.757 361.724C559.322 363.432 559.958 365.374 560.494 366.814C560.795 367.618 561.097 368.455 561.197 369.293Z" fill="#FFB27D"/>
<path d="M554.064 372.541C550.112 372.742 551.318 373.546 545.892 374.517C540.5 375.488 538.324 374.015 537.922 373.278C537.587 372.642 540.099 371.603 542.778 370.465L542.811 370.498C542.811 370.498 546.629 371.804 551.016 370.599C554.6 369.628 558.049 367.484 560.527 366.814C560.829 367.618 561.13 368.422 561.197 369.293C561.398 371.737 558.016 372.34 554.064 372.541Z" fill="#C65447"/>
<path d="M625.263 277.329C625.263 277.329 581.894 279.372 572.919 285.534C563.943 291.697 551.854 359.815 551.854 359.815C551.854 359.815 552.791 360.518 554.834 360.652C556.743 360.786 560.862 359.514 560.862 359.514C560.862 359.514 580.856 328.469 582.061 320.799C583.267 313.13 582.631 306.365 586.013 306.03C589.396 305.729 631.961 309.379 637.922 297.859C643.85 286.338 625.263 277.329 625.263 277.329Z" fill="#1C468A"/>
<path d="M638.224 221.904C638.224 221.87 638.191 221.87 638.157 221.837C637.822 221.435 637.387 221.1 636.951 220.765C633.402 218.287 627.072 217.751 627.072 217.751C627.072 217.751 626.369 217.684 625.297 217.651C624.46 215.507 623.522 212.326 623.221 207.671L622.584 207.838L612.035 210.685C612.035 210.685 612.504 214.034 612.705 217.215C612.738 217.919 612.772 218.588 612.805 219.225C612.504 219.325 605.94 220.263 604.5 221.803C603.06 223.344 600.213 233.558 599.51 235.367L640.166 236.036C640.166 236.003 641.171 225.387 638.224 221.904Z" fill="#FFB27D"/>
<path d="M639.731 294.577C634.909 295.046 618.7 285.233 613.308 282.052C613.207 281.985 613.107 281.951 613.04 281.884C610.796 280.578 607.614 279.942 604.6 279.439C600.749 278.803 597.199 278.401 596.027 277.028C594.654 275.387 598.673 273.579 601.888 271.703C603.495 270.765 604.935 269.794 605.371 268.823C605.706 268.053 605.672 266.412 605.471 264.268C605.438 263.867 605.371 263.465 605.337 263.029C605.069 263.565 604.734 264.135 604.366 264.704C603.428 266.11 602.156 267.55 600.917 268.723C599.376 270.163 597.869 271.268 596.931 271.469C596.295 271.636 595.659 271.536 595.022 271.301C593.348 270.632 591.707 268.79 590.401 266.981C590.099 266.546 589.798 266.144 589.53 265.742C588.659 264.402 588.023 263.297 587.789 263.029C587.052 262.226 590.702 260.652 592.176 259.479C593.649 258.307 599.476 235.3 599.476 235.3C600.213 233.491 603.06 223.277 604.466 221.736C604.466 221.736 610.026 228.535 617.26 228.133C624.426 227.765 636.717 220.832 636.918 220.732C637.554 221 638.191 221.87 638.191 221.87C641.138 225.353 640.1 235.97 640.1 235.97C640.1 235.97 634.473 260.752 634.473 263.23C634.473 267.818 638.258 278.368 640.066 285.936C641.272 290.792 641.64 294.409 639.731 294.577Z" fill="#6BB7BF"/>
<path d="M612.035 210.651C612.035 210.651 612.504 214 612.705 217.182C618.666 216.612 621.479 210.953 622.584 207.838L612.035 210.651Z" fill="#F4A269"/>
<path d="M610.227 213.799C610.227 213.799 624.393 213.096 623.824 204.255C623.255 195.447 624.695 189.385 615.619 189.486C606.543 189.553 605.003 193.036 604.467 196.05C603.964 199.03 606.543 213.732 610.227 213.799Z" fill="#FFB27D"/>
<path d="M609.624 192.6C609.624 192.6 613.007 191.796 614.112 193.471C615.217 195.112 614.413 196.05 616.891 196.719C619.37 197.423 620.207 197.356 619.972 199.097C619.738 200.839 622.451 202.111 622.585 203.484C622.685 204.857 623.824 205.561 624.929 205.661C626.001 205.762 625.532 187.811 621.312 187.007C617.126 186.204 613.04 187.141 611.834 188.146C610.595 189.184 609.624 192.6 609.624 192.6Z" fill="#1C468A"/>
<path d="M609.624 192.6C609.624 192.6 606.342 192.366 605.739 194.241C605.137 196.117 605.94 196.552 605.103 197.691C604.266 198.829 604.735 200.839 604.735 200.839C604.735 200.839 598.204 188.849 605.103 188.046C611.969 187.309 611.801 188.682 609.624 192.6Z" fill="#1C468A"/>
<path d="M605.337 260.25C604.399 263.063 602.725 266.177 600.95 268.79C599.409 270.23 597.902 271.335 596.965 271.536C596.328 271.703 595.692 271.603 595.056 271.368C593.381 270.699 591.74 268.857 590.434 267.048C590.133 266.613 589.831 266.211 589.563 265.809C594.051 262.192 602.591 253.92 603.495 242.601C604.701 227.128 605.404 260.953 605.337 260.25Z" fill="#599DAD"/>
<path d="M595.021 271.335C596.596 268.924 599.777 266.579 604.365 264.704C602.255 267.852 598.638 271.067 596.93 271.502C596.294 271.67 595.658 271.603 595.021 271.335Z" fill="#599DAD"/>
<path d="M632.497 241.596C632.497 241.596 628.947 277.162 613.274 282.052C613.174 281.985 613.073 281.951 613.006 281.884C610.762 280.578 607.581 279.942 604.567 279.439C600.716 278.803 597.166 278.401 595.993 277.028C594.62 275.387 598.639 273.579 601.854 271.703C603.462 270.765 604.902 269.794 605.337 268.823C605.672 268.053 605.639 266.412 605.438 264.268C620.709 258.676 632.497 241.596 632.497 241.596Z" fill="#599DAD"/>
<path d="M636.516 231.08C634.875 223.679 627.44 227.932 627.44 227.932C624.861 227.329 605.906 258.039 604.399 258.743C603.127 259.346 585.645 254.255 580.353 252.715C578.98 251.643 574.191 247.892 573.321 247.858C572.349 247.791 565.752 249.466 565.819 250.504C565.852 251.542 567.393 253.083 569.838 253.451C571.68 253.753 574.794 254.958 576.77 255.26C576.77 255.26 596.027 268.388 604.232 269.995C611.6 271.402 638.157 238.481 636.516 231.08Z" fill="#FFB27D"/>
<path d="M592.812 256.164C592.812 256.164 588.358 267.584 593.683 271.904C599.008 276.258 610.562 274.784 623.221 257.135C635.88 239.486 641.004 229.874 634.44 227.095C627.876 224.282 622.451 228.702 619.068 235.568C615.552 242.701 609.122 252.58 605.237 252.949C601.386 253.317 592.812 256.164 592.812 256.164Z" fill="#6BB7BF"/>
<path d="M481.458 148.896V150.604C481.458 150.604 480.989 155.996 487.62 156.766C494.251 157.57 499.71 157.436 499.509 153.283C498.906 150.068 497.835 145.078 497.801 142.399C497.801 141.394 497.868 140.356 498.036 139.184L485.175 138.916L481.391 139.519L481.458 148.896Z" fill="#FFB27D"/>
<path d="M481.391 139.552L481.425 148.862C482.798 149.499 484.338 149.901 486.046 149.901C491.94 149.901 495.792 145.58 497.768 142.432C497.768 141.428 497.835 140.39 498.002 139.217L485.142 138.949L481.391 139.552Z" fill="#E2915A"/>
<path d="M499.04 137.141C497.533 145.179 487.185 144.911 482.697 144.408C481.425 144.274 480.655 144.107 480.655 144.107C479.248 143.738 478.444 141.495 478.076 138.548C477.339 132.754 478.277 124.247 479.248 122.037C480.721 118.755 483.501 115.205 493.95 117.784C504.365 120.329 500.949 126.826 499.04 137.141Z" fill="#FFB27D"/>
<path d="M507.513 374.852H492.845C492.945 374.082 493.314 371.737 494.017 369.594C494.251 368.857 494.519 368.121 494.854 367.484C496.294 364.638 505.336 366.446 505.336 366.446C505.336 366.446 506.174 367.183 506.843 369.929C507.111 371.135 507.379 372.742 507.513 374.852Z" fill="#233862"/>
<path d="M463.139 370.23C463.106 372.24 462.838 374.115 462.134 374.852H433.099C433.467 373.814 434.505 372.206 437.486 371.737C440.868 371.202 446.16 369.561 449.241 366.312C450.346 365.14 451.15 363.8 451.518 362.193C452.891 356.098 462.804 364.068 462.804 364.068C462.804 364.068 463.206 367.25 463.139 370.23Z" fill="#233862"/>
<path d="M482.463 304.49C482.061 306.734 481.793 308.542 481.726 309.848C480.788 327.866 466.555 369.025 464.01 369.996C460.058 371.469 453.862 368.321 450.614 367.283C449.274 366.848 448.37 365.508 448.671 364.135C455.704 331.717 458.316 285.066 459.254 257.437C459.723 243.505 462.134 233.893 462.134 233.893C462.134 233.893 496.863 224.617 497.064 236.338C497.232 246.686 485.544 287.376 482.463 304.49Z" fill="#2B478B"/>
<path d="M482.462 304.49L459.254 257.403C459.723 243.471 462.134 233.86 462.134 233.86C462.134 233.86 496.863 224.583 497.064 236.304C497.231 246.686 485.543 287.376 482.462 304.49Z" fill="#233862"/>
<path d="M474.727 236.371L493.079 369.393C493.079 369.393 501.15 371.336 507.413 369.795C507.413 369.795 512.771 299.064 512.336 281.951C511.9 264.838 516.187 236.17 511.364 233.022C506.508 229.841 474.727 236.371 474.727 236.371Z" fill="#2B478B"/>
<path d="M476.032 114.401C476.032 114.401 480.62 114.033 486.046 111.689C490.433 109.78 495.992 111.89 497.801 112.827C497.767 112.526 497.633 112.158 497.365 111.756C497.365 111.756 498.169 112.325 498.303 113.129C498.37 113.196 498.437 113.229 498.404 113.263C498.404 113.263 499.308 113.095 499.911 113.363C499.911 113.363 499.509 113.296 499.341 113.564C499.341 113.598 499.308 113.631 499.274 113.631C506.14 116.947 506.776 127.797 504.566 130.276C501.92 133.29 498.738 140.088 498.738 140.088C498.738 140.088 497.566 138.481 498.069 135.835C498.538 133.189 496.26 133.189 493.347 131.984C490.467 130.778 492.878 127.395 490.333 125.353C487.787 123.31 478.511 124.515 478.611 122.941C475.128 121.669 476.032 114.77 476.032 114.401Z" fill="#233862"/>
<path d="M501.083 155.627L496.863 246.284C496.863 246.284 461.598 246.854 462.603 238.883C463.608 230.913 475.329 158.407 475.329 158.407L501.083 155.627Z" fill="#E9F3FE"/>
<path d="M513.675 207.001C511.565 213.297 515.517 234.429 516.957 241.562C517.259 243.069 517.459 243.974 517.459 243.974C512.57 251.911 494.686 251.81 494.686 251.81C491.237 236.606 489.462 212.393 489.462 212.393L503.193 152.245L520.474 168.22C520.474 168.22 519.167 177.965 517.56 187.845C516.254 195.681 514.814 203.685 513.675 207.001Z" fill="#22407A"/>
<path d="M484.338 138.447C484.338 138.447 484.004 139.485 481.391 139.117C481.391 139.117 479.181 138.815 479.348 137.643C479.348 137.643 481.559 136.974 484.338 138.447Z" fill="white"/>
<path d="M464.512 156.9C464.512 156.9 464.512 156.9 464.512 156.933C463.675 157.737 440.131 180.611 435.577 189.553C430.922 198.628 456.809 216.713 456.809 216.713C456.809 216.713 458.484 217.383 459.622 217.115C458.417 227.162 457.044 236.438 457.848 240.39C459.321 247.524 465.919 249.935 465.919 249.399C465.919 249.232 468.33 223.411 469.636 209.948C472.449 181.08 479.515 152.412 479.515 152.412C471.813 153.216 464.512 156.9 464.512 156.9ZM450.48 193.504C450.446 193.471 450.446 193.404 450.446 193.37C450.446 192.064 455.436 189.184 460.828 185.768C460.895 185.701 460.929 185.668 460.929 185.668C460.828 188.447 460.828 191.194 460.996 193.705C461.297 198.427 460.962 204.054 460.393 209.78C457.848 205.762 450.982 194.978 450.48 193.504Z" fill="#22407A"/>
<path d="M502.088 152.144C502.121 151.274 498.036 150.068 498.036 150.068C498.036 150.068 493.347 156.565 485.611 156.699C485.611 156.699 487.821 160.986 490.4 162.091C490.4 162.091 501.82 157.268 502.088 152.144Z" fill="#D9E9F9"/>
<path d="M485.611 156.532C485.611 156.532 481.525 154.12 481.491 151.475C481.491 151.475 478.846 151.14 477.707 152.412C477.707 152.412 476.736 156.934 478.008 159.546C478.008 159.579 483.903 158.675 485.611 156.532Z" fill="#D9E9F9"/>
<path d="M488.39 156.163L482.831 154.824C482.831 154.824 482.094 154.891 482.128 155.795C482.161 156.699 483.702 159.345 484.371 159.546C485.075 159.747 489.696 157.972 488.39 156.163Z" fill="#BA4C43"/>
<path d="M501.452 151.709C501.485 150.838 498.705 149.063 498.705 149.063C498.705 149.063 493.347 155.326 485.611 155.46C485.611 155.46 487.821 159.747 490.4 160.852C490.4 160.818 501.184 156.833 501.452 151.709Z" fill="#E9F3FE"/>
<path d="M485.61 155.426C485.61 155.426 481.458 153.216 481.458 150.604C481.458 150.604 478.946 151.709 477.807 152.982C477.807 152.982 476.736 155.828 478.042 158.441C478.008 158.441 483.902 157.57 485.61 155.426Z" fill="#E9F3FE"/>
<path d="M474.76 217.985C474.961 220.095 475.932 222.071 477.472 223.511L479.917 225.789C480.52 226.358 481.491 226.291 482.027 225.621L485.075 221.736C485.878 220.698 486.28 219.392 486.146 218.086C485.845 215.172 485.343 209.513 484.907 204.087C484.572 199.667 484.271 195.38 484.271 192.801C484.204 184.462 485.845 157.938 485.845 157.938L483.836 158.039C483.836 158.039 478.879 168.354 476.3 182.352C475.664 185.802 475.162 189.486 474.927 193.27C474.961 193.236 473.889 208.407 474.76 217.985Z" fill="#C65447"/>
<path d="M474.76 217.985C474.961 220.095 475.932 222.071 477.472 223.511L479.917 225.789C480.52 226.358 481.491 226.291 482.027 225.621L485.075 221.736C485.878 220.698 486.28 219.392 486.146 218.086C485.845 215.172 485.343 209.513 484.907 204.087C479.381 197.892 477.171 189.318 476.3 182.352C475.664 185.802 475.162 189.486 474.927 193.27C474.961 193.236 473.889 208.407 474.76 217.985Z" fill="#BA4C43"/>
<path d="M455.135 218.22C455.135 215.909 457.178 214.067 459.455 214.402C460.091 214.503 460.661 214.77 461.062 215.273C462.636 217.349 464.143 223.444 461.33 223.746C460.192 223.846 458.752 223.076 457.613 222.205C456.474 221.334 455.135 219.995 455.135 218.555V218.22Z" fill="#FFB27D"/>
<path d="M516.957 241.596C511.9 236.338 503.159 225.99 503.461 217.483C503.863 205.594 517.526 187.878 517.526 187.878C516.254 195.715 514.814 203.685 513.675 207.034C511.565 213.297 515.551 234.429 516.957 241.596Z" fill="#233862"/>
<path d="M516.79 220.866C516.79 220.866 513.139 222.674 510.962 221.77C508.752 220.866 506.173 220.162 503.695 222.975C501.217 225.789 500.715 227.731 501.217 228.769C501.753 229.807 507.48 229.406 508.451 228.769C509.388 228.133 510.929 226.525 511.867 226.793C514.512 227.564 516.723 225.554 517.962 223.947C518.699 223.009 516.689 222.54 516.79 220.866Z" fill="#FFB27D"/>
<path d="M503.193 152.245C503.193 152.245 517.661 153.852 521.077 160.149C524.492 166.445 542.242 191.997 541.673 202.614C541.103 213.23 517.46 225.152 517.46 225.152C517.46 225.152 512.235 222.942 512.135 220.564C512.068 218.186 528.478 203.953 527.473 201.308C526.468 198.662 508.384 177.664 506.642 170.731C504.901 163.799 503.193 152.245 503.193 152.245Z" fill="#22407A"/>
<path d="M460.929 185.634C460.929 185.634 460.895 185.668 460.828 185.735C455.436 189.151 450.446 192.031 450.446 193.337C449.71 191.026 456.743 181.415 459.02 179.439C461.331 177.463 460.929 185.634 460.929 185.634Z" fill="#233862"/>
<path d="M498.705 149.03C498.705 149.03 487.721 195.078 489.462 212.393C489.462 212.393 493.514 193.873 503.226 178.668C503.226 178.668 499.676 175.554 499.877 174.382C499.877 174.382 502.523 173.611 505.068 174.114C505.068 174.114 504.8 154.254 503.193 152.178C501.585 150.135 498.705 149.03 498.705 149.03Z" fill="#233862"/>
<path d="M481.458 150.604C481.692 150.47 470.573 195.581 469.636 209.981C469.636 209.981 470.741 184.328 470.64 176.927C470.64 176.927 475.195 174.516 475.195 173.678C475.195 172.841 470.339 170.53 470.339 170.53C470.339 170.53 473.42 154.723 475.095 152.982C476.769 151.24 481.458 150.604 481.458 150.604Z" fill="#233862"/>
<path d="M338.49 350.003C339.059 350.672 339.159 351.409 338.858 352.213C338.322 353.686 336.581 355.327 334.538 356.968C334.27 357.169 334.036 357.37 333.835 357.538C333.768 357.571 333.734 357.638 333.667 357.672C333.634 357.705 333.6 357.739 333.533 357.772C331.624 359.514 332.361 359.916 328.945 363.499C325.06 367.551 322.348 367.618 321.611 367.25C320.974 366.948 322.281 364.772 323.721 362.36C323.788 362.26 323.855 362.126 323.922 361.992C324.123 361.657 324.323 361.356 324.491 361.021C326.199 358.107 325.764 356.734 325.362 352.414C325.027 348.897 319.903 332.755 319.903 332.755L327.371 331.483C327.371 331.483 329.615 344.343 332.093 346.319C333.433 347.357 334.906 347.39 336.179 348.161C336.279 348.228 336.346 348.261 336.447 348.328C337.15 348.864 337.887 349.366 338.49 350.003Z" fill="#FFB27D"/>
<path d="M338.49 350.003C339.059 350.672 339.16 351.409 338.858 352.213C338.222 353.686 336.481 355.327 334.538 356.935C334.27 357.136 334.069 357.337 333.835 357.538C333.768 357.571 333.735 357.638 333.668 357.672C333.634 357.705 333.601 357.739 333.534 357.772C331.625 359.514 332.361 359.916 328.945 363.499C325.061 367.551 322.348 367.618 321.611 367.25C320.975 366.948 322.281 364.772 323.721 362.36C324.491 362.092 328.008 360.652 330.653 357.236C332.998 354.256 334.572 350.404 336.179 348.161C336.28 348.228 336.347 348.261 336.447 348.328C337.15 348.864 337.887 349.366 338.49 350.003Z" fill="#C65447"/>
<path d="M278.242 345.347C277.773 347.658 274.491 347.256 270.807 346.386C267.123 345.481 267.994 346.553 262.769 345.984C257.545 345.414 255.971 343.472 255.803 342.668C255.669 341.965 258.248 341.731 261.028 341.429C261.363 341.396 261.731 341.362 262.066 341.295C265.18 340.893 267.491 338.884 270.338 337.243C273.017 335.669 277.036 329.272 277.036 329.272L284.203 329.842C284.203 329.842 280.452 335.568 278.978 338.047C278.108 339.52 278.175 341.429 278.275 342.936C278.375 343.706 278.409 344.544 278.242 345.347Z" fill="#FFB27D"/>
<path d="M270.84 346.386C267.157 345.481 268.027 346.553 262.803 345.984C257.579 345.414 256.004 343.472 255.837 342.668C255.703 341.965 258.282 341.731 261.061 341.429L261.095 341.496C261.095 341.496 264.243 343.706 268.563 343.807C272.113 343.907 275.864 342.869 278.309 342.903C278.376 343.706 278.409 344.544 278.242 345.347C277.773 347.658 274.491 347.29 270.84 346.386Z" fill="#C65447"/>
<path d="M294.183 240.089C294.183 240.089 292.475 235.903 290.599 235.735C288.724 235.568 282.729 234.63 282.327 235.467C281.892 236.304 282.327 239.386 283.6 240.491C284.873 241.596 292.81 243.404 292.81 243.404L294.183 240.089Z" fill="#FFB27D"/>
<path d="M305.703 299.533L321.142 341.094C321.142 341.094 323.52 341.329 325.797 340.659C327.873 340.056 330.285 338.482 330.285 338.482C330.285 338.482 326.467 298.562 319.434 290.257C312.401 281.985 305.703 299.533 305.703 299.533Z" fill="#AA413E"/>
<path d="M366.789 282.721C366.789 282.721 322.415 267.718 312.502 270.899C302.622 274.081 272.917 333.224 272.917 333.224C272.917 333.224 273.587 334.128 275.429 334.798C277.137 335.434 281.256 335.401 281.256 335.401C281.256 335.401 308.081 312.427 311.263 305.695C314.444 298.997 315.717 292.601 318.932 293.237C322.114 293.874 360.124 308.877 368.731 299.935C377.338 290.993 375.094 279.372 375.094 279.372L366.789 282.721Z" fill="#C65447"/>
<path d="M339.696 212.895C338.992 211.422 338.189 208.843 337.82 204.188C337.887 204.657 338.691 210.484 340.935 213.799C350.178 219.861 367.86 240.089 367.492 243.94C367.492 243.94 373.721 233.357 373.822 233.324C373.822 233.324 385.309 218.722 371.678 210.35C364.746 206.097 364.779 200.638 365.081 195.882C365.382 191.127 363.205 170.731 349.307 176.056C349.307 176.056 347.097 175.052 346.092 175.219C346.092 175.219 346.896 175.386 347.331 175.788C345.724 175.688 343.413 175.822 341.504 176.893C336.414 179.807 331.859 205.728 339.696 212.895Z" fill="#B5453C"/>
<path d="M341.437 214.134C341.403 214.168 345.891 216.478 349.273 215.574C352.455 214.704 354.531 210.584 354.498 210.551C353.158 210.283 352.756 208.441 352.79 200.47L352.187 200.604L341.939 202.647C341.939 202.647 342.174 205.862 342.174 208.91C342.174 211.422 342.04 213.866 341.437 214.134Z" fill="#FFB27D"/>
<path d="M341.939 202.614C341.939 202.614 342.174 205.829 342.174 208.876C347.901 208.709 350.948 203.484 352.187 200.571L341.939 202.614Z" fill="#ED975D"/>
<path d="M353.259 199.466C353.259 199.466 356.273 194.71 356.976 190.658C357.479 187.744 356.005 176.994 345.221 178.568C345.221 178.568 342.073 178.869 339.126 180.879C336.782 182.453 333.399 185.869 337.184 195.279L338.155 198.461L353.259 199.466Z" fill="#B5453C"/>
<path d="M340.03 205.494C340.03 205.494 353.594 205.728 353.627 197.255C353.627 188.782 355.402 183.123 346.728 182.62C338.055 182.118 336.38 185.333 335.677 188.18C334.974 190.993 336.481 205.226 340.03 205.494Z" fill="#FFB27D"/>
<path d="M340.533 182.419C340.533 182.419 344.25 192.332 349.943 193.806C355.637 195.279 358.115 193.739 358.115 193.739C358.115 193.739 353.728 190.256 352.823 184.194C352.823 184.194 343.312 177.697 340.533 182.419Z" fill="#B5453C"/>
<path d="M341.437 183.223C341.437 183.223 338.658 185.433 337.988 187.577C337.318 189.72 337.017 194.174 335.71 194.007C335.71 194.007 332.897 187.275 336.045 183.457C339.394 179.439 341.437 183.223 341.437 183.223Z" fill="#B5453C"/>
<path d="M377.204 282.956C376.468 284.999 374.224 285.501 371.21 285.166C365.483 284.496 356.943 280.645 350.814 277.966C341.437 273.914 337.184 277.731 334.203 275.153C331.223 272.574 337.619 266.814 332.06 240.156C330.185 231.114 342.073 211.723 342.073 211.723C342.073 211.723 343.112 217.349 354.465 210.584C354.867 210.35 359.354 216.981 363.674 225.152C368.43 234.161 372.985 245.079 371.645 250.672C369.133 261.355 379.348 277.028 377.204 282.956Z" fill="#699DEE"/>
<path d="M342.107 211.689L335.107 240.457C335.107 240.457 334.236 241.998 332.863 244.208C329.648 249.399 323.721 258.24 319.903 259.111C318.027 259.546 314.042 258.006 309.621 255.762C301.282 251.542 291.403 244.911 291.403 244.911C290.767 241.094 294.082 237.945 294.082 237.945C294.082 237.945 314.076 245.481 316.085 245.615C320.405 245.916 324.826 225.018 328.878 218.052C331.758 213.062 342.107 211.689 342.107 211.689Z" fill="#699DEE"/>
<path d="M343.045 200.37C343.045 200.37 342.777 201.441 340.131 201.274C340.131 201.274 337.887 201.14 337.954 199.968C337.921 199.934 340.097 199.097 343.045 200.37Z" fill="white"/>
<path d="M377.204 282.956C376.467 284.999 374.223 285.501 371.209 285.166C367.224 283.425 350.077 276.794 350.278 272.273C350.58 265.608 353.594 265.407 351.45 257.169C349.742 250.571 365.583 238.28 368.128 235.601C372.884 244.61 373.018 245.045 371.678 250.672C369.133 261.355 379.347 277.028 377.204 282.956Z" fill="#4A75CB"/>
<path d="M332.83 244.242C329.615 249.432 323.688 258.274 319.87 259.145C317.994 259.58 314.009 258.039 309.588 255.796C312.803 256.633 315.951 256.599 318.999 256.298C322.315 255.963 323.252 251.944 328.477 245.883C331.859 241.931 332.663 242.935 332.83 244.242Z" fill="#4A75CB"/>
<path d="M348.738 257.001C348.738 257.001 345.858 254.757 343.145 255.293C340.432 255.829 339.093 257.704 339.193 258.542C339.294 259.379 340.734 261.79 342.81 261.991C344.887 262.192 350.781 260.719 350.781 260.719L348.738 257.001Z" fill="#FFB27D"/>
<path d="M354.498 210.551C354.498 210.551 365.55 211.221 369.401 216.579C374.793 224.114 384.17 254.791 381.591 261.824L347.934 261.69C347.934 261.69 347.13 257.872 348.269 256.03C349.408 254.188 367.861 251.207 368.698 250.37C369.535 249.533 358.048 233.759 358.048 231.214C358.048 228.635 354.498 210.551 354.498 210.551Z" fill="#699DEE"/>
<path d="M345.858 269.56H305.101L297.733 243.94H338.457L345.858 269.56Z" fill="#1C468A"/>
<path d="M358.517 268.589H305.235V269.593H358.517V268.589Z" fill="#163560"/>
<path d="M318.028 256.331C317.76 255.427 318.296 254.69 319.2 254.69C320.104 254.69 321.042 255.427 321.31 256.331C321.577 257.236 321.042 257.972 320.137 257.972C319.233 257.972 318.296 257.236 318.028 256.331Z" fill="#163560"/>
<path d="M217.792 211.421C217.792 211.421 222.246 207.771 223.854 207.771C225.461 207.738 228.509 206.967 228.375 207.47C228.241 208.005 225.696 208.675 226.131 208.91C226.566 209.144 230.284 208.139 231.322 208.742C232.36 209.345 234.805 211.823 232.829 212.895C230.853 213.967 224.992 215.708 223.452 215.507C221.945 215.306 218.495 215.072 218.495 215.072L217.792 211.421Z" fill="#FFB27D"/>
<path d="M160.893 346.821L164.61 362.561L170.203 362.528L170.404 346.821H160.893Z" fill="#FFB27D"/>
<path d="M207.946 347.491L218.596 362.561L222.748 357.236L216.318 345.414L207.946 347.491Z" fill="#FFB27D"/>
<path d="M186.178 157.201C186.178 157.168 186.178 157.134 186.178 157.067C186.111 156.297 186.01 155.493 185.91 154.723C185.575 152.379 185.14 150.102 184.57 148.059C184.235 146.887 183.9 145.815 183.499 144.844C183.432 144.71 183.398 144.542 183.331 144.408C182.427 142.198 181.389 140.59 180.317 139.988C178.375 138.882 176.064 138.782 174.456 138.849C174.858 138.414 175.695 138.28 175.695 138.28C174.691 138.146 172.447 139.117 172.447 139.117C158.482 133.725 156.271 154.288 156.573 159.077C156.874 163.866 151.884 165.406 144.617 169.191C130.752 176.358 129.546 186.003 129.546 186.003C129.647 186.07 129.781 186.137 129.881 186.237C130.585 185.065 131.991 182.888 133.197 182.553C133.163 182.654 131.79 185.567 131.288 187.242C133.029 188.581 135.441 190.591 138.019 192.868C141.502 195.882 145.287 199.332 148.368 202.145C148.334 201.174 148.368 199.834 148.736 199.131L149.305 202.647L149.372 203.116C151.315 204.891 152.855 206.331 153.626 207.068C153.693 207.135 153.76 207.202 153.827 207.269C154.061 207.47 154.161 207.604 154.161 207.604C154.061 206.365 155.769 203.484 158.482 199.901C158.683 199.667 158.85 199.399 159.051 199.131C159.922 197.992 160.859 196.82 161.898 195.614C162.266 195.179 162.634 194.744 163.036 194.308C163.338 193.94 163.639 193.605 163.974 193.236C164.744 192.366 165.514 191.529 166.285 190.658C168.328 188.414 170.471 186.237 172.581 184.228C175.628 181.314 178.542 178.836 180.92 177.262C181.02 177.128 181.087 176.994 181.188 176.86C181.623 176.157 181.991 175.353 182.326 174.516C182.427 174.281 182.527 174.013 182.594 173.745C183.532 171.066 183.934 168.354 184.034 167.684C183.8 170.363 183.432 172.372 183.03 173.846C182.929 174.181 182.862 174.482 182.762 174.75C182.561 175.386 182.36 175.889 182.125 176.324C182.527 175.956 182.896 175.52 183.231 175.051C183.465 174.75 183.666 174.415 183.867 174.08C186.245 169.961 186.747 163.464 186.178 157.201Z" fill="#163560"/>
<path d="M180.384 177.496C180.417 177.53 175.896 179.874 172.48 178.936C169.265 178.066 167.189 173.913 167.222 173.879C168.595 173.611 168.964 171.736 168.93 163.732L169.533 163.866L179.848 165.909C179.848 165.909 179.613 169.157 179.613 172.205C179.613 174.784 179.781 177.228 180.384 177.496Z" fill="#FFB27D"/>
<path d="M168.696 143.404C168.696 143.404 173.786 137.978 180.183 143.136C180.183 143.102 176.465 142.466 168.696 143.404Z" fill="#E37970"/>
<path d="M179.881 165.909C179.881 165.909 179.647 169.157 179.647 172.205C173.853 172.037 170.806 166.779 169.566 163.832L179.881 165.909Z" fill="#ED975D"/>
<path d="M168.495 162.727C168.495 162.727 165.481 157.938 164.744 153.852C164.242 150.939 165.715 140.088 176.599 141.662C176.599 141.662 179.747 141.963 182.728 143.973C185.106 145.58 188.488 149.03 184.704 158.474L183.699 161.656L168.495 162.727Z" fill="#163560"/>
<path d="M221.04 353.117L215.582 353.285L209.654 353.452C209.654 353.452 195.956 338.214 188.287 313.767C188.12 313.197 187.919 312.628 187.718 312.059C183.532 299.801 174.791 284.429 170.203 270.498C169.466 268.287 168.83 266.177 168.227 264.202C168.026 263.565 167.858 262.962 167.691 262.326C164.309 250.571 163.337 242.868 162.433 234.596L195.588 234.864C195.555 234.898 200.913 291.194 221.04 353.117Z" fill="#2B478B"/>
<path d="M190.933 215.842C190.866 231.616 193.244 238.381 193.244 238.381C193.244 238.381 179.044 245.581 162.165 240.29C161.964 240.223 148.2 237.075 148.2 237.075C148.468 236.438 150.979 225.789 151.281 225.219C154.831 217.584 157.543 214.201 157.979 211.857C158.749 207.47 158.782 202.915 158.381 198.628C157.342 187.275 154.295 177.865 154.295 177.865C158.883 176.826 163.203 174.984 167.992 173.176C169.097 174.549 172.446 175.989 175.36 175.922C178.709 175.855 179.814 174.415 179.647 172.841C183.23 174.817 186.077 176.726 186.077 176.726C189.124 182.017 195.286 187.141 195.755 195.246C195.856 197.289 190.933 215.407 190.933 215.842Z" fill="#E7F1FD"/>
<path d="M181.824 168.822C181.824 168.822 168.16 169.057 168.127 160.517C168.127 152.01 166.352 146.284 175.092 145.781C183.833 145.279 185.508 148.528 186.211 151.374C186.881 154.221 185.374 168.521 181.824 168.822Z" fill="#FFB27D"/>
<path d="M181.288 145.58C181.288 145.58 177.537 155.56 171.81 157.067C166.05 158.541 163.572 157 163.572 157C163.572 157 167.992 153.484 168.897 147.389C168.897 147.389 178.475 140.825 181.288 145.58Z" fill="#163560"/>
<path d="M180.384 146.384C180.384 146.384 183.163 148.628 183.867 150.771C184.537 152.948 184.871 157.402 186.144 157.268C186.144 157.268 188.957 150.47 185.809 146.619C182.427 142.566 180.384 146.384 180.384 146.384Z" fill="#163560"/>
<path d="M164.442 361.657C164.442 361.657 164.878 364.772 163.739 368.121C163.739 368.121 162.835 372.307 166.92 372.374C171.04 372.441 172.044 372.072 171.576 369.494C171.107 366.948 170.236 362.494 170.236 362.494L164.442 361.657Z" fill="#FFB27D"/>
<path d="M172.112 374.852H163.103C162.735 373.01 163.538 369.058 163.672 368.288C163.672 368.221 163.706 368.188 163.706 368.154C163.706 368.121 163.706 368.121 163.706 368.121C168.361 372.374 171.275 368.02 171.275 368.02C171.275 368.02 171.275 368.02 171.275 368.054C171.978 369.695 172.112 374.216 172.112 374.852Z" fill="#C45446"/>
<path d="M232.628 369.929C232.628 369.929 225.059 361.523 222.715 357.236L217.088 360.116L229.681 371.938L232.628 371.537V369.929Z" fill="#FFB27D"/>
<path d="M237.451 374.852C237.451 374.852 228.073 374.852 227.906 374.852C226.499 374.852 225.394 372.541 223.854 369.494C223.251 368.255 221.844 367.585 220.438 367.216L220.471 374.852H218.261L216.251 366.781C214.912 364.303 216.151 362.092 217.089 360.116C218.194 360.116 221.141 360.853 226.734 367.183C228.576 369.259 230.619 369.996 232.628 369.929C232.661 369.962 232.695 369.962 232.728 369.962C237.384 372.072 237.451 374.852 237.451 374.852Z" fill="#C45446"/>
<path d="M215.581 353.285L209.654 353.452C209.654 353.452 195.956 338.214 188.287 313.766C188.12 313.197 187.919 312.628 187.718 312.058C183.532 299.801 174.791 284.429 170.203 270.498C169.466 268.287 168.83 266.177 168.227 264.201C168.026 263.565 167.858 262.962 167.691 262.326L172.58 258.609C172.58 258.609 187.249 282.353 191.77 304.691C195.688 324.115 211.496 347.457 215.581 353.285Z" fill="#233862"/>
<path d="M173.083 306.801C173.15 317.651 172.614 342.635 171.207 352.983H165.949C163.036 352.983 161.596 352.95 161.596 352.95C158.046 334.966 155.534 320.096 153.692 307.303C152.185 296.787 150.846 287.778 149.807 280.009C148.769 272.206 148.032 265.642 147.798 260.116C147.764 259.245 147.731 258.408 147.698 257.57C147.698 256.733 147.664 255.93 147.698 255.159L176.331 252.38C175.963 271.368 173.016 300.471 173.083 306.801Z" fill="#2B478B"/>
<path d="M165.95 352.983C163.036 352.983 161.596 352.95 161.596 352.95C158.046 334.966 155.534 320.096 153.693 307.303C152.186 296.787 150.846 287.778 149.808 280.009C148.77 272.206 148.033 265.642 147.798 260.116L158.314 266.311C158.314 266.311 151.616 268.689 154.161 286.606C156.707 304.49 162.4 350.438 165.95 352.983Z" fill="#233862"/>
<path d="M167.289 259.915C167.289 259.915 165.28 267.216 158.281 266.278C151.315 265.34 141.368 261.154 141.368 261.154C141.368 261.154 144.349 251.743 148.066 239.352C152.554 224.349 153.659 203.283 156.305 191.093C157.041 187.677 161.998 186.572 162.165 184.529L167.959 173.31C167.959 173.31 176.599 192.701 177.068 197.59C177.537 202.446 167.289 259.915 167.289 259.915Z" fill="#F99746"/>
<path d="M162.433 211.957C162.131 219.861 159.352 233.357 148.233 239.285C148.2 239.319 148.133 239.319 148.099 239.352C152.587 224.349 152.52 209.981 155.165 197.791C161.127 196.552 162.6 207.604 162.433 211.957Z" fill="#ED7D2B"/>
<path d="M234.637 207.202H223.921C223.921 207.269 223.921 207.47 223.887 207.738C223.854 208.709 223.787 210.618 223.787 210.785C223.921 213.062 225.528 214.302 227.035 214.904C227.035 214.904 227.035 214.904 227.069 214.904C227.437 215.038 227.805 215.139 228.14 215.206C228.408 215.273 228.643 215.306 228.877 215.306C229.011 215.306 229.178 215.34 229.279 215.34C230.049 215.34 230.819 215.172 231.489 214.871C233.365 214.034 234.704 212.125 234.704 209.948V207.838C234.671 207.671 234.671 207.436 234.637 207.202Z" fill="#C45446"/>
<path d="M233.767 207.202H232.326C232.36 207.436 232.36 207.637 232.36 207.872V209.981C232.36 211.455 231.757 212.795 230.819 213.766C230.351 214.235 229.781 214.636 229.145 214.904C228.81 215.038 228.475 215.172 228.14 215.239C228.006 215.273 227.839 215.306 227.671 215.306C227.906 215.34 228.14 215.373 228.408 215.373C228.576 215.373 228.71 215.373 228.877 215.34C229.48 215.306 230.083 215.139 230.618 214.904C231.623 214.469 232.46 213.699 233.03 212.761C233.264 212.393 233.432 211.991 233.566 211.555C233.733 211.053 233.8 210.517 233.8 209.948V207.838C233.8 207.671 233.8 207.436 233.767 207.202Z" fill="#E37970"/>
<path d="M227.076 215.585H231.497V214.915H227.076V215.585Z" fill="#C45446"/>
<path d="M150.209 229.506C150.209 229.506 155.199 228.434 156.472 229.841C157.745 231.281 158.481 233.525 157.209 234.329C155.936 235.132 152.219 232.955 150.879 233.826C149.908 234.463 149.606 236.07 148.669 235.501C147.698 234.931 146.693 231.281 146.693 231.281L150.209 229.506Z" fill="#FFB27D"/>
<path d="M167.959 173.277C167.959 173.277 154.496 173.879 151.281 176.86C148.033 179.874 128.675 203.082 128.374 209.144C128.039 215.239 145.353 232.52 145.353 232.52C145.353 232.52 150.142 231.348 152.252 228.334C152.252 228.334 141.535 209.211 142.172 208.374C142.808 207.537 160.993 192.667 162.467 195.949C163.706 198.829 167.959 173.277 167.959 173.277Z" fill="#F99746"/>
<path d="M219.165 209.446C219.165 209.446 203.793 214.57 201.884 214.134C199.975 213.699 197.229 192.902 195.722 185.735C193.813 176.559 186.546 174.717 186.546 174.717L179.647 172.875C179.647 172.875 187.551 192.433 187.785 196.385C188.019 200.336 188.723 261.053 188.723 261.053C188.723 261.053 188.254 263.833 193.612 262.694C198.971 261.522 200.344 260.384 200.344 260.384C200.344 260.384 198.033 243.404 196.928 228.334C202.387 227.396 219.902 218.521 219.902 218.521C222.648 214.235 219.165 209.446 219.165 209.446Z" fill="#F99746"/>
<path d="M262.099 275.019L259.286 290.859L251.55 334.664L244.651 373.814C244.551 374.417 244.015 374.852 243.412 374.852C242.876 374.852 242.441 374.383 242.508 373.847L248.469 329.473L254.832 281.985L255.803 274.818L262.099 275.019Z" fill="#C69D7F"/>
<path d="M292.709 275.019L289.896 290.859L282.16 334.664L275.261 373.814C275.161 374.417 274.625 374.852 274.022 374.852C273.486 374.852 273.051 374.383 273.118 373.847L279.079 329.473L285.442 281.985L286.413 274.818L292.709 275.019Z" fill="#C69D7F"/>
<path d="M259.319 290.859C259.688 284.061 254.865 281.985 254.865 281.985L255.836 274.818L262.132 274.985L259.319 290.859Z" fill="#A0795F"/>
<path d="M526.033 374.852C525.43 374.852 524.894 374.417 524.794 373.814L518.665 339.018L509.824 289.018L507.346 275.019L513.642 274.851L514.747 282.989L522.416 340.056L526.971 373.881C527.004 374.383 526.569 374.852 526.033 374.852Z" fill="#C69D7F"/>
<path d="M514.747 282.956C510.661 284.764 509.824 289.017 509.824 289.017L507.346 275.019L513.642 274.851L514.747 282.956Z" fill="#A0795F"/>
<path d="M561.298 374.852C560.695 374.852 560.159 374.417 560.059 373.814L553.93 339.018L545.089 289.018L542.61 275.019L548.906 274.851L550.012 282.989L557.681 340.056L562.235 373.881C562.269 374.383 561.834 374.852 561.298 374.852Z" fill="#C69D7F"/>
<path d="M549.978 282.956C545.893 284.764 545.055 289.017 545.055 289.017L542.577 275.019L548.873 274.851L549.978 282.956Z" fill="#A0795F"/>
<path d="M560.46 280.511H232.327C229.346 280.511 226.901 278.066 226.901 275.086V274.952C226.901 271.971 229.346 269.526 232.327 269.526H560.427C563.407 269.526 565.852 271.971 565.852 274.952V275.052C565.886 278.066 563.441 280.511 560.46 280.511Z" fill="#E0B594"/>
<path d="M297.532 262.895C297.029 262.594 296.025 262.694 295.321 262.862V261.824C295.321 261.589 295.321 261.355 295.288 261.154H284.571C284.538 261.388 284.538 261.589 284.538 261.824V263.934C284.538 266.914 286.982 269.325 289.929 269.325C291.537 269.325 292.977 268.622 293.982 267.484C293.982 267.484 296.527 266.847 297.331 265.91C298.101 264.972 298.369 263.431 297.532 262.895ZM296.962 264.838C296.694 265.541 295.489 265.91 294.886 266.043C295.12 265.508 295.288 264.905 295.321 264.269C295.69 263.766 296.293 263.465 296.694 263.532C297.063 263.632 297.297 263.967 296.962 264.838Z" fill="#C45446"/>
<path d="M285.375 261.824V263.934C285.375 266.914 287.82 269.325 290.767 269.325C291.001 269.325 291.269 269.292 291.504 269.259C288.858 268.89 286.815 266.646 286.815 263.9V261.79C286.815 261.556 286.815 261.321 286.849 261.12H285.442C285.408 261.388 285.375 261.589 285.375 261.824Z" fill="#E37970"/>
<path d="M292.106 268.857H287.686V269.526H292.106V268.857Z" fill="#C45446"/>
<path d="M449.877 262.895C449.375 262.594 448.37 262.694 447.667 262.862V261.824C447.667 261.589 447.667 261.355 447.633 261.154H436.916C436.883 261.388 436.883 261.589 436.883 261.824V263.934C436.883 266.914 439.328 269.325 442.275 269.325C443.882 269.325 445.322 268.622 446.327 267.484C446.327 267.484 448.872 266.847 449.676 265.91C450.48 264.972 450.714 263.431 449.877 262.895ZM449.308 264.838C449.04 265.541 447.834 265.91 447.231 266.043C447.466 265.508 447.633 264.905 447.667 264.269C448.035 263.766 448.638 263.465 449.04 263.532C449.408 263.632 449.642 263.967 449.308 264.838Z" fill="#C45446"/>
<path d="M437.72 261.824V263.934C437.72 266.914 440.165 269.325 443.112 269.325C443.347 269.325 443.614 269.292 443.849 269.259C441.203 268.89 439.16 266.646 439.16 263.9V261.79C439.16 261.556 439.16 261.321 439.194 261.12H437.754C437.754 261.388 437.72 261.589 437.72 261.824Z" fill="#E37970"/>
<path d="M444.485 268.857H440.064V269.526H444.485V268.857Z" fill="#C45446"/>
<path d="M51.5151 186.94V374.852H1.95012C1.95012 374.852 1.21335 367.551 0.978916 355.729C0.844957 348.864 0.911938 340.458 1.3808 331.081C1.41429 330.311 1.44777 329.54 1.51475 328.77C1.78267 324.483 2.11757 319.996 2.55294 315.374C2.58643 314.972 2.61992 314.537 2.6869 314.135C3.18925 309.312 3.79206 304.289 4.59582 299.098C5.23213 294.912 5.9689 290.625 6.80615 286.271C6.87313 285.97 6.94011 285.669 6.9736 285.367C7.40897 283.157 7.87782 280.913 8.38017 278.669C8.58111 277.798 8.78205 276.894 8.98299 276.023C9.38487 274.282 9.82024 272.54 10.2556 270.799C11.3273 266.546 12.5329 262.226 13.8725 257.905C14.0065 257.47 14.1404 257.035 14.2744 256.566C14.8772 254.657 15.5135 252.715 16.1833 250.806C17.188 247.858 18.2597 244.945 19.3983 241.998C20.1016 240.156 20.8384 238.314 21.6087 236.505C28.8425 219.158 38.5545 202.145 51.5151 186.94Z" fill="#D0E5F3"/>
</svg>
