<svg width="483" height="347" viewBox="0 0 483 347" fill="none" xmlns="http://www.w3.org/2000/svg">
<path d="M29.862 315.081C29.862 315.081 -1.29346 273.204 9.44533 217.398C20.9475 157.728 95.4721 149.575 132.359 92.0629C169.246 34.5511 230.768 12.3397 294.813 22.8187C373.529 35.7398 382.793 141.977 411.115 169.848C439.437 197.719 487.723 269.341 431.609 315.133L29.862 315.081Z" fill="#D0E5F3"/>
<path d="M429.771 315.727H31.1937C30.9278 315.728 30.6655 315.666 30.4291 315.544C30.1926 315.423 29.9889 315.246 29.8352 315.03L29.4082 314.435H432.32L431.44 315.133C430.971 315.521 430.38 315.732 429.771 315.727V315.727Z" fill="#A6AAAD"/>
<path d="M211.425 31.2174H6.46915C2.89634 31.2174 0 34.1099 0 37.678V339.076C0 342.644 2.89634 345.536 6.46915 345.536H211.425C214.998 345.536 217.894 342.644 217.894 339.076V37.678C217.894 34.1099 214.998 31.2174 211.425 31.2174Z" fill="#F0F0F0"/>
<path d="M131.906 84.827H11.2695V259.999H131.906V84.827Z" fill="white"/>
<path d="M211.425 31.2174H6.46915C4.75343 31.2174 3.10797 31.8981 1.89477 33.1097C0.681569 34.3212 0 35.9645 0 37.678L0 74.852H217.894V37.678C217.894 35.9645 217.212 34.3212 215.999 33.1097C214.786 31.8981 213.141 31.2174 211.425 31.2174V31.2174Z" fill="#FFA561"/>
<path d="M16.0952 52.0927V40.5007H22.4672C23.6432 40.5007 24.5372 40.7767 25.1492 41.3287C25.7612 41.8807 26.0672 42.6727 26.0672 43.7047C26.0672 44.3047 25.9532 44.8087 25.7252 45.2167C25.5092 45.6247 25.2212 45.9487 24.8612 46.1887C25.3532 46.3807 25.7432 46.6627 26.0312 47.0347C26.3312 47.3947 26.4812 47.9347 26.4812 48.6547C26.4812 49.7467 26.1452 50.5927 25.4732 51.1927C24.8012 51.7927 23.8472 52.0927 22.6112 52.0927H16.0952ZM19.3532 45.1267H21.5492C22.3772 45.1267 22.7912 44.7547 22.7912 44.0107C22.7912 43.6387 22.6892 43.3567 22.4852 43.1647C22.2932 42.9727 21.9512 42.8767 21.4592 42.8767H19.3532V45.1267ZM19.3532 49.7347H21.6932C22.1492 49.7347 22.4852 49.6387 22.7012 49.4467C22.9172 49.2547 23.0252 48.9367 23.0252 48.4927C23.0252 48.1207 22.9172 47.8387 22.7012 47.6467C22.4852 47.4547 22.1252 47.3587 21.6212 47.3587H19.3532V49.7347ZM27.7495 52.0927V40.5007H31.1335V49.5007H36.3535V52.0927H27.7495ZM42.6454 52.2727C40.7254 52.2727 39.2554 51.8047 38.2354 50.8687C37.2274 49.9327 36.7234 48.4207 36.7234 46.3327C36.7234 44.8927 36.9514 43.7347 37.4074 42.8587C37.8634 41.9707 38.5294 41.3287 39.4054 40.9327C40.2934 40.5247 41.3734 40.3207 42.6454 40.3207C43.9174 40.3207 44.9914 40.5247 45.8674 40.9327C46.7554 41.3287 47.4274 41.9707 47.8834 42.8587C48.3394 43.7347 48.5674 44.8927 48.5674 46.3327C48.5674 48.4207 48.0574 49.9327 47.0374 50.8687C46.0174 51.8047 44.5534 52.2727 42.6454 52.2727ZM42.6454 49.3927C43.5094 49.3927 44.1334 49.1527 44.5174 48.6727C44.9134 48.1807 45.1114 47.4007 45.1114 46.3327C45.1114 45.1927 44.9134 44.3887 44.5174 43.9207C44.1334 43.4407 43.5094 43.2007 42.6454 43.2007C41.7814 43.2007 41.1514 43.4407 40.7554 43.9207C40.3714 44.3887 40.1794 45.1927 40.1794 46.3327C40.1794 47.4007 40.3714 48.1807 40.7554 48.6727C41.1514 49.1527 41.7814 49.3927 42.6454 49.3927ZM55.8036 52.2727C53.7396 52.2727 52.1676 51.7687 51.0876 50.7607C50.0076 49.7407 49.4676 48.2887 49.4676 46.4047C49.4676 44.4607 50.0256 42.9607 51.1416 41.9047C52.2576 40.8487 53.8896 40.3207 56.0376 40.3207C56.7576 40.3207 57.4056 40.3627 57.9816 40.4467C58.5696 40.5307 59.1216 40.6567 59.6376 40.8247V43.7227C59.1096 43.5187 58.5636 43.3807 57.9996 43.3087C57.4356 43.2367 56.8596 43.2007 56.2716 43.2007C55.1556 43.2007 54.3156 43.4527 53.7516 43.9567C53.1996 44.4607 52.9236 45.2767 52.9236 46.4047C52.9236 47.4607 53.1636 48.2227 53.6436 48.6907C54.1356 49.1587 54.8556 49.3927 55.8036 49.3927C56.1156 49.3927 56.4096 49.3747 56.6856 49.3387C56.9616 49.2907 57.2196 49.2307 57.4596 49.1587V47.4667H55.1556V45.3787H60.2856V51.2107C59.8416 51.4867 59.2476 51.7327 58.5036 51.9487C57.7716 52.1647 56.8716 52.2727 55.8036 52.2727Z" fill="white"/>
<path d="M28.9681 117.109V103.965H24.2476V100.313H38.5916V103.965H33.8711V117.109H28.9681Z" fill="#FFA561"/>
<path d="M119.187 102.077H47.9746V105.695H119.187V102.077Z" fill="#455A64"/>
<path d="M95.9498 109.519H47.9746V113.137H95.9498V109.519Z" fill="#455A64"/>
<path d="M119.187 117.311H47.9746V120.929H119.187V117.311Z" fill="#455A64"/>
<path d="M119.2 125.141H23.9873V128.759H119.2V125.141Z" fill="#455A64"/>
<path d="M105.201 132.842H23.9873V136.46H105.201V132.842Z" fill="#455A64"/>
<path d="M112.861 140.543H23.9873V144.161H112.861V140.543Z" fill="#455A64"/>
<path d="M119.2 195.755H23.9873V199.373H119.2V195.755Z" fill="#455A64"/>
<path d="M105.201 203.469H23.9873V207.087H105.201V203.469Z" fill="#455A64"/>
<path d="M112.861 211.17H23.9873V214.788H112.861V211.17Z" fill="#455A64"/>
<path d="M105.201 226.249H23.9873V229.866H105.201V226.249Z" fill="#455A64"/>
<path d="M112.861 233.95H23.9873V237.567H112.861V233.95Z" fill="#455A64"/>
<path d="M119.187 149.523H24.1035V189.746H119.187V149.523Z" fill="#A8D29F"/>
<path d="M209.251 84.827H139.682V102.09H209.251V84.827Z" fill="#A8D29F"/>
<path d="M209.251 213.392H139.682V230.655H209.251V213.392Z" fill="#A8D29F"/>
<path d="M209.264 267.208H11.2695V284.471H209.264V267.208Z" fill="#FFA561"/>
<path d="M209.251 105.798H139.682V208.379H209.251V105.798Z" fill="#AFAFAF"/>
<path d="M11.2695 284.471H209.226V320.017C209.226 323.067 208.012 325.992 205.853 328.149C203.693 330.305 200.764 331.517 197.71 331.517H22.7846C19.7306 331.517 16.8017 330.305 14.6422 328.149C12.4827 325.992 11.2695 323.067 11.2695 320.017V284.471V284.471Z" fill="#AFAFAF"/>
<path d="M463.372 147.779V144.29C464.937 143.967 467.887 143.166 467.499 141.964C466.994 140.323 463.411 140.763 463.411 140.763C463.411 140.763 468.107 140.233 467.434 138.282C466.969 136.912 464.691 136.641 463.372 136.589V136.15C466.555 135.594 467.525 133.656 466.981 132.273C466.438 130.891 463.372 131.162 463.372 131.162C463.372 131.162 459.49 146.952 459.49 147.365C459.49 147.779 461.703 153.038 463.372 152.766C465.041 152.495 468.547 150.272 467.124 148.334C465.701 146.396 463.372 147.779 463.372 147.779Z" fill="#DD8762"/>
<path d="M443.034 165.39C443.034 165.604 443.118 165.809 443.268 165.961C443.418 166.114 443.622 166.201 443.836 166.204H461.95C462.435 166.208 462.902 166.019 463.248 165.681C463.595 165.342 463.793 164.88 463.8 164.395L464.214 119.533C464.221 119.095 464.117 118.663 463.911 118.277C463.705 117.89 463.404 117.562 463.037 117.324C462.886 117.219 462.702 117.173 462.519 117.194L444.69 119.029C444.497 119.054 444.319 119.147 444.188 119.292C444.058 119.436 443.983 119.623 443.979 119.817L443.034 165.39Z" fill="#455A64"/>
<path d="M459.983 121.458V161.979C459.985 162.088 459.965 162.196 459.924 162.298C459.883 162.399 459.822 162.491 459.744 162.568C459.667 162.645 459.575 162.706 459.474 162.747C459.373 162.788 459.264 162.808 459.155 162.806L446.424 162.651C446.204 162.651 445.994 162.564 445.838 162.409C445.683 162.254 445.596 162.043 445.596 161.824L446.01 122.44C446.012 122.238 446.088 122.044 446.224 121.894C446.36 121.744 446.546 121.649 446.747 121.626L459.064 120.644C459.18 120.63 459.297 120.64 459.408 120.674C459.519 120.708 459.622 120.766 459.709 120.843C459.796 120.92 459.865 121.015 459.913 121.121C459.96 121.227 459.984 121.342 459.983 121.458Z" fill="#9FC2FF"/>
<path d="M463.011 117.35C462.86 117.245 462.676 117.199 462.493 117.22H462.325L461.808 166.217H461.898C462.383 166.221 462.85 166.032 463.197 165.694C463.543 165.355 463.741 164.893 463.748 164.408L464.162 119.546C464.17 119.113 464.069 118.685 463.868 118.301C463.666 117.917 463.372 117.59 463.011 117.35Z" fill="#263238"/>
<path d="M447.018 120.244C447.032 120.396 446.986 120.548 446.889 120.666C446.792 120.785 446.653 120.861 446.5 120.877C446.329 120.877 446.164 120.809 446.043 120.688C445.922 120.567 445.854 120.402 445.854 120.231C445.854 120.06 445.922 119.895 446.043 119.774C446.164 119.653 446.329 119.585 446.5 119.585C446.578 119.593 446.654 119.616 446.722 119.654C446.791 119.692 446.851 119.743 446.899 119.804C446.948 119.866 446.983 119.937 447.004 120.012C447.024 120.088 447.029 120.166 447.018 120.244V120.244Z" fill="#263238"/>
<path d="M449.243 120.45C449.128 120.432 449.024 120.373 448.948 120.284C448.873 120.195 448.831 120.082 448.831 119.966C448.831 119.85 448.873 119.737 448.948 119.648C449.024 119.559 449.128 119.5 449.243 119.481L456.333 118.874C456.452 118.881 456.563 118.931 456.648 119.014C456.732 119.097 456.784 119.207 456.793 119.325C456.803 119.443 456.769 119.56 456.699 119.655C456.629 119.751 456.527 119.817 456.411 119.843L449.282 120.438L449.243 120.45Z" fill="#263238"/>
<path d="M446.992 166.23C449.166 162.018 448.467 157.806 448.545 155.686C448.623 153.567 452.633 148.67 453.151 144.122C453.669 139.574 450.939 137.662 449.373 140.608C447.678 143.401 445.761 146.054 443.641 148.541V135.013C442.935 135.802 442.17 136.537 441.351 137.209C439.603 138.656 438.19 140.465 437.212 142.511C436.233 144.557 435.712 146.791 435.684 149.058C435.814 155.661 434.39 168.698 433.226 172.213C432.49 174.376 431.392 176.398 429.979 178.195L441.623 183.919C444.066 182.806 446.393 181.456 448.571 179.888C450.473 178.195 451.353 171.295 451.353 171.295L453.242 166.23H446.992Z" fill="#FFBE9D"/>
<path d="M453.216 166.23H446.992L452.219 168.905L453.216 166.23Z" fill="#DD8762"/>
<path d="M440.639 156.022C440.489 154.627 440.684 153.216 441.208 151.913C441.688 150.585 442.531 149.417 443.641 148.541C443.123 149.833 442.58 151.022 442.114 152.262C441.648 153.503 441.195 154.73 440.639 156.022Z" fill="#DD8762"/>
<path d="M448.584 157.935C449.194 160.32 449.044 162.835 448.157 165.132C447.739 166.283 447.179 167.377 446.488 168.388C445.8 169.387 444.987 170.295 444.068 171.088C444.676 170.042 445.297 169.034 445.828 168C446.368 166.967 446.844 165.901 447.251 164.809C447.644 163.713 447.956 162.59 448.183 161.449C448.415 160.291 448.549 159.115 448.584 157.935V157.935Z" fill="#DD8762"/>
<path d="M446.501 184.681L431.985 176.812C431.513 176.561 430.965 176.494 430.447 176.623C429.928 176.752 429.476 177.068 429.177 177.51L408.476 208.133C406.703 210.885 405.888 211.234 403.145 209.425L381.887 198.623C368.949 192.628 360.293 186.749 347.679 186.749H332.515C332.515 186.749 331.842 186.749 330.626 186.749C318.519 187.016 306.797 191.047 297.092 198.28C287.387 205.512 280.182 215.587 276.479 227.101L249.723 309.887H272.805L300.932 229.634L300.169 309.913H367.021V223.173L384.333 230.771C395.227 236.443 412.474 243.266 421.854 226.817C422.255 226.094 422.669 225.383 423.148 224.698L447.239 187.731C447.401 187.485 447.511 187.209 447.562 186.919C447.612 186.629 447.603 186.332 447.534 186.046C447.465 185.76 447.337 185.491 447.16 185.256C446.982 185.022 446.758 184.826 446.501 184.681V184.681Z" fill="#3362CC"/>
<path d="M312.628 163.271V191.142C312.814 196.292 314.993 201.169 318.707 204.747C322.421 208.324 327.38 210.323 332.54 210.323C337.7 210.323 342.659 208.324 346.373 204.747C350.087 201.169 352.266 196.292 352.452 191.142V163.271H312.628Z" fill="#EB996E"/>
<path d="M285.601 132.596C285.601 132.596 277.269 123.642 277.269 99.7768C277.269 75.9115 297.815 59.7214 316.705 58.1967C335.594 56.672 338.7 49.3457 342.905 52.8086C347.11 56.2714 334.663 63.9595 334.663 63.9595C334.663 63.9595 370.256 50.4957 374.5 55.1085C378.744 59.7214 360.63 66.2724 360.63 66.2724C360.63 66.2724 382.315 71.8026 386.17 83.3412C390.026 94.8797 379.895 95.2674 379.895 95.2674C379.895 95.2674 387.037 113.706 378.071 138.76C368.315 166.01 306.664 169.034 305.513 168.259C304.361 167.483 285.601 132.596 285.601 132.596Z" fill="#263238"/>
<path d="M373.542 126.95H373.438C373.373 128.242 373.322 128.953 373.322 128.953L371.704 141.874C371.657 142.283 371.48 142.667 371.199 142.969C370.918 143.271 370.548 143.476 370.143 143.554C369.737 143.632 369.318 143.579 368.945 143.402C368.572 143.225 368.265 142.934 368.069 142.571C365.882 138.463 363.825 131.046 366.891 119.443C365.133 116.631 363.864 113.542 363.139 110.307L362.686 108.343C353.953 110.605 353.539 108.343 347.73 105.759C347.73 105.759 347.626 105.759 347.665 105.759C349.839 107.71 355.713 113.589 351.547 116.846C346.915 120.425 331.893 108.266 328.969 106.237C328.944 106.217 328.914 106.206 328.882 106.205C328.85 106.205 328.818 106.215 328.793 106.235C328.767 106.254 328.749 106.281 328.741 106.312C328.733 106.343 328.736 106.376 328.749 106.405C329.435 108.24 331.544 114.61 328.478 115.696C323.755 117.349 315.112 104.325 312.667 100.423C312.636 100.385 312.594 100.357 312.547 100.344C312.5 100.332 312.45 100.334 312.404 100.351C312.358 100.368 312.319 100.399 312.292 100.44C312.265 100.481 312.251 100.529 312.253 100.578C312.732 103.162 313.404 108.951 310.157 110.372C307.116 111.664 303.804 105.346 302.2 101.728C302.142 101.606 302.046 101.507 301.927 101.445C301.807 101.383 301.671 101.361 301.538 101.383C301.405 101.405 301.283 101.469 301.19 101.566C301.097 101.663 301.038 101.788 301.023 101.922C300.285 107.194 298.685 112.31 296.287 117.065C300.337 130.064 298.15 138.23 295.808 142.623C295.612 142.986 295.305 143.277 294.932 143.454C294.559 143.63 294.14 143.684 293.734 143.606C293.329 143.528 292.959 143.323 292.678 143.021C292.397 142.719 292.22 142.335 292.173 141.925L290.555 129.004C290.555 129.004 290.555 128.242 290.439 127.002C286.438 127.029 282.612 128.643 279.802 131.487C276.992 134.332 275.429 138.175 275.456 142.171C275.484 146.167 277.1 149.988 279.948 152.794C282.797 155.6 286.645 157.161 290.646 157.134H291.189C294.592 176.606 311.593 192.705 332.061 192.705C352.53 192.705 369.583 176.606 372.934 157.134H373.568C377.494 157.019 381.221 155.38 383.957 152.566C386.694 149.752 388.225 145.984 388.225 142.061C388.225 138.138 386.694 134.37 383.957 131.556C381.221 128.742 377.494 127.103 373.568 126.989L373.542 126.95Z" fill="#FFBE9D"/>
<path d="M318.347 161.23C320.674 163.548 323.334 165.507 326.239 167.044C327.655 167.764 329.167 168.278 330.729 168.569C332.359 168.857 334.016 168.974 335.671 168.918C334.085 169.685 332.334 170.049 330.573 169.977C328.774 169.932 327.007 169.491 325.398 168.685C323.818 167.893 322.387 166.836 321.167 165.558C319.957 164.31 319 162.84 318.347 161.23V161.23Z" fill="#263238"/>
<path d="M313.766 137.713C313.766 138.411 313.559 139.093 313.171 139.673C312.783 140.253 312.231 140.705 311.586 140.972C310.941 141.239 310.23 141.309 309.545 141.173C308.86 141.037 308.231 140.701 307.737 140.207C307.243 139.714 306.906 139.086 306.77 138.401C306.634 137.717 306.704 137.008 306.971 136.363C307.238 135.719 307.691 135.168 308.272 134.78C308.853 134.393 309.536 134.186 310.234 134.186C311.171 134.186 312.069 134.557 312.732 135.219C313.394 135.88 313.766 136.778 313.766 137.713V137.713Z" fill="#263238"/>
<path d="M306.715 134.186C306.704 133.418 306.889 132.659 307.251 131.981C307.613 131.304 308.141 130.728 308.785 130.309C310.063 129.439 311.561 128.946 313.107 128.888C313.899 128.839 314.694 128.918 315.462 129.121C316.244 129.344 316.977 129.712 317.622 130.206C318.237 130.675 318.739 131.277 319.091 131.965C319.442 132.654 319.635 133.413 319.654 134.186C318.812 133.195 317.766 132.398 316.587 131.847C315.513 131.411 314.354 131.225 313.197 131.304C311.988 131.3 310.787 131.492 309.639 131.873C308.442 132.311 307.417 133.122 306.715 134.186Z" fill="#263238"/>
<path d="M304.917 125.8C309.451 125.038 314.049 124.731 318.644 124.883C319.447 124.883 319.938 124.262 319.563 123.758C318.554 122.466 316.29 120.67 311.8 120.967C306.625 121.303 304.619 123.332 303.804 124.753C303.416 125.335 304.05 125.955 304.917 125.8Z" fill="#263238"/>
<path d="M343.849 137.713C343.849 138.411 344.056 139.093 344.444 139.673C344.832 140.253 345.384 140.705 346.029 140.972C346.675 141.239 347.385 141.309 348.07 141.173C348.755 141.037 349.384 140.701 349.878 140.207C350.372 139.714 350.709 139.086 350.845 138.401C350.981 137.717 350.911 137.008 350.644 136.363C350.377 135.719 349.924 135.168 349.343 134.78C348.762 134.393 348.079 134.186 347.381 134.186C346.444 134.186 345.546 134.557 344.883 135.219C344.221 135.88 343.849 136.778 343.849 137.713V137.713Z" fill="#263238"/>
<path d="M356.851 134.186C356.862 133.418 356.678 132.659 356.316 131.981C355.954 131.304 355.426 130.728 354.781 130.309C353.479 129.446 351.958 128.971 350.395 128.94C349.607 128.891 348.816 128.969 348.053 129.172C347.267 129.394 346.529 129.762 345.88 130.258C345.267 130.728 344.768 131.33 344.418 132.019C344.069 132.708 343.879 133.466 343.861 134.237C344.703 133.247 345.749 132.449 346.928 131.899C348.001 131.461 349.161 131.276 350.318 131.356C351.527 131.351 352.728 131.543 353.876 131.924C355.085 132.339 356.128 133.132 356.851 134.186V134.186Z" fill="#263238"/>
<path d="M357.097 125.8C352.563 125.038 347.964 124.731 343.369 124.883C342.58 124.883 342.076 124.262 342.451 123.758C343.473 122.466 345.737 120.67 350.214 120.967C355.389 121.303 357.407 123.332 358.222 124.753C358.637 125.335 357.951 125.955 357.097 125.8Z" fill="#263238"/>
<path d="M332.929 135.039C334.223 137.623 335.271 140.401 336.293 143.127C337.315 145.853 338.26 148.606 339.178 151.371L339.825 153.451C340.103 154.321 340.103 155.256 339.825 156.126C339.543 156.983 338.995 157.727 338.259 158.25C337.523 158.773 336.64 159.048 335.737 159.033C332.8 158.904 329.901 158.71 326.99 158.322C329.888 157.948 332.825 157.754 335.724 157.612C336.143 157.583 336.55 157.459 336.913 157.248C337.276 157.037 337.586 156.745 337.817 156.394C338.049 156.044 338.196 155.646 338.248 155.229C338.3 154.813 338.256 154.39 338.117 153.994L337.419 151.926C336.539 149.148 335.685 146.37 334.921 143.554C334.158 140.737 333.472 137.92 332.929 135.039Z" fill="#263238"/>
<path d="M287.023 133.087C285.074 133.861 283.374 135.152 282.107 136.822C280.932 138.481 280.328 140.476 280.386 142.507C280.314 144.535 280.885 146.533 282.016 148.218C283.263 149.9 285.019 151.136 287.023 151.746C284.79 151.562 282.719 150.503 281.266 148.799C279.848 147.013 279.106 144.785 279.17 142.507C279.116 140.22 279.898 137.993 281.369 136.24C282.831 134.566 284.83 133.452 287.023 133.087Z" fill="#DD8762"/>
<path d="M376.505 151.707C378.461 150.939 380.167 149.647 381.434 147.973C382.604 146.316 383.208 144.327 383.155 142.3C383.267 140.237 382.668 138.198 381.458 136.521C380.248 134.845 378.5 133.633 376.505 133.087C378.739 133.281 380.807 134.343 382.262 136.046C383.691 137.826 384.435 140.059 384.358 142.339C384.428 144.595 383.667 146.798 382.22 148.531C380.773 150.265 378.739 151.408 376.505 151.746V151.707Z" fill="#DD8762"/>
<path d="M330.885 107.762C332.955 109.145 335.025 110.54 337.173 111.793C339.259 113.07 341.419 114.222 343.642 115.243C344.738 115.733 345.872 116.135 347.032 116.445C348.077 116.759 349.186 116.803 350.253 116.574C350.697 116.466 351.097 116.223 351.396 115.878C351.695 115.533 351.879 115.103 351.922 114.649C351.93 113.584 351.644 112.538 351.094 111.625C349.897 109.523 348.436 107.582 346.747 105.85C345.117 104.015 343.331 102.309 341.572 100.604C337.949 97.2184 334.197 93.9365 330.367 90.7191C334.644 93.3345 338.718 96.2672 342.555 99.4925C344.501 101.11 346.354 102.835 348.106 104.661C349.932 106.488 351.503 108.552 352.776 110.799C353.501 112.047 353.843 113.48 353.76 114.92C353.668 115.717 353.349 116.47 352.841 117.091C352.315 117.716 351.611 118.167 350.823 118.383C349.436 118.665 348 118.58 346.657 118.138C345.414 117.761 344.209 117.268 343.06 116.665C338.622 114.252 334.528 111.258 330.885 107.762V107.762Z" fill="#455A64"/>
<path d="M347.341 105.126C348.891 106.089 350.55 106.866 352.283 107.439C353.95 108.002 355.699 108.286 357.459 108.279C358.325 108.287 359.19 108.227 360.046 108.098L361.34 107.891C361.767 107.762 362.194 107.646 362.634 107.542C363.078 107.453 363.511 107.319 363.928 107.142L365.222 106.69C366.075 106.367 366.904 105.953 367.809 105.643C367.135 106.312 366.422 106.942 365.674 107.529C364.881 108.08 364.041 108.56 363.164 108.964C361.378 109.815 359.424 110.256 357.446 110.256C355.462 110.246 353.508 109.772 351.74 108.873C349.975 108.024 348.459 106.733 347.341 105.126V105.126Z" fill="#455A64"/>
<path d="M322.021 96.4044C323.424 97.5447 324.688 98.8457 325.787 100.281C326.91 101.692 327.898 103.206 328.736 104.803C329.598 106.42 330.192 108.165 330.496 109.972C330.664 110.903 330.664 111.857 330.496 112.788C330.341 113.732 329.887 114.601 329.202 115.269C329.69 113.638 329.612 111.89 328.982 110.308C328.434 108.706 327.759 107.15 326.964 105.656C325.45 102.594 323.626 99.6347 322.021 96.4044Z" fill="#455A64"/>
<path d="M346.824 64.6056C348.375 64.4352 349.936 64.3747 351.495 64.4247C353.048 64.5022 354.613 64.6443 356.166 64.864C362.386 65.7742 368.37 67.8805 373.788 71.0661C375.159 71.8285 376.44 72.7329 377.669 73.6503C378.898 74.5677 380.114 75.5885 381.305 76.5963C378.705 74.9257 376.024 73.3861 373.27 71.9835C367.795 69.2192 361.985 67.1737 355.985 65.8977C352.968 65.2384 349.906 64.8065 346.824 64.6056V64.6056Z" fill="#455A64"/>
<path d="M379.894 95.2673C377.659 96.1112 375.283 96.5191 372.895 96.469C370.509 96.4666 368.132 96.2023 365.805 95.6808C363.485 95.1556 361.22 94.4159 359.038 93.4713C357.951 93.0191 356.903 92.4505 355.855 91.9208C354.807 91.391 353.824 90.7062 352.866 90.0343C354.018 90.3186 355.117 90.6933 356.23 91.0421L359.555 92.05C360.681 92.3343 361.755 92.7219 362.88 92.9674C364.006 93.2129 365.106 93.5488 366.219 93.7814C368.448 94.2946 370.702 94.6914 372.972 94.9702C375.268 95.2578 377.583 95.3572 379.894 95.2673Z" fill="#455A64"/>
<path d="M306.702 109.274C305.304 108.146 304.121 106.776 303.209 105.229C302.274 103.707 301.49 102.097 300.867 100.423C300.235 98.7419 299.738 97.0137 299.379 95.2544C299.198 94.3887 299.069 93.51 298.939 92.6702C298.81 91.8303 298.771 90.9129 298.745 90.0859C299.314 91.7657 299.832 93.4454 300.349 95.0993C300.867 96.7532 301.436 98.4071 302.07 100.022C302.704 101.637 303.364 103.24 304.089 104.803C304.829 106.366 305.703 107.862 306.702 109.274V109.274Z" fill="#455A64"/>
<path d="M405.086 346.906H255.61C253.295 346.904 251.063 346.05 249.34 344.508C247.616 342.966 246.523 340.843 246.268 338.546L237.975 262.828C237.841 261.523 237.983 260.204 238.391 258.957C238.799 257.709 239.465 256.561 240.346 255.587C241.226 254.613 242.301 253.834 243.502 253.301C244.703 252.768 246.002 252.492 247.316 252.491H413.379C414.693 252.492 415.992 252.767 417.192 253.301C418.392 253.834 419.466 254.613 420.346 255.588C421.225 256.562 421.89 257.71 422.297 258.957C422.704 260.205 422.844 261.524 422.708 262.828L414.414 338.533C414.166 340.831 413.076 342.957 411.354 344.502C409.633 346.047 407.4 346.903 405.086 346.906Z" fill="#455A64"/>
<path d="M422.371 259.146C421.799 257.207 420.614 255.505 418.993 254.294C417.372 253.083 415.403 252.428 413.379 252.427H247.316C245.28 252.414 243.296 253.062 241.663 254.274C240.029 255.486 238.834 257.196 238.259 259.146H422.371Z" fill="#263238"/>
<path d="M338.505 303.943C338.507 305.556 338.031 307.134 337.135 308.476C336.24 309.819 334.966 310.866 333.474 311.485C331.982 312.104 330.341 312.267 328.756 311.954C327.172 311.641 325.716 310.866 324.573 309.726C323.429 308.586 322.651 307.133 322.335 305.552C322.019 303.97 322.179 302.33 322.797 300.839C323.415 299.348 324.461 298.074 325.804 297.178C327.147 296.281 328.726 295.803 330.341 295.803C332.504 295.803 334.578 296.66 336.109 298.186C337.64 299.713 338.501 301.783 338.505 303.943V303.943Z" fill="#E0E0E0"/>
<path d="M318.347 0H234.766V47.3559H318.347V0Z" fill="#699DEE"/>
<path d="M281.54 34.5009C287.88 31.757 290.792 24.3998 288.045 18.0681C285.297 11.7365 277.93 8.82802 271.59 11.5719C265.25 14.3158 262.338 21.673 265.085 28.0046C267.833 34.3363 275.2 37.2448 281.54 34.5009Z" fill="#4A75CB"/>
<path d="M274.292 20.3378V26.1653C274.311 26.3862 274.387 26.5985 274.512 26.7818C274.637 26.965 274.807 27.1131 275.005 27.2118C275.204 27.3104 275.425 27.3563 275.647 27.345C275.869 27.3337 276.084 27.2656 276.272 27.1473L280.153 24.1754C280.295 24.0541 280.409 23.9035 280.487 23.734C280.565 23.5645 280.606 23.3801 280.606 23.1934C280.606 23.0068 280.565 22.8223 280.487 22.6528C280.409 22.4833 280.295 22.3327 280.153 22.2114L276.272 19.3429C276.083 19.2243 275.867 19.1563 275.644 19.1456C275.421 19.135 275.2 19.182 275 19.2821C274.801 19.3822 274.631 19.532 274.507 19.717C274.383 19.902 274.309 20.1158 274.292 20.3378V20.3378Z" fill="#F0F0F0"/>
<path d="M310.118 41.6577H240.536C240.28 41.6543 240.037 41.5507 239.858 41.3693C239.679 41.1879 239.578 40.9434 239.578 40.6886V40.6886C239.578 40.435 239.679 40.1918 239.859 40.0125C240.038 39.8332 240.282 39.7324 240.536 39.7324H310.118C310.373 39.7324 310.618 39.8327 310.799 40.0117C310.981 40.1906 311.085 40.4338 311.088 40.6886V40.6886C311.085 40.9446 310.982 41.1891 310.8 41.3701C310.619 41.5512 310.374 41.6543 310.118 41.6577V41.6577Z" fill="#4A75CB"/>
<path d="M310.119 39.7324H261.626V41.6577H310.119C310.375 41.6543 310.62 41.5512 310.801 41.3701C310.982 41.1891 311.086 40.9446 311.089 40.6886V40.6886C311.086 40.4338 310.982 40.1906 310.8 40.0117C310.619 39.8327 310.374 39.7324 310.119 39.7324V39.7324Z" fill="#F0F0F0"/>
<path d="M261.522 39.7324H240.536C240.282 39.7324 240.038 39.8332 239.859 40.0125C239.679 40.1918 239.578 40.435 239.578 40.6886V40.6886C239.578 40.9434 239.679 41.1879 239.858 41.3693C240.037 41.5507 240.28 41.6543 240.536 41.6577H261.522V39.7324Z" fill="#4A75CB"/>
<path d="M264.045 40.6886C264.045 41.1614 263.905 41.6236 263.642 42.0167C263.379 42.4098 263.005 42.7161 262.567 42.8971C262.13 43.078 261.649 43.1253 261.184 43.0331C260.72 42.9409 260.294 42.7132 259.959 42.3789C259.624 42.0446 259.396 41.6187 259.304 41.155C259.211 40.6913 259.259 40.2106 259.44 39.7739C259.621 39.3371 259.928 38.9637 260.322 38.7011C260.715 38.4384 261.178 38.2982 261.651 38.2982C262.286 38.2982 262.895 38.5501 263.344 38.9984C263.793 39.4466 264.045 40.0546 264.045 40.6886V40.6886Z" fill="#4A75CB"/>
<path d="M262.79 40.6886C262.79 40.9135 262.723 41.1333 262.598 41.3203C262.473 41.5073 262.295 41.653 262.087 41.7391C261.879 41.8251 261.65 41.8477 261.429 41.8038C261.208 41.7599 261.005 41.6516 260.846 41.4926C260.687 41.3336 260.579 41.131 260.535 40.9104C260.491 40.6898 260.513 40.4612 260.599 40.2534C260.686 40.0457 260.831 39.8681 261.019 39.7431C261.206 39.6182 261.426 39.5515 261.651 39.5515C261.953 39.5515 262.243 39.6713 262.456 39.8845C262.67 40.0978 262.79 40.387 262.79 40.6886Z" fill="#699DEE"/>
<path d="M380.49 291.293V318.428C380.49 318.986 380.6 319.539 380.814 320.055C381.028 320.57 381.342 321.039 381.737 321.434C382.132 321.828 382.602 322.142 383.118 322.355C383.634 322.569 384.188 322.679 384.747 322.679H434.236C435.172 322.678 436.082 322.987 436.824 323.557L447.705 331.853C448.335 332.335 449.088 332.631 449.878 332.708C450.668 332.785 451.464 332.64 452.176 332.29C452.888 331.939 453.487 331.396 453.907 330.723C454.326 330.05 454.549 329.273 454.549 328.48V291.293C454.549 290.734 454.439 290.18 454.224 289.664C454.009 289.147 453.694 288.678 453.298 288.283C452.901 287.888 452.43 287.575 451.912 287.362C451.394 287.149 450.84 287.041 450.279 287.042H384.747C384.188 287.042 383.634 287.152 383.118 287.366C382.602 287.58 382.132 287.893 381.737 288.287C381.342 288.682 381.028 289.151 380.814 289.667C380.6 290.182 380.49 290.735 380.49 291.293V291.293Z" fill="#699DEE"/>
<path d="M406.16 308.246C407.725 308.246 408.993 306.979 408.993 305.416C408.993 303.853 407.725 302.587 406.16 302.587C404.595 302.587 403.326 303.853 403.326 305.416C403.326 306.979 404.595 308.246 406.16 308.246Z" fill="#F0F0F0"/>
<path d="M421.324 305.416C421.326 305.98 421.161 306.531 420.849 307C420.538 307.47 420.093 307.836 419.573 308.053C419.052 308.27 418.478 308.327 417.925 308.218C417.372 308.108 416.863 307.837 416.465 307.439C416.066 307.041 415.794 306.533 415.685 305.981C415.576 305.428 415.633 304.855 415.85 304.335C416.067 303.815 416.434 303.372 416.904 303.06C417.374 302.749 417.926 302.584 418.49 302.586C419.242 302.586 419.962 302.885 420.494 303.415C421.025 303.946 421.324 304.666 421.324 305.416V305.416Z" fill="#F0F0F0"/>
<path d="M433.64 305.416C433.64 305.976 433.474 306.523 433.162 306.988C432.851 307.454 432.408 307.816 431.891 308.031C431.373 308.245 430.803 308.301 430.253 308.192C429.704 308.082 429.199 307.813 428.803 307.417C428.406 307.021 428.136 306.517 428.027 305.968C427.918 305.419 427.974 304.85 428.188 304.333C428.403 303.816 428.766 303.374 429.232 303.063C429.698 302.753 430.246 302.587 430.806 302.587C431.558 302.587 432.278 302.885 432.81 303.415C433.341 303.946 433.64 304.666 433.64 305.416V305.416Z" fill="#F0F0F0"/>
<path d="M483 77.0099V105.23C483 106.22 482.606 107.17 481.905 107.87C481.204 108.57 480.253 108.964 479.261 108.964H423.148C422.326 108.966 421.527 109.233 420.871 109.726L409.032 118.771C408.478 119.196 407.815 119.457 407.12 119.525C406.424 119.594 405.723 119.466 405.097 119.156C404.471 118.847 403.944 118.368 403.576 117.775C403.208 117.181 403.014 116.497 403.016 115.799V77.0357C403.019 76.0464 403.414 75.0986 404.115 74.399C404.815 73.6994 405.764 73.3049 406.755 73.3015H479.209C479.703 73.2947 480.192 73.3854 480.65 73.5684C481.108 73.7513 481.525 74.023 481.878 74.3677C482.23 74.7124 482.511 75.1233 482.703 75.5768C482.896 76.0302 482.997 76.5173 483 77.0099V77.0099Z" fill="#699DEE"/>
<path d="M424.868 90.9904C424.868 92.442 424.437 93.8609 423.629 95.0679C422.822 96.2748 421.674 97.2155 420.331 97.7709C418.988 98.3264 417.511 98.4718 416.085 98.1886C414.66 97.9054 413.35 97.2064 412.322 96.18C411.295 95.1536 410.595 93.8459 410.311 92.4222C410.028 90.9986 410.173 89.5229 410.729 88.1819C411.286 86.8408 412.227 85.6946 413.436 84.8881C414.645 84.0817 416.065 83.6512 417.519 83.6512C419.468 83.6512 421.337 84.4245 422.715 85.8008C424.094 87.1772 424.868 89.044 424.868 90.9904V90.9904Z" fill="#699DEE"/>
<path d="M430.186 88.6387L431.389 85.0725H433.355L432.385 88.6387H430.186ZM432.928 88.6387L434.145 85.0725H436.098L435.141 88.6387H432.928Z" fill="white"/>
<path d="M466.853 97.606L468.069 94.0398H470.022L469.065 97.606H466.853ZM469.608 97.606L470.812 94.0398H472.765L471.808 97.606H469.608Z" fill="white"/>
<path d="M475.379 86.3H437.457V87.9927H475.379V86.3Z" fill="#4A75CB"/>
<path d="M473.27 90.4089H430.186V92.1016H473.27V90.4089Z" fill="#4A75CB"/>
<path d="M465.701 94.505H430.186V96.1976H465.701V94.505Z" fill="#4A75CB"/>
<path d="M249.179 141.641H156.527V194.14H249.179V141.641Z" fill="#699DEE"/>
<path d="M244.095 146.344H160.901V189.204H244.095V146.344Z" fill="#699DEE"/>
<path d="M160.901 189.204L184.475 157.638C185.078 156.835 185.859 156.184 186.757 155.735C187.655 155.287 188.646 155.053 189.65 155.053C190.655 155.053 191.645 155.287 192.543 155.735C193.442 156.184 194.223 156.835 194.826 157.638L212.124 180.327L221.66 171.386C222.321 170.77 223.104 170.299 223.959 170.004C224.813 169.709 225.72 169.597 226.621 169.673C227.522 169.75 228.397 170.014 229.189 170.45C229.982 170.885 230.674 171.481 231.221 172.2L244.159 189.281L160.901 189.204Z" fill="#4A75CB"/>
<path d="M219.705 159.485C219.708 160.843 219.307 162.171 218.554 163.301C217.8 164.431 216.728 165.312 215.473 165.833C214.218 166.355 212.836 166.492 211.503 166.229C210.169 165.966 208.944 165.313 207.982 164.354C207.02 163.395 206.364 162.173 206.098 160.841C205.832 159.51 205.967 158.13 206.487 156.876C207.006 155.621 207.887 154.549 209.017 153.794C210.147 153.04 211.476 152.637 212.835 152.637C214.655 152.637 216.4 153.358 217.689 154.642C218.977 155.926 219.702 157.668 219.705 159.485V159.485Z" fill="white"/>
</svg>
