<svg width="579" height="378" viewBox="0 0 579 378" fill="none" xmlns="http://www.w3.org/2000/svg">
<g clip-path="url(#clip0)">
<path d="M113.612 22.0281C70.7043 57.5079 128.059 103.019 98.3479 122.903C68.6368 142.787 -54.4703 181.534 69.4791 258.441C193.429 335.348 196.849 386.296 285.344 337.619C373.839 288.918 367.484 280.163 440.307 313.09C513.129 346.017 589.245 294.788 563.363 234.013C537.48 173.238 521.017 173.979 550.549 135.18C580.107 96.3569 533.881 -11.0523 432.164 71.955C330.447 154.962 266.762 92.9876 255.608 61.9492C244.453 30.9108 181.432 -34.0248 113.612 22.0281Z" fill="#D0E5F3"/>
<path d="M2.70585 179.441C32.5446 181.33 205.681 199.376 217.907 364.88C217.907 364.88 100.875 382.339 0.280974 183.091C-0.612401 181.355 0.740425 179.313 2.70585 179.441Z" fill="#A0C5DD"/>
<path d="M25.6272 198.84C34.1781 203.128 42.6269 207.569 51.0246 212.087C59.4223 216.605 67.7945 221.225 76.0902 225.947C92.6814 235.392 109.094 245.193 125.175 255.505C141.256 265.818 157.03 276.615 172.192 288.28C179.798 294.074 187.201 300.149 194.348 306.504C201.495 312.86 208.412 319.522 214.768 326.72C215.15 327.129 215.099 327.792 214.691 328.15C214.283 328.533 213.619 328.481 213.262 328.073C207.008 320.926 200.193 314.29 193.122 307.934C186.026 301.578 178.701 295.503 171.171 289.683C156.111 277.993 140.413 267.145 124.435 256.756C108.43 246.367 92.0944 236.489 75.5797 226.968C67.3096 222.221 58.9884 217.55 50.6162 212.981C42.244 208.412 33.8207 203.919 25.3209 199.631C25.1167 199.529 25.0146 199.274 25.1422 199.044C25.1678 198.814 25.423 198.738 25.6272 198.84Z" fill="url(#paint0_linear)"/>
<path d="M569.362 34.2291C569.847 32.0084 567.754 30.094 565.584 30.7832C532.376 41.4526 341.755 111.391 375.244 302.089C375.244 302.089 512.619 288.356 569.362 34.2291Z" fill="#BBDFF6"/>
<path d="M545.802 59.9838C537.404 67.284 529.16 74.7628 520.992 82.3182C512.824 89.8736 504.732 97.5311 496.743 105.265C488.753 112.999 480.841 120.835 473.03 128.774C465.219 136.712 457.536 144.752 449.955 152.895C434.845 169.205 420.168 185.975 406.486 203.485C399.62 212.215 393.06 221.2 386.858 230.414C380.681 239.629 374.861 249.099 369.807 258.977C369.552 259.487 368.939 259.666 368.454 259.411C367.944 259.156 367.765 258.543 368.02 258.058C373.151 248.103 379.047 238.608 385.301 229.368C391.58 220.128 398.191 211.143 405.134 202.413C418.943 184.903 433.696 168.184 448.909 151.899C456.541 143.782 464.249 135.742 472.111 127.829C479.973 119.917 487.911 112.106 495.926 104.397C503.966 96.6888 512.083 89.0568 520.302 81.5269C528.521 73.997 536.792 66.5437 545.24 59.2691C545.419 59.116 545.7 59.1415 545.853 59.3202C546.006 59.4988 545.981 59.8307 545.802 59.9838Z" fill="#BDD0FB"/>
<path d="M537.634 176.225C512.9 177.705 368.658 193.199 344.46 353.598C344.46 353.598 439.439 371.9 539.318 179.798C540.186 178.139 539.242 176.148 537.634 176.225Z" fill="#B4D6ED"/>
<path d="M517.418 195.522C509.862 199.708 502.409 204.047 494.981 208.463C487.553 212.879 480.202 217.371 472.876 221.966C458.251 231.155 443.829 240.65 429.739 250.605C422.669 255.556 415.726 260.661 408.86 265.869C407.15 267.17 405.414 268.472 403.729 269.799L398.65 273.781C396.965 275.109 395.306 276.487 393.621 277.84C392.779 278.529 391.937 279.193 391.12 279.882L388.644 281.949C385.326 284.706 382.084 287.539 378.842 290.373C375.652 293.282 372.461 296.141 369.373 299.153C363.17 305.126 357.197 311.329 351.658 317.889C351.301 318.323 350.663 318.374 350.229 318.016C349.795 317.659 349.744 317.021 350.101 316.587C355.717 309.976 361.792 303.748 368.071 297.8C371.185 294.788 374.427 291.93 377.643 289.02C380.91 286.187 384.177 283.353 387.521 280.597L390.022 278.529C390.865 277.84 391.707 277.176 392.549 276.487C394.234 275.134 395.919 273.781 397.629 272.429L402.759 268.447C404.469 267.119 406.205 265.843 407.915 264.541C414.833 259.334 421.826 254.28 428.922 249.354C443.089 239.476 457.587 230.031 472.289 220.945C479.641 216.401 487.043 211.934 494.471 207.569C501.924 203.205 509.403 198.891 517.009 194.756C517.213 194.654 517.469 194.73 517.596 194.935C517.698 195.139 517.622 195.42 517.418 195.522Z" fill="url(#paint1_linear)"/>
<path d="M80.0978 111.289C77.8516 101.462 83.9776 91.6859 93.7792 89.4142L244.964 54.6491C253.311 52.7347 261.683 57.6866 264.031 65.9311L325.597 282.562C327.435 288.994 323.555 295.682 317.072 297.29L144.497 340.274C138.397 341.806 132.22 338.002 130.816 331.876L80.0978 111.289Z" fill="url(#paint2_linear)"/>
<path d="M146.948 335.322C141.332 335.322 136.227 331.442 134.926 325.776L128.187 296.499C128.136 296.218 128.289 295.963 128.57 295.886C128.851 295.835 129.106 295.988 129.182 296.269L135.921 325.546C137.299 331.544 143.298 335.348 149.322 334.046L168.772 329.834C169.053 329.783 169.308 329.962 169.384 330.217C169.435 330.498 169.282 330.753 169.001 330.83L149.551 335.041C148.658 335.22 147.79 335.322 146.948 335.322Z" fill="white"/>
<path d="M126.604 287.82C126.375 287.82 126.17 287.667 126.119 287.437L125.022 282.69C124.971 282.409 125.124 282.154 125.405 282.077C125.685 282.026 125.941 282.179 126.017 282.46L127.115 287.208C127.166 287.488 127.013 287.744 126.732 287.82C126.681 287.82 126.655 287.82 126.604 287.82Z" fill="white"/>
<path d="M89.1592 94.0342C88.419 90.8946 90.6142 87.8316 93.8303 87.5253C115.118 85.5854 188.12 77.9024 245.781 59.9072C248.41 59.0904 251.192 60.5709 251.958 63.2255L314.29 280.724C315.132 283.711 313.422 286.825 310.461 287.692C286.11 294.839 185.72 323.861 148.581 328.405C146.31 328.686 144.217 327.205 143.706 324.984L89.1592 94.0342Z" fill="#7D97F4"/>
<path d="M92.8604 98.986C92.1457 95.9741 94.2643 93.0132 97.3528 92.7324C117.849 90.8691 188.094 83.4924 243.586 66.1609C246.113 65.3696 248.793 66.799 249.533 69.3515L309.517 278.657C310.334 281.515 308.7 284.527 305.816 285.37C282.384 292.236 185.771 320.16 150.036 324.551C147.867 324.806 145.85 323.402 145.34 321.258L92.8604 98.986Z" fill="#BDD0FB"/>
<path d="M117.441 107.154C115.628 107.511 114.505 109.324 115.016 111.085L127.574 156.034C127.983 157.54 129.489 158.459 131.02 158.153C139.494 156.468 165.862 151.057 180.487 146.896C182.147 146.411 183.168 144.752 182.836 143.068C181.151 134.491 176.072 109.553 171.758 99.6242C171.069 98.0161 169.333 97.1227 167.623 97.4545L117.441 107.154Z" fill="url(#paint3_linear)"/>
<path d="M154.444 127.858C158.361 123.941 158.361 117.589 154.444 113.672C150.527 109.754 144.175 109.754 140.258 113.672C136.34 117.589 136.34 123.941 140.258 127.858C144.175 131.776 150.527 131.776 154.444 127.858Z" fill="#7D97F4"/>
<path d="M136.151 149.347C135.36 151.287 137.095 153.303 139.112 152.844L170.227 145.697C172.141 145.263 172.805 142.889 171.401 141.511C167.802 137.988 160.885 133.19 151.364 135.665C142.2 138.039 137.989 144.803 136.151 149.347Z" fill="#7D97F4"/>
<g opacity="0.6">
<path opacity="0.6" d="M241.11 86.2746C241.646 86.147 241.978 85.6109 241.85 85.0494L241.569 84.0029C241.416 83.4668 240.854 83.1095 240.318 83.2371L184.01 95.1318C183.449 95.2594 183.244 95.7188 183.551 96.2038L184.827 98.2203C185.133 98.7053 185.822 98.986 186.358 98.8584L241.11 86.2746Z" fill="white"/>
</g>
<g opacity="0.6">
<path opacity="0.6" d="M185.95 103.606C185.389 103.734 185.184 104.193 185.491 104.678L186.767 106.695C187.073 107.18 187.762 107.46 188.298 107.333L243.024 94.7489C243.56 94.6213 243.892 94.0852 243.764 93.5237L243.484 92.4772C243.33 91.9411 242.769 91.5838 242.233 91.7114L185.95 103.606Z" fill="white"/>
</g>
<g opacity="0.6">
<path opacity="0.6" d="M187.916 112.182C187.354 112.31 187.15 112.77 187.456 113.254L188.732 115.271C189.039 115.756 189.728 116.037 190.264 115.909L245.041 103.325C245.577 103.198 245.909 102.662 245.781 102.1L245.5 101.054C245.347 100.518 244.785 100.16 244.249 100.288L187.916 112.182Z" fill="white"/>
</g>
<g opacity="0.6">
<path opacity="0.6" d="M259.845 143.553C260.381 143.425 260.713 142.889 260.534 142.353L260.228 141.306C260.075 140.77 259.488 140.439 258.926 140.541L129.412 169.256C128.876 169.384 128.774 169.767 129.208 170.124L131.811 172.192C132.245 172.549 133.062 172.728 133.598 172.6L259.845 143.553Z" fill="white"/>
</g>
<g opacity="0.6">
<path opacity="0.6" d="M131.352 177.731C130.816 177.858 130.714 178.241 131.148 178.599L133.752 180.666C134.186 181.023 135.002 181.202 135.538 181.075L261.785 152.053C262.321 151.925 262.653 151.389 262.474 150.853L262.168 149.806C262.015 149.27 261.428 148.938 260.866 149.041L131.352 177.731Z" fill="white"/>
</g>
<path d="M144.778 208.973C143.476 208.973 142.302 208.233 141.919 207.059L138.882 198.227C138.703 197.691 138.754 197.104 139.01 196.568C139.316 195.981 139.852 195.522 140.516 195.343C141.409 195.062 142.634 194.679 143.987 194.245C146.922 193.301 150.266 192.229 152.257 191.744C153.737 191.387 155.218 191.999 155.856 193.199C156.903 195.164 157.745 199.095 158.613 203.332C158.894 204.762 157.873 206.191 156.316 206.523L145.518 208.897C145.289 208.948 145.033 208.973 144.778 208.973ZM140.822 196.287C140.413 196.415 140.082 196.67 139.928 197.002C139.775 197.283 139.75 197.589 139.852 197.87L142.889 206.702C143.196 207.62 144.242 208.105 145.34 207.876L156.137 205.502C157.158 205.272 157.821 204.379 157.643 203.511C156.8 199.376 155.958 195.496 154.988 193.658C154.554 192.867 153.533 192.459 152.538 192.714C150.572 193.199 147.126 194.296 144.344 195.19C142.966 195.624 141.715 196.032 140.822 196.287Z" fill="white"/>
<g opacity="0.6">
<path opacity="0.6" d="M163.769 194.832C163.233 194.96 162.977 195.471 163.258 195.956L164.968 199.197C165.224 199.682 165.887 199.989 166.423 199.861L265.511 175.97C266.047 175.842 266.379 175.28 266.252 174.744L265.741 172.728C265.613 172.192 265.052 171.834 264.49 171.962L163.769 194.832Z" fill="white"/>
</g>
<path d="M142.966 198.202C143.655 197.538 144.753 197.589 145.391 198.304L148.403 201.622C148.709 201.954 149.245 201.801 149.347 201.367L151.925 188.4C152.053 187.762 152.972 187.762 153.099 188.4C153.865 191.999 154.478 199.044 150.062 206.089C150.062 206.089 146.616 205.578 142.787 200.576C142.226 199.861 142.302 198.814 142.966 198.202Z" fill="url(#paint4_linear)"/>
<path d="M150.113 232.073C148.811 232.073 147.637 231.333 147.254 230.159L144.217 221.327C144.038 220.791 144.089 220.204 144.344 219.668C144.651 219.081 145.187 218.647 145.85 218.443C146.744 218.162 147.969 217.779 149.322 217.345C152.257 216.401 155.601 215.329 157.592 214.844C159.072 214.487 160.553 215.099 161.191 216.299C162.237 218.264 163.08 222.195 163.947 226.432C164.228 227.862 163.207 229.291 161.65 229.623L150.853 231.997C150.598 232.048 150.343 232.073 150.113 232.073ZM146.131 219.413C145.723 219.541 145.391 219.796 145.238 220.128C145.084 220.408 145.059 220.715 145.161 220.996L148.199 229.827C148.505 230.746 149.551 231.231 150.649 231.001L161.446 228.628C162.467 228.398 163.131 227.504 162.952 226.637C162.11 222.502 161.267 218.622 160.297 216.784C159.863 215.993 158.842 215.584 157.847 215.84C155.882 216.324 152.436 217.422 149.653 218.315C148.275 218.749 147.05 219.132 146.131 219.413Z" fill="white"/>
<path d="M147.484 220C149.704 219.336 154.529 217.703 156.851 217.116C157.847 216.886 158.842 217.269 159.276 218.086C160.119 219.643 160.808 222.987 161.446 226.075C161.625 226.994 160.961 227.913 159.914 228.143L151.287 230.031C150.215 230.261 149.168 229.751 148.862 228.832L146.437 221.787C146.208 221.047 146.667 220.255 147.484 220Z" fill="#BDD0FB"/>
<g opacity="0.6">
<path opacity="0.6" d="M169.078 217.933C168.542 218.06 168.287 218.571 168.567 219.056L170.277 222.297C170.533 222.782 171.196 223.089 171.732 222.961L270.82 199.07C271.357 198.942 271.688 198.38 271.561 197.844L271.05 195.828C270.923 195.292 270.361 194.935 269.799 195.062L169.078 217.933Z" fill="white"/>
</g>
<path d="M155.422 255.174C154.12 255.174 152.946 254.433 152.538 253.259L149.5 244.428C149.322 243.892 149.373 243.304 149.628 242.768C149.934 242.181 150.47 241.722 151.134 241.543C152.027 241.262 153.252 240.88 154.605 240.446C157.541 239.501 160.884 238.429 162.875 237.944C164.356 237.587 165.836 238.199 166.474 239.399C167.521 241.365 168.363 245.295 169.231 249.533C169.512 250.962 168.491 252.391 166.934 252.723L156.137 255.097C155.907 255.148 155.652 255.174 155.422 255.174ZM151.466 242.513C151.057 242.641 150.726 242.896 150.572 243.228C150.419 243.509 150.394 243.815 150.496 244.096L153.533 252.927C153.84 253.846 154.886 254.331 155.984 254.102L166.781 251.728C167.802 251.498 168.465 250.605 168.287 249.737C167.444 245.602 166.602 241.722 165.632 239.884C165.198 239.093 164.177 238.684 163.182 238.94C161.216 239.425 157.77 240.522 154.988 241.416C153.584 241.85 152.359 242.232 151.466 242.513Z" fill="white"/>
<path d="M152.793 243.1C155.014 242.437 159.838 240.803 162.161 240.216C163.156 239.986 164.152 240.369 164.586 241.186C165.428 242.743 166.117 246.087 166.755 249.175C166.934 250.094 166.27 251.013 165.249 251.243L156.622 253.132C155.55 253.361 154.503 252.851 154.197 251.932L151.772 244.887C151.517 244.147 151.976 243.356 152.793 243.1Z" fill="#BDD0FB"/>
<g opacity="0.6">
<path opacity="0.6" d="M174.413 241.058C173.877 241.186 173.621 241.696 173.902 242.181L175.612 245.423C175.868 245.908 176.531 246.214 177.067 246.087L276.155 222.195C276.691 222.068 277.023 221.506 276.896 220.97L276.385 218.954C276.258 218.418 275.696 218.06 275.134 218.188L174.413 241.058Z" fill="white"/>
</g>
<path d="M160.731 278.274C159.43 278.274 158.256 277.533 157.847 276.359L154.81 267.528C154.631 266.992 154.682 266.405 154.937 265.869C155.244 265.281 155.78 264.822 156.443 264.643C157.337 264.363 158.562 263.98 159.915 263.546C162.85 262.601 166.194 261.529 168.185 261.044C169.665 260.687 171.146 261.3 171.784 262.499C172.83 264.465 173.673 268.396 174.541 272.633C174.821 274.062 173.8 275.491 172.243 275.823L161.446 278.197C161.216 278.248 160.987 278.274 160.731 278.274ZM156.775 265.613C156.367 265.741 156.035 265.996 155.882 266.328C155.729 266.609 155.703 266.915 155.805 267.196L158.843 276.028C159.149 276.946 160.195 277.431 161.293 277.202L172.09 274.828C173.111 274.598 173.775 273.705 173.596 272.837C172.754 268.702 171.911 264.822 170.941 262.984C170.508 262.193 169.487 261.785 168.491 262.04C166.526 262.525 163.08 263.622 160.298 264.516C158.894 264.95 157.668 265.358 156.775 265.613Z" fill="white"/>
<path d="M158.128 266.2C160.349 265.537 165.173 263.903 167.496 263.316C168.491 263.086 169.487 263.469 169.92 264.286C170.763 265.843 171.452 269.187 172.09 272.275C172.269 273.194 171.605 274.113 170.584 274.343L161.957 276.232C160.885 276.461 159.838 275.951 159.532 275.032L157.107 267.987C156.826 267.272 157.286 266.456 158.128 266.2Z" fill="#BDD0FB"/>
<g opacity="0.6">
<path opacity="0.6" d="M179.722 264.158C179.186 264.286 178.931 264.797 179.212 265.282L180.922 268.523C181.177 269.008 181.841 269.314 182.377 269.187L281.465 245.295C282.001 245.168 282.333 244.606 282.205 244.07L281.694 242.054C281.567 241.518 281.005 241.16 280.444 241.288L179.722 264.158Z" fill="white"/>
</g>
<path d="M171.886 39.9977C165.556 37.4452 160.808 38.6194 157.694 40.3806C154.861 41.9887 153.559 45.3835 154.58 48.472L159.634 63.8636L177.144 61.4387C177.144 61.4643 184.317 45.0006 171.886 39.9977ZM167.266 54.4194C164.892 54.9554 162.544 53.5005 162.008 51.1266C161.472 48.7528 162.927 46.4045 165.3 45.8685C167.674 45.3324 170.023 46.7874 170.559 49.1612C171.095 51.535 169.614 53.8833 167.266 54.4194Z" fill="url(#paint5_linear)"/>
<path d="M159.736 56.9718C159.532 56.9718 159.328 56.8442 159.251 56.6145L158.434 54.1641C158.358 53.9088 158.485 53.6025 158.766 53.526C159.021 53.4494 159.328 53.577 159.404 53.8578L160.221 56.3082C160.298 56.5634 160.17 56.8698 159.889 56.9463C159.838 56.9463 159.787 56.9718 159.736 56.9718ZM158.153 52.1476C157.949 52.1476 157.745 52.02 157.668 51.7903L157.056 49.9269C156.086 46.9405 157.337 43.6478 160.068 42.1163C161.982 41.0442 164.101 40.4572 166.321 40.4061C166.602 40.3806 166.832 40.6103 166.832 40.8911C166.832 41.1719 166.628 41.4016 166.347 41.4016C164.279 41.4526 162.34 41.9887 160.578 42.9841C158.281 44.2859 157.209 47.0681 158.026 49.5951L158.638 51.4584C158.715 51.7137 158.587 52.02 158.307 52.0966C158.256 52.1476 158.205 52.1476 158.153 52.1476Z" fill="#91B3FA"/>
<path d="M138.55 79.4339L136.738 71.5211C136.1 68.7899 137.861 66.0843 140.618 65.5482L195.598 54.8788C198.049 54.3938 200.448 55.8743 201.137 58.2481L203.333 65.7525L138.55 79.4339Z" fill="url(#paint6_linear)"/>
<path d="M154.222 65.6248C153.993 65.6248 153.789 65.4717 153.738 65.242C153.686 64.9612 153.84 64.7059 154.12 64.6294L156.469 64.0933C156.75 64.0423 157.005 64.1954 157.081 64.4762C157.132 64.757 156.979 65.0122 156.698 65.0888L154.35 65.6248C154.299 65.6248 154.248 65.6248 154.222 65.6248Z" fill="#91B3FA"/>
<path d="M140.847 76.3709C140.618 76.3709 140.414 76.2177 140.363 75.988L139.622 72.7974C139.342 71.5722 139.546 70.3214 140.209 69.2494C140.873 68.1773 141.92 67.4626 143.119 67.1819L151.747 65.1909C152.027 65.1398 152.283 65.293 152.359 65.5738C152.41 65.8545 152.257 66.1098 151.976 66.1864L143.349 68.1773C142.405 68.4071 141.588 68.9686 141.052 69.8109C140.541 70.6533 140.363 71.6232 140.592 72.5676L141.332 75.7583C141.384 76.039 141.23 76.2943 140.95 76.3709C140.924 76.3709 140.873 76.3709 140.847 76.3709Z" fill="#91B3FA"/>
<path d="M120.81 80.4804L216.197 58.5544C219.618 57.7631 223.114 59.5499 224.493 62.8171L224.671 63.2765C226.152 66.8245 224.084 70.883 220.332 71.7253L122.469 94.1873C120.223 94.6978 118.002 93.2429 117.594 90.9712L116.803 86.5553C116.292 83.7731 118.054 81.093 120.81 80.4804Z" fill="#7D97F4"/>
<path d="M466.342 377.949C459.706 377.949 454.345 370.776 454.345 361.919L454.448 247.261L481.096 247.286L478.364 361.945C478.364 370.802 472.979 377.949 466.342 377.949Z" fill="#7D97F4"/>
<path opacity="0.49" d="M466.367 374.197C461.288 374.197 457.178 368.683 457.178 361.919L457.281 247.261L478.211 247.286L475.556 361.894V361.945C475.556 368.709 471.421 374.197 466.367 374.197Z" fill="white"/>
<path d="M481.096 250.043L454.09 250.018C451.921 250.018 450.134 247.644 450.134 244.734C450.134 241.926 451.793 239.629 453.886 239.476L480.891 237.561C483.163 237.408 485.052 239.807 485.052 242.819V244.759C485.052 247.695 483.291 250.043 481.096 250.043Z" fill="#7D97F4"/>
<path d="M457.23 299.587L457.178 361.919C457.178 368.683 461.288 374.197 466.367 374.197C471.447 374.197 475.582 368.709 475.582 361.945V361.894L477.011 299.613L457.23 299.587Z" fill="url(#paint7_linear)"/>
<path d="M507.463 378C500.827 378 495.467 370.827 495.467 361.97L495.569 247.312L522.217 247.337L519.486 361.996C519.486 370.827 514.1 378 507.463 378Z" fill="#7D97F4"/>
<path opacity="0.49" d="M507.463 374.248C502.384 374.248 498.274 368.734 498.274 361.97L498.376 247.312L519.307 247.337L516.652 361.945V361.996C516.652 368.734 512.543 374.248 507.463 374.248Z" fill="white"/>
<path d="M522.217 250.069L495.211 250.043C493.042 250.043 491.255 247.669 491.255 244.759C491.255 241.952 492.914 239.654 495.007 239.501L522.013 237.587C524.284 237.434 526.173 239.833 526.173 242.845V244.785C526.173 247.72 524.386 250.069 522.217 250.069Z" fill="#7D97F4"/>
<path d="M498.325 299.613L498.274 361.945C498.274 368.709 502.384 374.222 507.463 374.222C512.543 374.222 516.678 368.734 516.678 361.97V361.919L518.107 299.638L498.325 299.613Z" fill="url(#paint8_linear)"/>
<path d="M577.146 302.191C561.448 297.851 468.461 276.87 419.376 371.491C419.376 371.491 474.561 403.04 577.427 304.769C578.32 303.901 578.167 302.471 577.146 302.191Z" fill="#A0C5DD"/>
<path d="M560.504 310.027C549.349 312.069 538.272 314.443 527.219 317.046C516.193 319.675 505.217 322.534 494.343 325.725C488.906 327.307 483.495 329.017 478.135 330.804C472.749 332.591 467.44 334.505 462.156 336.547C459.501 337.543 456.898 338.64 454.294 339.712C451.716 340.836 449.113 341.959 446.56 343.158C441.455 345.558 436.427 348.136 431.603 351.046C431.118 351.326 430.505 351.173 430.199 350.714C429.918 350.229 430.071 349.616 430.531 349.31C435.457 346.4 440.562 343.822 445.744 341.448C448.322 340.248 450.951 339.151 453.58 338.028C456.234 336.981 458.863 335.884 461.518 334.914C466.827 332.897 472.213 331.034 477.624 329.273C483.036 327.512 488.472 325.852 493.935 324.321C504.859 321.207 515.886 318.425 526.964 315.898C538.042 313.396 549.171 311.099 560.351 309.133C560.581 309.082 560.81 309.261 560.836 309.491C560.887 309.772 560.734 309.976 560.504 310.027Z" fill="url(#paint9_linear)"/>
<path d="M483.955 282.128C473.847 285.166 415.624 305.662 421.265 374.452C421.265 374.452 462.386 372.767 485.001 283.455C485.205 282.664 484.618 281.924 483.955 282.128Z" fill="#B4D6ED"/>
<path d="M477.624 292.261C472.213 297.213 466.98 302.369 461.824 307.602C456.694 312.835 451.665 318.195 446.841 323.708C444.416 326.465 442.042 329.247 439.72 332.08C437.397 334.914 435.151 337.798 432.956 340.733C430.76 343.669 428.667 346.655 426.702 349.744C424.737 352.807 422.899 355.946 421.265 359.214C421.01 359.724 420.397 359.928 419.912 359.673C419.402 359.418 419.198 358.805 419.453 358.32C421.163 355.002 423.077 351.837 425.119 348.748C427.161 345.66 429.306 342.648 431.552 339.738C433.798 336.803 436.095 333.918 438.469 331.111C440.843 328.277 443.268 325.521 445.744 322.789C450.67 317.327 455.775 312.018 461.008 306.836C466.24 301.655 471.549 296.575 477.037 291.674C477.216 291.521 477.497 291.521 477.65 291.7C477.828 291.827 477.803 292.108 477.624 292.261Z" fill="#BDD0FB"/>
<path d="M427.876 376.775C421.24 376.775 415.879 369.602 415.879 360.745L415.981 246.087L442.63 246.112L439.898 360.771C439.898 369.602 434.513 376.775 427.876 376.775Z" fill="#7D97F4"/>
<path opacity="0.49" d="M427.876 373.023C422.797 373.023 418.687 367.509 418.687 360.745L418.789 246.087L439.72 246.112L437.065 360.72V360.771C437.065 367.535 432.955 373.023 427.876 373.023Z" fill="white"/>
<path d="M442.629 248.869L415.624 248.843C413.454 248.843 411.668 246.47 411.668 243.56C411.668 240.752 413.327 238.455 415.42 238.302L442.425 236.387C444.697 236.234 446.586 238.633 446.586 241.645V243.585C446.586 246.495 444.799 248.869 442.629 248.869Z" fill="#7D97F4"/>
<path d="M418.738 298.413L418.687 360.745C418.687 367.509 422.797 373.023 427.876 373.023C432.955 373.023 437.091 367.535 437.091 360.771V360.72L438.52 298.438L418.738 298.413Z" fill="url(#paint10_linear)"/>
<path d="M391.248 377.872C384.611 377.872 379.251 370.7 379.251 361.843L379.353 247.184L406.001 247.21L403.27 361.868C403.27 370.725 397.884 377.898 391.248 377.872Z" fill="#7D97F4"/>
<path opacity="0.49" d="M391.248 374.12C386.168 374.12 382.059 368.607 382.059 361.843L382.161 247.184L403.091 247.21L400.437 361.817V361.868C400.462 368.632 396.327 374.12 391.248 374.12Z" fill="white"/>
<path d="M406.001 249.967L378.996 249.941C376.826 249.941 375.039 247.567 375.039 244.657C375.039 241.85 376.698 239.552 378.791 239.399L405.797 237.485C408.069 237.332 409.958 239.731 409.958 242.743V244.683C409.958 247.618 408.171 249.967 406.001 249.967Z" fill="#7D97F4"/>
<path d="M382.135 299.511L382.084 361.843C382.084 368.607 386.194 374.12 391.273 374.12C396.352 374.12 400.488 368.632 400.488 361.868V361.817L401.917 299.536L382.135 299.511Z" fill="url(#paint11_linear)"/>
<path d="M61.4644 369.602H246.24V332.616H61.4644C65.4207 332.616 65.4207 369.602 61.4644 369.602Z" fill="#BDD0FB"/>
<path d="M246.24 360.362V343.439C246.24 337.466 242.59 332.642 238.072 332.642H56.0787C55.9511 332.642 55.8235 332.54 55.8235 332.387V324.525C55.8235 324.397 55.9511 324.27 56.0787 324.27H249.967C254.383 324.27 261.376 331.187 261.376 339.738V363.374C261.376 371.44 254.587 377.974 250.426 377.974H56.0787C55.9511 377.974 55.8235 377.847 55.8235 377.719V369.857C55.8235 369.73 55.9511 369.602 56.0787 369.602H239.246C243.101 369.602 246.24 365.467 246.24 360.362Z" fill="url(#paint12_linear)"/>
<path d="M241.109 340.733H67.8711C67.5903 340.733 67.3606 340.504 67.3606 340.223C67.3606 339.942 67.5903 339.712 67.8711 339.712H241.135C241.416 339.712 241.645 339.942 241.645 340.223C241.62 340.504 241.39 340.733 241.109 340.733Z" fill="url(#paint13_linear)"/>
<path d="M241.109 346.221H67.8711C67.5903 346.221 67.3606 345.992 67.3606 345.711C67.3606 345.43 67.5903 345.2 67.8711 345.2H241.135C241.416 345.2 241.645 345.43 241.645 345.711C241.62 345.992 241.39 346.221 241.109 346.221Z" fill="url(#paint14_linear)"/>
<path d="M241.109 351.709H67.8711C67.5903 351.709 67.3606 351.479 67.3606 351.199C67.3606 350.918 67.5903 350.688 67.8711 350.688H241.135C241.416 350.688 241.645 350.918 241.645 351.199C241.62 351.479 241.39 351.709 241.109 351.709Z" fill="url(#paint15_linear)"/>
<path d="M241.109 357.197H67.8711C67.5903 357.197 67.3606 356.967 67.3606 356.687C67.3606 356.406 67.5903 356.176 67.8711 356.176H241.135C241.416 356.176 241.645 356.406 241.645 356.687C241.62 356.967 241.39 357.197 241.109 357.197Z" fill="url(#paint16_linear)"/>
<path d="M241.109 362.685H67.8711C67.5903 362.685 67.3606 362.455 67.3606 362.174C67.3606 361.894 67.5903 361.664 67.8711 361.664H241.135C241.416 361.664 241.645 361.894 241.645 362.174C241.645 362.455 241.39 362.685 241.109 362.685Z" fill="url(#paint17_linear)"/>
<path d="M222.732 324.142H84.3859C81.374 324.142 78.9236 321.692 78.9236 318.68V292.083C78.9236 289.071 81.374 286.62 84.3859 286.62H222.732C225.743 286.62 228.194 289.071 228.194 292.083V318.68C228.194 321.692 225.743 324.142 222.732 324.142Z" fill="#7D97F4"/>
<path d="M113.357 290.934H95.821V319.828H113.357V290.934Z" fill="#91B3FA"/>
<path d="M122.52 290.934H115.935V319.828H122.52V290.934Z" fill="#91B3FA"/>
<path d="M175.204 311.89C175.153 311.865 152.487 272.173 149.424 268.421C148.913 267.783 148.122 267.477 147.305 267.579L140.975 268.345L133.547 284.425L145.927 277.202C144.702 285.676 160.604 298.285 166.066 302.88C166.628 303.339 166.653 304.182 166.168 304.718L163.998 306.989C167.572 310.614 171.707 312.937 176.353 314.009L175.204 311.89Z" fill="url(#paint18_linear)"/>
<path d="M165.249 305.739C165.249 305.739 163.871 306.198 163.386 307.423C163.156 308.01 163.411 308.7 163.922 309.057C166.219 310.691 173.774 316 177.246 317.021C177.527 317.097 177.807 316.842 177.731 316.561C177.552 315.745 176.965 314.136 175.102 311.763L175.28 312.094C175.485 312.528 175.025 312.962 174.617 312.733C172.294 311.431 167.546 308.572 165.249 305.739Z" fill="url(#paint19_linear)"/>
<path d="M166.372 321.641C166.347 321.615 162.926 313.422 162.901 313.396C159.787 294.406 152.18 278.146 149.934 273.858C149.551 273.143 148.837 272.658 148.02 272.582L141.664 272.046L131.122 286.289L144.702 281.72C141.792 289.786 154.81 305.33 159.225 310.946C159.685 311.507 159.557 312.35 158.945 312.758L156.341 314.545C159.098 318.808 162.671 321.947 167.036 323.938L166.372 321.641Z" fill="url(#paint20_linear)"/>
<path d="M157.872 313.6C157.872 313.6 156.417 313.754 155.703 314.877C155.371 315.413 155.473 316.127 155.881 316.587C157.796 318.654 164.126 325.367 167.317 327.103C167.572 327.256 167.904 327.052 167.904 326.746C167.904 325.929 167.648 324.219 166.296 321.513L166.398 321.871C166.525 322.33 165.964 322.687 165.606 322.356C163.616 320.62 159.557 316.817 157.872 313.6Z" fill="url(#paint21_linear)"/>
<path d="M111.953 269.034C111.953 269.034 106.21 277.585 105.725 281.464C105.265 285.37 107.307 286.723 113.331 287.208C131.224 288.688 140.056 283.328 140.056 283.328C141.281 275.517 142.149 273.526 152.385 269.289C152.385 269.289 139.443 270.31 136.84 269.315C134.236 268.319 111.953 269.034 111.953 269.034Z" fill="url(#paint22_linear)"/>
<path d="M134.848 221.174C134.848 221.174 130.841 216.452 126.604 222.246C125.838 223.293 122.877 222.425 121.78 224.62C121.218 225.769 120.018 226.407 118.768 226.177C115.654 225.616 110.6 225.565 108.073 230.414C106.158 234.115 107.639 236.311 109.553 237.536C110.957 238.455 111.468 240.293 110.6 241.722C109.783 243.1 109.63 244.989 111.723 247.235C116.445 252.289 125.762 244.019 125.762 244.019L133.164 226.509L134.848 221.174Z" fill="url(#paint23_linear)"/>
<path d="M127.498 267.911C127.498 267.911 134.185 261.529 137.478 257.318C139.265 255.046 139.826 252.034 138.984 249.252C137.478 244.198 134.798 238.94 134.568 238.123C134.185 236.872 126.681 236.923 126.681 236.923C126.681 236.923 111.927 246.495 106.108 262.729L112.617 264.746C112.617 264.746 116.471 258.288 120.274 254.178C120.274 254.178 113.689 262.882 113.459 266.456L127.498 267.911Z" fill="url(#paint24_linear)"/>
<path d="M140.235 270.438L135.206 264.975L129.412 266.532C129.412 266.532 122.648 267.579 118.768 266.532C114.888 265.486 114.888 265.486 114.888 265.486L106.133 262.755L104.755 266.634C104.397 267.63 104.755 268.727 105.597 269.314C106.363 269.85 107.231 270.438 107.818 270.693C108.966 271.203 134.364 270.846 134.364 270.846L140.235 270.438Z" fill="url(#paint25_linear)"/>
<path d="M131.837 227.913L126.783 237.281C127.115 239.323 132.271 239.374 133.062 238.174C133.139 238.046 133.19 237.893 133.215 237.766L136.227 231.512C136.355 230.899 134.67 228.832 134.134 228.551L132.118 227.479C131.403 227.071 134.619 227.02 131.837 227.913Z" fill="url(#paint26_linear)"/>
<path d="M142.047 225.718C142.047 225.718 142.608 228.883 140.132 232.916C137.631 236.949 135.155 236.77 133.904 235.315C132.654 233.886 131.148 231.486 131.811 227.479C132.5 223.472 141.179 221.685 142.047 225.718Z" fill="url(#paint27_linear)"/>
<path d="M134.823 227.913C134.823 227.913 138.856 222.629 141.945 227.224L141.894 228.806C141.894 228.806 145.927 228.628 145.493 224.901C145.059 221.2 141.766 218.647 137.223 219.924C132.679 221.2 129.999 222.629 129.489 225.794C128.978 228.959 131.556 228.449 131.556 228.449C131.556 228.449 132.552 226.279 133.726 226.126C134.925 225.973 134.491 227.709 134.491 227.709L134.823 227.913Z" fill="url(#paint28_linear)"/>
<path d="M133.904 227.785C133.904 227.785 135.997 225.08 134.083 224.518C132.194 223.957 132.245 227.173 132.373 228.372L133.904 227.785Z" fill="url(#paint29_linear)"/>
<path d="M123.592 272.582C123.618 272.582 123.618 272.582 123.643 272.582L146.769 272.556C147.33 272.556 147.815 272.097 147.815 271.51C147.815 270.948 147.356 270.463 146.769 270.463L123.643 270.489C123.082 270.489 122.597 270.948 122.597 271.535C122.622 272.122 123.056 272.556 123.592 272.582Z" fill="url(#paint30_linear)"/>
<path d="M167.546 251.6H148.3C146.871 251.6 145.595 252.417 144.982 253.693L136.074 272.582H160.016C160.935 272.582 161.752 272.02 162.084 271.178L168.976 253.719C169.384 252.698 168.644 251.6 167.546 251.6Z" fill="url(#paint31_linear)"/>
<path d="M153.993 261.274C153.584 262.576 153.89 263.827 154.682 264.082C155.473 264.337 156.468 263.495 156.877 262.193C157.285 260.891 156.979 259.641 156.188 259.385C155.396 259.13 154.401 259.972 153.993 261.274Z" fill="#7D97F4"/>
<path d="M388.721 189.932C388.721 166.806 369.96 148.045 346.834 148.045H260.84C237.715 148.045 218.954 166.806 218.954 189.932V354.543C218.954 367.458 229.419 377.923 242.335 377.923H365.34C378.255 377.923 388.721 367.458 388.721 354.543V189.932Z" fill="url(#paint32_linear)"/>
<path d="M303.85 188.145C323.606 188.145 339.636 172.115 339.636 152.359C339.636 150.904 339.534 149.449 339.381 148.045H268.37C268.191 149.449 268.089 150.904 268.089 152.359C268.064 172.115 284.068 188.145 303.85 188.145Z" fill="url(#paint33_linear)"/>
<path d="M289.428 91.9667L289.633 185.21C293.997 187.098 298.796 188.145 303.85 188.145C308.904 188.145 313.703 187.098 318.068 185.21L317.863 91.9667C317.863 87.0659 313.907 83.1095 309.006 83.1095H298.311C293.385 83.084 289.428 87.0659 289.428 91.9667Z" fill="#91B3FA"/>
<path d="M308.496 83.084H297.801C292.9 83.084 288.943 87.0403 288.943 91.9411V135.359H317.353V91.9667C317.378 87.0659 313.396 83.084 308.496 83.084Z" fill="#7D97F4"/>
<path d="M249.609 323.632C242.845 323.632 237.357 318.144 237.357 311.38V206.497C237.357 199.733 242.845 194.245 249.609 194.245H358.065C364.829 194.245 370.317 199.733 370.317 206.497V311.405C370.317 318.169 364.829 323.657 358.065 323.657H249.609V323.632Z" fill="url(#paint34_linear)"/>
<path d="M365.238 206.497C365.238 202.541 362.022 199.325 358.065 199.325H249.609C245.653 199.325 242.437 202.541 242.437 206.497V311.405C242.437 315.362 245.653 318.578 249.609 318.578H358.065C362.022 318.578 365.238 315.362 365.238 311.405V206.497Z" fill="url(#paint35_linear)"/>
<path d="M311.533 113.535C311.533 122.775 307.781 127.753 303.161 127.753C298.541 127.753 294.789 122.801 294.789 113.535C294.789 104.295 298.541 94.2639 303.161 94.2639C307.781 94.2639 311.533 104.295 311.533 113.535Z" fill="url(#paint36_linear)"/>
<path d="M260.866 256.654C262.29 256.654 263.444 250.289 263.444 242.437C263.444 234.585 262.29 228.219 260.866 228.219C259.442 228.219 258.288 234.585 258.288 242.437C258.288 250.289 259.442 256.654 260.866 256.654Z" fill="url(#paint37_linear)"/>
<path d="M277.662 227.556C285.514 227.556 291.879 226.401 291.879 224.978C291.879 223.554 285.514 222.399 277.662 222.399C269.809 222.399 263.444 223.554 263.444 224.978C263.444 226.401 269.809 227.556 277.662 227.556Z" fill="url(#paint38_linear)"/>
<path d="M260.866 290.219C262.29 290.219 263.444 283.854 263.444 276.002C263.444 268.15 262.29 261.785 260.866 261.785C259.442 261.785 258.288 268.15 258.288 276.002C258.288 283.854 259.442 290.219 260.866 290.219Z" fill="url(#paint39_linear)"/>
<path d="M294.457 256.654C295.88 256.654 297.035 250.289 297.035 242.437C297.035 234.585 295.88 228.219 294.457 228.219C293.033 228.219 291.879 234.585 291.879 242.437C291.879 250.289 293.033 256.654 294.457 256.654Z" fill="url(#paint40_linear)"/>
<path d="M294.457 290.219C295.88 290.219 297.035 283.854 297.035 276.002C297.035 268.15 295.88 261.785 294.457 261.785C293.033 261.785 291.879 268.15 291.879 276.002C291.879 283.854 293.033 290.219 294.457 290.219Z" fill="url(#paint41_linear)"/>
<path d="M277.662 261.121C285.514 261.121 291.879 259.967 291.879 258.543C291.879 257.119 285.514 255.965 277.662 255.965C269.809 255.965 263.444 257.119 263.444 258.543C263.444 259.967 269.809 261.121 277.662 261.121Z" fill="url(#paint42_linear)"/>
<path d="M277.662 294.712C285.514 294.712 291.879 293.558 291.879 292.134C291.879 290.71 285.514 289.556 277.662 289.556C269.809 289.556 263.444 290.71 263.444 292.134C263.444 293.558 269.809 294.712 277.662 294.712Z" fill="url(#paint43_linear)"/>
<path d="M313.243 256.654C314.667 256.654 315.821 250.289 315.821 242.437C315.821 234.585 314.667 228.219 313.243 228.219C311.82 228.219 310.665 234.585 310.665 242.437C310.665 250.289 311.82 256.654 313.243 256.654Z" fill="url(#paint44_linear)"/>
<path d="M330.013 227.556C337.865 227.556 344.231 226.401 344.231 224.978C344.231 223.554 337.865 222.399 330.013 222.399C322.161 222.399 315.796 223.554 315.796 224.978C315.796 226.401 322.161 227.556 330.013 227.556Z" fill="url(#paint45_linear)"/>
<path d="M346.809 290.219C348.233 290.219 349.387 283.854 349.387 276.002C349.387 268.15 348.233 261.785 346.809 261.785C345.385 261.785 344.231 268.15 344.231 276.002C344.231 283.854 345.385 290.219 346.809 290.219Z" fill="url(#paint46_linear)"/>
<path d="M330.013 261.121C337.865 261.121 344.231 259.967 344.231 258.543C344.231 257.119 337.865 255.965 330.013 255.965C322.161 255.965 315.796 257.119 315.796 258.543C315.796 259.967 322.161 261.121 330.013 261.121Z" fill="url(#paint47_linear)"/>
<path d="M330.013 294.712C337.865 294.712 344.231 293.558 344.231 292.134C344.231 290.71 337.865 289.556 330.013 289.556C322.161 289.556 315.796 290.71 315.796 292.134C315.796 293.558 322.161 294.712 330.013 294.712Z" fill="url(#paint48_linear)"/>
<path d="M304.335 294.712C305.533 294.712 306.505 293.74 306.505 292.542C306.505 291.344 305.533 290.373 304.335 290.373C303.137 290.373 302.166 291.344 302.166 292.542C302.166 293.74 303.137 294.712 304.335 294.712Z" fill="url(#paint49_linear)"/>
<path d="M300.685 348.825C300.685 359.239 292.262 367.662 281.848 367.662C271.433 367.662 257.752 359.239 257.752 348.825C257.752 338.411 271.459 329.987 281.848 329.987C292.236 329.987 300.685 338.411 300.685 348.825Z" fill="#7D97F4"/>
<path d="M286.57 354.594C286.57 356.687 284.375 358.039 282.511 357.095L270.948 351.301C268.881 350.28 268.881 347.319 270.948 346.298L282.511 340.504C284.375 339.585 286.57 340.938 286.57 343.005V354.594Z" fill="url(#paint50_linear)"/>
<path d="M306.99 348.825C306.99 359.239 315.413 367.662 325.827 367.662C336.241 367.662 349.923 359.239 349.923 348.825C349.923 338.411 336.216 329.987 325.827 329.987C315.439 329.987 306.99 338.411 306.99 348.825Z" fill="#7D97F4"/>
<path d="M321.105 354.594C321.105 356.687 323.3 358.039 325.163 357.095L336.726 351.301C338.794 350.28 338.794 347.319 336.726 346.298L325.163 340.504C323.3 339.585 321.105 340.938 321.105 343.005V354.594Z" fill="url(#paint51_linear)"/>
<path d="M252.417 369.041H241.62C233.58 369.041 227.045 362.506 227.045 354.466V290.704C227.045 290.143 227.505 289.683 228.066 289.683C228.628 289.683 229.087 290.143 229.087 290.704V354.466C229.087 361.383 234.728 367.024 241.645 367.024H252.443C253.004 367.024 253.464 367.484 253.464 368.045C253.438 368.581 252.979 369.041 252.417 369.041Z" fill="#91B3FA"/>
<path d="M228.041 275.67C227.479 275.67 227.02 275.211 227.02 274.649V267.808C227.02 267.247 227.479 266.787 228.041 266.787C228.602 266.787 229.062 267.247 229.062 267.808V274.649C229.062 275.236 228.602 275.67 228.041 275.67Z" fill="#91B3FA"/>
<path d="M384.611 99.2668C384.611 118.819 368.76 134.696 349.183 134.696C329.605 134.696 313.754 118.844 313.754 99.2668C313.754 83.7731 335.961 47.7573 345.201 33.4378C347.064 30.5535 351.276 30.5535 353.139 33.4378C362.405 47.7573 384.611 83.7731 384.611 99.2668Z" fill="url(#paint52_linear)"/>
<path opacity="0.68" d="M344.843 128.161C344.767 128.161 344.69 128.161 344.613 128.136C336.139 126.604 328.405 120.887 324.398 113.28C320.416 105.648 320.135 96.0507 323.708 88.2145C323.989 87.5763 324.755 87.2956 325.393 87.5763C326.031 87.8571 326.312 88.6229 326.031 89.261C322.789 96.408 323.019 105.163 326.669 112.106C330.319 119.049 337.364 124.256 345.073 125.66C345.762 125.787 346.222 126.451 346.094 127.14C345.966 127.753 345.43 128.161 344.843 128.161Z" fill="white"/>
<path d="M458.914 236.515C461.773 236.77 466.725 237.153 470.63 237.332C472.979 237.434 474.331 237.204 475.097 236.898C475.097 236.974 475.097 237.076 475.097 237.153C475.072 237.561 474.74 237.893 474.331 237.919C466.955 238.327 461.084 238.072 458.991 237.944C458.557 237.919 458.302 237.459 458.532 237.076C458.634 236.872 458.787 236.694 458.914 236.515Z" fill="url(#paint53_linear)"/>
<path d="M470.63 237.332C466.725 237.153 461.773 236.77 458.914 236.515C461.722 233.069 470.63 230.746 470.63 230.746H473.157C474.893 233.248 475.148 235.621 475.123 236.898C474.331 237.204 472.979 237.434 470.63 237.332Z" fill="url(#paint54_linear)"/>
<path d="M473.566 226.662L473.336 231.308C473.311 231.818 472.928 232.227 472.417 232.303C471.907 232.38 471.243 232.38 470.528 232.15C470.094 231.997 469.763 231.64 469.686 231.18L468.869 226.637H473.566V226.662Z" fill="url(#paint55_linear)"/>
<path d="M506.238 237.306C507.463 237.127 508.024 236.489 508.28 235.8C508.28 235.8 508.28 235.8 508.28 235.826C508.458 236.54 508.05 237.306 507.208 237.663C506.187 238.097 505.064 238.174 504.196 238.123C503.277 238.072 502.409 237.689 501.949 237.076C502.868 237.536 504.17 237.587 506.238 237.306Z" fill="url(#paint56_linear)"/>
<path d="M500.393 226.611H502.46C505.625 226.535 507.591 233.197 508.254 235.8C508.025 236.489 507.463 237.127 506.212 237.306C504.145 237.587 502.843 237.536 501.899 237.076C500.188 234.83 499.346 231.537 498.938 229.623C498.504 227.428 500.393 226.611 500.393 226.611Z" fill="url(#paint57_linear)"/>
<path d="M502.205 222.297L503.354 226.866C503.507 227.428 503.226 228.015 502.716 228.27C502.077 228.602 501.159 228.959 500.342 228.857C499.959 228.806 499.627 228.526 499.499 228.168L497.815 223.344L502.205 222.297Z" fill="url(#paint58_linear)"/>
<path d="M503.583 223.625C502.154 224.901 497.483 225.054 497.483 225.054C480.687 184.776 473.821 179.033 473.821 179.033C476.246 194.245 474.204 227.913 474.204 227.913C471.422 229.138 467.874 227.913 467.874 227.913C467.644 203.026 463.815 181.304 459.297 164.202C470.63 163.947 476.68 160.067 478.645 158.51C488.115 173.749 503.583 223.625 503.583 223.625Z" fill="url(#paint59_linear)"/>
<path d="M475.786 112.182C477.931 122.903 477.165 142.072 476.654 150.802C476.501 153.252 483.214 161.012 488.319 176.429C488.447 176.837 488.396 177.271 488.013 177.45C485.69 178.65 472.366 179.62 463.254 180.079C462.641 180.105 462.054 179.696 461.952 179.109C457.026 153.227 444.722 122.801 444.059 123.031C452.763 109.171 475.786 112.182 475.786 112.182Z" fill="url(#paint60_linear)"/>
<path d="M489.238 142.915C488.549 147.892 486.507 153.354 482.423 159.123L480.866 157.872C480.866 157.872 482.653 150.623 481.632 142.379C484.184 141.894 487.145 142.379 489.238 142.915Z" fill="url(#paint61_linear)"/>
<path d="M473.387 125.404L475.787 112.182C475.787 112.182 491.816 124.435 489.264 142.915C487.171 142.379 484.184 141.868 481.683 142.379C480.943 136.431 478.747 129.999 473.387 125.404Z" fill="url(#paint62_linear)"/>
<path d="M444.085 123.005C447.046 125.251 448.781 130.484 450.262 136.329C449.266 144.37 444.952 147.841 440.281 149.194C440.001 145.518 439.056 142.557 438.214 140.515C444.161 134.364 444.085 123.005 444.085 123.005Z" fill="url(#paint63_linear)"/>
<path d="M438.214 140.515C439.082 142.557 440.001 145.518 440.281 149.194C427.851 154.018 424.558 144.676 424.558 144.676L426.855 144.267C432.062 144.803 435.687 143.119 438.214 140.515Z" fill="url(#paint64_linear)"/>
<path d="M449.777 106.567L452.763 117.543C453.095 118.768 454.422 119.432 455.622 118.972C456.898 118.462 458.532 117.772 459.936 117.007C461.416 116.19 461.901 114.276 460.957 112.872L454.754 103.606L449.777 106.567Z" fill="url(#paint65_linear)"/>
<path d="M418.892 137.325L495.416 165.172C498.632 166.347 500.163 169.997 498.734 173.111L498.504 173.621C497.253 176.378 494.012 177.578 491.255 176.301L416.952 141.919L418.892 137.325Z" fill="url(#paint66_linear)"/>
<g opacity="0.37">
<path opacity="0.37" d="M383.718 157.643C404.582 157.643 421.495 141.038 421.495 120.555C421.495 100.072 404.582 83.4668 383.718 83.4668C362.854 83.4668 345.941 100.072 345.941 120.555C345.941 141.038 362.854 157.643 383.718 157.643Z" fill="#BDD0FB"/>
</g>
<path d="M341.678 120.555C341.678 143.349 360.49 161.829 383.718 161.829C406.92 161.829 425.758 143.349 425.758 120.555C425.758 97.7608 406.946 79.2807 383.718 79.2807C360.49 79.2807 341.678 97.7608 341.678 120.555ZM347.855 120.555C347.855 101.105 363.911 85.3557 383.718 85.3557C403.525 85.3557 419.581 101.13 419.581 120.555C419.581 140.005 403.525 155.754 383.718 155.754C363.911 155.779 347.855 140.005 347.855 120.555Z" fill="url(#paint67_linear)"/>
<path d="M422.541 125.634H422.516C422.388 125.609 422.286 125.481 422.286 125.353C422.414 124.383 422.49 123.413 422.541 122.444C422.541 122.316 422.669 122.188 422.797 122.214C422.924 122.214 423.052 122.341 423.026 122.469C422.975 123.465 422.899 124.46 422.771 125.43C422.771 125.558 422.669 125.634 422.541 125.634ZM422.261 114.097C422.133 114.097 422.031 114.02 422.005 113.893C421.546 111.289 420.78 108.711 419.759 106.235C413.786 91.7369 399.62 82.3693 383.692 82.3693C376.264 82.3693 369.041 84.4368 362.813 88.3421C362.685 88.4187 362.532 88.3932 362.455 88.2655C362.379 88.1379 362.404 87.9848 362.532 87.9082C368.837 83.9518 376.162 81.8588 383.692 81.8588C399.824 81.8588 414.169 91.3541 420.219 106.031C421.24 108.532 422.005 111.136 422.49 113.791C422.516 113.918 422.414 114.071 422.286 114.097C422.286 114.097 422.286 114.097 422.261 114.097Z" fill="#91B3FA"/>
<path d="M443.268 98.2203C443.242 98.399 445.769 110.753 445.769 110.753L452.789 109.171L452.151 97.1227C452.125 97.1227 443.702 95.0807 443.268 98.2203Z" fill="url(#paint68_linear)"/>
<path d="M450.543 99.8028L451.385 106.108C451.385 106.184 451.385 106.261 451.385 106.337C451.308 106.822 450.951 108.507 449.241 108.047C447.709 107.613 446.28 107.231 445.31 107.537C444.876 107.665 444.595 108.124 444.697 108.558C444.927 109.681 445.489 112.208 446.305 114.301C446.484 114.735 446.944 114.965 447.377 114.837C448.705 114.454 451.487 113.561 453.555 112.31C453.835 112.131 454.014 111.825 453.988 111.519C453.912 109.936 453.733 105.087 453.886 103.708C454.04 102.432 455.597 101.666 456.286 101.385C456.515 101.283 456.694 101.13 456.771 100.9C457.077 100.109 457.511 98.2969 455.214 97.5311C454.729 97.378 454.473 96.8675 454.652 96.3825C454.984 95.4381 455.137 93.9831 453.35 93.1919C451.538 92.3751 450.185 93.345 449.471 94.1363C449.164 94.4426 448.705 94.4936 448.347 94.2639C448.143 94.1363 447.862 94.0852 447.556 94.2894C447.122 94.5702 446.535 94.366 446.305 93.9066C445.872 93.0132 444.978 92.0688 443.217 92.3751C440.077 92.9111 439.72 96.408 440.537 98.45C441.354 100.492 444.748 99.7263 446.433 98.6797C447.709 97.8885 449.394 98.7053 450.109 99.1647C450.338 99.2923 450.492 99.5476 450.543 99.8028Z" fill="url(#paint69_linear)"/>
<path d="M454.167 106.031C454.167 106.031 452.866 102.406 454.193 101.539C455.52 100.645 457.485 101.105 457.052 103.734C456.541 106.975 454.167 106.031 454.167 106.031Z" fill="url(#paint70_linear)"/>
<path d="M481.53 157.643L474.306 157.055L471.167 159.94C471.167 159.94 471.907 160.961 474.23 160.374C476.553 159.787 479.718 159.633 479.718 159.633C479.718 159.633 482.908 161.063 482.959 158.383L481.53 157.643Z" fill="url(#paint71_linear)"/>
<path d="M425.503 146.361C424.864 146.845 422.746 145.824 421.418 145.135C420.78 144.803 420.474 144.038 420.678 143.349C420.985 142.353 421.521 141.077 422.159 140.898C423.256 140.643 428.081 144.37 425.503 146.361Z" fill="url(#paint72_linear)"/>
<path d="M493.884 175.204C493.782 175.204 493.68 175.127 493.654 175.025C493.603 174.897 493.68 174.744 493.807 174.693C495.977 173.953 497.126 172.728 497.177 171.069C497.253 169.41 496.181 167.853 494.548 167.214L485.359 163.641C485.231 163.59 485.154 163.437 485.205 163.309C485.256 163.181 485.41 163.105 485.537 163.156L494.726 166.729C496.564 167.444 497.764 169.205 497.687 171.094C497.636 172.396 496.947 174.132 493.96 175.178C493.96 175.204 493.909 175.204 493.884 175.204Z" fill="#91B3FA"/>
<path d="M482.627 162.543C482.602 162.543 482.576 162.543 482.525 162.518L481.325 162.058C481.198 162.007 481.121 161.854 481.172 161.727C481.223 161.599 481.376 161.522 481.504 161.573L482.704 162.033C482.831 162.084 482.908 162.237 482.857 162.365C482.831 162.492 482.729 162.543 482.627 162.543Z" fill="#91B3FA"/>
</g>
<defs>
<linearGradient id="paint0_linear" x1="25.0053" y1="263.593" x2="215.025" y2="263.593" gradientUnits="userSpaceOnUse">
<stop stop-color="#DAE3FE"/>
<stop offset="1" stop-color="#E9EFFD"/>
</linearGradient>
<linearGradient id="paint1_linear" x1="349.852" y1="256.503" x2="517.632" y2="256.503" gradientUnits="userSpaceOnUse">
<stop stop-color="#DAE3FE"/>
<stop offset="1" stop-color="#E9EFFD"/>
</linearGradient>
<linearGradient id="paint2_linear" x1="266.728" y1="54.5337" x2="99.4476" y2="424.434" gradientUnits="userSpaceOnUse">
<stop stop-color="#0B355D"/>
<stop offset="1" stop-color="#336A91"/>
</linearGradient>
<linearGradient id="paint3_linear" x1="114.896" y1="127.807" x2="182.859" y2="127.807" gradientUnits="userSpaceOnUse">
<stop stop-color="#DAE3FE"/>
<stop offset="1" stop-color="#E9EFFD"/>
</linearGradient>
<linearGradient id="paint4_linear" x1="164.341" y1="146.214" x2="130.893" y2="252.84" gradientUnits="userSpaceOnUse">
<stop stop-color="#FEA964"/>
<stop offset="1" stop-color="#FF86B6"/>
</linearGradient>
<linearGradient id="paint5_linear" x1="183.561" y1="13.5533" x2="135.053" y2="121.027" gradientUnits="userSpaceOnUse">
<stop stop-color="#0B355D"/>
<stop offset="1" stop-color="#336A91"/>
</linearGradient>
<linearGradient id="paint6_linear" x1="192.522" y1="17.5987" x2="144.015" y2="125.071" gradientUnits="userSpaceOnUse">
<stop stop-color="#0B355D"/>
<stop offset="1" stop-color="#336A91"/>
</linearGradient>
<linearGradient id="paint7_linear" x1="476.999" y1="296.868" x2="426.103" y2="465.252" gradientUnits="userSpaceOnUse">
<stop stop-color="#50BCE2"/>
<stop offset="1" stop-color="#FF5C21"/>
</linearGradient>
<linearGradient id="paint8_linear" x1="518.105" y1="296.907" x2="467.209" y2="465.292" gradientUnits="userSpaceOnUse">
<stop stop-color="#FF86B6"/>
<stop offset="1" stop-color="#FECA91"/>
</linearGradient>
<linearGradient id="paint9_linear" x1="430.049" y1="330.217" x2="560.857" y2="330.217" gradientUnits="userSpaceOnUse">
<stop stop-color="#DAE3FE"/>
<stop offset="1" stop-color="#E9EFFD"/>
</linearGradient>
<linearGradient id="paint10_linear" x1="438.519" y1="295.688" x2="387.623" y2="464.073" gradientUnits="userSpaceOnUse">
<stop stop-color="#FF86B6"/>
<stop offset="1" stop-color="#FECA91"/>
</linearGradient>
<linearGradient id="paint11_linear" x1="401.893" y1="296.796" x2="350.997" y2="465.18" gradientUnits="userSpaceOnUse">
<stop stop-color="#FF86B6"/>
<stop offset="1" stop-color="#FECA91"/>
</linearGradient>
<linearGradient id="paint12_linear" x1="273.226" y1="110.511" x2="233.433" y2="192.138" gradientUnits="userSpaceOnUse">
<stop stop-color="#50BCE2"/>
<stop offset="1" stop-color="#FF5C21"/>
</linearGradient>
<linearGradient id="paint13_linear" x1="67.3517" y1="340.215" x2="241.622" y2="340.215" gradientUnits="userSpaceOnUse">
<stop stop-color="#DAE3FE"/>
<stop offset="1" stop-color="#E9EFFD"/>
</linearGradient>
<linearGradient id="paint14_linear" x1="67.3517" y1="345.704" x2="241.622" y2="345.704" gradientUnits="userSpaceOnUse">
<stop stop-color="#DAE3FE"/>
<stop offset="1" stop-color="#E9EFFD"/>
</linearGradient>
<linearGradient id="paint15_linear" x1="67.3517" y1="351.194" x2="241.622" y2="351.194" gradientUnits="userSpaceOnUse">
<stop stop-color="#DAE3FE"/>
<stop offset="1" stop-color="#E9EFFD"/>
</linearGradient>
<linearGradient id="paint16_linear" x1="67.3517" y1="356.683" x2="241.622" y2="356.683" gradientUnits="userSpaceOnUse">
<stop stop-color="#DAE3FE"/>
<stop offset="1" stop-color="#E9EFFD"/>
</linearGradient>
<linearGradient id="paint17_linear" x1="67.3517" y1="362.173" x2="241.622" y2="362.173" gradientUnits="userSpaceOnUse">
<stop stop-color="#DAE3FE"/>
<stop offset="1" stop-color="#E9EFFD"/>
</linearGradient>
<linearGradient id="paint18_linear" x1="157.444" y1="292.546" x2="171.315" y2="276.984" gradientUnits="userSpaceOnUse">
<stop stop-color="#FF86B6"/>
<stop offset="1" stop-color="#FECA91"/>
</linearGradient>
<linearGradient id="paint19_linear" x1="163.316" y1="311.4" x2="177.763" y2="311.4" gradientUnits="userSpaceOnUse">
<stop stop-color="#0B355D"/>
<stop offset="1" stop-color="#336A91"/>
</linearGradient>
<linearGradient id="paint20_linear" x1="185.903" y1="262.142" x2="177.224" y2="272.011" gradientUnits="userSpaceOnUse">
<stop stop-color="#FF86B6"/>
<stop offset="1" stop-color="#FECA91"/>
</linearGradient>
<linearGradient id="paint21_linear" x1="155.51" y1="320.371" x2="167.921" y2="320.371" gradientUnits="userSpaceOnUse">
<stop stop-color="#0B355D"/>
<stop offset="1" stop-color="#336A91"/>
</linearGradient>
<linearGradient id="paint22_linear" x1="-973.596" y1="442.701" x2="-851.586" y2="424.323" gradientUnits="userSpaceOnUse">
<stop stop-color="#50BCE2"/>
<stop offset="1" stop-color="#FF5C21"/>
</linearGradient>
<linearGradient id="paint23_linear" x1="140.984" y1="209.288" x2="125.441" y2="227.232" gradientUnits="userSpaceOnUse">
<stop stop-color="#E18440"/>
<stop offset="1" stop-color="#E99866"/>
</linearGradient>
<linearGradient id="paint24_linear" x1="-2931.89" y1="713.195" x2="-2809.88" y2="694.817" gradientUnits="userSpaceOnUse">
<stop stop-color="#50BCE2"/>
<stop offset="1" stop-color="#FF5C21"/>
</linearGradient>
<linearGradient id="paint25_linear" x1="118.037" y1="266.86" x2="82.425" y2="266.86" gradientUnits="userSpaceOnUse">
<stop stop-color="#FF86B6"/>
<stop offset="1" stop-color="#FECA91"/>
</linearGradient>
<linearGradient id="paint26_linear" x1="134.067" y1="230.589" x2="125.559" y2="242.841" gradientUnits="userSpaceOnUse">
<stop stop-color="#FF86B6"/>
<stop offset="1" stop-color="#FECA91"/>
</linearGradient>
<linearGradient id="paint27_linear" x1="576.694" y1="-5.52363" x2="557.564" y2="4.70342" gradientUnits="userSpaceOnUse">
<stop stop-color="#FF86B6"/>
<stop offset="1" stop-color="#FECA91"/>
</linearGradient>
<linearGradient id="paint28_linear" x1="150.68" y1="222.168" x2="128.982" y2="226.521" gradientUnits="userSpaceOnUse">
<stop stop-color="#E18440"/>
<stop offset="1" stop-color="#E99866"/>
</linearGradient>
<linearGradient id="paint29_linear" x1="574.52" y1="-9.58491" x2="555.39" y2="0.641951" gradientUnits="userSpaceOnUse">
<stop stop-color="#FF86B6"/>
<stop offset="1" stop-color="#FECA91"/>
</linearGradient>
<linearGradient id="paint30_linear" x1="133.264" y1="244.359" x2="134.115" y2="256.27" gradientUnits="userSpaceOnUse">
<stop stop-color="#0B355D"/>
<stop offset="1" stop-color="#336A91"/>
</linearGradient>
<linearGradient id="paint31_linear" x1="168.021" y1="263.45" x2="0.466888" y2="249.353" gradientUnits="userSpaceOnUse">
<stop stop-color="#0B355D"/>
<stop offset="1" stop-color="#336A91"/>
</linearGradient>
<linearGradient id="paint32_linear" x1="342.905" y1="52.3396" x2="290.834" y2="344.345" gradientUnits="userSpaceOnUse">
<stop stop-color="#0B355D"/>
<stop offset="1" stop-color="#336A91"/>
</linearGradient>
<linearGradient id="paint33_linear" x1="306.061" y1="107.497" x2="300.987" y2="210.006" gradientUnits="userSpaceOnUse">
<stop stop-color="#50BCE2"/>
<stop offset="1" stop-color="#FF5C21"/>
</linearGradient>
<linearGradient id="paint34_linear" x1="349.098" y1="167.015" x2="191.828" y2="486.419" gradientUnits="userSpaceOnUse">
<stop stop-color="#FEA964"/>
<stop offset="1" stop-color="#FF86B6"/>
</linearGradient>
<linearGradient id="paint35_linear" x1="317.259" y1="11.6083" x2="310.112" y2="143.318" gradientUnits="userSpaceOnUse">
<stop stop-color="#FF86B6"/>
<stop offset="1" stop-color="#FECA91"/>
</linearGradient>
<linearGradient id="paint36_linear" x1="318.184" y1="76.4362" x2="306.343" y2="104.855" gradientUnits="userSpaceOnUse">
<stop stop-color="#FEA964"/>
<stop offset="1" stop-color="#FF86B6"/>
</linearGradient>
<linearGradient id="paint37_linear" x1="242.151" y1="280.074" x2="329.957" y2="103.441" gradientUnits="userSpaceOnUse">
<stop stop-color="#E18440"/>
<stop offset="1" stop-color="#E99866"/>
</linearGradient>
<linearGradient id="paint38_linear" x1="248.657" y1="283.309" x2="336.464" y2="106.675" gradientUnits="userSpaceOnUse">
<stop stop-color="#E18440"/>
<stop offset="1" stop-color="#E99866"/>
</linearGradient>
<linearGradient id="paint39_linear" x1="255.536" y1="286.728" x2="343.342" y2="110.095" gradientUnits="userSpaceOnUse">
<stop stop-color="#E18440"/>
<stop offset="1" stop-color="#E99866"/>
</linearGradient>
<linearGradient id="paint40_linear" x1="269.077" y1="293.46" x2="356.883" y2="116.827" gradientUnits="userSpaceOnUse">
<stop stop-color="#E18440"/>
<stop offset="1" stop-color="#E99866"/>
</linearGradient>
<linearGradient id="paint41_linear" x1="282.463" y1="300.114" x2="370.269" y2="123.481" gradientUnits="userSpaceOnUse">
<stop stop-color="#E18440"/>
<stop offset="1" stop-color="#E99866"/>
</linearGradient>
<linearGradient id="paint42_linear" x1="262.042" y1="289.962" x2="349.849" y2="113.329" gradientUnits="userSpaceOnUse">
<stop stop-color="#E18440"/>
<stop offset="1" stop-color="#E99866"/>
</linearGradient>
<linearGradient id="paint43_linear" x1="275.427" y1="296.616" x2="363.233" y2="119.984" gradientUnits="userSpaceOnUse">
<stop stop-color="#E18440"/>
<stop offset="1" stop-color="#E99866"/>
</linearGradient>
<linearGradient id="paint44_linear" x1="284.14" y1="300.948" x2="371.945" y2="124.314" gradientUnits="userSpaceOnUse">
<stop stop-color="#E18440"/>
<stop offset="1" stop-color="#E99866"/>
</linearGradient>
<linearGradient id="paint45_linear" x1="290.646" y1="304.183" x2="378.453" y2="127.548" gradientUnits="userSpaceOnUse">
<stop stop-color="#E18440"/>
<stop offset="1" stop-color="#E99866"/>
</linearGradient>
<linearGradient id="paint46_linear" x1="324.452" y1="320.987" x2="412.258" y2="144.354" gradientUnits="userSpaceOnUse">
<stop stop-color="#E18440"/>
<stop offset="1" stop-color="#E99866"/>
</linearGradient>
<linearGradient id="paint47_linear" x1="304.031" y1="310.836" x2="391.838" y2="134.202" gradientUnits="userSpaceOnUse">
<stop stop-color="#E18440"/>
<stop offset="1" stop-color="#E99866"/>
</linearGradient>
<linearGradient id="paint48_linear" x1="317.417" y1="317.49" x2="405.222" y2="140.857" gradientUnits="userSpaceOnUse">
<stop stop-color="#E18440"/>
<stop offset="1" stop-color="#E99866"/>
</linearGradient>
<linearGradient id="paint49_linear" x1="296.988" y1="307.334" x2="384.793" y2="130.701" gradientUnits="userSpaceOnUse">
<stop stop-color="#E18440"/>
<stop offset="1" stop-color="#E99866"/>
</linearGradient>
<linearGradient id="paint50_linear" x1="271.629" y1="366.746" x2="330.846" y2="226.868" gradientUnits="userSpaceOnUse">
<stop stop-color="#FEA964"/>
<stop offset="1" stop-color="#FF86B6"/>
</linearGradient>
<linearGradient id="paint51_linear" x1="313.386" y1="384.424" x2="372.604" y2="244.547" gradientUnits="userSpaceOnUse">
<stop stop-color="#FEA964"/>
<stop offset="1" stop-color="#FF86B6"/>
</linearGradient>
<linearGradient id="paint52_linear" x1="407.971" y1="-17.3461" x2="362.806" y2="71.9687" gradientUnits="userSpaceOnUse">
<stop stop-color="#E18440"/>
<stop offset="1" stop-color="#E99866"/>
</linearGradient>
<linearGradient id="paint53_linear" x1="475.108" y1="237.322" x2="458.455" y2="237.322" gradientUnits="userSpaceOnUse">
<stop stop-color="#50BCE2"/>
<stop offset="1" stop-color="#FF5C21"/>
</linearGradient>
<linearGradient id="paint54_linear" x1="475.109" y1="234.058" x2="458.925" y2="234.058" gradientUnits="userSpaceOnUse">
<stop stop-color="#0B355D"/>
<stop offset="1" stop-color="#336A91"/>
</linearGradient>
<linearGradient id="paint55_linear" x1="473.571" y1="229.501" x2="468.88" y2="229.501" gradientUnits="userSpaceOnUse">
<stop stop-color="#FF86B6"/>
<stop offset="1" stop-color="#FECA91"/>
</linearGradient>
<linearGradient id="paint56_linear" x1="508.309" y1="236.963" x2="501.927" y2="236.963" gradientUnits="userSpaceOnUse">
<stop stop-color="#50BCE2"/>
<stop offset="1" stop-color="#FF5C21"/>
</linearGradient>
<linearGradient id="paint57_linear" x1="508.263" y1="232.049" x2="498.895" y2="232.049" gradientUnits="userSpaceOnUse">
<stop stop-color="#0B355D"/>
<stop offset="1" stop-color="#336A91"/>
</linearGradient>
<linearGradient id="paint58_linear" x1="503.394" y1="225.591" x2="497.787" y2="225.591" gradientUnits="userSpaceOnUse">
<stop stop-color="#FF86B6"/>
<stop offset="1" stop-color="#FECA91"/>
</linearGradient>
<linearGradient id="paint59_linear" x1="480.348" y1="203.993" x2="502.676" y2="294.323" gradientUnits="userSpaceOnUse">
<stop stop-color="#50BCE2"/>
<stop offset="1" stop-color="#FF5C21"/>
</linearGradient>
<linearGradient id="paint60_linear" x1="435.661" y1="54.1347" x2="458.634" y2="117.437" gradientUnits="userSpaceOnUse">
<stop stop-color="#50BCE2"/>
<stop offset="1" stop-color="#FF5C21"/>
</linearGradient>
<linearGradient id="paint61_linear" x1="477.709" y1="143.873" x2="497.666" y2="161.545" gradientUnits="userSpaceOnUse">
<stop stop-color="#FF86B6"/>
<stop offset="1" stop-color="#FECA91"/>
</linearGradient>
<linearGradient id="paint62_linear" x1="451.929" y1="48.2309" x2="474.902" y2="111.533" gradientUnits="userSpaceOnUse">
<stop stop-color="#50BCE2"/>
<stop offset="1" stop-color="#FF5C21"/>
</linearGradient>
<linearGradient id="paint63_linear" x1="415.928" y1="61.296" x2="438.901" y2="124.598" gradientUnits="userSpaceOnUse">
<stop stop-color="#50BCE2"/>
<stop offset="1" stop-color="#FF5C21"/>
</linearGradient>
<linearGradient id="paint64_linear" x1="440.297" y1="145.544" x2="424.58" y2="145.544" gradientUnits="userSpaceOnUse">
<stop stop-color="#FF86B6"/>
<stop offset="1" stop-color="#FECA91"/>
</linearGradient>
<linearGradient id="paint65_linear" x1="455.574" y1="103.542" x2="455.746" y2="132.893" gradientUnits="userSpaceOnUse">
<stop stop-color="#FF86B6"/>
<stop offset="1" stop-color="#FECA91"/>
</linearGradient>
<linearGradient id="paint66_linear" x1="499.26" y1="157.058" x2="416.956" y2="157.058" gradientUnits="userSpaceOnUse">
<stop stop-color="#0B355D"/>
<stop offset="1" stop-color="#336A91"/>
</linearGradient>
<linearGradient id="paint67_linear" x1="425.744" y1="120.563" x2="341.68" y2="120.563" gradientUnits="userSpaceOnUse">
<stop stop-color="#0B355D"/>
<stop offset="1" stop-color="#336A91"/>
</linearGradient>
<linearGradient id="paint68_linear" x1="446.051" y1="98.7161" x2="457.62" y2="119.696" gradientUnits="userSpaceOnUse">
<stop stop-color="#FF86B6"/>
<stop offset="1" stop-color="#FECA91"/>
</linearGradient>
<linearGradient id="paint69_linear" x1="459.223" y1="101.862" x2="409.096" y2="108.2" gradientUnits="userSpaceOnUse">
<stop stop-color="#0B355D"/>
<stop offset="1" stop-color="#336A91"/>
</linearGradient>
<linearGradient id="paint70_linear" x1="464.831" y1="116.718" x2="455.06" y2="103.297" gradientUnits="userSpaceOnUse">
<stop stop-color="#FF86B6"/>
<stop offset="1" stop-color="#FECA91"/>
</linearGradient>
<linearGradient id="paint71_linear" x1="469.828" y1="152.773" x2="489.785" y2="170.445" gradientUnits="userSpaceOnUse">
<stop stop-color="#FF86B6"/>
<stop offset="1" stop-color="#FECA91"/>
</linearGradient>
<linearGradient id="paint72_linear" x1="426.25" y1="143.698" x2="420.621" y2="143.698" gradientUnits="userSpaceOnUse">
<stop stop-color="#FF86B6"/>
<stop offset="1" stop-color="#FECA91"/>
</linearGradient>
<clipPath id="clip0">
<rect width="578.014" height="378" fill="white"/>
</clipPath>
</defs>
</svg>
