<svg width="584" height="426" viewBox="0 0 584 426" fill="none" xmlns="http://www.w3.org/2000/svg">
<path d="M286.9 423.36C286.9 423.36 88.6337 425.687 33.4081 373.553C-21.8175 321.447 -1.01996 269.503 41.2511 254.786C83.5493 240.069 90.7432 224.756 67.9985 204.114C45.2538 183.471 16.3428 141.078 64.3204 98.4944C112.298 55.9112 167.064 117.081 209.93 108.964C252.823 100.848 235.839 73.4964 292.227 92.3802C348.616 111.264 336.202 56.2629 381.529 51.285C426.857 46.307 422.232 108.504 468.857 85.0214C515.483 61.5385 553.643 64.785 573.683 102.066C593.723 139.346 585.015 189.586 541.04 219.507C497.065 249.429 501.771 247.4 518.214 276.808C534.657 306.216 549.397 402.934 474.564 416.759C399.731 430.556 286.9 423.36 286.9 423.36Z" fill="url(#paint0_linear)"/>
<path d="M103.508 176.708C99.4515 205.358 82.6566 373.121 237.191 417.165C237.191 417.165 276.649 309.571 107.457 175.139C105.969 173.948 103.752 174.841 103.508 176.708Z" fill="#A0C5DD"/>
<path d="M118.221 202.058C120.357 211.662 122.926 221.185 125.658 230.627C128.417 240.069 131.418 249.456 134.637 258.763C141.101 277.349 148.457 295.638 156.976 313.385C165.495 331.106 175.177 348.312 186.536 364.328C189.376 368.332 192.323 372.282 195.38 376.097C198.463 379.911 201.627 383.672 204.953 387.27C208.28 390.868 211.688 394.385 215.285 397.713C218.881 401.041 222.587 404.233 226.427 407.263C226.887 407.615 226.968 408.264 226.616 408.724C226.265 409.184 225.616 409.265 225.156 408.913C221.261 405.829 217.529 402.583 213.905 399.201C210.281 395.819 206.847 392.248 203.52 388.596C200.166 384.943 197.002 381.129 193.946 377.26C190.863 373.391 187.915 369.414 185.075 365.356C173.717 349.151 164.089 331.836 155.624 314.008C147.159 296.179 139.884 277.809 133.501 259.142C130.31 249.808 127.362 240.393 124.657 230.897C121.953 221.401 119.438 211.878 117.328 202.22C117.274 201.976 117.436 201.76 117.653 201.706C117.923 201.679 118.167 201.814 118.221 202.058Z" fill="#BDD0FB"/>
<path d="M348.535 413.215C348.535 413.215 281.112 202.301 505.665 91.0276C509.397 89.1608 515.456 93.6248 515.618 98.3863C517.295 142.62 511.101 302.077 348.535 413.215Z" fill="#B4D4E9"/>
<path d="M486.031 148.761C475.754 167.888 465.422 186.961 455.01 206.008L447.167 220.292L439.27 234.523L431.319 248.726C428.668 253.46 425.964 258.168 423.287 262.902C412.55 281.759 401.813 300.643 390.725 319.31C379.69 338.005 368.521 356.618 356.81 374.906C356.702 375.096 356.459 375.15 356.269 375.015C356.08 374.906 356.026 374.663 356.134 374.501L364.545 360.568L372.848 346.581C375.606 341.927 378.338 337.22 381.07 332.54L385.18 325.506L389.237 318.444L405.437 290.227C410.792 280.785 416.174 271.37 421.502 261.901L453.469 205.196C464.124 186.285 474.753 167.374 485.273 148.382C485.382 148.193 485.625 148.112 485.841 148.22C486.058 148.328 486.139 148.572 486.031 148.761Z" fill="#91B3FA"/>
<path d="M76.6258 336.002C92.2037 334.866 183.183 331.917 201.87 417.598C201.87 417.598 142.588 435.075 75.6522 338.086C75.0572 337.247 75.6252 336.084 76.6258 336.002Z" fill="#B4D4E9"/>
<path d="M90.0131 344.308C99.9656 347.284 109.702 350.855 119.303 354.751C128.904 358.674 138.315 363.03 147.51 367.872C156.679 372.715 165.603 378.099 174.014 384.213C178.206 387.297 182.29 390.517 186.158 394.007C190.025 397.524 193.676 401.23 197.057 405.234C197.435 405.667 197.381 406.343 196.921 406.695C196.489 407.074 195.813 407.02 195.461 406.56C192.189 402.61 188.619 398.93 184.859 395.44C181.073 391.95 177.07 388.731 172.96 385.647C164.684 379.506 155.894 374.095 146.807 369.171C137.72 364.274 128.39 359.837 118.87 355.833C109.35 351.856 99.6411 348.204 89.7967 345.147C89.5533 345.066 89.4452 344.822 89.4992 344.606C89.5263 344.362 89.7697 344.227 90.0131 344.308Z" fill="#91B3FA"/>
<path d="M353.457 422.927C349.346 423.577 345.938 419.843 346.885 415.785C352.186 393.52 372.821 331.917 444.003 297.559C504.124 268.557 533.981 247.103 546.855 236.443C549.586 234.198 553.589 236.714 552.75 240.15C543.366 277.999 501.987 399.39 353.457 422.927Z" fill="#B4D4E9"/>
<path d="M351.456 417.625C351.239 417.625 350.996 417.543 350.807 417.408C350.347 417.057 350.293 416.407 350.644 415.947C350.807 415.758 366.763 395.846 392.564 370.794C416.39 347.663 453.766 315.252 496.443 292.229C496.957 291.958 497.579 292.148 497.849 292.662C498.12 293.176 497.931 293.798 497.417 294.069C454.956 316.983 417.743 349.232 394.024 372.282C368.305 397.253 352.402 417.057 352.24 417.273C352.078 417.489 351.78 417.625 351.456 417.625Z" fill="#BDD0FB"/>
<path d="M332.037 403.475C359.136 391.409 467.586 345.471 546.53 345.39C552.155 345.39 555.996 352.289 551.993 356.455C528.87 380.723 458.472 459.288 331.875 409.103C329.441 408.156 329.576 404.585 332.037 403.475Z" fill="#B4D4E9"/>
<path d="M335.094 407.425C334.526 407.425 334.066 406.965 334.066 406.397C334.066 405.829 334.526 405.342 335.094 405.342C395.512 404.585 440.947 393.574 468.452 384.483C498.201 374.663 513.86 364.896 513.995 364.815C514.482 364.518 515.131 364.653 515.429 365.14C515.726 365.627 515.591 366.276 515.104 366.574C514.942 366.682 499.094 376.557 469.101 386.458C441.461 395.603 395.782 406.641 335.094 407.425C335.121 407.425 335.121 407.425 335.094 407.425Z" fill="#91B3FA"/>
<path d="M441.109 188.963L440.46 190.397C440.271 190.803 439.811 190.965 439.405 190.776C439 190.587 438.837 190.127 439.027 189.721L439.703 188.314C439.892 187.935 440.352 187.773 440.758 187.962C441.109 188.125 441.271 188.585 441.109 188.963Z" fill="white"/>
<path d="M438.838 193.698L438.107 195.105C437.891 195.538 437.377 195.7 436.944 195.483C436.512 195.267 436.35 194.753 436.566 194.32C436.566 194.32 436.566 194.32 436.566 194.293L437.296 192.94C437.512 192.535 438.026 192.372 438.432 192.616C438.892 192.805 439.027 193.292 438.838 193.698Z" fill="white"/>
<path d="M436.349 198.324L435.565 199.677C435.322 200.11 434.754 200.272 434.321 200.029C433.888 199.785 433.726 199.217 433.969 198.784C433.969 198.784 433.969 198.784 433.969 198.757V198.73L434.781 197.404C435.051 196.971 435.592 196.836 436.025 197.107C436.458 197.35 436.593 197.891 436.349 198.324Z" fill="white"/>
<path d="M433.672 202.842L432.833 204.168C432.536 204.628 431.941 204.763 431.481 204.465C431.021 204.168 430.886 203.573 431.184 203.113C431.184 203.113 431.184 203.113 431.184 203.086V203.059L432.049 201.76C432.347 201.327 432.942 201.192 433.374 201.489C433.834 201.814 433.969 202.409 433.672 202.842Z" fill="white"/>
<path d="M430.805 207.225L429.913 208.524C429.588 208.983 428.939 209.119 428.479 208.794C428.019 208.469 427.884 207.82 428.209 207.36C428.209 207.36 428.209 207.36 428.209 207.333V207.306L429.128 206.062C429.453 205.602 430.102 205.493 430.562 205.845C431.021 206.143 431.13 206.792 430.805 207.225Z" fill="white"/>
<path d="M427.776 211.499L426.829 212.744C426.451 213.231 425.775 213.312 425.288 212.96C424.801 212.582 424.72 211.905 425.072 211.418C425.072 211.418 425.072 211.418 425.072 211.391V211.364L426.045 210.147C426.424 209.687 427.1 209.606 427.56 209.957C428.047 210.363 428.128 211.04 427.776 211.499Z" fill="white"/>
<path d="M424.531 215.666L423.53 216.883C423.124 217.37 422.394 217.451 421.907 217.046C421.421 216.64 421.339 215.909 421.745 215.422C421.745 215.422 421.745 215.422 421.772 215.395V215.368L422.773 214.205C423.178 213.718 423.909 213.664 424.395 214.097C424.882 214.475 424.936 215.179 424.531 215.666Z" fill="white"/>
<path d="M421.15 219.67L420.095 220.833C419.636 221.347 418.878 221.374 418.364 220.941C417.851 220.481 417.824 219.724 418.256 219.21C418.256 219.21 418.256 219.21 418.283 219.183L418.31 219.156L419.365 218.02C419.825 217.533 420.582 217.505 421.069 217.965C421.556 218.425 421.583 219.183 421.15 219.67Z" fill="white"/>
<path d="M417.607 223.539L416.498 224.675C416.012 225.189 415.2 225.189 414.686 224.702C414.173 224.215 414.173 223.403 414.659 222.889C414.659 222.889 414.659 222.889 414.686 222.862L414.713 222.835L415.822 221.753C416.309 221.266 417.12 221.266 417.607 221.753C418.067 222.267 418.067 223.052 417.607 223.539Z" fill="white"/>
<path d="M413.875 227.272L412.739 228.354C412.198 228.868 411.36 228.841 410.846 228.3C410.332 227.759 410.359 226.92 410.9 226.406C410.9 226.406 410.9 226.406 410.927 226.379L410.954 226.352L412.09 225.324C412.631 224.837 413.469 224.864 413.956 225.405C414.443 225.946 414.389 226.785 413.875 227.272Z" fill="white"/>
<path d="M410.008 230.843L408.818 231.898C408.25 232.412 407.357 232.358 406.843 231.763C406.33 231.195 406.384 230.302 406.979 229.788C406.979 229.788 406.979 229.788 407.006 229.761L407.033 229.734L408.223 228.733C408.818 228.246 409.683 228.327 410.17 228.895C410.657 229.49 410.576 230.356 410.008 230.843Z" fill="white"/>
<path d="M406.005 234.279L404.788 235.28C404.166 235.794 403.246 235.686 402.732 235.064C402.219 234.441 402.327 233.522 402.949 233.007C402.949 233.007 402.976 233.007 402.976 232.98L403.003 232.953L404.22 232.006H404.247C404.869 231.52 405.788 231.628 406.275 232.277C406.735 232.872 406.627 233.765 406.005 234.279Z" fill="white"/>
<path d="M401.867 237.526L400.596 238.472C399.92 238.987 398.973 238.824 398.459 238.175C397.946 237.499 398.108 236.552 398.757 236.038C398.757 236.038 398.784 236.038 398.784 236.011L398.811 235.984L400.082 235.091H400.109C400.785 234.604 401.732 234.766 402.192 235.442C402.678 236.119 402.516 237.039 401.867 237.526Z" fill="white"/>
<path d="M397.594 240.61L396.296 241.503C395.566 241.99 394.592 241.8 394.105 241.097C393.618 240.366 393.808 239.392 394.511 238.905C394.511 238.905 394.538 238.905 394.538 238.878L394.565 238.851L395.863 238.013H395.89C396.62 237.553 397.594 237.742 398.054 238.472C398.487 239.176 398.297 240.15 397.594 240.61Z" fill="white"/>
<path d="M393.213 243.532L391.861 244.37C391.103 244.857 390.076 244.614 389.589 243.856C389.102 243.099 389.345 242.071 390.103 241.584C390.103 241.584 390.13 241.584 390.13 241.557L390.157 241.53L391.482 240.745H391.509C392.266 240.285 393.267 240.529 393.727 241.313C394.186 242.098 393.943 243.072 393.213 243.532Z" fill="white"/>
<path d="M388.696 246.264L387.317 247.049C386.506 247.509 385.451 247.238 384.991 246.426C384.531 245.615 384.802 244.56 385.613 244.1C385.613 244.1 385.64 244.1 385.64 244.073L385.667 244.046L387.02 243.315H387.047C387.858 242.882 388.886 243.18 389.318 243.991C389.778 244.83 389.481 245.831 388.696 246.264Z" fill="white"/>
<path d="M384.072 248.834L382.665 249.565C381.8 250.025 380.745 249.673 380.285 248.807C379.826 247.941 380.177 246.886 381.043 246.426C381.043 246.426 381.07 246.426 381.07 246.399H381.097L382.476 245.723H382.503C383.368 245.29 384.423 245.669 384.829 246.535C385.262 247.373 384.91 248.401 384.072 248.834Z" fill="white"/>
<path d="M379.366 251.188L377.932 251.864C377.013 252.297 375.931 251.891 375.498 250.998C375.066 250.079 375.471 248.996 376.364 248.564C376.364 248.564 376.391 248.564 376.391 248.537H376.418L377.824 247.914H377.851C378.771 247.508 379.826 247.914 380.231 248.834C380.637 249.727 380.231 250.782 379.366 251.188Z" fill="white"/>
<path d="M374.552 253.352L373.091 253.974C372.145 254.38 371.036 253.92 370.63 252.973C370.225 252.026 370.684 250.917 371.631 250.511H371.658H371.685L373.118 249.943H373.146C374.092 249.565 375.174 250.052 375.553 250.998C375.931 251.918 375.471 252.973 374.552 253.352Z" fill="white"/>
<path d="M369.63 255.327L368.142 255.868C367.142 256.247 366.033 255.733 365.654 254.705C365.276 253.704 365.789 252.595 366.817 252.216H366.844H366.871L368.332 251.729H368.359C369.359 251.377 370.468 251.918 370.793 252.919C371.144 253.893 370.603 254.976 369.63 255.327Z" fill="white"/>
<path d="M364.653 257.086L363.139 257.573C362.084 257.924 360.948 257.329 360.624 256.274C360.272 255.219 360.867 254.083 361.922 253.758H361.949H361.976L363.436 253.325H363.463C364.518 253.028 365.627 253.623 365.925 254.678C366.249 255.679 365.681 256.761 364.653 257.086Z" fill="white"/>
<path d="M359.596 258.628L358.054 259.061C356.946 259.358 355.81 258.709 355.512 257.627C355.215 256.518 355.864 255.381 356.946 255.084H356.973H357L358.487 254.705H358.514C359.596 254.434 360.732 255.111 361.002 256.193C361.3 257.248 360.651 258.33 359.596 258.628Z" fill="white"/>
<path d="M354.458 259.953L352.916 260.305C351.78 260.576 350.644 259.845 350.374 258.709C350.103 257.573 350.834 256.436 351.969 256.166H351.996H352.023L353.538 255.868H353.565C354.701 255.625 355.81 256.382 356.053 257.519C356.27 258.601 355.566 259.71 354.458 259.953Z" fill="white"/>
<path d="M464.233 259.872L462.691 260.116C462.258 260.197 461.826 259.872 461.772 259.439C461.69 259.006 462.015 258.574 462.448 258.52H462.475L464.016 258.33C464.449 258.276 464.828 258.601 464.882 259.006C464.936 259.439 464.638 259.818 464.233 259.872Z" fill="white"/>
<path d="M459.067 260.684L457.525 260.9C457.012 260.981 456.552 260.63 456.471 260.116C456.389 259.602 456.741 259.142 457.255 259.061H457.282L458.824 258.898C459.31 258.844 459.743 259.196 459.797 259.683C459.878 260.17 459.527 260.603 459.067 260.684Z" fill="white"/>
<path d="M453.902 261.414L452.36 261.631C451.819 261.712 451.305 261.333 451.224 260.765C451.143 260.224 451.522 259.71 452.089 259.629H452.117L453.658 259.466C454.199 259.412 454.686 259.791 454.74 260.332C454.794 260.873 454.415 261.333 453.902 261.414Z" fill="white"/>
<path d="M448.736 262.091L447.194 262.28C446.599 262.361 446.058 261.928 445.977 261.333C445.896 260.738 446.329 260.197 446.924 260.116H446.951L448.492 259.98C449.087 259.926 449.601 260.359 449.655 260.927C449.709 261.522 449.304 262.009 448.736 262.091Z" fill="white"/>
<path d="M443.57 262.74L442.029 262.929C441.38 263.011 440.812 262.551 440.731 261.901C440.65 261.252 441.109 260.684 441.758 260.603H441.785L443.327 260.467C443.949 260.413 444.517 260.873 444.571 261.496C444.625 262.118 444.165 262.659 443.57 262.74Z" fill="white"/>
<path d="M438.378 263.335L436.809 263.497C436.133 263.579 435.538 263.065 435.457 262.388C435.376 261.712 435.889 261.117 436.566 261.035C436.566 261.035 436.566 261.035 436.593 261.035L438.134 260.9C438.81 260.846 439.405 261.333 439.459 262.009C439.513 262.686 439.027 263.254 438.378 263.335Z" fill="white"/>
<path d="M433.185 263.876L431.617 264.039C430.913 264.12 430.291 263.579 430.21 262.875C430.129 262.172 430.67 261.549 431.373 261.468C431.373 261.468 431.373 261.468 431.4 261.468L432.942 261.36C433.645 261.306 434.24 261.82 434.294 262.523C434.375 263.2 433.861 263.795 433.185 263.876Z" fill="white"/>
<path d="M427.992 264.363L426.424 264.498C425.693 264.553 425.044 264.011 424.99 263.281C424.936 262.551 425.477 261.901 426.207 261.847C426.207 261.847 426.207 261.847 426.234 261.847L427.803 261.739C428.533 261.685 429.155 262.226 429.209 262.956C429.236 263.66 428.695 264.282 427.992 264.363Z" fill="white"/>
<path d="M422.8 264.796L421.231 264.931C420.474 264.985 419.798 264.417 419.744 263.66C419.69 262.902 420.258 262.226 421.015 262.172C421.015 262.172 421.015 262.172 421.042 262.172L422.611 262.064C423.368 262.01 424.017 262.578 424.071 263.335C424.098 264.093 423.53 264.742 422.8 264.796Z" fill="white"/>
<path d="M417.58 265.202L416.012 265.31C415.227 265.364 414.551 264.769 414.47 263.984C414.416 263.2 415.011 262.524 415.795 262.442C415.795 262.442 415.795 262.442 415.822 262.442L417.391 262.361C418.175 262.307 418.851 262.929 418.878 263.687C418.932 264.498 418.364 265.148 417.58 265.202Z" fill="white"/>
<path d="M412.388 265.581L410.819 265.689C410.008 265.743 409.304 265.121 409.25 264.309C409.196 263.497 409.818 262.794 410.63 262.74H410.657L412.225 262.659C413.037 262.632 413.713 263.254 413.767 264.066C413.794 264.85 413.172 265.526 412.388 265.581Z" fill="white"/>
<path d="M407.168 265.905L405.599 265.986C404.761 266.04 404.058 265.391 404.004 264.552C403.95 263.714 404.599 263.01 405.437 262.956H405.464L407.033 262.902C407.871 262.875 408.574 263.524 408.601 264.336C408.628 265.148 408.006 265.851 407.168 265.905Z" fill="white"/>
<path d="M401.975 266.149L400.407 266.23C399.568 266.257 398.838 265.608 398.784 264.769C398.757 263.93 399.406 263.2 400.244 263.146H400.272L401.84 263.092C402.679 263.065 403.409 263.714 403.436 264.58C403.463 265.418 402.814 266.122 401.975 266.149Z" fill="white"/>
<path d="M396.756 266.392L395.187 266.446C394.322 266.473 393.592 265.797 393.565 264.931C393.537 264.066 394.214 263.335 395.079 263.308H395.106L396.675 263.254C397.54 263.227 398.243 263.903 398.27 264.769C398.27 265.635 397.594 266.338 396.756 266.392Z" fill="white"/>
<path d="M391.536 266.555L389.967 266.609C389.075 266.636 388.345 265.932 388.318 265.067C388.291 264.174 388.994 263.443 389.859 263.416H389.886L391.455 263.389C392.32 263.362 393.051 264.066 393.078 264.931C393.078 265.824 392.401 266.528 391.536 266.555Z" fill="white"/>
<path d="M386.316 266.69L384.748 266.717C383.855 266.744 383.125 266.013 383.125 265.148C383.098 264.255 383.828 263.524 384.694 263.524L386.262 263.497C387.155 263.497 387.885 264.201 387.885 265.067C387.885 265.932 387.209 266.663 386.316 266.69Z" fill="white"/>
<path d="M381.097 266.771L379.528 266.798C378.636 266.798 377.906 266.095 377.906 265.202C377.906 264.309 378.609 263.579 379.501 263.579H381.07C381.962 263.579 382.692 264.282 382.692 265.175C382.692 266.041 381.989 266.771 381.097 266.771Z" fill="white"/>
<path d="M375.877 266.798H374.308C373.416 266.798 372.686 266.068 372.686 265.175C372.686 264.282 373.416 263.552 374.308 263.552H375.877C376.77 263.552 377.5 264.282 377.5 265.175C377.5 266.068 376.77 266.798 375.877 266.798Z" fill="white"/>
<path d="M370.657 266.798H369.089C368.196 266.798 367.466 266.068 367.466 265.148C367.466 264.255 368.196 263.525 369.116 263.525L370.684 263.552C371.577 263.552 372.307 264.309 372.307 265.202C372.28 266.095 371.55 266.798 370.657 266.798Z" fill="white"/>
<path d="M365.438 266.744C364.924 266.69 364.383 266.555 363.869 266.284C363.22 265.932 363.004 265.094 363.355 264.444C363.49 264.201 363.68 264.039 363.896 263.903C364.41 263.633 364.951 263.525 365.465 263.498C366.357 263.443 367.142 264.12 367.196 265.013C367.25 265.905 366.574 266.69 365.681 266.744C365.627 266.744 365.519 266.744 365.438 266.744Z" fill="white"/>
<path d="M350.401 272.588L351.834 273.237C352.673 273.616 353.051 274.617 352.673 275.455C352.294 276.294 351.32 276.673 350.482 276.294H350.455L349.049 275.672H349.022C348.156 275.293 347.75 274.292 348.129 273.426C348.508 272.561 349.508 272.155 350.374 272.534C350.374 272.588 350.401 272.588 350.401 272.588Z" fill="white"/>
<path d="M355.161 274.833L356.567 275.537C357.378 275.942 357.703 276.916 357.297 277.728C356.891 278.512 355.945 278.864 355.134 278.485H355.107L353.7 277.836H353.673C352.862 277.457 352.483 276.456 352.889 275.645C353.268 274.833 354.268 274.454 355.08 274.86C355.134 274.806 355.161 274.806 355.161 274.833Z" fill="white"/>
<path d="M359.867 277.214L361.246 277.971C362.003 278.377 362.301 279.351 361.895 280.109C361.489 280.866 360.543 281.164 359.786 280.758H359.758L358.379 280.055H358.352C357.568 279.649 357.243 278.702 357.649 277.917C358.055 277.133 359.001 276.808 359.786 277.214C359.84 277.187 359.84 277.214 359.867 277.214Z" fill="white"/>
<path d="M364.464 279.757L365.816 280.542C366.547 280.974 366.79 281.894 366.384 282.625C365.979 283.355 365.059 283.599 364.329 283.193H364.302L362.95 282.435C362.192 282.03 361.922 281.083 362.355 280.325C362.787 279.568 363.68 279.324 364.464 279.757C364.437 279.73 364.464 279.757 364.464 279.757Z" fill="white"/>
<path d="M368.981 282.435L370.306 283.274C371.009 283.707 371.198 284.627 370.766 285.303C370.333 285.979 369.441 286.196 368.764 285.79H368.737L367.412 285.005C366.709 284.573 366.466 283.653 366.898 282.949C367.331 282.246 368.251 282.002 368.981 282.435C368.954 282.435 368.981 282.435 368.981 282.435Z" fill="white"/>
<path d="M373.389 285.276L374.687 286.142C375.336 286.575 375.525 287.467 375.066 288.117C374.633 288.766 373.767 288.928 373.118 288.523L371.82 287.684C371.144 287.251 370.955 286.358 371.388 285.682C371.82 285.033 372.713 284.816 373.389 285.276C373.389 285.249 373.389 285.276 373.389 285.276Z" fill="white"/>
<path d="M377.743 288.252L379.014 289.172C379.636 289.605 379.772 290.47 379.339 291.093C378.906 291.715 378.068 291.85 377.446 291.417L376.175 290.552C375.553 290.119 375.39 289.253 375.823 288.631C376.256 288.008 377.067 287.792 377.743 288.252C377.716 288.225 377.716 288.252 377.743 288.252Z" fill="white"/>
<path d="M381.962 291.363L383.206 292.31C383.774 292.743 383.882 293.582 383.45 294.177C383.017 294.745 382.206 294.853 381.611 294.447L380.367 293.527C379.772 293.095 379.636 292.256 380.096 291.661C380.502 291.038 381.34 290.903 381.962 291.363C381.935 291.336 381.962 291.363 381.962 291.363Z" fill="white"/>
<path d="M386.1 294.61L387.317 295.611C387.858 296.044 387.939 296.855 387.506 297.396C387.074 297.937 386.289 298.019 385.748 297.586L384.531 296.639C383.963 296.206 383.882 295.394 384.315 294.826C384.694 294.258 385.505 294.15 386.1 294.61C386.073 294.583 386.073 294.61 386.1 294.61Z" fill="white"/>
<path d="M390.103 297.991L391.293 299.02C391.806 299.452 391.861 300.237 391.401 300.751C390.968 301.238 390.211 301.319 389.697 300.886L388.507 299.885C387.993 299.452 387.912 298.668 388.345 298.154C388.804 297.586 389.562 297.532 390.103 297.991C390.103 297.964 390.103 297.964 390.103 297.991Z" fill="white"/>
<path d="M394.024 301.481L395.187 302.564C395.647 302.996 395.674 303.754 395.241 304.214C394.809 304.674 394.078 304.701 393.619 304.295L392.456 303.267C391.969 302.834 391.942 302.077 392.375 301.59C392.78 301.076 393.51 301.021 394.024 301.481C393.997 301.481 394.024 301.481 394.024 301.481Z" fill="white"/>
<path d="M397.811 305.107L398.92 306.216C399.352 306.649 399.352 307.352 398.92 307.785C398.487 308.218 397.784 308.218 397.351 307.812L396.242 306.73C395.782 306.297 395.782 305.594 396.215 305.134C396.621 304.674 397.351 304.647 397.811 305.107Z" fill="white"/>
<path d="M401.489 308.84L402.571 309.976C402.976 310.409 402.949 311.086 402.516 311.491C402.084 311.897 401.435 311.87 401.029 311.464L399.947 310.355C399.542 309.922 399.542 309.246 399.974 308.84C400.38 308.407 401.056 308.407 401.489 308.84C401.462 308.84 401.489 308.84 401.489 308.84Z" fill="white"/>
<path d="M405.031 312.709L406.059 313.899C406.438 314.332 406.384 314.954 405.978 315.333C405.572 315.712 404.923 315.658 404.572 315.252L403.517 314.116C403.138 313.71 403.165 313.034 403.571 312.655C403.977 312.249 404.626 312.276 405.031 312.709Z" fill="white"/>
<path d="M408.439 316.686L409.44 317.903C409.764 318.309 409.71 318.931 409.304 319.256C408.899 319.581 408.304 319.527 407.952 319.148L406.952 317.957C406.6 317.552 406.654 316.929 407.06 316.578C407.465 316.199 408.088 316.253 408.439 316.686C408.439 316.659 408.439 316.686 408.439 316.686Z" fill="white"/>
<path d="M411.739 320.771L412.685 322.015C412.983 322.421 412.929 322.989 412.523 323.287C412.117 323.585 411.576 323.53 411.252 323.125L410.278 321.907C409.954 321.501 410.035 320.933 410.413 320.609C410.819 320.284 411.414 320.338 411.739 320.771C411.739 320.744 411.739 320.744 411.739 320.771Z" fill="white"/>
<path d="M414.903 324.937L415.822 326.209C416.093 326.588 416.012 327.129 415.633 327.399C415.254 327.67 414.714 327.589 414.443 327.21L413.496 325.965C413.199 325.587 413.28 325.046 413.659 324.748C414.037 324.45 414.605 324.532 414.903 324.937C414.876 324.937 414.903 324.937 414.903 324.937Z" fill="white"/>
<path d="M417.905 329.212L418.77 330.51C419.014 330.889 418.932 331.376 418.554 331.62C418.202 331.863 417.688 331.782 417.445 331.403L416.553 330.132C416.282 329.753 416.39 329.239 416.742 328.995C417.121 328.752 417.634 328.833 417.905 329.212Z" fill="white"/>
<path d="M225.378 142.914L234.883 148.684L258.543 193.098L303.373 210.117L302.958 220.494L253.977 213.022L225.378 142.914Z" fill="url(#paint1_linear)"/>
<path d="M303.373 210.117L312.92 209.287L322.882 215.928L320.391 218.004L313.127 216.177L310.844 220.494L315.867 223.524L310.014 225.475L302.958 220.494L303.373 210.117Z" fill="#EAB683"/>
<path d="M181.918 393.212L181.711 399.023L193.292 405.208L199.394 399.563L193.707 393.544L182.126 387.401L181.918 393.212Z" fill="#3A2A1E"/>
<path d="M199.062 248.72L176.813 252.746L190.096 311.813L181.379 391.302L192.96 393.959L223.469 298.032L223.552 269.35L221.269 252.373L199.062 248.72Z" fill="#75755C"/>
<path d="M254.849 220.785L255.596 295.21L241.276 391.095H230.359L223.593 302.557L208.775 214.019L254.849 220.785Z" fill="#75755C"/>
<path d="M230.401 389.808V395.661L242.189 401.472L248.083 395.661L242.189 389.85L230.401 389.808Z" fill="#3A2A1E"/>
<path d="M169.839 255.154C170.005 258.475 174.696 279.976 173.7 280.557C178.639 278.814 183.703 277.278 188.767 275.95C202.133 272.463 215.873 270.429 229.695 269.889C235.963 269.64 242.521 269.225 248.706 270.346C251.736 270.886 254.725 271.757 257.672 272.504C258.419 272.712 266.347 274.123 266.347 274.248C264.936 264.742 265.351 255.195 264.687 245.565C264.023 235.852 262.819 226.181 261.076 216.592C258.336 201.566 250.781 189.114 244.721 175.208C241.732 168.276 238.91 161.261 235.05 154.744C232.019 149.68 226.706 142.292 220.771 140.382C218.778 139.718 216.62 139.801 214.503 139.884C208.11 140.133 201.718 140.382 195.326 140.631C193.001 140.714 190.594 140.839 188.518 141.918C185.447 143.578 183.869 147.024 182.5 150.261C176.398 164.706 172.911 180.065 171.458 195.713C170.711 203.891 170.005 212.109 169.632 220.328C169.175 229.501 169.092 238.675 169.549 247.848C169.632 248.886 169.673 251.75 169.839 255.154Z" fill="url(#paint2_linear)"/>
<path d="M208.152 179.442C208.65 183.551 208.443 187.702 208.193 191.853C206.741 217.007 200.39 247.848 198.937 272.961C215.042 269.972 235.008 269.64 256.717 272.255C255.472 262.957 252.691 244.694 251.446 235.396C250.657 229.418 249.827 223.441 248.332 217.63C245.925 208.29 241.732 199.574 237.582 190.981C229.903 175.084 222.223 159.227 214.544 143.329C214.129 142.499 213.714 141.586 213.008 141.005C212.178 140.299 211.099 140.133 210.061 140.009C205.08 139.386 199.518 138.93 194.662 140.092C193.79 145.28 198.896 153.873 200.929 158.522C203.794 165.246 207.197 171.929 208.152 179.442Z" fill="#FFFFBE"/>
<path d="M225.295 107.59C226.333 110.828 226.457 114.356 225.876 117.719C225.71 118.632 225.586 119.669 226.167 120.334C226.831 121.039 225.876 122.16 226.623 121.537C227.37 120.915 229.902 118.715 230.193 117.802C230.857 115.643 231.314 113.402 231.563 111.119C231.77 109.168 231.812 107.051 230.857 105.307C230.276 104.27 229.404 103.44 228.574 102.651C227.329 101.489 226.042 100.326 224.465 99.6623C221.767 98.5415 219.816 99.2057 221.891 101.696C223.386 103.44 224.589 105.349 225.295 107.59Z" fill="#E4B6B6"/>
<path d="M199.85 141.835C203.669 142.997 207.488 144.201 211.265 145.363C212.552 142.126 213.631 138.805 214.42 135.401C217.907 135.526 222.14 135.277 224.05 131.956C224.631 130.918 224.921 129.715 225.171 128.511C226.25 123.613 227.287 118.715 228.367 113.817C228.74 112.115 229.114 110.372 228.865 108.67C228.408 105.681 226.167 103.481 223.842 101.945C217.907 97.9605 210.31 96.4662 203.545 98.9982C201.76 99.6624 199.975 100.659 198.688 102.194C196.696 104.602 196.197 107.964 195.741 111.119C195.326 114.024 194.952 116.971 194.537 119.877C194.081 123.239 193.79 127.141 195.99 129.424C197.152 130.628 198.896 131.167 199.809 132.62C201.428 135.111 199.684 138.681 199.85 141.835Z" fill="#EAB683"/>
<path d="M226.748 126.767C226.872 125.854 227.038 123.073 225.337 124.484C224.88 124.858 224.672 125.439 224.506 126.02C224.382 126.601 224.257 127.224 223.967 127.722C223.261 128.884 221.767 129.175 220.522 128.884C220.023 128.76 219.525 128.594 219.152 128.262C218.778 127.93 218.529 127.473 218.28 127.016C217.658 125.937 217.076 124.858 216.454 123.779C215.416 121.911 212.552 122.035 210.643 121.869C208.443 121.703 206.201 121.911 204.167 122.949C203.96 123.073 203.752 123.156 203.545 123.281C203.046 123.571 202.548 123.82 202.009 123.945C200.182 124.401 198.314 123.156 197.484 121.413C197.111 120.624 196.779 119.628 195.99 119.337C195.367 119.13 194.662 119.462 194.205 119.96C193.748 120.5 193.499 121.205 193.333 121.869C192.628 124.36 192.462 127.058 193.084 129.549C194.454 134.945 198.937 136.48 203.586 137.352C205.412 137.684 207.28 138.016 209.107 138.39C212.469 139.012 216.039 139.594 219.276 138.265C222.14 137.062 224.216 134.447 225.461 131.541C226.084 130.047 226.54 128.428 226.748 126.767ZM213.05 131.126C211.058 131.956 209.065 131.582 207.239 130.586C206.45 130.171 207.114 128.843 207.903 129.258C209.439 130.088 210.975 130.379 212.635 129.715C213.465 129.424 213.922 130.794 213.05 131.126Z" fill="#75755C"/>
<path d="M233.016 100.326C233.597 99.2057 234.095 98.0435 234.468 96.8397C233.265 97.0057 231.978 96.8397 230.857 96.3831C230.982 95.6775 231.148 94.9718 231.272 94.2662C231.397 93.685 223.51 91.6096 222.888 91.4021C216.952 89.6587 211.514 87.9984 205.371 90.1153C200.141 91.9002 196.28 95.4284 194.413 100.659C192.669 105.681 192.918 112.738 195.035 117.636C195.284 116.266 195.201 112.862 195.782 111.617C196.239 110.372 196.986 109.209 197.816 108.172C199.56 106.096 201.884 104.56 204.375 103.647C208.401 102.153 212.759 101.862 216.993 102.153C220.854 102.402 225.586 102.9 229.072 104.685C230.774 105.557 230.982 106.055 232.434 104.477C232.684 104.187 234.967 100.783 234.842 100.742C234.261 100.575 233.638 100.451 233.016 100.326Z" fill="#75755C"/>
<path d="M470.03 390.846L470.362 399.314L464.925 405.166L460.566 405.332C458.698 405.415 457.412 403.464 458.159 401.763L459.072 399.729L461.687 394L464.302 388.272L470.03 390.846Z" fill="#2F485A"/>
<path d="M482.068 289.399L477.128 348.714L472.189 393.585L459.238 394.083L454.299 348.839L448.114 290.644L482.068 289.399Z" fill="#75755C"/>
<path d="M503.113 385.242L503.528 393.668L498.173 399.562L493.815 399.77C491.947 399.853 490.619 397.944 491.366 396.242L492.279 394.208L494.811 388.438L497.343 382.668L503.113 385.242Z" fill="#2F485A"/>
<path d="M514.113 283.67L507.388 343.111L505.354 387.981L492.362 388.604L484.392 343.899L480.158 285.289L514.113 283.67Z" fill="#75755C"/>
<path d="M445.665 110.164C446.37 115.394 448.446 120.458 451.601 124.734C450.563 119.877 449.899 114.937 450.272 109.998C450.646 105.058 452.14 100.119 455.129 96.1755C454.797 96.6321 450.646 96.0925 449.691 96.5491C448.363 97.1717 447.616 98.417 446.952 99.7038C445.374 102.858 445.208 106.677 445.665 110.164Z" fill="#DDC4AB"/>
<path d="M480.075 144.741C475.592 146.069 471.566 147.065 466.917 147.397C466.585 144.409 465.921 141.42 464.966 138.556C464.344 136.646 462.227 136.771 460.608 136.48C459.114 136.231 457.661 135.65 456.499 134.696C455.585 133.948 454.88 132.994 454.216 132.039C452.182 129.05 451.185 125.439 450.106 122.035C447.906 115.186 444.752 107.175 450.148 100.991C453.385 97.2547 458.2 94.9717 462.974 93.9755C466.544 93.2284 470.238 93.0623 473.766 93.8925C477.294 94.7642 480.615 96.7566 482.649 99.7452C485.015 103.232 485.181 107.258 485.264 111.326C485.347 116.556 487.464 120.998 484.807 125.979C483.853 127.764 482.607 129.382 481.487 131.043C480.241 132.869 479.453 135.484 479.453 137.684C479.453 138.39 480.532 144.616 480.075 144.741Z" fill="#A07959"/>
<path d="M459.57 96.3831C457.204 96.6321 454.921 97.2133 452.555 97.2133C450.189 97.2133 447.657 96.5491 445.914 94.6812C452.721 92.2737 459.363 86.338 466.461 85.9644C472.106 85.6738 479.909 92.6058 483.562 97.6699C487.09 102.609 486.841 110.081 485.181 116.017C484.392 113.651 484.641 111.077 483.853 108.753C482.857 105.764 480.241 103.44 477.958 101.738C472.521 97.6283 465.879 95.7189 459.57 96.3831Z" fill="#DDC4AB"/>
<path d="M463.97 122.949C460.898 122.658 457.329 123.198 455.71 125.605C454.589 127.307 454.672 129.424 454.548 131.458C454.423 133.45 453.842 135.692 451.933 136.647C453.468 137.228 455.253 137.062 456.706 136.397C458.159 135.733 459.404 134.613 460.317 133.367C461.148 132.247 461.853 131.001 463.057 130.254C463.929 129.715 465.008 129.507 466.046 129.299C467.083 129.092 468.162 128.76 468.91 128.096C471.981 125.315 466.129 123.156 463.97 122.949Z" fill="#DDC4AB"/>
<path d="M473.6 121.164C476.381 119.794 479.868 119.005 482.275 120.666C483.936 121.828 484.6 123.862 485.43 125.688C486.26 127.515 487.63 129.383 489.705 129.59C488.502 130.669 486.758 131.167 485.14 131.084C483.521 131.001 481.985 130.379 480.657 129.549C479.494 128.801 478.374 127.888 477.004 127.639C475.966 127.473 474.887 127.681 473.849 127.847C472.811 128.013 471.691 128.137 470.736 127.764C466.959 126.269 471.649 122.118 473.6 121.164Z" fill="#DDC4AB"/>
<path d="M520.048 173.174C512.369 151.258 499.294 139.552 491.615 138.348C491.49 138.099 491.407 137.975 491.407 137.975L491.117 138.016C491.034 137.933 490.951 137.933 490.951 137.933L490.909 138.058L461.562 141.877C461.562 141.877 460.566 142.914 458.989 144.782C458.989 144.782 451.517 156.571 452.763 173.174C454.008 189.778 454.423 232.116 448.612 248.72C442.801 265.323 430.431 293.342 440.601 295.127C454.257 297.534 485.762 301.727 512.245 294.587L534.286 287.323C534.286 287.323 534.286 287.24 534.244 287.157C540.263 273.293 528.723 197.955 520.048 173.174Z" fill="#A22B25"/>
<path d="M469.823 147.439L461.521 142.043L450.313 149.514L422.503 213.023L427.899 225.475L442.427 220.494L462.766 188.948L469.823 147.439Z" fill="#93C9C9"/>
<path d="M490.162 146.816C462.808 158.148 445.955 147.522 443.631 145.903C443.631 145.903 443.548 145.695 443.506 145.82C443.423 145.737 443.423 145.944 443.423 145.944C441.846 148.269 429.767 164.084 400.171 163.088C400.171 163.088 405.069 215.098 425.45 232.988C447.2 252.124 463.389 256.15 463.472 256.067C463.555 256.109 477.46 246.769 490.992 221.117C503.652 197.166 490.162 146.816 490.162 146.816Z" fill="#006398"/>
<path d="M486.924 152.835C462.06 163.004 446.827 153.582 444.751 152.171C444.751 152.171 444.668 152.005 444.627 152.088C444.544 152.046 444.544 152.212 444.544 152.212C443.091 154.288 432.091 168.442 405.277 167.612C405.277 167.612 409.552 213.936 427.982 229.833C447.657 246.811 462.517 251.584 462.6 251.501C462.683 251.543 475.094 241.954 487.464 219.083C499.003 197.664 486.924 152.835 486.924 152.835Z" fill="#2F91C5"/>
<g opacity="0.06">
<g opacity="0.06">
<path opacity="0.06" d="M445.333 156.695C445.333 156.695 445.333 156.488 445.416 156.571C445.457 156.488 445.54 156.654 445.54 156.654C447.699 158.106 463.057 167.612 488.211 157.94C487.256 153.333 486.468 150.469 486.468 150.469C461.604 160.639 446.37 151.216 444.295 149.805C444.295 149.805 444.212 149.639 444.17 149.722C444.087 149.68 444.087 149.846 444.087 149.846C442.634 151.922 431.635 166.076 404.82 165.246C404.82 165.246 405.111 168.193 405.816 172.884C432.755 173.133 443.838 158.812 445.333 156.695Z" fill="black"/>
</g>
</g>
<g opacity="0.34">
<path opacity="0.34" d="M481.57 166.906C462.808 174.669 448.861 167.321 447.284 166.242C447.284 166.242 447.242 166.118 447.201 166.159C447.159 166.118 447.118 166.242 447.118 166.242C446.038 167.82 435.62 179.525 415.364 178.819C415.364 178.819 420.843 213.645 434.831 225.932C449.774 239.048 460.857 241.788 460.898 241.747C460.94 241.788 470.487 235.354 479.785 217.796C488.419 201.359 481.57 166.906 481.57 166.906Z" fill="white"/>
</g>
<path d="M490.992 137.892L508.011 142.873L543.293 194.344L535.822 209.287H482.275V196.834L522.539 191.438L503.445 171.514L490.992 137.892Z" fill="#C8524D"/>
<path d="M356.919 311.398C376.137 311.398 391.703 333.73 391.703 361.291C391.703 388.853 376.137 411.185 356.877 411.185C337.659 411.185 322.052 388.853 322.052 361.291C322.052 333.73 337.659 311.398 356.919 311.398ZM356.877 306.583C351.274 306.583 345.878 308.119 340.814 311.19C336.082 314.055 331.889 318.122 328.278 323.27C321.138 333.481 317.195 347.012 317.195 361.333C317.195 375.653 321.138 389.144 328.278 399.396C331.848 404.544 336.082 408.611 340.814 411.475C345.878 414.547 351.274 416.083 356.877 416.083C362.481 416.083 367.877 414.547 372.941 411.475C377.673 408.611 381.866 404.544 385.477 399.396C392.616 389.185 396.56 375.653 396.56 361.333C396.56 347.012 392.616 333.522 385.477 323.27C381.907 318.122 377.673 314.055 372.941 311.19C367.877 308.119 362.481 306.583 356.877 306.583Z" fill="#47475B"/>
<path d="M356.919 315.424C364.847 315.424 372.402 319.99 378.213 328.334C384.315 337.092 387.677 348.797 387.677 361.333C387.677 373.827 384.315 385.574 378.213 394.332C372.402 402.634 364.847 407.242 356.919 407.242C348.991 407.242 341.395 402.676 335.625 394.332C329.523 385.574 326.161 373.869 326.161 361.333C326.161 348.839 329.523 337.092 335.625 328.334C341.395 319.99 348.949 315.424 356.919 315.424ZM356.877 311.398C337.659 311.398 322.052 333.73 322.052 361.292C322.052 388.853 337.617 411.185 356.877 411.185C376.096 411.185 391.703 388.853 391.703 361.292C391.703 333.73 376.096 311.398 356.877 311.398Z" fill="#88ABBD"/>
<path d="M357.5 314.221H356.296V361.084H357.5V314.221Z" fill="#88ABBD"/>
<path d="M337.56 323.25L336.496 323.812L356.335 361.354L357.399 360.792L337.56 323.25Z" fill="#88ABBD"/>
<path d="M325.612 340.665L324.969 341.683L356.567 361.614L357.209 360.595L325.612 340.665Z" fill="#88ABBD"/>
<path d="M356.919 360.503H322.093V361.707H356.919V360.503Z" fill="#88ABBD"/>
<path d="M356.582 360.583L326 379.864L326.641 380.882L357.224 361.601L356.582 360.583Z" fill="#88ABBD"/>
<path d="M356.342 360.825L336.184 398.95L337.248 399.512L357.406 361.388L356.342 360.825Z" fill="#88ABBD"/>
<path d="M357.5 361.084H356.296V407.947H357.5V361.084Z" fill="#88ABBD"/>
<path d="M357.406 360.816L356.342 361.378L376.53 399.58L377.594 399.018L357.406 360.816Z" fill="#88ABBD"/>
<path d="M357.221 360.608L356.579 361.626L387.509 381.136L388.151 380.118L357.221 360.608Z" fill="#88ABBD"/>
<path d="M389.835 360.503H356.877V361.707H389.835V360.503Z" fill="#88ABBD"/>
<path d="M386.943 341.432L356.571 360.58L357.213 361.598L387.585 342.45L386.943 341.432Z" fill="#88ABBD"/>
<path d="M376.696 322.322L356.344 360.813L357.408 361.376L377.76 322.884L376.696 322.322Z" fill="#88ABBD"/>
<path d="M356.877 368.514C359.674 368.514 361.941 365.28 361.941 361.292C361.941 357.303 359.674 354.069 356.877 354.069C354.08 354.069 351.813 357.303 351.813 361.292C351.813 365.28 354.08 368.514 356.877 368.514Z" fill="#88ABBD"/>
<path d="M356.919 354.027C359.7 354.027 361.941 357.265 361.941 361.25C361.941 365.235 359.7 368.473 356.877 368.473C354.096 368.473 351.813 365.235 351.813 361.25C351.855 357.307 354.096 354.027 356.919 354.027ZM356.877 352.035C352.934 352.035 349.821 356.103 349.821 361.292C349.821 366.48 352.934 370.548 356.877 370.548C360.821 370.548 363.934 366.48 363.934 361.292C363.975 356.103 360.862 352.035 356.877 352.035Z" fill="#47475B"/>
<path d="M356.67 230.124H281.83V251.833H356.67V230.124Z" fill="#325972"/>
<path d="M348.7 301.146H419.473V338.13H348.244L348.7 301.146Z" fill="#325972"/>
<path d="M359.7 361.707H353.681V230.124C353.681 228.339 353.183 227.011 352.228 226.098C350.443 224.396 347.164 224.23 346.043 224.313H345.836H332.968V218.294H345.711C346.791 218.211 352.436 218.086 356.296 221.698C358.538 223.773 359.7 226.679 359.7 230.166V361.707Z" fill="#88ABBD"/>
<path d="M319.437 225.683H338.863C340.274 225.683 341.436 224.52 341.436 223.109V219.373C341.436 217.962 340.274 216.8 338.863 216.8H319.437C318.025 216.8 316.863 217.962 316.863 219.373V223.109C316.863 224.52 317.984 225.683 319.437 225.683Z" fill="#325972"/>
<path d="M422.461 402.136H416.442V297.7C416.442 291.391 414.242 286.7 409.884 283.67C407.061 281.719 404.197 281.097 403.533 280.972H356.877V274.953H403.948L404.156 274.995C404.363 275.036 408.846 275.617 413.329 278.731C417.522 281.636 422.461 287.24 422.461 297.7V402.136Z" fill="#88ABBD"/>
<path d="M419.431 336.428H346.21V342.447H419.431V336.428Z" fill="#88ABBD"/>
<path d="M422.669 379.804H416.235V399.936H422.669V379.804Z" fill="#383847"/>
<path d="M410.424 415.585C417.416 415.585 423.084 409.917 423.084 402.925C423.084 395.933 417.416 390.265 410.424 390.265C403.432 390.265 397.764 395.933 397.764 402.925C397.764 409.917 403.432 415.585 410.424 415.585Z" fill="#88ABBD"/>
<path d="M410.465 396.283C414.118 396.283 417.065 399.272 417.065 402.925C417.065 406.577 414.077 409.566 410.424 409.566C406.771 409.566 403.782 406.577 403.782 402.925C403.782 399.272 406.771 396.283 410.424 396.283H410.465ZM410.424 390.265C403.409 390.265 397.764 395.951 397.764 402.925C397.764 409.94 403.45 415.585 410.424 415.585C417.439 415.585 423.084 409.898 423.084 402.925C423.084 395.951 417.397 390.265 410.424 390.265Z" fill="#47475B"/>
<path d="M417.356 391.925L408.805 400.476C407.933 401.057 407.394 402.053 407.394 403.132C407.394 404.917 408.846 406.37 410.631 406.37C411.793 406.37 412.79 405.747 413.371 404.834L421.797 396.408L417.356 391.925Z" fill="#383847"/>
<path d="M454.257 405.955H424.371L417.107 364.197H347.455V358.137H422.212L429.435 399.936H454.257V405.955Z" fill="#88ABBD"/>
<path d="M431.386 406.743H452.597C454.049 406.743 455.253 405.54 455.253 404.087V400.559C455.253 399.106 454.049 397.902 452.597 397.902H431.386C429.933 397.902 428.729 399.106 428.729 400.559V404.087C428.729 405.581 429.933 406.743 431.386 406.743Z" fill="#325972"/>
<path d="M416.235 336.22L410.922 330.783C409.386 329.205 407.269 328.334 405.028 328.334H348.244V336.386L416.235 336.22Z" fill="#457B9E"/>
<path d="M365.926 306.583L387.677 334.311L384.439 391.883H371.986L368.375 339.541L336.58 328.707L365.926 306.583Z" fill="#9E6D5B"/>
<path d="M389.296 306.583L417.439 322.647L437.985 389.434L426.695 394.664L400.545 334.311L377.217 327.503L363.145 314.221L389.296 306.583Z" fill="#9E6D5B"/>
<path d="M317.776 214.683C321.387 215.015 324.999 215.388 328.61 215.72C329.191 215.762 329.274 207.128 329.647 206.464C330.104 205.551 331.806 205.302 332.636 204.679C333.798 203.891 334.795 202.811 335.583 201.649C339.07 196.46 338.032 190.442 338.074 184.506C338.074 182.929 338.115 181.31 337.576 179.857C336.621 177.283 334.255 175.748 331.889 174.751C325.87 172.261 318.855 172.344 313.252 175.831C311.757 176.744 310.346 177.948 309.516 179.566C308.188 182.098 308.478 185.004 308.395 187.744C308.312 190.774 308.852 194.011 309.848 196.917C310.844 199.823 312.546 202.604 315.036 204.389C318.523 206.921 316.821 210.947 317.776 214.683Z" fill="#EAB683"/>
<path d="M310.512 190.732C310.222 190.234 309.931 189.736 309.765 189.197C309.267 187.163 311.592 186.914 312.048 185.17C312.38 183.925 312.214 181.933 313.667 181.393C314.912 180.895 316.199 182.057 317.527 181.933C318.856 181.808 319.644 180.48 320.474 179.401C321.305 178.363 322.799 177.408 323.878 178.238C324.21 178.487 324.418 178.861 324.75 179.11C325.58 179.691 326.659 179.193 327.614 178.902C329.523 178.363 331.972 179.235 332.47 181.144C332.553 181.476 332.595 181.808 332.719 182.14C333.176 183.095 334.463 183.219 335.501 183.302C336.538 183.385 337.866 183.8 337.949 184.88C338.074 185.959 336.787 186.872 337.078 187.91C337.202 188.408 337.659 188.74 337.949 189.114C338.489 189.819 338.655 190.815 338.282 191.646C338.033 192.227 337.617 192.683 337.451 193.306C337.078 194.8 338.78 196.129 340.274 195.879C341.768 195.63 342.889 194.344 343.595 193.015C344.176 191.936 344.632 190.691 344.342 189.529C344.217 188.948 343.885 188.408 343.761 187.827C343.595 186.914 343.927 186 344.217 185.129C344.757 183.593 345.172 181.85 344.84 180.231C344.674 179.442 344.591 178.861 344.508 178.197C344.425 177.533 344.549 176.993 344.051 176.412C343.47 175.665 342.64 175.084 342.432 174.17C342.183 172.884 343.346 171.721 343.304 170.435C343.263 169.812 342.972 169.272 342.64 168.774C341.561 167.28 339.859 166.242 338.074 165.993C337.244 165.869 336.372 165.869 335.625 165.495C334.255 164.79 333.882 163.005 332.719 161.967C331.599 160.971 329.938 160.888 328.444 161.012C326.95 161.178 325.414 161.51 323.961 161.178C321.803 160.68 319.935 158.812 317.735 159.061C314.705 159.393 313.418 163.378 310.595 164.54C308.727 165.288 306.444 164.706 304.826 165.91C302.501 167.612 303.041 171.804 302.086 174.295C300.758 177.823 300.052 180.521 301.629 184.216C302.086 185.295 302.667 186.416 302.418 187.536C302.335 188.034 302.086 188.491 301.92 188.989C301.422 190.691 302.252 192.517 303.414 193.887C304.577 195.257 306.071 196.253 307.192 197.623C307.731 198.287 308.188 198.993 308.852 199.491C309.516 199.989 310.471 200.279 311.176 199.864C310.844 199.325 310.844 198.578 311.176 198.038C311.467 197.623 311.965 197.332 312.173 196.834C312.297 196.544 312.297 196.17 312.297 195.838C312.214 194.344 311.758 192.849 311.01 191.563C310.844 191.272 310.678 190.981 310.512 190.732Z" fill="#75755C"/>
<path d="M310.844 159.476C310.139 158.812 309.142 158.356 308.229 158.605C307.856 158.729 307.482 158.937 307.108 159.061C305.822 159.435 304.535 158.48 303.248 158.148C301.837 157.774 300.218 158.19 299.139 159.186C298.392 159.85 297.935 161.054 298.475 161.884C298.641 162.091 298.848 162.299 298.973 162.506C299.554 163.337 299.014 164.54 298.226 165.205C297.437 165.869 296.441 166.201 295.652 166.782C294.158 167.944 293.535 170.144 294.199 171.929C294.863 173.714 296.773 174.959 298.641 174.835C299.554 174.752 300.509 174.419 301.38 174.71C301.837 174.876 302.252 175.208 302.667 175.457C304.203 176.329 306.154 175.955 307.648 174.959C309.101 174.004 310.139 172.51 311.093 171.016C311.467 170.435 311.84 169.771 311.674 169.106C311.176 166.906 309.142 167.197 311.052 164.955C312.629 163.171 312.712 161.137 310.844 159.476Z" fill="#75755C"/>
<path d="M391.869 299.651C375.764 287.821 362.357 267.357 354.221 249.301C352.768 246.105 340.98 211.611 335.376 211.611L311.591 211.943C311.591 211.943 287.682 247.558 296.814 294.629C299.72 309.696 302.418 322.19 304.784 332.194C314.539 356.933 337.244 335.971 348.036 327.628C354.345 322.771 370.243 318.538 381.824 314.013C392.45 309.779 399.507 305.255 391.869 299.651Z" fill="#C68E4F"/>
<path d="M436.242 390.265L448.819 393.461V397.902H428.729L428.023 394.083L436.242 390.265Z" fill="#3A2A1E"/>
<path d="M382.862 391.925L389.669 394.665V397.902H372.07L371.987 391.883L382.862 391.925Z" fill="#3A2A1E"/>
<path d="M337.036 212.4L348.243 219.207C348.243 219.207 381.658 258.225 382.032 259.429C382.447 260.633 385.269 275.535 384.854 275.119C384.439 274.704 371.986 271.508 371.986 271.508L346.625 247.807L337.036 212.4Z" fill="#C68E4F"/>
<path d="M382.032 259.471L373.19 262.708L361.941 283.629L367.172 288.444L384.854 275.161L382.032 259.471Z" fill="#D19654"/>
<path d="M403.741 227.592C396.186 223.151 384.107 222.86 378.296 228.879C379.334 220.577 369.371 210.366 361.153 207.294C339.485 199.117 320.599 220.411 321.47 241.248C321.927 252.456 325.04 263.539 329.15 274.123C332.595 282.965 342.723 303.138 342.764 303.138C342.806 303.221 364.847 298.447 373.896 295.583C384.688 292.138 395.273 287.614 404.28 280.931C421.091 268.561 423.706 239.381 403.741 227.592Z" fill="#38A611"/>
<g opacity="0.12">
<path opacity="0.12" d="M399.258 281.055C390.873 285.248 381.866 288.61 372.775 290.851C363.975 293.01 354.428 294.006 345.545 291.64C341.27 290.478 337.493 288.568 334.297 285.953C338.323 294.587 342.889 303.594 342.93 303.594C342.972 303.677 365.013 298.904 374.062 296.04C384.854 292.595 395.439 288.07 404.446 281.387C407.352 279.229 409.842 276.572 411.876 273.584C407.933 276.406 403.658 278.897 399.258 281.055Z" fill="black"/>
</g>
<path d="M402.288 273.874C396.767 271.425 391.247 268.935 385.726 266.486C387.386 257.935 389.047 249.384 390.749 240.833C390.998 239.588 389.42 238.924 388.59 239.796C378.047 251.003 367.462 262.21 356.919 273.459C356.296 274.123 355.715 274.746 355.093 275.41C356.379 265.323 357.708 255.237 358.994 245.15C359.202 243.531 359.41 241.913 359.617 240.294C359.742 239.298 358.579 238.343 357.708 239.048C353.598 242.286 349.489 245.524 345.38 248.761C339.278 245.856 333.176 242.909 327.074 240.003C325.621 239.298 324.584 241.539 325.995 242.245C332.346 245.275 338.655 248.305 345.006 251.335C345.38 251.501 345.878 251.501 346.251 251.252C349.779 248.471 353.308 245.69 356.836 242.95C355.508 253.286 354.179 263.663 352.81 273.999C352.602 275.618 352.395 277.236 352.187 278.855C352.021 280.059 353.474 280.806 354.345 279.893C364.889 268.686 375.473 257.478 386.017 246.229C386.515 245.69 387.013 245.15 387.552 244.611C386.1 252.082 384.647 259.554 383.194 267.025C383.111 267.565 383.402 268.146 383.858 268.354C389.669 270.927 395.481 273.542 401.292 276.116C402.662 276.78 403.741 274.538 402.288 273.874Z" fill="white"/>
<path d="M394.526 287.655L387.303 280.889L380.869 281.885L380.662 286.244L386.639 289.232L389.669 290.851L394.526 287.655Z" fill="#EAB683"/>
<path d="M336.123 267.274L343.304 270.263L347.829 280.474L342.931 281.595L335.376 274.829L336.123 267.274Z" fill="#EAB683"/>
<path d="M309.807 214.807L283.075 265.116L291.916 275.161H335.749L336.995 267.15L305.573 258.267L320.059 234.939L311.633 211.985L309.807 214.807Z" fill="#D19654"/>
<path d="M345.836 301.146H283.448V338.171H345.836V301.146Z" fill="#325972"/>
<path d="M286.064 361.291H280.045V230.124C280.045 228.339 279.547 227.011 278.592 226.098C276.807 224.396 273.528 224.23 272.407 224.313H272.2H259.332V218.294H272.117C273.196 218.211 278.841 218.086 282.701 221.698C284.943 223.773 286.105 226.679 286.105 230.166V361.291H286.064Z" fill="#88ABBD"/>
<path d="M245.8 225.683H265.185C266.596 225.683 267.758 224.52 267.758 223.109V219.373C267.758 217.962 266.596 216.8 265.185 216.8H245.759C244.347 216.8 243.185 217.962 243.185 219.373V223.109C243.227 224.52 244.347 225.683 245.8 225.683Z" fill="#325972"/>
<path d="M348.825 402.136H342.806V297.7C342.806 291.391 340.606 286.7 336.248 283.67C333.425 281.719 330.561 281.097 329.897 280.972H283.241V274.953H330.312L330.519 274.995C330.727 275.036 335.21 275.617 339.693 278.731C343.885 281.636 348.825 287.24 348.825 297.7V402.136Z" fill="#88ABBD"/>
<path d="M345.836 336.428H283.448V342.447H345.836V336.428Z" fill="#88ABBD"/>
<path d="M391.496 405.955H361.609L354.345 364.197H284.652V358.137H359.451L366.673 399.936H391.496V405.955Z" fill="#88ABBD"/>
<path d="M349.032 379.804H342.598V399.936H349.032V379.804Z" fill="#383847"/>
<path d="M336.787 415.585C343.779 415.585 349.447 409.917 349.447 402.925C349.447 395.933 343.779 390.265 336.787 390.265C329.795 390.265 324.127 395.933 324.127 402.925C324.127 409.917 329.795 415.585 336.787 415.585Z" fill="#88ABBD"/>
<path d="M336.58 396.283C340.232 396.283 343.428 399.272 343.428 402.925C343.428 406.577 340.44 409.566 336.787 409.566C333.134 409.566 330.146 406.577 330.146 402.925C330.146 399.272 333.134 396.283 336.787 396.283H336.58ZM336.787 390.265C329.772 390.265 324.127 395.951 324.127 402.925C324.127 409.94 329.814 415.585 336.787 415.585C343.802 415.585 349.447 409.898 349.447 402.925C349.447 395.951 343.761 390.265 336.787 390.265Z" fill="#47475B"/>
<path d="M343.719 391.925L335.21 400.434C334.338 401.015 333.798 402.012 333.798 403.091C333.798 404.876 335.251 406.328 337.036 406.328C338.198 406.328 339.194 405.706 339.776 404.793L348.202 396.366L343.719 391.925Z" fill="#383847"/>
<path d="M368.624 406.743H389.835C391.288 406.743 392.492 405.54 392.492 404.087V400.559C392.492 399.106 391.288 397.902 389.835 397.902H368.624C367.172 397.902 365.968 399.106 365.968 400.559V404.087C365.926 405.581 367.13 406.743 368.624 406.743Z" fill="#325972"/>
<path d="M283.449 311.398C304.452 311.398 321.263 333.73 321.263 361.291C321.263 388.853 304.244 411.185 283.241 411.185C262.238 411.185 245.219 388.853 245.219 361.291C245.219 333.73 262.238 311.398 283.241 311.398H283.449ZM283.241 306.583C277.264 306.583 271.494 308.119 266.098 311.107C260.992 313.93 256.426 317.998 252.525 323.103C244.721 333.356 240.404 346.929 240.404 361.291C240.404 375.653 244.721 389.227 252.525 399.479C256.426 404.585 260.992 408.611 266.098 411.475C271.494 414.464 277.264 416 283.241 416C289.218 416 294.988 414.464 300.384 411.475C305.49 408.653 310.056 404.585 313.957 399.479C321.761 389.227 326.078 375.653 326.078 361.291C326.078 346.929 321.761 333.356 313.957 323.103C310.056 317.998 305.49 313.972 300.384 311.107C294.988 308.077 289.218 306.583 283.241 306.583Z" fill="#47475B"/>
<path d="M283.449 315.424C292.331 315.424 300.55 320.032 306.942 328.458C313.584 337.175 317.237 348.839 317.237 361.292C317.237 373.744 313.584 385.408 306.942 394.125C300.55 402.51 292.124 407.159 283.241 407.159C274.358 407.159 265.973 402.551 259.539 394.125C252.898 385.408 249.245 373.744 249.245 361.292C249.245 348.839 252.898 337.175 259.539 328.458C265.932 320.073 274.358 315.424 283.241 315.424H283.449ZM283.241 311.398C262.238 311.398 245.219 333.73 245.219 361.292C245.219 388.853 262.238 411.185 283.241 411.185C304.244 411.185 321.263 388.853 321.263 361.292C321.263 333.73 304.244 311.398 283.241 311.398Z" fill="#88ABBD"/>
<path d="M283.864 314.221H282.66V361.084H283.864V314.221Z" fill="#88ABBD"/>
<path d="M262.112 323.243L261.069 323.845L282.737 361.373L283.779 360.771L262.112 323.243Z" fill="#88ABBD"/>
<path d="M249.034 340.652L248.432 341.694L282.941 361.618L283.543 360.576L249.034 340.652Z" fill="#88ABBD"/>
<path d="M283.241 360.503H245.219V361.707H283.241V360.503Z" fill="#88ABBD"/>
<path d="M282.99 360.557L249.596 379.842L250.198 380.884L283.592 361.6L282.99 360.557Z" fill="#88ABBD"/>
<path d="M282.758 360.786L260.733 398.925L261.775 399.527L283.8 361.388L282.758 360.786Z" fill="#88ABBD"/>
<path d="M283.864 361.084H282.66V407.947H283.864V361.084Z" fill="#88ABBD"/>
<path d="M283.757 360.791L282.715 361.392L304.756 399.568L305.798 398.966L283.757 360.791Z" fill="#88ABBD"/>
<path d="M283.549 360.568L282.947 361.61L316.737 381.119L317.339 380.077L283.549 360.568Z" fill="#88ABBD"/>
<path d="M319.27 360.503H283.241V361.707H319.27V360.503Z" fill="#88ABBD"/>
<path d="M316.17 341.397L282.991 360.557L283.593 361.599L316.772 342.439L316.17 341.397Z" fill="#88ABBD"/>
<path d="M304.988 322.288L282.756 360.787L283.799 361.389L306.031 322.89L304.988 322.288Z" fill="#88ABBD"/>
<path d="M283.241 368.514C286.29 368.514 288.762 365.28 288.762 361.292C288.762 357.303 286.29 354.069 283.241 354.069C280.192 354.069 277.72 357.303 277.72 361.292C277.72 365.28 280.192 368.514 283.241 368.514Z" fill="#88ABBD"/>
<path d="M283.449 354.027C286.479 354.027 288.762 357.265 288.762 361.25C288.762 365.235 286.271 368.473 283.241 368.473C280.211 368.473 277.72 365.235 277.72 361.25C277.72 357.265 280.211 354.027 283.241 354.027H283.449ZM283.241 352.035C279.09 352.035 275.728 356.186 275.728 361.292C275.728 366.397 279.09 370.548 283.241 370.548C287.392 370.548 290.754 366.397 290.754 361.292C290.796 356.186 287.392 352.035 283.241 352.035Z" fill="#47475B"/>
<path d="M437.861 363.284C437.861 363.284 435.536 366.356 432.465 362.122C429.393 357.888 427.442 359.05 426.695 360.96C425.906 362.869 428.355 362.205 430.555 365.567C434.042 370.963 437.861 374.823 439.023 375.197C440.185 375.571 443.589 376.359 444.212 378.684C444.793 381.008 445.582 370.963 445.208 370.59C444.793 370.216 437.861 363.284 437.861 363.284Z" fill="#BC9B72"/>
<path d="M468.536 376.899C468.536 376.899 464.551 387.899 466.502 390.929C468.453 393.917 473.807 403.879 472.977 405.581C472.147 407.283 472.604 408.03 474.015 407.491C475.468 406.951 477.46 405.623 476.63 401.846C475.8 398.068 474.139 393.71 475.385 390.555C476.63 387.401 473.849 378.061 473.849 378.061L468.536 376.899Z" fill="#BC9B72"/>
<path d="M454.423 342.073C454.423 342.073 458.283 340.537 459.03 345.145C459.777 349.752 465.962 356.684 474.43 360.959C482.732 365.11 491.283 372.499 485.554 384.453C479.826 396.408 462.102 389.476 457.494 384.453C452.887 379.431 442.842 377.895 439.023 369.801C435.163 361.707 439.023 356.684 438.65 353.986C438.276 351.329 454.423 342.073 454.423 342.073Z" fill="#D3B37A"/>
<path d="M440.103 369.22L439.937 371.129C439.937 371.129 440.85 372.997 443.548 377.355C446.246 381.755 446.08 393.751 445.748 395.038C445.416 396.325 444.253 397.114 446.163 397.695C448.072 398.276 448.985 397.736 450.148 391.925C451.31 386.114 451.642 387.484 452.099 384.246C452.555 381.008 451.642 376.982 451.642 376.982L440.103 369.22Z" fill="#D3B37A"/>
<path d="M468.411 385.45C468.411 385.45 466.294 391.095 470.528 395.08C474.762 399.106 478.664 400.891 480.2 403.838C481.735 406.744 478.373 407.74 480.947 407.74C483.479 407.74 485.222 407.325 484.973 404.17C484.766 401.015 479.577 398.276 480.283 393.834C480.988 389.393 484.392 388.48 484.807 385.242C485.222 382.004 475.136 376.484 475.136 376.484L467.83 385.657L468.411 385.45Z" fill="#D3B37A"/>
<path d="M485.015 381.05C485.637 381.34 488.917 382.918 491.739 379.887C494.562 376.857 494.686 372.54 491.532 369.884C488.335 367.227 485.969 370.091 486.26 371.088C486.551 372.084 489.954 375.861 486.426 378.808C484.724 379.887 485.015 381.05 485.015 381.05Z" fill="#BC9B72"/>
<path d="M437.321 352.533L438.733 353.654C438.733 353.654 445.789 356.02 453.925 347.096C457.162 342.322 456.166 341.492 456.166 341.492L454.381 341.866C454.34 341.907 450.895 352.326 437.321 352.533Z" fill="#29404D"/>
<path d="M444.419 327.877C444.419 327.877 443.714 326.798 441.721 326.715C439.729 326.632 436.616 329.869 435.869 330.16C435.121 330.409 433.337 330.824 435.121 331.53C436.906 332.235 443.506 329.911 444.419 327.877Z" fill="#4F3818"/>
<path d="M451.268 332.36C451.268 332.36 448.155 327.96 443.423 327.835C440.642 327.794 438.151 328.915 436.034 330.658C434.955 331.53 434.125 332.609 433.087 333.564C432.423 334.186 431.593 334.477 430.929 335.141C429.393 336.76 428.604 339.707 429.185 341.865C429.767 344.024 427.193 350.333 434.416 351.994C441.638 353.654 451.268 349.42 453.385 345.684C455.502 342.031 457.37 338.213 451.268 332.36Z" fill="#DABA83"/>
<path d="M450.065 332.9C450.065 332.9 452.223 331.613 454.008 332.526C455.793 333.439 457.204 333.149 457.163 335.141C457.08 337.134 457.37 342.156 454.963 343.692C452.555 345.186 453.178 341.077 451.974 339.666C450.77 338.213 448.778 333.481 450.065 332.9Z" fill="#4F3818"/>
<path d="M244.43 216.011L255.638 213.022L260.619 214.019L262.777 216.841H258.211L256.883 220.494L259.332 225.683L265.807 225.6L263.524 230.041L254.974 231.245L244.015 226.305L244.43 216.011Z" fill="#EAB683"/>
<path d="M187.149 142.914L194.662 145.488L208.733 198.079L245.676 215.098L244.223 227.301L204.001 221.49L187.896 213.438L175.485 171.804L178.141 153.914L187.149 142.914Z" fill="url(#paint3_linear)"/>
<path d="M482.068 198.702L473.143 193.098L461.521 198.495V203.891H471.898L482.068 205.509V198.702Z" fill="#A07959"/>
<path d="M404.654 193.098L412.125 188.532L422.503 190.608V198.079L408.473 202.977L406.314 201.815L404.654 193.098Z" fill="#A07959"/>
<path d="M130.199 143.994L140.742 148.767L170.379 209.245L167.141 222.237L150.496 217.796L125.301 164.997L130.199 143.994Z" fill="#BE202A"/>
<path d="M90.0181 391.012V401.057L96.701 407.74H101.89C104.131 407.74 105.542 405.415 104.546 403.423L103.384 401.057L100.022 394.374L96.6595 387.691L90.0181 391.012Z" fill="#3A2A1E"/>
<path d="M123.225 389.393V399.438L129.908 406.121L135.47 404.253C137.546 403.547 138.168 400.932 136.632 399.397L133.27 392.714L129.908 386.031L123.225 389.393Z" fill="#3A2A1E"/>
<path d="M67.8525 273.584L79.558 334.352L87.4031 392.34H99.9803L106.663 333.522L112.018 264.244L67.8525 273.584Z" fill="#927658"/>
<path d="M140.659 268.271L143.564 328.5L134.847 391.551L122.353 392.216L117.248 329.496L104.754 273.584L140.659 268.271Z" fill="#927658"/>
<path d="M110.15 145.156C113.927 146.318 117.746 147.48 121.523 148.601C122.81 145.322 123.848 141.918 124.637 138.473C128.123 138.556 132.316 138.265 134.184 134.903C134.765 133.824 135.055 132.62 135.304 131.416C136.342 126.435 137.38 121.454 138.459 116.473C138.833 114.73 139.165 112.987 138.916 111.243C138.459 108.213 136.218 106.013 133.893 104.477C127.957 100.492 120.403 99.0397 113.678 101.696C111.893 102.402 110.109 103.398 108.863 104.975C106.912 107.424 106.373 110.87 105.958 114.066C105.584 117.013 105.169 120.002 104.795 122.949C104.339 126.352 104.048 130.337 106.248 132.62C107.41 133.824 109.112 134.364 110.067 135.816C111.727 138.307 109.984 141.96 110.15 145.156Z" fill="#EAB683"/>
<path d="M121.316 111.368C118.286 114.149 115.048 116.515 111.146 117.843C108.78 118.673 106.414 118.798 105.75 121.703C105.127 124.485 106.331 127.93 108.324 129.798C108.656 130.13 109.071 130.42 109.237 130.877C109.61 131.749 108.988 132.786 108.158 133.16C107.327 133.533 106.331 133.409 105.459 133.118C102.803 132.288 100.603 130.213 99.1087 127.805C95.9125 122.741 95.4974 116.141 97.3238 110.413C99.1502 104.768 103.052 99.6208 107.95 96.3831C112.474 93.3945 116.957 90.2814 122.644 91.1531C125.84 91.6512 131.029 94.5568 130.406 98.5831C129.701 102.858 124.221 108.545 121.316 111.368Z" fill="#BF9898"/>
<path d="M131.029 112.073C132.897 114.19 135.18 116.266 135.595 119.005C135.761 120.209 135.553 121.413 135.346 122.617C134.931 124.733 134.391 126.85 133.727 128.884C133.063 131.043 132.149 133.45 130.282 134.903C129.534 135.484 124.553 137.643 128.206 138.929C129.285 139.303 130.406 138.846 131.402 138.307C139.164 134.239 144.976 126.518 145.723 118.009C146.179 112.862 144.644 107.549 141.572 103.274C138.749 99.3717 132.897 94.1831 127.501 96.0925C120.361 98.583 128.248 108.919 131.029 112.073Z" fill="#BF9898"/>
<path d="M142.776 169.854C143.606 162.465 142.568 151.465 135.802 146.858C129.95 142.914 125.176 142.458 118.244 142.458C113.844 142.458 109.444 142.458 105.003 142.458L102.18 142.624C102.18 142.624 79.4335 157.65 68.8903 199.491C59.0528 238.467 53.034 292.885 62.7885 294.089C62.9546 294.089 63.1206 294.089 63.2867 294.048C64.7395 294.255 68.8903 294.795 74.8676 295.417C82.5052 295.874 90.1843 295.998 97.8219 295.957C111.022 295.874 124.761 296.621 136.923 290.685C146.179 286.161 157.885 280.059 153.568 267.98C151.119 261.629 148.338 254.033 145.598 244.984C135.055 209.66 141.157 184.465 142.776 169.854Z" fill="#789DD5"/>
<path d="M102.18 142.665L92.0106 146.733L51 195.464L53.449 208.042L99.3161 237.264L106.207 227.136L72.9166 195.464L99.3161 168.65L102.18 142.665Z" fill="#5C82BA"/>
<path d="M170.915 158.265L96.8726 138.542L70.6105 237.131L144.653 256.855L170.915 158.265Z" fill="#2B5F7C"/>
<g opacity="0.26">
<path opacity="0.26" d="M77.3164 234.358L78.3956 234.649L143.274 254.075L166.394 160.431L163.115 160.473L77.3164 234.358Z" fill="black"/>
</g>
<path d="M166.365 160.427L99.783 142.691L75.4868 233.9L142.069 251.636L166.365 160.427Z" fill="#FFFFBE"/>
<g opacity="0.05">
<path opacity="0.05" d="M99.5235 142.25L147.424 154.993L88.7312 182.431L99.5235 142.25Z" fill="black"/>
</g>
<g opacity="0.12">
<path opacity="0.12" d="M147.688 154.912L118.769 147.209L118.043 149.936L146.962 157.64L147.688 154.912Z" fill="black"/>
</g>
<path d="M143.938 145.156L143.481 145.031L143.564 144.741C144.311 141.918 142.277 138.888 138.998 138.016L134.681 136.854C131.402 135.982 128.123 137.56 127.376 140.424L127.293 140.714L126.836 140.59C123.557 139.718 120.278 141.296 119.531 144.16L117.995 149.929L146.926 157.65L148.462 151.88C149.251 149.016 147.217 146.028 143.938 145.156ZM139.164 143.994L131.527 141.96C130.738 141.752 130.281 140.963 130.489 140.175C130.697 139.386 131.485 138.93 132.274 139.137L139.911 141.171C140.7 141.379 141.157 142.167 140.949 142.956C140.783 143.745 139.953 144.201 139.164 143.994Z" fill="#9AD3D3"/>
<g opacity="0.47">
<g opacity="0.47">
<path opacity="0.47" d="M111.603 173.133C108.324 172.261 105.086 171.389 101.807 170.518C101.516 170.435 101.226 170.601 101.143 170.891C100.271 174.129 99.3992 177.408 98.5275 180.646C98.4445 180.936 98.6105 181.227 98.9011 181.31C102.18 182.182 105.418 183.053 108.697 183.925C108.863 183.966 108.988 183.925 109.071 183.883C109.071 183.883 109.071 183.883 109.112 183.883C109.237 183.842 109.32 183.717 109.361 183.593C110.233 180.355 111.105 177.076 111.976 173.838C112.059 173.506 111.893 173.216 111.603 173.133ZM108.49 182.721C105.584 181.932 102.637 181.185 99.7312 180.397C100.52 177.491 101.267 174.585 102.056 171.68C104.961 172.469 107.908 173.216 110.814 174.004C110.067 176.91 109.278 179.816 108.49 182.721Z" fill="#6E8A98"/>
</g>
<g opacity="0.47">
<path opacity="0.47" d="M106.829 191.148C103.55 190.276 100.312 189.404 97.033 188.532C96.7424 188.449 96.4519 188.615 96.3688 188.906C95.4972 192.144 94.6255 195.423 93.7538 198.661C93.6708 198.951 93.8368 199.242 94.1274 199.325C97.4066 200.196 100.644 201.068 103.923 201.94C104.089 201.981 104.214 201.94 104.297 201.898C104.297 201.898 104.297 201.898 104.339 201.898C104.463 201.857 104.546 201.732 104.588 201.608C105.459 198.37 106.331 195.091 107.203 191.853C107.244 191.521 107.078 191.231 106.829 191.148ZM103.716 200.778C100.81 199.989 97.8632 199.242 94.9575 198.453C95.7462 195.547 96.4934 192.642 97.282 189.736C100.188 190.525 103.135 191.272 106.04 192.061C105.252 194.966 104.463 197.872 103.716 200.778Z" fill="#6E8A98"/>
</g>
<g opacity="0.47">
<path opacity="0.47" d="M102.014 209.204C98.7349 208.332 95.4972 207.46 92.218 206.589C91.9275 206.506 91.6369 206.672 91.5539 206.962C90.6822 210.2 89.8105 213.479 88.9389 216.717C88.8558 217.007 89.0219 217.298 89.3124 217.381C92.5916 218.253 95.8293 219.124 99.1085 219.996C99.2745 220.038 99.399 219.996 99.4821 219.955C99.4821 219.955 99.4821 219.955 99.5236 219.955C99.6481 219.913 99.7311 219.789 99.7726 219.664C100.644 216.426 101.516 213.147 102.388 209.909C102.471 209.536 102.305 209.245 102.014 209.204ZM98.9009 218.792C95.9953 218.004 93.0482 217.256 90.1426 216.468C90.9313 213.562 91.6784 210.657 92.4671 207.751C95.3727 208.54 98.3198 209.287 101.225 210.075C100.437 212.981 99.6896 215.887 98.9009 218.792Z" fill="#6E8A98"/>
</g>
</g>
<path d="M104.131 175.084L106.58 174.959L107.244 177.533L120.029 172.635L121.233 173.216L105.999 180.106L104.131 175.084Z" fill="#4EAC82"/>
<path d="M98.4028 193.347L100.852 193.223L101.516 195.796L114.301 190.94L115.463 191.521L100.271 198.37L98.4028 193.347Z" fill="#4EAC82"/>
<path d="M93.6709 210.366L96.1199 210.2L96.7425 212.773L109.569 207.917L110.731 208.498L95.5388 215.389L93.6709 210.366Z" fill="#4EAC82"/>
<g opacity="0.32">
<path opacity="0.32" d="M141.731 224.015L107.236 214.826L105.933 219.719L140.427 228.908L141.731 224.015Z" fill="#6E8A98"/>
</g>
<g opacity="0.32">
<path opacity="0.32" d="M146.795 204.915L112.301 195.727L110.997 200.62L145.492 209.809L146.795 204.915Z" fill="#6E8A98"/>
</g>
<g opacity="0.32">
<path opacity="0.32" d="M151.9 185.827L117.406 176.638L116.103 181.532L150.597 190.72L151.9 185.827Z" fill="#6E8A98"/>
</g>
<path d="M51 195.464L69.2638 191.812L109.071 227.136L98.901 237.264L53.449 208.042L51 195.464Z" fill="#789DD4"/>
<path d="M107.742 228.879L116.791 233.611L119.614 244.984L114.342 246.188L107.452 238.509L101.848 234.317L107.742 228.879Z" fill="#EAB683"/>
<path d="M170.379 209.245L161.787 196.71L123.682 183.261L118.825 191.812L157.594 219.664L167.141 222.238L170.379 209.245Z" fill="#E3323D"/>
<path d="M122.769 184.88L113.927 178.778L101.35 180.023L101.765 184.88L115.172 189.778L119.863 189.944L122.769 184.88Z" fill="#EAB683"/>
<path d="M244.514 134.364C243.31 139.967 246.88 145.446 252.483 146.65C254.766 147.148 257.049 146.816 259.042 145.903C259.747 148.892 262.072 151.341 265.268 152.005C269.668 152.959 273.985 150.137 274.898 145.778C275.023 145.114 275.106 144.492 275.064 143.869C278.924 144.45 282.619 141.96 283.449 138.058C284.321 134.031 281.747 130.088 277.721 129.216C276.891 129.05 276.06 129.009 275.272 129.092C274.691 124.9 271.536 121.33 267.178 120.417C262.362 119.379 257.589 121.869 255.597 126.186C250.449 125.73 245.634 129.175 244.514 134.364Z" fill="#BAD7EA"/>
<path d="M413.329 28.5164C410.922 28.3919 408.556 28.5579 406.273 29.0145C404.53 13.7809 391.496 1.5773 375.017 0.66411C363.893 0.0829887 353.723 4.77347 347.248 12.4941C344.217 5.23006 336.829 0.0829887 328.195 -2.86553e-05C318.607 -0.083046 310.512 6.10175 308.105 14.5695C304.867 11.1658 300.343 8.92434 295.154 8.63378C284.694 8.09416 275.77 15.7318 275.189 25.7354C275.189 25.9429 275.189 26.1089 275.189 26.3165C273.362 25.8184 271.453 25.5278 269.46 25.4033C254.31 24.5731 241.359 35.6974 240.529 50.184C239.823 62.0554 247.502 72.5571 258.627 76.4174C258.004 78.5344 257.63 80.7759 257.506 83.1003C256.468 100.7 270.54 115.768 288.928 116.764C298.143 117.262 306.735 114.107 313.086 108.587C313.875 118.756 322.716 126.85 333.55 126.934C344.051 127.017 352.81 119.586 354.18 109.873C358.87 115.934 366.217 120.002 374.685 120.458C387.013 121.122 397.847 113.9 401.956 103.398C404.53 104.934 407.56 105.847 410.797 106.055C421.216 106.636 430.182 98.9567 430.763 88.9531C431.012 84.4286 429.518 80.1947 426.861 76.874C433.959 72.4741 438.816 65.0026 439.314 56.2857C440.061 41.7577 428.48 29.3051 413.329 28.5164ZM396.767 76.8325C396.726 76.791 396.684 76.7495 396.643 76.708C396.726 76.7495 396.767 76.791 396.767 76.8325C396.809 76.8325 396.809 76.8325 396.767 76.8325Z" fill="#BAD7EA"/>
<path d="M425.99 32.2522C428.231 36.32 429.393 41.052 429.103 45.9916C428.605 54.7084 423.707 62.18 416.65 66.5799C419.348 69.9006 420.843 74.1345 420.552 78.6589C419.971 88.6625 411.046 96.3001 400.586 95.7605C397.349 95.5944 394.36 94.6397 391.745 93.1039C387.677 103.606 376.802 110.828 364.474 110.164C356.006 109.707 348.659 105.598 343.968 99.5793C342.557 109.292 333.84 116.722 323.339 116.639C320.142 116.598 317.154 115.892 314.497 114.647C317.569 121.786 324.874 126.809 333.425 126.892C343.927 126.975 352.685 119.545 354.055 109.832C358.746 115.892 366.093 119.96 374.56 120.417C386.888 121.081 397.722 113.858 401.832 103.357C404.405 104.892 407.435 105.806 410.673 106.013C421.092 106.594 430.057 98.9151 430.639 88.9115C430.888 84.3871 429.393 80.1532 426.737 76.8325C433.835 72.4326 438.691 64.961 439.189 56.2442C439.812 46.1991 434.416 37.1502 425.99 32.2522Z" fill="#A9C6DA"/>
<path d="M278.8 129.59C279.09 130.711 279.132 131.873 278.883 133.077C278.053 136.937 274.358 139.469 270.498 138.888C270.498 139.511 270.457 140.175 270.332 140.797C269.377 145.197 265.06 147.978 260.702 147.024C260.162 146.899 259.664 146.733 259.166 146.526C259.996 149.224 262.238 151.382 265.227 152.046C269.626 153.001 273.943 150.178 274.857 145.82C274.981 145.156 275.064 144.533 275.023 143.911C278.883 144.492 282.577 142.001 283.407 138.099C284.196 134.447 282.204 130.877 278.8 129.59Z" fill="#A9C6DA"/>
<defs>
<linearGradient id="paint0_linear" x1="-0.0193002" y1="238.12" x2="583.916" y2="238.12" gradientUnits="userSpaceOnUse">
<stop stop-color="#D0E5F3"/>
<stop offset="1" stop-color="#D0E5F3"/>
</linearGradient>
<linearGradient id="paint1_linear" x1="225.416" y1="181.701" x2="303.389" y2="181.701" gradientUnits="userSpaceOnUse">
<stop stop-color="#E27A40"/>
<stop offset="1" stop-color="#B15500"/>
</linearGradient>
<linearGradient id="paint2_linear" x1="169.292" y1="210.187" x2="266.368" y2="210.187" gradientUnits="userSpaceOnUse">
<stop stop-color="#E27A40"/>
<stop offset="1" stop-color="#B15500"/>
</linearGradient>
<linearGradient id="paint3_linear" x1="175.519" y1="185.104" x2="245.691" y2="185.104" gradientUnits="userSpaceOnUse">
<stop stop-color="#E27A40"/>
<stop offset="1" stop-color="#B15500"/>
</linearGradient>
</defs>
</svg>
