<svg width="590" height="380" viewBox="0 0 590 380" fill="none" xmlns="http://www.w3.org/2000/svg">
<g clip-path="url(#clip0)">
<path d="M589.959 294.839C589.698 278.847 588.231 266.113 585.86 255.879C582.082 239.525 576.013 229.488 568.939 222.644C567.854 221.591 566.749 220.604 565.624 219.715C565.161 219.353 564.699 218.958 564.217 218.629C562.127 217.05 559.997 215.668 557.827 214.417C556.701 213.759 555.576 213.134 554.431 212.542C553.988 212.311 553.566 212.081 553.124 211.884C549.346 209.975 545.548 208.264 541.871 206.454C540.524 205.796 539.198 205.105 537.912 204.381C536.666 203.69 535.42 202.966 534.215 202.209C532.064 200.827 529.994 199.314 528.045 197.537C527.925 197.438 527.784 197.306 527.663 197.175C527.121 196.681 526.598 196.155 526.076 195.628C522.881 192.305 520.087 188.191 517.857 182.828C517.736 182.531 517.616 182.268 517.515 181.972C517.214 181.215 516.912 180.426 516.651 179.603C514.903 174.47 513.617 168.349 512.913 160.912C512.632 157.918 512.451 154.726 512.371 151.304C511.125 98.6214 478.249 -21.1233 387.478 3.22712C383.438 4.31302 379.279 5.69506 375.018 7.34036C372.687 8.26173 370.296 9.24891 367.905 10.3677C294.134 44.0963 312.542 99.477 208.266 71.9347C204.288 70.8817 200.148 69.73 195.807 68.4138C194.401 67.986 192.994 67.5582 191.547 67.1304C164.639 58.8052 90.4468 56.4031 36.9729 144.492C35.6667 146.631 34.4207 148.803 33.215 151.008C31.4265 154.298 29.7586 157.622 28.1911 160.978C28.0706 161.241 27.95 161.472 27.8495 161.735C25.7797 166.243 23.9309 170.85 22.2429 175.49C21.5797 177.332 20.9367 179.175 20.3338 181.051C19.7913 182.696 19.2889 184.308 18.8066 185.954C16.9377 192.206 15.3703 198.59 14.0841 205.006C13.8028 206.454 13.5215 207.869 13.2602 209.317C13.0794 210.37 12.8784 211.39 12.7177 212.443C12.4966 213.792 12.2756 215.174 12.0545 216.523C11.9138 217.478 11.7732 218.399 11.6526 219.353C11.5722 219.978 11.4918 220.571 11.4115 221.196C11.1703 222.973 10.9493 224.75 10.7684 226.527C10.3866 230.015 10.0651 233.536 9.80382 237.057C9.422 242.289 9.18086 247.521 9.08038 252.753C9.04019 255.023 9 257.294 9 259.564C9 300.006 16.3549 339.328 24.1118 369.569C24.7749 372.168 25.4381 374.669 26.1012 377.104C26.2218 377.499 26.3223 377.927 26.4428 378.322C26.5835 378.815 26.7242 379.309 26.8448 379.803H27.8696C27.8696 379.835 27.8897 379.835 27.8897 379.868L27.9299 380V379.803H583.529C583.649 378.914 583.77 377.993 583.89 377.104C588.512 342.783 590.301 315.965 589.959 294.839Z" fill="#D0E5F3"/>
<path d="M460.218 377.104L457.652 194.063L457.257 166.26H438.864V129.737C438.568 129.606 438.304 129.441 438.008 129.31H432.514V129.277H400.63V129.31H400.597V134.772H400.63V138.523H400.597V143.984H400.63V147.768H400.597V153.23H400.63V153.263L397.241 153.23V124.572H361.442V128.191H361.41V133.653H361.442V138.457H361.41V143.919H361.442V147.703H361.41V153.164H361.442V156.652H361.41V162.213H361.442V165.701H361.41V171.163H361.442V174.453H361.41V177.941H361.442V178.335H321.136V209.659H306.066V217.556H289.812V203.967H260.594V167.017H255.987V163.332H255.329V167.017H251.545H232.593V163.332H231.935V167.017H227V185.607L202.454 185.508V196.959H181.626V126.085H119.965V202.026H101.145V160.963H39.4509V379.868L39.5167 380V379.802H460.284L460.218 377.104Z" fill="#B0DCFA"/>
<path d="M39.4839 209.331V380L39.4181 379.868C39.4181 379.835 39.3852 379.835 39.3852 379.802C38.9903 378.914 38.6284 378.026 38.2336 377.104C24.6116 344.793 10.0354 299.749 8.62061 252.73C8.91673 244.011 9.80512 235.225 11.3845 226.506C12.4374 220.748 13.7864 215.023 15.4974 209.298H39.4839V209.331Z" fill="#DFEBFA"/>
<path d="M181.626 126.085H135.825V138.095H181.626V126.085Z" fill="#EEF6FF"/>
<path d="M181.626 144.577H135.825V156.587H181.626V144.577Z" fill="#EEF6FF"/>
<path d="M181.626 163.463H135.825V175.473H181.626V163.463Z" fill="#EEF6FF"/>
<path d="M181.626 182.646H135.825V194.655H181.626V182.646Z" fill="#EEF6FF"/>
<path d="M181.626 201.137H135.825V213.147H181.626V201.137Z" fill="#EEF6FF"/>
<path d="M384.376 124.605H361.475V131.909H384.376V124.605Z" fill="#EEF6FF"/>
<path d="M384.376 135.825H361.475V143.129H384.376V135.825Z" fill="#EEF6FF"/>
<path d="M384.376 147.275H361.475V154.58H384.376V147.275Z" fill="#EEF6FF"/>
<path d="M384.376 158.923H361.475V166.227H384.376V158.923Z" fill="#EEF6FF"/>
<path d="M384.376 170.176H361.475V177.48H384.376V170.176Z" fill="#EEF6FF"/>
<path d="M384.376 182.547H361.475V189.852H384.376V182.547Z" fill="#EEF6FF"/>
<path d="M384.376 193.767H361.475V201.072H384.376V193.767Z" fill="#EEF6FF"/>
<path d="M384.376 205.217H361.475V212.522H384.376V205.217Z" fill="#EEF6FF"/>
<path d="M384.376 216.865H361.475V224.17H384.376V216.865Z" fill="#EEF6FF"/>
<path d="M384.376 228.118H361.475V235.423H384.376V228.118Z" fill="#EEF6FF"/>
<path d="M423.597 129.375H400.696V136.68H423.597V129.375Z" fill="#EEF6FF"/>
<path d="M423.597 140.596H400.696V147.9H423.597V140.596Z" fill="#EEF6FF"/>
<path d="M423.597 152.079H400.696V159.383H423.597V152.079Z" fill="#EEF6FF"/>
<path d="M423.597 163.727H400.696V171.031H423.597V163.727Z" fill="#EEF6FF"/>
<path d="M423.597 174.947H400.696V182.251H423.597V174.947Z" fill="#EEF6FF"/>
<path d="M329.79 163.727H328.638V178.599H329.79V163.727Z" fill="#DFEBFA"/>
<path d="M349.564 150.927H347.788V179.751H349.564V150.927Z" fill="#DFEBFA"/>
<path d="M124.769 120.788H124.045V126.085H124.769V120.788Z" fill="#DFEBFA"/>
<path d="M140.398 120.788H139.674V126.085H140.398V120.788Z" fill="#DFEBFA"/>
<path d="M176.164 120.788H175.44V126.085H176.164V120.788Z" fill="#DFEBFA"/>
<path d="M365.588 120.492H365.029V124.605H365.588V120.492Z" fill="#DFEBFA"/>
<path d="M392.437 120.492H391.878V124.605H392.437V120.492Z" fill="#DFEBFA"/>
<path d="M162.18 120.788H161.456V126.085H162.18V120.788Z" fill="#DFEBFA"/>
<path d="M590 370C589.7 372.256 589.401 374.571 589.061 376.887C589.021 377.128 589.001 377.368 588.961 377.609H587.343L405.572 378H35.3176C35.2177 377.639 35.0978 377.248 34.9779 376.887C34.3186 374.662 33.6593 372.346 33 370H590Z" fill="#AFCDFB"/>
<path d="M291.2 64.5923V373.028H281V64L291.2 64.5923Z" fill="#EEF2F7"/>
<path d="M113.681 371.149C111.871 371.149 110.16 370.03 109.469 368.22L65.8724 249.966C65.0169 247.63 66.2014 245.064 68.5375 244.208C70.8408 243.353 73.4401 244.537 74.2956 246.873L117.892 365.128C118.748 367.464 117.563 370.03 115.227 370.886C114.701 371.083 114.174 371.149 113.681 371.149Z" fill="#A0C5DD"/>
<path d="M146.814 371.149C145.005 371.149 143.294 370.03 142.603 368.22L99.0059 249.966C98.1504 247.63 99.3349 245.064 101.671 244.208C103.974 243.353 106.574 244.537 107.429 246.873L151.026 365.128C151.881 367.464 150.697 370.03 148.361 370.886C147.867 371.083 147.341 371.149 146.814 371.149Z" fill="#A0C5DD"/>
<path d="M112.694 269.939L77.5201 273.064L67.0569 248.42L104.205 247.071L112.694 269.939Z" fill="#A0C5DD"/>
<path d="M294.649 377.433H87.3912C83.4428 377.433 80.2183 374.209 80.2183 370.261C80.2183 366.312 83.4428 363.088 87.3912 363.088H294.649C298.597 363.088 301.822 366.312 301.822 370.261C301.822 374.209 298.597 377.433 294.649 377.433Z" fill="#A0C5DD"/>
<path d="M138.918 291.424H83.8046C82.8175 291.424 82.0278 290.635 82.0278 289.647C82.0278 288.66 82.8175 287.871 83.8046 287.871H138.72L150.269 285.633H116.51C115.523 285.633 114.734 284.844 114.734 283.857C114.734 282.87 115.523 282.08 116.51 282.08H168.925C169.847 282.08 170.636 282.771 170.702 283.692C170.801 284.613 170.176 285.436 169.254 285.633L139.247 291.457C139.148 291.424 139.016 291.424 138.918 291.424Z" fill="#A0C5DD"/>
<path d="M355.421 270.366C356.211 265.365 361.08 261.976 366.279 262.766C367.595 262.963 368.846 263.457 369.899 264.115L372.037 265.365L371.84 265.694C373.748 267.701 374.735 270.465 374.275 273.328C373.485 278.329 368.615 281.718 363.417 280.928C363.088 280.862 362.759 280.797 362.462 280.731L362.265 281.06L359.83 279.612C356.704 277.671 354.829 274.084 355.421 270.366Z" fill="#EF7E29"/>
<path d="M376.315 274.479C377.104 269.478 373.518 264.74 368.319 263.917C363.12 263.095 358.251 266.484 357.461 271.518C356.671 276.519 360.258 281.257 365.457 282.08C370.655 282.902 375.525 279.513 376.315 274.479Z" fill="#F99746"/>
<path d="M365.128 273.13C365.095 272.044 366.312 270.827 367.793 271.189C368.385 271.353 384.639 279.25 384.639 279.25L381.81 283.626L365.884 274.644C365.884 274.644 365.128 274.216 365.128 273.13Z" fill="#EF7E29"/>
<path d="M375.13 278.69C374.9 278.658 369.8 281.125 367.168 277.506C365.983 275.861 366.871 274.314 368.023 273.854C368.911 273.525 370.359 274.545 370.918 275.104C371.873 276.058 375.13 278.69 375.13 278.69Z" fill="#FFB27D"/>
<path d="M360.06 376.94C358.317 375.887 359.304 367.99 359.304 367.99C359.304 367.99 367.398 361.541 368.484 366.477C369.602 371.412 376.15 373.65 379.901 374.242C382.468 374.67 383.29 376.085 383.521 376.94H360.06Z" fill="#233862"/>
<path d="M369.24 370.589C366.608 371.445 361.541 374.011 358.349 372.794C356.277 372.004 344.695 338.509 343.938 323.867C343.905 323.143 343.806 322.254 343.642 321.169C343.576 320.642 343.477 320.083 343.346 319.491C342.26 313.568 339.924 304.158 337.62 294.681C334.495 281.882 331.402 268.885 331.468 264.049C331.632 254.507 359.896 262.041 359.896 262.041C359.896 262.041 361.574 268.852 362.133 278.987C362.166 279.711 362.199 280.434 362.232 281.191C362.989 303.664 365.095 341.634 370.853 368.023C371.05 369.142 370.326 370.26 369.24 370.589Z" fill="#213F7A"/>
<path d="M362.101 278.987L343.609 321.169C343.543 320.642 343.444 320.083 343.313 319.491C342.227 313.568 339.891 304.158 337.588 294.682L334.297 261.745L359.863 262.041C359.863 262.041 361.574 268.852 362.101 278.987Z" fill="#233862"/>
<path d="M346.438 198.933C346.438 198.933 355.915 199.262 359.435 203.474C362.956 207.685 367.168 237.66 369.537 243.78C371.873 249.933 374.702 271.518 374.702 272.34L370.886 273.097C370.886 273.097 360.357 250.822 359.435 245.919C358.514 241.016 347.064 216.701 347.162 215.023C347.195 213.345 346.438 198.933 346.438 198.933Z" fill="#FFB27D"/>
<path d="M322.649 210.219C323.044 207.093 319.853 204.724 316.99 206.073C313.371 207.784 309.389 210.12 308.205 212.72C305.836 217.754 300.67 239.667 301.065 247.827C301.065 247.827 305.474 249.012 308.6 247.663C311.726 246.314 322.32 212.818 322.32 212.818L322.649 210.219Z" fill="#FFB27D"/>
<path d="M334.922 377.006C334.922 377.006 334.429 373.09 333.277 370.787C332.126 368.451 324.722 369.931 324.722 369.931C324.722 369.931 323.242 371.182 322.946 377.104L334.922 377.006Z" fill="#233862"/>
<path d="M349.63 264.081L334.692 372.333C334.692 372.333 328.144 373.913 323.044 372.662C323.044 372.662 318.668 315.081 319.03 301.163C319.392 287.245 319.622 267.602 321.235 263.193C323.768 256.25 349.63 264.081 349.63 264.081Z" fill="#213F7A"/>
<path d="M344.168 193.965V195.379C344.168 195.379 344.563 199.756 339.134 200.414C333.738 201.072 329.658 198.703 329.789 195.314C330.283 192.681 330.809 190.905 330.842 188.733C330.842 187.943 330.809 187.088 330.645 186.101L341.108 185.903L344.201 186.397L344.168 193.965Z" fill="#FFB27D"/>
<path d="M344.201 186.364V191.859C340.187 193.307 332.093 190.872 331.435 187.647L341.108 185.87L344.201 186.364Z" fill="#F4A671"/>
<path d="M329.855 184.39C331.073 190.938 339.496 190.707 343.148 190.312C344.168 190.214 344.826 190.082 344.826 190.082C345.978 189.786 346.636 187.943 346.932 185.574C347.525 180.869 346.768 173.927 345.978 172.15C344.794 169.485 342.523 166.589 334.034 168.695C325.512 170.735 328.276 176.032 329.855 184.39Z" fill="#FFB27D"/>
<path d="M340.647 185.936C340.647 185.936 341.338 187.154 343.74 186.923C345.32 186.759 345.451 185.41 345.451 185.41C345.451 185.41 343.181 184.916 340.647 185.936Z" fill="white"/>
<path d="M358.909 221.834C364.963 221.34 367.859 218.445 367.859 218.445C367.859 218.445 362.397 203.507 359.402 200.94C356.408 198.374 344.201 196.136 344.168 196.136C344.069 196.07 344.004 196.038 344.004 196.038C344.004 197.387 341.865 199.887 338.575 200.118C334.659 200.381 329.789 197.551 329.789 195.314C329.789 195.314 320.478 195.972 315.509 198.67C310.541 201.368 304.618 214.661 304.618 214.661C304.618 214.661 306.626 221.242 318.997 223.347L318.109 267.109C340.944 274.676 362.002 266.878 362.002 266.878C362.495 266.878 359.304 241.806 359.139 235.62C359.04 231.573 358.942 227 358.909 221.834Z" fill="white"/>
<path d="M348.051 171.919C349.532 170.406 349.137 167.872 347.261 166.852C345.353 165.832 342.391 164.385 339.825 163.694C336.074 162.674 332.323 163.825 330.875 164.615C330.908 164.385 331.007 164.056 331.237 163.727C331.237 163.727 330.579 164.187 330.481 164.845C330.415 164.911 330.382 164.944 330.415 164.944C330.415 164.944 329.658 164.812 329.197 165.01C329.197 165.01 329.526 164.977 329.658 165.174C329.658 165.207 329.691 165.207 329.724 165.24C324.13 167.938 322.288 174.552 325.413 178.796C327.355 181.429 330.842 186.792 330.842 186.792C330.842 186.792 330.25 185.344 330.119 184.127C330.086 183.765 330.184 183.403 330.316 183.107C330.579 182.449 330.579 181.725 330.316 181.067C329.921 180.112 329.855 179.125 330.645 178.73C331.599 178.27 332.323 178.961 332.817 179.652C333.179 180.211 333.902 180.441 334.528 180.211C334.561 180.211 334.561 180.211 334.593 180.178C336.962 179.191 334.988 176.46 337.061 174.782C339.134 173.104 344.629 173.992 346.439 173.301C346.932 172.874 347.524 172.446 348.051 171.919Z" fill="#233862"/>
<path d="M367.99 277.835C368.846 272.373 374.143 268.688 379.802 269.576C381.25 269.807 382.566 270.3 383.751 271.024L386.087 272.373L385.857 272.735C387.929 274.907 388.982 277.934 388.489 281.06C387.633 286.522 382.336 290.207 376.677 289.318C376.315 289.253 375.986 289.187 375.624 289.088L375.393 289.45L372.728 287.904C369.372 285.831 367.365 281.915 367.99 277.835Z" fill="#EF7E29"/>
<path d="M390.726 282.343C391.582 276.881 387.699 271.748 382.04 270.86C376.38 269.972 371.083 273.657 370.227 279.119C369.372 284.581 373.255 289.713 378.914 290.602C384.573 291.49 389.871 287.805 390.726 282.343Z" fill="#F99746"/>
<path d="M377.071 279.809C377.335 278.033 379.078 276.848 380.888 277.144C381.349 277.21 381.777 277.375 382.171 277.605L382.928 278.033L382.862 278.164C383.52 278.855 383.882 279.842 383.718 280.862C383.455 282.639 381.711 283.824 379.901 283.527C379.802 283.495 379.671 283.495 379.572 283.462L379.506 283.56L378.651 283.067C377.499 282.409 376.841 281.126 377.071 279.809Z" fill="#EF7E29"/>
<path d="M384.442 281.257C384.705 279.48 383.455 277.835 381.612 277.539C379.769 277.243 378.058 278.46 377.795 280.204C377.532 281.981 378.782 283.626 380.625 283.922C382.435 284.251 384.146 283.034 384.442 281.257Z" fill="#F99746"/>
<path d="M301.065 247.827C301.065 247.827 316.464 253.717 337.621 251.118V246.742C337.621 246.742 314.819 242.201 310.344 238.22C310.344 238.22 302.315 241.576 301.065 247.827Z" fill="#FFB27D"/>
<path d="M354.532 240.654C353.216 235.752 348.018 232.889 342.951 234.271C341.634 234.633 340.483 235.225 339.496 235.982L337.489 237.43L337.719 237.759C336.041 239.963 335.35 242.826 336.107 245.623C337.423 250.525 342.622 253.388 347.689 252.006C348.018 251.907 348.314 251.809 348.61 251.71L348.84 252.006L351.111 250.328C354.072 248.058 355.52 244.307 354.532 240.654Z" fill="#EF7E29"/>
<path d="M334.231 246.972C332.915 242.069 335.975 237.002 341.075 235.62C346.175 234.271 351.341 237.134 352.657 242.003C353.973 246.906 350.913 251.973 345.813 253.355C340.713 254.737 335.547 251.874 334.231 246.972Z" fill="#F99746"/>
<path d="M345.221 244.438C345.122 243.352 343.806 242.267 342.358 242.793C341.766 242.99 326.433 252.598 326.433 252.598L329.723 256.645L344.596 246.017C344.596 246.017 345.32 245.524 345.221 244.438Z" fill="#EF7E29"/>
<path d="M341.865 251.907C341.931 251.677 346.438 248.222 344.398 244.274C343.477 242.464 341.667 242.563 340.746 243.385C340.055 244.011 340.318 245.754 340.549 246.544C341.009 247.827 341.865 251.907 341.865 251.907Z" fill="#FFB27D"/>
<path d="M342.852 249.439C341.437 244.109 335.778 240.983 330.25 242.497C328.835 242.892 327.552 243.517 326.466 244.372L324.294 245.952L324.558 246.281C322.748 248.65 321.991 251.776 322.814 254.836C324.229 260.166 329.888 263.292 335.416 261.778C335.778 261.679 336.107 261.581 336.436 261.449L336.699 261.778L339.167 259.936C342.325 257.501 343.905 253.421 342.852 249.439Z" fill="#EF7E29"/>
<path d="M320.741 256.316C319.326 250.986 322.649 245.458 328.177 243.978C333.705 242.497 339.364 245.623 340.779 250.92C342.194 256.251 338.871 261.778 333.343 263.259C327.815 264.772 322.156 261.647 320.741 256.316Z" fill="#F99746"/>
<path d="M334.034 252.335C333.573 250.591 331.731 249.604 329.954 250.065C329.493 250.196 329.066 250.394 328.737 250.657L328.013 251.183L328.111 251.282C327.519 252.072 327.289 253.059 327.552 254.046C328.013 255.79 329.855 256.777 331.632 256.316C331.731 256.283 331.862 256.25 331.961 256.217L332.027 256.316L332.816 255.724C333.869 254.967 334.396 253.651 334.034 252.335Z" fill="#EF7E29"/>
<path d="M326.861 254.572C326.4 252.829 327.486 251.052 329.263 250.558C331.072 250.065 332.882 251.085 333.343 252.829C333.803 254.572 332.718 256.349 330.941 256.843C329.164 257.303 327.321 256.316 326.861 254.572Z" fill="#F99746"/>
<path d="M440.443 204.132C440.443 204.132 429.256 204.79 428.039 209.396C426.098 216.767 424.288 233.942 424.288 233.942L413.002 219.925L408.922 221.867C408.922 221.867 418.563 247.762 426.69 246.544C434.817 245.425 440.443 204.132 440.443 204.132Z" fill="#F4A671"/>
<path d="M451.927 169.583C451.927 169.583 453.374 163.759 461.962 165.569C461.962 165.569 457.849 165.043 456.73 166.622C456.73 166.622 459.988 165.141 462.028 166.392C464.068 167.642 464.397 171.821 464.101 173.104C463.805 174.387 461.534 178.171 460.054 178.171C458.573 178.171 456.796 176.855 456.796 176.855L451.927 169.583Z" fill="#2C3A64"/>
<path d="M436.528 175.605C436.528 175.605 447.386 162.575 453.144 170.9C453.144 170.9 457.421 172.676 458.968 179.981C460.547 187.417 455.612 193.076 453.045 191.694C451.4 190.806 450.15 193.669 450.15 193.669L436.528 175.605Z" fill="#2C3A64"/>
<path d="M439.917 204.198C439.884 204.231 443.898 206.303 446.925 205.481C449.788 204.691 453.407 203.737 453.342 203.737C452.124 203.507 450.018 199.098 450.051 191.958L449.492 192.056L440.312 193.866C440.312 193.866 440.509 196.761 440.542 199.492C440.575 201.796 440.443 203.967 439.917 204.198Z" fill="#FFB27D"/>
<path d="M440.378 193.899C440.378 193.899 440.575 196.794 440.608 199.525C445.741 199.394 448.472 194.688 449.591 192.089L440.378 193.899Z" fill="#F4A671"/>
<path d="M450.512 191.069C450.512 191.069 453.21 186.825 453.868 183.172C454.328 180.573 453.012 170.932 443.339 172.347C443.339 172.347 440.542 172.61 437.877 174.42C435.771 175.835 432.744 178.895 436.133 187.318L437.021 190.148L450.512 191.069Z" fill="#2C3A64"/>
<path d="M438.667 196.465C438.667 196.465 450.841 196.663 450.841 189.095C450.841 181.527 452.42 176.46 444.655 176C436.89 175.539 435.376 178.434 434.751 180.968C434.126 183.502 435.475 196.235 438.667 196.465Z" fill="#FFB27D"/>
<path d="M439.094 175.802C439.094 175.802 442.417 184.686 447.517 186.002C452.617 187.318 454.855 185.936 454.855 185.936C454.855 185.936 450.939 182.81 450.117 177.381C450.15 177.414 441.628 171.59 439.094 175.802Z" fill="#2C3A64"/>
<path d="M439.917 176.526C439.917 176.526 437.416 178.5 436.824 180.441C436.232 182.383 435.936 186.331 434.784 186.2C434.784 186.2 432.283 180.145 435.08 176.756C438.107 173.137 439.917 176.526 439.917 176.526Z" fill="#2C3A64"/>
<path d="M430.539 258.784C436.725 239.009 429.947 234.732 430.605 224.828C431.263 214.924 438.897 204.296 438.897 204.296C438.897 204.296 448.176 203.342 453.045 203.704C457.389 204 464.792 217.458 462.949 229.895C462.719 231.441 462.357 232.955 461.831 234.436C459.56 240.72 458.376 243.287 458.442 245.689C458.507 248.683 460.547 251.414 464.825 260.956C467.128 266.22 424.222 278.954 430.539 258.784Z" fill="#FFB27D"/>
<path d="M446.53 303.236C444.819 312.976 443.536 320.28 443.536 320.28C446.761 333.507 441.924 350.42 437.91 361.08C436.988 363.515 436.133 365.621 435.409 367.299C435.409 367.299 435.409 367.332 435.376 367.332C435.343 367.365 435.343 367.431 435.31 367.464C434.257 369.866 433.566 371.28 433.566 371.28L427.677 371.544C427.677 371.544 428.137 369.01 428.631 364.733C428.631 364.7 428.631 364.7 428.631 364.7C428.796 363.318 428.96 361.771 429.125 360.06C430.013 350.354 430.638 335.745 428.565 321.037C423.465 285.107 430.21 261.021 430.21 261.021L451.828 267.997L452.848 268.326C450.939 278.559 448.439 292.411 446.53 303.236Z" fill="#FFB27D"/>
<path d="M452.716 203.507C452.716 203.507 463.114 204.56 464.331 207.258C468.247 215.911 472.162 245.031 473.281 247.597C474.367 250.163 477.723 264.213 480.585 271.123L476.933 272.209C476.933 272.209 464.891 252.236 463.805 247.038C462.719 241.839 456.698 220.682 456.698 220.682L452.716 203.507Z" fill="#FFB27D"/>
<path d="M460.942 227.394L461.074 236.41C461.074 236.41 453.144 234.107 444.688 233.416C442.615 233.251 440.542 233.185 438.502 233.251C436.001 233.35 433.632 233.679 431.56 234.337C431.56 234.337 430.211 228.513 428.894 221.57C428.861 221.307 428.796 221.077 428.796 220.814C428.006 214.233 433.896 208.837 431.428 206.205C431.428 206.205 433.567 205.02 438.93 204.329C438.93 204.329 434.817 211.568 435.179 213.377C435.541 215.187 451.433 213.575 452.519 212.555C453.605 211.568 455.349 203.868 455.349 203.868C455.349 203.868 460.975 204.494 463.706 206.468C463.706 206.468 461.864 208.804 460.679 211.568C460.35 212.39 460.054 213.246 459.889 214.101C459.462 216.372 458.343 220.715 460.909 224.104L460.942 227.394Z" fill="white"/>
<path d="M450.643 279.875C448.735 290.042 448.439 292.411 446.531 303.236C434.685 282.54 436.429 277.111 436.429 277.111L450.643 279.875Z" fill="#F4A671"/>
<path d="M487.89 364.568C487.89 364.963 487.857 365.325 487.857 365.687C487.693 369.142 487.396 371.281 487.396 371.281L481.704 369.306C481.704 369.306 481.441 368.484 480.98 367.069C480.783 366.51 480.553 365.819 480.322 365.062C479.862 363.68 479.302 362.035 478.644 360.192C474.794 349.104 468.214 331.369 464.364 327.289C453.407 315.608 437.285 264.707 437.285 264.707L459.067 257.633C462.291 260.758 464.923 266.615 467.029 273.525C472.36 290.931 474.433 314.983 474.729 318.438C474.762 318.701 474.893 318.931 475.058 319.129C485.258 330.48 487.627 346.998 487.923 358.382C487.989 360.719 487.956 362.791 487.89 364.568Z" fill="#FFB27D"/>
<path d="M445.675 281.718L441.891 281.257C440.049 280.665 438.272 280.237 436.627 279.974C431.263 279.085 427.216 279.612 427.216 279.612C428.861 262.042 431.23 256.448 431.23 256.448L439.127 270.267L445.675 281.718Z" fill="#C42D24"/>
<path d="M445.675 281.718L441.891 281.257C440.049 280.665 438.272 280.237 436.627 279.974C436.396 276.618 437.745 272.998 439.127 270.267L445.675 281.718Z" fill="#622323"/>
<path d="M431.198 256.382C431.198 256.382 436.429 260.331 441.727 259.969C447.024 259.607 462.456 256.086 462.456 256.086C462.456 256.086 465.318 260.232 467.325 268.491C469.398 277.013 469.398 283.33 469.398 283.33C469.398 283.33 451.269 280.961 443.964 284.778L431.198 256.382Z" fill="#ED1F1F"/>
<path d="M439.456 176.855C439.456 176.855 441.825 186.167 448.274 189.128C448.274 189.128 441.825 183.403 441.266 177.283C440.74 171.13 439.456 176.855 439.456 176.855Z" fill="#2C3A64"/>
<path d="M493.385 273.426C492.496 270.07 488.91 268.096 485.422 269.017C484.534 269.247 483.711 269.675 483.053 270.201L481.671 271.189L481.836 271.419C480.684 272.932 480.223 274.907 480.717 276.815C481.605 280.171 485.192 282.145 488.68 281.224C488.91 281.158 489.107 281.092 489.305 281.027L489.469 281.224L491.016 280.072C493.056 278.526 494.076 275.96 493.385 273.426Z" fill="#EF7E29"/>
<path d="M479.401 277.802C478.513 274.446 480.618 270.958 484.106 270.004C487.594 269.05 491.18 271.024 492.069 274.413C492.957 277.769 490.851 281.257 487.364 282.211C483.876 283.133 480.322 281.158 479.401 277.802Z" fill="#F99746"/>
<path d="M486.969 276.026C486.903 275.269 485.982 274.545 484.994 274.907C484.6 275.038 474.038 281.652 474.038 281.652L476.308 284.449L486.541 277.144C486.541 277.144 487.034 276.782 486.969 276.026Z" fill="#EF7E29"/>
<path d="M401.223 211.535C402.111 208.179 405.698 206.205 409.185 207.126C410.074 207.356 410.896 207.784 411.554 208.311L412.936 209.298L412.772 209.528C413.923 211.042 414.384 213.016 413.89 214.924C413.002 218.28 409.416 220.254 405.928 219.333C405.698 219.267 405.5 219.202 405.303 219.136L405.138 219.333L403.592 218.182C401.552 216.635 400.565 214.036 401.223 211.535Z" fill="#EF7E29"/>
<path d="M415.207 215.878C416.095 212.522 413.989 209.034 410.501 208.08C407.014 207.126 403.427 209.1 402.539 212.489C401.65 215.845 403.756 219.333 407.244 220.287C410.732 221.208 414.318 219.234 415.207 215.878Z" fill="#F99746"/>
<path d="M407.639 214.134C407.705 213.377 408.626 212.654 409.613 213.016C410.008 213.147 420.57 219.761 420.57 219.761L418.299 222.557L408.067 215.253C408.067 215.22 407.573 214.891 407.639 214.134Z" fill="#EF7E29"/>
<path d="M408.955 221.965C408.955 221.965 405.204 217.293 407.902 214.891C410.6 212.489 414.121 213.18 414.219 214.595C414.318 216.01 413.002 220.024 413.002 220.024L408.955 221.965Z" fill="#F4A671"/>
<path d="M480.322 270.498C480.322 270.498 481.441 273.097 482.592 273.854C483.744 274.578 485.389 276.354 485.093 277.736C484.797 279.151 484.501 281.323 483.02 281.323C481.572 281.323 478.151 274.874 477.723 273.656C477.295 272.439 476.933 272.209 476.933 272.209L480.322 270.498Z" fill="#FFB27D"/>
<path d="M485.324 279.48C484.337 275.828 480.454 273.689 476.637 274.709C475.65 274.972 474.795 275.4 474.038 275.992L472.524 277.078L472.722 277.309C471.471 278.954 470.945 281.093 471.504 283.198C472.491 286.851 476.374 288.989 480.191 287.969C480.421 287.904 480.651 287.838 480.882 287.739L481.046 287.969L482.757 286.719C484.962 285.041 486.08 282.211 485.324 279.48Z" fill="#EF7E29"/>
<path d="M470.122 284.218C469.135 280.566 471.438 276.749 475.222 275.729C479.039 274.709 482.922 276.848 483.909 280.5C484.896 284.153 482.592 287.969 478.809 288.989C474.992 290.009 471.109 287.871 470.122 284.218Z" fill="#F99746"/>
<path d="M479.269 281.487C478.94 280.303 477.69 279.612 476.439 279.941C476.11 280.04 475.847 280.171 475.584 280.369L475.09 280.731L475.156 280.796C474.761 281.323 474.597 282.014 474.761 282.705C475.09 283.889 476.341 284.58 477.591 284.251C477.657 284.218 477.756 284.218 477.821 284.185L477.887 284.251L478.447 283.856C479.17 283.264 479.532 282.376 479.269 281.487Z" fill="#EF7E29"/>
<path d="M474.334 283.001C474.005 281.816 474.761 280.566 475.979 280.237C477.229 279.908 478.479 280.599 478.808 281.783C479.138 282.968 478.381 284.218 477.163 284.547C475.913 284.909 474.663 284.218 474.334 283.001Z" fill="#F99746"/>
<path d="M409.284 217.556C410.271 213.904 414.154 211.765 417.971 212.785C418.958 213.049 419.813 213.476 420.57 214.069L422.083 215.154L421.886 215.385C423.136 217.03 423.663 219.169 423.103 221.274C422.116 224.927 418.234 227.065 414.417 226.045C414.187 225.98 413.956 225.914 413.726 225.815L413.561 226.045L411.851 224.795C409.646 223.117 408.56 220.32 409.284 217.556Z" fill="#EF7E29"/>
<path d="M424.485 222.294C425.472 218.642 423.169 214.825 419.385 213.805C415.569 212.785 411.686 214.924 410.699 218.576C409.712 222.228 412.015 226.045 415.799 227.065C419.616 228.118 423.498 225.979 424.485 222.294Z" fill="#F99746"/>
<path d="M415.338 219.563C415.667 218.379 416.918 217.688 418.168 218.017C418.497 218.115 418.76 218.247 419.023 218.445L419.517 218.806L419.451 218.872C419.846 219.399 420.011 220.09 419.846 220.781C419.517 221.965 418.267 222.656 417.016 222.327C416.951 222.294 416.852 222.294 416.786 222.261L416.72 222.327L416.161 221.932C415.437 221.373 415.108 220.452 415.338 219.563Z" fill="#EF7E29"/>
<path d="M420.274 221.11C420.603 219.925 419.846 218.675 418.629 218.346C417.378 218.017 416.128 218.708 415.799 219.892C415.47 221.077 416.227 222.327 417.444 222.656C418.694 222.985 419.945 222.294 420.274 221.11Z" fill="#F99746"/>
<path d="M430.737 257.797C430.737 257.797 435.475 261.252 440.509 261.416C445.543 261.548 463.179 257.238 463.179 257.238L462.456 255.856C462.456 255.856 443.108 261.022 438.601 259.508C434.06 257.962 431.329 256.152 431.329 256.152L430.737 257.797Z" fill="#233862"/>
<path d="M434.948 377.006C432.81 377.039 427.776 376.446 425.736 377.006H417.641C415.766 375.854 414.976 374.505 420.01 373.88C427.249 372.991 428.565 365.72 428.697 364.831C428.697 364.798 428.697 364.798 428.697 364.798C428.697 364.766 428.697 364.733 428.697 364.733L435.475 367.332C435.475 367.332 435.475 367.365 435.442 367.365C435.442 367.398 435.409 367.464 435.376 367.497C435.146 368.122 434.587 369.931 435.343 372.07C435.968 373.979 437.087 376.973 434.948 377.006Z" fill="#FFB27D"/>
<path d="M488.12 377.006C485.982 377.039 480.947 376.446 478.907 377.006H470.813C468.938 375.854 468.214 374.768 473.149 373.88C480.454 372.597 481.276 369.24 480.947 367.069C480.783 365.983 480.355 365.16 480.289 365.062L487.89 364.601C487.89 364.601 487.857 365.029 487.857 365.72C487.824 367.299 487.857 370.293 488.515 372.136C489.14 373.979 490.259 376.973 488.12 377.006Z" fill="#FFB27D"/>
<path d="M435.343 367.562C435.113 368.188 434.554 369.997 435.31 372.136C435.936 373.979 437.087 377.006 434.948 377.006C432.81 377.006 427.776 376.446 425.736 377.006H417.641C415.766 375.854 414.976 374.505 420.01 373.88C427.249 372.991 428.565 365.72 428.697 364.831C428.697 364.799 428.697 364.799 428.697 364.799C428.861 363.417 429.026 361.87 429.19 360.159C429.19 360.159 432.547 362.627 437.976 361.146C437.054 363.581 436.199 365.687 435.475 367.365C435.475 367.365 435.475 367.398 435.442 367.398C435.409 367.431 435.376 367.497 435.343 367.562C435.343 367.53 435.343 367.53 435.343 367.562Z" fill="#213F7A"/>
<path d="M488.12 377.006C485.982 377.039 480.947 376.446 478.907 377.006H470.813C468.938 375.854 468.214 374.768 473.149 373.88C480.454 372.597 481.276 369.241 480.947 367.069C480.75 366.51 480.52 365.819 480.289 365.062C479.829 363.68 479.269 362.035 478.611 360.192C480.684 360.225 484.501 359.995 487.923 358.448C487.989 360.719 487.956 362.791 487.89 364.601C487.89 364.996 487.857 365.358 487.857 365.72C487.824 367.299 487.857 370.293 488.515 372.136C489.14 373.979 490.259 376.973 488.12 377.006Z" fill="#213F7A"/>
<path d="M437.219 192.023C437.219 192.023 437.548 192.714 437.68 193.076C437.811 193.438 439.851 193.438 440.476 193.043C441.003 192.714 441.661 191.826 441.628 191.859C441.628 191.859 438.107 191.793 437.219 192.023Z" fill="white"/>
<path d="M193.373 302.512C191.53 304.52 188.766 306.592 193.175 311.166C198.802 317.056 207.521 342.391 207.521 342.391C207.225 343.345 207.521 344.694 206.83 345.089C205.711 345.714 202.882 343.773 202.882 343.773C202.882 343.773 177.02 316.957 174.914 310.936C173.367 306.494 181.297 284.942 186.035 273.623C187.713 269.609 188.996 266.911 189.325 266.714C189.358 266.681 189.424 266.648 189.457 266.615C192.254 264.838 194.853 265.068 197.222 266.418C197.716 266.714 198.209 267.043 198.67 267.437C204.461 272.143 208.179 283.264 207.784 285.6C207.521 287.212 204.691 290.634 201.598 293.99C200.94 294.681 200.315 295.372 199.657 296.063C196.827 299.058 194.162 301.657 193.373 302.512Z" fill="#F99746"/>
<path d="M201.598 294.024C200.94 294.715 200.315 295.406 199.657 296.097L186.035 273.689C187.713 269.675 188.996 266.977 189.325 266.78C189.358 266.747 189.424 266.714 189.457 266.681L197.222 266.484L198.637 266.451L198.703 267.504L201.598 294.024Z" fill="#ED7D2B"/>
<path d="M193.866 216.043C193.866 216.043 196.762 223.117 196.005 227.329C195.248 231.54 185.278 252.565 181.626 256.152C178.007 259.771 153.889 244.471 153.889 244.471L156.258 242.201C156.258 242.201 175.342 247.07 176.362 245.524C177.349 244.01 182.218 214.068 193.866 216.043Z" fill="#FFB27D"/>
<path d="M193.307 271.583C193.307 271.583 198.242 296.327 210.745 313.732C222.821 330.546 229.105 356.342 229.105 356.342C229.105 356.342 229.895 356.967 231.474 356.309C233.054 355.651 234.107 356.441 234.436 355.684C234.436 355.684 232.165 314.983 225.881 306.066C222.327 301.032 220.452 282.54 220.583 277.506C220.715 272.472 218.511 266.319 218.511 266.319L193.307 271.583Z" fill="#F99746"/>
<path d="M234.304 362.989L231.376 363.022C230.389 362.89 229.665 362.594 228.678 362.462C227.164 362.265 226.441 362.89 226.309 363.055C226.276 363.088 226.276 363.088 226.276 363.088L213.871 363.186C213.542 362.759 213.839 361.706 214.135 360.949C214.332 360.422 214.76 360.028 215.286 359.896C216.602 359.501 219.202 359.139 221.538 356.968C222.854 355.75 227.954 352.493 227.954 352.493H227.987C228.086 352.493 228.645 352.657 230.981 354.598C232.199 355.618 234.239 353.151 234.239 353.151C234.239 353.151 234.633 353.48 234.93 354.072C235.16 354.533 235.324 355.191 235.226 355.98C235.061 357.099 235.653 359.172 236.147 360.587C236.443 361.442 236.706 362.035 236.706 362.035C236.706 362.035 236.805 362.66 234.304 362.989Z" fill="#233862"/>
<path d="M234.93 354.006C234.239 354.5 232.758 355.487 231.804 355.619C230.488 355.816 227.987 352.46 227.987 352.46H228.02C228.119 352.46 228.678 352.624 231.014 354.566C232.232 355.586 234.272 353.118 234.272 353.118C234.272 353.118 234.634 353.414 234.93 354.006Z" fill="#233862"/>
<path d="M234.304 362.989L231.376 363.022C230.389 362.89 229.665 362.594 228.678 362.462C227.164 362.265 226.44 362.89 226.309 363.055C226.276 363.088 226.276 363.087 226.276 363.087L213.871 363.186C213.542 362.758 213.839 361.706 214.135 360.949C214.497 360.62 214.628 362.397 214.826 362.693C215.023 362.989 224.96 362.726 225.519 362.298C226.079 361.87 227.79 361.146 230.191 361.706C232.264 362.199 235.324 360.883 236.081 360.554C236.377 361.409 236.641 362.002 236.641 362.002C236.641 362.002 236.805 362.66 234.304 362.989Z" fill="#233862"/>
<path d="M219.235 250.756C219.235 236.871 216.701 216.865 213.246 215.319C210.285 214.003 203.869 212.16 197.222 212.259C191.991 212.325 180.836 214.792 179.718 223.446C178.994 228.908 178.698 233.416 178.698 233.416C178.698 233.416 179.882 236.904 183.206 237.858C183.6 239.404 183.798 240.951 184.291 242.234C189.786 256.711 187.088 271.189 187.088 271.189C192.155 275.4 217.293 272.933 219.827 271.287C223.973 268.556 219.235 264.641 219.235 250.756Z" fill="#38A611"/>
<path d="M213.213 345.879L211.107 347.919C210.285 348.478 209.594 348.775 208.771 349.4C207.554 350.321 207.455 351.242 207.455 351.44C207.455 351.473 207.455 351.473 207.455 351.473L198.571 360.126C198.045 360.027 197.518 359.073 197.222 358.317C196.992 357.823 197.025 357.231 197.321 356.737C198.012 355.553 199.624 353.513 199.822 350.288C199.953 348.478 201.368 342.622 201.368 342.622V342.589C201.434 342.523 201.96 342.26 204.987 342.062C206.567 341.964 206.336 338.772 206.336 338.772C206.336 338.772 206.83 338.739 207.455 338.969C207.949 339.134 208.508 339.496 208.969 340.154C209.627 341.075 211.502 342.161 212.818 342.819C213.608 343.214 214.2 343.477 214.2 343.477C214.2 343.477 214.792 343.905 213.213 345.879Z" fill="#233862"/>
<path d="M207.455 338.969C207.291 339.792 206.929 341.536 206.303 342.293C205.481 343.346 201.368 342.622 201.368 342.622V342.589C201.434 342.523 201.96 342.26 204.987 342.062C206.567 341.964 206.336 338.772 206.336 338.772C206.336 338.772 206.83 338.739 207.455 338.969Z" fill="#233862"/>
<path d="M213.213 345.879L211.107 347.919C210.285 348.478 209.594 348.774 208.771 349.399C207.554 350.321 207.455 351.242 207.455 351.439C207.455 351.472 207.455 351.472 207.455 351.472L198.571 360.126C198.045 360.027 197.518 359.073 197.222 358.316C197.255 357.823 198.571 359.007 198.933 359.073C199.295 359.139 206.271 352.098 206.369 351.407C206.468 350.716 207.225 349.005 209.331 347.721C211.173 346.636 212.489 343.576 212.785 342.786C213.575 343.181 214.167 343.444 214.167 343.444C214.167 343.444 214.792 343.905 213.213 345.879Z" fill="#233862"/>
<path d="M206.04 217.161C206.04 217.161 213.707 217.063 217.326 219.333C220.978 221.57 236.805 238.614 238.812 243.319C240.819 248.025 222.426 261.449 222.426 261.449L219.827 257.336C219.827 257.336 228.02 245.853 226.967 244.339C225.947 242.793 199.887 227.263 206.04 217.161Z" fill="#FFB27D"/>
<path d="M220.814 256.678L223.874 259.047C223.874 259.047 221.176 264.838 219.728 265.398L219.564 265.43C217.984 265.76 214.069 263.193 213.411 260.528C213.345 260.265 213.378 260.001 213.444 259.771C214.036 258.159 217.721 257.27 219.629 256.909C220.32 256.744 220.814 256.678 220.814 256.678Z" fill="#FFB27D"/>
<path d="M158.364 242.727L156.85 246.281C156.85 246.281 150.565 245.096 149.677 243.813L149.611 243.681C148.92 242.234 150.434 237.792 152.836 236.509C153.099 236.377 153.329 236.344 153.593 236.344C155.304 236.541 157.08 239.865 157.903 241.641C158.199 242.267 158.364 242.727 158.364 242.727Z" fill="#FFB27D"/>
<path d="M203.145 212.621C203.145 212.621 210.252 212.95 215.352 216.108C217.688 217.556 226.704 226.111 226.704 226.111C226.704 226.111 225.717 235.028 214.957 237.463C204.033 239.93 202.257 221.669 202.257 221.669L203.145 212.621Z" fill="#339510"/>
<path d="M201.171 212.752C201.5 213.246 201.533 213.904 201.204 214.43C200.249 215.944 197.584 218.543 190.642 218.083C188.273 217.918 187.713 216.108 189.227 214.266C189.589 213.805 189.457 211.206 189.424 210.186C189.293 207.784 189.391 206.435 189.391 206.435L194.327 203.079L198.999 199.854C198.209 207.389 200.217 211.305 201.171 212.752Z" fill="#FFB27D"/>
<path d="M198.802 203.605C198.802 203.605 195.38 209.001 189.424 210.153C189.293 207.751 189.391 206.402 189.391 206.402L194.327 203.046L198.802 203.605Z" fill="#ED985F"/>
<path d="M187.253 206.106C187.253 206.106 198.703 208.771 200.249 201.73C201.796 194.688 204.329 190.279 197.091 188.305C189.852 186.298 187.812 188.7 186.726 190.905C185.64 193.142 184.324 205.25 187.253 206.106Z" fill="#FFB27D"/>
<path d="M205.382 187.976C205.481 187.877 205.744 187.779 206.271 187.779C206.271 187.779 205.843 187.483 205.284 187.417C205.218 186.66 204.922 185.311 203.639 184.883C203.639 184.883 204.297 185.311 204.329 186.101C202.948 184.456 199.822 183.139 190.905 183.238C179.158 183.37 182.515 191.135 183.962 192.122C185.41 193.109 189.391 190.905 192.188 191.332C194.985 191.727 195.248 195.84 196.169 196.465C197.091 197.09 196.795 196.07 198.111 195.577C199.46 195.083 199.427 197.222 198.966 198.604C198.506 199.986 200.151 201.927 200.151 201.927C200.151 201.927 200.151 201.927 202.092 200.117C204.033 198.308 206.271 190.214 205.547 188.404C205.514 188.305 205.448 188.141 205.382 187.976Z" fill="#2C3A64"/>
<path d="M186.266 201.664C186.266 201.664 186.562 202.717 187.746 202.848C188.898 202.98 189.655 202.157 189.655 202.157C189.655 202.157 187.746 201.269 186.266 201.664Z" fill="white"/>
<path d="M590 378.259V378.741C590 379.444 589.702 380 589.326 380H0.674331C0.297499 380 0 379.444 0 378.741V378.259C0 377.556 0.297499 377 0.674331 377H589.306C589.703 377 590 377.556 590 378.259Z" fill="#2E3552"/>
<path d="M14.6089 212.456C14.905 211.403 15.2011 210.35 15.4973 209.33C15.925 207.883 16.3857 206.468 16.8463 205.02C18.3599 205.086 19.9392 205.349 21.2882 205.908C21.3212 205.876 17.1753 209.429 14.6089 212.456Z" fill="#A0C5DD"/>
<path d="M53.4349 228.546C50.342 235.62 45.4723 236.476 43.7285 235.653C41.9846 234.863 32.7717 227.23 32.0478 228.645C31.3239 230.059 36.0291 237.035 40.4052 238.746C40.4052 238.746 28.8562 245.195 24.1839 240.621C19.5116 236.048 20.4658 231.639 17.5045 228.875C14.5762 226.111 11.582 225.091 12.4703 227.197C13.3587 229.303 19.1497 233.021 19.9394 237.199C20.7291 241.411 21.7162 244.372 16.2213 241.543C14.2142 240.523 11.8781 238.878 9.80518 236.969C10.2329 233.448 10.7594 229.961 11.3845 226.44C11.7136 224.663 12.0755 222.887 12.4374 221.11C12.5691 220.518 12.7007 219.892 12.8323 219.267C13.0297 218.313 13.26 217.392 13.4903 216.438C16.1555 215.845 23.46 205.777 23.46 205.777C23.46 205.777 36.6872 208.87 40.142 212.259C40.142 212.259 26.1581 217.523 28.2968 218.839C30.4355 220.156 45.242 215.352 45.242 215.352C45.242 215.352 56.5278 221.472 53.4349 228.546Z" fill="#A0C5DD"/>
<path d="M47.4793 226.769C29.218 221.241 18.6231 220.386 12.4702 221.209C12.6018 220.616 12.7334 219.991 12.8651 219.366C26.0922 218.708 46.7554 226.473 47.4793 226.769Z" fill="#A0C5DD"/>
<path d="M106.475 186.397C101.902 197.551 94.3338 199.098 91.5699 197.88C88.806 196.696 74.1312 185.147 73.0453 187.351C71.9595 189.589 79.5931 200.315 86.5357 202.849C86.5357 202.849 68.735 213.345 61.2331 206.369C53.7311 199.394 55.0802 192.484 50.3421 188.272C45.6369 184.061 40.9317 182.613 42.4124 185.87C43.893 189.128 53.0401 194.721 54.455 201.236C55.8698 207.784 57.515 212.39 48.8285 208.179C40.1421 204.033 27.4085 192.747 29.1195 184.916C29.1853 184.587 29.284 184.258 29.3498 183.929C30.8633 177.085 30.8633 177.085 30.8633 177.085C30.8633 177.085 30.6001 176.493 30.2711 175.506C33.0349 170.834 36.0621 166.26 39.4511 161.752C39.6485 161.489 39.813 161.259 40.0104 160.996C42.5769 157.607 45.3079 154.283 48.2363 151.026C50.6711 151.059 53.2047 151.388 55.4092 152.243C55.4092 152.243 39.813 166.26 42.5769 168.991C45.3737 171.722 58.8311 152.145 58.8311 152.145C58.8311 152.145 79.6589 156.488 85.1538 161.621C85.1538 161.621 63.4705 170.373 66.8595 172.347C70.2486 174.321 93.2151 166.26 93.2151 166.26C93.2151 166.26 111.049 175.243 106.475 186.397Z" fill="#A0C5DD"/>
<path d="M97.0648 183.831C39.155 167.872 30.6002 180.178 29.3169 183.929C29.1195 184.521 29.0866 184.916 29.0866 184.916C28.1324 184.785 26.4543 185.245 24.5789 185.969C25.3685 184.324 26.224 182.679 27.0795 181.067C29.5802 178.796 30.7976 177.085 30.7976 177.085C46.3937 166.161 95.3209 183.205 97.0648 183.831Z" fill="#A0C5DD"/>
</g>
<defs>
<clipPath id="clip0">
<rect width="590" height="380" fill="white"/>
</clipPath>
</defs>
</svg>
