<svg width="612" height="380" viewBox="0 0 612 380" fill="none" xmlns="http://www.w3.org/2000/svg">
<g clip-path="url(#clip0)">
<path d="M583.025 379.195H37.6137C37.6137 379.195 -29.7364 334.165 15.806 249.861C57.2991 173.046 87.2786 220.906 74.7404 83.0348C69.7154 27.857 105.769 0.0485049 155.702 -0.000281822C205.099 -0.0490686 256.691 21.0756 304.209 11.367C316.308 8.9033 327.919 6.95183 339.091 5.53701C340.409 5.36626 341.726 5.19551 343.019 5.04915C343.385 5.00036 343.726 4.95157 344.092 4.92718C385.927 0.0485048 421.151 2.2927 450.374 9.43995C558.266 35.7604 583.928 128.699 555.509 176.071C516.09 241.689 672.427 248.129 583.025 379.195Z" fill="#D0E5F3"/>
<path d="M482.965 269.059C482.965 269.059 451.082 278.767 453.253 284.597C455.424 290.427 487.99 271.205 487.99 271.205C487.99 271.205 515.066 291.403 519.579 302.502C519.579 302.502 482.501 300.599 486.038 305.698C489.575 310.796 528.068 314.577 528.068 314.577C528.068 314.577 547.656 339.556 533.581 352.557C519.506 365.559 507.577 362.681 504.406 359.119C501.235 355.558 487.843 329.091 484.77 331.555C481.72 334.018 485.526 354.631 493.771 362.924C493.771 362.924 461.084 366.096 454.961 351.045C448.838 335.994 455.376 326.92 451.424 317.675C447.472 308.43 441.691 303.209 441.618 308.893C441.545 314.577 451.009 328.774 448.667 339.117C446.326 349.484 445.594 357.241 435.91 345.361C426.225 333.482 415.419 308.674 423.176 298.55C423.518 298.111 423.835 297.697 424.152 297.282C423.469 298.014 423.176 298.55 423.176 298.55C420.469 296.843 411.711 296.721 405.125 296.916C404.052 297.014 402.515 297.087 400.393 297.111C399.466 297.16 398.685 297.209 398.149 297.233C383.952 298.672 364.974 311.772 364.974 311.772L362.729 309.332C379.878 292.354 402.442 294.623 402.442 294.623C419.493 294.843 430.933 288.427 430.933 288.427C430.933 288.427 431.885 255.325 457.595 257.106C457.595 257.13 474.524 260.423 482.965 269.059Z" fill="#D2E2F9"/>
<path d="M355.997 150.385L382.83 210.393L462.816 174.608L496.503 159.533L469.695 99.5493L406.76 127.675L355.997 150.385Z" fill="#8ABFE7"/>
<path d="M467.67 108.502L488.502 155.069L386.318 200.757L365.486 154.191L467.67 108.502ZM391.416 196.781L482.111 156.215C484.526 155.142 485.599 152.312 484.526 149.897L468.889 114.917C467.792 112.478 464.962 111.405 462.523 112.478L371.877 153.02C369.487 154.093 368.413 156.874 369.487 159.264L385.196 194.391C386.245 196.781 389.026 197.855 391.416 196.781Z" fill="#D0E5F3"/>
<path d="M429.658 168.123C437.101 166.663 441.951 159.445 440.49 152.002C439.029 144.559 431.811 139.709 424.368 141.17C416.925 142.631 412.076 149.849 413.537 157.292C414.998 164.735 422.215 169.584 429.658 168.123Z" fill="#D0E5F3"/>
<path d="M348.874 140.359L402.539 178.316L453.131 106.77L474.451 76.644L420.81 38.6879L381 94.9634L348.874 140.359Z" fill="#B5D3FF"/>
<path d="M423.64 47.3964L465.304 76.8636L400.661 168.241L358.997 138.774L423.64 47.3964ZM402.979 162.24L460.352 81.1324C461.864 78.9858 461.376 76.0098 459.205 74.473L427.909 52.3482C425.738 50.8114 422.737 51.3237 421.2 53.4947L363.852 134.554C362.339 136.676 362.851 139.628 364.974 141.14L396.392 163.362C398.539 164.85 401.491 164.363 402.979 162.24Z" fill="#8AC4EA"/>
<path d="M423.347 115.747C427.713 109.551 426.25 100.989 420.078 96.6222C413.882 92.2558 405.32 93.7194 400.954 99.8909C396.587 106.087 398.051 114.649 404.222 119.015C410.394 123.406 418.956 121.943 423.347 115.747Z" fill="#8AC4EA"/>
<path d="M483.135 176.193C483.135 176.193 492.917 174.73 497.649 180.877C502.381 187.024 500.406 193.025 508.333 193.683C516.261 194.366 517.652 197.513 515.969 201.88C514.285 206.246 524.213 206.417 526.36 212.369C528.507 218.321 527.433 228.566 512.31 225.809C497.186 223.053 491.648 213.905 484.647 216.345C477.647 218.784 467.718 211.759 471.231 207.417C474.744 203.075 469.084 203.563 469.548 193.683C470.011 183.828 476.451 175.974 483.135 176.193Z" fill="#163560"/>
<path d="M424.518 231.152C424.518 231.152 421.81 228.298 419.639 227.737C417.273 227.127 413.931 226.566 413.59 227.322C413.175 228.224 417.395 229.737 418.005 230.737C418.59 231.737 417.663 231.64 416.005 231.518C414.37 231.396 414.956 231.932 415.248 232.005C415.541 232.103 417.932 233.323 418.81 233.493C419.054 233.542 419.42 233.567 419.883 233.591C421.103 233.64 422.932 233.664 424.518 234.006C424.518 234.03 425.128 232.176 424.518 231.152Z" fill="#FFB27D"/>
<path d="M422.762 231.81C423.176 233.201 423.859 233.908 423.859 233.908C423.859 233.908 437.446 239.128 447.301 237.616C447.643 237.567 447.984 237.494 448.326 237.445C450.131 237.079 452.058 236.591 453.985 236.079C462.23 233.835 470.573 230.737 470.573 230.737C470.573 230.737 470.743 230.054 470.987 228.907C472.036 224.199 474.354 211.881 470.573 209.929C470.573 209.929 468.572 210.807 466.109 212.783C460.498 217.296 451.058 225.834 445.935 227.127C441.203 228.322 428.665 229.542 423.127 229.859C423.127 229.859 422.469 230.81 422.762 231.81Z" fill="#EB0EA0"/>
<path d="M461.523 230.493C458.522 232.883 456.546 234.835 453.985 236.055C462.23 233.81 470.573 230.712 470.573 230.712C470.573 230.712 470.743 230.029 470.987 228.883L470.109 227.127C470.134 227.127 466.353 226.639 461.523 230.493Z" fill="#D71294"/>
<path d="M447.301 237.616C447.643 237.567 447.984 237.494 448.326 237.445C447.765 237.469 447.448 237.543 447.301 237.616Z" fill="#F2CCAA"/>
<path d="M522.36 362.315C522.36 362.315 525.97 365.608 525.263 367.974C524.555 370.316 521.286 371.877 520.847 374.755C520.408 377.634 518.652 379.195 517.042 379.195C515.456 379.195 509.456 379.195 509.456 379.195C509.456 379.195 508.285 377.17 511.114 376.561C513.944 375.951 514.993 372.584 514.822 369.462C514.651 366.34 515.091 362.168 515.091 362.168L521.091 360.778L522.36 362.315Z" fill="#3E5B87"/>
<path d="M491.722 363.998C491.722 363.998 493.014 378 491.429 378.78L471.085 378.731C471.085 378.731 471.085 376.39 474.353 375.853C477.622 375.341 483.355 373.414 484.33 369.169C485.306 364.9 491.722 363.998 491.722 363.998Z" fill="#3E5B87"/>
<path d="M474.183 246.056L486.916 256.057L499.064 247.397L500.064 247.032C500.064 247.032 502.064 246.031 502.674 241.299C502.747 240.714 503.162 235.713 503.601 230.664C504.065 225.224 504.504 219.735 504.504 219.735L496.747 208.222C480.452 204.782 470.597 209.905 470.597 209.905C470.597 209.905 469.841 215.979 468.597 224.638C467.328 233.298 474.183 246.056 474.183 246.056Z" fill="#D71294"/>
<path d="M475.109 248.861C475.109 248.861 469.255 267.107 468.865 273.328C468.499 279.548 480.061 361.607 480.549 364.461C480.988 367.169 484.33 368.876 484.33 368.876C484.33 368.876 485.867 369.779 488.062 369.169C491.112 368.315 492.087 367.267 492.087 367.267C492.087 367.267 496.649 308.747 493.819 287.842C490.99 266.937 490.965 248.861 490.965 248.861H475.109Z" fill="#ED7D2B"/>
<path d="M499.942 248.325C499.942 248.325 508.895 260.326 509.724 268.449C510.553 276.572 511.041 305.064 512.798 312.967C514.578 320.871 521.091 336.092 521.091 360.754C521.091 360.754 520.408 362.169 518.31 362.925C517.652 363.169 516.749 363.388 515.871 363.608C514.139 363.998 512.383 363.169 511.578 361.583C507.163 352.704 493.112 324.042 492.38 318.09C491.868 313.87 487.428 286.012 477.744 269.669C475.427 265.742 479.159 250.13 479.159 250.13L499.942 248.325Z" fill="#F99746"/>
<path d="M487.818 210.734C489.502 210.246 490.355 209.173 490.258 207.417C490.111 204.831 489.55 202.367 489.965 198.708L489.428 198.757L480.281 199.513C480.281 199.513 479.866 205.051 479.866 205.075C479.574 208.685 479.817 213.052 487.818 210.734Z" fill="#FFB27D"/>
<path d="M480.257 199.538C480.257 199.538 480.135 202.392 479.842 205.026C484.867 205.441 488.038 201.172 489.404 198.757L480.257 199.538Z" fill="#E8945B"/>
<path d="M478.306 201.855C478.306 201.855 490.136 203.392 490.99 196.001C491.819 188.61 493.917 183.829 486.404 182.56C478.891 181.267 477.086 183.926 476.208 186.317C475.33 188.707 475.256 201.27 478.306 201.855Z" fill="#FFB27D"/>
<path d="M481.013 181.755C481.013 181.755 483.281 190.781 488.136 192.634C492.965 194.464 495.283 193.391 495.283 193.391C495.283 193.391 491.795 189.927 491.599 184.536C491.599 184.511 483.94 177.901 481.013 181.755Z" fill="#163560"/>
<path d="M481.745 182.56C481.745 182.56 479.232 183.194 478.037 184.829C476.866 186.439 475.793 188.61 475.671 191.439C475.671 191.439 473.89 185.268 477.012 182.243C480.33 179.023 481.745 182.56 481.745 182.56Z" fill="#163560"/>
<path d="M521.384 262.131C521.384 262.131 520.53 265.473 519.75 265.985C518.993 266.498 516.725 269.425 517.31 270.669C518.091 272.352 520.018 274.816 520.945 274.523C521.872 274.255 521.018 271.815 522.774 270.035C523.653 269.132 525.726 267.498 525.555 265.742C525.384 263.985 524.945 261.765 524.945 261.765L521.384 262.131Z" fill="#FFB27D"/>
<path d="M520.774 264.156C520.774 264.156 518.237 265.937 517.017 266.473C515.822 267.01 516.286 267.449 516.92 267.449C517.627 267.449 518.359 267.327 519.505 266.644C520.676 265.937 521.384 264.156 520.774 264.156Z" fill="#FFB27D"/>
<path d="M496.722 208.246C496.722 208.246 503.796 209.954 508.455 214.32C515.773 221.199 523.848 227.834 525.555 234.737C526.97 240.445 527.165 248.349 525.555 263.546C525.555 263.546 524.579 263.961 522.677 263.863C520.994 263.79 520.237 263.18 520.237 263.18C520.237 263.18 516.725 243.275 513.871 237.835C512.407 235.054 492.453 224.492 492.453 224.492L496.722 208.246Z" fill="#EB0EA0"/>
<path d="M499.088 247.422L500.088 247.056C500.088 247.056 502.089 246.056 502.699 241.324C502.772 240.738 503.186 235.738 503.626 230.688C503.626 230.688 499.137 226.224 497.747 228.883C496.381 231.542 499.552 236.591 498.381 239.567C497.186 242.543 495.161 246.544 499.088 247.422Z" fill="#F030AF"/>
<path d="M474.183 246.056C474.183 246.056 476.525 247.91 481.208 248.007C486.794 248.129 500.625 246.593 500.625 246.593C500.625 246.593 501.235 248.3 501.211 250.13C501.211 250.13 484.306 254.399 474.524 250.764C474.524 250.739 473.256 248.373 474.183 246.056Z" fill="#233862"/>
<path d="M479.866 252.837C478.452 252.837 477.33 251.545 477.33 249.959C477.33 248.373 478.476 247.081 479.866 247.081C481.257 247.081 482.403 248.373 482.403 249.959C482.403 251.52 481.281 252.837 479.866 252.837ZM479.866 247.91C478.915 247.91 478.159 248.837 478.159 249.959C478.159 251.081 478.915 252.008 479.866 252.008C480.818 252.008 481.574 251.081 481.574 249.959C481.574 248.812 480.793 247.91 479.866 247.91Z" fill="white"/>
<path opacity="0.3" d="M228.151 218.394C228.151 218.394 233.664 234.006 230.713 234.835C227.761 235.664 225.81 217.004 225.81 217.004C225.81 217.004 209.783 212.003 204.051 213.442C204.051 213.442 215.735 227.761 212.661 227.81C209.588 227.883 196.733 213.54 196.733 213.54C196.733 213.54 181.023 212.954 179.999 222.394C178.974 231.81 183.633 235.762 185.975 236.006C188.317 236.25 202.807 233.908 202.733 235.86C202.66 237.811 193.318 242.275 187.585 241.372C187.585 241.372 195.952 255.399 203.758 253.472C211.564 251.545 213.247 246.276 218.077 245.178C222.907 244.08 226.712 244.861 224.468 246.544C222.224 248.227 213.784 248.569 210.369 252.52C206.929 256.472 204.051 259.033 211.637 259.448C219.223 259.863 232.274 256.984 234.03 250.935C234.103 250.666 234.176 250.422 234.25 250.179C234.152 250.666 234.03 250.935 234.03 250.935C235.518 251.52 238.128 255.008 240.006 257.692C240.275 258.155 240.714 258.789 241.324 259.643C241.592 260.033 241.787 260.351 241.934 260.57C245.544 266.693 245.91 278.109 245.91 278.109L247.544 278.304C249.252 266.473 241.69 258.106 241.69 258.106C236.591 251.325 235.762 244.885 235.762 244.885C235.762 244.885 248.666 234.859 240.372 225.078C240.372 225.078 234.054 219.248 228.151 218.394Z" fill="#42A8D8"/>
<path d="M215.028 269.888C215.028 269.888 231.298 284.524 228.395 287.378C225.492 290.232 211.442 269.766 211.442 269.766C211.442 269.766 189.732 274.255 183.95 279.621C183.95 279.621 206.539 288.769 203.026 290.842C199.513 292.891 175.559 284.451 175.559 284.451C175.559 284.451 156.971 293.867 161.728 305.527C166.485 317.163 174.388 318.772 177.267 317.528C180.145 316.284 195.464 304.258 196.586 306.576C197.708 308.893 189.732 320.09 182.511 322.749C182.511 322.749 201.075 333.701 208.905 326.456C216.735 319.212 215.345 311.991 220.272 307.576C225.2 303.185 230.078 301.673 228.541 305.063C227.005 308.478 217.442 314.284 215.954 321.09C214.466 327.896 212.759 332.725 221.809 328.335C230.883 323.944 244.178 312.186 242.372 304.014C242.299 303.649 242.226 303.307 242.153 302.99C242.372 303.624 242.372 304.014 242.372 304.014C244.47 303.746 249.715 306.112 253.569 308.064C254.179 308.43 255.081 308.893 256.325 309.503C256.862 309.796 257.301 310.04 257.618 310.21C265.668 315.016 273.328 328.066 273.328 328.066L275.352 327.237C269.864 312.381 255.813 307.454 255.813 307.454C245.592 302.844 240.592 295.843 240.592 295.843C240.592 295.843 249.203 275.889 233.42 269.791C233.42 269.839 222.419 267.083 215.028 269.888Z" fill="#D2E2F9"/>
<path d="M121.503 147.043C121.259 148.287 118.869 149.483 118.283 149.653C117.747 148.141 116.576 146.726 116.649 146.799C116.698 146.677 116.771 146.531 116.844 146.385C117.381 145.311 118.43 143.628 119.747 143.238C121.674 142.653 125.504 142.287 125.748 143.092C125.967 143.897 121.772 145.653 121.503 147.043Z" fill="#FFB27D"/>
<path d="M130.041 378.561H105.306C103.525 377.366 105.794 365.608 105.794 365.608C105.794 365.608 112.551 363.047 113.722 368.267C114.893 373.463 122.333 375.121 126.26 375.756C128.919 376.17 129.773 377.658 130.041 378.561Z" fill="#3E5B87"/>
<path d="M165.899 378.561H141.164C139.384 377.366 141.652 365.608 141.652 365.608C141.652 365.608 148.409 363.047 149.58 368.267C150.751 373.463 158.191 375.121 162.118 375.756C164.777 376.17 165.631 377.658 165.899 378.561Z" fill="#3E5B87"/>
<path d="M159.24 258.667C159.24 258.667 158.118 272.547 156.825 289.208C155.044 311.869 150.263 368.023 150.263 368.023C150.263 368.023 147.117 370.706 140.164 369.243C140.164 369.243 134.237 349.874 132.48 327.749C132.456 327.383 132.432 327.018 132.407 326.652C130.749 304.137 128.187 256.74 128.187 256.74L159.24 258.667Z" fill="#FF9E55"/>
<path d="M159.63 253.886C159.63 253.886 158.142 272.547 156.825 289.232L132.48 327.774C132.456 327.408 132.432 327.042 132.407 326.676C130.749 304.161 128.187 256.765 128.187 256.765L159.63 253.886Z" fill="#ED823A"/>
<path d="M154.191 250.374L114.503 367.852C114.503 367.852 107.868 371.243 105.135 366.657C105.135 366.657 105.77 317.138 112.868 304.844C116.869 297.892 119.674 278.426 119.186 271.84C118.259 258.96 122.089 246.959 122.089 246.959L154.191 250.374Z" fill="#FF9E55"/>
<path d="M144.628 189.073C141.921 190.488 139.311 190.585 137.018 190.098C134.92 189.659 133.139 188.732 131.871 187.927C130.553 187.097 129.797 186.365 129.797 186.365C129.797 186.365 129.895 186.243 130.041 185.975C130.846 184.609 133.261 179.706 132.188 171.851C132.163 171.754 132.944 171.9 134.139 172.168C137.652 172.998 144.701 174.998 144.994 175.096C144.994 175.096 145.092 176.754 145.36 179.73C145.384 179.999 145.409 180.267 145.433 180.56C145.458 180.901 145.506 181.267 145.555 181.657C145.897 184.682 144.628 189.073 144.628 189.073Z" fill="#FFB27D"/>
<path d="M145.36 179.682C140.14 180.877 132.31 173.144 132.31 173.144C132.871 172.729 133.481 172.388 134.091 172.12C137.603 172.949 144.653 174.949 144.946 175.047C144.946 175.047 145.092 176.73 145.36 179.682Z" fill="#ED975D"/>
<path d="M152.483 146.189C152.483 146.189 150.434 143.092 148.409 142.921C146.384 142.75 142.213 143.214 142.506 143.994C143.482 146.507 147.019 145.385 147.897 146.994C148.653 148.36 151.361 148.922 151.361 148.922L152.483 146.189Z" fill="#FFB27D"/>
<path d="M147.141 174.657C147.141 174.657 144.994 175.437 142.238 175.803C138.237 176.34 132.944 176.023 131.285 171.168C128.504 162.997 124.919 158.094 133.139 154.776C137.53 152.995 140.36 152.898 142.262 153.581C143.921 154.166 144.897 155.337 145.653 156.508C147.263 158.972 150.483 173.217 147.141 174.657Z" fill="#FFB27D"/>
<path d="M146.385 151.361C148.653 154.508 146.019 158.85 142.165 158.215C140.677 157.971 139.432 157.776 138.749 158.093C136.7 158.996 136.334 162.435 136.31 163.509C136.261 164.606 136.139 165.509 133.359 164.875C132.895 164.777 132.578 164.802 132.358 164.924C131.334 165.533 132.383 168.217 132.944 169.314C133.09 169.607 133.188 169.924 133.237 170.266C133.334 171.046 133.31 172.388 132.358 173.144C132.188 173.29 129.407 174.51 122.699 164.241C121.65 162.631 120.65 158.996 122.26 155.508C123.894 152.019 131.114 148.141 137.091 147.385C143.482 146.604 146.092 150.971 146.385 151.361Z" fill="#2A4E96"/>
<path d="M161.631 200.075C141.994 218.418 145.433 183.487 145.433 183.487C145.433 183.487 152.922 180.17 155.264 180.17C157.63 180.17 159.338 173.608 166.826 162.68L151.117 149.239C151.117 149.239 151.849 145.238 152.703 145.433C153.922 145.702 156.24 146.434 158.996 147.482C166.192 150.19 176.413 154.996 178.486 159.63C178.511 159.582 178.901 183.926 161.631 200.075Z" fill="#2F9809"/>
<path d="M144.897 148.409L144.872 148.361C144.897 148.385 144.897 148.409 144.897 148.409Z" fill="#7F2722"/>
<path d="M159.557 254.813C159.557 254.813 147.848 258.789 135.456 258.887C133.041 258.911 129.602 258.448 126.748 257.96C123.845 257.472 121.528 256.96 121.528 256.96C119.04 256.374 116.283 254.838 116.649 252.008C117.771 243.373 117.039 220.736 117.625 206.612C117.625 206.612 117.649 203.855 115.893 201.928C115.6 201.611 115.283 201.319 114.868 201.075C112.258 199.367 99.9884 187.78 94.695 169.29C94.0608 167.192 93.8169 165.875 93.7925 165.802C95.3049 158.947 112.088 148.507 116.161 146.653C116.283 146.604 116.43 146.629 116.576 146.751C117.918 147.873 118.479 149.995 118.503 150.044C118.503 150.044 118.503 150.044 118.503 150.068L105.867 166.387C115.405 175.559 118.43 181.633 120.747 181.17C122.967 180.706 130.431 182.292 131.017 182.414C131.188 182.365 131.358 182.34 131.553 182.292C131.553 182.292 139.53 186.78 145.433 183.463C145.433 183.463 145.482 183.463 145.604 183.487C147.043 183.707 157.337 185.414 159.825 188.049C160.679 188.951 160.996 194.464 161.094 200.538C161.216 209.027 160.899 218.687 160.899 218.687C161.484 227.956 166.338 253.398 159.557 254.813Z" fill="#38A611"/>
<path d="M131.065 182.414C131.065 182.414 139.871 191.512 146.189 189.634C146.189 189.634 147.019 188.414 144.189 188.024C141.335 187.634 138.286 187.805 131.065 182.414Z" fill="#94B0ED"/>
<path d="M126.748 257.96C123.845 257.472 121.528 256.96 121.528 256.96C119.04 256.374 116.283 254.838 116.649 252.008C117.771 243.373 117.039 220.736 117.625 206.612C117.625 206.612 117.649 203.855 115.893 201.928C118.649 204.368 126.162 211.564 127.992 219.345C129.968 227.614 128.577 249.373 126.748 257.96Z" fill="#369813"/>
<path d="M116.99 146.458C116.99 146.458 117.015 143.97 117.454 143.482C117.893 142.994 118.186 144.384 118.259 144.824C118.308 145.238 116.99 146.458 116.99 146.458Z" fill="#FFB27D"/>
<path d="M151.898 145.385C151.898 145.385 151.263 143.726 151.117 143.262C150.971 142.823 150.654 142.799 150.605 143.092C150.556 143.384 150.483 144.018 150.702 144.384C150.922 144.75 151.898 145.385 151.898 145.385Z" fill="#FFB27D"/>
<path d="M196.806 38.5415C196.659 38.2 196.464 37.9073 196.22 37.6146C196.05 37.4194 195.854 37.2243 195.659 37.0535L194.806 36.1997L194.586 36.3705C190.22 34.2239 181.218 36.4925 172.095 42.4444C161.07 49.6405 154.02 59.5442 156.044 64.8132L155.727 65.0327L156.947 66.2524C156.996 66.3256 157.069 66.3743 157.118 66.4231L157.142 66.4475C157.459 66.7402 157.801 66.9842 158.191 67.1793C162.509 69.4479 171.607 67.1793 180.828 61.1786C192.098 53.8849 199.245 43.7373 196.806 38.5415Z" fill="#FFA412"/>
<path d="M170.778 41.1272C181.999 33.8091 193.074 32.0528 195.489 37.2486C197.903 42.42 190.781 52.5677 179.56 59.8857C168.339 67.2037 157.264 68.96 154.849 63.7642C152.434 58.5928 159.557 48.4452 170.778 41.1272Z" fill="#FFB93E"/>
<path d="M162.728 64.5448C161.826 64.5448 160.996 64.4472 160.264 64.2277C158.874 63.813 157.898 63.0568 157.386 61.9347C156.386 59.7393 157.313 56.4462 160.021 52.714C162.679 49.055 166.729 45.3472 171.412 42.2736C178.633 37.5413 185.975 35.2727 190.097 36.468C191.488 36.8827 192.464 37.6389 192.976 38.761C193.976 40.9564 193.049 44.2495 190.341 47.9817C187.683 51.6407 183.633 55.3485 178.95 58.422C172.998 62.325 166.973 64.5448 162.728 64.5448ZM187.658 36.9803C183.584 36.9803 177.608 39.2001 171.851 42.9566C167.241 45.9814 163.265 49.616 160.679 53.2019C158.191 56.6413 157.264 59.7149 158.118 61.5932C158.533 62.4957 159.313 63.1056 160.484 63.4471C161.143 63.6422 161.874 63.7154 162.704 63.7154C166.777 63.7154 172.754 61.4956 178.511 57.739C183.121 54.7143 187.097 51.0796 189.683 47.4938C192.171 44.0543 193.098 40.9808 192.244 39.1025C191.829 38.1999 191.049 37.5901 189.878 37.2486C189.219 37.0534 188.488 36.9803 187.658 36.9803Z" fill="#FFA412"/>
<path d="M170.656 53.1774C170.998 53.0311 171.315 52.8603 171.583 52.6896C171.851 52.5188 172.095 52.2993 172.339 52.0553C172.559 51.8114 172.778 51.5431 172.998 51.226C173.193 50.9089 173.413 50.543 173.608 50.1283C173.974 49.4209 174.34 48.7378 174.73 48.128C175.12 47.4938 175.535 46.9327 175.998 46.3961C176.462 45.8594 176.998 45.3716 177.608 44.9325C178.218 44.4934 178.926 44.0787 179.731 43.7372C180.438 43.4201 181.072 43.2249 181.633 43.1518C182.194 43.0542 182.682 43.0786 183.072 43.2005C183.463 43.3225 183.78 43.5421 183.999 43.8592C184.219 44.1763 184.341 44.591 184.365 45.0788L187.024 43.908L186.878 45.3228L184.195 46.4937C184.048 47.0547 183.804 47.5914 183.463 48.1524C183.121 48.7135 182.682 49.2257 182.17 49.738C181.658 50.2502 181.048 50.7137 180.389 51.1772C179.706 51.6163 178.95 52.031 178.145 52.3969L178.389 49.8112C179.389 49.3721 180.121 48.9086 180.657 48.3963C181.17 47.8841 181.462 47.3962 181.511 46.8839C181.536 46.6156 181.511 46.4205 181.414 46.2741C181.316 46.1278 181.194 46.0302 180.999 46.0058C180.828 45.957 180.609 45.9814 180.34 46.0302C180.072 46.079 179.804 46.1765 179.487 46.3229C179.169 46.4449 178.901 46.6156 178.657 46.7864C178.413 46.9571 178.169 47.1523 177.95 47.3962C177.73 47.6401 177.511 47.9085 177.291 48.2256C177.072 48.5427 176.852 48.933 176.633 49.3721C176.267 50.0795 175.876 50.7625 175.486 51.3723C175.096 51.9822 174.681 52.5676 174.193 53.1043C173.73 53.6409 173.169 54.1288 172.583 54.5679C171.973 55.0069 171.266 55.4216 170.485 55.7631C169.754 56.0803 169.119 56.2754 168.558 56.373C167.997 56.4462 167.509 56.4462 167.119 56.3242C166.729 56.2022 166.436 55.9827 166.217 55.6412C165.997 55.3241 165.875 54.9094 165.851 54.3971L163.387 55.4704L163.533 54.0556L165.973 52.9823C166.095 52.4456 166.29 51.909 166.583 51.3479C166.875 50.7869 167.266 50.2258 167.778 49.6648C168.29 49.1037 168.9 48.5671 169.632 48.0304C170.363 47.4938 171.217 47.0303 172.217 46.5912L171.973 49.1769C171.388 49.4453 170.9 49.7136 170.485 49.9819C170.095 50.2746 169.754 50.543 169.51 50.8357C169.266 51.1284 169.071 51.3967 168.949 51.6894C168.827 51.9578 168.754 52.2261 168.729 52.47C168.705 52.7384 168.729 52.9823 168.827 53.1287C168.924 53.2994 169.046 53.397 169.217 53.4702C169.388 53.519 169.607 53.5433 169.851 53.4946C170.071 53.397 170.363 53.3238 170.656 53.1774Z" fill="#FFA412"/>
<path d="M184.316 87.8649C184.438 87.621 184.56 87.4014 184.731 87.2063C184.853 87.0599 184.999 86.9135 185.146 86.7916L185.756 86.1574L185.926 86.2793C189.097 84.7182 195.635 86.3769 202.245 90.6945C210.246 95.9147 215.369 103.111 213.905 106.916L214.125 107.087L213.247 107.965C213.198 108.014 213.149 108.063 213.125 108.087L213.1 108.111C212.881 108.307 212.613 108.502 212.32 108.648C209.198 110.282 202.587 108.648 195.903 104.282C187.731 98.9883 182.56 91.6215 184.316 87.8649Z" fill="#FFA412"/>
<path d="M203.221 89.7432C195.074 84.4255 187.048 83.157 185.268 86.9136C183.511 90.6702 188.683 98.037 196.83 103.355C204.977 108.672 213.003 109.941 214.784 106.184C216.54 102.428 211.368 95.061 203.221 89.7432Z" fill="#FFB93E"/>
<path d="M197.293 102.306C193.878 100.062 190.951 97.3784 189.024 94.7195C187.048 92.0118 186.365 89.6213 187.097 88.0113C187.463 87.2063 188.17 86.6209 189.195 86.3282C192.195 85.4744 197.537 87.1087 202.758 90.5482C206.173 92.7924 209.1 95.4757 211.027 98.1346C213.003 100.842 213.686 103.233 212.954 104.843C212.588 105.648 211.881 106.233 210.856 106.526C210.32 106.672 209.734 106.745 209.051 106.745C205.978 106.745 201.611 105.111 197.293 102.306ZM189.366 86.9136C188.536 87.1575 187.951 87.621 187.658 88.2552C187.024 89.6213 187.707 91.8655 189.512 94.3536C191.39 96.9393 194.269 99.5982 197.635 101.794C201.806 104.526 206.148 106.136 209.1 106.136C209.685 106.136 210.246 106.062 210.71 105.94C211.539 105.697 212.125 105.233 212.417 104.599C213.052 103.233 212.369 100.989 210.563 98.5005C208.685 95.9148 205.807 93.2559 202.44 91.0605C198.269 88.3284 193.927 86.7185 190.976 86.7185C190.366 86.7185 189.829 86.7916 189.366 86.9136Z" fill="#FFA412"/>
<path d="M203.904 98.6712C204.099 98.6956 204.246 98.6956 204.368 98.6468C204.49 98.598 204.587 98.5248 204.66 98.4029C204.734 98.2809 204.734 98.1346 204.734 97.915C204.709 97.7443 204.66 97.5491 204.587 97.354C204.514 97.1588 204.368 96.9393 204.173 96.7441C203.977 96.5246 203.758 96.3294 203.465 96.1343C203.172 95.9392 202.807 95.744 202.392 95.5489L202.221 93.6706C202.928 93.9877 203.563 94.3292 204.099 94.7195C204.636 95.1098 205.075 95.5001 205.441 95.9148C205.807 96.3295 206.1 96.7441 206.295 97.1344C206.514 97.5491 206.661 97.9394 206.734 98.3297L208.515 99.1103L208.612 100.135L206.831 99.3542C206.807 99.7201 206.734 100.013 206.563 100.257C206.417 100.501 206.197 100.647 205.904 100.745C205.612 100.842 205.27 100.842 204.88 100.793C204.465 100.72 204.002 100.574 203.49 100.354C202.904 100.11 202.392 99.8177 201.953 99.4762C201.514 99.1591 201.123 98.7932 200.782 98.4029C200.44 98.0126 200.123 97.5979 199.855 97.1588C199.587 96.7197 199.294 96.2319 199.026 95.6952C198.855 95.3781 198.708 95.0854 198.538 94.8658C198.391 94.6219 198.221 94.4268 198.074 94.256C197.903 94.0853 197.733 93.9389 197.562 93.8169C197.367 93.695 197.172 93.5974 196.952 93.4998C196.733 93.4022 196.537 93.3291 196.342 93.2803C196.147 93.2315 196.001 93.2315 195.854 93.2559C195.732 93.2803 195.635 93.3535 195.562 93.451C195.489 93.5486 195.464 93.695 195.489 93.8901C195.513 94.256 195.732 94.6219 196.098 94.9878C196.464 95.3537 197.025 95.6952 197.733 96.0123L197.903 97.8906C197.294 97.6223 196.757 97.3296 196.269 97.0125C195.781 96.6954 195.342 96.3294 194.976 95.9635C194.61 95.5976 194.293 95.2074 194.049 94.8171C193.805 94.4268 193.61 94.0121 193.513 93.6218L191.561 92.768L191.464 91.7435L193.391 92.5973C193.415 92.2314 193.488 91.9386 193.659 91.7191C193.83 91.4996 194.049 91.3288 194.342 91.2556C194.635 91.1581 194.976 91.1581 195.391 91.2312C195.806 91.3044 196.245 91.4264 196.757 91.6703C197.342 91.9386 197.855 92.207 198.294 92.5485C198.733 92.8656 199.123 93.2315 199.465 93.6218C199.806 94.0121 200.123 94.4268 200.392 94.8658C200.66 95.3293 200.928 95.7928 201.197 96.3294C201.343 96.6222 201.489 96.8905 201.636 97.1344C201.782 97.354 201.953 97.5735 202.099 97.7443C202.27 97.915 202.441 98.0858 202.636 98.2077C202.831 98.3297 203.05 98.4517 203.319 98.5736C203.538 98.5736 203.733 98.6468 203.904 98.6712Z" fill="#FFA412"/>
<path d="M394.883 96.2501L199.216 130.129L241.21 372.664L436.877 338.785L394.883 96.2501Z" fill="#F8FCFF"/>
<path d="M410.175 315.26C409.906 313.772 409.418 312.43 408.662 311.259C407.906 310.089 406.979 309.113 405.833 308.357C404.686 307.6 403.393 307.088 401.905 306.795C400.417 306.527 398.832 306.527 397.1 306.82C395.392 307.113 393.88 307.649 392.611 308.405C391.343 309.162 390.294 310.089 389.465 311.186C388.66 312.284 388.099 313.504 387.781 314.87C387.464 316.236 387.44 317.65 387.708 319.163C387.977 320.651 388.464 321.968 389.221 323.139C389.977 324.285 390.904 325.237 392.05 326.017C393.197 326.774 394.49 327.31 395.953 327.579C397.417 327.871 399.002 327.847 400.71 327.554C402.417 327.261 403.93 326.725 405.223 325.969C406.516 325.212 407.589 324.285 408.394 323.188C409.199 322.09 409.784 320.87 410.101 319.529C410.394 318.163 410.418 316.748 410.175 315.26ZM396.392 238.982L374.975 242.69L387.22 299.331L403.905 296.453L396.392 238.982Z" fill="#F78248"/>
<path d="M381.683 126.967L326.847 136.456C326.262 136.554 325.725 136.164 325.627 135.603C325.53 135.017 325.92 134.481 326.481 134.383L381.317 124.894C381.903 124.796 382.439 125.187 382.537 125.748C382.659 126.309 382.269 126.87 381.683 126.967Z" fill="#AEC3FF"/>
<path d="M382.927 134.115L328.091 143.604C327.505 143.701 326.969 143.311 326.871 142.75C326.774 142.164 327.164 141.628 327.725 141.53L382.561 132.041C383.147 131.944 383.683 132.334 383.781 132.895C383.878 133.456 383.513 134.017 382.927 134.115Z" fill="#AEC3FF"/>
<path d="M384.171 141.262L329.311 150.751C328.725 150.849 328.188 150.458 328.091 149.897C327.993 149.312 328.384 148.775 328.945 148.678L383.781 139.189C384.367 139.091 384.903 139.481 385.001 140.042C385.123 140.603 384.732 141.164 384.171 141.262Z" fill="#AEC3FF"/>
<path d="M353.289 168.583L315.431 175.144C314.602 175.291 313.821 174.73 313.675 173.9C313.528 173.071 314.089 172.29 314.919 172.144L352.777 165.582C353.606 165.436 354.387 165.997 354.533 166.826C354.68 167.656 354.119 168.436 353.289 168.583Z" fill="#AEC3FF"/>
<path d="M387.391 162.679L364.095 166.704C363.266 166.851 362.486 166.289 362.339 165.46C362.193 164.631 362.754 163.85 363.583 163.704L386.879 159.679C387.708 159.533 388.489 160.094 388.635 160.923C388.782 161.752 388.221 162.533 387.391 162.679Z" fill="#AEC3FF"/>
<path d="M300.6 177.706L228.639 190.171C227.81 190.317 227.029 189.756 226.883 188.927C226.736 188.097 227.298 187.317 228.127 187.17L300.087 174.705C300.917 174.559 301.697 175.12 301.844 175.949C301.99 176.779 301.429 177.559 300.6 177.706Z" fill="#AEC3FF"/>
<path d="M288.598 190.488L230.42 200.562C229.591 200.709 228.81 200.148 228.664 199.318C228.517 198.489 229.078 197.708 229.908 197.562L288.086 187.487C288.915 187.341 289.696 187.902 289.842 188.731C289.989 189.561 289.427 190.341 288.598 190.488Z" fill="#AEC3FF"/>
<path d="M356.388 178.755L298.209 188.829C297.38 188.975 296.599 188.414 296.453 187.585C296.307 186.756 296.868 185.975 297.697 185.829L355.875 175.754C356.705 175.608 357.485 176.169 357.632 176.998C357.778 177.828 357.217 178.608 356.388 178.755Z" fill="#AEC3FF"/>
<path d="M357.924 199.611L320.066 206.173C319.236 206.319 318.456 205.758 318.309 204.929C318.163 204.099 318.724 203.319 319.553 203.172L357.412 196.611C358.241 196.464 359.022 197.025 359.168 197.855C359.315 198.684 358.754 199.465 357.924 199.611Z" fill="#AEC3FF"/>
<path d="M392.026 193.708L368.73 197.733C367.901 197.879 367.12 197.318 366.974 196.489C366.828 195.659 367.389 194.879 368.218 194.732L391.514 190.707C392.343 190.561 393.124 191.122 393.27 191.951C393.416 192.781 392.855 193.561 392.026 193.708Z" fill="#AEC3FF"/>
<path d="M305.234 208.734L233.274 221.199C232.445 221.345 231.664 220.784 231.518 219.955C231.371 219.126 231.932 218.345 232.762 218.199L304.722 205.734C305.551 205.587 306.332 206.148 306.478 206.978C306.6 207.807 306.064 208.588 305.234 208.734Z" fill="#AEC3FF"/>
<path d="M293.233 221.516L235.055 231.59C234.225 231.737 233.445 231.176 233.298 230.346C233.152 229.517 233.713 228.736 234.542 228.59L292.721 218.516C293.55 218.369 294.331 218.93 294.477 219.76C294.599 220.565 294.062 221.37 293.233 221.516Z" fill="#AEC3FF"/>
<path d="M393.807 204.099L302.868 219.833C302.039 219.979 301.258 219.418 301.112 218.589C300.965 217.76 301.527 216.979 302.356 216.833L393.294 201.099C394.124 200.953 394.904 201.514 395.051 202.343C395.173 203.172 394.636 203.953 393.807 204.099Z" fill="#AEC3FF"/>
<path d="M361.754 221.687L323.895 228.249C323.066 228.395 322.285 227.834 322.139 227.005C321.993 226.176 322.554 225.395 323.383 225.249L361.242 218.687C362.071 218.54 362.852 219.101 362.998 219.931C363.144 220.76 362.583 221.541 361.754 221.687Z" fill="#AEC3FF"/>
<path d="M395.856 215.784L372.56 219.809C371.731 219.955 370.95 219.394 370.804 218.565C370.657 217.735 371.218 216.955 372.048 216.808L395.344 212.783C396.173 212.637 396.954 213.198 397.1 214.028C397.246 214.857 396.685 215.637 395.856 215.784Z" fill="#AEC3FF"/>
<path d="M309.04 230.81L237.079 243.275C236.25 243.421 235.469 242.86 235.323 242.031C235.177 241.202 235.738 240.421 236.567 240.275L308.527 227.81C309.357 227.663 310.137 228.224 310.284 229.054C310.43 229.883 309.869 230.664 309.04 230.81Z" fill="#AEC3FF"/>
<path d="M297.038 243.592L238.86 253.667C238.031 253.813 237.25 253.252 237.104 252.423C236.957 251.593 237.518 250.813 238.348 250.666L296.526 240.592C297.355 240.445 298.136 241.007 298.282 241.836C298.429 242.665 297.868 243.446 297.038 243.592Z" fill="#AEC3FF"/>
<path d="M364.852 231.859L306.674 241.933C305.844 242.08 305.064 241.519 304.917 240.689C304.771 239.86 305.332 239.079 306.161 238.933L364.34 228.859C365.169 228.712 365.95 229.273 366.096 230.103C366.242 230.932 365.681 231.713 364.852 231.859Z" fill="#AEC3FF"/>
<path d="M260.521 75.3024C260.521 75.3024 269.425 85.2549 269.913 89.7921C270.401 94.3292 265.815 104.355 267.986 108.746C268.669 110.112 278.889 123.723 282.036 124.504C284.158 125.04 287.281 119.698 284.232 114.503C281.158 109.234 280.597 98.7688 281.134 94.1585C282.012 86.3038 287.671 68.0819 288.671 71.5214L306.015 68.8625L289.647 62.0812L260.521 75.3024Z" fill="#E59365"/>
<path d="M254.886 99.281C254.886 99.281 253.252 119.162 254.74 126.748C255.325 129.797 258.228 139.603 261.131 140.677C265.912 142.433 268.571 134.017 266.546 124.87C265.985 122.357 270.01 106.941 272.669 99.8664C279.28 82.3276 283.28 71.7897 283.28 71.7897L254.886 99.281Z" fill="#F2A36D"/>
<path d="M398.246 35.8827C393.977 38.3464 390.001 40.7125 386.537 42.786C384.61 43.9569 382.83 45.0302 381.268 46.0059C378.756 47.5671 376.78 48.8599 375.512 49.7869C372.316 52.1286 367.072 54.9827 363.193 58.91C363.193 58.91 363.169 58.91 363.169 58.9344C355.631 64.2277 355.265 70.4968 354.948 74.3266C354.192 83.8156 345.313 97.7442 333.238 111.673C326.652 119.259 320.822 130.407 318.821 134.798C318.163 136.237 316.919 139.603 315.504 143.165C313.528 148.117 311.186 153.434 309.528 154.483C309.04 154.776 308.259 154.678 307.332 154.337C304.966 153.434 301.77 150.897 300.819 148.922C298.014 143.043 300.258 134.115 305.747 119.991C310.967 106.526 310.259 99.7201 308.283 93.6949C307.015 89.7676 305.137 86.011 299.38 83.7181C298.697 83.4497 296.623 82.4496 293.769 81.6446C290.989 80.864 287.452 80.2786 283.841 80.7665C282.597 80.9372 281.304 81.2543 280.06 81.7178C277.206 82.7911 274.401 84.767 271.962 88.0357C271.889 88.1333 271.815 88.2308 271.718 88.3528C270.766 89.5969 269.669 90.7677 268.498 91.8654C266.156 94.0608 263.522 96.0367 261.107 98.037C258.741 100.013 256.545 101.989 255.081 104.257C254.203 105.599 253.569 107.038 253.301 108.624C252.398 113.771 249.739 118.869 247.105 124.504C245.178 128.577 243.275 132.968 242.031 137.871C239.055 149.678 232.347 150.897 228.859 147.312C228.81 147.263 228.761 147.214 228.737 147.165C227.663 145.994 227.688 139.603 228.005 133.846C228.249 129.529 228.639 125.601 228.859 124.479C229.566 120.967 235.469 107.233 238.323 93.0119C240.47 82.4008 257.131 66.6183 268.937 45.7132C274.816 35.3216 297.233 32.5408 320.7 19.0756C321.968 18.3438 323.334 17.8559 324.651 17.2217C328.408 15.4166 332.067 13.4651 335.653 11.3673C340.897 11.3673 346.166 11.6356 351.484 12.1723C355.046 12.5382 358.631 13.0017 362.217 13.6115C367.901 14.5628 373.609 15.7825 379.317 17.2705C386.513 23.4176 392.782 29.6623 398.246 35.8827Z" fill="#FFB27D"/>
<path d="M387.952 44.4691L383.879 47.0548L382.805 47.7379L363.974 59.7638L363.193 58.91L324.53 17.3193L324.652 17.2217L339.068 5.53732C340.385 5.36657 341.702 5.19582 342.995 5.04946C343.361 5.00067 343.703 4.95188 344.069 4.92749C345.971 6.51306 348.972 9.12315 352.533 12.2943C363.9 22.3931 380.927 38.0537 386.294 42.9811C387.342 43.9325 387.952 44.4691 387.952 44.4691Z" fill="#9FC1F4"/>
<path d="M450.35 9.41584L392.148 50.7138C392.148 50.7138 388.367 49.299 383.878 47.0548C383.098 46.6645 382.317 46.2742 381.512 45.8352C378.731 44.3472 375.853 42.5908 373.609 40.7125C363.168 32.0041 353.582 19.8806 347.727 11.8064C345.63 8.90358 343.995 6.53743 342.995 5.02504C343.361 4.97625 343.703 4.92746 344.068 4.90307C385.903 0.0487888 421.151 2.29298 450.35 9.41584Z" fill="#F99746"/>
<path d="M367.901 48.2744C368.535 47.2499 369.901 46.9328 370.926 47.567C371.95 48.2012 372.267 49.5673 371.633 50.5918C370.999 51.6163 369.633 51.9334 368.608 51.2992C367.584 50.6406 367.267 49.2989 367.901 48.2744Z" fill="#2A4E96"/>
<path d="M199.221 130.139L304.185 111.966L291.013 169.949L216.467 186.146L199.221 130.139Z" fill="#F8FCFF"/>
<path d="M237.86 161.24L237.104 156.923L226.81 158.703L226.005 154.117L237.665 152.093L236.908 147.775L236.372 147.873L231.103 148.775L220.492 150.605L224.224 172.169L228.981 171.339L227.541 162.997L237.86 161.24Z" fill="#F78248"/>
<path d="M245.69 146.263L240.958 147.092L244.69 168.656L249.422 167.827L245.69 146.263Z" fill="#F78248"/>
<path d="M273.962 163.582L270.23 142.018L265.546 142.823L267.839 156.093L255.447 144.58L251.081 145.336L254.813 166.9L259.497 166.095L257.131 152.386L269.937 164.29L273.962 163.582Z" fill="#F78248"/>
<path d="M294.818 155.63L294.233 155.727L283.109 157.654L282.329 153.117L292.501 151.361L291.769 147.141L281.597 148.897L280.841 144.531L292.379 142.531L291.647 138.311L275.377 141.116L279.109 162.68L293.184 160.24L295.526 159.826L294.818 155.63Z" fill="#F78248"/>
<path d="M299.502 163.569L224.537 176.549L224.725 177.631L299.689 164.651L299.502 163.569Z" fill="#F78248"/>
<path d="M366.754 372.682V376.78C366.754 377.097 366.632 377.415 366.437 377.658C366.218 377.927 365.925 378.122 365.559 378.244C365.437 378.293 365.34 378.317 365.218 378.317C365.12 378.342 364.998 378.342 364.876 378.342H287.11C286.159 378.342 285.378 377.756 285.256 377C285.256 376.951 285.232 376.902 285.232 376.854C285.232 376.829 285.232 376.805 285.232 376.78V372.682C285.232 372.658 285.232 372.633 285.232 372.609C285.232 372.56 285.232 372.512 285.256 372.463C285.402 371.707 286.183 371.121 287.11 371.121H364.876C364.998 371.121 365.096 371.121 365.218 371.145C365.34 371.17 365.461 371.194 365.559 371.219C365.925 371.341 366.218 371.536 366.437 371.804C366.632 372.048 366.754 372.365 366.754 372.682Z" fill="#FFB93E"/>
<path d="M328.579 378.366H286.915C286.134 378.366 285.5 377.878 285.305 377.195C285.28 377.146 285.28 377.073 285.256 377.024C285.256 376.976 285.232 376.927 285.232 376.878C285.232 376.854 285.232 376.829 285.232 376.805V372.707C285.232 372.682 285.232 372.658 285.232 372.633C285.232 372.585 285.232 372.536 285.256 372.487C285.256 372.438 285.28 372.365 285.305 372.316C285.5 371.633 286.159 371.146 286.915 371.146H323.456C324.042 373.243 325.383 376.195 328.579 378.366Z" fill="#FFA412"/>
<path d="M357.29 371.097H356.412V378.366H357.29V371.097Z" fill="#FFA412"/>
<path d="M354.289 371.097H353.411V378.366H354.289V371.097Z" fill="#FFA412"/>
<path d="M350.703 371.097H349.825V378.366H350.703V371.097Z" fill="#FFA412"/>
<path d="M345.215 371.097H344.337V378.366H345.215V371.097Z" fill="#FFA412"/>
<path d="M339.385 371.097H338.507V378.366H339.385V371.097Z" fill="#FFA412"/>
<path d="M330.482 371.097H329.604V378.366H330.482V371.097Z" fill="#FFA412"/>
<path d="M322.139 371.097H321.261V378.366H322.139V371.097Z" fill="#FFA412"/>
<path d="M314.675 371.097H313.796V378.366H314.675V371.097Z" fill="#FFA412"/>
<path d="M360.144 371.097H359.266V378.366H360.144V371.097Z" fill="#FFA412"/>
<path d="M362.022 371.097H361.144V378.366H362.022V371.097Z" fill="#FFA412"/>
<path d="M363.827 371.097H362.949V378.366H363.827V371.097Z" fill="#FFA412"/>
<path d="M365.217 371.121V378.342C365.12 378.366 364.998 378.366 364.876 378.366H364.315V371.097H364.876C364.998 371.097 365.096 371.121 365.217 371.121Z" fill="#FFA412"/>
<path d="M366.437 371.804V377.659C366.218 377.927 365.925 378.122 365.559 378.244V371.194C365.925 371.341 366.218 371.536 366.437 371.804Z" fill="#FFA412"/>
<path d="M358.436 365.438V369.536C358.436 369.853 358.314 370.17 358.119 370.414C358.07 370.487 357.997 370.536 357.948 370.609C357.753 370.78 357.509 370.926 357.241 371.024C357.143 371.048 357.021 371.097 356.899 371.097C356.802 371.121 356.68 371.121 356.558 371.121H278.767C277.841 371.121 277.036 370.536 276.914 369.78C276.914 369.731 276.889 369.682 276.889 369.633C276.889 369.609 276.889 369.585 276.889 369.56V365.462C276.889 365.438 276.889 365.413 276.889 365.389C276.889 365.34 276.889 365.291 276.914 365.243C277.06 364.486 277.841 363.901 278.767 363.901H356.558C356.607 363.901 356.656 363.901 356.704 363.901C356.729 363.901 356.729 363.901 356.753 363.901C356.777 363.901 356.802 363.901 356.826 363.901C356.851 363.901 356.851 363.901 356.875 363.901C356.997 363.925 357.119 363.95 357.217 363.974C357.29 363.998 357.339 364.023 357.412 364.047C357.46 364.072 357.485 364.096 357.534 364.096C357.558 364.096 357.582 364.12 357.607 364.145C357.631 364.145 357.656 364.169 357.68 364.194C357.753 364.242 357.826 364.291 357.9 364.364C357.924 364.389 357.948 364.413 357.973 364.413C357.997 364.413 357.997 364.438 358.022 364.438L358.046 364.462L358.07 364.486C358.095 364.511 358.119 364.535 358.143 364.559C358.314 364.803 358.436 365.096 358.436 365.438Z" fill="#FFB93E"/>
<path d="M320.261 371.097H278.572C277.792 371.097 277.157 370.585 276.962 369.926C276.938 369.877 276.938 369.804 276.914 369.755C276.914 369.706 276.889 369.658 276.889 369.609C276.889 369.584 276.889 369.56 276.889 369.536V365.438C276.889 365.413 276.889 365.389 276.889 365.364C276.889 365.316 276.889 365.267 276.914 365.218C276.914 365.169 276.938 365.096 276.962 365.047C277.157 364.364 277.816 363.876 278.572 363.876H315.114C315.138 363.925 315.138 363.998 315.162 364.047C315.797 366.145 317.163 368.999 320.261 371.097Z" fill="#FFA412"/>
<path d="M348.971 363.852H348.093V371.121H348.971V363.852Z" fill="#FFA412"/>
<path d="M345.971 363.852H345.093V371.121H345.971V363.852Z" fill="#FFA412"/>
<path d="M342.385 363.852H341.507V371.121H342.385V363.852Z" fill="#FFA412"/>
<path d="M336.897 363.852H336.019V371.121H336.897V363.852Z" fill="#FFA412"/>
<path d="M331.067 363.852H330.188V371.121H331.067V363.852Z" fill="#FFA412"/>
<path d="M322.163 363.852H321.285V371.121H322.163V363.852Z" fill="#FFA412"/>
<path d="M313.821 363.852H312.942V371.121H313.821V363.852Z" fill="#FFA412"/>
<path d="M306.356 363.852H305.478V371.121H306.356V363.852Z" fill="#FFA412"/>
<path d="M351.825 363.852H350.947V371.121H351.825V363.852Z" fill="#FFA412"/>
<path d="M353.704 363.852H352.825V371.121H353.704V363.852Z" fill="#FFA412"/>
<path d="M355.509 363.852H354.631V371.121H355.509V363.852Z" fill="#FFA412"/>
<path d="M356.899 363.876V371.097C356.802 371.121 356.68 371.121 356.558 371.121H355.997V363.852H356.558C356.68 363.852 356.777 363.852 356.899 363.876Z" fill="#FFA412"/>
<path d="M358.119 364.535V370.39C357.899 370.658 357.607 370.853 357.241 370.975V363.95C357.607 364.072 357.899 364.267 358.119 364.535Z" fill="#FFA412"/>
<path d="M362.461 358.339V362.437C362.461 362.754 362.339 363.071 362.144 363.315C361.924 363.584 361.632 363.779 361.266 363.901C361.168 363.925 361.046 363.974 360.924 363.974C360.827 363.998 360.705 363.998 360.583 363.998H282.792C282.475 363.998 282.182 363.925 281.914 363.828C281.402 363.608 281.012 363.169 280.914 362.681C280.914 362.657 280.914 362.608 280.89 362.583C280.89 362.559 280.89 362.535 280.89 362.51C280.89 362.486 280.89 362.462 280.89 362.437V358.339C280.89 358.315 280.89 358.29 280.89 358.266C280.89 358.217 280.89 358.168 280.914 358.119C281.06 357.363 281.841 356.778 282.768 356.778H360.558C360.68 356.778 360.778 356.778 360.9 356.802C361.022 356.827 361.144 356.851 361.241 356.875C361.607 356.997 361.9 357.193 362.12 357.461C362.339 357.705 362.461 358.022 362.461 358.339Z" fill="#FFB93E"/>
<path d="M324.261 364.023H282.597C282.329 364.023 282.061 363.949 281.817 363.852C281.353 363.632 281.012 363.193 280.938 362.705C280.938 362.681 280.938 362.632 280.914 362.608C280.914 362.583 280.914 362.559 280.914 362.535C280.914 362.51 280.914 362.486 280.914 362.461V358.339C280.914 358.315 280.914 358.29 280.914 358.266C280.914 358.217 280.914 358.168 280.938 358.119C280.938 358.071 280.963 357.998 280.987 357.949C281.182 357.266 281.841 356.778 282.597 356.778H319.139C319.7 358.851 321.017 361.705 323.993 363.852C324.09 363.901 324.188 363.974 324.261 364.023Z" fill="#FFA412"/>
<path d="M352.996 356.753H352.118V364.023H352.996V356.753Z" fill="#FFA412"/>
<path d="M349.996 356.753H349.118V364.023H349.996V356.753Z" fill="#FFA412"/>
<path d="M346.41 356.753H345.532V364.023H346.41V356.753Z" fill="#FFA412"/>
<path d="M340.922 356.753H340.044V364.023H340.922V356.753Z" fill="#FFA412"/>
<path d="M335.092 356.753H334.214V364.023H335.092V356.753Z" fill="#FFA412"/>
<path d="M326.188 356.753H325.31V364.023H326.188V356.753Z" fill="#FFA412"/>
<path d="M317.821 356.753H316.943V364.023H317.821V356.753Z" fill="#FFA412"/>
<path d="M310.381 356.753H309.503V364.023H310.381V356.753Z" fill="#FFA412"/>
<path d="M355.851 356.753H354.972V364.023H355.851V356.753Z" fill="#FFA412"/>
<path d="M357.729 356.753H356.851V364.023H357.729V356.753Z" fill="#FFA412"/>
<path d="M359.534 356.753H358.656V364.023H359.534V356.753Z" fill="#FFA412"/>
<path d="M360.9 356.778V363.998C360.803 364.023 360.681 364.023 360.559 364.023H359.998V356.753H360.559C360.705 356.753 360.803 356.778 360.9 356.778Z" fill="#FFA412"/>
<path d="M362.144 357.461V363.315C361.925 363.584 361.632 363.779 361.266 363.901V356.875C361.608 356.997 361.925 357.193 362.144 357.461Z" fill="#FFA412"/>
<path d="M364.315 351.094V355.192C364.315 355.509 364.193 355.826 363.998 356.07C363.974 356.095 363.949 356.144 363.925 356.168C363.778 356.314 363.583 356.461 363.388 356.558C363.315 356.607 363.217 356.631 363.12 356.656C362.998 356.68 362.9 356.729 362.778 356.729C362.73 356.729 362.681 356.753 362.608 356.753C362.559 356.753 362.486 356.753 362.437 356.753H284.671C283.719 356.753 282.939 356.168 282.817 355.412C282.817 355.363 282.792 355.314 282.792 355.265V350.997C282.841 350.216 283.549 349.606 284.451 349.509C284.524 349.509 284.598 349.484 284.671 349.484H362.437C362.486 349.484 362.559 349.484 362.608 349.484C362.656 349.484 362.705 349.484 362.778 349.509C362.9 349.533 363.022 349.557 363.12 349.582C363.486 349.704 363.778 349.899 363.998 350.167C364.218 350.46 364.315 350.753 364.315 351.094Z" fill="#FFB93E"/>
<path d="M326.139 356.753H284.476C283.695 356.753 283.061 356.241 282.866 355.582C282.841 355.534 282.841 355.461 282.817 355.412C282.817 355.363 282.792 355.314 282.792 355.265V350.997C282.841 350.24 283.475 349.606 284.28 349.509C284.354 349.509 284.402 349.484 284.476 349.484H321.017C321.017 349.484 321.017 349.484 321.017 349.509C321.602 351.655 322.968 354.607 326.139 356.753Z" fill="#FFA412"/>
<path d="M354.85 349.509H353.972V356.778H354.85V349.509Z" fill="#FFA412"/>
<path d="M351.874 349.509H350.996V356.778H351.874V349.509Z" fill="#FFA412"/>
<path d="M348.264 349.509H347.386V356.778H348.264V349.509Z" fill="#FFA412"/>
<path d="M342.776 349.509H341.898V356.778H342.776V349.509Z" fill="#FFA412"/>
<path d="M336.946 349.509H336.068V356.778H336.946V349.509Z" fill="#FFA412"/>
<path d="M328.042 349.509H327.164V356.778H328.042V349.509Z" fill="#FFA412"/>
<path d="M319.7 349.509H318.821V356.778H319.7V349.509Z" fill="#FFA412"/>
<path d="M312.235 349.509H311.357V356.778H312.235V349.509Z" fill="#FFA412"/>
<path d="M357.705 349.509H356.827V356.778H357.705V349.509Z" fill="#FFA412"/>
<path d="M359.583 349.509H358.705V356.778H359.583V349.509Z" fill="#FFA412"/>
<path d="M361.412 349.509H360.534V356.778H361.412V349.509Z" fill="#FFA412"/>
<path d="M362.778 349.533V356.753C362.681 356.778 362.559 356.778 362.437 356.778H361.876V349.509H362.437C362.559 349.509 362.656 349.509 362.778 349.533Z" fill="#FFA412"/>
<path d="M363.998 350.192V356.046C363.778 356.314 363.486 356.51 363.12 356.631V349.582C363.486 349.728 363.778 349.923 363.998 350.192Z" fill="#FFA412"/>
<path d="M358.607 343.825V347.923C358.607 348.24 358.485 348.557 358.29 348.801C358.07 349.069 357.777 349.289 357.412 349.387C357.314 349.411 357.192 349.46 357.07 349.46C357.046 349.46 356.997 349.46 356.972 349.484H356.948C356.924 349.484 356.899 349.484 356.899 349.484C356.875 349.484 356.875 349.484 356.851 349.484C356.826 349.484 356.777 349.484 356.753 349.484H278.987C277.987 349.484 277.157 348.825 277.109 347.996C277.109 347.972 277.109 347.947 277.109 347.923V343.825C277.109 343.8 277.109 343.776 277.109 343.752C277.109 343.727 277.109 343.703 277.109 343.678C277.182 343.02 277.767 342.459 278.523 342.288C278.548 342.288 278.548 342.288 278.572 342.288C278.694 342.264 278.841 342.239 278.987 342.239H356.753C356.802 342.239 356.875 342.239 356.924 342.239C356.948 342.239 356.972 342.239 356.997 342.239C357.021 342.239 357.046 342.239 357.094 342.239C357.216 342.264 357.338 342.288 357.436 342.312C357.802 342.434 358.119 342.63 358.314 342.898C358.485 343.215 358.607 343.508 358.607 343.825Z" fill="#FFB93E"/>
<path d="M320.407 349.509H278.743C277.84 349.509 277.109 348.85 277.06 348.02C277.06 347.996 277.06 347.972 277.06 347.947V343.849C277.06 343.825 277.06 343.8 277.06 343.776C277.06 343.752 277.06 343.727 277.06 343.703C277.133 343.02 277.67 342.459 278.353 342.312C278.377 342.312 278.401 342.312 278.426 342.288C278.523 342.264 278.621 342.264 278.719 342.264H315.26C315.26 342.288 315.26 342.288 315.284 342.312C315.894 344.435 317.26 347.362 320.407 349.509Z" fill="#FFA412"/>
<path d="M349.142 342.264H348.264V349.533H349.142V342.264Z" fill="#FFA412"/>
<path d="M346.142 342.264H345.264V349.533H346.142V342.264Z" fill="#FFA412"/>
<path d="M342.556 342.264H341.678V349.533H342.556V342.264Z" fill="#FFA412"/>
<path d="M337.068 342.264H336.189V349.533H337.068V342.264Z" fill="#FFA412"/>
<path d="M331.237 342.264H330.359V349.533H331.237V342.264Z" fill="#FFA412"/>
<path d="M322.334 342.264H321.456V349.533H322.334V342.264Z" fill="#FFA412"/>
<path d="M313.967 342.264H313.089V349.533H313.967V342.264Z" fill="#FFA412"/>
<path d="M306.527 342.264H305.649V349.533H306.527V342.264Z" fill="#FFA412"/>
<path d="M351.996 342.264H351.118V349.533H351.996V342.264Z" fill="#FFA412"/>
<path d="M353.875 342.264H352.996V349.533H353.875V342.264Z" fill="#FFA412"/>
<path d="M355.68 342.264H354.802V349.533H355.68V342.264Z" fill="#FFA412"/>
<path d="M357.046 342.288V349.509C356.948 349.533 356.826 349.533 356.704 349.533H356.143V342.264H356.704C356.826 342.264 356.948 342.264 357.046 342.288Z" fill="#FFA412"/>
<path d="M358.29 342.947V348.801C358.07 349.069 357.778 349.265 357.412 349.387V342.337C357.753 342.483 358.07 342.678 358.29 342.947Z" fill="#FFA412"/>
<path d="M358.436 336.629V340.727C358.436 341.044 358.314 341.361 358.119 341.605C358.07 341.678 357.997 341.727 357.948 341.8C357.753 341.971 357.509 342.117 357.241 342.215C357.143 342.239 357.07 342.264 356.973 342.288C356.948 342.288 356.924 342.288 356.899 342.288C356.802 342.312 356.68 342.312 356.558 342.312H278.767C278.694 342.312 278.597 342.312 278.524 342.288C278.499 342.288 278.45 342.288 278.426 342.288C277.645 342.166 277.011 341.629 276.889 340.946C276.889 340.898 276.889 340.849 276.865 340.8C276.865 340.776 276.865 340.751 276.865 340.727V336.629C276.865 336.604 276.865 336.58 276.865 336.556C276.865 336.507 276.865 336.458 276.889 336.409C277.035 335.653 277.816 335.068 278.743 335.068H356.534C356.582 335.068 356.631 335.068 356.68 335.068H356.704C356.729 335.068 356.729 335.068 356.753 335.068C356.777 335.068 356.802 335.068 356.826 335.068C356.851 335.068 356.851 335.068 356.875 335.068C356.997 335.092 357.119 335.116 357.217 335.141C357.29 335.165 357.339 335.19 357.412 335.214C357.656 335.312 357.875 335.482 358.022 335.653C358.046 335.677 358.07 335.702 358.095 335.726C358.314 335.995 358.436 336.287 358.436 336.629Z" fill="#FFB93E"/>
<path d="M320.261 342.312H278.572C278.548 342.312 278.499 342.312 278.475 342.312C278.45 342.312 278.402 342.312 278.377 342.312C277.621 342.215 277.011 341.654 276.914 340.971C276.914 340.922 276.914 340.873 276.889 340.824C276.889 340.8 276.889 340.776 276.889 340.751V336.629C276.889 336.604 276.889 336.58 276.889 336.556C276.889 336.507 276.889 336.458 276.914 336.409C276.914 336.36 276.938 336.287 276.962 336.239C277.157 335.556 277.816 335.068 278.572 335.068H315.114C315.138 335.116 315.138 335.19 315.162 335.238C315.772 337.336 317.114 340.166 320.163 342.264C320.187 342.264 320.236 342.288 320.261 342.312Z" fill="#FFA412"/>
<path d="M348.972 335.043H348.094V342.312H348.972V335.043Z" fill="#FFA412"/>
<path d="M345.971 335.043H345.093V342.312H345.971V335.043Z" fill="#FFA412"/>
<path d="M342.385 335.043H341.507V342.312H342.385V335.043Z" fill="#FFA412"/>
<path d="M336.897 335.043H336.019V342.312H336.897V335.043Z" fill="#FFA412"/>
<path d="M331.067 335.043H330.189V342.312H331.067V335.043Z" fill="#FFA412"/>
<path d="M322.163 335.043H321.285V342.312H322.163V335.043Z" fill="#FFA412"/>
<path d="M313.821 335.043H312.943V342.312H313.821V335.043Z" fill="#FFA412"/>
<path d="M306.356 335.043H305.478V342.312H306.356V335.043Z" fill="#FFA412"/>
<path d="M351.826 335.043H350.948V342.312H351.826V335.043Z" fill="#FFA412"/>
<path d="M353.704 335.043H352.826V342.312H353.704V335.043Z" fill="#FFA412"/>
<path d="M355.509 335.043H354.631V342.312H355.509V335.043Z" fill="#FFA412"/>
<path d="M356.9 335.068V342.288C356.802 342.312 356.68 342.312 356.558 342.312H355.997V335.043H356.558C356.68 335.043 356.778 335.043 356.9 335.068Z" fill="#FFA412"/>
<path d="M358.119 335.75V341.605C357.9 341.873 357.607 342.068 357.241 342.19V335.141C357.607 335.263 357.9 335.482 358.119 335.75Z" fill="#FFA412"/>
<path d="M362.461 329.53V333.628C362.461 333.946 362.339 334.263 362.144 334.507C361.924 334.775 361.632 334.97 361.266 335.092C361.168 335.116 361.046 335.165 360.924 335.165C360.827 335.19 360.705 335.19 360.583 335.19H282.792C282.475 335.19 282.182 335.116 281.914 335.019C281.402 334.799 281.012 334.36 280.914 333.872C280.914 333.848 280.914 333.799 280.89 333.775C280.89 333.75 280.89 333.726 280.89 333.702C280.89 333.677 280.89 333.653 280.89 333.628V329.53C280.89 329.506 280.89 329.482 280.89 329.457C280.89 329.408 280.89 329.36 280.914 329.311C281.06 328.555 281.841 327.969 282.768 327.969H360.558C360.68 327.969 360.778 327.969 360.9 327.994C361.022 328.018 361.144 328.042 361.241 328.067C361.607 328.189 361.9 328.384 362.12 328.652C362.339 328.921 362.461 329.213 362.461 329.53Z" fill="#FFB93E"/>
<path d="M324.261 335.214H282.597C282.329 335.214 282.061 335.141 281.817 335.043C281.353 334.824 281.012 334.385 280.938 333.897C280.938 333.872 280.938 333.824 280.914 333.799C280.914 333.775 280.914 333.75 280.914 333.726C280.914 333.702 280.914 333.677 280.914 333.653V329.555C280.914 329.53 280.914 329.506 280.914 329.482C280.914 329.433 280.914 329.384 280.938 329.335C280.938 329.287 280.963 329.213 280.987 329.165C281.182 328.482 281.841 327.994 282.597 327.994H319.139C319.7 330.067 321.017 332.921 323.993 335.068C324.09 335.092 324.188 335.165 324.261 335.214Z" fill="#FFA412"/>
<path d="M352.996 327.969H352.118V335.238H352.996V327.969Z" fill="#FFA412"/>
<path d="M349.996 327.969H349.118V335.238H349.996V327.969Z" fill="#FFA412"/>
<path d="M346.41 327.969H345.532V335.238H346.41V327.969Z" fill="#FFA412"/>
<path d="M340.922 327.969H340.044V335.238H340.922V327.969Z" fill="#FFA412"/>
<path d="M335.092 327.969H334.214V335.238H335.092V327.969Z" fill="#FFA412"/>
<path d="M326.188 327.969H325.31V335.238H326.188V327.969Z" fill="#FFA412"/>
<path d="M317.821 327.969H316.943V335.238H317.821V327.969Z" fill="#FFA412"/>
<path d="M310.381 327.969H309.503V335.238H310.381V327.969Z" fill="#FFA412"/>
<path d="M355.851 327.969H354.972V335.238H355.851V327.969Z" fill="#FFA412"/>
<path d="M357.729 327.969H356.851V335.238H357.729V327.969Z" fill="#FFA412"/>
<path d="M359.534 327.969H358.656V335.238H359.534V327.969Z" fill="#FFA412"/>
<path d="M360.9 327.994V335.214C360.803 335.238 360.681 335.238 360.559 335.238H359.998V327.969H360.559C360.705 327.969 360.803 327.969 360.9 327.994Z" fill="#FFA412"/>
<path d="M362.144 328.652V334.507C361.925 334.775 361.632 334.97 361.266 335.092V328.042C361.608 328.189 361.925 328.384 362.144 328.652Z" fill="#FFA412"/>
<path d="M368.828 322.286V326.384C368.828 326.701 368.706 327.018 368.511 327.262C368.486 327.286 368.462 327.335 368.438 327.359C368.316 327.481 368.169 327.603 368.023 327.676C367.95 327.725 367.852 327.75 367.779 327.798C367.73 327.823 367.706 327.823 367.657 327.847C367.559 327.872 367.437 327.92 367.315 327.92C367.218 327.945 367.096 327.945 366.974 327.945H289.183C288.257 327.945 287.452 327.359 287.33 326.603C287.33 326.554 287.305 326.506 287.305 326.457C287.305 326.432 287.305 326.408 287.305 326.384V322.286C287.305 322.261 287.305 322.237 287.305 322.212C287.354 321.456 288.061 320.822 288.964 320.724C289.037 320.724 289.11 320.724 289.183 320.724H366.974C367.096 320.724 367.193 320.724 367.315 320.749C367.437 320.773 367.559 320.798 367.657 320.822C367.974 320.919 368.242 321.09 368.462 321.31C368.486 321.334 368.511 321.383 368.535 321.407C368.706 321.651 368.828 321.944 368.828 322.286Z" fill="#FFB93E"/>
<path d="M330.628 327.969H288.964C288.183 327.969 287.549 327.457 287.354 326.798C287.33 326.749 287.33 326.676 287.305 326.627C287.305 326.579 287.281 326.53 287.281 326.481C287.281 326.457 287.281 326.432 287.281 326.408V322.31C287.281 322.285 287.281 322.261 287.281 322.237C287.33 321.48 287.964 320.846 288.769 320.749C288.842 320.749 288.891 320.749 288.964 320.749H325.505C326.091 322.846 327.457 325.798 330.628 327.969Z" fill="#FFA412"/>
<path d="M359.339 320.7H358.461V327.969H359.339V320.7Z" fill="#FFA412"/>
<path d="M356.363 320.7H355.485V327.969H356.363V320.7Z" fill="#FFA412"/>
<path d="M352.777 320.7H351.899V327.969H352.777V320.7Z" fill="#FFA412"/>
<path d="M347.264 320.7H346.386V327.969H347.264V320.7Z" fill="#FFA412"/>
<path d="M341.458 320.7H340.58V327.969H341.458V320.7Z" fill="#FFA412"/>
<path d="M332.53 320.7H331.652V327.969H332.53V320.7Z" fill="#FFA412"/>
<path d="M324.188 320.7H323.31V327.969H324.188V320.7Z" fill="#FFA412"/>
<path d="M316.724 320.7H315.845V327.969H316.724V320.7Z" fill="#FFA412"/>
<path d="M362.193 320.7H361.314V327.969H362.193V320.7Z" fill="#FFA412"/>
<path d="M364.071 320.7H363.193V327.969H364.071V320.7Z" fill="#FFA412"/>
<path d="M365.901 320.7H365.022V327.969H365.901V320.7Z" fill="#FFA412"/>
<path d="M367.267 320.724V327.945C367.169 327.969 367.047 327.969 366.925 327.969H366.364V320.7H366.925C367.047 320.7 367.169 320.7 367.267 320.724Z" fill="#FFA412"/>
<path d="M368.486 321.407V327.262C368.267 327.53 367.974 327.725 367.608 327.847V320.798C367.974 320.92 368.291 321.139 368.486 321.407Z" fill="#FFA412"/>
<path d="M358.607 315.041V319.139C358.607 319.456 358.485 319.773 358.29 320.017C358.07 320.285 357.777 320.505 357.412 320.602C357.314 320.627 357.192 320.675 357.07 320.675C357.046 320.675 356.997 320.675 356.973 320.7H356.948C356.924 320.7 356.899 320.7 356.875 320.7C356.851 320.7 356.851 320.7 356.826 320.7C356.802 320.7 356.777 320.7 356.729 320.7H278.963C278.279 320.7 277.694 320.407 277.353 319.944C277.182 319.724 277.084 319.48 277.084 319.187C277.084 319.163 277.084 319.139 277.084 319.114V315.016C277.084 314.992 277.084 314.967 277.084 314.943C277.133 314.26 277.67 313.699 278.426 313.504C278.597 313.455 278.792 313.431 278.963 313.431H356.729C356.753 313.431 356.802 313.431 356.826 313.431C356.851 313.431 356.851 313.431 356.875 313.431C356.948 313.431 356.997 313.431 357.07 313.455C357.192 313.479 357.314 313.504 357.412 313.528C357.46 313.553 357.509 313.553 357.582 313.577C357.778 313.65 357.973 313.772 358.119 313.919C358.119 313.919 358.143 313.919 358.143 313.943C358.192 313.992 358.241 314.04 358.29 314.089C358.485 314.406 358.607 314.699 358.607 315.041Z" fill="#FFB93E"/>
<path d="M320.407 320.724H278.743C278.157 320.724 277.645 320.432 277.328 320.017C277.157 319.797 277.06 319.529 277.06 319.236C277.06 319.212 277.06 319.188 277.06 319.163V315.065C277.06 315.041 277.06 315.016 277.06 314.992C277.109 314.26 277.67 313.675 278.401 313.528C278.499 313.504 278.621 313.504 278.743 313.504H315.284C315.309 313.553 315.309 313.626 315.333 313.675C315.943 315.748 317.309 318.578 320.407 320.724C320.407 320.7 320.407 320.7 320.407 320.724Z" fill="#FFA412"/>
<path d="M349.142 313.455H348.264V320.724H349.142V313.455Z" fill="#FFA412"/>
<path d="M346.142 313.455H345.264V320.724H346.142V313.455Z" fill="#FFA412"/>
<path d="M342.556 313.455H341.678V320.724H342.556V313.455Z" fill="#FFA412"/>
<path d="M337.068 313.455H336.189V320.724H337.068V313.455Z" fill="#FFA412"/>
<path d="M331.237 313.455H330.359V320.724H331.237V313.455Z" fill="#FFA412"/>
<path d="M322.334 313.455H321.456V320.724H322.334V313.455Z" fill="#FFA412"/>
<path d="M313.967 313.455H313.089V320.724H313.967V313.455Z" fill="#FFA412"/>
<path d="M306.527 313.455H305.649V320.724H306.527V313.455Z" fill="#FFA412"/>
<path d="M351.996 313.455H351.118V320.724H351.996V313.455Z" fill="#FFA412"/>
<path d="M353.875 313.455H352.996V320.724H353.875V313.455Z" fill="#FFA412"/>
<path d="M355.68 313.455H354.802V320.724H355.68V313.455Z" fill="#FFA412"/>
<path d="M357.046 313.479V320.7C356.948 320.724 356.826 320.724 356.704 320.724H356.143V313.455H356.704C356.826 313.455 356.948 313.455 357.046 313.479Z" fill="#FFA412"/>
<path d="M358.29 314.138V319.993C358.07 320.261 357.778 320.456 357.412 320.578V313.528C357.753 313.675 358.07 313.894 358.29 314.138Z" fill="#FFA412"/>
<path d="M364.315 307.942V312.04C364.315 312.357 364.193 312.675 363.998 312.919C363.778 313.187 363.486 313.382 363.12 313.504C362.998 313.553 362.9 313.577 362.778 313.577C362.681 313.602 362.559 313.602 362.437 313.602H284.671C284.378 313.602 284.085 313.553 283.841 313.431C283.28 313.187 282.866 312.723 282.817 312.162C282.817 312.138 282.817 312.114 282.817 312.089C282.817 312.065 282.817 312.04 282.817 312.016V307.918C282.817 307.893 282.817 307.869 282.817 307.845C282.866 307.064 283.573 306.454 284.476 306.357C284.549 306.357 284.622 306.357 284.695 306.357H362.486C362.608 306.357 362.705 306.357 362.827 306.381C362.949 306.405 363.071 306.43 363.169 306.454C363.535 306.576 363.827 306.771 364.047 307.04C364.218 307.308 364.315 307.601 364.315 307.942Z" fill="#FFB93E"/>
<path d="M326.139 313.626H284.476C284.207 313.626 283.963 313.577 283.719 313.455C283.207 313.211 282.841 312.748 282.792 312.186C282.792 312.162 282.792 312.138 282.792 312.113C282.792 312.089 282.792 312.064 282.792 312.04V307.942C282.792 307.918 282.792 307.893 282.792 307.869C282.841 307.088 283.475 306.478 284.28 306.381C284.354 306.381 284.402 306.381 284.476 306.381H321.017C321.578 308.454 322.895 311.308 325.896 313.455C325.969 313.504 326.042 313.552 326.139 313.626Z" fill="#FFA412"/>
<path d="M354.85 306.357H353.972V313.626H354.85V306.357Z" fill="#FFA412"/>
<path d="M351.874 306.357H350.996V313.626H351.874V306.357Z" fill="#FFA412"/>
<path d="M348.264 306.357H347.386V313.626H348.264V306.357Z" fill="#FFA412"/>
<path d="M342.776 306.357H341.898V313.626H342.776V306.357Z" fill="#FFA412"/>
<path d="M336.946 306.357H336.068V313.626H336.946V306.357Z" fill="#FFA412"/>
<path d="M328.042 306.357H327.164V313.626H328.042V306.357Z" fill="#FFA412"/>
<path d="M319.7 306.357H318.821V313.626H319.7V306.357Z" fill="#FFA412"/>
<path d="M312.235 306.357H311.357V313.626H312.235V306.357Z" fill="#FFA412"/>
<path d="M357.705 306.357H356.827V313.626H357.705V306.357Z" fill="#FFA412"/>
<path d="M359.583 306.357H358.705V313.626H359.583V306.357Z" fill="#FFA412"/>
<path d="M361.412 306.357H360.534V313.626H361.412V306.357Z" fill="#FFA412"/>
<path d="M362.778 306.381V313.601C362.681 313.626 362.559 313.626 362.437 313.626H361.876V306.357H362.437C362.559 306.357 362.656 306.357 362.778 306.381Z" fill="#FFA412"/>
<path d="M363.998 307.064V312.919C363.778 313.187 363.486 313.382 363.12 313.504V306.454C363.486 306.576 363.778 306.796 363.998 307.064Z" fill="#FFA412"/>
<path d="M366.754 300.697V304.795C366.754 305.113 366.632 305.43 366.437 305.674C366.218 305.942 365.925 306.137 365.559 306.259C365.437 306.308 365.34 306.332 365.218 306.332C365.193 306.332 365.144 306.332 365.12 306.357C365.096 306.357 365.071 306.357 365.047 306.357C365.022 306.357 364.998 306.357 364.974 306.357C364.949 306.357 364.9 306.357 364.876 306.357H287.11C286.11 306.357 285.28 305.698 285.232 304.869C285.232 304.844 285.232 304.82 285.232 304.795V300.697C285.232 300.673 285.232 300.649 285.232 300.624C285.28 299.795 286.11 299.136 287.11 299.136H364.9C365.022 299.136 365.12 299.136 365.242 299.161C365.364 299.185 365.486 299.209 365.583 299.234C365.949 299.356 366.242 299.551 366.462 299.819C366.632 300.063 366.754 300.356 366.754 300.697Z" fill="#FFB93E"/>
<path d="M328.554 306.357H286.89C285.988 306.357 285.256 305.698 285.207 304.869C285.207 304.844 285.207 304.82 285.207 304.795V300.697C285.207 300.673 285.207 300.649 285.207 300.624C285.256 299.795 285.988 299.136 286.89 299.136H323.456C324.042 301.234 325.383 304.186 328.554 306.357Z" fill="#FFA412"/>
<path d="M357.29 299.112H356.412V306.381H357.29V299.112Z" fill="#FFA412"/>
<path d="M354.289 299.112H353.411V306.381H354.289V299.112Z" fill="#FFA412"/>
<path d="M350.703 299.112H349.825V306.381H350.703V299.112Z" fill="#FFA412"/>
<path d="M345.215 299.112H344.337V306.381H345.215V299.112Z" fill="#FFA412"/>
<path d="M339.385 299.112H338.507V306.381H339.385V299.112Z" fill="#FFA412"/>
<path d="M330.482 299.112H329.604V306.381H330.482V299.112Z" fill="#FFA412"/>
<path d="M322.139 299.112H321.261V306.381H322.139V299.112Z" fill="#FFA412"/>
<path d="M314.675 299.112H313.796V306.381H314.675V299.112Z" fill="#FFA412"/>
<path d="M360.144 299.112H359.266V306.381H360.144V299.112Z" fill="#FFA412"/>
<path d="M362.022 299.112H361.144V306.381H362.022V299.112Z" fill="#FFA412"/>
<path d="M363.827 299.112H362.949V306.381H363.827V299.112Z" fill="#FFA412"/>
<path d="M365.217 299.136V306.357C365.12 306.381 364.998 306.381 364.876 306.381H364.315V299.112H364.876C364.998 299.112 365.096 299.112 365.217 299.136Z" fill="#FFA412"/>
<path d="M366.437 299.795V305.649C366.218 305.918 365.925 306.113 365.559 306.235V299.185C365.925 299.331 366.218 299.551 366.437 299.795Z" fill="#FFA412"/>
<path d="M342.093 257.716C342.093 257.716 338.019 263.473 334.262 263.546C330.506 263.619 324.822 260.887 324.822 260.887C324.822 260.887 321.383 253.228 323.724 250.227C323.724 250.227 326.066 249.203 328.505 251.008C328.92 251.325 329.359 251.715 329.774 252.228C330.359 252.935 331.042 253.35 331.75 253.569C334.433 254.374 337.604 252.472 338.775 254.325C339.458 255.399 340.214 256.204 340.849 256.765C341.58 257.399 342.093 257.716 342.093 257.716Z" fill="#FFEDDC"/>
<path d="M288.842 299.209C288.842 299.209 303.283 264.229 329.262 263.546C329.262 263.546 353.265 266.205 354.582 299.209H288.842Z" fill="#FFEDDC"/>
<path d="M322.163 264.619C322.163 264.619 332.579 266.937 335.799 265.571C335.799 265.571 336.287 261.204 331.896 261.814C328.896 262.229 326.944 260.79 325.798 260.204C324.139 259.399 321.724 262.814 322.163 264.619Z" fill="#DB6A1D"/>
<path d="M331.213 258.058C330.554 258.545 328.505 251.008 328.505 251.008C328.92 251.325 329.359 251.715 329.774 252.227C330.359 252.935 331.042 253.35 331.75 253.569C331.75 253.789 331.872 257.57 331.213 258.058Z" fill="#E5C1A1"/>
<path d="M340.848 256.765C340.702 256.862 335.872 259.741 335.238 259.741C334.579 259.741 338.799 254.325 338.799 254.325C339.458 255.374 340.214 256.179 340.848 256.765Z" fill="#E5C1A1"/>
<path d="M302.941 289.427C302.673 289.208 313.162 273.986 316.04 273.889C318.919 273.767 325.407 277.231 330.115 277.67C334.823 278.109 339.36 276.792 340.263 279.548C341.141 282.329 343.605 292.159 342.092 293.745C340.604 295.331 308.722 294.355 302.941 289.427Z" fill="#F9DDBF"/>
<path opacity="0.5" d="M312.821 342.264C312.821 342.288 312.821 342.288 312.821 342.312C312.674 344.752 312.284 347.167 311.65 349.508C311.65 349.508 311.65 349.508 311.65 349.533C311.552 349.874 311.455 350.216 311.357 350.557C310.698 352.704 309.845 354.777 308.796 356.778C307.479 359.29 305.844 361.681 303.917 363.852C303.868 363.9 303.82 363.974 303.771 364.022C301.356 366.73 298.502 369.121 295.233 371.097C294.55 371.511 293.843 371.926 293.111 372.292C292.623 372.56 292.135 372.804 291.623 373.024C291.159 373.292 290.647 373.536 290.184 373.829C288.818 374.658 287.11 375.341 285.232 375.853V372.658C285.232 372.633 285.232 372.609 285.232 372.585C285.232 372.536 285.232 372.487 285.256 372.438C285.256 372.389 285.28 372.316 285.305 372.267C285.5 371.584 286.159 371.097 286.915 371.097H278.572C277.792 371.097 277.157 370.584 276.962 369.926C276.938 369.877 276.938 369.804 276.914 369.755C276.914 369.706 276.889 369.657 276.889 369.609C276.889 369.584 276.889 369.56 276.889 369.535V365.437C276.889 365.413 276.889 365.388 276.889 365.364C276.889 365.315 276.889 365.266 276.914 365.218C276.914 365.169 276.938 365.096 276.962 365.047C277.157 364.364 277.816 363.876 278.572 363.876H281.817C281.353 363.657 281.012 363.217 280.938 362.73C280.938 362.705 280.938 362.656 280.914 362.632C280.914 362.608 280.914 362.583 280.914 362.559C280.914 362.534 280.914 362.51 280.914 362.486V358.339C280.914 358.314 280.914 358.29 280.914 358.266C280.914 358.217 280.914 358.168 280.938 358.119C280.938 358.07 280.963 357.997 280.987 357.948C281.182 357.265 281.841 356.778 282.597 356.778H284.451C283.671 356.778 283.036 356.265 282.841 355.607C282.817 355.558 282.817 355.485 282.792 355.436C282.792 355.387 282.768 355.338 282.768 355.29V351.021C282.817 350.265 283.451 349.63 284.256 349.533H278.743C277.84 349.533 277.109 348.874 277.06 348.045C277.06 348.02 277.06 347.996 277.06 347.972V343.873C277.06 343.849 277.06 343.825 277.06 343.8C277.06 343.776 277.06 343.752 277.06 343.727C277.133 343.044 277.67 342.483 278.353 342.337C277.597 342.239 276.987 341.678 276.889 340.995C276.889 340.946 276.889 340.898 276.865 340.849C276.865 340.824 276.865 340.8 276.865 340.776V336.629C276.865 336.604 276.865 336.58 276.865 336.555C276.865 336.507 276.865 336.458 276.889 336.409C276.889 336.36 276.914 336.287 276.938 336.238C277.133 335.555 277.792 335.067 278.548 335.067H281.792C281.329 334.848 280.987 334.409 280.914 333.921C280.914 333.897 280.914 333.848 280.89 333.823C280.89 333.799 280.89 333.775 280.89 333.75C280.89 333.726 280.89 333.701 280.89 333.677V329.579C280.89 329.555 280.89 329.53 280.89 329.506C280.89 329.457 280.89 329.408 280.914 329.359C280.914 329.311 280.938 329.237 280.963 329.189C281.158 328.506 281.817 328.018 282.573 328.018H288.939C288.159 328.018 287.525 327.506 287.33 326.847C287.305 326.798 287.305 326.725 287.281 326.676C287.281 326.627 287.256 326.579 287.256 326.53C287.256 326.505 287.256 326.481 287.256 326.457V322.359C287.256 322.334 287.256 322.31 287.256 322.285C287.305 321.529 287.939 320.895 288.744 320.797H278.743C278.158 320.797 277.645 320.505 277.328 320.09V320.066L278.377 313.626V313.601L279.89 304.405C281.621 304.649 283.353 304.99 285.037 305.454C285.134 305.478 285.232 305.503 285.329 305.527C285.329 305.527 285.329 305.527 285.354 305.527C286.329 305.795 287.305 306.113 288.256 306.454H288.281C292.696 308.064 296.794 310.455 300.356 313.528C300.429 313.577 300.478 313.626 300.551 313.699C302.405 315.333 304.112 317.138 305.625 319.163C305.917 319.553 306.234 319.968 306.503 320.383C306.6 320.529 306.698 320.651 306.771 320.797C307.235 321.48 307.674 322.163 308.088 322.895C309.064 324.578 309.893 326.31 310.552 328.067C311.455 330.384 312.064 332.775 312.43 335.141C312.43 335.189 312.455 335.263 312.455 335.311C312.845 337.556 312.943 339.922 312.821 342.264Z" fill="#E2810E"/>
<path d="M303.257 347.091C307.995 326.506 295.148 305.977 274.562 301.239C253.977 296.501 233.448 309.347 228.71 329.933C223.972 350.519 236.818 371.048 257.404 375.786C277.99 380.524 298.519 367.677 303.257 347.091Z" fill="#E2810E"/>
<path d="M282.963 372.779C282.5 373.072 282.012 373.34 281.524 373.609C281.353 373.706 281.182 373.78 281.036 373.877C280.67 374.072 280.28 374.267 279.89 374.463C261.668 383.415 239.445 376.536 229.542 358.583C220.101 341.458 225.175 320.212 240.665 309.064C241.909 308.186 243.202 307.356 244.568 306.6C245.056 306.332 245.544 306.064 246.056 305.82C246.544 305.576 247.032 305.356 247.52 305.137C249.008 304.478 250.544 303.917 252.081 303.453C254.374 302.77 256.691 302.307 259.009 302.063C266.205 301.307 273.474 302.624 279.89 305.771C286.72 309.113 292.598 314.504 296.55 321.651C306.503 339.653 300.38 362.193 282.963 372.779Z" fill="#FFB93E"/>
<path d="M263.326 374.804C260.131 374.804 256.911 374.341 253.74 373.438C244.934 370.901 237.665 365.071 233.249 357.046C228.834 349.02 227.785 339.775 230.347 330.969C232.884 322.163 238.714 314.894 246.739 310.479C263.302 301.356 284.183 307.405 293.306 323.944C302.429 340.507 296.379 361.388 279.841 370.511C274.694 373.365 269.034 374.804 263.326 374.804ZM263.229 307.161C257.789 307.161 252.276 308.503 247.178 311.308C239.372 315.601 233.713 322.7 231.249 331.238C228.785 339.8 229.786 348.801 234.079 356.607C238.372 364.413 245.47 370.072 254.008 372.535C262.57 374.999 271.571 373.999 279.377 369.706C295.477 360.827 301.356 340.507 292.476 324.383C286.427 313.406 274.986 307.161 263.229 307.161Z" fill="#FFA412"/>
<path d="M280.134 343.849C280.06 343.654 279.987 343.483 279.89 343.288C279.28 341.922 278.499 340.824 277.572 339.97C276.523 339.019 275.304 338.287 273.913 337.824C272.523 337.36 270.986 337.068 269.278 336.946C267.571 336.848 265.717 336.824 263.692 336.872C262.448 336.921 261.399 336.897 260.521 336.799C259.643 336.726 258.887 336.555 258.277 336.311C257.667 336.067 257.155 335.726 256.789 335.287C256.399 334.848 256.082 334.335 255.838 333.726C255.594 333.116 255.447 332.506 255.399 331.896C255.35 331.286 255.447 330.725 255.667 330.164C255.886 329.628 256.252 329.115 256.74 328.652C257.228 328.188 257.887 327.798 258.692 327.457C260.18 326.847 261.57 326.871 262.863 327.505C264.156 328.14 265.205 329.457 266.034 331.457L273.84 328.286C273.157 326.627 272.303 325.212 271.279 324.066C270.254 322.919 269.108 322.017 267.815 321.407C266.546 320.773 265.132 320.407 263.619 320.309C262.107 320.212 260.546 320.358 258.911 320.797L256.716 315.357L252.398 317.114L254.569 322.48C253.008 323.285 251.691 324.237 250.618 325.31C249.544 326.383 248.69 327.554 248.129 328.798C247.544 330.042 247.251 331.359 247.202 332.725C247.178 334.092 247.446 335.506 248.032 336.921C248.69 338.556 249.544 339.848 250.593 340.8C251.642 341.751 252.862 342.458 254.252 342.946C255.643 343.41 257.179 343.703 258.887 343.8C260.594 343.898 262.473 343.898 264.473 343.8C265.644 343.727 266.644 343.751 267.522 343.824C268.376 343.898 269.132 344.068 269.742 344.312C270.376 344.556 270.888 344.922 271.303 345.361C271.718 345.825 272.059 346.386 272.352 347.093C272.596 347.703 272.718 348.337 272.718 348.947C272.718 349.557 272.572 350.142 272.303 350.703C272.035 351.264 271.62 351.777 271.059 352.265C270.498 352.752 269.815 353.143 268.961 353.484C268.23 353.777 267.473 353.972 266.668 354.07C265.888 354.167 265.107 354.094 264.351 353.85C263.595 353.606 262.887 353.143 262.253 352.484C261.595 351.826 261.033 350.899 260.546 349.728L252.764 352.899C253.569 354.899 254.594 356.485 255.838 357.656C257.057 358.826 258.423 359.68 259.887 360.168C261.351 360.68 262.887 360.9 264.473 360.827C266.059 360.753 267.644 360.51 269.205 360.046L271.206 364.998L275.499 363.266L273.474 358.29C275.035 357.485 276.377 356.558 277.475 355.485C278.499 354.509 279.304 353.46 279.89 352.338C279.938 352.24 279.987 352.167 280.036 352.069C280.621 350.85 280.939 349.533 280.987 348.167C281.012 346.727 280.743 345.312 280.134 343.849Z" fill="#FFA412"/>
<path d="M600.784 380H16.4655C16.0996 380 15.7825 379.707 15.7825 379.317V379.048C15.7825 378.683 16.0752 378.365 16.4655 378.365H600.76C601.126 378.365 601.443 378.658 601.443 379.048V379.317C601.467 379.683 601.15 380 600.784 380Z" fill="#2E3552"/>
<path d="M419.883 233.615C419.883 233.615 418.029 233.664 416.639 232.835C415.248 232.005 413.785 231.469 414.273 231.103C414.76 230.737 415.029 230.932 415.785 231.225C416.566 231.518 418.81 231.615 419.542 230.81C420.273 230.03 419.883 233.615 419.883 233.615Z" fill="#FFB27D"/>
</g>
<defs>
<clipPath id="clip0">
<rect width="611.078" height="380" fill="white"/>
</clipPath>
</defs>
</svg>
