<svg width="65" height="65" viewBox="0 0 65 65" fill="none" xmlns="http://www.w3.org/2000/svg">
<g clip-path="url(#clip0)">
<path d="M59.5363 24.9875L51.1538 22.1125C48.7438 21.2875 46.9613 19.4975 46.3863 17.3238L44.3863 9.76751C42.9388 4.29626 34.815 2.62626 30.6363 6.94001L24.875 12.905C23.2175 14.6188 20.6825 15.5213 18.1 15.3188L9.11253 14.6163C2.61253 14.1075 -1.75372 20.2275 1.73753 24.9713L6.55503 31.5238C7.94003 33.4075 8.15753 35.7563 7.13503 37.8038L3.58128 44.9288C1.00003 50.0838 6.43253 55.5363 12.7638 54.1538L21.5138 52.2438C24.0275 51.695 26.695 52.2438 28.6475 53.71L35.4375 58.8138C40.3525 62.5088 48.0625 59.76 48.4938 54.1613L49.0813 46.4288C49.25 44.2038 50.6813 42.195 52.91 41.0538L60.66 37.0863C66.265 34.2163 65.6038 27.065 59.5363 24.9875ZM20.5 32.5C19.7089 32.5 18.9355 32.2654 18.2778 31.8259C17.62 31.3864 17.1073 30.7616 16.8045 30.0307C16.5018 29.2998 16.4225 28.4956 16.5769 27.7196C16.7312 26.9437 17.1122 26.231 17.6716 25.6716C18.231 25.1122 18.9437 24.7312 19.7197 24.5769C20.4956 24.4225 21.2999 24.5017 22.0308 24.8045C22.7617 25.1072 23.3864 25.6199 23.8259 26.2777C24.2654 26.9355 24.5 27.7089 24.5 28.5C24.5 29.5609 24.0786 30.5783 23.3285 31.3284C22.5783 32.0786 21.5609 32.5 20.5 32.5ZM36.5 44.5C35.7089 44.5 34.9355 44.2654 34.2777 43.8259C33.62 43.3864 33.1073 42.7616 32.8045 42.0307C32.5018 41.2998 32.4225 40.4956 32.5769 39.7196C32.7312 38.9437 33.1122 38.231 33.6716 37.6716C34.231 37.1122 34.9437 36.7312 35.7197 36.5769C36.4956 36.4225 37.2999 36.5017 38.0308 36.8045C38.7617 37.1072 39.3864 37.6199 39.8259 38.2777C40.2654 38.9355 40.5 39.7089 40.5 40.5C40.5 41.5609 40.0786 42.5783 39.3285 43.3284C38.5783 44.0786 37.5609 44.5 36.5 44.5ZM38.5 28.5C38.1045 28.5 37.7178 28.3827 37.3889 28.1629C37.06 27.9432 36.8036 27.6308 36.6523 27.2654C36.5009 26.8999 36.4613 26.4978 36.5385 26.1098C36.6156 25.7219 36.8061 25.3655 37.0858 25.0858C37.3655 24.8061 37.7219 24.6156 38.1098 24.5384C38.4978 24.4613 38.8999 24.5009 39.2654 24.6522C39.6308 24.8036 39.9432 25.06 40.163 25.3889C40.3827 25.7178 40.5 26.1044 40.5 26.5C40.5 27.0304 40.2893 27.5391 39.9142 27.9142C39.5392 28.2893 39.0305 28.5 38.5 28.5Z" fill="#801FBC"/>
</g>
<defs>
<clipPath id="clip0">
<rect width="64" height="64" fill="white" transform="translate(0.5 0.5)"/>
</clipPath>
</defs>
</svg>
