<svg width="64" height="64" viewBox="0 0 64 64" fill="none" xmlns="http://www.w3.org/2000/svg">
<path d="M32 0C14.3269 0 0 14.3269 0 32C0 49.6731 14.3269 64 32 64C49.6731 64 64 49.6731 64 32C64 14.3269 49.6731 0 32 0ZM15.8711 13.5195L21.5664 15.3086C22.3204 15.5562 22.8226 16.2564 22.9101 16.9726L23.2305 20.1093L49.0195 22.9882C50.1269 23.2027 50.905 24.2025 50.75 25.2303L49.1484 34.2537C48.9446 35.1975 48.1629 35.8445 47.293 35.8553H24.3828L23.9336 38.4139H45.6914C46.8291 38.4539 47.6625 39.3203 47.6758 40.3318C47.6286 41.4859 46.6985 42.2412 45.6914 42.2537H21.6289C20.4153 42.1533 19.5243 41.1916 19.7109 40.0154L20.7343 34.3826L19.1328 18.6367L14.7187 17.2305C14.2067 17.0598 13.8224 16.7388 13.5664 16.2695C13.082 15.2545 13.5345 14.1306 14.3985 13.6445C14.8916 13.3882 15.3732 13.3562 15.8711 13.5195ZM24.543 43.3594C26.1998 43.3594 27.543 44.7025 27.543 46.3594C27.543 48.0162 26.1998 49.3594 24.543 49.3594C22.8862 49.3594 21.543 48.0162 21.543 46.3594C21.543 44.7025 22.8861 43.3594 24.543 43.3594ZM42.1523 43.3594C43.8091 43.3594 45.1523 44.7025 45.1523 46.3594C45.1523 48.0162 43.8091 49.3594 42.1523 49.3594C40.4955 49.3594 39.1523 48.0162 39.1523 46.3594C39.1523 44.7025 40.4955 43.3594 42.1523 43.3594Z" fill="#801FBC"/>
</svg>
