<svg width="69" height="64" viewBox="0 0 69 64" fill="none" xmlns="http://www.w3.org/2000/svg">
<path fill-rule="evenodd" clip-rule="evenodd" d="M55.4176 9.48143C55.4173 10.7319 55.0462 11.9542 54.3512 12.9937C53.6563 14.0332 52.6686 14.8433 51.5133 15.3216C50.3579 15.7998 49.0866 15.9247 47.8603 15.6804C46.6339 15.4362 45.5075 14.8338 44.6235 13.9493C43.7395 13.0649 43.1377 11.9382 42.894 10.7117C42.6504 9.48525 42.7759 8.21407 43.2547 7.05892C43.7335 5.90378 44.5441 4.91656 45.584 4.22211C46.6239 3.52765 47.8464 3.15716 49.0968 3.15747C52.5891 3.15747 55.4176 5.98919 55.4176 9.48143ZM42.3099 13.4367H40.5716C39.151 13.4367 34.7644 16.0187 34.7644 21.0374C34.7644 27.6964 39.151 30.4001 40.5716 30.4001V61.4163C40.5737 62.1009 40.8466 62.7568 41.3307 63.2409C41.8147 63.725 42.4707 63.9978 43.1553 63.9999H43.1853C43.8696 63.9974 44.5251 63.7244 45.0089 63.2403C45.4926 62.7563 45.7653 62.1006 45.7673 61.4163V43.0038H52.4832V61.4163C52.4853 62.1009 52.7581 62.7568 53.2422 63.2409C53.7263 63.725 54.3822 63.9978 55.0668 63.9999H55.0984C55.7827 63.9974 56.4383 63.7244 56.922 63.2403C57.4057 62.7563 57.6784 62.1006 57.6805 61.4163V22.4849L61.1332 32.3817C61.3402 32.9753 61.7746 33.4624 62.3408 33.7358C62.907 34.0092 63.5585 34.0465 64.1522 33.8394C64.7458 33.6324 65.2329 33.198 65.5063 32.6318C65.7797 32.0657 65.8169 31.4141 65.6099 30.8205L60.4679 16.0867C60.1978 15.3129 59.6938 14.6424 59.0256 14.1678C58.3574 13.6933 57.5582 13.4384 56.7387 13.4383H55.9881C55.2939 14.6373 54.2966 15.6327 53.0962 16.3244C51.8957 17.0162 50.5344 17.38 49.149 17.3793C47.7633 17.3798 46.4019 17.0158 45.2015 16.3237C44.001 15.6317 43.0038 14.636 42.3099 13.4367ZM63.3708 34.7615C62.1135 34.7615 60.9077 35.2609 60.0187 36.15C59.1296 37.039 58.6302 38.2448 58.6302 39.5021V40.5561C58.6302 40.9752 58.7967 41.3771 59.093 41.6734C59.3893 41.9698 59.7913 42.1363 60.2104 42.1363C60.6295 42.1363 61.0314 41.9698 61.3277 41.6734C61.6241 41.3771 61.7906 40.9752 61.7906 40.5561V39.5021C61.7906 39.083 61.9571 38.681 62.2534 38.3847C62.5497 38.0884 62.9517 37.9219 63.3708 37.9219C63.7899 37.9219 64.1918 38.0884 64.4881 38.3847C64.7845 38.681 64.951 39.083 64.951 39.5021V61.6249C64.951 62.044 65.1175 62.4459 65.4138 62.7422C65.7101 63.0386 66.1121 63.2051 66.5312 63.2051C66.9503 63.2051 67.3522 63.0386 67.6485 62.7422C67.9449 62.4459 68.1114 62.044 68.1114 61.6249V39.5021C68.1114 38.2448 67.6119 37.039 66.7229 36.15C65.8338 35.2609 64.6281 34.7615 63.3708 34.7615Z" fill="#801FBC"/>
<path fill-rule="evenodd" clip-rule="evenodd" d="M17.545 3.15755C17.545 3.43883 17.5086 3.7122 17.4391 3.97294C18.6599 4.66164 19.6172 5.73647 20.1605 7.0285C20.7039 8.32052 20.8025 9.75648 20.4409 11.1107C20.0793 12.4648 19.2779 13.6605 18.1628 14.5096C17.0476 15.3587 15.6819 15.8132 14.2803 15.8016C12.8787 15.7901 11.5207 15.3131 10.4198 14.4456C9.31881 13.5782 8.5373 12.3695 8.1981 11.0095C7.8589 9.64956 7.98123 8.21543 8.54586 6.93256C9.1105 5.64969 10.0854 4.59081 11.3174 3.92237C11.2095 3.48826 11.1951 3.03619 11.275 2.59607C11.3548 2.15595 11.5272 1.7378 11.7807 1.36926C12.0342 1.00072 12.3631 0.690201 12.7456 0.458222C13.128 0.226243 13.5553 0.0780928 13.9993 0.0235676C14.4433 -0.0309576 14.8938 0.00938416 15.321 0.141926C15.7482 0.274467 16.1425 0.496188 16.4776 0.79243C16.8128 1.08867 17.0812 1.45268 17.2652 1.8604C17.4492 2.26812 17.5446 2.71024 17.545 3.15755ZM7.54546 13.4368H5.80724C4.38664 13.4368 0 16.0188 0 21.0375C0 27.6807 4.36451 30.3876 5.79617 30.4002L1.7319 47.7429H5.80882V61.4164C5.8109 62.1007 6.08355 62.7564 6.56728 63.2404C7.05102 63.7244 7.70656 63.9975 8.39086 64C9.07517 63.9975 9.73071 63.7244 10.2144 63.2404C10.6982 62.7564 10.9708 62.1007 10.9729 61.4164V47.7445H17.7204V61.4164C17.7224 62.1007 17.9951 62.7564 18.4788 63.2404C18.9626 63.7244 19.6181 63.9975 20.3024 64C20.987 63.9979 21.6429 63.725 22.127 63.241C22.6111 62.7569 22.884 62.101 22.886 61.4164V47.7429H27.0989L22.886 29.765V21.1244L28.0249 32.5714C28.1503 32.8584 28.3314 33.1177 28.5576 33.3343C28.7838 33.5509 29.0508 33.7205 29.3429 33.8333C29.6351 33.9461 29.9468 33.9999 30.2599 33.9916C30.573 33.9833 30.8813 33.913 31.1671 33.7847C31.4528 33.6565 31.7103 33.473 31.9247 33.2446C32.1391 33.0163 32.3061 32.7477 32.4161 32.4545C32.5261 32.1612 32.5769 31.8491 32.5655 31.5361C32.5541 31.2231 32.4808 30.9154 32.3499 30.6309L25.6783 15.7707C25.3663 15.0758 24.86 14.486 24.2205 14.0722C23.581 13.6583 22.8355 13.4382 22.0738 13.4383H21.2237C20.5295 14.6374 19.5322 15.6328 18.3318 16.3245C17.1313 17.0163 15.77 17.38 14.3846 17.3794C12.9989 17.3799 11.6375 17.0159 10.4371 16.3238C9.23664 15.6318 8.23938 14.6361 7.54546 13.4368ZM27.0262 39.5022C27.0262 38.2449 27.5256 37.0391 28.4147 36.15C29.3037 35.261 30.5095 34.7616 31.7668 34.7616C33.0241 34.7616 34.2298 35.261 35.1189 36.15C36.0079 37.0391 36.5074 38.2449 36.5074 39.5022V61.625C36.5074 62.0441 36.3409 62.446 36.0445 62.7423C35.7482 63.0387 35.3463 63.2052 34.9272 63.2052C34.5081 63.2052 34.1061 63.0387 33.8098 62.7423C33.5135 62.446 33.347 62.0441 33.347 61.625V39.5022C33.347 39.0831 33.1805 38.6811 32.8841 38.3848C32.5878 38.0884 32.1859 37.922 31.7668 37.922C31.3477 37.922 30.9457 38.0884 30.6494 38.3848C30.353 38.6811 30.1866 39.0831 30.1866 39.5022V40.5562C30.1866 40.9752 30.0201 41.3772 29.7237 41.6735C29.4274 41.9699 29.0255 42.1364 28.6064 42.1364C28.1873 42.1364 27.7853 41.9699 27.489 41.6735C27.1926 41.3772 27.0262 40.9752 27.0262 40.5562V39.5022Z" fill="#801FBC"/>
</svg>
