<svg width="64" height="64" viewBox="0 0 64 64" fill="none" xmlns="http://www.w3.org/2000/svg">
<path d="M32.0019 64C14.3564 64 0.00195312 49.6437 0.00195312 32C0.00195312 14.3563 14.3564 0 32.0019 0C49.6456 0 63.9983 14.3563 63.9983 32C63.9983 49.6437 49.6456 64 32.0019 64ZM32.0019 2.77184C15.8846 2.77184 2.7738 15.8827 2.7738 32C2.7738 48.1173 15.8865 61.2282 32.0019 61.2282C48.1174 61.2282 61.2264 48.1155 61.2264 32C61.2264 15.8845 48.1174 2.77184 32.0019 2.77184Z" fill="#801FBC"/>
<path d="M12.5731 34.0474C12.6633 34.0472 12.7515 34.0203 12.8265 33.9702C12.9015 33.92 12.96 33.8488 12.9948 33.7656C13.0295 33.6823 13.0389 33.5906 13.0217 33.502C13.0046 33.4135 12.9616 33.3319 12.8983 33.2676C12.1509 32.5222 11.5586 31.6361 11.1555 30.6605C10.7524 29.6849 10.5465 28.6391 10.5497 27.5835C10.5497 25.4344 11.3831 23.4165 12.8965 21.9031C12.9829 21.8167 13.0317 21.6998 13.0324 21.5777C13.0331 21.4556 12.9856 21.3381 12.9002 21.2508C12.8117 21.1688 12.6956 21.1233 12.575 21.1233C12.4544 21.1233 12.3382 21.1688 12.2497 21.2508C11.4168 22.0811 10.7566 23.0682 10.3075 24.1552C9.85839 25.2422 9.62917 26.4074 9.63311 27.5835C9.62982 28.7592 9.85934 29.924 10.3084 31.0106C10.7575 32.0972 11.4173 33.0841 12.2497 33.9144C12.2922 33.9567 12.3427 33.9903 12.3982 34.0131C12.4537 34.0359 12.5131 34.0476 12.5731 34.0474Z" fill="#801FBC"/>
<path d="M13.5839 32.5785C13.6705 32.6642 13.7874 32.7123 13.9092 32.7123C14.031 32.7123 14.1479 32.6642 14.2344 32.5785C14.277 32.5357 14.3106 32.485 14.3335 32.4292C14.3563 32.3733 14.3679 32.3135 14.3675 32.2532C14.3679 32.1932 14.3564 32.1336 14.3336 32.0781C14.3107 32.0226 14.277 31.9722 14.2344 31.9298C13.6615 31.3607 13.2073 30.6834 12.8984 29.9373C12.5894 29.1912 12.4317 28.3911 12.4346 27.5836C12.4346 25.9371 13.0739 24.3941 14.2344 23.2336C14.3187 23.1468 14.3659 23.0304 14.3659 22.9093C14.3659 22.7883 14.3187 22.6719 14.2344 22.585C14.1477 22.4997 14.0309 22.4519 13.9092 22.4519C13.7875 22.4519 13.6707 22.4997 13.5839 22.585C12.2614 23.9117 11.5188 25.7085 11.5188 27.5817C11.5188 29.455 12.2614 31.2518 13.5839 32.5785Z" fill="#801FBC"/>
<path d="M14.9178 31.2419C15.0047 31.3306 15.1192 31.3786 15.2431 31.3786C15.3669 31.3786 15.4814 31.3306 15.5664 31.2437C15.6102 31.2014 15.6447 31.1505 15.6679 31.0942C15.6911 31.038 15.7025 30.9775 15.7013 30.9167C15.7017 30.8572 15.6902 30.7982 15.6673 30.7433C15.6444 30.6884 15.6108 30.6386 15.5683 30.597C15.1719 30.2018 14.8578 29.7319 14.644 29.2146C14.4302 28.6973 14.321 28.1428 14.3228 27.5831C14.3228 26.4429 14.7645 25.373 15.5701 24.5673C15.6541 24.4806 15.7012 24.3646 15.7013 24.2439C15.702 24.1841 15.6905 24.1248 15.6677 24.0696C15.6448 24.0143 15.611 23.9642 15.5683 23.9224C15.4813 23.8377 15.3648 23.7901 15.2434 23.7898C15.122 23.7895 15.0053 23.8363 14.9178 23.9205C13.944 24.8962 13.4062 26.1971 13.4062 27.5812C13.4062 28.9653 13.944 30.2662 14.9178 31.2419Z" fill="#801FBC"/>
<path d="M53.4506 27.5817C53.4543 28.6366 53.2488 29.6819 52.846 30.6569C52.4432 31.6319 51.851 32.5174 51.1037 33.2621C51.0605 33.3046 51.0261 33.3552 51.0026 33.4111C50.979 33.4669 50.9667 33.5269 50.9663 33.5875C50.966 33.6481 50.9776 33.7082 51.0006 33.7643C51.0235 33.8204 51.0573 33.8714 51.1 33.9144C51.1866 34.0002 51.3034 34.0483 51.4253 34.0483C51.5471 34.0483 51.664 34.0002 51.7505 33.9144C52.5835 33.0841 53.2436 32.0969 53.6927 31.01C54.1418 29.923 54.3711 28.7578 54.3671 27.5817C54.3704 26.4059 54.1409 25.2412 53.6918 24.1546C53.2427 23.068 52.5829 22.0811 51.7505 21.2508C51.662 21.1688 51.5459 21.1233 51.4253 21.1233C51.3047 21.1233 51.1885 21.1688 51.1 21.2508C51.0148 21.3372 50.9671 21.4537 50.9671 21.5751C50.9671 21.6964 51.0148 21.8129 51.1 21.8994C51.8481 22.644 52.4411 23.5297 52.8445 24.5051C53.248 25.4804 53.454 26.5261 53.4506 27.5817Z" fill="#801FBC"/>
<path d="M51.5655 27.5816C51.5655 29.2281 50.9261 30.7711 49.7657 31.9315C49.6813 32.0184 49.6342 32.1347 49.6342 32.2558C49.6342 32.3769 49.6813 32.4932 49.7657 32.5801C49.8522 32.6659 49.9691 32.714 50.0909 32.714C50.2127 32.714 50.3296 32.6659 50.4161 32.5801C51.7385 31.2538 52.4811 29.4573 52.4811 27.5844C52.4811 25.7114 51.7385 23.9149 50.4161 22.5886C50.3524 22.5231 50.2705 22.4782 50.1809 22.4598C50.0914 22.4414 49.9984 22.4503 49.914 22.4853C49.8296 22.5204 49.7577 22.5799 49.7075 22.6563C49.6573 22.7327 49.6312 22.8224 49.6326 22.9138C49.6326 23.0395 49.6844 23.1596 49.7657 23.2372C50.9261 24.394 51.5655 25.9388 51.5655 27.5816Z" fill="#801FBC"/>
<path d="M48.2986 30.9206C48.2986 31.0445 48.3466 31.1609 48.4316 31.2422C48.474 31.2854 48.5245 31.3198 48.5803 31.3434C48.636 31.3669 48.6959 31.3791 48.7565 31.3793C48.817 31.3795 48.877 31.3676 48.9329 31.3444C48.9888 31.3211 49.0395 31.287 49.0821 31.244C50.0559 30.2683 50.5937 28.9693 50.5937 27.5852C50.5937 26.2011 50.0559 24.9002 49.0821 23.9264C48.9954 23.8418 48.8792 23.7943 48.7582 23.7939C48.6371 23.7936 48.5206 23.8404 48.4335 23.9245C48.3448 24.0114 48.2986 24.1259 48.2986 24.2497C48.2986 24.3736 48.3448 24.4881 48.4316 24.575C49.2355 25.377 49.6771 26.4469 49.6771 27.587C49.6789 28.1465 49.5698 28.7008 49.356 29.2178C49.1422 29.7348 48.828 30.2043 48.4316 30.5991C48.3893 30.6413 48.3558 30.6914 48.333 30.7466C48.3102 30.8018 48.2985 30.8609 48.2986 30.9206Z" fill="#801FBC"/>
<path d="M51.3345 47.4891H46.3397V16.9009H28.6978V47.4891H24.4957V41.6368H27.1142V19.682H18.3201V47.4891H11.7508C11.6283 47.4891 11.5108 47.5378 11.4241 47.6244C11.3375 47.711 11.2888 47.8285 11.2888 47.9511C11.2888 48.0736 11.3375 48.1911 11.4241 48.2777C11.5108 48.3644 11.6283 48.413 11.7508 48.413H51.3345C51.4571 48.413 51.5746 48.3644 51.6612 48.2777C51.7478 48.1911 51.7965 48.0736 51.7965 47.9511C51.7965 47.8285 51.7478 47.711 51.6612 47.6244C51.5746 47.5378 51.4571 47.4891 51.3345 47.4891ZM21.5151 23.0137H25.2275V26.7261H21.5151V23.0137ZM21.5151 28.9787H25.2275V32.6911H21.5151V28.9787ZM21.5151 34.9437H25.2275V38.6561H21.5151V34.9437ZM38.7578 20.5597H42.8342V24.638H38.7578V20.5597ZM38.7578 27.1123H42.8342V31.1906H38.7578V27.1123ZM38.7578 33.665H42.8342V37.7433H38.7578V33.665ZM32.2051 20.5597H36.2816V24.638H32.2051V20.5597ZM32.2051 27.1123H36.2816V31.1906H32.2051V27.1123ZM32.2051 33.665H36.2816V37.7433H32.2051V33.665ZM35.4815 41.0178H39.5579V47.4891H35.4815V41.0178Z" fill="#801FBC"/>
</svg>
