<svg width="68" height="64" viewBox="0 0 68 64" fill="none" xmlns="http://www.w3.org/2000/svg">
<path d="M45.0626 0H34.0001C33.3715 0 32.7686 0.249735 32.324 0.694265C31.8795 1.1388 31.6298 1.74171 31.6298 2.37037V11.9822C20.9631 13.1603 12.6668 22.2033 12.6668 33.1852H7.92605C6.04007 33.1852 4.23133 33.9344 2.89774 35.268C1.56415 36.6016 0.814941 38.4103 0.814941 40.2963V61.6296C0.814941 62.2583 1.06468 62.8612 1.50921 63.3057C1.95374 63.7503 2.55665 64 3.18531 64H26.889V54.5185C26.889 53.8899 27.1388 53.2869 27.5833 52.8424C28.0278 52.3979 28.6307 52.1481 29.2594 52.1481H38.7409C39.3695 52.1481 39.9724 52.3979 40.417 52.8424C40.8615 53.2869 41.1112 53.8899 41.1112 54.5185V64H64.8149C65.4436 64 66.0465 63.7503 66.4911 63.3057C66.9356 62.8612 67.1853 62.2583 67.1853 61.6296V40.2963C67.1853 38.4103 66.4361 36.6016 65.1025 35.268C63.7689 33.9344 61.9602 33.1852 60.0742 33.1852H55.3335C55.3335 22.2033 47.0372 13.1603 36.3705 11.9822V9.48148H45.0626C45.482 9.48148 45.8841 9.31491 46.1806 9.01841C46.4771 8.7219 46.6437 8.31976 46.6437 7.90044V1.58104C46.6437 1.16172 46.4771 0.759577 46.1806 0.463075C45.8841 0.166573 45.482 0 45.0626 0ZM24.5186 26.0741C25.1473 26.0741 25.7502 26.3238 26.1947 26.7683C26.6393 27.2129 26.889 27.8158 26.889 28.4444V35.5556C26.889 36.1842 26.6393 36.7871 26.1947 37.2317C25.7502 37.6762 25.1473 37.9259 24.5186 37.9259C23.89 37.9259 23.2871 37.6762 22.8425 37.2317C22.398 36.7871 22.1483 36.1842 22.1483 35.5556V28.4444C22.1483 27.8158 22.398 27.2129 22.8425 26.7683C23.2871 26.3238 23.89 26.0741 24.5186 26.0741ZM43.4816 26.0741C44.1103 26.0741 44.7132 26.3238 45.1577 26.7683C45.6022 27.2129 45.852 27.8158 45.852 28.4444V35.5556C45.852 36.1842 45.6022 36.7871 45.1577 37.2317C44.7132 37.6762 44.1103 37.9259 43.4816 37.9259C42.8529 37.9259 42.25 37.6762 41.8055 37.2317C41.361 36.7871 41.1112 36.1842 41.1112 35.5556V28.4444C41.1112 27.8158 41.361 27.2129 41.8055 26.7683C42.25 26.3238 42.8529 26.0741 43.4816 26.0741ZM36.3705 28.4444V35.5556C36.3705 36.1842 36.1208 36.7871 35.6762 37.2317C35.2317 37.6762 34.6288 37.9259 34.0001 37.9259C33.3715 37.9259 32.7686 37.6762 32.324 37.2317C31.8795 36.7871 31.6298 36.1842 31.6298 35.5556V28.4444C31.6298 27.8158 31.8795 27.2129 32.324 26.7683C32.7686 26.3238 33.3715 26.0741 34.0001 26.0741C34.6288 26.0741 35.2317 26.3238 35.6762 26.7683C36.1208 27.2129 36.3705 27.8158 36.3705 28.4444ZM15.0372 42.6667C15.6658 42.6667 16.2687 42.9164 16.7133 43.3609C17.1578 43.8055 17.4075 44.4084 17.4075 45.037V52.1481C17.4075 52.7768 17.1578 53.3797 16.7133 53.8243C16.2687 54.2688 15.6658 54.5185 15.0372 54.5185C14.4085 54.5185 13.8056 54.2688 13.3611 53.8243C12.9165 53.3797 12.6668 52.7768 12.6668 52.1481V45.037C12.6668 44.4084 12.9165 43.8055 13.3611 43.3609C13.8056 42.9164 14.4085 42.6667 15.0372 42.6667ZM52.9631 42.6667C53.5918 42.6667 54.1947 42.9164 54.6392 43.3609C55.0837 43.8055 55.3335 44.4084 55.3335 45.037V52.1481C55.3335 52.7768 55.0837 53.3797 54.6392 53.8243C54.1947 54.2688 53.5918 54.5185 52.9631 54.5185C52.3344 54.5185 51.7315 54.2688 51.287 53.8243C50.8425 53.3797 50.5927 52.7768 50.5927 52.1481V45.037C50.5927 44.4084 50.8425 43.8055 51.287 43.3609C51.7315 42.9164 52.3344 42.6667 52.9631 42.6667Z" fill="#801FBC"/>
</svg>
