<svg width="585" height="378" viewBox="0 0 585 378" fill="none" xmlns="http://www.w3.org/2000/svg">
<g clip-path="url(#clip0)">
<path d="M287.017 374.591C287.017 374.591 88.6833 376.918 33.4389 324.785C-21.8056 272.678 -1.00102 220.734 41.2846 206.017C83.5972 191.3 90.7936 175.987 68.0411 155.345C45.2886 134.702 16.3677 92.3086 64.3617 49.7255C112.356 7.14231 167.14 68.3116 210.021 60.1954C252.929 52.0792 235.939 24.7275 292.347 43.6112C348.754 62.495 336.337 7.49401 381.679 2.51606C427.022 -2.4619 422.396 59.7355 469.037 36.2525C515.678 12.7696 553.852 16.0161 573.899 53.2966C593.946 90.5772 585.234 140.817 541.245 170.738C497.255 200.66 501.962 198.631 518.411 228.039C534.86 257.447 549.604 354.165 474.746 367.99C399.887 381.788 287.017 374.591 287.017 374.591Z" fill="#D0E5F3"/>
<path d="M103.563 127.939C99.5049 156.589 82.7043 324.352 237.292 368.396C237.292 368.396 276.763 260.802 107.513 126.37C106.025 125.179 103.807 126.072 103.563 127.939Z" fill="#B4D4E9"/>
<path d="M118.28 153.289C120.418 162.893 122.988 172.416 125.72 181.858C128.48 191.3 131.483 200.687 134.702 209.994C141.168 228.58 148.527 246.869 157.049 264.616C165.571 282.337 175.256 299.543 186.619 315.559C189.46 319.563 192.408 323.513 195.466 327.328C198.55 331.142 201.715 334.903 205.043 338.501C208.37 342.099 211.779 345.616 215.377 348.944C218.976 352.272 222.682 355.464 226.524 358.494C226.984 358.846 227.065 359.495 226.713 359.955C226.361 360.415 225.712 360.496 225.252 360.144C221.356 357.06 217.623 353.814 213.998 350.432C210.372 347.05 206.937 343.479 203.609 339.827C200.254 336.174 197.089 332.36 194.032 328.491C190.948 324.622 187.999 320.645 185.158 316.587C173.795 300.382 164.164 283.067 155.696 265.239C147.228 247.41 139.951 229.04 133.566 210.373C130.373 201.039 127.425 191.624 124.719 182.128C122.014 172.632 119.498 163.109 117.387 153.451C117.333 153.207 117.496 152.991 117.712 152.937C117.983 152.91 118.226 153.045 118.28 153.289Z" fill="#BDD0FB"/>
<path d="M348.674 364.446C348.674 364.446 281.228 153.532 505.858 42.2585C509.591 40.3918 515.652 44.8557 515.814 49.6172C517.491 93.8507 511.296 253.308 348.674 364.446Z" fill="#B4D4E9"/>
<path d="M486.217 99.992C475.936 119.119 465.602 138.192 455.186 157.239L447.34 171.523L439.44 185.754L431.486 199.957C428.835 204.691 426.13 209.399 423.451 214.133C412.711 232.99 401.97 251.874 390.878 270.541C379.84 289.236 368.667 307.849 356.952 326.137C356.844 326.327 356.601 326.381 356.411 326.246C356.222 326.137 356.168 325.894 356.276 325.732L364.69 311.799L372.995 297.812C375.755 293.158 378.487 288.451 381.22 283.771L385.332 276.737L389.39 269.675L405.595 241.458C410.952 232.016 416.336 222.601 421.666 213.132L453.644 156.427C464.303 137.516 474.935 118.605 485.459 99.6133C485.567 99.4239 485.811 99.3427 486.027 99.4509C486.244 99.5592 486.325 99.8026 486.217 99.992Z" fill="#91B3FA"/>
<path d="M76.6714 287.233C92.2546 286.097 183.265 283.148 201.959 368.829C201.959 368.829 142.656 386.306 75.6975 289.317C75.1023 288.478 75.6704 287.315 76.6714 287.233Z" fill="#A0C5DD"/>
<path d="M90.0633 295.539C100.019 298.515 109.759 302.086 119.363 305.982C128.967 309.905 138.382 314.261 147.58 319.103C156.752 323.946 165.68 329.33 174.093 335.444C178.287 338.528 182.372 341.747 186.241 345.237C190.109 348.755 193.762 352.461 197.144 356.465C197.522 356.898 197.468 357.574 197.008 357.926C196.575 358.305 195.899 358.25 195.547 357.791C192.274 353.841 188.703 350.161 184.942 346.671C181.155 343.181 177.151 339.962 173.038 336.878C164.76 330.736 155.967 325.326 146.877 320.402C137.787 315.505 128.453 311.068 118.93 307.064C109.407 303.087 99.6946 299.435 89.8469 296.378C89.6034 296.297 89.4952 296.053 89.5493 295.837C89.5764 295.593 89.8198 295.458 90.0633 295.539Z" fill="#91B3FA"/>
<path d="M353.597 374.158C349.485 374.808 346.076 371.074 347.023 367.016C352.326 344.751 372.968 283.148 444.174 248.79C504.316 219.788 534.183 198.334 547.061 187.674C549.794 185.429 553.798 187.945 552.959 191.381C543.571 229.23 502.178 350.621 353.597 374.158Z" fill="#A0C5DD"/>
<path d="M351.595 368.856C351.379 368.856 351.135 368.775 350.946 368.639C350.486 368.288 350.432 367.638 350.784 367.178C350.946 366.989 366.908 347.077 392.717 322.025C416.552 298.894 453.941 266.483 496.632 243.46C497.146 243.189 497.769 243.379 498.039 243.893C498.31 244.407 498.12 245.029 497.606 245.3C455.131 268.215 417.905 300.463 394.178 323.513C368.45 348.484 352.542 368.288 352.38 368.504C352.217 368.72 351.92 368.856 351.595 368.856Z" fill="#BDD0FB"/>
<path d="M332.17 354.706C359.279 342.64 467.766 296.702 546.737 296.621C552.364 296.621 556.205 303.52 552.201 307.686C529.07 331.954 458.648 410.519 332.008 360.334C329.573 359.387 329.708 355.816 332.17 354.706Z" fill="#A0C5DD"/>
<path d="M335.227 358.656C334.659 358.656 334.199 358.196 334.199 357.628C334.199 357.06 334.659 356.573 335.227 356.573C395.666 355.816 441.117 344.805 468.631 335.714C498.391 325.894 514.055 316.127 514.19 316.046C514.677 315.748 515.327 315.884 515.624 316.371C515.922 316.858 515.787 317.507 515.3 317.805C515.137 317.913 499.284 327.788 469.281 337.689C441.631 346.834 395.937 357.872 335.227 358.656C335.255 358.656 335.255 358.656 335.227 358.656Z" fill="#91B3FA"/>
<path d="M196.305 122.041C195.385 164.922 192.463 312.8 193.87 365.203C194.032 370.75 197.82 375.213 202.581 375.403C226.064 376.296 312.096 378.568 350.486 376.701C358.494 376.296 364.852 368.721 365.014 359.36C365.799 314.369 367.584 187.783 363.391 129.806C362.877 122.853 358.223 117.334 352.299 116.63C326.732 113.627 240.322 106.323 207.153 108.839C201.147 109.299 196.467 115.034 196.305 122.041Z" fill="url(#paint0_linear)"/>
<path d="M206.775 135.189C205.503 169.792 201.526 284.934 202.798 327.49C202.987 333.712 207.18 338.744 212.483 339.096C234.37 340.584 308.985 343.885 341.071 340.882C346.861 340.341 351.379 334.876 351.703 328.112C353.327 292.807 358.007 185.618 356.79 143.522C356.6 136.813 352.136 131.321 346.428 130.726C322.756 128.237 243.46 122.339 216.189 124.07C211.076 124.395 206.991 129.21 206.775 135.189Z" fill="url(#paint1_linear)"/>
<path opacity="0.5" d="M254.308 116.333C254.308 117.658 255.174 118.741 256.31 118.795C261.856 119.146 277.467 120.093 284.447 120.58C285.826 120.661 286.909 119.228 286.638 117.631L286.584 117.361C286.395 116.279 285.637 115.467 284.69 115.359C279.983 114.845 265.725 113.438 256.31 113.844C255.201 113.925 254.308 115.007 254.308 116.333Z" fill="white"/>
<path d="M221.357 191.624C222.222 190.813 223.386 190.407 224.549 190.515C237.102 191.651 260.531 185.591 275.817 169.927C276.872 168.845 278.82 169.467 280.037 170.36C297.054 183.075 325.272 185.726 335.065 186.268C337.094 186.376 338.744 187.945 338.934 189.974C347.835 276.006 291.833 307.172 280.199 312.691C278.928 313.287 277.44 313.205 276.249 312.475C218.354 276.412 220.816 229.5 220.031 194.763C220.031 193.572 220.491 192.436 221.357 191.624Z" fill="url(#paint2_linear)"/>
<path opacity="0.59" d="M278.684 306.956C278.332 306.956 277.981 306.848 277.656 306.658C255.364 292.401 240.835 275.357 233.206 254.525C226.416 235.939 226.091 217.055 225.793 200.417L225.766 198.198C225.766 197.684 225.956 197.197 226.307 196.846C226.659 196.467 227.146 196.278 227.66 196.278C241.295 196.278 261.802 190.245 276.817 176.772C277.467 176.203 278.414 176.122 279.117 176.609C295.647 187.566 319.265 190.786 331.873 191.705C332.792 191.787 333.55 192.49 333.631 193.437C336.58 227.146 329.573 255.634 312.772 278.17C300.219 294.998 285.339 303.764 279.523 306.767C279.252 306.902 278.955 306.956 278.684 306.956ZM278.089 177.935C278.008 177.935 277.954 177.962 277.9 178.016C262.56 191.76 241.62 197.928 227.66 197.928C227.552 197.928 227.471 197.982 227.444 198.009C227.417 198.036 227.363 198.117 227.363 198.198L227.39 200.417C227.687 216.947 228.012 235.668 234.694 254.011C242.161 274.491 256.5 291.265 278.495 305.333C278.576 305.387 278.684 305.387 278.792 305.36C284.501 302.411 299.137 293.808 311.474 277.251C328.031 255.066 334.93 226.93 332.008 193.626C332.008 193.491 331.873 193.383 331.737 193.356C318.968 192.409 295.052 189.162 278.224 177.989C278.197 177.935 278.143 177.935 278.089 177.935Z" fill="white"/>
<path d="M248.33 224.549L277.981 284.176L316.1 199.47L276.52 243.325L248.33 224.549Z" fill="url(#paint3_linear)"/>
<path d="M268.377 377.405C264.265 378.595 259.828 377.946 256.23 375.646C252.631 373.347 250.169 369.586 249.52 365.366L247.843 354.03C247.599 352.299 248.79 350.702 250.521 350.432C252.253 350.188 253.849 351.379 254.119 353.11L255.77 364.419C256.148 366.827 257.555 368.991 259.638 370.317C261.722 371.642 264.265 372.021 266.618 371.345C272.57 369.64 276.006 363.418 274.302 357.466L173.038 4.03107C172.551 2.35372 173.525 0.595201 175.202 0.108227C176.88 -0.378747 178.638 0.595201 179.125 2.27256L280.416 355.68C283.094 365.014 277.683 374.753 268.377 377.405Z" fill="#7D97F4"/>
<path d="M42.6372 195.358C73.9929 182.886 104.672 180.64 134.811 186.646L185.781 34.1423C185.781 34.1423 61.1693 60.3847 42.6372 195.358Z" fill="url(#paint4_linear)"/>
<path d="M391.852 95.2846C358.656 101.318 331.44 115.656 309.039 136.704L185.023 34.3587C185.023 34.3587 304.629 -9.38775 391.852 95.2846Z" fill="url(#paint5_linear)"/>
<path d="M185.293 33.8717C185.293 33.8717 116.387 57.7335 135.189 186.538L145.199 180.478C191.002 152.72 243.406 137.705 296.946 136.975L308.633 136.813C256.392 17.6122 185.293 33.8717 185.293 33.8717Z" fill="url(#paint6_linear)"/>
<path d="M192.057 33.5741L179.396 37.1994C179.098 37.2806 178.8 37.1182 178.719 36.8206L178.151 34.8186C178.07 34.521 178.232 34.2234 178.53 34.1423L191.191 30.517C191.489 30.4359 191.786 30.5982 191.868 30.8958L192.436 32.8978C192.517 33.1954 192.355 33.493 192.057 33.5741Z" fill="url(#paint7_linear)"/>
<path d="M44.5851 199.443L43.016 199.47C42.7995 199.47 42.6102 199.308 42.6102 199.064L42.502 193.545C42.502 193.329 42.6643 193.139 42.9078 193.139L44.4769 193.112C44.6933 193.112 44.8827 193.275 44.8827 193.518L44.9909 199.037C44.9909 199.254 44.8015 199.416 44.5851 199.443Z" fill="url(#paint8_linear)"/>
<path d="M135.893 190.542L134.324 190.569C134.107 190.569 133.918 190.407 133.918 190.163L133.81 184.644C133.81 184.428 133.972 184.239 134.216 184.239L135.785 184.211C136.001 184.211 136.191 184.374 136.191 184.617L136.299 190.136C136.299 190.353 136.109 190.542 135.893 190.542Z" fill="url(#paint9_linear)"/>
<path d="M392.366 99.7756L393.718 98.964C393.908 98.8558 393.962 98.6123 393.854 98.3958L391.04 93.6614C390.932 93.472 390.688 93.4179 390.472 93.5261L389.119 94.3377C388.93 94.4459 388.876 94.6894 388.984 94.9059L391.797 99.6403C391.906 99.8027 392.149 99.8838 392.366 99.7756Z" fill="url(#paint10_linear)"/>
<path d="M310.202 140.6L311.555 139.789C311.744 139.68 311.799 139.437 311.69 139.22L308.877 134.486C308.768 134.297 308.525 134.243 308.309 134.351L306.956 135.162C306.766 135.271 306.712 135.514 306.821 135.731L309.634 140.465C309.769 140.654 310.013 140.708 310.202 140.6Z" fill="url(#paint11_linear)"/>
<path d="M470.228 136.299C498.393 136.299 521.225 113.466 521.225 85.3016C521.225 57.1368 498.393 34.3046 470.228 34.3046C442.063 34.3046 419.231 57.1368 419.231 85.3016C419.231 113.466 442.063 136.299 470.228 136.299Z" fill="url(#paint12_linear)"/>
<path d="M505.074 120.165C524.323 100.916 524.323 69.7055 505.074 50.4557C485.824 31.2059 454.614 31.2059 435.364 50.4557C416.114 69.7055 416.114 100.916 435.364 120.165C454.614 139.415 485.824 139.415 505.074 120.165Z" fill="#7D97F4"/>
<path opacity="0.78" d="M424.777 83.4078H424.75C424.452 83.3808 424.235 83.1373 424.263 82.8667C424.371 80.9188 424.587 78.9709 424.939 77.0772C424.993 76.8066 425.264 76.6172 425.534 76.6443C425.805 76.6984 425.994 76.9689 425.967 77.2395C425.642 79.1062 425.426 81 425.318 82.8938C425.291 83.1914 425.074 83.4078 424.777 83.4078Z" fill="white"/>
<path opacity="0.78" d="M429.592 65.3627C429.511 65.3627 429.43 65.3356 429.349 65.3086C429.105 65.1733 428.997 64.8757 429.105 64.6052C436.978 48.995 452.751 39.2825 470.228 39.2825C473.014 39.2825 475.801 39.526 478.533 40.04C478.804 40.0942 478.993 40.3647 478.939 40.6352C478.885 40.9058 478.614 41.1222 478.344 41.041C475.693 40.5541 472.96 40.3106 470.228 40.3106C453.157 40.3106 437.736 49.7795 430.052 65.0651C429.944 65.2545 429.782 65.3627 429.592 65.3627Z" fill="white"/>
<path opacity="0.78" d="M500.803 115.883C517.094 99.5915 517.094 73.1777 500.803 56.8862C484.511 40.5947 458.097 40.5947 441.806 56.8863C425.514 73.1778 425.514 99.5915 441.806 115.883C458.097 132.175 484.511 132.175 500.803 115.883Z" fill="white"/>
<path d="M460.326 68.6634C463.822 68.6634 466.657 65.829 466.657 62.3327C466.657 58.8364 463.822 56.002 460.326 56.002C456.83 56.002 453.995 58.8364 453.995 62.3327C453.995 65.829 456.83 68.6634 460.326 68.6634Z" fill="#1CA61A"/>
<path d="M470.309 91.2535H467.306V70.476H468.848C469.66 70.476 470.309 71.1252 470.309 71.9369V91.2535Z" fill="#1CA61A"/>
<path d="M450.343 91.2535H453.346V70.476H451.804C450.992 70.476 450.343 71.1252 450.343 71.9369V91.2535Z" fill="#1CA61A"/>
<path d="M466.089 70.476H454.51V92.5521H466.089V70.476Z" fill="#1CA61A"/>
<path d="M458.351 116.224H455.808C455.132 116.224 454.618 115.683 454.618 115.034V90.6583H459.569V115.034C459.542 115.683 459.001 116.224 458.351 116.224Z" fill="#1CA61A"/>
<path d="M464.952 116.224H462.409C461.733 116.224 461.219 115.683 461.219 115.034V90.6583H466.17V115.034C466.17 115.683 465.629 116.224 464.952 116.224Z" fill="#1CA61A"/>
<path d="M482.618 68.6634C486.115 68.6634 488.949 65.829 488.949 62.3327C488.949 58.8364 486.115 56.002 482.618 56.002C479.122 56.002 476.288 58.8364 476.288 62.3327C476.288 65.829 479.122 68.6634 482.618 68.6634Z" fill="#1CA61A"/>
<path d="M492.601 91.2535H489.598V70.476H491.14C491.952 70.476 492.601 71.1252 492.601 71.9369V91.2535Z" fill="#1CA61A"/>
<path d="M472.635 91.2535H475.638V70.476H474.096C473.285 70.476 472.635 71.1252 472.635 71.9369V91.2535Z" fill="#1CA61A"/>
<path d="M489.868 102.373H475.259L476.774 70.476H488.353L489.868 102.373Z" fill="#1CA61A"/>
<path d="M480.616 116.224H478.073C477.397 116.224 476.883 115.683 476.883 115.034V90.6583H481.833V115.034C481.833 115.683 481.292 116.224 480.616 116.224Z" fill="#1CA61A"/>
<path d="M487.244 116.224H484.701C484.025 116.224 483.511 115.683 483.511 115.034V90.6583H488.462V115.034C488.435 115.683 487.894 116.224 487.244 116.224Z" fill="#1CA61A"/>
<path d="M530.315 258.664C558.48 258.664 581.312 235.832 581.312 207.667C581.312 179.502 558.48 156.67 530.315 156.67C502.15 156.67 479.318 179.502 479.318 207.667C479.318 235.832 502.15 258.664 530.315 258.664Z" fill="url(#paint13_linear)"/>
<path d="M565.174 242.527C584.423 223.277 584.423 192.067 565.174 172.818C545.924 153.568 514.714 153.568 495.464 172.818C476.214 192.067 476.214 223.277 495.464 242.527C514.714 261.777 545.924 261.777 565.174 242.527Z" fill="#7D97F4"/>
<path opacity="0.78" d="M484.864 205.773H484.837C484.539 205.746 484.323 205.503 484.35 205.232C484.458 203.284 484.674 201.364 485.026 199.443C485.08 199.172 485.351 198.983 485.621 199.01C485.892 199.064 486.081 199.335 486.054 199.605C485.729 201.472 485.486 203.366 485.405 205.259C485.378 205.557 485.161 205.773 484.864 205.773Z" fill="white"/>
<path opacity="0.78" d="M489.679 187.701C489.598 187.701 489.517 187.674 489.436 187.647C489.192 187.512 489.084 187.214 489.192 186.944C497.065 171.334 512.838 161.621 530.315 161.621C533.101 161.621 535.888 161.865 538.62 162.379C538.891 162.433 539.08 162.703 539.026 162.974C538.972 163.244 538.701 163.434 538.431 163.38C535.779 162.893 533.047 162.649 530.315 162.649C513.243 162.649 497.823 172.118 490.139 187.404C490.031 187.593 489.869 187.701 489.679 187.701Z" fill="white"/>
<path opacity="0.78" d="M531.397 250.44C554.437 250.44 573.114 231.762 573.114 208.722C573.114 185.682 554.437 167.005 531.397 167.005C508.357 167.005 489.679 185.682 489.679 208.722C489.679 231.762 508.357 250.44 531.397 250.44Z" fill="white"/>
<path d="M558.397 200.038H504.451L531.424 179.477L558.397 200.038Z" fill="#A041FE"/>
<path d="M510.89 201.499V236.345H524.444V212.131H538.756V236.345H551.985V201.499H510.89Z" fill="#A041FE"/>
<path d="M154.425 248.654C154.425 248.654 151.557 250.061 151.016 251.657C150.583 252.956 147.418 253.118 147.093 255.661C146.931 256.96 145.957 258.015 144.659 258.232C141.412 258.718 136.407 260.423 135.595 266.077C134.973 270.379 137.192 272.029 139.491 272.597C141.196 273.003 142.305 274.653 141.98 276.358C141.656 278.008 142.143 279.902 144.983 281.39C151.341 284.745 157.699 273.436 157.699 273.436L158.997 253.686L154.425 248.654Z" fill="url(#paint14_linear)"/>
<path d="M184.374 238.239C184.374 238.239 176.176 260.558 162.217 267.538C162.217 267.538 166.87 275.113 169.278 275.573C169.278 275.573 184.185 256.5 185.7 240.863L184.374 238.239Z" fill="url(#paint15_linear)"/>
<path d="M128.264 372.562L127.858 375.944C127.777 376.593 127.263 377.107 126.64 377.161C125.558 377.297 123.8 377.405 122.095 377.243C121.338 377.161 120.851 376.404 121.094 375.7C121.5 374.402 122.258 372.427 123.367 371.264H127.127C127.804 371.264 128.345 371.859 128.264 372.562Z" fill="url(#paint16_linear)"/>
<path d="M157.671 332.874L158.294 336.607C158.294 336.607 156.183 358.115 155.805 366.719C155.751 368.071 156.102 369.397 156.806 370.56L160.485 376.566L151.097 371.02L150.908 369.884L152.45 367.774L150.448 343.668C150.34 342.262 150.61 340.828 151.287 339.583L153.235 335.931L157.671 332.874Z" fill="url(#paint17_linear)"/>
<path d="M161.107 377.432H158.104C157.536 377.432 157.022 377.161 156.67 376.729C155.723 375.511 153.802 373.157 152.883 373.076C151.638 372.995 151.8 377.432 151.8 377.432H151.097L150.204 371.94C149.988 370.56 150.664 369.18 151.909 368.531C151.909 368.531 152.206 370.641 153.748 371.561C155.29 372.481 160.025 375.836 160.025 375.836C160.025 375.836 160.593 375.755 161.242 375.863C162.216 376.025 162.081 377.432 161.107 377.432Z" fill="url(#paint18_linear)"/>
<path d="M144.821 334.659C144.821 334.659 132.376 358.251 130.401 363.634C128.426 369.018 127.723 373.509 127.695 373.942C127.641 374.618 126.83 375.241 124.557 375.241C123.394 375.241 122.799 374.781 122.528 374.321C122.285 373.942 122.285 373.455 122.474 373.022C123.205 371.561 125.477 366.908 126.316 364.798C127.317 362.282 129.508 350.865 130.699 346.888C131.889 342.911 133.242 338.609 138.436 334.632C138.409 334.659 141.98 331.169 144.821 334.659Z" fill="url(#paint19_linear)"/>
<path d="M152.693 295.999C155.913 282.391 147.77 274.707 147.77 274.707C152.91 269.784 162.243 267.538 162.243 267.538C162.243 267.538 171.171 274.058 170.116 279.171C169.494 282.174 163.84 297.081 163.84 297.081C163.84 297.081 158.591 299.543 152.693 295.999Z" fill="url(#paint20_linear)"/>
<path d="M145.578 302.736C146.877 298.813 152.693 295.999 152.693 295.999C158.618 299.57 163.84 297.081 163.84 297.081C163.84 297.081 165.003 301.545 164.191 305.711C163.38 309.878 158.321 336.607 158.321 336.607C150.34 338.231 138.03 334.984 138.03 334.984C143.116 325.948 144.252 306.658 145.578 302.736Z" fill="url(#paint21_linear)"/>
<path d="M156.4 258.556L153.803 270.271C153.559 271.299 154.506 271.136 155.534 270.947C157.238 270.622 159.457 269.973 160.187 268.62C160.268 268.485 160.296 268.323 160.323 268.187L161.432 260.071C161.513 259.422 161.161 258.8 160.566 258.529L158.402 257.582C157.59 257.203 156.616 257.663 156.4 258.556Z" fill="url(#paint22_linear)"/>
<path d="M147.77 274.707C147.77 274.707 129.562 287.748 145.443 301.437C145.443 301.437 146.038 302.113 147.229 302.465C147.824 302.654 149.609 303.98 150.502 304.683C150.8 304.9 151.206 304.846 151.395 304.521C151.557 304.278 151.557 303.98 151.449 303.709L149.204 298.948C148.581 298.353 147.607 298.326 146.958 298.84C146.525 299.164 145.903 299.029 145.659 298.542C144.442 296.053 142.115 288.694 151.611 280.389C151.963 280.064 152.071 279.55 151.828 279.144C151.151 277.873 149.636 275.33 147.77 274.707Z" fill="url(#paint23_linear)"/>
<path d="M159.457 247.383C159.457 247.383 162.542 248.681 164.652 253.145C166.762 257.609 165.193 259.665 163.218 259.963C161.243 260.233 158.294 260.206 155.183 257.312C152.072 254.444 155.453 245.841 159.457 247.383Z" fill="url(#paint24_linear)"/>
<path d="M157.266 254.958C157.266 254.958 154.939 248.438 160.729 248.357L162.081 249.304C162.081 249.304 164.219 245.678 160.729 243.947C157.239 242.215 153.154 243.649 151.666 248.357C150.178 253.064 149.934 256.202 152.396 258.448C154.858 260.693 155.886 258.15 155.886 258.15C155.886 258.15 154.533 256.04 155.101 254.931C155.643 253.795 156.914 255.174 156.914 255.174L157.266 254.958Z" fill="url(#paint25_linear)"/>
<path d="M156.617 255.661C156.617 255.661 155.426 252.307 153.857 253.632C152.288 254.985 155.129 256.744 156.238 257.312L156.617 255.661Z" fill="url(#paint26_linear)"/>
<path d="M185.158 242.297C185.294 242.702 183.833 243.298 182.994 241.674C182.967 240.89 182.48 237.562 182.967 236.913C185.456 233.531 190.244 229.311 190.244 229.311C191.056 230.122 190.38 230.907 190.38 230.907L188.053 233.342C188.54 234.234 189.135 234.965 189.406 236.02C189.622 236.832 189.487 237.697 189.081 238.428C188.675 239.158 188.107 240.132 187.593 240.863C186.592 242.27 185.158 242.297 185.158 242.297Z" fill="url(#paint27_linear)"/>
<path d="M186.403 240.646L185.889 240.565C185.943 240.186 186.538 236.94 187.025 236.155C187.214 235.858 187.268 235.614 187.241 235.452C187.214 235.371 187.16 235.29 187.079 235.236L185.158 236.859L184.509 238.59L184.022 238.401L184.725 236.534L187.025 234.586L187.187 234.667C187.512 234.83 187.701 235.046 187.755 235.29C187.837 235.614 187.755 235.966 187.485 236.399C187.106 236.994 186.565 239.672 186.403 240.646Z" fill="url(#paint28_linear)"/>
<path d="M441.279 140.194L440.63 141.628C440.441 142.034 439.981 142.196 439.575 142.007C439.169 141.818 439.007 141.358 439.196 140.952L439.873 139.545C440.062 139.166 440.522 139.004 440.928 139.193C441.279 139.356 441.442 139.816 441.279 140.194Z" fill="white"/>
<path d="M439.007 144.929L438.277 146.336C438.06 146.769 437.546 146.931 437.113 146.714C436.68 146.498 436.518 145.984 436.735 145.551C436.735 145.551 436.735 145.551 436.735 145.524L437.465 144.171C437.681 143.766 438.195 143.603 438.601 143.847C439.061 144.036 439.196 144.523 439.007 144.929Z" fill="white"/>
<path d="M436.518 149.555L435.734 150.908C435.49 151.341 434.922 151.503 434.489 151.26C434.056 151.016 433.894 150.448 434.137 150.015C434.137 150.015 434.137 150.015 434.137 149.988V149.961L434.949 148.635C435.22 148.202 435.761 148.067 436.194 148.338C436.626 148.581 436.762 149.122 436.518 149.555Z" fill="white"/>
<path d="M433.84 154.073L433.001 155.399C432.703 155.859 432.108 155.994 431.648 155.696C431.188 155.399 431.053 154.804 431.351 154.344C431.351 154.344 431.351 154.344 431.351 154.317V154.29L432.216 152.991C432.514 152.558 433.109 152.423 433.542 152.72C434.002 153.045 434.137 153.64 433.84 154.073Z" fill="white"/>
<path d="M430.972 158.456L430.079 159.755C429.754 160.214 429.105 160.35 428.645 160.025C428.185 159.7 428.05 159.051 428.374 158.591C428.374 158.591 428.374 158.591 428.374 158.564V158.537L429.294 157.293C429.619 156.833 430.268 156.724 430.728 157.076C431.188 157.374 431.296 158.023 430.972 158.456Z" fill="white"/>
<path d="M427.942 162.73L426.995 163.975C426.616 164.462 425.94 164.543 425.453 164.191C424.966 163.813 424.885 163.136 425.236 162.649C425.236 162.649 425.236 162.649 425.236 162.622V162.595L426.21 161.378C426.589 160.918 427.265 160.837 427.725 161.188C428.212 161.594 428.293 162.271 427.942 162.73Z" fill="white"/>
<path d="M424.695 166.897L423.694 168.114C423.288 168.601 422.558 168.682 422.071 168.277C421.584 167.871 421.503 167.14 421.909 166.653C421.909 166.653 421.909 166.653 421.936 166.626V166.599L422.937 165.436C423.343 164.949 424.073 164.895 424.56 165.328C425.047 165.706 425.101 166.41 424.695 166.897Z" fill="white"/>
<path d="M421.313 170.901L420.258 172.064C419.798 172.578 419.041 172.605 418.527 172.172C418.013 171.712 417.986 170.955 418.419 170.441C418.419 170.441 418.419 170.441 418.446 170.414L418.473 170.387L419.528 169.251C419.988 168.764 420.745 168.737 421.232 169.196C421.719 169.656 421.746 170.414 421.313 170.901Z" fill="white"/>
<path d="M417.77 174.77L416.66 175.906C416.173 176.42 415.362 176.42 414.848 175.933C414.334 175.446 414.334 174.634 414.821 174.12C414.821 174.12 414.821 174.12 414.848 174.093L414.875 174.066L415.984 172.984C416.471 172.497 417.283 172.497 417.77 172.984C418.229 173.498 418.229 174.283 417.77 174.77Z" fill="white"/>
<path d="M414.036 178.503L412.9 179.585C412.359 180.099 411.52 180.072 411.006 179.531C410.492 178.99 410.519 178.151 411.06 177.637C411.06 177.637 411.06 177.637 411.087 177.61L411.114 177.583L412.25 176.555C412.791 176.068 413.63 176.095 414.117 176.636C414.604 177.177 414.55 178.016 414.036 178.503Z" fill="white"/>
<path d="M410.167 182.074L408.977 183.129C408.409 183.643 407.516 183.589 407.002 182.994C406.488 182.426 406.542 181.533 407.137 181.019C407.137 181.019 407.137 181.019 407.164 180.992L407.191 180.965L408.382 179.964C408.977 179.477 409.842 179.558 410.329 180.126C410.816 180.721 410.735 181.587 410.167 182.074Z" fill="white"/>
<path d="M406.163 185.51L404.946 186.511C404.323 187.025 403.404 186.917 402.89 186.295C402.376 185.672 402.484 184.753 403.106 184.239C403.106 184.239 403.133 184.239 403.133 184.211L403.16 184.184L404.377 183.238H404.405C405.027 182.751 405.947 182.859 406.434 183.508C406.894 184.103 406.785 184.996 406.163 185.51Z" fill="white"/>
<path d="M402.024 188.757L400.752 189.703C400.076 190.217 399.129 190.055 398.615 189.406C398.101 188.729 398.263 187.783 398.913 187.269C398.913 187.269 398.94 187.269 398.94 187.242L398.967 187.214L400.238 186.322H400.265C400.942 185.835 401.889 185.997 402.349 186.673C402.836 187.35 402.673 188.27 402.024 188.757Z" fill="white"/>
<path d="M397.749 191.841L396.451 192.733C395.72 193.22 394.746 193.031 394.259 192.328C393.772 191.597 393.962 190.623 394.665 190.136C394.665 190.136 394.692 190.136 394.692 190.109L394.719 190.082L396.018 189.244H396.045C396.775 188.784 397.749 188.973 398.209 189.703C398.642 190.407 398.453 191.381 397.749 191.841Z" fill="white"/>
<path d="M393.367 194.763L392.014 195.601C391.256 196.088 390.228 195.845 389.741 195.087C389.254 194.33 389.498 193.302 390.255 192.815C390.255 192.815 390.282 192.815 390.282 192.788L390.31 192.761L391.635 191.976H391.662C392.42 191.516 393.421 191.76 393.881 192.544C394.341 193.329 394.097 194.303 393.367 194.763Z" fill="white"/>
<path d="M388.849 197.495L387.469 198.28C386.657 198.74 385.602 198.469 385.142 197.657C384.682 196.846 384.953 195.791 385.764 195.331C385.764 195.331 385.791 195.331 385.791 195.304L385.819 195.277L387.171 194.546H387.198C388.01 194.113 389.038 194.411 389.471 195.222C389.931 196.061 389.633 197.062 388.849 197.495Z" fill="white"/>
<path d="M384.223 200.065L382.816 200.796C381.95 201.256 380.895 200.904 380.435 200.038C379.975 199.172 380.327 198.117 381.193 197.657C381.193 197.657 381.22 197.657 381.22 197.63H381.247L382.626 196.954H382.653C383.519 196.521 384.574 196.9 384.98 197.766C385.413 198.604 385.061 199.632 384.223 200.065Z" fill="white"/>
<path d="M379.515 202.419L378.081 203.095C377.161 203.528 376.079 203.122 375.646 202.23C375.213 201.31 375.619 200.228 376.512 199.795C376.512 199.795 376.539 199.795 376.539 199.768H376.566L377.973 199.145H378C378.92 198.74 379.975 199.145 380.381 200.065C380.786 200.958 380.381 202.013 379.515 202.419Z" fill="white"/>
<path d="M374.699 204.583L373.238 205.205C372.291 205.611 371.182 205.151 370.776 204.204C370.371 203.258 370.83 202.148 371.777 201.743H371.804H371.832L373.265 201.174H373.292C374.239 200.796 375.322 201.283 375.7 202.23C376.079 203.149 375.619 204.204 374.699 204.583Z" fill="white"/>
<path d="M369.775 206.558L368.287 207.099C367.286 207.478 366.177 206.964 365.798 205.936C365.42 204.935 365.934 203.826 366.962 203.447H366.989H367.016L368.477 202.96H368.504C369.505 202.608 370.614 203.149 370.939 204.15C371.29 205.124 370.749 206.206 369.775 206.558Z" fill="white"/>
<path d="M364.797 208.317L363.282 208.804C362.227 209.155 361.091 208.56 360.766 207.505C360.415 206.45 361.01 205.314 362.065 204.989H362.092H362.119L363.58 204.556H363.607C364.662 204.259 365.771 204.854 366.069 205.909C366.394 206.91 365.825 207.992 364.797 208.317Z" fill="white"/>
<path d="M359.738 209.859L358.196 210.292C357.087 210.589 355.951 209.94 355.653 208.858C355.355 207.749 356.005 206.612 357.087 206.315H357.114H357.141L358.629 205.936H358.656C359.738 205.665 360.875 206.342 361.145 207.424C361.443 208.479 360.793 209.561 359.738 209.859Z" fill="white"/>
<path d="M354.598 211.184L353.056 211.536C351.92 211.807 350.783 211.076 350.513 209.94C350.242 208.804 350.973 207.667 352.109 207.397H352.136H352.163L353.678 207.099H353.705C354.842 206.856 355.951 207.613 356.194 208.75C356.411 209.832 355.707 210.941 354.598 211.184Z" fill="white"/>
<path d="M464.411 211.103L462.869 211.347C462.436 211.428 462.003 211.103 461.949 210.67C461.868 210.238 462.192 209.805 462.625 209.751H462.652L464.194 209.561C464.627 209.507 465.006 209.832 465.06 210.238C465.114 210.67 464.817 211.049 464.411 211.103Z" fill="white"/>
<path d="M459.244 211.915L457.702 212.131C457.188 212.212 456.728 211.861 456.647 211.347C456.565 210.833 456.917 210.373 457.431 210.292H457.458L459 210.129C459.487 210.075 459.92 210.427 459.974 210.914C460.056 211.401 459.704 211.834 459.244 211.915Z" fill="white"/>
<path d="M454.076 212.645L452.534 212.862C451.993 212.943 451.479 212.564 451.398 211.996C451.317 211.455 451.695 210.941 452.264 210.86H452.291L453.833 210.697C454.374 210.643 454.861 211.022 454.915 211.563C454.969 212.104 454.59 212.564 454.076 212.645Z" fill="white"/>
<path d="M448.909 213.322L447.367 213.511C446.772 213.592 446.231 213.159 446.149 212.564C446.068 211.969 446.501 211.428 447.096 211.347H447.123L448.665 211.211C449.261 211.157 449.775 211.59 449.829 212.158C449.883 212.754 449.477 213.241 448.909 213.322Z" fill="white"/>
<path d="M443.742 213.971L442.199 214.16C441.55 214.242 440.982 213.782 440.901 213.132C440.82 212.483 441.28 211.915 441.929 211.834H441.956L443.498 211.698C444.12 211.644 444.688 212.104 444.743 212.726C444.797 213.349 444.337 213.89 443.742 213.971Z" fill="white"/>
<path d="M438.547 214.566L436.978 214.728C436.302 214.81 435.707 214.296 435.625 213.619C435.544 212.943 436.058 212.348 436.735 212.267C436.735 212.267 436.735 212.267 436.762 212.267L438.304 212.131C438.98 212.077 439.575 212.564 439.629 213.241C439.684 213.917 439.197 214.485 438.547 214.566Z" fill="white"/>
<path d="M433.353 215.107L431.784 215.27C431.08 215.351 430.458 214.81 430.377 214.106C430.296 213.403 430.837 212.781 431.54 212.699C431.54 212.699 431.54 212.699 431.567 212.699L433.109 212.591C433.813 212.537 434.408 213.051 434.462 213.754C434.543 214.431 434.029 215.026 433.353 215.107Z" fill="white"/>
<path d="M428.159 215.594L426.589 215.729C425.859 215.784 425.21 215.243 425.156 214.512C425.101 213.782 425.643 213.132 426.373 213.078C426.373 213.078 426.373 213.078 426.4 213.078L427.969 212.97C428.7 212.916 429.322 213.457 429.376 214.187C429.403 214.891 428.862 215.513 428.159 215.594Z" fill="white"/>
<path d="M422.964 216.027L421.395 216.162C420.637 216.216 419.961 215.648 419.907 214.891C419.853 214.133 420.421 213.457 421.178 213.403C421.178 213.403 421.178 213.403 421.206 213.403L422.775 213.295C423.532 213.241 424.181 213.809 424.236 214.566C424.263 215.324 423.695 215.973 422.964 216.027Z" fill="white"/>
<path d="M417.743 216.433L416.174 216.541C415.389 216.595 414.713 216 414.632 215.215C414.577 214.431 415.173 213.755 415.957 213.673C415.957 213.673 415.957 213.673 415.984 213.673L417.553 213.592C418.338 213.538 419.014 214.16 419.041 214.918C419.096 215.73 418.527 216.379 417.743 216.433Z" fill="white"/>
<path d="M412.548 216.812L410.979 216.92C410.168 216.974 409.464 216.352 409.41 215.54C409.356 214.729 409.978 214.025 410.79 213.971H410.817L412.386 213.89C413.198 213.863 413.874 214.485 413.928 215.297C413.955 216.081 413.333 216.758 412.548 216.812Z" fill="white"/>
<path d="M407.327 217.136L405.758 217.217C404.919 217.272 404.215 216.622 404.161 215.784C404.107 214.945 404.757 214.241 405.595 214.187H405.622L407.191 214.133C408.03 214.106 408.733 214.756 408.76 215.567C408.787 216.379 408.165 217.082 407.327 217.136Z" fill="white"/>
<path d="M402.132 217.38L400.563 217.461C399.725 217.488 398.994 216.839 398.94 216C398.913 215.161 399.562 214.431 400.401 214.377H400.428L401.997 214.323C402.836 214.296 403.566 214.945 403.593 215.811C403.62 216.649 402.971 217.353 402.132 217.38Z" fill="white"/>
<path d="M396.911 217.623L395.342 217.677C394.476 217.704 393.746 217.028 393.719 216.162C393.692 215.297 394.368 214.566 395.234 214.539H395.261L396.83 214.485C397.696 214.458 398.399 215.134 398.426 216C398.426 216.866 397.75 217.569 396.911 217.623Z" fill="white"/>
<path d="M391.689 217.786L390.12 217.84C389.227 217.867 388.497 217.163 388.47 216.298C388.443 215.405 389.146 214.674 390.012 214.647H390.039L391.608 214.62C392.474 214.593 393.204 215.297 393.231 216.162C393.231 217.055 392.555 217.759 391.689 217.786Z" fill="white"/>
<path d="M386.468 217.921L384.899 217.948C384.006 217.975 383.275 217.245 383.275 216.379C383.248 215.486 383.979 214.756 384.845 214.756L386.414 214.729C387.306 214.729 388.037 215.432 388.037 216.298C388.037 217.163 387.361 217.894 386.468 217.921Z" fill="white"/>
<path d="M381.247 218.002L379.677 218.029C378.785 218.029 378.054 217.326 378.054 216.433C378.054 215.54 378.758 214.81 379.65 214.81H381.22C382.112 214.81 382.843 215.513 382.843 216.406C382.843 217.272 382.139 218.002 381.247 218.002Z" fill="white"/>
<path d="M376.025 218.029H374.456C373.563 218.029 372.833 217.299 372.833 216.406C372.833 215.513 373.563 214.783 374.456 214.783H376.025C376.918 214.783 377.649 215.513 377.649 216.406C377.649 217.299 376.918 218.029 376.025 218.029Z" fill="white"/>
<path d="M370.804 218.029H369.235C368.342 218.029 367.611 217.299 367.611 216.379C367.611 215.486 368.342 214.756 369.262 214.756L370.831 214.783C371.724 214.783 372.454 215.54 372.454 216.433C372.427 217.326 371.696 218.029 370.804 218.029Z" fill="white"/>
<path d="M365.582 217.975C365.068 217.921 364.527 217.786 364.013 217.515C363.364 217.163 363.147 216.325 363.499 215.675C363.634 215.432 363.824 215.27 364.04 215.134C364.554 214.864 365.095 214.756 365.609 214.728C366.502 214.674 367.287 215.351 367.341 216.244C367.395 217.136 366.719 217.921 365.826 217.975C365.772 217.975 365.663 217.975 365.582 217.975Z" fill="white"/>
<path d="M350.54 223.819L351.974 224.468C352.813 224.847 353.191 225.848 352.813 226.686C352.434 227.525 351.46 227.904 350.621 227.525H350.594L349.187 226.903H349.16C348.295 226.524 347.889 225.523 348.268 224.657C348.646 223.792 349.647 223.386 350.513 223.765C350.513 223.819 350.54 223.819 350.54 223.819Z" fill="white"/>
<path d="M355.302 226.064L356.708 226.768C357.52 227.173 357.845 228.147 357.439 228.959C357.033 229.744 356.086 230.095 355.275 229.716H355.247L353.841 229.067H353.814C353.002 228.688 352.623 227.687 353.029 226.876C353.408 226.064 354.409 225.685 355.22 226.091C355.275 226.037 355.302 226.037 355.302 226.064Z" fill="white"/>
<path d="M360.009 228.445L361.389 229.202C362.146 229.608 362.444 230.582 362.038 231.34C361.632 232.097 360.685 232.395 359.928 231.989H359.901L358.521 231.286H358.494C357.709 230.88 357.385 229.933 357.791 229.148C358.196 228.364 359.143 228.039 359.928 228.445C359.982 228.418 359.982 228.445 360.009 228.445Z" fill="white"/>
<path d="M364.608 230.988L365.961 231.773C366.691 232.205 366.935 233.125 366.529 233.856C366.123 234.586 365.203 234.83 364.473 234.424H364.446L363.093 233.666C362.336 233.261 362.065 232.314 362.498 231.556C362.931 230.799 363.823 230.555 364.608 230.988C364.581 230.961 364.608 230.988 364.608 230.988Z" fill="white"/>
<path d="M369.126 233.666L370.452 234.505C371.155 234.938 371.345 235.858 370.912 236.534C370.479 237.21 369.586 237.427 368.91 237.021H368.883L367.557 236.237C366.854 235.804 366.61 234.884 367.043 234.18C367.476 233.477 368.396 233.234 369.126 233.666C369.099 233.666 369.126 233.666 369.126 233.666Z" fill="white"/>
<path d="M373.536 236.507L374.835 237.373C375.484 237.806 375.673 238.698 375.213 239.348C374.781 239.997 373.915 240.159 373.266 239.754L371.967 238.915C371.291 238.482 371.101 237.589 371.534 236.913C371.967 236.264 372.86 236.047 373.536 236.507C373.536 236.48 373.536 236.507 373.536 236.507Z" fill="white"/>
<path d="M377.892 239.483L379.163 240.403C379.785 240.836 379.921 241.701 379.488 242.324C379.055 242.946 378.216 243.081 377.594 242.648L376.323 241.783C375.7 241.35 375.538 240.484 375.971 239.862C376.404 239.239 377.215 239.023 377.892 239.483C377.865 239.456 377.865 239.483 377.892 239.483Z" fill="white"/>
<path d="M382.112 242.594L383.357 243.541C383.925 243.974 384.033 244.813 383.6 245.408C383.167 245.976 382.356 246.084 381.761 245.678L380.516 244.759C379.921 244.326 379.786 243.487 380.246 242.892C380.651 242.27 381.49 242.134 382.112 242.594C382.085 242.567 382.112 242.594 382.112 242.594Z" fill="white"/>
<path d="M386.251 245.841L387.469 246.842C388.01 247.275 388.091 248.086 387.658 248.627C387.225 249.168 386.441 249.25 385.9 248.817L384.682 247.87C384.114 247.437 384.033 246.625 384.466 246.057C384.844 245.489 385.656 245.381 386.251 245.841C386.224 245.814 386.224 245.841 386.251 245.841Z" fill="white"/>
<path d="M390.255 249.223L391.446 250.251C391.96 250.683 392.014 251.468 391.554 251.982C391.121 252.469 390.364 252.55 389.85 252.117L388.659 251.116C388.145 250.683 388.064 249.899 388.497 249.385C388.957 248.817 389.714 248.763 390.255 249.223C390.255 249.195 390.255 249.195 390.255 249.223Z" fill="white"/>
<path d="M394.178 252.712L395.342 253.795C395.802 254.227 395.829 254.985 395.396 255.445C394.963 255.905 394.233 255.932 393.773 255.526L392.609 254.498C392.122 254.065 392.095 253.308 392.528 252.821C392.934 252.307 393.664 252.252 394.178 252.712C394.151 252.712 394.178 252.712 394.178 252.712Z" fill="white"/>
<path d="M397.966 256.338L399.075 257.447C399.508 257.88 399.508 258.583 399.075 259.016C398.642 259.449 397.939 259.449 397.506 259.043L396.397 257.961C395.937 257.528 395.937 256.825 396.37 256.365C396.776 255.905 397.506 255.878 397.966 256.338Z" fill="white"/>
<path d="M401.645 260.071L402.727 261.207C403.133 261.64 403.106 262.317 402.673 262.722C402.241 263.128 401.591 263.101 401.185 262.695L400.103 261.586C399.697 261.153 399.697 260.477 400.13 260.071C400.536 259.638 401.212 259.638 401.645 260.071C401.618 260.071 401.645 260.071 401.645 260.071Z" fill="white"/>
<path d="M405.189 263.94L406.217 265.13C406.596 265.563 406.542 266.185 406.136 266.564C405.731 266.943 405.081 266.889 404.73 266.483L403.674 265.347C403.296 264.941 403.323 264.265 403.729 263.886C404.134 263.48 404.784 263.507 405.189 263.94Z" fill="white"/>
<path d="M408.598 267.917L409.599 269.134C409.924 269.54 409.87 270.162 409.464 270.487C409.058 270.812 408.463 270.758 408.111 270.379L407.11 269.188C406.758 268.783 406.813 268.16 407.218 267.809C407.624 267.43 408.246 267.484 408.598 267.917C408.598 267.89 408.598 267.917 408.598 267.917Z" fill="white"/>
<path d="M411.899 272.002L412.846 273.247C413.143 273.652 413.089 274.22 412.683 274.518C412.278 274.816 411.736 274.762 411.412 274.356L410.438 273.138C410.113 272.732 410.194 272.164 410.573 271.84C410.979 271.515 411.574 271.569 411.899 272.002C411.899 271.975 411.899 271.975 411.899 272.002Z" fill="white"/>
<path d="M415.064 276.168L415.984 277.44C416.255 277.819 416.173 278.36 415.795 278.63C415.416 278.901 414.875 278.82 414.604 278.441L413.657 277.196C413.36 276.818 413.441 276.277 413.82 275.979C414.199 275.681 414.767 275.763 415.064 276.168C415.037 276.168 415.064 276.168 415.064 276.168Z" fill="white"/>
<path d="M418.067 280.443L418.933 281.741C419.176 282.12 419.095 282.607 418.716 282.851C418.365 283.094 417.851 283.013 417.607 282.634L416.714 281.363C416.444 280.984 416.552 280.47 416.904 280.227C417.282 279.983 417.796 280.064 418.067 280.443Z" fill="white"/>
<path d="M457.269 362.877C485.434 362.877 508.266 340.045 508.266 311.88C508.266 283.715 485.434 260.883 457.269 260.883C429.104 260.883 406.272 283.715 406.272 311.88C406.272 340.045 429.104 362.877 457.269 362.877Z" fill="url(#paint29_linear)"/>
<path d="M492.119 346.744C511.369 327.495 511.369 296.285 492.119 277.035C472.869 257.785 441.659 257.785 422.409 277.035C403.159 296.285 403.159 327.495 422.409 346.744C441.659 365.994 472.869 365.994 492.119 346.744Z" fill="#7D97F4"/>
<path d="M411.845 309.986H411.818C411.52 309.959 411.304 309.715 411.331 309.445C411.439 307.497 411.655 305.549 412.007 303.655C412.061 303.385 412.332 303.195 412.602 303.222C412.873 303.277 413.062 303.547 413.035 303.818C412.71 305.684 412.494 307.578 412.386 309.472C412.332 309.77 412.115 309.986 411.845 309.986Z" fill="url(#paint30_linear)"/>
<path d="M416.633 291.914C416.552 291.914 416.471 291.887 416.39 291.86C416.146 291.725 416.038 291.427 416.146 291.156C424.019 275.546 439.792 265.834 457.268 265.834C460.055 265.834 462.842 266.077 465.574 266.591C465.845 266.645 466.034 266.916 465.98 267.186C465.926 267.457 465.655 267.673 465.385 267.592C462.733 267.105 460.001 266.862 457.268 266.862C440.197 266.862 424.776 276.331 417.093 291.616C417.012 291.833 416.823 291.914 416.633 291.914Z" fill="url(#paint31_linear)"/>
<path d="M458.351 354.679C481.391 354.679 500.068 336.002 500.068 312.962C500.068 289.922 481.391 271.245 458.351 271.245C435.311 271.245 416.633 289.922 416.633 312.962C416.633 336.002 435.311 354.679 458.351 354.679Z" fill="url(#paint32_linear)"/>
<path d="M480.021 303.412H469.713V293.104C469.713 290.372 467.495 288.18 464.79 288.18H452.182C449.45 288.18 447.259 290.399 447.259 293.104V303.412H436.951C434.218 303.412 432.027 305.63 432.027 308.336V320.943C432.027 323.675 434.246 325.867 436.951 325.867H447.259V336.174C447.259 338.907 449.477 341.098 452.182 341.098H464.79C467.522 341.098 469.713 338.88 469.713 336.174V325.867H480.021C482.754 325.867 484.945 323.648 484.945 320.943V308.336C484.945 305.63 482.727 303.412 480.021 303.412Z" fill="#FE416E"/>
</g>
<defs>
<linearGradient id="paint0_linear" x1="278.725" y1="382.861" x2="281.972" y2="95.0035" gradientUnits="userSpaceOnUse">
<stop stop-color="#00395D"/>
<stop offset="1" stop-color="#0D5991"/>
</linearGradient>
<linearGradient id="paint1_linear" x1="324.315" y1="174.277" x2="-31.1065" y2="628.949" gradientUnits="userSpaceOnUse">
<stop stop-color="#3D89E2"/>
<stop offset="1" stop-color="#5392FF"/>
</linearGradient>
<linearGradient id="paint2_linear" x1="220.055" y1="241.232" x2="339.916" y2="241.232" gradientUnits="userSpaceOnUse">
<stop stop-color="#FE8041"/>
<stop offset="1" stop-color="#FFB27A"/>
</linearGradient>
<linearGradient id="paint3_linear" x1="280.163" y1="138.06" x2="282.328" y2="215.976" gradientUnits="userSpaceOnUse">
<stop stop-color="#00395D"/>
<stop offset="1" stop-color="#0D5991"/>
</linearGradient>
<linearGradient id="paint4_linear" x1="272.095" y1="23.0259" x2="36.7713" y2="190.187" gradientUnits="userSpaceOnUse">
<stop stop-color="#FE8041"/>
<stop offset="1" stop-color="#FFB27A"/>
</linearGradient>
<linearGradient id="paint5_linear" x1="318.231" y1="-54.362" x2="279.281" y2="101.439" gradientUnits="userSpaceOnUse">
<stop stop-color="#FE8041"/>
<stop offset="1" stop-color="#FFB27A"/>
</linearGradient>
<linearGradient id="paint6_linear" x1="273.742" y1="34.3466" x2="186.104" y2="167.426" gradientUnits="userSpaceOnUse">
<stop stop-color="#FE8041"/>
<stop offset="1" stop-color="#FFB27A"/>
</linearGradient>
<linearGradient id="paint7_linear" x1="178.454" y1="35.8313" x2="192.148" y2="31.9067" gradientUnits="userSpaceOnUse">
<stop stop-color="#E18E4C"/>
<stop offset="1" stop-color="#E98B6E"/>
</linearGradient>
<linearGradient id="paint8_linear" x1="41.9405" y1="196.798" x2="45.5235" y2="195.772" gradientUnits="userSpaceOnUse">
<stop stop-color="#E18E4C"/>
<stop offset="1" stop-color="#E98B6E"/>
</linearGradient>
<linearGradient id="paint9_linear" x1="133.248" y1="187.919" x2="136.831" y2="186.892" gradientUnits="userSpaceOnUse">
<stop stop-color="#E18E4C"/>
<stop offset="1" stop-color="#E98B6E"/>
</linearGradient>
<linearGradient id="paint10_linear" x1="389.616" y1="97.1569" x2="393.199" y2="96.13" gradientUnits="userSpaceOnUse">
<stop stop-color="#E18E4C"/>
<stop offset="1" stop-color="#E98B6E"/>
</linearGradient>
<linearGradient id="paint11_linear" x1="307.466" y1="137.989" x2="311.049" y2="136.962" gradientUnits="userSpaceOnUse">
<stop stop-color="#E18E4C"/>
<stop offset="1" stop-color="#E98B6E"/>
</linearGradient>
<linearGradient id="paint12_linear" x1="400.449" y1="166.31" x2="468.851" y2="86.9145" gradientUnits="userSpaceOnUse">
<stop stop-color="#3D89E2"/>
<stop offset="1" stop-color="#5392FF"/>
</linearGradient>
<linearGradient id="paint13_linear" x1="460.539" y1="288.657" x2="528.941" y2="209.262" gradientUnits="userSpaceOnUse">
<stop stop-color="#3D89E2"/>
<stop offset="1" stop-color="#5392FF"/>
</linearGradient>
<linearGradient id="paint14_linear" x1="159.483" y1="237.124" x2="150.941" y2="258.55" gradientUnits="userSpaceOnUse">
<stop stop-color="#00395D"/>
<stop offset="1" stop-color="#0D5991"/>
</linearGradient>
<linearGradient id="paint15_linear" x1="177.105" y1="249.503" x2="161.325" y2="285.406" gradientUnits="userSpaceOnUse">
<stop stop-color="#A25761"/>
<stop offset="1" stop-color="#C06148"/>
</linearGradient>
<linearGradient id="paint16_linear" x1="131.503" y1="439.454" x2="136.913" y2="490.857" gradientUnits="userSpaceOnUse">
<stop stop-color="#00395D"/>
<stop offset="1" stop-color="#0D5991"/>
</linearGradient>
<linearGradient id="paint17_linear" x1="158.863" y1="402.857" x2="148.441" y2="281.039" gradientUnits="userSpaceOnUse">
<stop stop-color="#A25761"/>
<stop offset="1" stop-color="#C06148"/>
</linearGradient>
<linearGradient id="paint18_linear" x1="162.586" y1="436.182" x2="167.996" y2="487.585" gradientUnits="userSpaceOnUse">
<stop stop-color="#00395D"/>
<stop offset="1" stop-color="#0D5991"/>
</linearGradient>
<linearGradient id="paint19_linear" x1="137.897" y1="404.67" x2="127.472" y2="282.82" gradientUnits="userSpaceOnUse">
<stop stop-color="#A25761"/>
<stop offset="1" stop-color="#C06148"/>
</linearGradient>
<linearGradient id="paint20_linear" x1="158.606" y1="280.011" x2="153.394" y2="328.364" gradientUnits="userSpaceOnUse">
<stop stop-color="#FE8041"/>
<stop offset="1" stop-color="#FFB27A"/>
</linearGradient>
<linearGradient id="paint21_linear" x1="185.502" y1="189.575" x2="168.188" y2="256.67" gradientUnits="userSpaceOnUse">
<stop stop-color="#00395D"/>
<stop offset="1" stop-color="#0D5991"/>
</linearGradient>
<linearGradient id="paint22_linear" x1="160.006" y1="282.781" x2="158.048" y2="268.457" gradientUnits="userSpaceOnUse">
<stop stop-color="#A25761"/>
<stop offset="1" stop-color="#C06148"/>
</linearGradient>
<linearGradient id="paint23_linear" x1="151.937" y1="289.761" x2="138.931" y2="289.761" gradientUnits="userSpaceOnUse">
<stop stop-color="#A25761"/>
<stop offset="1" stop-color="#C06148"/>
</linearGradient>
<linearGradient id="paint24_linear" x1="164.949" y1="264.313" x2="147.866" y2="233.912" gradientUnits="userSpaceOnUse">
<stop stop-color="#A25761"/>
<stop offset="1" stop-color="#C06148"/>
</linearGradient>
<linearGradient id="paint25_linear" x1="161.275" y1="237.838" x2="152.733" y2="259.264" gradientUnits="userSpaceOnUse">
<stop stop-color="#00395D"/>
<stop offset="1" stop-color="#0D5991"/>
</linearGradient>
<linearGradient id="paint26_linear" x1="161.312" y1="266.357" x2="144.229" y2="235.955" gradientUnits="userSpaceOnUse">
<stop stop-color="#A25761"/>
<stop offset="1" stop-color="#C06148"/>
</linearGradient>
<linearGradient id="paint27_linear" x1="180.223" y1="250.873" x2="164.443" y2="286.776" gradientUnits="userSpaceOnUse">
<stop stop-color="#A25761"/>
<stop offset="1" stop-color="#C06148"/>
</linearGradient>
<linearGradient id="paint28_linear" x1="187.766" y1="237.613" x2="184" y2="237.613" gradientUnits="userSpaceOnUse">
<stop stop-color="#A25761"/>
<stop offset="1" stop-color="#C06148"/>
</linearGradient>
<linearGradient id="paint29_linear" x1="387.496" y1="392.882" x2="455.898" y2="313.487" gradientUnits="userSpaceOnUse">
<stop stop-color="#3D89E2"/>
<stop offset="1" stop-color="#5392FF"/>
</linearGradient>
<linearGradient id="paint30_linear" x1="411.312" y1="306.61" x2="413.015" y2="306.61" gradientUnits="userSpaceOnUse">
<stop stop-color="#DAE3FE"/>
<stop offset="1" stop-color="#E9EFFD"/>
</linearGradient>
<linearGradient id="paint31_linear" x1="416.106" y1="278.889" x2="466.011" y2="278.889" gradientUnits="userSpaceOnUse">
<stop stop-color="#DAE3FE"/>
<stop offset="1" stop-color="#E9EFFD"/>
</linearGradient>
<linearGradient id="paint32_linear" x1="416.627" y1="312.958" x2="500.081" y2="312.958" gradientUnits="userSpaceOnUse">
<stop stop-color="#DAE3FE"/>
<stop offset="1" stop-color="#E9EFFD"/>
</linearGradient>
<clipPath id="clip0">
<rect width="584.125" height="378" fill="white"/>
</clipPath>
</defs>
</svg>
