<svg width="744" height="322" viewBox="0 0 744 322" fill="none" xmlns="http://www.w3.org/2000/svg">
<path d="M24.6811 321.841C20.8078 321.841 20.6221 321.788 17.0141 318.894C1.83939 306.578 -2.40529 287.626 2.98015 269.258C9.69205 246.43 27.1218 227.638 45.5066 213.384C58.8508 203.032 75.3254 194.379 85.4596 180.523C97.0794 164.65 93.6041 144.211 88.1921 126.639C83.974 112.996 83.072 99.1667 87.7677 85.4703C91.1899 75.4633 97.0529 66.4385 104.057 58.5551C128.915 30.4454 166.666 12.794 203.037 5.62721C231.503 -2.52612e-05 260.924 -0.955594 289.841 0.796282C318.068 2.49507 346.561 6.63587 373.408 15.6872C398.399 24.1015 421.373 37.1079 441.244 54.4408C451.855 63.5984 461.273 73.9769 471.566 83.4795C481.223 92.3716 491.516 99.1667 505.046 98.7686C518.258 98.3704 531.39 94.9994 544.363 92.7166C557.893 90.3543 571.529 88.6289 585.271 88.6024C613.869 88.5228 641.619 96.3266 666.185 110.952C687.409 123.587 707.412 140.362 721.578 160.721C736.939 182.752 744.473 209.057 743.889 235.866C743.863 237.299 744.075 226.974 743.889 235.866C743.332 261.481 736.09 286.962 724.709 309.816C723.86 311.542 719.88 321.761 718.076 321.761L24.6811 321.841Z" fill="#D0E5F3"/>
<path d="M524.996 96.4063C518.364 97.6008 511.732 98.5563 505.046 98.7687C491.49 99.1668 481.197 92.3717 471.566 83.4796C461.273 74.0035 451.855 63.5984 441.244 54.4409C421.347 37.1079 398.399 24.0751 373.408 15.6873C351.522 8.33471 328.574 4.22045 305.546 2.01733V186.575H524.996V96.4063Z" fill="#F8FBFF"/>
<path d="M502.048 153.979V182.752H309.101V92.6105H326.292V120.003H345.924V75.3837H367.572V104.343H372.506V69.7565H394.154V134.602H421.506V172.427H431.746V155.598H455.224V165.552H468.728V120.986H485.388V153.979H502.048Z" fill="#EBF3FE"/>
<path d="M309.075 2.36238C305.228 1.96422 301.408 1.61916 297.561 1.32718V181.027H309.075V2.36238Z" fill="#DFEBFD"/>
<path d="M528.923 95.6895C525.103 96.4328 521.256 97.1229 517.409 97.6538V181.027H528.923V95.6895Z" fill="#DFEBFD"/>
<path d="M528.939 189.844V178.324L291.767 178.324V189.844L528.939 189.844Z" fill="#DFEBFD"/>
<path d="M208.608 104.529H162.315C160.193 104.529 158.442 102.777 158.442 100.653V55.9272C158.442 53.8038 160.193 52.0519 162.315 52.0519H208.635C210.757 52.0519 212.508 53.8038 212.508 55.9272V100.653C212.482 102.777 210.757 104.529 208.608 104.529Z" fill="#C0D8FB"/>
<path d="M206.619 102.246H164.305C162.368 102.246 160.776 100.653 160.776 98.7155V57.865C160.776 55.9273 162.368 54.3347 164.305 54.3347H206.592C208.529 54.3347 210.12 55.9273 210.12 57.865V98.7155C210.147 100.653 208.555 102.246 206.619 102.246Z" fill="#DFEBFD"/>
<path d="M184.334 59.139C184.334 58.5285 184.838 58.0242 185.448 58.0242C186.059 58.0242 186.563 58.5285 186.563 59.139C186.563 59.7495 186.059 60.2538 185.448 60.2538C184.838 60.2538 184.334 59.7495 184.334 59.139Z" fill="#B7D3F3"/>
<path d="M193.38 60.705C193.672 60.1742 194.362 59.9618 194.893 60.2803C195.423 60.5723 195.636 61.2625 195.317 61.7933C195.025 62.3242 194.336 62.5366 193.805 62.218C193.274 61.926 193.089 61.2625 193.38 60.705Z" fill="#B7D3F3"/>
<path d="M201.127 66.8631C201.658 66.5181 202.347 66.6773 202.666 67.2082C203.011 67.7391 202.851 68.4292 202.321 68.7477C201.79 69.0928 201.101 68.9335 200.782 68.4027C200.437 67.8983 200.597 67.2082 201.127 66.8631Z" fill="#B7D3F3"/>
<path d="M204.948 76.3923C205.558 76.3923 206.062 76.8966 206.062 77.5071C206.062 78.1176 205.558 78.6219 204.948 78.6219C204.337 78.6219 203.833 78.1176 203.833 77.5071C203.833 76.8966 204.337 76.3923 204.948 76.3923Z" fill="#B7D3F3"/>
<path d="M202.984 87.4345C203.409 87.8592 203.409 88.5758 202.984 89.0271C202.56 89.4518 201.844 89.4518 201.393 89.0271C200.968 88.6024 200.968 87.8857 201.393 87.4345C201.844 86.9832 202.56 86.9832 202.984 87.4345Z" fill="#B7D3F3"/>
<path d="M195.185 96.3796C195.8 96.3796 196.299 95.8805 196.299 95.2648C196.299 94.6491 195.8 94.1499 195.185 94.1499C194.569 94.1499 194.07 94.6491 194.07 95.2648C194.07 95.8805 194.569 96.3796 195.185 96.3796Z" fill="#B7D3F3"/>
<path d="M184.334 98.1315C184.334 97.521 184.838 97.0167 185.448 97.0167C186.059 97.0167 186.563 97.521 186.563 98.1315C186.563 98.742 186.059 99.2463 185.448 99.2463C184.838 99.2463 184.334 98.742 184.334 98.1315Z" fill="#B7D3F3"/>
<path d="M177.516 60.705C177.225 60.1742 176.535 59.9618 176.004 60.2803C175.474 60.5723 175.261 61.2625 175.58 61.7933C175.872 62.3242 176.561 62.5366 177.092 62.218C177.623 61.926 177.808 61.2625 177.516 60.705Z" fill="#B7D3F3"/>
<path d="M169.77 66.8631C169.239 66.5181 168.549 66.6773 168.231 67.2082C167.886 67.7391 168.045 68.4292 168.576 68.7477C169.107 69.0928 169.796 68.9335 170.115 68.4027C170.46 67.8983 170.3 67.2082 169.77 66.8631Z" fill="#B7D3F3"/>
<path d="M165.949 76.3923C165.339 76.3923 164.835 76.8966 164.835 77.5071C164.835 78.1176 165.339 78.6219 165.949 78.6219C166.56 78.6219 167.064 78.1176 167.064 77.5071C167.064 76.8966 166.56 76.3923 165.949 76.3923Z" fill="#B7D3F3"/>
<path d="M167.913 87.4344C167.488 87.8591 167.488 88.5758 167.913 89.027C168.337 89.4517 169.053 89.4517 169.504 89.027C169.929 88.6023 169.929 87.8856 169.504 87.4344C169.053 86.9832 168.337 86.9832 167.913 87.4344Z" fill="#B7D3F3"/>
<path d="M174.943 94.495C174.518 94.9197 174.518 95.6364 174.943 96.0876C175.367 96.5123 176.084 96.5123 176.535 96.0876C176.959 95.6629 176.959 94.9462 176.535 94.495C176.084 94.0437 175.367 94.0437 174.943 94.495Z" fill="#B7D3F3"/>
<path d="M185.157 77.5071C185.157 76.8966 185.661 76.3923 186.271 76.3923C186.881 76.3923 187.385 76.8966 187.385 77.5071C187.385 78.1176 186.881 78.6219 186.271 78.6219C185.661 78.6219 185.157 78.1176 185.157 77.5071Z" fill="#B7D3F3"/>
<path d="M186.457 63.5187H186.138V77.5072H186.457V63.5187Z" fill="#B7D3F3"/>
<path d="M193.27 71.3066L185.861 77.1244L186.434 77.8553L193.843 72.0375L193.27 71.3066Z" fill="#B7D3F3"/>
<path d="M582.75 231.778C582.75 231.778 591.213 221.904 583.281 215.64C583.281 215.64 577.471 212.136 572.749 212.402C572.749 212.402 579.461 223.656 577.285 224.771C575.11 225.886 570.733 211.711 570.733 211.711C570.733 211.711 557.548 210.437 553.303 212.481C553.303 212.481 564.578 221.718 562.217 222.276C559.829 222.833 547.652 213.755 547.652 213.755C547.652 213.755 535.369 215.852 536.033 223.338C536.696 230.823 540.914 233.159 542.771 232.946C544.628 232.734 555.505 228.593 555.744 230.106C555.982 231.619 549.43 236.609 544.84 236.848C544.84 236.848 553.489 246.404 559.246 243.643C565.002 240.883 565.48 236.503 569.088 234.884C572.669 233.238 575.747 233.238 574.261 234.911C572.775 236.583 566.276 238.202 564.233 241.838C562.19 245.475 560.333 247.917 566.302 247.014C572.245 246.112 581.928 241.759 582.353 236.769C582.75 231.778 582.75 231.778 582.75 231.778Z" fill="#C8DBF4"/>
<path d="M542.001 223.523C542.001 223.523 575.349 222.249 582.724 231.778C582.724 231.778 584.342 236.662 589.356 241.095L590.125 243.219C590.125 243.219 584.342 237.114 582.273 236.742C582.326 236.769 585.536 224.957 542.001 223.523Z" fill="#C8DBF4"/>
<path d="M589.383 241.095C589.383 241.095 596.546 246.404 597.05 255.853L595.75 255.96C595.75 255.96 593.468 246.165 589.33 242.343C585.191 238.547 589.383 241.095 589.383 241.095Z" fill="#C8DBF4"/>
<path d="M627.558 205.792C627.558 205.792 614.108 198.254 620.369 188.008C620.369 188.008 625.383 181.717 630.769 180.098C630.769 180.098 627.903 195.361 630.769 195.732C633.634 196.104 632.732 178.505 632.732 178.505C632.732 178.505 646.898 171.684 652.469 172.215C652.469 172.215 643.688 187.106 646.553 186.76C649.419 186.389 659.287 171.312 659.287 171.312C659.287 171.312 673.825 168.631 676.16 177.231C678.495 185.858 674.727 190.158 672.579 190.689C670.43 191.22 656.608 191.061 656.953 192.839C657.324 194.644 666.636 197.511 671.836 195.891C671.836 195.891 666.105 210.066 658.545 209.349C651.01 208.632 648.676 203.961 644.007 203.616C639.337 203.244 635.942 204.518 638.276 205.766C640.611 207.013 648.517 206.19 652.284 209.376C656.051 212.587 659.102 214.552 652.098 215.985C645.094 217.418 632.546 216.516 630.026 211.127C627.558 205.792 627.558 205.792 627.558 205.792Z" fill="#C8DBF4"/>
<path d="M669.554 179.939C669.554 179.939 631.856 192.149 627.559 205.792C627.559 205.792 627.744 211.897 623.977 218.905V221.586C623.977 221.586 627.93 212.428 630.079 211.181C630.052 211.181 621.616 199.342 669.554 179.939Z" fill="#C8DBF4"/>
<path d="M623.951 218.905C623.951 218.905 618.141 227.744 621.457 238.494L622.942 238.096C622.942 238.096 621.483 226.257 624.534 220.312C627.585 214.339 623.951 218.905 623.951 218.905Z" fill="#C8DBF4"/>
<path d="M606.149 195.387C606.149 195.387 623.897 185.433 615.62 171.949C615.62 171.949 608.988 163.668 601.905 161.544C601.905 161.544 605.698 181.664 601.905 182.142C598.111 182.62 599.305 159.421 599.305 159.421C599.305 159.421 580.628 150.422 573.28 151.139C573.28 151.139 584.873 170.781 581.079 170.303C577.285 169.826 564.286 149.945 564.286 149.945C564.286 149.945 545.132 146.388 542.055 157.748C538.977 169.109 543.938 174.789 546.777 175.506C549.615 176.223 567.841 175.984 567.364 178.346C566.886 180.709 554.576 184.504 547.732 182.381C547.732 182.381 555.293 201.067 565.241 200.138C575.19 199.183 578.241 193.025 584.395 192.574C590.55 192.096 595.034 193.768 591.956 195.414C588.879 197.059 578.479 195.945 573.492 200.192C568.504 204.438 564.498 207.013 573.731 208.924C582.963 210.809 599.517 209.641 602.833 202.527C606.149 195.387 606.149 195.387 606.149 195.387Z" fill="#D4E4F8"/>
<path d="M550.783 161.305C550.783 161.305 600.472 177.391 606.149 195.387C606.149 195.387 605.91 203.43 610.871 212.667V216.224C610.871 216.224 605.672 204.147 602.833 202.501C602.833 202.501 613.949 186.867 550.783 161.305Z" fill="#D4E4F8"/>
<path d="M610.871 212.667C610.871 212.667 618.538 224.32 614.161 238.467L612.198 237.936C612.198 237.936 614.108 222.329 610.102 214.472C606.096 206.615 610.871 212.667 610.871 212.667Z" fill="#D4E4F8"/>
<path d="M125.917 234.698V236.875C125.917 237.645 125.678 238.255 125.36 238.255H46.435C46.1432 238.255 45.8779 237.645 45.8779 236.875V234.698C45.8779 233.955 46.1167 233.318 46.435 233.318H125.36C125.678 233.318 125.917 233.955 125.917 234.698Z" fill="#77A4E5"/>
<path d="M125.916 234.698V236.875C125.916 237.645 125.704 238.255 125.412 238.255H62.7504C62.4851 238.255 62.2463 237.645 62.2463 236.875V234.698C62.2463 233.955 62.4586 233.318 62.7504 233.318H125.412C125.678 233.318 125.916 233.955 125.916 234.698Z" fill="#9FC3F7"/>
<path d="M105.94 238.255H49.9102V319.956H105.94V238.255Z" fill="#77A4E5"/>
<path d="M121.645 238.255H65.6157V319.956H121.645V238.255Z" fill="#B0D4FF"/>
<path d="M118.621 315.444H68.6135V240.564H118.621V315.444ZM69.1706 314.913H118.091V241.095H69.1706V314.913Z" fill="#77A4E5"/>
<path d="M118.356 265.329H68.8789V265.86H118.356V265.329Z" fill="#77A4E5"/>
<path d="M118.356 290.572H68.8789V291.103H118.356V290.572Z" fill="#77A4E5"/>
<path d="M98.6978 245.395H89.5187C89.0677 245.395 88.6963 245.024 88.6963 244.572C88.6963 244.121 89.0677 243.75 89.5187 243.75H98.6978C99.1488 243.75 99.5202 244.121 99.5202 244.572C99.4937 245.024 99.1488 245.395 98.6978 245.395Z" fill="#77A4E5"/>
<path d="M98.6978 270.081H89.5187C89.0677 270.081 88.6963 269.709 88.6963 269.258C88.6963 268.807 89.0677 268.435 89.5187 268.435H98.6978C99.1488 268.435 99.5202 268.807 99.5202 269.258C99.4937 269.709 99.1488 270.081 98.6978 270.081Z" fill="#77A4E5"/>
<path d="M98.6978 295.828H89.5187C89.0677 295.828 88.6963 295.456 88.6963 295.005C88.6963 294.554 89.0677 294.182 89.5187 294.182H98.6978C99.1488 294.182 99.5202 294.554 99.5202 295.005C99.4937 295.456 99.1488 295.828 98.6978 295.828Z" fill="#77A4E5"/>
<path d="M449.866 244.864C448.99 246.935 440.66 248.819 428.324 250.518C426.148 250.81 423.84 251.102 421.426 251.394C379.377 256.358 264.214 259.118 257.104 257.658C247.288 255.641 227.762 156.952 227.762 156.952C227.762 156.952 285.225 155.943 330.882 155.466C346.508 155.306 400.813 154.882 410.894 154.882C426.493 154.882 451.245 241.546 449.866 244.864Z" fill="#B0D4FF"/>
<path d="M433.948 232.203C433.948 232.203 416.306 164.57 415.032 158.89C414.475 156.368 412.724 155.439 410.947 155.2C414.051 154.908 416.306 154.882 416.306 154.882C422.408 154.882 427.846 158.996 429.809 165.101C434.08 178.426 442.57 204.04 450.555 229.071C450.131 229.044 433.948 232.203 433.948 232.203Z" fill="#B0D4FF"/>
<path d="M540.887 292.085C538.075 309.047 519.664 319.85 500.801 319.85H463.422L466.314 221.851C466.314 221.851 501.995 210.225 510.962 220.471C518.815 229.443 540.091 264.984 541.205 286.007C541.338 288.104 541.232 290.121 540.887 292.085Z" fill="#B0D4FF"/>
<path d="M540.887 292.085C538.075 309.047 519.664 319.85 500.802 319.85H482.47C494.7 312.046 505.763 288.024 540.887 292.085Z" fill="#8BB9EF"/>
<path d="M441.668 231.433C441.668 231.433 492.1 207.225 501.651 223.045C506.718 231.433 520.672 264.958 521.707 285.98C522.715 306.419 503.879 319.85 484.539 319.85H450.157L441.668 231.433Z" fill="#77A4E5"/>
<path d="M508.097 303.34C507.54 303.791 506.956 304.216 506.373 304.667C499.077 310.029 489.58 314.302 478.729 316.957C470.505 318.947 461.512 320.036 452.12 319.956H435.778H435.566L358.18 319.983H313.823H313.16V319.956L311.621 311.913L297.587 230.69C297.587 230.69 491.941 226.31 507.752 235.335C515.101 239.529 519.266 256.889 521.574 276.026C522.794 286.193 517.568 295.748 508.097 303.34Z" fill="#9FC3F7"/>
<path d="M508.097 303.34C507.54 303.791 506.956 304.216 506.373 304.667C499.077 310.029 489.58 314.302 478.729 316.957C470.505 318.947 461.512 320.036 452.12 319.956H435.778H435.566L358.18 319.983H313.823L313.16 319.956L311.621 311.913C338.814 306.658 376.432 301.322 415.669 301.721C453.155 302.119 484.539 302.066 508.097 303.34Z" fill="#8BB3EE"/>
<path d="M375.08 155.943C374.708 155.837 374.151 155.519 373.674 155.227H383.914C383.914 155.227 379.988 152.997 377.441 151.856C374.894 150.714 368.633 151.856 368.633 151.856C368.633 151.856 345.473 148.405 332.5 148.724C329.025 148.803 304.247 144.769 297.11 146.202C293.343 146.945 289.947 147.556 287.745 147.901C286.419 148.113 285.172 147.157 285.039 145.804V145.777C284.642 141.106 284.058 138.478 284.058 138.478L275.356 134.257C273.552 135.213 271.881 136.115 270.979 136.593C271.032 137.071 271.059 137.549 271.059 138.026C271.138 140.415 270.873 142.565 270.475 144.423C269.706 147.874 267 150.582 263.604 151.484H263.551C270.077 157.111 303.318 166.906 303.875 164.039C304.645 160.164 368.66 155.174 368.66 155.174C368.66 155.174 370.437 155.837 370.888 156.474C371.339 157.111 374.894 157.005 375.584 157.111C376.194 157.271 375.849 156.209 375.08 155.943Z" fill="#FFB27D"/>
<path d="M397.789 298.137C397.789 298.137 404.554 310.321 407.525 311.701C409.912 312.789 416.333 313.878 419.914 316.638C424.079 319.85 416.863 319.664 415.298 319.664C415.298 319.664 407.259 318.709 403.439 318.788C401.237 318.841 394.685 319.664 394.685 319.664C389.538 319.664 385.612 314.966 386.567 309.896C386.567 309.843 386.593 309.79 386.593 309.763C387.522 305.065 388.265 298.987 388.265 298.987L397.789 298.137Z" fill="#D9ECFF"/>
<path d="M313.664 153.395C313.532 156.554 312.63 160.031 309.817 161.863C305.361 164.756 306.501 172.294 306.528 175.267L287.453 147.954C287.453 147.954 292.733 146.6 299.073 145.91C302.92 145.485 313.054 146.653 313.054 146.653C313.054 146.653 313.823 149.838 313.664 153.395Z" fill="white"/>
<path d="M368.315 302.915C368.315 302.915 375.053 310.321 378.024 311.701C380.173 312.683 385.904 313.267 389.326 315.736C392.934 318.363 390.175 319.664 388.079 319.664C388.079 319.664 378.475 320.434 372.347 318.709C370.676 318.231 366.113 319.186 364.468 319.531C363.964 319.638 360.833 319.903 360.329 319.823C356.589 319.346 356.43 315.762 356.774 311.913C356.827 311.197 356.934 310.48 357.093 309.763C358.021 305.065 358.578 300.685 358.578 300.685L368.315 302.915Z" fill="white"/>
<path d="M401.477 298.827C401.477 298.827 399.036 300.526 396.914 301.243C393.544 302.358 387.284 301.853 387.284 301.853C387.284 301.853 371.26 270.771 367.891 262.914C364.681 255.455 362.001 239.104 362.001 239.104C359.56 238.972 341.255 241.573 325.178 239.821C316.636 238.892 309.393 236.795 306.953 232.469C299.896 220.02 322.446 206.137 322.446 206.137C322.446 206.137 366.564 214.1 376.247 221.134C385.426 227.823 401.477 298.827 401.477 298.827Z" fill="#F4904D"/>
<path d="M370.702 302.544C370.702 302.544 367.28 304.349 365.052 304.72C361.019 305.41 356.668 304.057 356.668 304.057C356.668 304.057 354.201 289.166 344.094 265.329C341.547 259.357 341.945 247.094 341.6 246.935C341.6 246.935 286.419 247.413 279.999 235.017C278.964 232.999 277.797 227.346 277.93 225.488C278.593 215.693 291.327 211.897 291.327 211.897C291.327 211.897 348.842 222.063 358.738 228.859C368.633 235.654 370.702 302.544 370.702 302.544Z" fill="#FFA561"/>
<path d="M327.062 206.535C323.719 212.534 320.217 217.259 307.377 219.489C291.194 222.302 282.334 225.726 277.877 227.08C274.454 228.115 264.612 215.56 259.916 204.359C255.38 193.503 251.507 176.594 251.48 175.294C251.082 155.147 266.389 150.316 266.389 150.263C266.389 150.263 277.744 157.987 283.952 155.306C290.054 152.652 287.533 148.113 287.454 147.98L303.849 164.092C303.849 164.092 307.536 178.24 311.993 188.486C318.732 204.04 327.99 204.89 327.062 206.535Z" fill="white"/>
<path d="M284.031 138.504C284.031 138.504 284.615 141.132 285.013 145.804C277.611 145.565 271.775 137.894 271.722 137.416C272.624 136.938 273.499 135.239 275.303 134.284L284.031 138.504Z" fill="#ED985F"/>
<path d="M285.756 143.203C285.756 143.203 270.21 142.751 270.634 133.063C271.058 123.374 269.334 116.792 279.283 116.659C289.231 116.526 291.008 120.322 291.645 123.587C292.282 126.878 289.815 143.07 285.756 143.203Z" fill="#FFB27D"/>
<path d="M271.483 136.991C271.483 136.991 270.873 133.78 272.597 131.629C272.597 131.629 271.456 128.471 272.677 127.754C273.897 127.037 274.534 129.745 275.064 129.241C275.595 128.736 277.929 126.321 278.646 123.189C279.362 120.03 290.159 122.26 291.433 122.631C291.645 122.684 291.91 122.684 292.229 122.605C294.935 121.915 295.731 118.411 293.635 116.553C293.502 116.447 293.396 116.34 293.29 116.208C292.149 115.066 284.217 107.289 275.117 111.058C266.018 114.827 265.355 119.499 266.442 123.295C267.477 127.064 267.424 136.222 271.483 136.991Z" fill="#2B478B"/>
<path d="M282.493 137.257C282.493 137.257 283.501 138.664 285.597 139.035C287.692 139.407 288.17 137.761 288.17 137.761C288.17 137.761 286.233 137.124 282.493 137.257Z" fill="white"/>
<path d="M250.684 167.729C250.684 167.729 248.509 171.179 254.796 180.257C261.057 189.335 288.541 215.587 291.274 213.384C294.006 211.181 297.455 207.756 291.088 199.316C284.721 190.875 264.373 162.022 264.373 162.022L250.684 167.729Z" fill="#FFB27D"/>
<path d="M279.389 180.151C274.215 183.044 270.395 185.354 262.463 185.327C256.494 185.301 251.559 184.159 251.559 184.159C251.559 184.159 245.431 159.182 256.892 154.059C260.845 152.28 266.389 150.263 266.389 150.263C266.389 150.263 288.674 174.975 279.389 180.151Z" fill="white"/>
<path d="M315.707 182.885L309.261 182.142C308.597 182.062 308.252 181.425 308.518 180.682L313.452 166.428C313.691 165.711 314.434 165.181 315.097 165.26L321.544 166.003C322.207 166.083 322.552 166.72 322.286 167.463L317.352 181.717C317.087 182.434 316.37 182.965 315.707 182.885Z" fill="#2A4E96"/>
<path d="M316.954 183.044L310.507 182.301C309.844 182.222 309.499 181.584 309.765 180.841L314.699 166.587C314.938 165.871 315.681 165.34 316.344 165.419L322.79 166.163C323.454 166.242 323.799 166.879 323.533 167.623L318.599 181.876C318.36 182.593 317.617 183.124 316.954 183.044Z" fill="#193D77"/>
<path d="M315.628 166.932C315.734 166.667 315.999 166.481 316.211 166.508C316.423 166.534 316.53 166.773 316.423 167.012C316.317 167.277 316.052 167.463 315.84 167.437C315.628 167.437 315.521 167.198 315.628 166.932Z" fill="white"/>
<path d="M316.768 167.118C316.821 166.959 316.981 166.853 317.113 166.879C317.246 166.906 317.299 167.039 317.246 167.171C317.193 167.331 317.034 167.437 316.901 167.41C316.768 167.41 316.715 167.278 316.768 167.118Z" fill="white"/>
<path d="M310.083 175.559C310.083 175.559 289.894 195.706 287.454 198.971C285.013 202.235 289.656 213.543 290.451 213.437C291.274 213.357 300.347 205.129 303.637 198.307C306.926 191.459 312.948 181.558 312.948 181.558L310.083 175.559Z" fill="#FFB27D"/>
<path d="M312.709 184.08C312.709 184.08 316.928 181.293 319.103 179.965C321.278 178.638 323.056 170.038 322.048 170.197C321.04 170.33 312.683 173.966 309.897 178.134C307.112 182.301 312.709 184.08 312.709 184.08Z" fill="#FFB27D"/>
<path d="M308.73 178.85C308.73 178.85 309.552 175.851 309.393 175.373C309.234 174.869 310.985 172.321 311.356 171.392C311.728 170.436 312.205 168.976 312.709 169.64C313.213 170.303 313.081 171.657 312.709 172.692C312.338 173.728 313.293 175.32 313.293 175.32L312.099 177.364L308.73 178.85Z" fill="#FFB27D"/>
<path d="M351.522 292.961C348.497 309.418 331.863 319.85 314.805 319.85H280.423L283.103 220.975C283.103 220.975 315.893 210.198 324.143 220.444C331.359 229.416 350.938 264.958 351.973 285.98C352.105 288.422 351.946 290.758 351.522 292.961Z" fill="#D2E3FC"/>
<path d="M351.522 292.961C348.497 309.418 331.864 319.85 314.805 319.85H287.294C300.188 311.648 317.511 288.953 351.522 292.961Z" fill="#AFCDFB"/>
<path d="M331.863 293.653C330.484 300.156 327.009 305.677 322.207 309.95C319.342 312.499 316.052 314.622 312.444 316.215C308.014 318.179 303.185 319.4 298.224 319.772C297.959 319.798 297.72 319.798 297.455 319.825C297.243 319.825 297.057 319.851 296.845 319.851C296.5 319.878 296.155 319.878 295.81 319.878C295.624 319.878 295.439 319.878 295.253 319.878H260.871V319.851C260.208 319.851 259.545 319.878 258.881 319.878C255.353 319.931 251.639 319.957 248.217 319.984C247.633 319.984 247.076 319.984 246.519 320.01C246.307 320.01 246.094 320.01 245.909 320.01C242.513 320.037 239.515 320.037 237.393 320.037C234.395 320.01 231.556 319.825 228.903 319.426C225.455 318.922 222.324 318.073 219.432 316.878C218.928 316.666 218.398 316.427 217.92 316.188C217.416 315.949 216.912 315.684 216.435 315.418C215.135 314.702 213.888 313.905 212.694 313.03C209.643 310.747 207.017 307.827 204.762 304.27C203.196 301.775 201.817 298.988 200.65 295.829C199.191 291.98 198.023 287.601 197.095 282.664C197.068 282.531 197.042 282.425 197.015 282.292C196.591 280.036 196.246 277.647 195.954 275.125C195.821 273.984 195.689 272.816 195.583 271.622C195.185 267.401 194.893 262.889 194.76 258.031C194.76 257.607 194.734 257.182 194.734 256.757C194.734 256.651 194.734 256.571 194.734 256.465C194.654 252.616 194.654 248.555 194.707 244.282C194.734 242.397 194.787 240.486 194.84 238.548C194.866 237.672 194.893 236.77 194.946 235.867C195.132 231.328 195.37 226.551 195.715 221.587C195.874 219.357 196.034 217.075 196.193 214.739C196.936 205.13 197.917 194.751 199.138 183.55C200.517 170.836 202.135 161.944 204.47 159.926C207.919 156.927 215.108 155.732 220.096 155.255C223.2 154.963 225.455 154.936 225.455 154.936C225.561 154.936 225.667 154.936 225.799 154.936C225.879 154.936 225.959 154.936 226.038 154.936C226.224 154.936 226.41 154.963 226.595 154.963C226.701 154.963 226.808 154.989 226.914 154.989C226.993 154.989 227.046 155.016 227.126 155.016C227.232 155.016 227.338 155.042 227.444 155.069C227.63 155.095 227.816 155.122 228.001 155.175C228.134 155.201 228.267 155.228 228.373 155.255H228.399C228.479 155.281 228.585 155.308 228.665 155.308C228.85 155.361 229.009 155.387 229.169 155.44C229.275 155.467 229.407 155.52 229.514 155.547C229.593 155.573 229.673 155.6 229.752 155.626C230.707 155.945 231.609 156.369 232.485 156.9C235.456 158.679 237.791 161.598 238.931 165.182C242.911 177.657 250.047 199.98 257.449 223.312C257.475 223.418 257.528 223.551 257.555 223.657C257.979 224.984 258.404 226.338 258.828 227.692C258.881 227.825 258.908 227.957 258.961 228.09C258.988 228.17 259.014 228.223 259.041 228.302C259.465 228.117 259.89 227.931 260.341 227.772C260.367 227.772 260.367 227.745 260.394 227.745C262.171 227.002 264.187 226.179 266.363 225.356C267.477 224.931 268.644 224.48 269.865 224.055C273.26 222.834 276.921 221.613 280.635 220.578C282.28 220.1 283.952 219.676 285.596 219.304C287.719 218.8 289.815 218.402 291.857 218.083C291.937 218.083 291.99 218.057 292.043 218.057C292.282 218.03 292.521 217.977 292.759 217.95C294.192 217.765 295.624 217.605 296.977 217.526C303.981 217.128 309.765 218.428 312.417 222.834C313.399 224.48 314.725 227.081 316.238 230.373C319.342 237.168 323.215 246.856 326.398 256.969C329.555 267.029 332.049 277.488 332.474 285.955C332.58 288.636 332.367 291.211 331.863 293.653Z" fill="#77A4E5"/>
<path d="M243.096 232.203C243.096 232.203 225.454 164.57 224.181 158.89C223.624 156.368 221.873 155.439 220.095 155.2C223.199 154.908 225.454 154.882 225.454 154.882C231.556 154.882 236.995 158.996 238.958 165.101C243.229 178.426 251.108 203.005 259.067 228.036C258.642 228.036 243.096 232.203 243.096 232.203Z" fill="#D2E3FC"/>
<path d="M403.572 182.885C403.572 182.885 405.509 187.902 418.269 189.07C431.03 190.238 436.919 191.061 444.799 183.204C449.945 178.081 451.431 176.143 451.431 176.143L450.051 173.542C450.051 173.542 436.787 181.664 434.187 181.664C418.057 181.797 402.272 174.471 403.572 182.885Z" fill="#F2A470"/>
<path d="M410.814 178.399L423.336 180.868C423.336 180.868 424.424 184.451 421.028 187.212C417.632 189.999 410.814 178.399 410.814 178.399Z" fill="white"/>
<path d="M437.928 189.096C437.928 189.096 414.953 220.949 420.286 225.726C425.618 230.531 430.473 229.761 435.752 228.726C441.058 227.691 448.115 201.333 447.69 198.201C447.292 195.069 444.268 185.433 437.928 189.096Z" fill="#F2A470"/>
<path d="M437.927 189.096C437.927 189.096 438.034 200.245 440.395 208.898C442.729 217.551 445.886 229.522 445.886 229.522H452.174C452.174 229.522 449.494 196.794 449.653 192.812C449.813 188.778 445.117 182.168 437.927 189.096Z" fill="#F2A470"/>
<path d="M428.961 202.554C428.961 202.554 427.608 216.702 441.88 219.728C441.88 219.728 440.607 229.894 435.407 230.69C430.207 231.486 413.096 230.531 409.647 228.726C409.647 228.726 418.641 213.198 428.961 202.554Z" fill="#2C3A64"/>
<path d="M451.908 226.47C451.908 226.47 454.827 230.318 456.392 230.531C457.957 230.743 461.406 231.46 461.087 232.84C460.769 234.194 455.278 234.831 451.908 234.194C448.539 233.557 445.09 235.388 445.886 229.496L444.294 223.497C444.294 223.497 447.823 224.001 451.59 222.355L451.908 225.62V226.47Z" fill="white"/>
<path d="M421.506 188.566C421.32 184.557 420.657 181.983 416.916 180.523C411.372 178.346 400.442 178.107 393.571 182.275C392.403 182.991 389.3 190.822 391.873 207.783C393.571 219.011 395.56 230.504 409.037 229.124C422.514 227.744 429.624 226.947 428.987 223.895C428.35 220.842 422.647 207.013 422.222 201.758C421.983 198.785 421.718 192.972 421.506 188.566Z" fill="white"/>
<path d="M429.04 189.096C429.04 189.096 406.066 220.949 411.398 225.726C416.731 230.531 421.586 229.761 426.865 228.726C432.171 227.691 439.228 201.333 438.803 198.201C438.379 195.069 435.354 185.433 429.04 189.096Z" fill="#FFB27D"/>
<path d="M429.04 189.096C429.04 189.096 429.146 200.245 431.507 208.898C433.842 217.551 436.999 229.522 436.999 229.522H443.286C443.286 229.522 440.607 196.794 440.766 192.812C440.899 188.778 436.203 182.168 429.04 189.096Z" fill="#FFB27D"/>
<path d="M420.073 202.554C420.073 202.554 418.72 216.702 432.993 219.728C432.993 219.728 431.72 229.894 426.52 230.69C421.32 231.486 404.209 230.531 400.76 228.726C400.734 228.726 409.727 213.198 420.073 202.554Z" fill="#2A4E96"/>
<path d="M443.021 226.47C443.021 226.47 445.939 230.318 447.505 230.531C449.07 230.743 452.519 231.46 452.2 232.84C451.882 234.194 446.39 234.831 443.021 234.194C439.652 233.557 436.203 235.388 436.999 229.496L435.407 223.497C435.407 223.497 438.936 224.001 442.703 222.355L443.021 225.62V226.47Z" fill="white"/>
<path d="M452.757 171.126L440.925 172.48C440.58 172.507 440.315 172.692 440.289 172.878L439.413 179.753C439.387 180.045 439.864 180.284 440.368 180.204L451.882 178.426C452.2 178.373 452.412 178.213 452.466 178.028L453.659 171.551C453.712 171.312 453.261 171.073 452.757 171.126Z" fill="#9E332E"/>
<path d="M453.766 171.02L441.934 172.374C441.589 172.427 441.324 172.586 441.297 172.772L440.422 179.647C440.395 179.939 440.873 180.178 441.377 180.098L452.89 178.32C453.209 178.267 453.421 178.107 453.474 177.922L454.668 171.445C454.747 171.206 454.27 170.967 453.766 171.02Z" fill="#B5453C"/>
<path d="M454.482 172.613C454.482 172.613 453.659 171.604 452.651 171.498C451.272 171.339 451.219 172.746 451.802 173.807C452.439 174.922 453.765 175.798 454.004 175.612C454.243 175.426 455.092 173.621 454.482 172.613Z" fill="#FFB27D"/>
<path d="M454.482 172.613C454.482 172.613 455.649 174.789 453.739 176.621L454.482 172.613Z" fill="#FFB27D"/>
<path d="M393.65 186.15C393.65 186.15 395.587 191.167 408.347 192.335C421.108 193.503 426.997 194.325 434.876 186.469C440.023 181.346 441.509 179.408 441.509 179.408L440.129 176.807C440.129 176.807 426.864 184.929 424.265 184.929C408.108 185.062 392.35 177.762 393.65 186.15Z" fill="#FFB27D"/>
<path d="M447.425 175.718C446.947 175.639 445.913 175.241 444.878 174.949C445.197 174.71 445.541 174.418 445.648 174.099C445.833 173.515 445.966 173.329 445.329 173.515C444.719 173.701 442.544 174.71 442.544 174.71C441.297 175.081 440.156 176.807 440.156 176.807L441.536 179.408C441.536 179.408 443.286 178.612 444.639 178.851C446.019 179.089 449.176 178.851 449.866 177.736C450.529 176.621 448.221 175.878 447.425 175.718Z" fill="#FFB27D"/>
<path d="M404.872 178.16C404.872 178.16 400.654 177.391 395.64 180.417C390.626 183.443 392.085 190.662 392.085 190.662L397.948 192.866C397.948 192.866 396.223 183.23 404.819 181.346L404.872 178.16Z" fill="white"/>
<path d="M410.098 182.646C411.876 182.381 412.751 180.39 411.823 178.824C411.531 178.32 411.292 177.789 411.159 177.231C411.106 177.072 411.08 176.913 411.027 176.727C410.735 175.347 410.762 173.913 410.868 172.772C410.868 172.666 410.894 172.586 410.894 172.48C411.027 171.392 411.213 170.675 411.213 170.675L403.333 166.587C403.466 168.658 403.36 170.516 403.095 172.135C402.67 174.869 401.927 176.833 401.529 177.736C401.291 180.894 405.031 181.558 408.188 182.46C408.798 182.62 409.382 182.699 409.939 182.62C410.019 182.673 410.045 182.673 410.098 182.646Z" fill="#FFB27D"/>
<path d="M411.133 177.258C407.764 177.55 403.121 172.188 403.121 172.188C406.543 171.578 409.17 172.002 410.867 172.825C410.761 173.967 410.708 175.4 411.027 176.78C411.053 176.913 411.106 177.099 411.133 177.258Z" fill="#E8945B"/>
<path d="M413.202 174.259C413.202 174.259 404.235 176.594 401.184 169.454C397.895 161.756 401.556 156.182 404.607 155.811C410.682 155.094 414.184 157.403 415.245 159.872C416.306 162.314 418.136 173.038 413.202 174.259Z" fill="#FFB27D"/>
<path d="M409.674 170.25C409.674 170.25 410.045 171.179 412.406 170.675C412.406 170.675 414.396 170.25 414.184 169.215C414.184 169.189 412.115 168.737 409.674 170.25Z" fill="white"/>
<path d="M402.776 171.949C402.776 171.949 401.742 168.87 401.874 167.224C401.874 167.224 399.54 164.225 400.919 163.508C402.272 162.765 403.015 164.544 403.333 164.198C403.652 163.853 404.156 157.987 405.801 158.2C407.445 158.385 413.547 160.323 416.253 158.014C418.933 155.705 412.486 146.653 401.45 150.077C390.414 153.528 392.589 165.791 402.776 171.949Z" fill="#2C3A64"/>
<path d="M395.984 154.855C395.984 154.855 395.48 153.369 396.038 152.307C396.038 152.307 396.064 153.767 396.621 154.43C397.205 155.067 395.984 154.855 395.984 154.855Z" fill="#2C3A64"/>
<path d="M396.224 153.82C396.224 153.82 394.871 153.661 394.208 154.696C394.208 154.696 395.163 154.059 396.144 154.749L396.224 153.82Z" fill="#2C3A64"/>
<path d="M412.725 211.101C412.725 211.101 411.107 226.443 405.456 229.92C399.805 233.371 392.748 220.842 392.669 212.72C392.589 204.598 412.725 211.101 412.725 211.101Z" fill="white"/>
<path d="M211.712 194.564C206.168 193.37 200.411 195.069 196.299 198.971C194.495 200.696 192.505 202.846 190.675 205.394C186.165 211.712 194.813 217.949 193.646 220.099C192.505 222.249 189.826 223.922 190.993 228.381C192.16 232.84 199.854 238.627 202.348 238.892C227.763 241.493 238.799 227.478 230.283 219.94C221.794 212.375 225.242 201.413 218.345 197.166C216.276 195.839 213.941 195.042 211.712 194.564Z" fill="#233862"/>
<path d="M198.793 233.636C198.793 233.636 174.863 244.068 170.513 243.882C166.162 243.696 139.394 235.733 139.394 235.733L140.084 240.352C140.084 240.352 160.75 252.244 167.966 252.907C175.076 253.571 199.376 246.51 201.738 245.024C204.072 243.537 205.611 235.149 198.793 233.636Z" fill="#ED985F"/>
<path d="M195.875 245.05C197.97 246.51 200.623 247.705 203.913 248.474C216.302 251.341 221.077 240.856 222.855 233.663C221.157 232.707 219.565 232.469 218.663 232.362C217.761 232.256 216.833 232.177 216.037 232.15C214.657 231.088 212.561 226.709 212.11 219.94L211.527 220.099L201.764 222.754C201.764 222.754 202.215 225.859 202.427 228.806C202.586 231.115 202.613 233.291 202.188 233.849C201.419 234.008 200.968 234.114 200.968 234.114C200.835 234.327 197.997 238.998 195.875 245.05Z" fill="#FFB27D"/>
<path d="M201.764 222.754C201.764 222.754 202.215 225.859 202.427 228.806C207.972 228.248 210.545 222.966 211.527 220.073L201.764 222.754Z" fill="#ED985F"/>
<path d="M200.119 225.673C200.119 225.673 213.251 224.957 212.694 216.755C212.11 208.579 213.437 202.979 205.001 203.085C196.591 203.191 195.185 206.429 194.707 209.216C194.23 212.003 196.67 225.647 200.119 225.673Z" fill="#FFB27D"/>
<path d="M194.76 204.651C196.617 202.05 198.183 202.474 199.085 203.164C205.982 198.705 211.023 204.2 211.023 204.2C212.323 210.013 216.806 213.065 216.806 213.065C216.806 213.065 214.471 214.923 208.9 213.702C201.764 212.11 199.323 205.925 198.978 204.969C198.236 205.739 197.254 206.244 196.511 207.916C195.636 209.907 195.079 211.074 195.052 214.366C195.079 214.392 191.975 208.553 194.76 204.651Z" fill="#233862"/>
<path d="M226.622 271.78C227.816 265.701 231.689 241.467 227.816 233.636C226.436 230.823 220.971 230.584 214.976 230.823C213.118 232.017 206.009 236.583 203.117 235.999C203.09 235.999 203.037 235.972 202.958 235.972C201.578 235.627 201.074 234.672 202.215 233.822C202.215 233.822 199.244 233.53 195.583 234.22C193.513 234.619 187.889 237.512 187.889 237.512C187.889 237.512 190.701 242.608 194.866 244.387C194.15 250.73 195.211 253.518 201.79 268.143C207.335 280.512 201.048 291.661 201.048 291.661C201.048 291.661 233.732 317.939 233.917 304.561C234.024 294.501 225.083 279.53 226.622 271.78Z" fill="#B5453C"/>
<path d="M199.403 320.275C197.625 320.062 196.033 319.107 195.025 317.62C194.866 317.381 194.707 317.142 194.521 316.85C190.807 311.223 189.348 293.97 180.991 275.575C178.949 271.089 171.627 270.293 169.637 265.223C169.637 265.223 164.729 248.819 179.028 248.342C193.328 247.864 217.336 293.97 217.734 298.801C218.106 303.499 227.179 323.407 199.403 320.275Z" fill="#ED833B"/>
<path d="M142.524 319.903H162.899C162.899 319.903 163.668 316.665 162.315 314.435C161.121 312.471 161.572 311.356 162.474 309.737C161.546 310.108 160.352 310.454 159.052 310.374C158.044 310.321 156.956 309.843 156.028 309.312C155.152 310.321 151.385 314.568 150.218 315.417C148.865 316.373 142.922 316.028 142.524 319.903Z" fill="#9E332E"/>
<path d="M224.473 240.007C224.473 240.007 227.126 264.135 209.935 269.178C192.744 274.222 187.863 246.988 201.737 245.024C215.612 243.059 224.473 240.007 224.473 240.007Z" fill="#9E332E"/>
<path d="M169.16 253.093C167.939 262.303 163.137 291.316 154.701 305.49C151.969 310.055 161.572 312.604 161.625 312.604C162.899 312.258 165.048 310.215 166.029 309.339C172.9 303.154 186.802 285.635 186.802 271.594C186.802 264.745 186.934 251.686 181.947 248.342C178.896 246.298 169.664 249.43 169.16 253.093Z" fill="#ED833B"/>
<path d="M211.527 319.903C211.527 319.903 210.784 318.841 209.457 316.851C207.892 314.488 206.168 309.817 204.045 303.818C201.843 297.527 199.217 289.803 195.954 281.76C194.946 279.265 193.858 276.77 192.717 274.248C190.675 269.762 185.077 270.399 183.087 265.329C183.087 265.329 175.314 247.784 189.613 247.306C203.913 246.829 231.105 294.235 232.67 298.827C234.395 303.844 242.725 324.707 211.527 319.903Z" fill="#FFA561"/>
<path d="M157.487 319.903H177.861C177.861 319.903 178.631 316.665 177.278 314.435C176.084 312.471 176.535 311.356 177.437 309.737C176.508 310.108 175.315 310.454 174.015 310.374C173.007 310.321 171.919 309.843 170.99 309.312C170.115 310.321 166.348 314.568 165.18 315.417C163.827 316.373 157.885 316.028 157.487 319.903Z" fill="#B5453C"/>
<path d="M204.072 303.818C201.87 297.527 199.244 289.803 195.981 281.76C196.83 275.655 198.687 270.32 201.791 268.17C201.764 268.17 209.298 291.501 204.072 303.818Z" fill="#F4904D"/>
<path d="M181.045 252.429C179.824 261.64 178.1 291.316 169.637 305.49C166.905 310.055 176.508 312.604 176.561 312.604C177.835 312.258 179.984 310.215 180.965 309.339C187.836 303.154 201.738 285.635 201.738 271.594C201.738 264.746 193.699 252.217 188.738 248.899C185.687 246.855 181.549 248.793 181.045 252.429Z" fill="#FFA561"/>
<path d="M136.979 223.868L157.831 221.665C158.442 221.612 159.025 221.957 159.238 222.515L166.692 242.13C167.011 242.98 166.4 243.909 165.498 243.962L144.806 244.785C144.248 244.811 143.718 244.466 143.506 243.962L135.892 225.726C135.52 224.904 136.077 223.975 136.979 223.868Z" fill="#9E332E"/>
<path d="M135.149 224.081L156.001 221.878C156.611 221.825 157.195 222.17 157.407 222.728L164.888 242.343C165.207 243.193 164.596 244.122 163.694 244.175L143.002 244.998C142.445 245.024 141.914 244.679 141.702 244.175L134.088 225.939C133.716 225.09 134.274 224.161 135.149 224.081Z" fill="#B5453C"/>
<path d="M146.716 233.238C146.451 232.548 146.822 231.964 147.512 231.964C148.202 231.964 148.997 232.522 149.236 233.238C149.501 233.928 149.13 234.512 148.44 234.512C147.751 234.512 146.981 233.928 146.716 233.238Z" fill="#9E332E"/>
<path d="M135.786 225.912C135.653 225.567 135.839 225.302 136.184 225.302C136.529 225.302 136.9 225.594 137.033 225.912C137.165 226.257 136.98 226.523 136.635 226.523C136.29 226.549 135.918 226.257 135.786 225.912Z" fill="#9E332E"/>
<path d="M222.881 233.636C222.881 233.636 193.964 244.28 189.64 244.068C186.828 243.935 163.509 235.733 163.509 235.733L161.413 239.688C161.413 239.688 184.122 254.287 190.356 254.234C202.693 254.102 223.492 246.51 225.826 245.024C228.161 243.537 229.699 235.149 222.881 233.636Z" fill="#FFB27D"/>
<path d="M163.482 235.733C163.482 235.733 161.387 232.495 159.291 232.415C157.195 232.309 153.613 233.849 152.367 234.088C151.146 234.327 147.618 235.468 148.679 237.167C149.714 238.866 154.569 239.264 156.638 238.866C158.734 238.494 161.387 239.688 161.387 239.688L163.482 235.733Z" fill="#FFB27D"/>
<path d="M159.874 232.522C159.874 232.522 156.558 231.009 155.603 230.717C154.648 230.425 154.834 230.717 155.126 231.619C155.417 232.522 157.115 233.371 157.115 233.663C157.115 233.929 159.874 232.522 159.874 232.522Z" fill="#FFB27D"/>
<path d="M137.298 234.035C137.298 234.035 139.394 230.717 140.083 230.584C142.179 230.159 142.179 232.92 141.728 234.698C141.251 236.609 139.659 238.388 139.208 238.229C138.757 238.069 136.82 235.786 137.298 234.035Z" fill="#FFB27D"/>
<path d="M137.218 234.698C137.218 234.698 136.555 238.414 140.083 240.352L139.049 237.804L137.218 234.698Z" fill="#FFB27D"/>
<path d="M197.652 220.975C197.652 220.975 198.899 220.471 202.401 220.763C202.401 220.763 202.215 222.117 199.642 222.276C198.156 222.329 197.652 220.975 197.652 220.975Z" fill="white"/>
<path d="M207.972 238.892C207.972 238.892 210.545 247.068 219.433 248.952C219.433 248.952 234.103 244.44 226.781 234.433C226.808 234.433 219.592 229.071 207.972 238.892Z" fill="#B5453C"/>
<path d="M721.446 320.62L575.933 319.85C554.338 294.979 552.056 262.144 580.92 233.955C584.555 230.425 591.505 227.903 598.987 226.151C612.782 222.913 628.434 222.223 628.567 222.143C628.62 222.117 636.844 215.481 641.831 209.508C657.245 190.954 670.324 192.574 670.324 192.574C686.003 189.574 699.347 188.725 709.242 194.272C718.395 199.422 724.576 210.066 726.831 229.602C727.256 233.291 727.547 237.3 727.68 241.653C728.211 257.499 731.288 271.62 733.092 283.538C735.745 300.898 735.745 313.665 721.446 320.62Z" fill="#FFA561"/>
<path d="M701.416 214.18C691.892 219.33 690.778 236.397 675.895 240.75C661.012 245.103 635.756 244.626 621.377 260.127C607.502 275.071 592.381 236.875 598.987 226.178C612.782 222.939 628.434 222.249 628.567 222.17C628.62 222.143 636.844 215.507 641.831 209.535C657.245 190.981 670.324 192.6 670.324 192.6C686.003 189.601 699.347 188.751 709.242 194.299C714.256 199.82 710.94 209.031 701.416 214.18Z" fill="#F4904D"/>
<path d="M643.052 218.905C643.052 218.905 595.352 218.135 588.985 222.196C582.618 226.257 595.352 290.917 595.352 290.917C595.352 290.917 607.688 291.315 608.67 288.051C608.67 288.051 606.441 257.764 608.405 252.509C610.341 247.28 609.147 240.033 609.147 240.033C609.147 240.033 633.262 243.723 640.929 241.891C648.596 240.06 643.052 218.905 643.052 218.905Z" fill="#233862"/>
<path d="M654.194 185.54C654.194 185.566 647.429 201.174 644.166 202.819C640.903 204.465 629.018 218.055 626.471 217.816C623.924 217.578 629.442 219.887 629.442 219.887C629.442 219.887 650.162 210.384 651.382 209.8C652.576 209.216 658.969 198.785 659.845 193.503C660.694 188.194 654.194 185.54 654.194 185.54Z" fill="#FFB27D"/>
<path d="M597.978 287.626C597.978 287.626 600.684 294.899 600.127 297.606C599.544 300.314 600.472 305.543 599.384 307.879C598.27 310.215 596.307 313.612 598.191 314.488C598.907 314.807 607.264 308.33 607.741 306.419C608.219 304.508 608.59 298.854 610.182 295.801C611.774 292.749 610.447 290.28 608.139 289.139C605.831 288.024 602.621 281.84 602.621 281.84L597.978 287.626Z" fill="white"/>
<path d="M589.887 299.597C589.887 299.597 587.261 306.897 585.085 308.595C582.91 310.294 580.23 314.886 577.896 315.948C575.535 317.01 571.847 318.337 572.749 320.222C573.094 320.938 583.653 321.363 585.244 320.222C586.836 319.08 590.762 314.993 593.972 313.692C597.182 312.391 597.74 309.631 596.705 307.268C595.67 304.906 597.182 298.137 597.182 298.137L589.887 299.597Z" fill="white"/>
<path d="M667.91 178.638C666.928 177.523 682.288 172.931 685.525 185.539C685.525 185.539 713.779 178.107 696.455 165.473C690.459 161.093 689.876 156.448 689 152.201C688.151 147.954 682.182 135.717 671.756 141.743C671.756 141.743 667.008 141.743 663.983 144.344C657.165 150.237 649.578 187.902 667.91 178.638Z" fill="#163560"/>
<path d="M662.975 221.188C662.975 221.188 613.498 226.072 609.147 231.115C604.796 236.158 587.526 301.8 587.526 301.8C587.526 301.8 592.566 304.64 597.156 302.013C597.156 302.013 610.314 279.769 616.124 272.788C621.934 265.807 624.163 244.227 625.118 243.988C626.073 243.776 657.059 248.395 667.75 240.246C678.441 232.07 662.975 221.188 662.975 221.188Z" fill="#2A4E96"/>
<path d="M690.645 176.355C690.645 176.355 678.866 171.047 663.904 173.409C660.853 173.887 658.094 174.896 655.892 178.479C652.788 183.549 651.329 186.283 651.329 186.283C651.329 186.283 651.621 188.645 655.839 190.53C654.671 194.75 656.847 202.129 654.831 204.969C652.788 207.836 640.213 214.87 639.576 218.825C638.409 226.072 660.985 239.264 667.75 237.883C687.17 233.928 700.487 181.93 690.645 176.355Z" fill="white"/>
<path d="M684.013 161.411C684.013 161.411 686.347 156.846 686.666 153.077C686.904 150.396 684.649 140.734 674.966 143.043C674.966 143.043 672.128 143.574 669.634 145.645C667.644 147.29 664.832 150.661 669.05 158.89L670.217 161.703L684.013 161.411Z" fill="#163560"/>
<path d="M670.695 176.807C669.714 177.842 670.085 181.266 674.675 181.027C677.673 180.868 684.146 177.152 683.562 174.577C683.27 173.356 680.962 170.197 680.458 162.924L679.901 163.084L670.695 165.632C670.695 165.632 671.12 168.552 671.359 171.312C671.518 173.675 671.093 176.382 670.695 176.807Z" fill="#FFB27D"/>
<path d="M670.695 165.658C670.695 165.658 671.12 168.578 671.359 171.339C676.558 170.808 678.972 165.818 679.901 163.084L670.695 165.658Z" fill="#F4A269"/>
<path d="M670.483 169.905C670.483 169.905 682.501 166.906 680.538 159.447C678.548 151.988 678.787 146.574 671.014 148.166C663.24 149.759 662.524 152.997 662.577 155.651C662.63 158.306 667.299 170.489 670.483 169.905Z" fill="#FFB27D"/>
<path d="M665.522 149.44C665.522 149.44 669.528 157.138 677.142 157.987C681.599 158.492 682.819 161.438 682.819 161.438C682.819 161.438 681.519 153.024 679.291 147.901C679.264 147.874 666.875 144.609 665.522 149.44Z" fill="#163560"/>
<path d="M666.901 150.449C666.901 150.449 664.249 153.13 663.453 155.014C662.232 157.828 664.567 163.747 665.548 165.021C665.548 165.021 659.978 155.519 661.861 151.404C663.824 147.051 666.901 150.449 666.901 150.449Z" fill="#163560"/>
<path d="M630.026 219.621C630.026 219.621 627.638 222.143 627.32 222.276C625.728 223.019 623.738 222.568 622.757 222.807C621.802 223.046 621.961 222.435 622.677 221.957C623.394 221.479 625.144 221.665 624.428 221.479C623.712 221.294 619.839 220.577 618.38 220.949C616.071 221.559 614.241 220.816 614.108 220.604C613.976 220.365 619.388 217.737 620.926 217.817C622.465 217.923 626.922 217.71 626.922 217.71L630.026 219.621Z" fill="#FFB27D"/>
<path d="M694.704 181.027C694.704 181.027 709.507 214.764 705.369 219.701C701.23 224.612 672.552 218.533 672.552 218.533L673.454 215.401C673.454 215.401 694.571 214.18 696.084 213.755C698.259 213.145 685.472 189.468 685.472 189.468L694.704 181.027Z" fill="#FFB27D"/>
<path d="M689.16 175.798C689.504 175.798 693.961 177.284 697.145 183.628C700.276 189.866 701.416 192.892 701.416 192.892C701.416 192.892 687.435 203.669 681.89 199.661C676.372 195.679 684.039 175.639 689.16 175.798Z" fill="white"/>
<path d="M675.895 215.268C675.895 215.268 673.507 213.702 672.526 212.853C671.57 212.003 665.946 211.287 665.946 211.871C665.946 212.455 669.209 213.224 669.581 213.782C669.926 214.339 671.915 216.702 673.64 216.702C675.338 216.702 675.895 215.268 675.895 215.268Z" fill="#FFB27D"/>
<path d="M643.609 196.157L664.646 199.979C665.256 200.085 665.814 200.563 666.026 201.121L672.711 220.471C673.003 221.32 672.34 221.957 671.438 221.745L650.612 216.755C650.055 216.622 649.551 216.197 649.339 215.666L642.441 197.484C642.097 196.661 642.707 195.998 643.609 196.157Z" fill="#233862"/>
<path d="M641.778 195.812L662.816 199.634C663.426 199.74 663.983 200.218 664.196 200.776L670.881 220.126C671.173 220.975 670.51 221.612 669.608 221.4L648.782 216.41C648.225 216.277 647.721 215.852 647.509 215.321L640.611 197.139C640.266 196.316 640.876 195.653 641.778 195.812Z" fill="#2A4E96"/>
<path d="M653 207.093C652.761 206.403 653.159 206.005 653.876 206.19C654.592 206.376 655.335 207.093 655.547 207.783C655.786 208.473 655.388 208.871 654.672 208.686C653.982 208.5 653.239 207.783 653 207.093Z" fill="white"/>
<path d="M642.309 197.617C642.202 197.272 642.388 197.086 642.733 197.166C643.078 197.272 643.449 197.617 643.556 197.962C643.662 198.307 643.476 198.493 643.131 198.413C642.813 198.307 642.441 197.962 642.309 197.617Z" fill="white"/>
<path d="M672.552 218.56C672.552 218.56 668.201 218.613 667.114 218.347C666.026 218.082 663.24 214.605 663.983 213.755C664.461 213.198 667.061 214.207 668.281 214.207C669.501 214.207 672.738 212.428 674.94 216.091C675.178 216.489 672.552 218.56 672.552 218.56Z" fill="#FFB27D"/>
<path d="M691.202 226.894C691.202 226.894 686.507 231.274 666.902 231.831C647.297 232.389 621.669 253.995 621.404 260.127C621.139 266.258 660.826 275.681 661.463 274.806C662.073 273.93 686.719 252.881 686.719 252.881L691.202 226.894Z" fill="#FFA561"/>
<path d="M733.118 283.591C722.613 264.533 698.445 290.705 692.476 281.813C686.507 272.921 700.992 261.693 714.07 252.031C726.884 242.555 726.857 230.133 726.857 229.628C727.282 233.318 727.574 237.326 727.706 241.679C728.21 257.552 731.288 271.647 733.118 283.591Z" fill="#F4904D"/>
<path d="M93.8165 195.52C93.8165 195.52 87.7413 188.433 93.4451 183.947C93.4451 183.947 97.6102 181.425 100.979 181.638C100.979 181.638 96.1776 189.707 97.7428 190.503C99.3081 191.299 102.439 181.133 102.439 181.133C102.439 181.133 111.883 180.204 114.934 181.691C114.934 181.691 106.842 188.3 108.54 188.698C110.238 189.096 118.966 182.593 118.966 182.593C118.966 182.593 127.774 184.08 127.296 189.468C126.819 194.83 123.794 196.502 122.468 196.369C121.142 196.237 113.342 193.237 113.156 194.352C112.997 195.44 117.693 199.024 120.956 199.183C120.956 199.183 114.748 206.031 110.636 204.067C106.524 202.103 106.153 198.971 103.579 197.776C101.006 196.608 98.804 196.608 99.8652 197.803C100.926 198.997 105.569 200.165 107.055 202.766C108.514 205.368 109.84 207.119 105.569 206.482C101.298 205.845 94.3736 202.713 94.0553 199.13C93.8165 195.52 93.8165 195.52 93.8165 195.52Z" fill="#82B378"/>
<path d="M122.999 189.601C122.999 189.601 99.0959 188.672 93.8166 195.52C93.8166 195.52 92.6493 199.024 89.0679 202.209L88.5107 203.748C88.5107 203.748 92.6493 199.369 94.1349 199.103C94.1084 199.103 91.8004 190.609 122.999 189.601Z" fill="#82B378"/>
<path d="M89.0411 202.209C89.0411 202.209 83.921 206.005 83.5496 212.8L84.4781 212.879C84.4781 212.879 86.1229 205.872 89.0677 203.111C92.0389 200.377 89.0411 202.209 89.0411 202.209Z" fill="#82B378"/>
<path d="M72.5929 186.628C72.5929 186.628 82.2495 181.213 77.7396 173.887C77.7396 173.887 74.1316 169.374 70.2849 168.233C70.2849 168.233 72.3541 179.169 70.2849 179.435C68.2156 179.7 68.8788 167.092 68.8788 167.092C68.8788 167.092 58.7181 162.208 54.7387 162.579C54.7387 162.579 61.0527 173.25 58.9834 173.011C56.9141 172.746 49.8573 161.942 49.8573 161.942C49.8573 161.942 39.4313 160.005 37.76 166.189C36.0886 172.374 38.7946 175.453 40.3333 175.851C41.872 176.249 51.7674 176.117 51.5287 177.391C51.2634 178.665 44.578 180.735 40.8639 179.567C40.8639 179.567 44.9759 189.733 50.3879 189.229C55.7999 188.725 57.4712 185.38 60.8139 185.115C64.1566 184.849 66.5973 185.752 64.9259 186.654C63.2546 187.557 57.6039 186.946 54.8979 189.256C52.1919 191.565 50.0165 192.972 55.0305 194.007C60.0446 195.042 69.038 194.405 70.842 190.53C72.5929 186.628 72.5929 186.628 72.5929 186.628Z" fill="#A8D29F"/>
<path d="M42.5088 168.074C42.5088 168.074 69.5156 176.833 72.5929 186.601C72.5929 186.601 72.4603 190.981 75.1663 195.998V197.935C75.1663 197.935 72.3276 191.379 70.7889 190.477C70.8155 190.477 76.8376 181.983 42.5088 168.074Z" fill="#82B378"/>
<path d="M75.1663 195.998C75.1663 195.998 79.3314 202.315 76.9438 210.039L75.8826 209.747C75.8826 209.747 76.9172 201.253 74.7419 197.006C72.5665 192.733 75.1663 195.998 75.1663 195.998Z" fill="#82B378"/>
<path d="M87.9532 179.169C87.9532 179.169 75.2457 172.055 81.1617 162.367C81.1617 162.367 85.9104 156.421 91.0041 154.908C91.0041 154.908 88.2981 169.321 91.0041 169.666C93.71 170.012 92.8611 153.395 92.8611 153.395C92.8611 153.395 106.258 146.945 111.511 147.449C111.511 147.449 103.208 161.518 105.914 161.199C108.619 160.854 117.958 146.6 117.958 146.6C117.958 146.6 131.7 144.052 133.902 152.201C136.104 160.35 132.549 164.411 130.506 164.915C128.463 165.419 115.411 165.26 115.756 166.959C116.101 168.658 124.908 171.365 129.816 169.852C129.816 169.852 124.404 183.257 117.268 182.567C110.158 181.877 107.956 177.47 103.526 177.152C99.122 176.807 95.8854 178.001 98.1139 179.196C100.316 180.39 107.771 179.594 111.325 182.62C114.88 185.646 117.772 187.504 111.166 188.884C104.561 190.238 92.6754 189.388 90.3143 184.292C87.9532 179.169 87.9532 179.169 87.9532 179.169Z" fill="#A8D29F"/>
<path d="M127.614 154.722C127.614 154.722 92.0121 166.269 87.9531 179.143C87.9531 179.143 88.1123 184.902 84.5574 191.538V194.087C84.5574 194.087 88.298 185.433 90.3142 184.239C90.3142 184.239 82.3554 173.064 127.614 154.722Z" fill="#82B378"/>
<path d="M84.5573 191.538C84.5573 191.538 79.0658 199.873 82.1962 210.039L83.6022 209.668C83.6022 209.668 82.2227 198.493 85.1144 192.866C87.9795 187.238 84.5573 191.538 84.5573 191.538Z" fill="#82B378"/>
<path d="M112.44 207.146C112.44 220.896 101.298 232.07 87.5289 232.07C84.6637 232.07 81.9047 231.593 79.3314 230.69C69.5951 227.293 62.6179 218.029 62.6179 207.146H112.44Z" fill="#ED7D2B"/>
<path d="M96.0448 207.146C96.0448 216.489 93.8163 225.992 86.2024 230.265C84.929 230.982 80.7109 230.212 79.3313 230.69C69.5951 227.293 62.6179 218.029 62.6179 207.146H96.0448Z" fill="#F99746"/>
<path d="M112.785 233.318H62.2732C62.2732 232.469 62.6181 231.699 63.1752 231.141C63.7323 230.584 64.5016 230.239 65.3506 230.239H109.708C111.405 230.265 112.785 231.619 112.785 233.318Z" fill="#ED7D2B"/>
<path d="M89.1208 233.318H62.2732C62.2732 232.469 62.6181 231.699 63.1752 231.141C63.7323 230.584 64.5016 230.239 65.3506 230.239H86.0434C87.7413 230.265 89.1208 231.619 89.1208 233.318Z" fill="#F99746"/>
<path d="M112.997 207.146H61.7957V207.916H112.997V207.146Z" fill="#B5453C"/>
</svg>
