<svg width="627" height="400" viewBox="0 0 627 400" fill="none" xmlns="http://www.w3.org/2000/svg">
<path d="M601.415 399.052C564.504 399.052 26.7658 399.176 26.4444 398.236L26.395 398.113C26.395 398.113 26.3455 397.989 26.3455 397.94C26.1477 397.47 -56.4995 263.551 71.9832 170.308C122.269 133.836 68.8435 109.753 108.82 69.152C154.754 22.4932 204.891 74.122 255.993 52.9562C265.016 49.2225 274.089 43.2139 283.138 33.991C304.028 12.7262 332.756 2.712 362.818 0.48662C419.903 -3.7416 484.156 20.0205 517.284 54.7859C523.959 61.7835 554.319 97.9831 530.387 147.733C515.282 179.16 578.571 209.153 601.044 245.031C658.227 336.223 601.934 397.866 601.415 399.052Z" fill="#D0E5F3"/>
<path d="M498.445 325.664V327.518C498.445 328.161 498.643 328.705 498.915 328.705H566.58C566.828 328.705 567.05 328.186 567.05 327.518V325.664C567.05 325.021 566.852 324.477 566.58 324.477H498.915C498.643 324.502 498.445 325.021 498.445 325.664Z" fill="#8FADEF"/>
<path d="M498.445 325.664V327.518C498.445 328.161 498.643 328.705 498.866 328.705H552.588C552.835 328.705 553.008 328.186 553.008 327.518V325.664C553.008 325.021 552.81 324.477 552.588 324.477H498.866C498.618 324.502 498.445 325.021 498.445 325.664Z" fill="#BBD0FF"/>
<path d="M515.567 398.728H563.603V328.703H515.567V398.728Z" fill="#AEC3FF"/>
<path d="M502.096 398.728H550.131V328.703H502.096V398.728Z" fill="#D2E0FF"/>
<path d="M504.675 330.683H547.544V394.873H504.675V330.683ZM547.099 331.153H505.145V394.403H547.099V331.153Z" fill="#AEC3FF"/>
<path d="M547.321 351.923H504.922V352.393H547.321V351.923Z" fill="#AEC3FF"/>
<path d="M547.321 373.559H504.922V374.029H547.321V373.559Z" fill="#AEC3FF"/>
<path d="M521.783 334.813H529.645C530.016 334.813 530.337 334.491 530.337 334.12C530.337 333.749 530.016 333.428 529.645 333.428H521.783C521.413 333.428 521.091 333.749 521.091 334.12C521.066 334.516 521.388 334.813 521.783 334.813Z" fill="#AEC3FF"/>
<path d="M521.783 355.978H529.645C530.016 355.978 530.337 355.657 530.337 355.286C530.337 354.915 530.016 354.594 529.645 354.594H521.783C521.413 354.594 521.091 354.915 521.091 355.286C521.066 355.682 521.388 355.978 521.783 355.978Z" fill="#AEC3FF"/>
<path d="M521.783 378.059H529.645C530.016 378.059 530.337 377.738 530.337 377.367C530.337 376.996 530.016 376.674 529.645 376.674H521.783C521.413 376.674 521.091 376.996 521.091 377.367C521.066 377.738 521.388 378.059 521.783 378.059Z" fill="#AEC3FF"/>
<path d="M536.666 296.363C536.666 296.363 532.166 291.121 536.394 287.783C536.394 287.783 539.484 285.904 541.981 286.077C541.981 286.077 538.421 292.061 539.558 292.654C540.696 293.247 543.044 285.706 543.044 285.706C543.044 285.706 550.065 285.013 552.315 286.101C552.315 286.101 546.308 291.022 547.568 291.294C548.829 291.591 555.307 286.769 555.307 286.769C555.307 286.769 561.833 287.882 561.487 291.863C561.141 295.844 558.891 297.08 557.902 296.981C556.913 296.882 551.128 294.657 551.005 295.473C550.881 296.289 554.367 298.934 556.79 299.058C556.79 299.058 552.192 304.127 549.126 302.668C546.06 301.209 545.813 298.885 543.885 297.995C541.956 297.105 540.349 297.129 541.141 298.02C541.932 298.91 545.393 299.775 546.481 301.704C547.568 303.632 548.557 304.943 545.393 304.448C542.228 303.979 537.086 301.654 536.864 299.009C536.666 296.363 536.666 296.363 536.666 296.363Z" fill="#1CA61A"/>
<path d="M558.323 291.986C558.323 291.986 540.572 291.294 536.666 296.388C536.666 296.388 535.801 298.984 533.131 301.358L532.71 302.495C532.71 302.495 535.776 299.256 536.889 299.058C536.889 299.009 535.158 292.728 558.323 291.986Z" fill="#1CA61A"/>
<path d="M533.13 301.333C533.13 301.333 529.323 304.152 529.051 309.171L529.743 309.221C529.743 309.221 530.955 304.028 533.155 301.976C535.355 299.973 533.13 301.333 533.13 301.333Z" fill="#1CA61A"/>
<path d="M520.918 289.761C520.918 289.761 528.087 285.755 524.725 280.315C524.725 280.315 522.055 276.977 519.187 276.112C519.187 276.112 520.72 284.222 519.187 284.42C517.655 284.618 518.149 275.247 518.149 275.247C518.149 275.247 510.609 271.612 507.642 271.908C507.642 271.908 512.314 279.821 510.782 279.648C509.249 279.45 504.008 271.439 504.008 271.439C504.008 271.439 496.269 270.005 495.033 274.579C493.797 279.153 495.8 281.453 496.937 281.75C498.074 282.046 505.442 281.947 505.244 282.887C505.046 283.851 500.101 285.36 497.333 284.519C497.333 284.519 500.398 292.061 504.403 291.69C508.408 291.319 509.644 288.821 512.141 288.624C514.614 288.426 516.443 289.093 515.207 289.761C513.971 290.429 509.768 289.983 507.765 291.69C505.763 293.396 504.131 294.434 507.864 295.201C511.597 295.967 518.273 295.497 519.608 292.629C520.918 289.761 520.918 289.761 520.918 289.761Z" fill="#82B378"/>
<path d="M498.593 276.013C498.593 276.013 518.643 282.491 520.918 289.761C520.918 289.761 520.819 293 522.821 296.734V298.168C522.821 298.168 520.72 293.297 519.583 292.629C519.583 292.629 524.082 286.324 498.593 276.013Z" fill="#82B378"/>
<path d="M522.821 296.734C522.821 296.734 525.912 301.432 524.156 307.144L523.365 306.921C523.365 306.921 524.132 300.616 522.525 297.451C520.893 294.311 522.821 296.734 522.821 296.734Z" fill="#82B378"/>
<path d="M532.315 284.222C532.315 284.222 522.871 278.931 527.271 271.76C527.271 271.76 530.782 267.359 534.564 266.221C534.564 266.221 532.562 276.928 534.564 277.175C536.567 277.422 535.949 265.109 535.949 265.109C535.949 265.109 545.887 260.336 549.793 260.707C549.793 260.707 543.638 271.142 545.64 270.895C547.643 270.647 554.565 260.064 554.565 260.064C554.565 260.064 564.751 258.185 566.382 264.219C568.014 270.252 565.369 273.268 563.861 273.664C562.353 274.035 552.661 273.911 552.909 275.172C553.156 276.433 559.707 278.436 563.341 277.299C563.341 277.299 559.312 287.239 554.021 286.744C548.73 286.25 547.099 282.961 543.835 282.714C540.572 282.467 538.174 283.332 539.806 284.222C541.437 285.112 546.975 284.519 549.62 286.769C552.266 289.019 554.392 290.404 549.497 291.418C544.602 292.431 535.776 291.789 534.021 288.03C532.315 284.222 532.315 284.222 532.315 284.222Z" fill="#82CF46"/>
<path d="M561.734 266.122C561.734 266.122 535.306 274.678 532.29 284.247C532.29 284.247 532.413 288.525 529.768 293.42V295.3C529.768 295.3 532.537 288.871 534.045 288.005C534.07 288.005 528.161 279.697 561.734 266.122Z" fill="#D4E4F8"/>
<path d="M529.793 293.42C529.793 293.42 525.714 299.602 528.037 307.144L529.076 306.872C529.076 306.872 528.062 298.564 530.188 294.41C532.339 290.206 529.793 293.42 529.793 293.42Z" fill="#D4E4F8"/>
<path d="M531.994 323.463C542.204 323.463 550.486 315.18 550.486 304.968H513.526C513.501 315.205 521.783 323.463 531.994 323.463Z" fill="#AEC3FF"/>
<path d="M550.733 324.403H513.254C513.254 323.142 514.268 322.128 515.528 322.128H548.434C549.72 322.128 550.733 323.142 550.733 324.403Z" fill="#AEC3FF"/>
<path d="M550.906 304.992H512.908V305.561H550.906V304.992Z" fill="#BBD0FF"/>
<path d="M312.68 272.898C311.444 272.898 310.183 272.551 309.095 271.785C306.277 269.881 305.461 266.122 307.142 263.205C307.34 262.735 309.021 258.581 309.046 246.959C309.12 230.937 306.227 208.807 300.517 181.187C298.02 169.195 297.402 156.238 298.638 142.663C299.627 131.907 301.777 120.731 305.016 109.431C310.554 90.2431 317.377 77.4348 317.649 76.8909C319.33 73.7753 323.212 72.5885 326.352 74.2698C329.467 75.9512 330.653 79.8333 328.972 82.9736C328.898 83.0972 322.421 95.3368 317.254 113.313C312.556 129.657 308.032 154.235 313.076 178.591C319.454 209.326 322.396 233.607 321.803 250.743C321.358 263.724 318.984 268.595 317.971 270.079C316.759 271.908 314.757 272.898 312.68 272.898ZM307.365 262.883C307.365 262.883 307.365 262.908 307.34 262.908C307.365 262.883 307.365 262.883 307.365 262.883Z" fill="#AEC3FF"/>
<path d="M328.478 282.145C327.934 282.145 327.365 282.071 326.797 281.923C323.385 281.008 321.333 277.472 322.248 274.06C322.297 273.837 324.522 265.208 325.313 249.63C326.055 235.14 325.684 211.477 319.677 181.187C316.117 163.211 315.301 139.671 317.229 111.211C318.663 90.1442 321.086 74.5171 321.185 73.8495C321.729 70.3383 325.017 67.9399 328.527 68.4839C332.038 69.0278 334.436 72.3165 333.892 75.8276C333.867 75.976 331.445 91.6526 330.06 112.2C328.231 139.103 329.022 162.074 332.31 178.69C335.796 196.295 339.653 223.098 338.144 250.866C337.23 267.73 334.782 277.027 334.683 277.422C333.917 280.241 331.321 282.145 328.478 282.145Z" fill="#F78248"/>
<path d="M301.036 183.215C298.935 183.215 296.339 182.967 293.273 182.25C289.244 181.311 284.373 177.923 278.811 172.187C274.806 168.057 271.913 164.225 271.79 164.052L275.671 161.134C278.737 165.189 288.057 176.044 294.386 177.503C301.902 179.258 305.832 177.651 305.857 177.651L305.832 177.676L307.835 182.102C307.464 182.275 305.19 183.215 301.036 183.215Z" fill="#AEC3FF"/>
<path d="M273.001 186.726C269.243 186.726 266.746 186.38 266.499 186.33L267.191 181.533C267.339 181.558 281.06 183.462 292.729 177.725L294.88 182.077C287.043 185.935 278.613 186.726 273.001 186.726Z" fill="#AEC3FF"/>
<path d="M274.954 202.847L272.506 198.669L273.742 200.77L272.506 198.669C272.63 198.595 285.683 190.806 287.908 180.915L292.63 181.978C289.936 193.921 275.547 202.477 274.954 202.847Z" fill="#AEC3FF"/>
<path d="M318.292 184.08C310.95 184.08 307.068 183.165 306.846 183.091L308.428 176.712C311.073 177.33 319.232 178.146 331.074 176.637C345.808 174.783 366.204 160.095 366.402 159.947L370.259 165.263C369.369 165.906 348.281 181.063 331.89 183.14C326.5 183.858 321.976 184.08 318.292 184.08Z" fill="#AEC3FF"/>
<path d="M369.591 187.591C359.579 187.591 344.572 186.825 330.629 183.091L332.335 176.736C354.461 182.671 380.37 180.693 380.642 180.668L381.162 187.22C380.717 187.245 376.267 187.591 369.591 187.591Z" fill="#AEC3FF"/>
<path d="M367.317 203.861C367.045 203.762 360.568 201.685 353.423 198.174C343.385 193.229 337.155 188.012 334.955 182.671L341.037 180.149C342.57 183.882 348.009 188.185 356.34 192.265C363.065 195.578 369.295 197.581 369.344 197.581L367.317 203.861Z" fill="#AEC3FF"/>
<path d="M274.113 212.293C283.483 227.302 288.329 245.13 285.461 259.669C282.049 277.052 267.562 289.736 236.51 287.288C179.5 282.763 176.781 215.235 176.781 215.235C157.893 175.648 171.342 149.018 178.734 133.045C186.126 117.047 194.433 85.9655 234.582 74.7891C270.529 64.7749 290.504 85.7677 295.053 107.477C295.745 110.766 296.092 114.104 296.067 117.319C295.968 139.943 276.932 156.436 276.932 156.436C285.164 184.154 274.113 212.293 274.113 212.293Z" fill="#F78248"/>
<path d="M279.182 210.908C275.745 210.908 272.086 210.71 268.229 210.241L268.897 204.578C287.933 206.828 301.407 202.526 309.343 198.545C317.946 194.218 322.149 189.297 322.174 189.248L326.575 192.907C326.377 193.13 321.778 198.644 312.211 203.515C305.165 207.1 294.139 210.908 279.182 210.908Z" fill="#F78248"/>
<path d="M295.918 208.98C280.739 205.889 273.52 189.718 273.223 189.025L278.464 186.751L275.844 187.888L278.464 186.751C278.538 186.899 284.843 200.919 297.08 203.416L295.918 208.98Z" fill="#F78248"/>
<path d="M345.907 166.03C340.79 166.03 336.365 164.62 333.002 163.013C326.377 159.873 322.347 155.373 322.174 155.175L325.388 152.307L323.781 153.741L325.388 152.307C325.412 152.356 329.096 156.411 334.98 159.156C342.669 162.766 350.382 162.543 357.923 158.538L359.95 162.346C354.931 165.041 350.184 166.03 345.907 166.03Z" fill="#F78248"/>
<path d="M344.572 165.486L342.051 161.999C344.35 160.318 346.006 156.56 346.822 151.12C347.465 146.768 347.317 142.985 347.317 142.935L351.618 142.762C351.618 142.935 351.791 147.015 351.074 151.763C350.086 158.463 347.885 163.087 344.572 165.486Z" fill="#F78248"/>
<path d="M274.114 212.293C283.483 227.302 288.329 245.13 285.461 259.669C282.816 212.12 243.853 213.01 253.273 209.746C262.692 206.507 269.268 181.583 266.87 163.879C264.472 146.174 231.319 143.356 262.148 143.677C292.977 143.998 295.078 107.502 295.078 107.502C295.77 110.791 296.117 114.129 296.092 117.343C295.993 139.968 276.957 156.461 276.957 156.461C285.165 184.154 274.114 212.293 274.114 212.293Z" fill="#E06F3D"/>
<path d="M359.974 212.293C350.604 227.302 345.759 245.13 348.627 259.669C352.038 277.052 366.526 289.736 397.577 287.288C454.587 282.763 457.307 215.235 457.307 215.235C476.195 175.648 462.746 149.018 455.354 133.045C447.962 117.047 439.655 85.9655 399.506 74.7891C363.559 64.7749 343.583 85.7677 339.034 107.477C338.342 110.766 337.996 114.104 338.021 117.319C338.12 139.943 357.156 156.436 357.156 156.436C348.923 184.154 359.974 212.293 359.974 212.293Z" fill="#F78248"/>
<path d="M359.975 212.293C350.605 227.302 345.759 245.13 348.627 259.669C351.272 212.12 390.235 213.01 380.816 209.746C371.396 206.507 364.82 181.583 367.218 163.879C369.616 146.174 402.769 143.356 371.94 143.677C341.111 143.998 339.01 107.502 339.01 107.502C338.318 110.791 337.972 114.129 337.996 117.343C338.095 139.968 357.132 156.461 357.132 156.461C348.924 184.154 359.975 212.293 359.975 212.293Z" fill="#E06F3D"/>
<path d="M168.994 271.018H167.337L165.631 268.966H167.288L168.994 271.018Z" fill="#91B5F8"/>
<path d="M172.455 271.018H170.798L169.092 268.966H170.749L172.455 271.018Z" fill="#91B5F8"/>
<path d="M175.891 271.018H174.26L172.554 268.966H174.21L175.891 271.018Z" fill="#91B5F8"/>
<path d="M179.352 271.018H177.696L176.015 268.966H177.671L179.352 271.018Z" fill="#91B5F8"/>
<path d="M166.225 267.68H164.568L162.887 265.603H164.544L166.225 267.68Z" fill="#91B5F8"/>
<path d="M169.686 267.68H168.03L166.324 265.603H167.98L169.686 267.68Z" fill="#91B5F8"/>
<path d="M173.147 267.68H171.491L169.785 265.603H171.441L173.147 267.68Z" fill="#91B5F8"/>
<path d="M176.608 267.68H174.952L173.246 265.603H174.903L176.608 267.68Z" fill="#91B5F8"/>
<path d="M382.521 388.395H331.915V386.862H382.521C396.737 386.862 408.282 375.29 408.282 361.097V241.792H409.815V361.072C409.84 376.155 397.577 388.395 382.521 388.395Z" fill="white"/>
<path d="M382.571 387.777H331.964V387.48H382.571C397.108 387.48 408.95 375.636 408.95 361.097V241.792H409.246V361.072C409.271 375.809 397.305 387.777 382.571 387.777Z" fill="#D14842"/>
<path d="M415.6 238.429C415.6 238.429 415.6 238.033 415.179 237.44C414.932 236.846 414.537 234.893 414.561 234.497C414.611 233.756 413.696 234.028 413.301 234.621C413.177 234.819 413.375 235.635 413.325 235.882C412.04 235.165 410.037 234.448 406.897 233.953C406.897 233.953 404.475 233.484 405.884 235.684C406.823 237.143 407.738 237.242 409.098 239.294C410.457 241.347 412.633 242.583 414.413 242.237L416.416 242.657L417.998 239.542L415.6 238.429Z" fill="#FFB27D"/>
<path d="M462.548 233.929C462.548 233.929 472.214 270.919 442.844 264.787C434.908 263.131 413.795 242.088 413.795 242.088C413.795 242.088 415.823 238.874 418.32 239.22C418.32 239.22 438.716 245.847 441.979 248.27C443.784 249.605 445.86 228.637 452.09 228.934C458.37 229.206 462.548 233.929 462.548 233.929Z" fill="#91CECF"/>
<path d="M475.775 390.398C475.775 390.398 475.231 399.101 473.55 399.225C473.327 399.25 465.02 399.25 465.02 399.25L454.415 399.2C454.415 399.2 454.489 396.654 457.579 396.11C460.669 395.566 465.886 393.39 467.765 389.285C469.718 384.958 475.775 390.398 475.775 390.398Z" fill="#163560"/>
<path d="M476.393 391.016C476.393 391.016 473.154 392.104 470.657 392.104C467.839 392.104 465.292 391.337 465.292 391.337C465.292 391.337 464.674 385.452 461.337 372.52C459.582 365.745 457.085 357.017 453.525 346.162C443.685 316.194 440.694 298.663 440.422 297.006C440.397 296.907 440.397 296.882 440.397 296.882L440.422 296.858L470.682 283.555C470.682 283.555 466.949 324.848 471.72 340.698C472.388 342.923 472.956 345.494 473.451 348.289C476.442 365.523 476.393 391.016 476.393 391.016Z" fill="#2B478B"/>
<path d="M473.426 348.288L461.312 372.496C459.557 365.721 457.06 356.992 453.5 346.137C443.66 316.169 440.669 298.638 440.397 296.981C440.397 296.932 440.397 296.882 440.397 296.833L470.657 283.53C470.657 283.53 466.924 324.823 471.696 340.673C472.363 342.923 472.956 345.494 473.426 348.288Z" fill="#233862"/>
<path d="M452.14 390.398C452.14 390.398 451.596 399.101 449.915 399.225C449.692 399.25 441.386 399.25 441.386 399.25L430.78 399.2C430.78 399.2 430.854 396.654 433.944 396.11C437.035 395.566 442.251 393.39 444.13 389.285C446.083 384.958 452.14 390.398 452.14 390.398Z" fill="#163560"/>
<path d="M434.958 284.519C434.958 284.519 434.562 311.273 439.185 344.135C443.808 376.996 442.251 390.942 442.251 390.942C442.251 390.942 445.44 391.98 446.726 392.079C449.989 392.351 453.351 391.313 453.351 391.313C453.351 391.313 459.977 358.451 458.073 342.008C456.169 325.565 467.146 285.582 467.146 285.582L434.958 284.519Z" fill="#2B478B"/>
<path d="M457.01 220.848L451.695 225.522L443.018 225.151C443.042 224.458 443.191 221.541 443.339 218.92C443.339 218.771 443.364 218.598 443.364 218.45C443.487 216.2 443.611 214.271 443.611 214.271L451.003 209.672L453.772 207.966C453.772 208.015 453.895 210.414 453.895 210.76C454.242 216.991 457.01 220.848 457.01 220.848Z" fill="#FFB27D"/>
<path d="M433.202 285.681C433.326 299.8 434.265 332.859 434.957 333.527C442.325 340.623 474.662 331.573 476.392 323.76C478.098 315.946 469.866 223.445 457.307 219.76C454.711 218.994 440.767 223.494 440.767 223.494C440.767 223.494 438.592 229.206 437.158 236.5C436.639 239.195 434.883 258.457 433.87 271.34C433.598 274.777 433.375 277.744 433.252 279.846C433.202 280.686 433.177 282.788 433.202 285.681Z" fill="#ABDDDA"/>
<path d="M453.351 210.958C452.041 214.147 445.934 217.584 443.363 218.895C443.363 218.747 443.388 218.574 443.388 218.425C443.512 216.175 443.635 214.246 443.635 214.246L451.027 209.647C452.758 209.4 453.895 209.647 453.351 210.958Z" fill="#FCA56B"/>
<path d="M440.891 214.568C440.891 214.568 454.291 215.804 454.933 207.447C455.576 199.089 457.752 193.625 449.222 192.487C440.693 191.35 438.79 194.391 437.9 197.136C437.01 199.88 437.405 214.049 440.891 214.568Z" fill="#FFB27D"/>
<path d="M438.221 196.27C438.221 196.27 440.965 205.246 442.77 204.455C444.575 203.663 446.825 202.205 447.121 205.023C447.443 207.842 451.769 211.971 453.994 211.724C458.543 211.205 461.955 194.045 459.754 191.547C453.376 184.303 429.395 187.69 438.221 196.27Z" fill="#163560"/>
<path d="M444.179 219.958C444.352 219.884 453.747 215.68 454.835 216.027C455.922 216.398 457.307 219.736 457.307 219.736L440.768 223.469C440.768 223.494 442.053 220.848 444.179 219.958Z" fill="#91CECF"/>
<path d="M433.203 285.681C458.37 267.482 459.062 242.657 459.062 242.657C447.097 249.407 437.554 259.051 433.845 271.34C433.573 274.777 433.351 277.744 433.227 279.846C433.203 280.686 433.178 282.788 433.203 285.681Z" fill="#91CECF"/>
<path d="M406.527 219.365H411.644V217.906C411.644 217.263 411.125 216.744 410.482 216.744H407.664C407.046 216.744 406.527 217.263 406.527 217.881V219.365Z" fill="#B0BFFF"/>
<path d="M399.16 247.528H419.037C420.223 247.528 421.187 246.564 421.187 245.377V220.799C421.187 219.612 420.223 218.648 419.037 218.648H399.16C397.973 218.648 397.009 219.612 397.009 220.799V245.377C397.009 246.564 397.973 247.528 399.16 247.528Z" fill="#DCE4FF"/>
<path d="M408.727 250.05H409.444C410.112 250.05 410.68 249.506 410.68 248.814V246.762C410.68 246.094 410.136 245.525 409.444 245.525H408.727C408.06 245.525 407.491 246.069 407.491 246.762V248.814C407.516 249.506 408.06 250.05 408.727 250.05Z" fill="#DCE4FF"/>
<path d="M420.372 227.302V244.685C420.372 245.797 419.457 246.712 418.344 246.712H410.483C410.235 246.712 410.013 246.91 410.013 247.182V248.616C410.013 249.086 409.617 249.482 409.148 249.482H409.049C408.579 249.482 408.183 249.086 408.183 248.616V247.108C408.183 246.885 408.01 246.712 407.788 246.712H399.852C398.739 246.712 397.825 245.797 397.825 244.685V227.525C399.135 227.253 403.189 226.634 409.098 228.316C413.771 229.651 417.998 228.365 420.372 227.302Z" fill="#E85D52"/>
<path d="M411.694 237.316C411.694 235.882 409.098 232.643 409.098 232.643C409.098 232.643 406.502 235.882 406.502 237.316C406.502 238.75 407.664 239.912 409.098 239.912C410.532 239.912 411.694 238.75 411.694 237.316Z" fill="#F48C87"/>
<path d="M410.26 214.049H407.936V218.079H410.26V214.049Z" fill="#B0BFFF"/>
<path d="M392.707 210.71H388.504V393.983H392.707V210.71Z" fill="#B0BFFF"/>
<path d="M418.542 210.71H388.504V214.049H418.542V210.71Z" fill="#B0BFFF"/>
<path d="M395.921 271.513C395.921 271.513 395.748 271.142 395.13 270.796C394.66 270.351 393.448 268.941 393.3 268.595C392.83 267.458 392.163 268.125 392.361 269.189C392.41 269.411 392.707 269.93 392.806 270.178C391.347 270.054 389.221 270.252 386.155 271.117C386.155 271.117 383.757 271.686 385.957 273.095C387.416 274.035 388.281 273.738 390.383 275.024C392.459 276.31 394.981 276.532 396.44 275.469L398.442 274.999L398.591 271.513H395.921Z" fill="#FFB27D"/>
<path d="M452.115 228.909C452.115 228.909 476.64 239.072 435.922 269.189C429.42 274.01 398.022 276.335 398.022 276.335C398.022 276.335 396.885 272.724 398.764 271.018C398.764 271.018 423.56 260.262 426.082 260.534C428.307 260.782 438.468 238.231 442.72 233.632C446.948 229.058 452.115 228.909 452.115 228.909Z" fill="#ABDDDA"/>
<path d="M331.915 388.395L233.791 388.444C217.573 388.444 204.396 375.265 204.396 359.044V280.068C204.396 266.197 193.123 254.921 179.253 254.921H118.683L100.784 253.289H179.253C194.013 253.289 206.003 265.282 206.003 280.043V359.02C206.003 374.325 218.463 386.788 233.766 386.788L331.964 386.812L331.915 388.395Z" fill="white"/>
<path d="M334.164 387.777H233.766C217.919 387.777 205.039 374.894 205.039 359.045V280.068C205.039 265.826 193.469 254.254 179.229 254.254H117.15L109.709 253.982H179.253C193.642 253.982 205.335 265.677 205.335 280.068V359.045C205.335 374.746 218.092 387.505 233.791 387.505L332.73 387.48L334.164 387.777Z" fill="#D14842"/>
<path d="M407.046 392.079H373.473V394.7H407.046V392.079Z" fill="#B0BFFF"/>
<path d="M376.786 393.39H373.473V398.112H376.786V393.39Z" fill="#B0BFFF"/>
<path d="M407.046 393.39H403.733V398.112H407.046V393.39Z" fill="#B0BFFF"/>
<g opacity="0.8">
<path opacity="0.8" d="M483.167 119.717H395.006C386.403 119.717 379.431 112.744 379.431 104.139V63.1924C379.431 54.5876 386.403 47.6147 395.006 47.6147H483.167C491.77 47.6147 498.742 54.5876 498.742 63.1924V104.139C498.717 112.744 491.77 119.717 483.167 119.717Z" fill="#B0BFFF"/>
</g>
<path d="M390.433 56.3926H391.644V59.2609H394.932V56.3926H396.143V63.2913H394.932V60.3736H391.644V63.2913H390.433V56.3926Z" fill="#EBF3FA"/>
<path d="M397.923 56.3926H403.041V57.4806H399.135V59.2856H402.596V60.3736H399.135V62.2281H403.09V63.316H397.923V56.3926Z" fill="#EBF3FA"/>
<path d="M404.524 56.3926H405.81L407.911 59.6565L410.013 56.3926H411.298V63.2913H410.087V58.346L407.911 61.6099H407.862L405.711 58.3708V63.2913H404.524V56.3926Z" fill="#EBF3FA"/>
<path d="M412.757 59.8296C412.757 57.8762 414.265 56.269 416.366 56.269C418.492 56.269 419.951 57.8762 419.951 59.8296C419.951 61.783 418.443 63.3902 416.342 63.3902C414.24 63.3902 412.757 61.783 412.757 59.8296ZM418.715 59.8296C418.715 58.4944 417.751 57.3817 416.366 57.3817C414.982 57.3817 414.042 58.4696 414.042 59.8296C414.042 61.1648 415.007 62.2775 416.391 62.2775C417.776 62.2775 418.715 61.1896 418.715 59.8296Z" fill="#EBF3FA"/>
<path d="M421.459 56.3926H424.031C426.206 56.3926 427.69 57.8762 427.69 59.8296C427.69 61.783 426.182 63.2666 424.031 63.2666H421.459V56.3926ZM424.031 62.1786C425.489 62.1786 426.429 61.2143 426.429 59.8296C426.429 58.4697 425.489 57.4806 424.031 57.4806H422.671V62.1786H424.031Z" fill="#EBF3FA"/>
<path d="M429.222 56.3926H430.433V63.2913H429.222V56.3926Z" fill="#EBF3FA"/>
<path d="M434.711 56.3432H435.823L438.864 63.2913H437.579L436.886 61.6347H433.623L432.906 63.2913H431.67L434.711 56.3432ZM436.466 60.5467L435.279 57.7773L434.093 60.5467H436.466Z" fill="#EBF3FA"/>
<path d="M440.051 56.3926H441.262V62.1786H444.896V63.2913H440.051V56.3926Z" fill="#EBF3FA"/>
<path d="M446.899 60.5714L444.155 56.3926H445.589L447.517 59.4587L449.47 56.3926H450.855L448.11 60.5467V63.2913H446.899V60.5714Z" fill="#EBF3FA"/>
<path d="M451.126 62.2775L451.843 61.4121C452.51 61.9808 453.153 62.3022 454.019 62.3022C454.76 62.3022 455.23 61.9561 455.23 61.4121C455.23 60.9176 454.958 60.6456 453.672 60.3489C452.214 60.0027 451.373 59.5823 451.373 58.2718C451.373 57.085 452.362 56.269 453.722 56.269C454.735 56.269 455.527 56.5657 456.219 57.1344L455.576 58.0493C454.958 57.5795 454.34 57.3322 453.697 57.3322C452.98 57.3322 452.585 57.7031 452.585 58.1729C452.585 58.7169 452.906 58.9394 454.216 59.2609C455.675 59.6071 456.441 60.1263 456.441 61.2885C456.441 62.5742 455.428 63.3408 453.969 63.3408C452.955 63.3902 451.942 63.0193 451.126 62.2775Z" fill="#EBF3FA"/>
<path d="M457.974 56.3926H459.186V63.2913H457.974V56.3926Z" fill="#EBF3FA"/>
<path d="M460.545 62.2775L461.262 61.4121C461.93 61.9808 462.573 62.3022 463.438 62.3022C464.18 62.3022 464.649 61.9561 464.649 61.4121C464.649 60.9176 464.377 60.6456 463.092 60.3489C461.633 60.0027 460.793 59.5823 460.793 58.2718C460.793 57.085 461.782 56.269 463.141 56.269C464.155 56.269 464.946 56.5657 465.638 57.1344L464.996 58.0493C464.377 57.5795 463.759 57.3322 463.117 57.3322C462.4 57.3322 462.004 57.7031 462.004 58.1729C462.004 58.7169 462.325 58.9394 463.636 59.2609C465.094 59.6071 465.861 60.1263 465.861 61.2885C465.861 62.5742 464.847 63.3408 463.389 63.3408C462.375 63.3902 461.386 63.0193 460.545 62.2775Z" fill="#EBF3FA"/>
<path d="M415.155 75.0364H389.963V77.5832H415.155V75.0364Z" fill="#EBF3FA"/>
<path d="M448.901 75.0364H423.709V77.5832H448.901V75.0364Z" fill="#F78248"/>
<path d="M470.904 75.0364H454.612V77.5832H470.904V75.0364Z" fill="#EBF3FA"/>
<path d="M410.285 82.9489H389.963V85.4957H410.285V82.9489Z" fill="#EBF3FA"/>
<path d="M439.26 82.9489H414.067V85.4957H439.26V82.9489Z" fill="#EBF3FA"/>
<path d="M460.471 82.9489H444.179V85.4957H460.471V82.9489Z" fill="#EBF3FA"/>
<path d="M415.155 97.4139H389.963V99.9607H415.155V97.4139Z" fill="#163560"/>
<path d="M448.901 97.4139H423.709V99.9607H448.901V97.4139Z" fill="#EBF3FA"/>
<path d="M470.904 97.4139H454.612V99.9607H470.904V97.4139Z" fill="#EBF3FA"/>
<path d="M410.285 105.326H389.963V107.873H410.285V105.326Z" fill="#EBF3FA"/>
<path d="M439.26 105.326H414.067V107.873H439.26V105.326Z" fill="#EBF3FA"/>
<path d="M460.471 105.326H444.179V107.873H460.471V105.326Z" fill="#163560"/>
<path d="M214.211 244.388H153.913V243.028H214.211C222.098 243.028 228.525 236.624 228.55 228.736L228.649 188.803H230.009L229.91 228.736C229.885 237.366 222.839 244.388 214.211 244.388Z" fill="white"/>
<path d="M282.494 285.459C280.912 280.34 273.965 279.376 271.196 283.95C270.702 284.766 270.38 285.731 270.355 286.794C270.207 292.802 282.024 316.021 283.607 318.073C286.474 321.807 303.731 330.807 303.731 330.807L307.39 330.263C307.39 330.263 305.313 328.952 303.162 326.826C298.737 322.4 292.26 315.205 291.073 314.216C289.046 312.509 285.51 295.176 282.494 285.459Z" fill="#ED985F"/>
<path d="M287.513 256.108C287.612 255.713 279.132 259.941 278.712 260.411C274.731 264.812 275.869 270.573 278.143 270.623C279.602 270.647 279.33 273.071 279.33 273.071L295.573 266.197C295.548 266.197 293.595 254.798 287.513 256.108Z" fill="#233862"/>
<path d="M289.516 256.998C289.516 256.998 290.084 250.668 283.038 250.668C283.038 250.668 285.189 251.237 286.277 252.399C286.277 252.399 281.778 249.754 276.858 253.809C271.963 257.864 275.004 268.076 273.52 270.005C272.037 271.933 266.227 272.329 266.919 278.585C267.636 284.84 285.362 292.679 284.225 297.871C284.225 297.871 291.172 287.659 286.203 283.011C286.203 283.011 288.626 285.286 288.873 288.005C288.873 288.005 289.54 282.714 286.153 281.008C283.162 279.5 280.739 274.035 280.986 273.046C281.234 272.106 289.516 256.998 289.516 256.998Z" fill="#233862"/>
<path d="M269.664 393.76L266.153 393.241C266.153 393.241 254.336 383.845 252.58 366.339C252.407 364.559 252.358 362.754 252.506 360.924C252.531 360.701 252.506 360.503 252.383 360.33C252.012 359.762 251.072 358.303 249.787 356.226C248.526 354.198 246.375 350.341 244.026 346.038C239.774 338.274 234.805 328.977 233.099 326.01C227.685 316.564 230.281 310.235 230.281 310.235C230.281 310.235 245.411 308.751 249.54 305.116L251.023 307.416C251.023 307.416 254.286 321.93 254.138 321.98C254.311 322.474 254.459 322.969 254.632 323.488C257.228 331.475 260.195 341.439 261.802 349.574C262.717 354.149 263.186 358.13 262.939 360.85C262.84 361.789 262.964 363.199 263.211 364.979C264.694 375.339 269.664 393.76 269.664 393.76Z" fill="#2B478B"/>
<path d="M277.03 398.211H262.37C262.37 398.211 262.024 395.986 262.79 394.28C263.532 392.648 264.57 392.598 262.914 390.052C263.853 391.016 266.845 391.411 268.946 391.115C269.193 391.535 270.627 394.354 271.493 394.972C272.457 395.664 276.734 395.442 277.03 398.211Z" fill="#3055A0"/>
<path d="M254.632 323.463C253.347 330.535 250.33 342.28 244.002 346.014C239.749 338.25 234.78 328.952 233.074 325.985C227.66 316.54 230.256 310.21 230.256 310.21C230.256 310.21 245.386 308.726 249.515 305.091L250.998 307.391C250.998 307.391 254.261 321.905 254.113 321.955C254.311 322.449 254.484 322.944 254.632 323.463Z" fill="#233862"/>
<path d="M244.372 311.298L244.422 308.553C238.958 309.245 225.583 302.025 225.583 302.025C225.583 302.025 219.872 305.833 219.081 316.688C218.71 321.98 216.287 344.382 216.016 351.083C215.917 353.506 215.892 355.237 215.867 355.929C215.867 356.152 215.768 356.325 215.645 356.498C214.507 357.932 213.543 359.465 212.678 361.023C204.347 376.526 208.698 397.593 208.698 397.593L210.626 397.099C210.626 397.099 217.672 375.265 222.27 365.795C223.061 364.188 223.754 362.951 224.347 362.234C226.078 360.133 227.907 356.547 229.712 352.27C233.123 344.134 236.412 333.428 238.785 325.12C238.958 325.145 244.372 311.298 244.372 311.298Z" fill="#2B478B"/>
<path d="M273.619 278.634C274.855 278.387 277.574 276.211 279.997 271.958L280.319 272.255L285.807 277.052C285.807 277.052 284.942 279.005 283.483 280.761C281.901 282.64 280.615 283.753 278.984 284.717C279.404 285.038 273.1 278.412 273.619 278.634Z" fill="#FFB27D"/>
<path d="M281.95 283.678C281.95 283.678 283.508 286.769 284.348 289.464C285.189 292.16 287.29 300.69 287.29 300.69C287.29 300.69 282.964 305.611 276.956 305.339C276.956 305.339 273.718 300.27 274.855 295.695C276.017 291.121 281.95 283.678 281.95 283.678Z" fill="#91CECF"/>
<path d="M285.807 277.052C285.807 277.052 285.09 278.832 283.483 280.761C280.467 277.868 280.071 274.431 280.343 272.255L285.807 277.052Z" fill="#ED985F"/>
<path d="M285.956 279.45C285.956 279.45 277.674 274.851 280.616 269.733C283.557 264.614 284.472 260.584 289.886 263.304C295.301 266.024 295.202 268.57 294.608 270.524C294.065 272.477 288.181 280.513 285.956 279.45Z" fill="#FFB27D"/>
<path d="M296.042 267.532C295.672 265.257 294.51 265.035 293.719 265.208C290.653 260.139 285.659 262.117 285.659 262.117C282.989 265.455 279.132 266.048 279.132 266.048C279.132 266.048 280.097 267.829 284.052 268.941C285.263 269.288 286.623 269.065 287.958 268.62C285.214 270.153 282.346 270.746 282.346 270.746C287.563 271.216 292.532 266.444 293.051 265.949C293.298 266.691 293.719 268.224 293.471 269.362C293.125 270.895 291.765 273.689 292.606 274.035C292.557 274.035 296.611 270.944 296.042 267.532Z" fill="#233862"/>
<path d="M220.367 398.211H205.706C205.706 398.211 205.36 395.986 206.127 394.28C206.868 392.648 208.006 391.906 207.734 389.953C208.673 390.917 210.181 391.98 212.307 391.708C212.554 392.129 213.988 394.379 214.854 394.997C215.793 395.664 220.07 395.442 220.367 398.211Z" fill="#3055A0"/>
<path d="M277.377 302.94C275.498 303.608 272.852 303.954 270.133 304.251C266.276 304.671 262.296 304.968 260.219 305.784C259.824 305.957 258.637 306.451 257.45 307.292C257.45 307.292 257.426 307.317 257.376 307.342C256.981 307.638 256.585 307.96 256.239 308.331C255.695 308.899 255.201 309.567 254.904 310.333C254.138 312.213 255.151 317.455 255.794 320.323C256.066 321.485 255.522 322.672 254.459 323.216C253 323.983 251.542 324.675 250.133 325.318C250.058 325.342 249.984 325.392 249.91 325.417C249.935 325.12 249.935 324.848 249.935 324.551C249.935 322.573 249.688 320.941 249.688 320.941C249.341 322.944 248.031 325.095 246.795 326.752C227.116 334.64 213.395 331.203 213.617 327.271C214.384 313.622 223.605 302.001 223.605 302.001C240.763 282.022 275.498 276.78 275.498 276.78C275.498 276.78 277.154 276.582 279.157 278.98C282.049 282.467 282.198 283.357 282.198 283.357C282.198 283.357 282.915 301.012 277.377 302.94Z" fill="#ABDDDA"/>
<path d="M270.133 304.251C266.276 304.671 262.296 304.968 260.219 305.784C259.379 293.05 265.386 283.481 265.386 283.481C265.386 283.481 269.292 299.454 270.133 304.251Z" fill="#91CECF"/>
<path d="M275.449 276.804C275.449 276.804 276.957 274.9 277.97 274.95C277.97 274.95 282.099 280.736 282.149 283.382C282.149 283.406 277.006 276.532 275.449 276.804Z" fill="#91CECF"/>
<path d="M315.103 332.81C315.103 332.81 312.903 332.859 312.433 332.785C311.964 332.711 311.345 332.513 310.727 332.488C310.109 332.464 309.541 332.661 308.972 332.785C308.898 332.81 308.799 332.81 308.7 332.81H305.066C305.066 332.81 304.695 332.637 304.3 331.994C304.126 331.722 304.102 331.054 303.706 330.832C301.506 329.595 307.365 330.288 307.365 330.288C307.365 330.288 311.049 330.214 311.395 330.486C312.013 330.931 315.252 332.637 315.103 332.81Z" fill="#ED985F"/>
<path d="M305.066 332.81C305.066 332.81 307.316 333.453 307.909 333.873L308.552 334.269C308.552 334.269 308.923 333.848 308.329 333.403C308.033 333.156 307.168 332.439 307.143 331.623C307.118 330.807 304.596 331.524 305.066 332.81Z" fill="#ED985F"/>
<path d="M344.127 394.898C338.861 394.898 334.584 390.62 334.584 385.353V325.095H353.67V385.353C353.67 390.62 349.393 394.898 344.127 394.898Z" fill="#C5D7FF"/>
<path d="M344.127 392.129C340.221 392.129 337.032 388.964 337.032 385.032V357.66H351.198V385.032C351.223 388.964 348.033 392.129 344.127 392.129Z" fill="#D14842"/>
<path d="M297.105 350.489C292.259 348.437 289.985 342.849 292.037 337.978L315.474 282.467L333.051 289.885L309.615 345.396C307.538 350.267 301.951 352.542 297.105 350.489Z" fill="#C5D7FF"/>
<path d="M298.836 348.239L297.501 347.67C294.262 346.31 292.754 342.577 294.114 339.338L311.024 299.281L326.253 299.652L307.168 344.852C305.808 348.066 302.075 349.599 298.836 348.239Z" fill="#D14842"/>
<path d="M295.301 339.362C295.301 339.362 296.908 340.772 298.119 341.093C299.33 341.39 300.715 344.876 300.937 345.371C301.16 345.865 299.775 345.148 299.231 344.308C298.688 343.467 298.292 343.121 298.144 343.319C297.971 343.492 298.243 345.816 299.157 347.126C300.072 348.412 300.641 349.55 299.973 349.475C299.306 349.401 295.375 348.437 294.559 346.038C293.743 343.64 294.336 343.566 292.482 341.093C290.603 338.621 295.301 339.362 295.301 339.362Z" fill="#FFB27D"/>
<path d="M274.187 281.033C274.187 281.033 264.521 281.997 263.755 288.253C262.988 294.533 273.025 320.1 274.459 322.425C277.08 326.628 292.482 341.093 292.482 341.093L295.325 339.362C295.325 339.362 284.398 320.867 282.717 319.136C280.022 316.416 277.451 283.209 274.187 281.033Z" fill="#FFB27D"/>
<path d="M279.132 293.025C279.132 293.025 280.121 276.829 267.735 280.761C255.349 284.667 269.664 312.509 269.664 312.509C269.664 312.509 276.932 312.139 279.503 305.809L279.132 293.025Z" fill="#ABDDDA"/>
<path d="M361.582 376.304H290.925V378.974H361.582V376.304Z" fill="#B0BFFF"/>
<path d="M294.979 378.727H290.925V399.003H294.979V378.727Z" fill="#B0BFFF"/>
<path d="M361.582 376.922H356.958V399.003H361.582V376.922Z" fill="#B0BFFF"/>
<path d="M232.036 185.217H226.35V196.938H232.036V185.217Z" fill="white"/>
<path d="M100.562 383.573H96.186V393.266H100.562V383.573Z" fill="#203C75"/>
<path d="M93.1948 393.266C93.1948 390.596 95.5187 388.42 98.3618 388.42C101.23 388.42 103.529 390.596 103.529 393.266C103.529 395.936 101.205 398.112 98.3618 398.112C95.5187 398.112 93.1948 395.936 93.1948 393.266Z" fill="#2B478B"/>
<path d="M95.0244 393.266C95.0244 391.535 96.5325 390.126 98.3867 390.126C100.241 390.126 101.749 391.535 101.749 393.266C101.749 394.997 100.241 396.406 98.3867 396.406C96.5325 396.406 95.0244 394.997 95.0244 393.266Z" fill="#707FE5"/>
<path d="M91.4888 279.425V240.283L122.911 279.425H91.4888Z" fill="#707FE5"/>
<path d="M89.8818 240.283L157.424 240.259L188.871 279.425H121.329L89.8818 240.283Z" fill="#B0BFFF"/>
<path d="M122.911 279.425H91.4888V384.34H122.911V279.425Z" fill="#707FE5"/>
<path d="M133.69 383.573H129.314V393.266H133.69V383.573Z" fill="#203C75"/>
<path d="M126.323 393.266C126.323 390.596 128.647 388.42 131.49 388.42C134.358 388.42 136.657 390.596 136.657 393.266C136.657 395.936 134.333 398.112 131.49 398.112C128.622 398.112 126.323 395.936 126.323 393.266Z" fill="#2B478B"/>
<path d="M128.127 393.266C128.127 391.535 129.636 390.126 131.49 390.126C133.344 390.126 134.852 391.535 134.852 393.266C134.852 394.997 133.344 396.406 131.49 396.406C129.636 396.406 128.127 394.997 128.127 393.266Z" fill="#707FE5"/>
<path d="M181.058 383.573H176.682V393.266H181.058V383.573Z" fill="#203C75"/>
<path d="M173.691 393.266C173.691 390.596 176.015 388.42 178.858 388.42C181.726 388.42 184.025 390.596 184.025 393.266C184.025 395.936 181.701 398.112 178.858 398.112C176.015 398.112 173.691 395.936 173.691 393.266Z" fill="#2B478B"/>
<path d="M175.496 393.266C175.496 391.535 177.004 390.126 178.858 390.126C180.712 390.126 182.22 391.535 182.22 393.266C182.22 394.997 180.712 396.406 178.858 396.406C177.004 396.406 175.496 394.997 175.496 393.266Z" fill="#707FE5"/>
<path d="M188.87 279.425H121.329V384.34H188.87V279.425Z" fill="#8C9DF4"/>
<path d="M157.72 186.751H89.8818V234.126H157.72V186.751Z" fill="#233862"/>
<path d="M155.965 188.209H91.6123V232.742H155.965V188.209Z" fill="#2B478B"/>
<path d="M127.88 234.102H121.304V240.259H127.88V234.102Z" fill="#233862"/>
<path d="M125.828 275.716H124.048L122.219 273.491H123.999L125.828 275.716Z" fill="#91B5F8"/>
<path d="M129.537 275.716H127.757L125.927 273.491H127.707L129.537 275.716Z" fill="#91B5F8"/>
<path d="M133.245 275.716H131.465L129.66 273.491H131.44L133.245 275.716Z" fill="#91B5F8"/>
<path d="M136.978 275.716H135.198L133.369 273.491H135.149L136.978 275.716Z" fill="#91B5F8"/>
<path d="M122.861 272.106H121.081L119.252 269.881H121.032L122.861 272.106Z" fill="#91B5F8"/>
<path d="M126.57 272.106H124.79L122.96 269.881H124.74L126.57 272.106Z" fill="#91B5F8"/>
<path d="M130.278 272.106H128.498L126.693 269.881H128.473L130.278 272.106Z" fill="#91B5F8"/>
<path d="M134.011 272.082H132.231L130.402 269.881L132.182 269.856L134.011 272.082Z" fill="#91B5F8"/>
<path d="M117.373 265.405H115.593L113.764 263.18H115.544L117.373 265.405Z" fill="#91B5F8"/>
<path d="M121.082 265.405H119.302L117.472 263.18H119.252L121.082 265.405Z" fill="#91B5F8"/>
<path d="M124.79 265.405H123.01L121.18 263.18H122.96L124.79 265.405Z" fill="#91B5F8"/>
<path d="M128.523 265.405H126.743L124.914 263.18H126.694L128.523 265.405Z" fill="#91B5F8"/>
<path d="M120.068 268.694H118.288L116.458 266.469H118.239L120.068 268.694Z" fill="#91B5F8"/>
<path d="M123.776 268.694H121.996L120.191 266.469H121.971L123.776 268.694Z" fill="#91B5F8"/>
<path d="M127.509 268.694H125.729L123.9 266.469H125.68L127.509 268.694Z" fill="#91B5F8"/>
<path d="M131.218 268.694H129.438L127.608 266.469H129.388L131.218 268.694Z" fill="#91B5F8"/>
<path d="M110.179 256.306H108.399L106.57 254.081H108.35L110.179 256.306Z" fill="#91B5F8"/>
<path d="M113.888 256.306H112.108L110.278 254.081H112.058L113.888 256.306Z" fill="#91B5F8"/>
<path d="M117.596 256.306H115.816L113.986 254.081H115.766L117.596 256.306Z" fill="#91B5F8"/>
<path d="M121.304 256.306H119.524L117.72 254.081H119.475L121.304 256.306Z" fill="#91B5F8"/>
<path d="M107.212 252.696H105.432L103.603 250.471H105.383L107.212 252.696Z" fill="#91B5F8"/>
<path d="M110.921 252.696H109.141L107.312 250.471H109.092L110.921 252.696Z" fill="#91B5F8"/>
<path d="M114.629 252.696H112.849L111.02 250.471H112.8L114.629 252.696Z" fill="#91B5F8"/>
<path d="M118.338 252.671H116.558L114.753 250.446H116.508L118.338 252.671Z" fill="#91B5F8"/>
<path d="M101.7 245.995H99.9195L98.1147 243.77H99.8948L101.7 245.995Z" fill="#91B5F8"/>
<path d="M105.433 245.995H103.653L101.823 243.77H103.603L105.433 245.995Z" fill="#91B5F8"/>
<path d="M109.141 245.995H107.361L105.531 243.77H107.311L109.141 245.995Z" fill="#91B5F8"/>
<path d="M112.849 245.995H111.069L109.24 243.77H111.02L112.849 245.995Z" fill="#91B5F8"/>
<path d="M104.419 249.284H102.639L100.81 247.058H102.59L104.419 249.284Z" fill="#91B5F8"/>
<path d="M108.128 249.284H106.348L104.518 247.058H106.298L108.128 249.284Z" fill="#91B5F8"/>
<path d="M111.836 249.284H110.056L108.251 247.058H110.031L111.836 249.284Z" fill="#91B5F8"/>
<path d="M115.569 249.284H113.789L111.959 247.058H113.74L115.569 249.284Z" fill="#91B5F8"/>
<path d="M153.517 282.244H127.954V298.613H153.517V282.244Z" fill="#BDD1F9"/>
<path d="M168.524 282.244H155.743V286.398H168.524V282.244Z" fill="#BDD1F9"/>
<path d="M168.524 288.352H155.743V292.506H168.524V288.352Z" fill="#BDD1F9"/>
<path d="M168.524 294.434H155.743V298.588H168.524V294.434Z" fill="#BDD1F9"/>
<path d="M173.765 284.717C173.765 283.357 174.952 282.244 176.386 282.244C177.82 282.244 179.006 283.357 179.006 284.717C179.006 286.077 177.82 287.189 176.386 287.189C174.952 287.165 173.765 286.077 173.765 284.717Z" fill="#BDD1F9"/>
<path d="M173.765 294.434C173.765 293.074 174.952 291.962 176.386 291.962C177.844 291.962 179.006 293.074 179.006 294.434C179.006 295.794 177.82 296.907 176.386 296.907C174.952 296.907 173.765 295.794 173.765 294.434Z" fill="#BDD1F9"/>
<path d="M135.618 242.509H133.146V243.968H135.618V242.509Z" fill="#7C9AF2"/>
<path d="M135.618 242.509C135.618 242.781 135.074 243.003 134.382 243.003C133.69 243.003 133.146 242.781 133.146 242.509C133.146 242.237 133.69 242.014 134.382 242.014C135.05 242.014 135.618 242.237 135.618 242.509Z" fill="#91B5F8"/>
<path d="M135.618 243.918C135.618 244.19 135.074 244.413 134.382 244.413C133.69 244.413 133.146 244.19 133.146 243.918C133.146 243.646 133.69 243.424 134.382 243.424C135.05 243.424 135.618 243.646 135.618 243.918Z" fill="#7C9AF2"/>
<path d="M142.541 242.509H140.068V243.968H142.541V242.509Z" fill="#7C9AF2"/>
<path d="M142.541 242.509C142.541 242.781 141.997 243.003 141.304 243.003C140.612 243.003 140.068 242.781 140.068 242.509C140.068 242.237 140.612 242.014 141.304 242.014C141.972 242.014 142.541 242.237 142.541 242.509Z" fill="#91B5F8"/>
<path d="M142.541 243.918C142.541 244.19 141.997 244.413 141.304 244.413C140.612 244.413 140.068 244.19 140.068 243.918C140.068 243.646 140.612 243.424 141.304 243.424C141.972 243.424 142.541 243.646 142.541 243.918Z" fill="#7C9AF2"/>
<path d="M149.463 242.509H146.991V243.968H149.463V242.509Z" fill="#7C9AF2"/>
<path d="M149.463 242.509C149.463 242.781 148.919 243.003 148.227 243.003C147.535 243.003 146.991 242.781 146.991 242.509C146.991 242.237 147.535 242.014 148.227 242.014C148.919 242.014 149.463 242.237 149.463 242.509Z" fill="#91B5F8"/>
<path d="M149.463 243.918C149.463 244.19 148.919 244.413 148.227 244.413C147.535 244.413 146.991 244.19 146.991 243.918C146.991 243.646 147.535 243.424 148.227 243.424C148.919 243.424 149.463 243.646 149.463 243.918Z" fill="#7C9AF2"/>
<path d="M156.385 242.509H153.913V243.968H156.385V242.509Z" fill="#7C9AF2"/>
<path d="M156.385 242.509C156.385 242.781 155.841 243.003 155.149 243.003C154.457 243.003 153.913 242.781 153.913 242.509C153.913 242.237 154.457 242.014 155.149 242.014C155.841 242.014 156.385 242.237 156.385 242.509Z" fill="#91B5F8"/>
<path d="M156.385 243.918C156.385 244.19 155.841 244.413 155.149 244.413C154.457 244.413 153.913 244.19 153.913 243.918C153.913 243.646 154.457 243.424 155.149 243.424C155.841 243.424 156.385 243.646 156.385 243.918Z" fill="#7C9AF2"/>
<path d="M138.09 244.981H135.618V246.44H138.09V244.981Z" fill="#7C9AF2"/>
<path d="M138.066 244.981C138.066 245.253 137.522 245.476 136.83 245.476C136.138 245.476 135.594 245.253 135.594 244.981C135.594 244.709 136.138 244.487 136.83 244.487C137.522 244.487 138.066 244.709 138.066 244.981Z" fill="#91B5F8"/>
<path d="M138.066 246.391C138.066 246.663 137.522 246.885 136.83 246.885C136.138 246.885 135.594 246.663 135.594 246.391C135.594 246.119 136.138 245.896 136.83 245.896C137.522 245.896 138.066 246.119 138.066 246.391Z" fill="#7C9AF2"/>
<path d="M145.013 244.981H142.541V246.44H145.013V244.981Z" fill="#7C9AF2"/>
<path d="M145.013 244.981C145.013 245.253 144.469 245.476 143.777 245.476C143.084 245.476 142.541 245.253 142.541 244.981C142.541 244.709 143.084 244.487 143.777 244.487C144.444 244.487 145.013 244.709 145.013 244.981Z" fill="#91B5F8"/>
<path d="M145.013 246.391C145.013 246.663 144.469 246.885 143.777 246.885C143.084 246.885 142.541 246.663 142.541 246.391C142.541 246.119 143.084 245.896 143.777 245.896C144.444 245.896 145.013 246.119 145.013 246.391Z" fill="#7C9AF2"/>
<path d="M151.935 244.981H149.463V246.44H151.935V244.981Z" fill="#7C9AF2"/>
<path d="M151.935 244.981C151.935 245.253 151.391 245.476 150.699 245.476C150.007 245.476 149.463 245.253 149.463 244.981C149.463 244.709 150.007 244.487 150.699 244.487C151.391 244.487 151.935 244.709 151.935 244.981Z" fill="#91B5F8"/>
<path d="M151.935 246.391C151.935 246.663 151.391 246.885 150.699 246.885C150.007 246.885 149.463 246.663 149.463 246.391C149.463 246.119 150.007 245.896 150.699 245.896C151.367 245.896 151.935 246.119 151.935 246.391Z" fill="#7C9AF2"/>
<path d="M158.857 244.981H156.385V246.44H158.857V244.981Z" fill="#7C9AF2"/>
<path d="M158.857 244.981C158.857 245.253 158.314 245.476 157.621 245.476C156.929 245.476 156.385 245.253 156.385 244.981C156.385 244.709 156.929 244.487 157.621 244.487C158.314 244.487 158.857 244.709 158.857 244.981Z" fill="#91B5F8"/>
<path d="M158.857 246.391C158.857 246.663 158.314 246.885 157.621 246.885C156.929 246.885 156.385 246.663 156.385 246.391C156.385 246.119 156.929 245.896 157.621 245.896C158.314 245.896 158.857 246.119 158.857 246.391Z" fill="#7C9AF2"/>
<path d="M140.316 248.146H137.843V249.605H140.316V248.146Z" fill="#7C9AF2"/>
<path d="M140.316 248.146C140.316 248.418 139.772 248.641 139.079 248.641C138.387 248.641 137.843 248.418 137.843 248.146C137.843 247.874 138.387 247.652 139.079 247.652C139.747 247.652 140.316 247.874 140.316 248.146Z" fill="#91B5F8"/>
<path d="M140.316 249.556C140.316 249.828 139.772 250.05 139.079 250.05C138.387 250.05 137.843 249.828 137.843 249.556C137.843 249.284 138.387 249.061 139.079 249.061C139.747 249.061 140.316 249.284 140.316 249.556Z" fill="#7C9AF2"/>
<path d="M147.238 248.146H144.766V249.605H147.238V248.146Z" fill="#7C9AF2"/>
<path d="M147.238 248.146C147.238 248.418 146.694 248.641 146.002 248.641C145.31 248.641 144.766 248.418 144.766 248.146C144.766 247.874 145.31 247.652 146.002 247.652C146.669 247.652 147.238 247.874 147.238 248.146Z" fill="#91B5F8"/>
<path d="M147.238 249.556C147.238 249.828 146.694 250.05 146.002 250.05C145.31 250.05 144.766 249.828 144.766 249.556C144.766 249.284 145.31 249.061 146.002 249.061C146.669 249.061 147.238 249.284 147.238 249.556Z" fill="#7C9AF2"/>
<path d="M154.16 248.146H151.688V249.605H154.16V248.146Z" fill="#7C9AF2"/>
<path d="M154.16 248.146C154.16 248.418 153.616 248.641 152.924 248.641C152.232 248.641 151.688 248.418 151.688 248.146C151.688 247.874 152.232 247.652 152.924 247.652C153.616 247.652 154.16 247.874 154.16 248.146Z" fill="#91B5F8"/>
<path d="M154.16 249.556C154.16 249.828 153.616 250.05 152.924 250.05C152.232 250.05 151.688 249.828 151.688 249.556C151.688 249.284 152.232 249.061 152.924 249.061C153.616 249.061 154.16 249.284 154.16 249.556Z" fill="#7C9AF2"/>
<path d="M161.083 248.146H158.61V249.605H161.083V248.146Z" fill="#7C9AF2"/>
<path d="M161.083 248.146C161.083 248.418 160.539 248.641 159.846 248.641C159.154 248.641 158.61 248.418 158.61 248.146C158.61 247.874 159.154 247.652 159.846 247.652C160.539 247.652 161.083 247.874 161.083 248.146Z" fill="#91B5F8"/>
<path d="M161.083 249.556C161.083 249.828 160.539 250.05 159.846 250.05C159.154 250.05 158.61 249.828 158.61 249.556C158.61 249.284 159.154 249.061 159.846 249.061C160.539 249.061 161.083 249.284 161.083 249.556Z" fill="#7C9AF2"/>
<path d="M147.732 257.987H145.26V259.446H147.732V257.987Z" fill="#7C9AF2"/>
<path d="M147.732 257.988C147.732 258.26 147.189 258.482 146.496 258.482C145.804 258.482 145.26 258.26 145.26 257.988C145.26 257.716 145.804 257.493 146.496 257.493C147.189 257.493 147.732 257.716 147.732 257.988Z" fill="#91B5F8"/>
<path d="M147.732 259.397C147.732 259.669 147.189 259.891 146.496 259.891C145.804 259.891 145.26 259.669 145.26 259.397C145.26 259.125 145.804 258.902 146.496 258.902C147.189 258.902 147.732 259.125 147.732 259.397Z" fill="#7C9AF2"/>
<path d="M154.655 257.988H152.183V259.446H154.655V257.988Z" fill="#7C9AF2"/>
<path d="M154.655 257.988C154.655 258.26 154.111 258.482 153.419 258.482C152.727 258.482 152.183 258.26 152.183 257.988C152.183 257.716 152.727 257.493 153.419 257.493C154.111 257.493 154.655 257.716 154.655 257.988Z" fill="#91B5F8"/>
<path d="M154.655 259.397C154.655 259.669 154.111 259.891 153.419 259.891C152.727 259.891 152.183 259.669 152.183 259.397C152.183 259.125 152.727 258.902 153.419 258.902C154.111 258.902 154.655 259.125 154.655 259.397Z" fill="#7C9AF2"/>
<path d="M161.602 257.988H159.13V259.446H161.602V257.988Z" fill="#7C9AF2"/>
<path d="M161.577 257.988C161.577 258.26 161.033 258.482 160.341 258.482C159.649 258.482 159.105 258.26 159.105 257.988C159.105 257.716 159.649 257.493 160.341 257.493C161.033 257.493 161.577 257.716 161.577 257.988Z" fill="#91B5F8"/>
<path d="M161.577 259.397C161.577 259.669 161.033 259.891 160.341 259.891C159.649 259.891 159.105 259.669 159.105 259.397C159.105 259.125 159.649 258.902 160.341 258.902C161.033 258.902 161.577 259.125 161.577 259.397Z" fill="#7C9AF2"/>
<path d="M168.524 257.988H166.052V259.446H168.524V257.988Z" fill="#7C9AF2"/>
<path d="M168.524 257.988C168.524 258.26 167.98 258.482 167.288 258.482C166.596 258.482 166.052 258.26 166.052 257.988C166.052 257.716 166.596 257.493 167.288 257.493C167.955 257.493 168.499 257.716 168.524 257.988Z" fill="#91B5F8"/>
<path d="M168.524 259.397C168.524 259.669 167.98 259.891 167.288 259.891C166.596 259.891 166.052 259.669 166.052 259.397C166.052 259.125 166.596 258.902 167.288 258.902C167.955 258.902 168.524 259.125 168.524 259.397Z" fill="#7C9AF2"/>
<path d="M159.352 275.024H156.879V276.483H159.352V275.024Z" fill="#7C9AF2"/>
<path d="M159.352 275.024C159.352 275.296 158.808 275.519 158.116 275.519C157.423 275.519 156.879 275.296 156.879 275.024C156.879 274.752 157.423 274.529 158.116 274.529C158.808 274.529 159.352 274.752 159.352 275.024Z" fill="#91B5F8"/>
<path d="M159.352 276.433C159.352 276.705 158.808 276.928 158.116 276.928C157.423 276.928 156.879 276.705 156.879 276.433C156.879 276.161 157.423 275.939 158.116 275.939C158.808 275.939 159.352 276.161 159.352 276.433Z" fill="#7C9AF2"/>
<path d="M166.299 275.024H163.827V276.483H166.299V275.024Z" fill="#7C9AF2"/>
<path d="M166.274 275.024C166.274 275.296 165.73 275.519 165.038 275.519C164.346 275.519 163.802 275.296 163.802 275.024C163.802 274.752 164.346 274.529 165.038 274.529C165.73 274.529 166.274 274.752 166.274 275.024Z" fill="#91B5F8"/>
<path d="M166.274 276.433C166.274 276.705 165.73 276.928 165.038 276.928C164.346 276.928 163.802 276.705 163.802 276.433C163.802 276.161 164.346 275.939 165.038 275.939C165.73 275.939 166.274 276.161 166.274 276.433Z" fill="#7C9AF2"/>
<path d="M173.221 275.024H170.749V276.483H173.221V275.024Z" fill="#7C9AF2"/>
<path d="M173.221 275.024C173.221 275.296 172.677 275.519 171.985 275.519C171.292 275.519 170.749 275.296 170.749 275.024C170.749 274.752 171.292 274.529 171.985 274.529C172.652 274.529 173.221 274.752 173.221 275.024Z" fill="#91B5F8"/>
<path d="M173.221 276.433C173.221 276.705 172.677 276.928 171.985 276.928C171.292 276.928 170.749 276.705 170.749 276.433C170.749 276.161 171.292 275.939 171.985 275.939C172.652 275.939 173.221 276.161 173.221 276.433Z" fill="#7C9AF2"/>
<path d="M180.143 275.024H177.671V276.483H180.143V275.024Z" fill="#7C9AF2"/>
<path d="M180.143 275.024C180.143 275.296 179.599 275.519 178.907 275.519C178.215 275.519 177.671 275.296 177.671 275.024C177.671 274.752 178.215 274.529 178.907 274.529C179.575 274.529 180.143 274.752 180.143 275.024Z" fill="#91B5F8"/>
<path d="M180.143 276.433C180.143 276.705 179.599 276.928 178.907 276.928C178.215 276.928 177.671 276.705 177.671 276.433C177.671 276.161 178.215 275.939 178.907 275.939C179.575 275.939 180.143 276.161 180.143 276.433Z" fill="#7C9AF2"/>
<path d="M171.441 342.255H127.164V351.404H171.441V342.255Z" fill="#CAD7FF"/>
<path d="M173.691 345.297H171.441V348.486H173.691V345.297Z" fill="#CAD7FF"/>
<path d="M159.229 345.42H139.376V348.214H159.229V345.42Z" fill="#D9E4FF"/>
<path d="M173.691 345.94V348.017L177.004 347.67V346.484L173.691 345.94Z" fill="#CAD7FF"/>
<path d="M171.441 356.794H127.164V365.943H171.441V356.794Z" fill="#CAD7FF"/>
<path d="M173.691 359.836H171.441V363.026H173.691V359.836Z" fill="#CAD7FF"/>
<path d="M159.229 359.959H139.376V362.754H159.229V359.959Z" fill="#D9E4FF"/>
<path d="M173.691 360.479V362.556L177.004 362.21V361.023L173.691 360.479Z" fill="#CAD7FF"/>
<path d="M171.441 328.829H127.164V337.978H171.441V328.829Z" fill="#CAD7FF"/>
<path d="M173.691 331.87H171.441V335.06H173.691V331.87Z" fill="#CAD7FF"/>
<path d="M159.229 331.994H139.376V334.788H159.229V331.994Z" fill="#D9E4FF"/>
<path d="M173.691 332.513V334.615L177.004 334.269V333.082L173.691 332.513Z" fill="#CAD7FF"/>
<path d="M171.441 315.65H127.164V324.798H171.441V315.65Z" fill="#CAD7FF"/>
<path d="M173.691 318.691H171.441V321.881H173.691V318.691Z" fill="#CAD7FF"/>
<path d="M159.229 318.815H139.376V321.609H159.229V318.815Z" fill="#D9E4FF"/>
<path d="M173.691 319.334V321.436L177.004 321.089V319.903L173.691 319.334Z" fill="#CAD7FF"/>
<path d="M188.525 335.035C187.659 335.035 186.918 334.837 186.324 334.442C184.322 333.082 184.149 329.571 183.926 325.515L183.902 325.169C183.827 323.611 183.16 322.425 181.973 321.658C179.971 320.348 177.053 320.62 177.029 320.644L176.955 320.199C177.078 320.175 180.144 319.903 182.344 321.312C183.679 322.177 184.396 323.463 184.495 325.169L184.52 325.515C184.742 329.472 184.915 332.909 186.72 334.12C187.289 334.491 187.981 334.664 188.846 334.59L188.896 335.035C188.772 335.035 188.648 335.035 188.525 335.035Z" fill="#CAD7FF"/>
<path d="M188.525 348.486C187.659 348.486 186.918 348.289 186.324 347.893C184.322 346.533 184.149 343.022 183.926 338.967L183.902 338.62C183.827 337.063 183.16 335.876 181.973 335.109C179.971 333.799 177.053 334.071 177.029 334.096L176.955 333.65C177.078 333.626 180.144 333.354 182.344 334.763C183.679 335.629 184.396 336.914 184.495 338.62L184.52 338.967C184.742 342.923 184.915 346.36 186.72 347.571C187.289 347.942 187.981 348.115 188.846 348.041L188.896 348.486C188.772 348.462 188.648 348.486 188.525 348.486Z" fill="#CAD7FF"/>
<path d="M188.525 361.74C187.659 361.74 186.918 361.542 186.324 361.146C184.322 359.786 184.149 356.275 183.926 352.22L183.902 351.874C183.827 350.316 183.16 349.129 181.973 348.363C179.971 347.052 177.053 347.324 177.029 347.349L176.955 346.904C177.078 346.879 180.144 346.607 182.344 348.017C183.679 348.882 184.396 350.168 184.495 351.874L184.52 352.22C184.742 356.176 184.915 359.613 186.72 360.825C187.289 361.196 187.981 361.369 188.846 361.295L188.896 361.74C188.772 361.715 188.648 361.74 188.525 361.74Z" fill="#CAD7FF"/>
<path d="M188.525 376.279C187.659 376.279 186.918 376.081 186.324 375.685C184.322 374.326 184.149 370.814 183.926 366.759L183.902 366.413C183.827 364.855 183.16 363.668 181.973 362.902C179.971 361.591 177.053 361.863 177.029 361.888L176.955 361.443C177.078 361.418 180.144 361.146 182.344 362.556C183.679 363.421 184.396 364.707 184.495 366.413L184.52 366.759C184.742 370.715 184.915 374.152 186.72 375.364C187.289 375.735 187.981 375.908 188.846 375.834L188.896 376.279C188.772 376.279 188.648 376.279 188.525 376.279Z" fill="#CAD7FF"/>
<path d="M104.171 219.785C102.762 219.785 101.378 219.266 100.315 218.277C98.0649 216.126 96.6557 213.727 96.1118 211.106C95.6668 208.955 95.8152 206.754 96.5815 204.554C97.7188 201.24 99.8696 199.064 100.29 198.669C100.29 198.669 101.823 197.185 104.74 197.63C106.668 197.927 108.597 199.114 109.338 200.795C110.55 203.565 108.003 205.716 108.003 205.716C108.003 205.716 108.028 205.691 108.053 205.666C107.806 205.938 107.064 206.828 106.767 207.867C106.52 208.732 106.495 209.746 108.003 211.205C110.08 213.208 110.031 216.398 107.904 218.326C106.891 219.315 105.531 219.785 104.171 219.785Z" fill="#F78248"/>
<path d="M119.573 219.785C118.288 219.785 116.977 219.365 115.964 218.475C113.764 216.595 113.591 213.406 115.593 211.353C117.076 209.845 117.002 208.708 116.755 207.793C116.409 206.532 114.283 203.441 114.357 201.957C114.555 197.902 117.175 197.061 118.288 196.913C121.947 196.443 123.554 198.817 123.554 198.817C123.949 199.213 125.952 201.389 126.99 204.653C128.548 209.449 127.311 214.222 123.554 218.128C122.491 219.241 121.032 219.785 119.573 219.785Z" fill="#F78248"/>
<path d="M111.143 223.989C110.97 223.989 110.846 223.865 110.846 223.692V210.933C110.846 210.908 110.846 209.351 109.758 208.411C109.116 207.867 108.201 207.62 107.064 207.719C106.891 207.743 106.742 207.62 106.718 207.447C106.693 207.298 106.816 207.15 106.989 207.125C108.324 207.002 109.388 207.298 110.154 207.966C111.44 209.079 111.439 210.834 111.439 210.908V223.667C111.439 223.865 111.316 223.989 111.143 223.989Z" fill="#F78248"/>
<path d="M112.972 223.989C112.799 223.989 112.676 223.865 112.676 223.692V210.933C112.676 210.859 112.676 209.103 113.961 207.991C114.728 207.323 115.816 207.051 117.126 207.15C117.299 207.175 117.423 207.298 117.398 207.471C117.373 207.62 117.225 207.743 117.052 207.743C115.914 207.644 115 207.867 114.357 208.436C113.269 209.375 113.269 210.933 113.269 210.958V223.741C113.294 223.865 113.146 223.989 112.972 223.989Z" fill="#F78248"/>
<path d="M151.885 193.155H133.986V194.614H151.885V193.155Z" fill="#BDD1F9"/>
<path d="M146.718 196.517H133.986V197.976H146.718V196.517Z" fill="#BDD1F9"/>
<path d="M151.885 202.773H133.986V204.232H151.885V202.773Z" fill="#BDD1F9"/>
<path d="M146.718 206.136H133.986V207.595H146.718V206.136Z" fill="#BDD1F9"/>
<path d="M151.91 212.293H134.011V213.752H151.91V212.293Z" fill="#BDD1F9"/>
<path d="M146.743 215.656H134.011V217.115H146.743V215.656Z" fill="#BDD1F9"/>
<path d="M151.91 222.332H134.011V223.791H151.91V222.332Z" fill="#BDD1F9"/>
<path d="M146.743 225.695H134.011V227.154H146.743V225.695Z" fill="#BDD1F9"/>
</svg>
