<svg width="595" height="420" viewBox="0 0 595 420" fill="none" xmlns="http://www.w3.org/2000/svg">
<path d="M119.154 413.358C119.154 413.358 79.9988 378.86 28.0945 264.341C-23.7773 149.79 -4.05371 14.9422 89.2118 1.97292C182.477 -10.9963 254.884 44.2203 254.884 44.2203C254.884 44.2203 358.919 11.019 441.934 33.7152C524.948 56.4438 516.806 167.753 516.806 167.753C516.806 167.753 569.164 198.652 590.542 268.88C611.92 339.109 538.411 413.066 538.411 413.066L119.154 413.358Z" fill="#D0E5F3"/>
<path d="M576.691 419.972H88.856C86.1635 419.972 83.9575 417.799 83.9575 415.076V414.946C83.9575 412.255 86.131 410.05 88.856 410.05H576.659C579.352 410.05 581.557 412.223 581.557 414.946V415.076C581.557 417.767 579.384 419.972 576.691 419.972Z" fill="#1C0B82"/>
<path d="M478.851 348.349H145.561C139.786 348.349 135.115 343.972 135.115 338.59L128.789 110.558C128.789 105.175 133.46 100.798 139.235 100.798H488.356C494.13 100.798 498.802 105.175 498.802 110.558L489.297 338.59C489.297 344.004 484.625 348.349 478.851 348.349Z" fill="#EAE9F3"/>
<path d="M494.746 102.841C495.849 104.397 496.498 106.245 496.498 108.255L486.993 336.287C486.993 341.67 482.322 346.047 476.547 346.047H143.257C140.856 346.047 138.618 345.301 136.866 344.004C138.748 346.63 141.927 348.349 145.56 348.349H478.818C484.593 348.349 489.264 343.972 489.264 338.59L498.769 110.558C498.801 107.445 497.212 104.624 494.746 102.841Z" fill="#676E9C"/>
<path d="M149.615 321.665L143.289 117.269C143.289 111.887 147.96 107.51 153.735 107.51H477.52C483.295 107.51 487.966 111.887 487.966 117.269L478.461 321.665C478.461 327.047 473.79 331.424 468.015 331.424H160.061C154.286 331.424 149.615 327.047 149.615 321.665Z" fill="#6CBDE1"/>
<path d="M149.129 326.69L142.803 122.295C142.803 116.913 147.475 112.536 153.249 112.536H477.034C482.809 112.536 487.48 116.913 487.48 122.295L477.975 326.69C477.975 332.073 473.304 336.45 467.529 336.45H159.575C153.8 336.417 149.129 332.073 149.129 326.69Z" fill="url(#paint0_linear)"/>
<path opacity="0.32" d="M422.145 234.414C382.86 303.476 314.444 272.998 221.341 258.764C190.068 253.998 165.933 264.146 147.669 279.774L149.129 326.691C149.129 332.073 153.8 336.45 159.574 336.45H467.497C473.271 336.45 477.942 332.073 477.942 326.691L484.463 186.59C455.753 200.273 432.461 216.257 422.145 234.414Z" fill="url(#paint1_linear)"/>
<path d="M465.712 324.064H459.873C459.711 324.064 459.549 323.934 459.549 323.74C459.549 323.578 459.679 323.415 459.873 323.415H465.096L465.193 321.665C465.193 321.503 465.356 321.34 465.518 321.373C465.68 321.373 465.842 321.535 465.81 321.697L465.712 324.064ZM452.282 324.064H444.691C444.529 324.064 444.367 323.934 444.367 323.74C444.367 323.578 444.497 323.415 444.691 323.415H452.282C452.444 323.415 452.607 323.545 452.607 323.74C452.607 323.934 452.444 324.064 452.282 324.064ZM437.068 324.064H429.477C429.315 324.064 429.152 323.934 429.152 323.74C429.152 323.578 429.282 323.415 429.477 323.415H437.068C437.23 323.415 437.392 323.545 437.392 323.74C437.392 323.934 437.262 324.064 437.068 324.064ZM421.886 324.064H414.262C414.1 324.064 413.938 323.934 413.938 323.74C413.938 323.578 414.068 323.415 414.262 323.415H421.853C422.016 323.415 422.178 323.545 422.178 323.74C422.178 323.934 422.048 324.064 421.886 324.064ZM406.671 324.064H399.08C398.918 324.064 398.756 323.934 398.756 323.74C398.756 323.578 398.886 323.415 399.08 323.415H406.671C406.834 323.415 406.996 323.545 406.996 323.74C406.996 323.934 406.834 324.064 406.671 324.064ZM391.457 324.064H383.866C383.704 324.064 383.542 323.934 383.542 323.74C383.542 323.578 383.671 323.415 383.866 323.415H391.457C391.619 323.415 391.781 323.545 391.781 323.74C391.781 323.934 391.619 324.064 391.457 324.064ZM376.242 324.064H368.651C368.489 324.064 368.327 323.934 368.327 323.74C368.327 323.578 368.457 323.415 368.651 323.415H376.242C376.405 323.415 376.567 323.545 376.567 323.74C376.567 323.934 376.437 324.064 376.242 324.064ZM361.06 324.064H353.469C353.307 324.064 353.145 323.934 353.145 323.74C353.145 323.578 353.275 323.415 353.469 323.415H361.06C361.223 323.415 361.385 323.545 361.385 323.74C361.352 323.934 361.223 324.064 361.06 324.064ZM345.846 324.064H338.255C338.093 324.064 337.931 323.934 337.931 323.74C337.931 323.578 338.06 323.415 338.255 323.415H345.846C346.008 323.415 346.17 323.545 346.17 323.74C346.17 323.934 346.008 324.064 345.846 324.064ZM330.632 324.064H323.041C322.878 324.064 322.716 323.934 322.716 323.74C322.716 323.578 322.846 323.415 323.041 323.415H330.632C330.794 323.415 330.956 323.545 330.956 323.74C330.956 323.934 330.794 324.064 330.632 324.064ZM315.417 324.064H307.826C307.664 324.064 307.502 323.934 307.502 323.74C307.502 323.578 307.632 323.415 307.826 323.415H315.417C315.579 323.415 315.742 323.545 315.742 323.74C315.742 323.934 315.612 324.064 315.417 324.064ZM300.235 324.064H292.612C292.449 324.064 292.287 323.934 292.287 323.74C292.287 323.578 292.417 323.415 292.612 323.415H300.203C300.365 323.415 300.527 323.545 300.527 323.74C300.527 323.934 300.397 324.064 300.235 324.064ZM285.021 324.064H277.43C277.268 324.064 277.105 323.934 277.105 323.74C277.105 323.578 277.235 323.415 277.43 323.415H285.021C285.183 323.415 285.345 323.545 285.345 323.74C285.345 323.934 285.183 324.064 285.021 324.064ZM269.806 324.064H262.215C262.053 324.064 261.891 323.934 261.891 323.74C261.891 323.578 262.021 323.415 262.215 323.415H269.806C269.968 323.415 270.131 323.545 270.131 323.74C270.131 323.934 269.968 324.064 269.806 324.064ZM254.592 324.064H247.001C246.839 324.064 246.676 323.934 246.676 323.74C246.676 323.578 246.806 323.415 247.001 323.415H254.592C254.754 323.415 254.916 323.545 254.916 323.74C254.916 323.934 254.786 324.064 254.592 324.064ZM239.41 324.064H231.819C231.657 324.064 231.494 323.934 231.494 323.74C231.494 323.578 231.624 323.415 231.819 323.415H239.41C239.572 323.415 239.734 323.545 239.734 323.74C239.702 323.934 239.572 324.064 239.41 324.064ZM224.195 324.064H216.604C216.442 324.064 216.28 323.934 216.28 323.74C216.28 323.578 216.41 323.415 216.604 323.415H224.195C224.358 323.415 224.52 323.545 224.52 323.74C224.52 323.934 224.358 324.064 224.195 324.064ZM208.981 324.064H201.39C201.228 324.064 201.066 323.934 201.066 323.74C201.066 323.578 201.195 323.415 201.39 323.415H208.981C209.143 323.415 209.305 323.545 209.305 323.74C209.305 323.934 209.143 324.064 208.981 324.064ZM193.766 324.064H186.175C186.013 324.064 185.851 323.934 185.851 323.74C185.851 323.578 185.981 323.415 186.175 323.415H193.766C193.929 323.415 194.091 323.545 194.091 323.74C194.091 323.934 193.961 324.064 193.766 324.064ZM178.584 324.064H170.961C170.799 324.064 170.637 323.934 170.637 323.74C170.637 323.578 170.766 323.415 170.961 323.415H178.552C178.714 323.415 178.876 323.545 178.876 323.74C178.876 323.934 178.747 324.064 178.584 324.064ZM163.37 324.064H161.424L161.164 316.153C161.164 315.991 161.294 315.828 161.456 315.828C161.651 315.828 161.78 315.958 161.78 316.12L162.008 323.415H163.338C163.5 323.415 163.662 323.545 163.662 323.74C163.694 323.934 163.532 324.064 163.37 324.064ZM465.875 314.402C465.875 314.402 465.842 314.402 465.875 314.402C465.68 314.402 465.55 314.24 465.55 314.078L465.907 306.491C465.907 306.328 466.069 306.166 466.232 306.199C466.394 306.199 466.556 306.361 466.523 306.523L466.167 314.11C466.167 314.272 466.037 314.402 465.875 314.402ZM161.261 308.89C161.099 308.89 160.937 308.76 160.937 308.598L160.71 301.011C160.71 300.849 160.84 300.687 161.002 300.687C161.197 300.687 161.326 300.817 161.326 300.979L161.553 308.566C161.586 308.728 161.424 308.89 161.261 308.89ZM466.588 299.228C466.556 299.228 466.556 299.228 466.588 299.228C466.394 299.228 466.264 299.066 466.264 298.904L466.621 291.317C466.621 291.154 466.783 290.992 466.945 291.025C467.107 291.025 467.27 291.187 467.237 291.349L466.88 298.936C466.88 299.098 466.751 299.228 466.588 299.228ZM160.775 293.683C160.613 293.683 160.45 293.554 160.45 293.392L160.223 285.805C160.223 285.643 160.353 285.48 160.515 285.48C160.677 285.48 160.84 285.61 160.84 285.772L161.067 293.359C161.099 293.554 160.969 293.683 160.775 293.683ZM467.27 284.054C467.075 284.054 466.945 283.892 466.945 283.73L467.302 276.143C467.302 275.98 467.464 275.818 467.626 275.851C467.789 275.851 467.951 276.013 467.918 276.175L467.562 283.762C467.594 283.924 467.464 284.054 467.27 284.054ZM160.321 278.509C160.158 278.509 159.996 278.38 159.996 278.218L159.769 270.631C159.769 270.468 159.899 270.306 160.061 270.306C160.223 270.306 160.386 270.436 160.386 270.598L160.613 278.185C160.613 278.347 160.483 278.509 160.321 278.509ZM467.983 268.88C467.789 268.88 467.659 268.718 467.659 268.555L468.016 260.968C468.016 260.806 468.178 260.644 468.34 260.677C468.502 260.677 468.665 260.839 468.632 261.001L468.275 268.588C468.308 268.75 468.146 268.88 467.983 268.88ZM159.834 263.303C159.672 263.303 159.51 263.173 159.51 263.011L159.283 255.424C159.283 255.262 159.412 255.1 159.575 255.1C159.769 255.1 159.899 255.23 159.899 255.392L160.126 262.979C160.158 263.173 160.029 263.303 159.834 263.303ZM468.697 253.673C468.502 253.673 468.373 253.511 468.373 253.349L468.729 245.762C468.729 245.6 468.892 245.438 469.054 245.47C469.216 245.47 469.378 245.632 469.346 245.794L468.989 253.381C468.989 253.544 468.859 253.673 468.697 253.673ZM159.347 248.129C159.185 248.129 159.023 247.999 159.023 247.837L158.796 240.25C158.796 240.088 158.926 239.926 159.088 239.926C159.283 239.926 159.412 240.056 159.412 240.218L159.639 247.805C159.672 247.967 159.542 248.129 159.347 248.129C159.38 248.129 159.38 248.129 159.347 248.129ZM469.411 238.499C469.411 238.499 469.378 238.499 469.411 238.499C469.216 238.499 469.086 238.337 469.086 238.175L469.443 230.588C469.443 230.426 469.605 230.264 469.768 230.296C469.93 230.296 470.092 230.458 470.059 230.62L469.703 238.207C469.703 238.37 469.573 238.499 469.411 238.499ZM158.893 232.922C158.731 232.922 158.569 232.793 158.569 232.631L158.342 225.044C158.342 224.882 158.472 224.719 158.634 224.719C158.828 224.719 158.958 224.849 158.958 225.011L159.185 232.598C159.218 232.793 159.088 232.922 158.893 232.922ZM470.092 223.325C469.897 223.325 469.768 223.163 469.768 223.001L470.124 215.414C470.124 215.252 470.287 215.09 470.449 215.122C470.611 215.122 470.773 215.284 470.741 215.446L470.384 223.033C470.416 223.196 470.287 223.325 470.092 223.325ZM158.407 217.748C158.244 217.748 158.082 217.619 158.082 217.457L157.855 209.87C157.855 209.707 157.985 209.545 158.147 209.545C158.342 209.545 158.472 209.675 158.472 209.837L158.699 217.424C158.731 217.586 158.601 217.748 158.407 217.748C158.439 217.748 158.439 217.748 158.407 217.748ZM470.806 208.151C470.611 208.151 470.481 207.989 470.481 207.827L470.838 200.24C470.838 200.078 471.033 199.916 471.162 199.948C471.325 199.948 471.487 200.11 471.454 200.272L471.098 207.859C471.13 208.021 470.968 208.151 470.806 208.151ZM157.953 202.542C157.79 202.542 157.628 202.412 157.628 202.25L157.401 194.663C157.401 194.501 157.531 194.339 157.693 194.339C157.855 194.306 158.017 194.469 158.017 194.631L158.244 202.218C158.277 202.412 158.147 202.542 157.953 202.542ZM471.519 192.977C471.325 192.977 471.195 192.815 471.195 192.653L471.552 185.066C471.552 184.904 471.714 184.742 471.876 184.774C472.038 184.774 472.201 184.936 472.168 185.098L471.811 192.685C471.844 192.815 471.681 192.977 471.519 192.977ZM157.466 187.368C157.304 187.368 157.142 187.238 157.142 187.076L156.914 179.489C156.914 179.327 157.044 179.165 157.206 179.165C157.369 179.165 157.531 179.295 157.531 179.457L157.758 187.044C157.79 187.206 157.661 187.336 157.466 187.368C157.498 187.368 157.466 187.368 157.466 187.368ZM472.233 177.771C472.233 177.771 472.201 177.771 472.233 177.771C472.038 177.771 471.909 177.609 471.909 177.446L472.265 169.859C472.265 169.697 472.428 169.535 472.59 169.568C472.752 169.568 472.914 169.73 472.882 169.892L472.525 177.479C472.525 177.641 472.395 177.771 472.233 177.771ZM157.012 172.161C156.85 172.161 156.687 172.032 156.687 171.87L156.46 164.283C156.46 164.121 156.59 163.958 156.752 163.958C156.914 163.958 157.077 164.088 157.077 164.25L157.336 171.837C157.336 171.999 157.206 172.161 157.012 172.161ZM472.947 162.597C472.914 162.597 472.914 162.597 472.947 162.597C472.752 162.597 472.622 162.435 472.622 162.272L472.979 154.685C472.979 154.523 473.141 154.361 473.303 154.394C473.466 154.394 473.628 154.556 473.595 154.718L473.239 162.305C473.239 162.467 473.109 162.597 472.947 162.597ZM156.525 156.987C156.363 156.987 156.201 156.858 156.201 156.696L155.974 149.109C155.974 148.946 156.103 148.784 156.266 148.784C156.46 148.784 156.59 148.914 156.59 149.076L156.817 156.663C156.85 156.825 156.72 156.955 156.525 156.987C156.558 156.987 156.525 156.987 156.525 156.987ZM473.628 147.423C473.433 147.423 473.303 147.26 473.303 147.098L473.66 139.511C473.66 139.349 473.823 139.187 473.985 139.22C474.147 139.22 474.309 139.382 474.277 139.544L473.92 147.131C473.952 147.293 473.79 147.423 473.628 147.423ZM156.071 141.781C155.909 141.781 155.747 141.651 155.747 141.489L155.519 133.902C155.519 133.74 155.649 133.578 155.811 133.578C155.974 133.578 156.136 133.708 156.136 133.87L156.363 141.457C156.395 141.619 156.266 141.781 156.071 141.781ZM474.342 132.249C474.147 132.249 474.017 132.086 474.017 131.924L474.309 125.537H473.79C473.628 125.537 473.466 125.407 473.466 125.213C473.466 125.051 473.595 124.889 473.79 124.889H474.99L474.666 131.957C474.666 132.086 474.504 132.249 474.342 132.249ZM155.584 126.607C155.422 126.607 155.26 126.477 155.26 126.315L155.228 124.889H162.072C162.235 124.889 162.397 125.018 162.397 125.213C162.397 125.375 162.267 125.537 162.072 125.537H155.876L155.909 126.315C155.909 126.445 155.779 126.575 155.584 126.607C155.617 126.607 155.584 126.607 155.584 126.607ZM466.199 125.505H458.608C458.446 125.505 458.284 125.375 458.284 125.18C458.284 125.018 458.413 124.856 458.608 124.856H466.199C466.361 124.856 466.523 124.986 466.523 125.18C466.523 125.342 466.361 125.505 466.199 125.505ZM450.985 125.505H443.394C443.231 125.505 443.069 125.375 443.069 125.18C443.069 125.018 443.199 124.856 443.394 124.856H450.985C451.147 124.856 451.309 124.986 451.309 125.18C451.309 125.342 451.179 125.505 450.985 125.505ZM435.77 125.505H428.179C428.017 125.505 427.855 125.375 427.855 125.18C427.855 125.018 427.985 124.856 428.179 124.856H435.77C435.932 124.856 436.095 124.986 436.095 125.18C436.095 125.342 435.965 125.505 435.77 125.505ZM420.588 125.505H412.965C412.803 125.505 412.64 125.375 412.64 125.18C412.64 125.018 412.77 124.856 412.965 124.856H420.556C420.718 124.856 420.88 124.986 420.88 125.18C420.88 125.342 420.75 125.505 420.588 125.505ZM405.374 125.505H397.783C397.621 125.505 397.458 125.375 397.458 125.18C397.458 125.018 397.588 124.856 397.783 124.856H405.374C405.536 124.856 405.698 124.986 405.698 125.18C405.698 125.342 405.536 125.505 405.374 125.505ZM390.159 125.505H382.568C382.406 125.505 382.244 125.375 382.244 125.18C382.244 125.018 382.374 124.856 382.568 124.856H390.159C390.322 124.856 390.484 124.986 390.484 125.18C390.484 125.342 390.354 125.505 390.159 125.505ZM374.945 125.505H367.354C367.192 125.505 367.029 125.375 367.029 125.18C367.029 125.018 367.159 124.856 367.354 124.856H374.945C375.107 124.856 375.269 124.986 375.269 125.18C375.269 125.342 375.14 125.505 374.945 125.505ZM359.763 125.505H352.172C352.01 125.505 351.847 125.375 351.847 125.18C351.847 125.018 351.977 124.856 352.172 124.856H359.763C359.925 124.856 360.087 124.986 360.087 125.18C360.055 125.342 359.925 125.505 359.763 125.505ZM344.548 125.505H336.957C336.795 125.505 336.633 125.375 336.633 125.18C336.633 125.018 336.763 124.856 336.957 124.856H344.548C344.711 124.856 344.873 124.986 344.873 125.18C344.873 125.342 344.711 125.505 344.548 125.505ZM329.334 125.505H321.743C321.581 125.505 321.419 125.375 321.419 125.18C321.419 125.018 321.548 124.856 321.743 124.856H329.334C329.496 124.856 329.658 124.986 329.658 125.18C329.658 125.342 329.529 125.505 329.334 125.505ZM314.12 125.505H306.529C306.366 125.505 306.204 125.375 306.204 125.18C306.204 125.018 306.334 124.856 306.529 124.856H314.12C314.282 124.856 314.444 124.986 314.444 125.18C314.444 125.342 314.314 125.505 314.12 125.505ZM298.938 125.505H291.314C291.152 125.505 290.99 125.375 290.99 125.18C290.99 125.018 291.119 124.856 291.314 124.856H298.905C299.067 124.856 299.23 124.986 299.23 125.18C299.23 125.342 299.1 125.505 298.938 125.505ZM283.723 125.505H276.132C275.97 125.505 275.808 125.375 275.808 125.18C275.808 125.018 275.937 124.856 276.132 124.856H283.723C283.885 124.856 284.047 124.986 284.047 125.18C284.047 125.342 283.885 125.505 283.723 125.505ZM268.509 125.505H260.918C260.755 125.505 260.593 125.375 260.593 125.18C260.593 125.018 260.723 124.856 260.918 124.856H268.509C268.671 124.856 268.833 124.986 268.833 125.18C268.833 125.342 268.703 125.505 268.509 125.505ZM253.294 125.505H245.703C245.541 125.505 245.379 125.375 245.379 125.18C245.379 125.018 245.509 124.856 245.703 124.856H253.294C253.456 124.856 253.619 124.986 253.619 125.18C253.619 125.342 253.489 125.505 253.294 125.505ZM238.112 125.505H230.521C230.359 125.505 230.197 125.375 230.197 125.18C230.197 125.018 230.327 124.856 230.521 124.856H238.112C238.274 124.856 238.437 124.986 238.437 125.18C238.404 125.342 238.274 125.505 238.112 125.505ZM222.898 125.505H215.307C215.145 125.505 214.982 125.375 214.982 125.18C214.982 125.018 215.112 124.856 215.307 124.856H222.898C223.06 124.856 223.222 124.986 223.222 125.18C223.222 125.342 223.06 125.505 222.898 125.505ZM207.683 125.505H200.092C199.93 125.505 199.768 125.375 199.768 125.18C199.768 125.018 199.898 124.856 200.092 124.856H207.683C207.846 124.856 208.008 124.986 208.008 125.18C208.008 125.342 207.878 125.505 207.683 125.505ZM192.469 125.505H184.878C184.716 125.505 184.553 125.375 184.553 125.18C184.553 125.018 184.683 124.856 184.878 124.856H192.469C192.631 124.856 192.793 124.986 192.793 125.18C192.793 125.342 192.664 125.505 192.469 125.505ZM177.287 125.505H169.663C169.501 125.505 169.339 125.375 169.339 125.18C169.339 125.018 169.469 124.856 169.663 124.856H177.254C177.417 124.856 177.579 124.986 177.579 125.18C177.579 125.342 177.449 125.505 177.287 125.505Z" fill="#AFD6FF"/>
<path d="M304.907 156.793C304.907 156.793 309.416 202.38 307.469 217.911L296.342 335.704H392.333C392.333 335.704 386.948 235.322 386.948 227.735C386.948 220.148 385.358 156.793 385.358 156.793L370.306 149.206L332.448 148.72L304.907 156.793Z" fill="url(#paint2_linear)"/>
<path d="M330.892 149.433L311.947 154.75C311.947 154.75 319.538 192.588 324.047 197.127C328.589 201.667 323.268 205.039 327.064 208.832C330.859 212.626 351.946 241.191 351.946 241.191L330.892 149.433Z" fill="#87A2C2"/>
<path d="M371.28 150.665L351.978 241.19C351.978 241.19 372.513 204.909 374.297 203.126C376.049 201.375 374.297 193.95 374.297 190.448C374.297 186.979 385.229 156.696 385.229 156.696C385.229 156.696 375.205 150.665 371.28 150.665Z" fill="#87A2C2"/>
<path d="M332.481 148.72L312.206 150.762C312.206 150.762 319.538 188.049 324.047 192.556C328.588 197.095 323.268 200.467 327.064 204.261C330.859 208.054 351.945 241.158 351.945 241.158L332.481 148.72Z" fill="#BADCFF"/>
<path d="M370.339 149.206L351.978 241.19C351.978 241.19 372.513 200.37 374.297 198.619C376.049 196.868 374.297 189.443 374.297 185.941C374.297 182.44 385.424 153.648 385.424 153.648C385.424 153.648 374.264 149.206 370.339 149.206Z" fill="#BADCFF"/>
<path d="M349.285 335.704L351.978 241.191L351.394 335.704H349.285Z" fill="#7696B5"/>
<path d="M359.406 348.349H287.162V355.936H359.406V348.349Z" fill="#8088C2"/>
<path d="M353.243 391.05H293.358L291.444 355.969H355.124L353.243 391.05Z" fill="#8792CE"/>
<path opacity="0.28" d="M355.124 355.969H291.444L293.358 391.05H301.241C302.02 385.603 303.545 379.767 306.529 375.098C311.882 366.668 338.223 363.329 354.832 362.064L355.124 355.969Z" fill="#370C62"/>
<path d="M407.254 410.05H244.405C244.405 399.545 252.904 391.05 263.415 391.05H388.245C398.723 391.05 407.254 399.545 407.254 410.05Z" fill="#676E9C"/>
<path d="M231.624 161.527L226.109 141.749L201.779 147.974C201.779 147.974 205.25 158.771 207.651 160.23C209.435 161.332 214.788 164.607 217.513 166.261L239.248 209.351L254.884 190.027L231.624 161.527Z" fill="#FD5E5A"/>
<path d="M346.56 50.6719C346.56 50.6719 365.084 48.4023 372.999 52.1958C380.914 55.9569 396.453 71.2282 392.333 100.831C392.333 100.831 395.675 101.901 396.615 106.407C397.556 110.947 397.653 119.02 389.803 126.51C381.952 133.999 368.749 133.156 361.937 133.156C355.124 133.156 335.952 127.418 331.054 116.848C326.155 106.245 346.56 50.6719 346.56 50.6719Z" fill="#26004A"/>
<path d="M355.546 54.9845C350.583 54.5306 346.43 56.8002 343.121 60.5288C338.904 72.8821 332.189 94.0544 330.632 107.121C331.313 112.373 333.065 117.594 335.563 121.711C335.984 122.425 336.471 123.106 336.925 123.754C343.478 128.909 353.145 132.022 359.082 132.897C377.54 130.401 382.763 113.379 382.309 94.5732C382.179 89.5151 385.813 73.7575 377.962 63.5442C372.674 56.7029 363.591 54.1739 355.546 54.9845Z" fill="#130025"/>
<path d="M337.087 119.766C337.087 119.766 338.028 132.605 337.087 138.442C336.147 144.278 332.481 148.72 332.481 148.72L351.977 241.191L370.339 149.206C370.339 149.206 365.765 146.418 364.467 138.442C363.169 130.466 363.202 109.942 363.202 109.942L337.087 119.766Z" fill="#FC7575"/>
<path d="M351.977 241.19L366.251 169.568C355.351 170.767 344.516 169.373 336.471 167.719L351.977 241.19Z" fill="#00158E"/>
<path d="M366.251 169.568C366.153 169.568 366.056 169.6 365.959 169.6C362.39 184.223 354.183 216.646 351.393 219.434C348.701 222.126 340.526 186.395 336.503 167.719C336.503 167.719 336.503 167.719 336.471 167.719L351.945 241.158L366.251 169.568Z" fill="#000F6B"/>
<path opacity="0.53" d="M341.175 118.21C343.965 129.104 350.745 139.349 363.656 135.945C363.819 135.913 363.948 135.848 364.111 135.815C363.17 126.704 363.17 109.942 363.17 109.942L341.175 118.21Z" fill="#FD5E5A"/>
<path d="M359.082 57.5458C359.082 57.5458 370.339 55.7949 376.502 64.841C382.666 73.8546 379.844 89.0611 379.844 92.8546C379.844 96.6481 381.66 124.208 363.688 128.488C345.716 132.767 339.618 113.119 339.618 101.252C339.618 89.3853 344.03 59.0048 359.082 57.5458Z" fill="#FC7575"/>
<path opacity="0.53" d="M346.657 68.1156C346.041 69.4774 345.424 70.9364 344.905 72.4603C351.134 70.5798 357.46 69.1207 363.785 68.148C366.316 76.9347 371.701 82.9654 380.492 82.9654C380.589 79.4637 380.395 75.5081 379.486 71.8118C369.171 67.5968 357.46 61.5661 346.657 68.1156Z" fill="#FD5E5A"/>
<path d="M228.023 142.948C227.796 142.689 209.824 125.57 206.256 126.64C200.319 128.196 213.49 137.988 214.917 139.836C215.631 140.744 216.28 141.911 216.831 143.013C216.377 143.143 215.923 143.273 215.534 143.37C212.16 144.181 203.109 145.867 201.811 147.974C201.811 147.974 201.552 159.808 204.666 159.873C207.78 159.938 210.927 158.803 214.268 159.128C215.923 159.29 217.642 158.479 218.94 157.604C219.135 157.474 219.329 157.312 219.524 157.182C219.102 157.895 218.972 158.738 219.426 159.614C221.016 162.856 232.046 157.279 232.532 155.204C233.019 153.162 230.553 146.093 228.023 142.948ZM225.493 153.68C224.487 153.94 222.541 154.621 221.048 155.691C220.627 154.588 218.518 148.882 218.875 146.612C220.4 144.991 223.773 144.926 225.395 145.64C225.623 145.834 225.785 146.093 225.85 146.45C226.369 148.558 227.472 153.194 225.493 153.68Z" fill="#FC7575"/>
<path d="M226.661 187.498C226.661 187.498 252.321 253.349 262.151 258.44C271.98 263.498 307.956 208.735 307.956 208.735C307.956 208.735 309.351 156.826 304.907 156.826C300.463 156.826 282.231 178.517 276.976 191.551C271.623 204.812 271.818 211.523 264.649 198.619C257.317 185.455 244.438 167.752 244.438 167.752C237.107 175.112 226.661 187.498 226.661 187.498Z" fill="#BADCFF"/>
<path d="M373.031 52.2931C373.031 52.2931 366.705 51.5149 362.91 54.4979C359.114 57.5132 350.712 58.9398 345.814 82.1872C340.915 105.467 344.873 108.158 344.873 108.158C344.873 108.158 350.096 118.923 343.348 127.158C336.633 135.394 323.43 132.281 316.033 127.936C305.296 121.646 307.21 99.793 311.719 85.4944C312.335 83.4842 312.66 82.3169 313.406 80.6309C314.833 77.421 315.287 73.7248 317.364 70.3528C324.014 59.4262 336.114 49.4074 357.557 49.9586C357.492 50.0235 367.159 49.4723 373.031 52.2931Z" fill="#320063"/>
<path d="M313.86 78.9449C312.53 82.9654 312.725 82.3818 311.719 85.5593C311.492 86.2402 311.297 86.921 311.103 87.6343C315.32 85.2026 316.131 84.5217 320.964 82.09C329.788 77.5832 339.261 73.9518 348.895 71.3579C349.09 70.8392 349.285 70.3528 349.479 69.8665C337.055 71.0013 324.792 73.2385 313.86 78.9449Z" fill="#130025"/>
<path d="M316.521 70.8069C340.008 58.5185 355.806 57.4161 382.764 59.167V65.6516C360.153 65.7489 337.802 71.8768 319.019 81.4417C313.958 84.0355 311.266 85.7864 311.233 85.8188L316.521 70.8069Z" fill="#1C0B82"/>
<path d="M381.92 82.2522C391.756 82.2522 399.73 73.7311 399.73 63.2198C399.73 52.7085 391.756 44.1874 381.92 44.1874C372.084 44.1874 364.11 52.7085 364.11 63.2198C364.11 73.7311 372.084 82.2522 381.92 82.2522Z" fill="#8792CE"/>
<path d="M382.471 82.2522C392.002 82.2522 399.729 73.7311 399.729 63.2198C399.729 52.7085 392.002 44.1874 382.471 44.1874C372.939 44.1874 365.212 52.7085 365.212 63.2198C365.212 73.7311 372.939 82.2522 382.471 82.2522Z" fill="#EAE9F3"/>
<path d="M381.92 82.2522C391.756 82.2522 399.73 73.7311 399.73 63.2198C399.73 52.7085 391.756 44.1874 381.92 44.1874C372.084 44.1874 364.11 52.7085 364.11 63.2198C364.11 73.7311 372.084 82.2522 381.92 82.2522Z" fill="#7881B6"/>
<path d="M382.471 82.2522C392.002 82.2522 399.729 73.7311 399.729 63.2198C399.729 52.7085 392.002 44.1874 382.471 44.1874C372.939 44.1874 365.212 52.7085 365.212 63.2198C365.212 73.7311 372.939 82.2522 382.471 82.2522Z" fill="#6CBDE1"/>
<path d="M375.885 59.5884C375.885 53.2659 378.675 47.6567 382.99 44.2198C382.827 44.2198 382.633 44.2198 382.471 44.2198C372.933 44.2198 365.212 52.7471 365.212 63.2522C365.212 73.7573 372.933 82.2846 382.471 82.2846C386.266 82.2846 389.77 80.9229 392.624 78.6532C383.346 78.329 375.885 69.9314 375.885 59.5884Z" fill="#EAE9F3"/>
<path d="M385.326 62.4415C385.326 63.9979 384.19 65.2624 382.763 65.2624C381.336 65.2624 380.2 63.9979 380.2 62.4415C380.2 60.8852 381.336 59.6207 382.763 59.6207C384.19 59.6207 385.326 60.8528 385.326 62.4415Z" fill="#8792CE"/>
<path d="M183.224 149.53C182.997 149.53 182.77 149.466 182.543 149.336C181.991 148.947 181.861 148.234 182.251 147.682L227.375 82.3172C227.764 81.766 228.478 81.6363 229.029 82.0254C229.581 82.4145 229.711 83.1278 229.321 83.679L184.197 149.012C183.97 149.336 183.581 149.53 183.224 149.53Z" fill="#2C46E6"/>
<path d="M105.756 231.917C105.464 231.917 105.172 231.82 104.945 231.593C104.458 231.139 104.426 230.393 104.88 229.907L179.817 149.854C180.271 149.368 181.017 149.336 181.504 149.79C181.99 150.243 182.023 150.989 181.568 151.476L106.632 231.528C106.405 231.788 106.08 231.917 105.756 231.917Z" fill="#2C46E6"/>
<path d="M180.693 151.865C180.466 151.865 180.207 151.8 180.012 151.638L119.738 108.482C119.219 108.093 119.09 107.348 119.479 106.829C119.868 106.31 120.614 106.18 121.133 106.569L181.407 149.725C181.926 150.114 182.056 150.86 181.667 151.378C181.407 151.703 181.05 151.865 180.693 151.865Z" fill="#2C46E6"/>
<path d="M212.842 289.631C212.291 289.631 211.804 289.274 211.674 288.723L179.526 150.957C179.364 150.308 179.786 149.692 180.402 149.53C181.051 149.368 181.667 149.79 181.829 150.406L213.978 288.172C214.14 288.82 213.718 289.436 213.102 289.598C213.004 289.631 212.907 289.631 212.842 289.631Z" fill="#2C46E6"/>
<path d="M194.058 150.665C194.058 158.058 188.057 164.023 180.693 164.023C173.297 164.023 167.328 158.025 167.328 150.665C167.328 143.273 173.329 137.307 180.693 137.307C188.089 137.307 194.058 143.305 194.058 150.665Z" fill="#2C46E6"/>
<path d="M189.226 150.017C189.226 154.718 185.398 158.544 180.694 158.544C175.99 158.544 172.162 154.718 172.162 150.017C172.162 145.315 175.99 141.489 180.694 141.489C185.398 141.489 189.226 145.315 189.226 150.017Z" fill="#BADCFF"/>
<path d="M117.759 137.663H60.6971C57.2908 137.663 54.501 134.907 54.501 131.471V83.5168C54.501 80.1124 57.2584 77.324 60.6971 77.324H117.759C121.166 77.324 123.955 80.0799 123.955 83.5168V131.471C123.955 134.907 121.166 137.663 117.759 137.663Z" fill="#BADCFF"/>
<path d="M120.484 77.9725C120.906 78.8155 121.133 79.7234 121.133 80.7285V128.682C121.133 132.087 118.376 134.875 114.937 134.875H57.8746C56.9014 134.875 55.9606 134.648 55.1172 134.227C56.1228 136.269 58.2314 137.664 60.6645 137.664H117.759C121.165 137.664 123.955 134.908 123.955 131.471V83.5169C123.955 81.0852 122.528 79.0101 120.484 77.9725Z" fill="#2C46E6"/>
<path d="M117.759 256.429H60.6971C57.2908 256.429 54.501 253.673 54.501 250.237V202.315C54.501 198.911 57.2584 196.122 60.6971 196.122H117.759C121.166 196.122 123.955 198.878 123.955 202.315V250.269C123.955 253.673 121.166 256.429 117.759 256.429Z" fill="#BADCFF"/>
<path d="M120.484 196.771C120.906 197.614 121.133 198.521 121.133 199.527V247.48C121.133 250.885 118.376 253.673 114.937 253.673H57.8746C56.9014 253.673 55.9606 253.446 55.1172 253.025C56.1228 255.067 58.2314 256.462 60.6645 256.462H117.759C121.165 256.462 123.955 253.706 123.955 250.269V202.315C123.955 199.883 122.528 197.776 120.484 196.771Z" fill="#2C46E6"/>
<path d="M192.502 93.4059H258.485C262.151 93.4059 265.103 90.4554 265.103 86.7916V39.6807C265.103 36.0169 262.151 33.0664 258.485 33.0664H192.502C188.836 33.0664 185.884 36.0169 185.884 39.6807V86.7916C185.916 90.423 188.868 93.4059 192.502 93.4059Z" fill="#BADCFF"/>
<path d="M189.841 33.7147C189.387 34.5577 189.095 35.4656 189.095 36.4707V84.4245C189.095 87.829 192.274 90.6174 196.167 90.6174H261.274C262.41 90.6174 263.448 90.3904 264.421 89.9689C263.253 92.0116 260.853 93.4058 258.095 93.4058H192.955C189.062 93.4058 185.883 90.6498 185.883 87.2129V39.2591C185.916 36.8273 187.505 34.7198 189.841 33.7147Z" fill="#2C46E6"/>
<path d="M184.196 267.648H250.18C253.845 267.648 256.798 270.598 256.798 274.262V321.373C256.798 325.037 253.845 327.987 250.18 327.987H184.196C180.531 327.987 177.579 325.037 177.579 321.373V274.262C177.579 270.631 180.531 267.648 184.196 267.648Z" fill="#BADCFF"/>
<path d="M181.504 327.339C181.05 326.528 180.758 325.588 180.758 324.583V276.661C180.758 273.257 183.937 270.469 187.83 270.469H252.937C254.073 270.469 255.111 270.696 256.084 271.117C254.916 269.074 252.515 267.68 249.758 267.68H184.651C180.758 267.68 177.579 270.436 177.579 273.873V321.827C177.579 324.226 179.168 326.334 181.504 327.339Z" fill="#2C46E6"/>
<path d="M79.6417 95.4159C79.6417 96.5508 78.7333 97.4586 77.5979 97.4586C76.4625 97.4586 75.5542 96.5508 75.5542 95.4159C75.5542 94.2811 76.4625 93.3733 77.5979 93.3733C78.7333 93.3733 79.6417 94.2811 79.6417 95.4159Z" fill="#7686E6"/>
<path d="M102.61 89.6769C102.61 90.3902 102.026 90.9739 101.312 90.9739C100.599 90.9739 100.015 90.3902 100.015 89.6769C100.015 88.9636 100.599 88.38 101.312 88.38C102.026 88.38 102.61 88.9636 102.61 89.6769Z" fill="#7686E6"/>
<path d="M87.8823 126.607C78.0205 126.607 70.0078 118.599 70.0078 108.742C70.0078 104.3 71.6298 100.052 74.5819 96.8102L75.036 96.3238L75.3604 96.9074C75.5551 97.2641 75.847 97.5559 76.1714 97.7828L76.6256 98.0747L76.2688 98.4961C73.7709 101.317 72.3759 104.948 72.3759 108.742C72.3759 117.269 79.3181 124.208 87.8499 124.208C95.9599 124.208 102.643 117.982 103.291 109.974C100.307 109.39 98.1334 106.764 98.1334 103.684V92.3358L99.5284 90.2282L99.9501 90.747C100.177 91.0388 100.502 91.2658 100.891 91.3631L101.54 91.5252L100.534 93.0491V103.684C100.534 105.889 102.351 107.704 104.557 107.704C106.763 107.704 108.579 105.889 108.579 103.684V93.0815L107.444 91.5252L108.093 91.3306C108.449 91.2009 108.774 90.974 109.001 90.6822L109.39 90.131L111.012 92.3033V103.716C111.012 106.829 108.774 109.455 105.757 110.006C105.043 119.344 97.3224 126.607 87.8823 126.607Z" fill="#7686E6"/>
<path d="M108.807 89.6769C108.807 90.3902 108.223 90.9739 107.509 90.9739C106.795 90.9739 106.211 90.3902 106.211 89.6769C106.211 88.9636 106.795 88.38 107.509 88.38C108.223 88.38 108.807 88.9636 108.807 89.6769Z" fill="#7686E6"/>
<path d="M95.2454 105.143H90.4118V100.312H85.0592V105.143H80.2256V110.493H85.0592V115.324H90.4118V110.493H95.2454V105.143Z" fill="#7686E6"/>
<path d="M237.464 64.1277H235.907L232.695 59.7181L230.262 69.672L228.413 52.3905L223.417 63.6413L221.244 59.6533L218.454 64.6789L214.626 60.0099L212.907 68.5048L211.285 53.882L205.802 63.8035H192.567C192.242 63.8035 191.95 64.0628 191.95 64.4195C191.95 64.7437 192.21 65.0355 192.567 65.0355H207.067L210.052 59.6209L212.355 80.3393L215.696 63.8683L218.778 67.6294L221.244 63.1874L223.644 67.5321L227.375 59.1669L229.646 80.2096L233.668 63.7062L234.836 65.2949H238.34C237.983 64.9383 237.691 64.5168 237.464 64.1277Z" fill="#7686E6"/>
<path d="M249.174 56.0544C249.174 56.0544 251.217 53.2012 255.272 53.2012C258.906 53.2012 261.371 56.1193 261.371 59.5237C261.371 63.4469 257.965 68.1158 249.141 72.1687C240.317 68.1158 236.911 63.4469 236.911 59.5237C236.911 56.1193 239.409 53.2012 243.01 53.2012C247.13 53.2012 249.174 56.0544 249.174 56.0544Z" fill="#FD6100"/>
<path opacity="0.66" d="M231.754 307.69L200.319 303.67C198.308 303.411 196.913 301.595 197.173 299.585L199.314 282.984C199.573 280.974 201.39 279.58 203.401 279.839L234.836 283.859C236.847 284.119 238.242 285.934 237.982 287.945L235.841 304.545C235.582 306.523 233.733 307.95 231.754 307.69Z" fill="white"/>
<path d="M212.549 286.194L211.706 284.248C211.446 283.697 210.895 283.341 210.279 283.341H195.778C194.934 283.341 194.221 284.021 194.221 284.897V294.754H194.253V313.3C194.253 314.143 194.934 314.856 195.81 314.856H238.599C239.442 314.856 240.156 314.175 240.156 313.3V288.658C240.156 287.815 239.475 287.102 238.599 287.102H213.977C213.36 287.134 212.809 286.745 212.549 286.194Z" fill="#7686E6"/>
<path d="M226.531 301.303C226.531 306.037 222.703 309.863 217.967 309.863C213.23 309.863 209.402 306.037 209.402 301.303C209.402 296.569 213.23 292.743 217.967 292.743C222.703 292.743 226.531 296.569 226.531 301.303Z" fill="#EAE9F3"/>
<path d="M224.649 298.969H220.367V294.656H215.631V298.969H211.316V303.702H215.631V307.982H220.367V303.702H224.649V298.969Z" fill="#FD6100"/>
<path d="M85.8395 221.153C88.1865 221.153 90.0892 219.251 90.0892 216.906C90.0892 214.56 88.1865 212.658 85.8395 212.658C83.4925 212.658 81.5898 214.56 81.5898 216.906C81.5898 219.251 83.4925 221.153 85.8395 221.153Z" fill="#1C0B82"/>
<path d="M92.3056 228.465H98.4692V222.531H92.3056V228.465Z" fill="#7686E6"/>
<path d="M93.2145 230.451H97.5615V228.798H93.2145V230.451Z" fill="#7686E6"/>
<path d="M91.6464 217.619C91.6464 216.29 91.2247 215.025 90.5435 213.987V209.902C91.5167 209.902 92.3277 209.092 92.3277 208.119V204.877H98.4913V208.119C98.4913 209.092 99.3023 209.902 100.276 209.902V220.407C100.276 221.315 99.5294 222.061 98.6211 222.061H92.1979C91.5167 222.061 90.9003 221.639 90.6732 221.023C91.2896 220.051 91.6464 218.883 91.6464 217.619Z" fill="#7686E6"/>
<path d="M90.8133 204.884H99.9614V202.711H90.8133V204.884Z" fill="#7686E6"/>
<path d="M78.7017 217.003C78.6693 217.197 78.6693 217.424 78.6693 217.619C78.6693 220.732 80.8752 223.325 83.7948 223.941C82.8865 224.59 82.1728 225.465 81.7836 226.568C81.0699 228.481 81.3943 230.588 82.2702 232.371C83.3082 234.511 85.0925 236.197 87.1362 237.397L86.3576 240.088C75.7173 237.105 71.1756 225.303 78.7017 217.003Z" fill="#7686E6"/>
<path d="M81.4092 243.28H90.2979V237.314H81.4092V243.28Z" fill="#7686E6"/>
<path d="M73.9658 246.476H107.022V245.503C107.022 244.303 106.049 243.298 104.816 243.298H76.1718C74.9715 243.298 73.9658 244.271 73.9658 245.503V246.476Z" fill="#8088C2"/>
<path d="M86.9545 235.487H103.953V232.504H86.9545V235.487Z" fill="white"/>
<path d="M385.196 156.696C385.196 156.696 381.919 192.88 386.85 220.44C388.083 227.378 407.223 230.426 417.668 238.305C435.089 251.404 447.221 269.107 450.336 276.143C457.408 272.965 457.343 241.158 453.482 228.546C449.298 220.148 385.196 156.696 385.196 156.696Z" fill="#BADCFF"/>
<path d="M486.928 202.315L419.549 194.145L377.345 274.554H431.974L486.928 202.315Z" fill="#00158E"/>
<path opacity="0.44" d="M431.975 274.554L486.929 202.315L419.55 194.177L418.35 196.479C428.893 199.235 449.266 205.687 452.283 215.058C455.527 225.044 431.975 260.061 421.789 274.586H431.975V274.554Z" fill="#000F6B"/>
<path d="M417.053 190.513L374.102 273.095L377.346 274.554L419.551 194.145L486.929 202.315L482.842 199.073L417.053 190.513Z" fill="#0021DB"/>
<path d="M536.789 188.73L540.552 203.126L552.685 198.424L550.511 185.682L536.789 188.73Z" fill="#FC7575"/>
<path d="M482.614 156.08C481.576 154.588 474.471 145.477 473.239 146.32C472.038 147.163 476.385 153.291 477.067 154.232C477.067 154.232 474.569 154.037 473.336 156.825C472.525 158.706 477.683 167.655 479.856 171.189C481.738 170.605 484.56 168.336 484.463 166.358C484.463 162.694 483.392 157.215 482.614 156.08Z" fill="#FC7575"/>
<path opacity="0.53" d="M547.397 186.363L536.789 188.73L538.152 193.982C540.812 193.528 543.569 192.069 545.223 189.216C545.678 188.503 546.489 187.498 547.397 186.363Z" fill="#FD5E5A"/>
<path d="M533.253 404.635L531.793 412.871L525.272 413.357L526.408 398.896L533.253 404.635Z" fill="#FC7575"/>
<path d="M532.929 411.607C532.929 411.607 526.927 411.704 525.597 410.666C524.267 409.629 522.905 411.639 520.764 414.33C518.623 417.021 510.707 416.697 509.734 418.805C508.988 420.426 532.54 419.939 533.74 419.907C534.583 419.907 532.929 411.607 532.929 411.607Z" fill="#00123F"/>
<path d="M550.901 403.338L549.441 411.606L542.92 412.06L544.023 397.6L550.901 403.338Z" fill="#FC7575"/>
<path d="M550.576 410.31C550.576 410.31 544.575 410.407 543.245 409.369C541.915 408.332 540.552 410.342 538.411 413.033C536.27 415.724 528.776 416.114 527.738 418.189C526.668 420.264 550.349 419.939 550.868 419.259C551.387 418.643 550.576 410.31 550.576 410.31Z" fill="#00123F"/>
<path d="M537.113 291.057L537.794 350.132L542.401 407.554L551.03 409.013C551.03 409.013 558.199 307.528 565.628 296.342C573.057 285.156 564.655 266.643 564.59 266.61L537.113 291.057Z" fill="#03257D"/>
<path d="M561.573 294.332C564.785 289.501 567.12 283.114 566.536 275.851C566.342 273.484 562.546 270.89 562.092 268.88L537.146 291.057L537.827 350.132L540.39 382.134C544.996 354.574 553.528 315.018 555.247 303.67C555.961 302.632 558.394 299.098 561.573 294.332Z" fill="#001B5E"/>
<path d="M527.219 263.465C527.219 263.465 522.84 317.352 522.483 335.38C522.126 353.796 524.429 409.013 524.429 409.013L534.583 409.045C534.583 409.045 549.668 319.233 552.166 302.438C552.166 302.438 550.738 304.869 558.167 293.651C565.596 282.465 560.146 266.675 560.113 266.643L546.91 271.571L527.219 263.465Z" fill="#0021DB"/>
<path d="M572.96 237.3L563.585 253.025L567.672 262.395C567.672 262.395 592.522 242.844 590.413 237.494C588.629 232.987 563.78 206.336 557.064 199.008C555.864 197.679 553.95 197.225 552.263 197.808L540.747 201.796C540.747 201.764 573.998 233.83 572.96 237.3Z" fill="#BE4800"/>
<path d="M530.625 197.581C530.625 197.581 527.673 273.419 520.115 288.788C520.115 288.788 554.469 283.73 570.235 283.73C570.235 283.73 569.878 219.499 562.255 205.266C554.599 190.999 538.054 193.626 530.625 197.581Z" fill="#FD7B2A"/>
<path d="M548.013 225.53C555.377 221.639 557.713 216.225 557.875 209.351C557.972 204.358 541.201 206.952 530.171 207.665C529.976 211.556 529.684 216.354 529.36 221.704C533.577 226.341 542.693 228.351 548.013 225.53Z" fill="#AB3400"/>
<path d="M491.859 200.759C491.859 200.759 515.638 221.12 534.583 220.375C553.528 219.597 556.026 215.057 557.648 209.999C559.27 204.941 548.468 198.035 537.633 195.96C526.798 193.885 507.463 194.08 504.511 191.356C501.527 188.632 486.28 168.044 485.015 164.477L475.834 168.4L491.859 200.759Z" fill="#FD7B2A"/>
<path d="M541.72 165.255C541.72 165.255 538.508 166.844 535.751 170.897C533.026 174.95 530.074 177.122 530.074 177.122L531.371 179.197C531.371 179.197 528.452 181.305 528.711 184.515C529.328 191.583 540.292 192.847 545.742 188.73C547.235 187.627 551.809 186.201 553.333 183.704C557.356 176.96 556.188 166.585 541.72 165.255Z" fill="#FC7575"/>
<path d="M547.105 180.397C547.105 180.397 543.472 173.653 545.191 168.919C545.191 168.919 541.201 168.854 537.989 167.039C532.215 163.764 539.222 151.638 547.916 160.295C547.916 160.295 547.17 154.426 553.301 155.464C559.432 156.501 561.671 158.965 560.568 164.802C559.465 170.638 561.995 168.044 563.877 171.448C565.758 174.853 555.896 187.076 551.29 187.53C546.683 187.984 546.683 187.984 546.683 187.984C546.683 187.984 553.269 184.288 551.42 181.499C549.571 178.711 547.105 180.397 547.105 180.397Z" fill="#320063"/>
<path d="M404.92 246.799C406.152 245.827 416.403 252.182 422.308 256.008C422.308 255.943 422.34 255.845 422.34 255.781C416.793 251.663 407.093 246.767 409.299 245.34C410.434 244.627 434.797 254.419 434.829 254.419C437.392 255.586 437.522 255.683 440.15 256.851C439.533 255.327 433.143 244.951 437.457 245.47L451.698 264.081C454.099 268.037 454.034 270.436 453.418 272.511C452.672 275.04 449.103 281.849 443.296 283.243C437.684 284.572 422.502 275.98 420.134 273.776C417.571 271.571 400.151 256.364 402.941 252.117C402.941 252.117 417.474 266.286 418.999 264.535C419.096 264.113 404.66 254.549 403.525 250.787C402.714 248.096 415.333 256.267 420.88 260.385C415.884 256.267 404.076 247.48 404.92 246.799Z" fill="#FC7575"/>
<path d="M140.467 419.68H95.7649C86.0004 419.68 78.085 411.769 78.085 402.009V288.496C78.085 278.736 86.0004 270.825 95.7649 270.825H140.467C150.232 270.825 158.147 278.736 158.147 288.496V402.009C158.147 411.769 150.232 419.68 140.467 419.68Z" fill="#2C46E6"/>
<path d="M140.468 270.825H138.197C147.962 270.825 155.877 278.736 155.877 288.496V402.009C155.877 411.769 147.962 419.68 138.197 419.68H140.468C150.233 419.68 158.148 411.769 158.148 402.009V288.496C158.148 278.736 150.233 270.825 140.468 270.825Z" fill="#2134AD"/>
<path d="M95.7655 417.41C87.2662 417.41 80.3564 410.504 80.3564 402.009V288.495C80.3564 280.001 87.2662 273.094 95.7655 273.094H140.468C148.967 273.094 155.877 280.001 155.877 288.495V402.009C155.877 410.504 148.967 417.41 140.468 417.41H95.7655Z" fill="#CBD4FF"/>
<path d="M126.29 281.006H111.238C110.784 281.006 110.395 280.649 110.395 280.163C110.395 279.677 110.751 279.32 111.238 279.32H126.29C126.744 279.32 127.134 279.677 127.134 280.163C127.134 280.649 126.744 281.006 126.29 281.006Z" fill="#8088C2"/>
<path d="M127.816 286.55H109.714C109.195 286.55 108.806 286.129 108.806 285.642C108.806 285.124 109.227 284.735 109.714 284.735H127.816C128.335 284.735 128.724 285.156 128.724 285.642C128.724 286.129 128.302 286.55 127.816 286.55Z" fill="#8088C2"/>
<path d="M104.685 285.642C104.685 286.323 104.133 286.907 103.419 286.907C102.706 286.907 102.154 286.356 102.154 285.642C102.154 284.962 102.706 284.378 103.419 284.378C104.133 284.378 104.685 284.929 104.685 285.642Z" fill="#8088C2"/>
<path d="M118.116 414.524C121.879 414.524 124.929 411.476 124.929 407.716C124.929 403.955 121.879 400.907 118.116 400.907C114.354 400.907 111.304 403.955 111.304 407.716C111.304 411.476 114.354 414.524 118.116 414.524Z" fill="#727586"/>
<path d="M116.98 414.524C120.743 414.524 123.793 411.476 123.793 407.716C123.793 403.955 120.743 400.907 116.98 400.907C113.218 400.907 110.168 403.955 110.168 407.716C110.168 411.476 113.218 414.524 116.98 414.524Z" fill="#DFE5FF"/>
<path d="M147.767 396.984H88.2065C86.1952 396.984 84.5732 395.362 84.5732 393.352V301.497C84.5732 299.487 86.1952 297.866 88.2065 297.866H147.767C149.778 297.866 151.4 299.487 151.4 301.497V393.352C151.4 395.362 149.778 396.984 147.767 396.984Z" fill="#676E9C"/>
<path d="M86.0654 393.223V301.627C86.0654 300.525 86.9413 299.649 88.0443 299.649H147.864C148.967 299.649 149.843 300.525 149.843 301.627V393.19C149.843 394.293 148.967 395.168 147.864 395.168H88.0767C86.9738 395.2 86.0654 394.293 86.0654 393.223Z" fill="white"/>
<path d="M148.026 299.649H87.9145C86.9089 299.649 86.0654 300.622 86.0654 301.789V315.634H149.875V301.789C149.875 300.622 149.064 299.649 148.026 299.649Z" fill="#BADCFF"/>
<path d="M137.256 318.584H100.988V321.016H137.256V318.584Z" fill="#6B9ECE"/>
<path d="M92.4238 319.784L95.8625 322.119V317.482L92.4238 319.784Z" fill="#6B9ECE"/>
<path d="M143.29 319.784L139.851 322.119V317.482L143.29 319.784Z" fill="#6B9ECE"/>
<path d="M106.762 311.192H90.996C89.374 311.192 88.0439 309.863 88.0439 308.241V306.685C88.0439 305.064 89.374 303.735 90.996 303.735H106.762C108.384 303.735 109.714 305.064 109.714 306.685V308.241C109.714 309.863 108.384 311.192 106.762 311.192Z" fill="#1C0B82"/>
<path d="M145.204 311.192H141.376C140.532 311.192 139.851 310.511 139.851 309.668V305.259C139.851 304.416 140.532 303.735 141.376 303.735H145.204C146.047 303.735 146.728 304.416 146.728 305.259V309.668C146.728 310.511 146.047 311.192 145.204 311.192Z" fill="#6B9ECE"/>
<path d="M143.841 304.967H142.738V309.798H143.841V304.967Z" fill="white"/>
<path d="M141.236 306.731V308.028H145.356V306.731H141.236Z" fill="white"/>
<path opacity="0.18" d="M96.3483 330.84H89.2764V391.828H96.3483V330.84Z" fill="#6B9ECE"/>
<path opacity="0.18" d="M104.815 330.84H97.7432V391.828H104.815V330.84Z" fill="#6B9ECE"/>
<path opacity="0.18" d="M113.347 330.84H106.275V391.828H113.347V330.84Z" fill="#6B9ECE"/>
<path opacity="0.18" d="M121.879 330.84H114.807V391.828H121.879V330.84Z" fill="#6B9ECE"/>
<path opacity="0.18" d="M130.411 330.84H123.339V391.828H130.411V330.84Z" fill="#6B9ECE"/>
<path opacity="0.18" d="M138.942 330.84H131.87V391.828H138.942V330.84Z" fill="#6B9ECE"/>
<path opacity="0.18" d="M147.473 330.84H140.401V391.828H147.473V330.84Z" fill="#6B9ECE"/>
<path d="M96.3483 323.869H89.2764V328.506H96.3483V323.869Z" fill="#6B9ECE"/>
<path d="M104.815 323.869H97.7432V328.506H104.815V323.869Z" fill="#6B9ECE"/>
<path d="M113.347 323.869H106.275V328.506H113.347V323.869Z" fill="#6B9ECE"/>
<path d="M121.879 323.869H114.807V328.506H121.879V323.869Z" fill="#6B9ECE"/>
<path d="M130.411 323.869H123.339V328.506H130.411V323.869Z" fill="#6B9ECE"/>
<path d="M138.942 323.869H131.87V328.506H138.942V323.869Z" fill="#FD6100"/>
<path d="M147.473 323.869H140.401V328.506H147.473V323.869Z" fill="#FD6100"/>
<path d="M148.156 337.876H88.0439V339.4H148.156V337.876Z" fill="white"/>
<path d="M148.156 346.987H88.0439V348.511H148.156V346.987Z" fill="white"/>
<path d="M148.156 356.098H88.0439V357.622H148.156V356.098Z" fill="white"/>
<path d="M148.156 365.177H88.0439V366.7H148.156V365.177Z" fill="white"/>
<path d="M148.156 374.288H88.0439V375.811H148.156V374.288Z" fill="white"/>
<path d="M148.026 383.398H87.9141V384.922H148.026V383.398Z" fill="white"/>
<path d="M117.176 349.062L111.401 346.566C111.596 346.825 118.863 355.677 118.668 355.45C120.128 352.175 123.372 344.912 124.864 341.573L117.176 349.062Z" fill="#FF1F20"/>
<defs>
<linearGradient id="paint0_linear" x1="328.399" y1="379.719" x2="311.311" y2="116.61" gradientUnits="userSpaceOnUse">
<stop stop-color="#0082C1"/>
<stop offset="1" stop-color="#8DDCFF"/>
</linearGradient>
<linearGradient id="paint1_linear" x1="323.95" y1="366.614" x2="313.547" y2="206.445" gradientUnits="userSpaceOnUse">
<stop stop-color="#0082C1"/>
<stop offset="1" stop-color="#8DDCFF"/>
</linearGradient>
<linearGradient id="paint2_linear" x1="344.379" y1="334.757" x2="348.177" y2="154.91" gradientUnits="userSpaceOnUse">
<stop stop-color="#6EA7E8"/>
<stop offset="1" stop-color="#9AD2FF"/>
</linearGradient>
</defs>
</svg>
