<svg width="64" height="44" viewBox="0 0 64 44" fill="none" xmlns="http://www.w3.org/2000/svg">
<path d="M4.78341 0.666627C4.15515 0.666315 3.533 0.789828 2.95251 1.03011C2.37202 1.27039 1.84458 1.62272 1.40033 2.06696C0.956091 2.5112 0.60376 3.03864 0.363481 3.61913C0.123203 4.19962 -0.000310969 4.82178 5.87943e-07 5.45003V38.5499C5.87943e-07 41.1928 2.14045 43.3333 4.78341 43.3333H59.2166C59.8448 43.3336 60.467 43.2101 61.0475 42.9698C61.628 42.7295 62.1554 42.3772 62.5997 41.933C63.0439 41.4887 63.3962 40.9613 63.6365 40.3808C63.8768 39.8003 64.0003 39.1781 64 38.5499V5.45003C64.0003 4.82178 63.8768 4.19962 63.6365 3.61913C63.3962 3.03864 63.0439 2.5112 62.5997 2.06696C62.1554 1.62272 61.628 1.27039 61.0475 1.03011C60.467 0.789828 59.8448 0.666315 59.2166 0.666627H4.78341ZM4.74074 5.40737H59.2593V38.5926H4.74074V5.40737ZM9.48148 10.1481V14.8888H33.1852V10.1481H9.48148ZM9.48148 19.6296V24.3703H14.2222V19.6296H9.48148ZM18.963 19.6296V24.3703H23.7037V19.6296H18.963ZM28.4444 19.6296V24.3703H33.1852V19.6296H28.4444ZM9.48148 29.1111V33.8518H33.1852V29.1111H9.48148ZM37.9259 29.1111V33.8518H54.5185V29.1111H37.9259Z" fill="#7F33D5"/>
</svg>
