<svg width="65" height="64" viewBox="0 0 65 64" fill="none" xmlns="http://www.w3.org/2000/svg">
<g clip-path="url(#clip0)">
<path d="M18.7041 19.566C19.5164 19.2026 20.2492 18.6828 20.8605 18.0361C21.4719 17.3894 21.9498 16.6287 22.2671 15.7972C22.5843 14.9658 22.7346 14.08 22.7094 13.1905C22.6842 12.301 22.4839 11.4251 22.1201 10.613C21.3842 8.97221 20.027 7.69074 18.3467 7.0502C16.6664 6.40966 14.8005 6.46245 13.1591 7.19699C12.346 7.55964 11.6125 8.07912 11.0005 8.72568C10.3885 9.37224 9.91005 10.1332 9.59255 10.9649C9.27505 11.7966 9.12474 12.6828 9.15024 13.5727C9.17573 14.4627 9.37652 15.3388 9.7411 16.151C10.477 17.7923 11.8346 19.0741 13.5154 19.7145C15.1963 20.3549 17.0627 20.3015 18.7041 19.566Z" fill="#801FBC"/>
<path d="M28.41 12.108C28.5457 11.8748 28.6093 11.6066 28.5927 11.3372C28.5761 11.0679 28.4802 10.8095 28.3169 10.5946C28.1536 10.3797 27.9304 10.218 27.6753 10.1299C27.4203 10.0418 27.1448 10.0312 26.8837 10.0995C26.6226 10.1677 26.3876 10.3118 26.2083 10.5135C26.0291 10.7152 25.9135 10.9655 25.8763 11.2327C25.8391 11.5 25.8819 11.7723 25.9993 12.0153C26.1167 12.2583 26.3035 12.4611 26.536 12.598C26.8496 12.7805 27.2228 12.8313 27.5739 12.7393C27.9249 12.6473 28.2252 12.4199 28.409 12.107L28.41 12.108Z" fill="#801FBC"/>
<path d="M40.995 4.84098C41.0854 4.68614 41.1444 4.515 41.1685 4.33734C41.1926 4.15969 41.1815 3.97902 41.1357 3.80569C41.0899 3.63235 41.0104 3.46975 40.9016 3.32721C40.7929 3.18466 40.6571 3.06496 40.502 2.97498C40.2686 2.83892 40 2.77516 39.7303 2.79177C39.4606 2.80838 39.2019 2.9046 38.9868 3.06828C38.7718 3.23195 38.6102 3.45571 38.5224 3.71127C38.4346 3.96682 38.4245 4.24267 38.4935 4.50394C38.5625 4.7652 38.7074 5.00013 38.91 5.17902C39.1125 5.3579 39.3635 5.47269 39.6313 5.50888C39.8991 5.54507 40.1716 5.50102 40.4143 5.38231C40.6571 5.2636 40.8592 5.07556 40.995 4.84198V4.84098Z" fill="#801FBC"/>
<path d="M36.8001 7.26301C36.8905 7.10837 36.9494 6.93736 36.9734 6.75983C36.9974 6.58231 36.9861 6.40179 36.94 6.22869C36.8938 6.05558 36.8139 5.89332 36.7048 5.75127C36.5956 5.60921 36.4595 5.49017 36.3041 5.40101C36.1497 5.31055 35.9791 5.2514 35.8018 5.22692C35.6246 5.20244 35.4443 5.21312 35.2712 5.25834C35.0981 5.30357 34.9356 5.38245 34.793 5.49049C34.6504 5.59853 34.5305 5.73361 34.4401 5.88801C34.2585 6.20183 34.2083 6.57469 34.3005 6.92535C34.3927 7.276 34.6197 7.57601 34.9321 7.76001C35.2457 7.9419 35.6188 7.99183 35.9692 7.89882C36.3197 7.80582 36.6189 7.57749 36.8011 7.26401L36.8001 7.26301Z" fill="#801FBC"/>
<path d="M45.1912 2.42001C45.3724 2.1067 45.4225 1.73447 45.3305 1.3844C45.2386 1.03433 45.012 0.734782 44.7002 0.551008C44.3859 0.370363 44.013 0.321128 43.6626 0.414016C43.3122 0.506904 43.0127 0.734399 42.8292 1.04701C42.739 1.20178 42.6803 1.37282 42.6563 1.55033C42.6323 1.72785 42.6436 1.90834 42.6895 2.08148C42.7354 2.25463 42.815 2.41702 42.9237 2.55936C43.0324 2.7017 43.1682 2.8212 43.3232 2.91101C43.4781 3.00155 43.6494 3.06066 43.8272 3.08499C44.005 3.10931 44.1858 3.09836 44.3594 3.05276C44.533 3.00716 44.6958 2.92781 44.8387 2.81924C44.9816 2.71067 45.1017 2.57501 45.1922 2.42001H45.1912Z" fill="#801FBC"/>
<path d="M32.3439 10.006C32.4762 9.88546 32.5834 9.73995 32.6594 9.57784C32.7354 9.41574 32.7786 9.24023 32.7866 9.06138C32.7946 8.88254 32.7672 8.70387 32.706 8.53564C32.6447 8.3674 32.5509 8.21291 32.4299 8.08102C32.1858 7.81415 31.846 7.65492 31.4848 7.63824C31.1235 7.62155 30.7704 7.74878 30.5029 7.99202C30.3703 8.11239 30.2628 8.25774 30.1866 8.41974C30.1104 8.58173 30.0668 8.75719 30.0586 8.93604C30.0503 9.11489 30.0774 9.29362 30.1384 9.46196C30.1994 9.6303 30.293 9.78495 30.4139 9.91702C30.5347 10.0496 30.6805 10.1571 30.8429 10.2333C31.0054 10.3096 31.1812 10.353 31.3604 10.3613C31.5396 10.3696 31.7187 10.3425 31.8875 10.2815C32.0562 10.2205 32.2113 10.1269 32.3439 10.006Z" fill="#801FBC"/>
<path d="M28.4098 14.636C28.5457 14.8695 28.6093 15.138 28.5927 15.4076C28.5762 15.6772 28.4801 15.9358 28.3166 16.1509C28.1531 16.3659 27.9296 16.5277 27.6742 16.6158C27.4189 16.7039 27.1432 16.7144 26.8819 16.646C26.6206 16.5775 26.3854 16.4332 26.2061 16.2312C26.0267 16.0292 25.9113 15.7785 25.8742 15.511C25.8372 15.2434 25.8803 14.9708 25.998 14.7277C26.1158 14.4846 26.3029 14.2819 26.5358 14.145C26.8498 13.9638 27.2225 13.9138 27.5732 14.0057C27.9238 14.0976 28.2241 14.3241 28.4088 14.636H28.4098Z" fill="#801FBC"/>
<path d="M36.7999 19.485C36.8902 19.6398 36.949 19.811 36.973 19.9887C36.997 20.1663 36.9856 20.3469 36.9395 20.5202C36.8934 20.6934 36.8135 20.8558 36.7044 20.998C36.5953 21.1403 36.4592 21.2596 36.3039 21.349C36.1493 21.4393 35.9784 21.4982 35.801 21.5224C35.6236 21.5466 35.4432 21.5356 35.2701 21.49C35.0969 21.4444 34.9345 21.3651 34.792 21.2566C34.6496 21.1482 34.5299 21.0127 34.4399 20.858C34.2787 20.5463 34.2435 20.1845 34.3417 19.8476C34.4399 19.5107 34.6639 19.2245 34.9673 19.0482C35.2707 18.8719 35.6303 18.819 35.9716 18.9005C36.3129 18.982 36.6098 19.1916 36.8009 19.486L36.7999 19.485Z" fill="#801FBC"/>
<path d="M55.5582 22.162H38.1232C33.3192 22.162 29.0332 26.058 29.0332 30.86V51.914C29.0332 53.559 30.3222 54.897 31.9622 54.897C32.752 54.8954 33.5089 54.5803 34.0666 54.021C34.6242 53.4617 34.937 52.7038 34.9362 51.914V32.933H37.3962V63.313H45.3802V55.081H47.9192V63.313H55.9082V32.934H58.3932V51.915C58.3932 53.56 59.7232 54.898 61.3582 54.898C63.0022 54.898 64.3002 53.559 64.3002 51.915V30.861C64.3012 26.059 60.3592 22.162 55.5572 22.162H55.5582ZM41.2642 25.324C40.6122 25.704 39.7742 25.485 39.3932 24.833C39.2245 24.5202 39.1841 24.154 39.2806 23.812C39.3772 23.4699 39.603 23.1789 39.9104 23.0005C40.2177 22.822 40.5825 22.7702 40.9274 22.856C41.2723 22.9417 41.5702 23.1584 41.7582 23.46C42.1342 24.11 41.9162 24.948 41.2632 25.324H41.2642ZM45.4602 27.748C45.1468 27.929 44.7747 27.9789 44.4247 27.887C44.0747 27.795 43.7752 27.5686 43.5912 27.257C43.4254 26.9447 43.3869 26.5803 43.4839 26.2402C43.5809 25.9002 43.8058 25.6109 44.1114 25.433C44.4171 25.2552 44.7797 25.2026 45.1232 25.2863C45.4668 25.37 45.7646 25.5835 45.9542 25.882C46.3322 26.532 46.1122 27.366 45.4602 27.749V27.748Z" fill="#801FBC"/>
<path d="M32.3439 16.74C32.4761 16.8609 32.5833 17.0066 32.6592 17.1689C32.7351 17.3312 32.7783 17.5069 32.7864 17.6858C32.7944 17.8648 32.7671 18.0436 32.706 18.2121C32.6449 18.3805 32.5513 18.5353 32.4304 18.6675C32.3095 18.7998 32.1638 18.9069 32.0015 18.9828C31.8392 19.0587 31.6636 19.1019 31.4846 19.11C31.3056 19.118 31.1268 19.0907 30.9583 19.0296C30.7899 18.9685 30.6351 18.8749 30.5029 18.754C30.2358 18.5099 30.0767 18.1697 30.0605 17.8082C30.0442 17.4467 30.1723 17.0936 30.4164 16.8265C30.6605 16.5594 31.0008 16.4003 31.3622 16.3841C31.7237 16.3678 32.0768 16.4959 32.3439 16.74Z" fill="#801FBC"/>
<path d="M33.8421 12.272C34.0764 12.4064 34.2656 12.6072 34.3859 12.849C34.5062 13.0909 34.5521 13.3629 34.5179 13.6309C34.4837 13.8988 34.3709 14.1506 34.1938 14.3545C34.0166 14.5584 33.783 14.7052 33.5224 14.7764C33.2619 14.8476 32.9861 14.8401 32.7298 14.7547C32.4736 14.6693 32.2484 14.51 32.0826 14.2967C31.9168 14.0835 31.818 13.8259 31.7985 13.5565C31.779 13.2871 31.8397 13.0179 31.9731 12.783C32.1539 12.4682 32.4519 12.2377 32.8021 12.1418C33.1522 12.0459 33.526 12.0923 33.8421 12.271V12.272Z" fill="#801FBC"/>
<path d="M46.5991 6.604C45.7074 6.604 44.8245 6.77963 44.0007 7.12086C43.1769 7.46209 42.4283 7.96224 41.7978 8.59275C41.1673 9.22326 40.6672 9.97178 40.3259 10.7956C39.9847 11.6194 39.8091 12.5023 39.8091 13.394C39.8091 14.2857 39.9847 15.1686 40.3259 15.9924C40.6672 16.8162 41.1673 17.5647 41.7978 18.1953C42.4283 18.8258 43.1769 19.3259 44.0007 19.6671C44.8245 20.0084 45.7074 20.184 46.5991 20.184C48.3997 20.1837 50.1266 19.4685 51.4 18.1954C52.6735 16.9223 53.3893 15.1957 53.3901 13.395C53.3896 11.5941 52.6739 9.86707 51.4005 8.59363C50.127 7.32018 48.4 6.60453 46.5991 6.604ZM43.2221 8.917C43.4026 8.6024 43.7006 8.3723 44.0507 8.27724C44.4007 8.18218 44.7742 8.22993 45.0891 8.41C45.7421 8.786 45.9681 9.615 45.5951 10.274C45.4146 10.5878 45.1171 10.8173 44.7678 10.9123C44.4184 11.0073 44.0457 10.9601 43.7311 10.781C43.4171 10.6006 43.1874 10.3032 43.0922 9.9539C42.997 9.60456 43.044 9.23173 43.2231 8.917H43.2221ZM41.4071 14.645C41.0936 14.4642 40.8641 14.1669 40.7688 13.8178C40.6735 13.4687 40.7199 13.096 40.8981 12.781C41.0788 12.4661 41.3772 12.2358 41.7277 12.1407C42.0781 12.0456 42.452 12.0936 42.7671 12.274C43.4221 12.648 43.6461 13.477 43.2681 14.136C43.1795 14.2917 43.0611 14.4284 42.9197 14.5383C42.7783 14.6482 42.6165 14.7292 42.4438 14.7765C42.271 14.8239 42.0907 14.8367 41.9129 14.8143C41.7352 14.792 41.5637 14.7347 41.4081 14.646L41.4071 14.645ZM45.6591 17.899C45.4787 18.2129 45.1814 18.4427 44.8322 18.5383C44.483 18.6338 44.1102 18.5873 43.7951 18.409C43.4961 18.2211 43.2813 17.9248 43.1957 17.5822C43.1101 17.2395 43.1604 16.8771 43.336 16.5707C43.5115 16.2642 43.7988 16.0376 44.1377 15.9381C44.4765 15.8386 44.8407 15.8741 45.1541 16.037C45.8071 16.411 46.0331 17.242 45.6591 17.899ZM48.1151 14.136C47.9351 14.4503 47.6378 14.6805 47.2883 14.7759C46.9389 14.8713 46.5659 14.8242 46.2511 14.645C45.9365 14.4648 45.7065 14.167 45.6115 13.8172C45.5165 13.4673 45.5644 13.0941 45.7446 12.7795C45.9248 12.465 46.2226 12.2349 46.5724 12.1399C46.9223 12.0449 47.2955 12.0928 47.6101 12.273C48.2601 12.647 48.4931 13.48 48.1151 14.135V14.136Z" fill="#801FBC"/>
<path d="M37.9169 12.127C38.6529 12.29 39.1169 13.013 38.9569 13.753C38.8773 14.1061 38.6614 14.4134 38.3564 14.6082C38.0513 14.8029 37.6817 14.8693 37.3279 14.793C36.9748 14.714 36.6674 14.4987 36.4725 14.1939C36.2777 13.8891 36.2113 13.5196 36.2879 13.166C36.3666 12.8124 36.5822 12.5045 36.8876 12.3097C37.193 12.115 37.5631 12.0492 37.9169 12.127Z" fill="#801FBC"/>
<path d="M39.8379 17.625C40.5719 17.79 41.0379 18.513 40.8779 19.251C40.7982 19.604 40.5824 19.9114 40.2774 20.1061C39.9723 20.3009 39.6027 20.3673 39.2489 20.291C38.8953 20.2129 38.5873 19.9975 38.3926 19.6923C38.1978 19.3871 38.1323 19.017 38.2104 18.6635C38.2885 18.3099 38.5038 18.0019 38.809 17.8072C39.1143 17.6124 39.4843 17.5469 39.8379 17.625Z" fill="#801FBC"/>
<path d="M39.468 6.89599C39.6431 6.93453 39.8089 7.00719 39.956 7.10982C40.103 7.21244 40.2284 7.34302 40.325 7.4941C40.4215 7.64518 40.4874 7.8138 40.5188 7.99034C40.5502 8.16688 40.5465 8.34787 40.508 8.52299C40.4695 8.69811 40.3968 8.86392 40.2942 9.01096C40.1916 9.158 40.061 9.28338 39.9099 9.37996C39.7588 9.47653 39.5902 9.5424 39.4137 9.5738C39.2371 9.60521 39.0561 9.60153 38.881 9.56299C38.7059 9.52445 38.5401 9.45179 38.393 9.34917C38.246 9.24654 38.1206 9.11596 38.024 8.96488C37.9275 8.8138 37.8616 8.64518 37.8302 8.46864C37.7988 8.2921 37.8025 8.11111 37.841 7.93599C37.8795 7.76087 37.9522 7.59506 38.0548 7.44802C38.1574 7.30099 38.288 7.1756 38.4391 7.07903C38.5902 6.98246 38.7588 6.91659 38.9353 6.88518C39.1119 6.85378 39.2929 6.85745 39.468 6.89599Z" fill="#801FBC"/>
<path d="M17.8501 38.812C18.0976 39.2701 18.4652 39.6521 18.9134 39.9171C19.3616 40.182 19.8735 40.32 20.3941 40.316C21.6491 40.316 22.7291 39.568 23.1621 38.465L28.3291 23.301C28.4542 22.9334 28.5057 22.5447 28.4805 22.1572C28.4554 21.7697 28.3542 21.3909 28.1827 21.0425C28.0112 20.6941 27.7727 20.3829 27.481 20.1266C27.1892 19.8704 26.8498 19.6741 26.4821 19.549C26.1145 19.4239 25.7258 19.3725 25.3383 19.3976C24.9508 19.4227 24.572 19.5239 24.2236 19.6955C23.8752 19.867 23.564 20.1054 23.3077 20.3972C23.0515 20.689 22.8552 21.0284 22.7301 21.396L19.7701 30.102L16.5631 24.357C15.917 23.339 14.9956 22.5251 13.9057 22.0094C12.8158 21.4938 11.6021 21.2977 10.4052 21.4438C9.20841 21.59 8.07752 22.0723 7.14369 22.835C6.20986 23.5977 5.51134 24.6095 5.12913 25.753L1.25313 37.351C0.970133 38.055 0.786133 39.307 0.786133 39.963V63.313H12.3841V44.203L15.5731 34.72L17.8511 38.812H17.8501Z" fill="#801FBC"/>
</g>
<defs>
<clipPath id="clip0">
<rect width="64" height="64" fill="white" transform="translate(0.5)"/>
</clipPath>
</defs>
</svg>
