<svg width="39" height="64" viewBox="0 0 39 64" fill="none" xmlns="http://www.w3.org/2000/svg">
<path d="M31.2 0C33.1096 0 34.9409 0.758569 36.2912 2.10883C37.6414 3.45909 38.4 5.29044 38.4 7.2V56.8C38.4 58.7096 37.6414 60.5409 36.2912 61.8912C34.9409 63.2414 33.1096 64 31.2 64H7.2C5.29044 64 3.45909 63.2414 2.10883 61.8912C0.75857 60.5409 0 58.7096 0 56.8V7.2C0 5.29044 0.75857 3.45909 2.10883 2.10883C3.45909 0.758569 5.29044 0 7.2 0H31.2ZM31.2 4.8H7.2C6.56348 4.8 5.95303 5.05286 5.50294 5.50294C5.05286 5.95303 4.8 6.56348 4.8 7.2V56.8C4.8 58.1248 5.8752 59.2 7.2 59.2H31.2C31.8365 59.2 32.447 58.9471 32.8971 58.4971C33.3471 58.047 33.6 57.4365 33.6 56.8V7.2C33.6 6.56348 33.3471 5.95303 32.8971 5.50294C32.447 5.05286 31.8365 4.8 31.2 4.8V4.8ZM23.1968 49.6C23.8333 49.5992 24.4441 49.8512 24.8948 50.3007C25.3455 50.7502 25.5992 51.3603 25.6 51.9968C25.6008 52.6333 25.3488 53.2441 24.8993 53.6948C24.4498 54.1455 23.8397 54.3992 23.2032 54.4L15.2032 54.4128C14.5667 54.4136 13.9559 54.1616 13.5052 53.7121C13.0545 53.2626 12.8008 52.6525 12.8 52.016C12.7992 51.3795 13.0512 50.7687 13.5007 50.318C13.9502 49.8673 14.5603 49.6136 15.1968 49.6128L23.1968 49.6ZM27.2 22.3968C27.5745 22.3967 27.9371 22.5279 28.2248 22.7676C28.5125 23.0074 28.707 23.3404 28.7744 23.7088L28.8 23.9968V43.2C28.8001 43.5745 28.6689 43.9371 28.4292 44.2248C28.1894 44.5125 27.8564 44.707 27.488 44.7744L27.2 44.8H11.2C10.8255 44.8001 10.4629 44.6689 10.1752 44.4292C9.88749 44.1894 9.69301 43.8564 9.6256 43.488L9.6 43.2032V24C9.59988 23.6255 9.73111 23.2629 9.97085 22.9752C10.2106 22.6875 10.5436 22.493 10.912 22.4256L11.2 22.4H27.2V22.3968ZM27.2 9.6C27.5745 9.59988 27.9371 9.73111 28.2248 9.97085C28.5125 10.2106 28.707 10.5436 28.7744 10.912L28.8 11.2V17.616C28.8001 17.9905 28.6689 18.3531 28.4292 18.6408C28.1894 18.9285 27.8564 19.123 27.488 19.1904L27.2 19.216H11.2C10.8255 19.2161 10.4629 19.0849 10.1752 18.8452C9.88749 18.6054 9.69301 18.2724 9.6256 17.904L9.6 17.6128V11.2C9.59988 10.8255 9.73111 10.4629 9.97085 10.1752C10.2106 9.88749 10.5436 9.69301 10.912 9.6256L11.2 9.6H27.2Z" fill="#801FBC"/>
</svg>
