<svg width="65" height="65" viewBox="0 0 65 65" fill="none" xmlns="http://www.w3.org/2000/svg">
<path d="M47.7695 35.22L37.8335 43.1667H24.5002V40.5H35.3402C35.5813 40.4999 35.818 40.4343 36.0248 40.3104C36.2317 40.1864 36.4011 40.0086 36.5149 39.796C36.6288 39.5834 36.6828 39.3439 36.6713 39.103C36.6598 38.8621 36.5831 38.6288 36.4495 38.428L34.0815 34.876C33.5957 34.1448 32.9366 33.5452 32.1628 33.1307C31.389 32.7161 30.5247 32.4994 29.6468 32.5H8.50016C7.79292 32.5 7.11464 32.781 6.61454 33.281C6.11445 33.7811 5.8335 34.4594 5.8335 35.1667V51.1667C5.8335 52.5812 6.3954 53.9377 7.39559 54.9379C8.39579 55.9381 9.75234 56.5 11.1668 56.5H36.8708C38.0111 56.5003 39.1383 56.2568 40.1768 55.7858C41.2153 55.3148 42.1411 54.6273 42.8922 53.7693L59.1668 35.1667L55.2948 33.876C54.028 33.4537 52.6756 33.3555 51.3611 33.5903C50.0466 33.825 48.8118 34.3853 47.7695 35.22ZM51.8548 20.2067C53.0575 18.9667 53.8015 17.252 53.8015 15.3587C53.8015 13.4653 53.0575 11.7507 51.8548 10.5107C51.2466 9.87594 50.5164 9.37066 49.7081 9.02514C48.8997 8.67963 48.0299 8.501 47.1508 8.5C47.1508 8.5 43.8335 8.492 40.5002 11.9293C37.1668 8.492 33.8495 8.5 33.8495 8.5C32.9707 8.50112 32.1011 8.67953 31.2928 9.02455C30.4846 9.36958 29.7542 9.87413 29.1455 10.508C27.9428 11.7507 27.1988 13.4627 27.1988 15.356C27.1988 17.2493 27.9428 18.9667 29.1455 20.204L40.5002 32.5L51.8548 20.2067Z" fill="#801FBC"/>
</svg>
