<svg width="691" height="372" viewBox="0 0 691 372" fill="none" xmlns="http://www.w3.org/2000/svg">
<path d="M81.4466 369.895C81.4466 369.895 -58.4362 229.97 28.4384 146.315C115.29 62.6587 183.943 171.264 231.429 163.262C291.524 153.121 317.522 0.733018 407.341 0.595047C509.561 0.434082 584.587 60.8191 544.624 204.676C515.152 310.752 717.775 223.877 688.004 371.965L81.4466 369.895Z" fill="#D0E5F3"/>
<path d="M386.519 351.706C367.516 348.648 353.159 355.316 339.355 353.385C328.358 351.867 322.606 340.738 307.812 337.564C311.332 335.495 315.428 332.896 317.383 331.011C321.179 327.354 326.655 320.019 317.383 319.72C310.711 319.513 305.512 330.62 303.119 336.874C300.933 336.69 298.564 336.667 295.964 336.874C299.024 327.033 304.96 307.993 306.432 304.336C308.411 299.369 300.082 282.767 290.281 301.393C283.402 314.454 288.072 329.539 291.477 337.403C288.786 337.84 286.255 338.461 283.839 339.22C275.741 320.732 249.927 268.027 221.973 274.581C191.489 281.732 256.806 317.168 273.256 343.428C259.797 349.66 247.971 357.225 227.541 351.706C173.221 337.012 168.919 370.079 168.919 370.079L411.62 370.171C411.62 370.171 405.523 354.765 386.519 351.706Z" fill="#ACD29A"/>
<path d="M320.489 232.73C320.742 235.075 324.055 234.983 327.783 234.432C331.51 233.88 330.543 234.845 335.812 234.753C341.058 234.661 342.806 232.868 343.036 232.109C343.243 231.442 340.69 230.959 337.975 230.384C337.63 230.315 337.284 230.246 336.939 230.154C333.856 229.488 331.763 227.257 329.094 225.371C326.563 223.578 324.861 215.3 324.861 215.3L317.383 215.254C317.383 215.254 319.73 222.727 320.949 225.325C321.663 226.866 320.903 228.821 320.65 230.292C320.535 231.097 320.397 231.902 320.489 232.73Z" fill="#FFB07B"/>
<path d="M327.783 234.432C331.51 233.88 330.544 234.845 335.812 234.753C341.058 234.661 342.806 232.868 343.036 232.109C343.243 231.442 340.69 230.959 337.975 230.384L337.952 230.43C337.952 230.43 334.639 232.362 330.291 232.063C326.747 231.833 323.112 230.476 320.674 230.292C320.536 231.097 320.421 231.902 320.513 232.73C320.743 235.075 324.033 234.983 327.783 234.432Z" fill="#365DA4"/>
<path d="M262.12 232.362C262.281 234.707 265.594 234.753 269.344 234.317C273.095 233.903 272.105 234.845 277.351 234.937C282.597 235.029 284.414 233.305 284.69 232.569C284.92 231.902 282.389 231.327 279.698 230.66C279.353 230.568 279.007 230.499 278.685 230.407C275.648 229.626 273.624 227.326 271.024 225.325C268.562 223.417 270.587 215.553 270.587 215.553L264.927 212.885C264.927 212.885 264.145 221.002 263.731 225.119C263.57 226.797 262.718 228.499 262.419 229.947C262.212 230.729 262.051 231.534 262.12 232.362Z" fill="#FFB07B"/>
<path d="M269.345 234.317C273.095 233.903 272.106 234.845 277.351 234.937C282.597 235.029 284.415 233.305 284.691 232.569C284.921 231.902 282.39 231.327 279.698 230.66L279.675 230.706C279.675 230.706 276.293 232.5 271.968 232.063C268.448 231.695 264.859 230.2 262.42 229.924C262.259 230.729 262.098 231.534 262.167 232.362C262.282 234.707 265.595 234.753 269.345 234.317Z" fill="#365DA4"/>
<path d="M274.844 115.455C274.844 115.455 273.279 123.044 271.692 161.56C271.692 161.56 268.77 168.689 266.653 177.404C264.536 186.119 263.041 222.497 263.041 222.497C263.041 222.497 263.892 223.716 266.446 223.854C268.54 223.969 270.173 223.072 270.173 223.072C270.173 223.072 284.875 175.426 292.03 156.915C299.185 138.404 303.372 112.006 303.372 112.006L274.844 115.455Z" fill="#2B478B"/>
<path d="M292.513 118.697C292.513 118.697 293.663 126.355 305.535 163.032C305.535 163.032 305.282 170.735 306.317 179.634C307.352 188.556 319.362 223.624 319.362 223.624C319.362 223.624 320.949 224.176 323.342 223.555C325.574 222.957 327.299 221.623 327.299 221.623C327.299 221.623 322.698 171.471 322.997 151.649C323.296 131.828 318.074 105.59 318.074 105.59L292.513 118.697Z" fill="#2B478B"/>
<path d="M313.541 12.4835C311.677 11.3107 309.4 11.0578 307.789 11.0808C308.226 10.6669 309.055 10.5519 309.055 10.5519C308.065 10.3449 305.788 11.2187 305.788 11.2187C292.213 5.19404 289.015 25.4527 289.084 30.2126C289.13 34.9496 288.9 40.3994 281.768 44.3086C267.757 51.9889 278.501 67.1427 278.501 67.1427C275.97 74.3861 285.311 83.2392 285.311 83.2392C285.15 79.399 302.797 54.9323 312.299 49.3445C314.714 46.1482 315.796 40.3764 315.888 39.9165C315.266 44.5155 314.346 47.068 313.564 48.4937C321.708 41.7102 318.464 15.6108 313.541 12.4835Z" fill="#C65447"/>
<path d="M310.574 46.723C310.62 46.746 306.133 49.0685 302.728 48.1487C299.553 47.2749 297.46 43.1588 297.506 43.1358C298.863 42.8599 299.254 41.0203 299.208 33.064L299.829 33.179L309.699 35.1335L310.067 35.2025C310.067 35.2025 309.837 38.4218 309.837 41.4572C309.837 42.101 309.837 42.7219 309.86 43.3198C309.952 45.1134 310.136 46.5161 310.574 46.723Z" fill="#FFB07B"/>
<path d="M309.86 41.4802C309.86 42.124 309.86 42.7449 309.883 43.3428C304.132 43.1128 300.819 36.5362 299.576 33.6619L309.722 35.1335L310.09 35.2025C310.09 35.2255 309.86 38.4448 309.86 41.4802Z" fill="#EA8E50"/>
<path d="M298.794 32.0752C298.794 32.0752 295.78 27.3382 295.067 23.2681C294.561 20.3708 296.033 9.63208 306.824 11.1727C306.824 11.1727 309.953 11.4717 312.897 13.4722C315.244 15.0589 318.626 18.4622 314.853 27.8441L313.864 31.0175L298.794 32.0752Z" fill="#C65447"/>
<path d="M310.688 39.9855C310.688 39.9855 297.229 38.2149 298.472 29.8447C299.714 21.4975 298.794 15.6338 307.444 16.4156C316.095 17.1975 317.268 20.6237 317.544 23.5211C317.821 26.4185 314.231 40.2385 310.688 39.9855Z" fill="#FFB07B"/>
<path d="M313.587 17.1285C313.587 17.1285 308.457 26.3725 302.59 26.9934C296.746 27.6142 294.515 25.7286 294.515 25.7286C294.515 25.7286 299.346 22.9462 301.141 17.0825C301.164 17.0825 311.517 12.0466 313.587 17.1285Z" fill="#C65447"/>
<path d="M312.575 17.7953C312.575 17.7953 314.99 20.3938 315.336 22.6243C315.681 24.8548 315.336 29.2698 316.624 29.3158C316.624 29.3158 320.374 23.0612 317.843 18.8301C315.151 14.3461 312.575 17.7953 312.575 17.7953Z" fill="#C65447"/>
<path d="M401.888 131.299C399.059 125.32 391.213 120.376 384.61 120.376C379.733 120.376 375.43 122.032 372.094 124.745C370.185 126.286 367.309 125.274 366.803 122.883L361.005 96.0244C360.154 92.1152 356.311 89.6088 352.377 90.4596L258.762 110.603C254.942 111.431 252.504 115.202 253.309 119.019L273.44 212.471C274.015 215.139 275.971 217.162 278.41 217.944L277.19 218.289H280.825H280.848C281.285 218.266 281.746 218.22 282.183 218.128L284.23 217.691L308.25 212.517C311.632 211.781 312.989 207.711 310.735 205.113C308.549 202.606 306.961 199.502 306.294 195.961C304.408 186.027 310.55 176.208 320.305 173.564C331.165 170.62 342.116 177.404 344.463 188.234C345.337 192.305 344.877 196.375 343.358 199.939C342.76 201.319 343.266 202.767 344.279 203.595L342.875 204.285H346.119C346.372 204.285 346.602 204.262 346.879 204.216L375.568 198.053C379.48 197.203 381.987 193.339 381.136 189.43L375.384 162.733C374.855 160.273 377.11 158.088 379.549 158.732C382.378 159.468 385.415 159.56 388.475 158.893C400.485 156.294 407.502 143.164 401.888 131.299Z" fill="#D86713"/>
<path d="M381.297 120.376C376.42 120.376 372.117 122.032 368.781 124.745C366.872 126.286 363.996 125.274 363.49 122.883L357.715 96.0244C356.864 92.1152 353.021 89.6088 349.087 90.4596L255.472 110.603C251.652 111.431 249.214 115.202 250.019 119.019L270.15 212.471C271.001 216.449 274.913 218.979 278.893 218.128L304.96 212.517C308.342 211.781 309.699 207.711 307.444 205.113C305.259 202.606 303.671 199.502 303.004 195.961C301.118 186.027 307.26 176.208 317.015 173.564C327.875 170.62 338.826 177.404 341.173 188.234C342.047 192.305 341.587 196.375 340.068 199.939C339.079 202.261 341.104 204.722 343.566 204.193L372.255 198.03C376.166 197.18 378.674 193.316 377.823 189.407L372.071 162.71C371.542 160.25 373.797 158.065 376.236 158.709C379.065 159.445 382.102 159.537 385.162 158.87C397.172 156.294 404.189 143.164 398.575 131.299C395.768 125.343 387.923 120.399 381.297 120.376Z" fill="#F1A34F"/>
<path d="M347.062 84.8488C347.062 84.8488 352.906 85.8146 354.425 89.6088C355.966 93.403 353.827 95.9784 352.998 95.9554C352.17 95.9554 350.606 95.3345 349.869 93.38C349.133 91.4024 347.062 84.8488 347.062 84.8488Z" fill="#FFB07B"/>
<path d="M266.676 101.796C266.676 101.796 273.233 101.796 275.579 105.659C277.926 109.522 276.063 112.719 275.165 112.857C274.268 112.995 272.428 112.627 271.277 110.603C270.127 108.58 266.676 101.796 266.676 101.796Z" fill="#FFB07B"/>
<path d="M347.223 89.2639C346.648 89.1489 344.094 88.85 340.873 88.3441C334.914 87.4013 326.632 85.7686 323.848 83.1932C323.089 82.5033 321.34 78.6632 319.523 74.2711C317.682 83.998 317.567 91.4714 318.073 97.1512L277.857 105.797C281.308 98.8298 286.646 90.1837 285.633 83.1932C285.265 80.5948 283.839 77.0535 283.31 73.0524C283.264 72.7075 283.218 72.3625 283.195 72.0176C277.558 76.6626 271.047 81.7905 270.886 82.8023C270.633 84.5269 275.027 103.521 275.027 103.521C273.946 106.027 269.206 105.498 269.206 105.498C264.766 102.325 258.232 84.3889 258.761 80.4108C259.29 76.4327 275.464 53.7596 279.375 48.3557C283.241 42.9979 297.367 43.1359 297.712 43.1359C308.94 49.8734 309.952 44.2856 309.952 44.2856C309.952 44.2856 320.098 46.2172 321.823 49.2065C323.572 52.1959 331.21 74.892 331.739 75.6968C332.867 77.3755 351.341 84.044 351.664 85.9986C351.986 87.8842 348.88 89.6088 347.223 89.2639Z" fill="#80BDCC"/>
<path d="M291.846 102.785L277.812 105.797C281.309 98.8528 285.887 90.1837 284.898 83.2392C284.53 80.6407 283.678 77.5824 283.264 73.5583C283.218 73.1674 283.149 72.0176 283.149 72.0176C283.149 72.0176 293.088 79.8359 293.249 88.2751C293.364 92.6671 292.605 98.3929 291.846 102.785Z" fill="#5F9AA8"/>
<path d="M341.242 88.3901C335.214 87.4473 326.816 85.8146 324.009 83.2392C323.25 82.5493 321.479 78.7092 319.615 74.2941C319.615 74.2941 318.971 67.2117 320.811 67.4876C322.652 67.7405 325.39 80.2958 327.322 81.1007C329.071 81.8135 338.688 85.4927 341.242 88.3901Z" fill="#5F9AA8"/>
<path d="M637.964 357.869C637.113 360.72 633.202 362.629 632.673 366.124C632.42 367.826 631.775 369.159 630.97 370.056H618.776C618.891 369.389 619.444 368.654 621.031 368.309C624.413 367.573 625.702 363.457 625.494 359.64C625.402 358.03 625.448 356.213 625.517 354.65C625.632 352.465 625.793 350.74 625.793 350.74L632.995 349.039L633.754 350.005L634.49 350.947C634.467 350.993 638.815 355.018 637.964 357.869Z" fill="#2C3A64"/>
<path d="M581.137 370.079H556.45C557.002 369.435 557.969 368.792 559.556 368.539C563.352 367.918 569.932 365.71 571.405 360.858C571.451 360.697 571.497 360.536 571.543 360.375C572.716 355.178 581.183 361.962 581.183 361.962C581.183 361.962 581.206 362.169 581.252 362.514C581.39 363.986 581.712 367.964 581.137 370.079Z" fill="#2C3A64"/>
<path d="M560.568 232.592C560.568 232.592 561.857 248.643 563.375 267.935C565.423 294.15 567.908 326.343 568.161 332.436C568.575 343.037 570.277 359.962 570.277 359.962C570.277 359.962 574.304 363.986 582.356 362.284C582.356 362.284 589.534 338.093 591.582 312.5C591.605 312.086 591.651 311.649 591.674 311.235C593.584 285.182 596.551 230.338 596.551 230.338L560.568 232.592Z" fill="#35488B"/>
<path d="M560.568 232.592C560.568 232.592 561.857 248.642 563.375 267.935L591.582 312.523C591.605 312.109 591.651 311.672 591.674 311.258C593.584 285.205 596.551 230.361 596.551 230.361L560.568 232.592Z" fill="#2C3A64"/>
<path d="M566.458 234.501C566.458 234.501 589.673 292.632 604.926 319.95C620.18 347.268 624.942 354.903 624.942 354.903C624.942 354.903 633.685 351.407 634.467 349.016C634.467 349.016 628.624 296.265 618.408 283.411C612.634 276.145 605.847 254.345 605.524 246.711C605.202 239.077 603.454 223.992 603.454 223.992L566.458 234.501Z" fill="#35488B"/>
<path d="M578.352 144.774C577.316 138.68 577.293 135.07 577.293 135.07L589.073 125.596C588.636 138.634 596.987 144.912 596.987 144.912C596.987 144.912 581.297 152.638 572.232 149.764C572.232 149.764 574.464 146.912 578.352 144.774Z" fill="#935C2F"/>
<path d="M574.51 134.863C574.51 134.863 589.487 137.346 590.891 128.01C592.294 118.675 595.17 112.696 585.668 110.718C576.166 108.741 573.774 112.029 572.531 115.018C571.312 118.008 570.645 133.966 574.51 134.863Z" fill="#A16D3C"/>
<path d="M521.915 154.132L518.717 152.155C518.717 152.155 514.737 146.291 507.95 149.924C507.95 149.924 505.258 151.649 507.076 153.075C508.87 154.5 508.387 153.695 510.895 155.788C513.402 157.858 516.623 158.616 518.717 157.467L521.386 157.214L521.915 154.132Z" fill="#A16D3C"/>
<path d="M518.119 154.731C518.947 152.155 519.339 151.925 519.339 151.925C519.339 151.925 545.129 154.961 547.545 155.145C549.984 155.329 583.735 148.361 583.735 148.361L599.679 167.7C599.679 167.7 552.676 169.471 546.533 168.896C536.364 167.953 517.935 158.479 517.935 158.479C517.935 158.479 517.475 156.754 518.119 154.731Z" fill="#D3782F"/>
<path d="M605.248 227.004C605.294 227.993 603.223 229.097 602.349 229.511C595.608 232.523 589.35 234.616 582.264 235.305C573.866 236.156 563.927 234.271 560.522 234.317C560.154 234.317 559.832 234.179 559.579 233.949C559.349 233.765 559.165 223.509 559.349 210.586C559.349 210.08 559.349 209.551 559.395 209.045V208.861C559.418 207.504 559.418 206.148 559.464 204.768C559.556 200.997 559.694 197.111 559.855 193.247C560.108 187.568 560.43 181.98 560.913 177.036C561.396 171.862 562.017 167.378 562.823 164.205C564.64 156.892 568.827 152.086 572.624 148.545L575.753 145.786C578.881 146.43 582.195 146.246 585.508 144.613C589.097 142.842 593.008 140.934 593.629 141.394C598.461 145.004 601.728 153.213 603.407 163.653C604.304 169.264 604.741 175.518 604.718 182.072C604.718 184.578 604.626 187.131 604.488 189.683C603.683 203.457 604.511 215.415 604.994 222.359C605.11 224.314 605.225 225.9 605.248 227.004Z" fill="#E69D43"/>
<path d="M525.62 99.6116L430.9 84.5729C426.874 83.929 423.101 86.6884 422.456 90.7126L418.269 117.088C418.085 118.307 418.384 121.756 418.384 121.756L421.789 122.262C421.973 122.308 422.18 122.331 422.387 122.354C423.008 122.4 423.653 122.331 424.297 122.101C427.449 120.974 430.923 120.629 434.466 121.273C444.428 123.09 451.422 132.403 450.341 142.474C449.167 153.673 438.86 161.468 427.863 159.721C423.722 159.054 420.11 157.145 417.326 154.432C416.797 153.903 416.129 153.627 415.485 153.558L411.919 153.029L407.479 185.222C406.858 189.2 409.549 192.925 413.53 193.546L440.586 197.846C443.094 198.237 444.29 201.135 442.818 203.204C441.115 205.596 439.919 208.401 439.436 211.482C437.503 223.624 447.258 234.937 460.372 233.995C466.975 233.512 474.452 227.97 476.845 221.807C478.616 217.254 478.616 212.609 477.282 208.516C476.523 206.171 478.524 203.871 480.94 204.239L508.157 208.562C512.138 209.183 515.865 206.493 516.486 202.514L531.556 107.752C532.154 103.866 529.508 100.21 525.62 99.6116Z" fill="#4A75CB"/>
<path d="M593.973 163.331C593.973 163.331 586.703 197.203 559.463 204.745C559.555 200.974 559.693 197.088 559.854 193.224C560.107 187.545 560.429 181.957 560.912 177.013C561.395 176.76 561.856 176.576 562.27 176.438C571.496 173.38 593.973 163.331 593.973 163.331Z" fill="#D3782F"/>
<path d="M473.302 221.255C475.074 216.702 475.074 212.057 473.739 207.964C472.98 205.619 474.982 203.319 477.397 203.687L504.615 208.01C508.595 208.631 512.322 205.941 512.943 201.963L528.013 107.2C528.634 103.314 525.988 99.6807 522.1 99.0598L427.38 84.021C423.354 83.3772 419.581 86.1366 418.936 90.1607L414.749 116.536C414.197 119.939 417.533 122.699 420.777 121.526C423.929 120.399 427.403 120.054 430.946 120.698C440.908 122.515 447.902 131.828 446.821 141.9C445.648 153.098 435.34 160.893 424.343 159.146C420.202 158.479 416.59 156.57 413.806 153.857C411.988 152.086 408.951 153.098 408.56 155.605L403.936 184.647C403.315 188.625 406.006 192.351 409.987 192.972L437.043 197.272C439.551 197.662 440.747 200.56 439.275 202.629C437.572 205.021 436.376 207.826 435.893 210.908C433.96 223.049 443.715 234.363 456.829 233.42C463.455 232.983 470.909 227.441 473.302 221.255Z" fill="#699DEE"/>
<path d="M522.008 175.955L518.12 175.311C518.12 175.311 513.679 168.896 505.949 172.483C505.949 172.483 502.889 174.208 504.914 175.794C506.938 177.404 506.409 176.507 509.216 178.83C512.023 181.152 515.681 182.072 518.074 180.945L521.11 180.784L522.008 175.955Z" fill="#A16D3C"/>
<path d="M519.04 177.933C519.155 175.058 520.696 174.759 520.696 174.759C520.696 174.759 550.191 172.805 552.745 172.322C555.299 171.839 578.789 152.362 578.789 152.362C578.789 152.362 587.877 144.199 594.25 146.958C599.771 149.35 601.52 154.064 601.796 158.41C602.118 163.584 599.219 168.413 594.503 170.62C583.943 175.541 562.845 185.222 558.037 186.05C547.338 187.913 519.845 181.957 519.845 181.957C519.845 181.957 518.948 180.186 519.04 177.933Z" fill="#E69D43"/>
<path d="M572.554 114.995C572.554 114.995 566.48 110.488 570.438 103.498C570.438 103.498 575.223 105.084 582.01 103.498C588.797 101.911 594.871 104.165 595.676 106.533C595.676 106.533 598.322 107.591 598.575 111.546C598.828 115.501 590.891 127.988 590.891 127.988C590.891 127.988 589.188 125.872 589.649 124.423C590.109 122.975 591.558 119.732 589.787 119.732C588.015 119.732 587.417 122.377 586.681 121.319C585.944 120.261 587.279 115.846 585.162 115.11C583.046 114.397 574.924 116.329 572.554 114.995Z" fill="#2C3A64"/>
<path d="M365.929 366.699L339.149 245.193H346.511C348.259 245.193 349.686 243.767 349.686 242.02V237.927C349.686 236.179 348.259 234.753 346.511 234.753H253.01C251.262 234.753 249.835 236.179 249.835 237.927V242.02C249.835 243.767 251.262 245.193 253.01 245.193H262.489L235.709 366.699C235.341 368.332 236.399 369.964 238.01 370.332C239.643 370.7 241.277 369.642 241.622 368.01L268.678 245.193H332.937L359.993 368.01C360.361 369.642 361.972 370.677 363.605 370.332C365.262 369.964 366.297 368.332 365.929 366.699Z" fill="#8BB3EE"/>
<path d="M543.496 292.31C533.58 282.79 497.919 342.807 497.919 342.807C497.919 342.807 553.389 301.807 543.496 292.31Z" fill="#ACD29A"/>
<path d="M542.3 320.042C533.534 316.524 505.489 346.072 499.185 352.902C494.353 352.258 489.062 351.844 483.241 351.729C438.837 350.947 418.706 371.045 418.706 371.045L542.553 371.459C542.553 371.459 531.579 357.547 500.45 353.063C508.065 349.476 530.543 339.013 538.734 337.012C548.65 334.575 552.216 323.997 542.3 320.042Z" fill="#ACD29A"/>
<path d="M507.376 259.818H480.642C477.19 259.818 474.982 263.52 476.661 266.556C478.272 269.476 472.589 294.794 460.625 295.46C449.375 296.081 440.057 287.113 440.057 275.984C440.057 271.798 441.369 267.912 443.623 264.739C445.073 262.669 443.623 259.818 441.092 259.818H411.666C407.64 259.818 404.396 263.083 404.396 267.085C404.396 267.085 401.727 298.657 399.473 297.507C397.126 296.334 394.526 295.621 391.788 295.483H391.765C391.443 295.46 391.098 295.46 390.776 295.46C390.431 295.46 385.6 295.368 385.6 295.368L384.863 334.368L389.074 334.414C393.077 334.299 396.551 333.931 399.634 332.344C401.819 331.218 404.419 332.827 404.419 335.288V362.836C404.419 366.86 407.686 370.102 411.689 370.102H507.698C511.632 370.102 514.807 366.929 514.807 362.997V267.13C514.761 263.129 511.448 259.818 507.376 259.818Z" fill="#D86713"/>
<path d="M381.182 333.954C385.967 334.989 390.546 334.253 394.365 332.298C396.551 331.172 399.151 332.781 399.151 335.242V362.79C399.151 366.814 402.418 370.056 406.421 370.056H502.429C506.363 370.056 509.538 366.883 509.538 362.951V267.107C509.538 263.037 506.225 259.726 502.153 259.726H475.419C471.968 259.726 469.759 263.428 471.439 266.464C473.049 269.384 473.946 272.764 473.854 276.351C473.601 286.469 465.526 294.816 455.403 295.345C444.152 295.943 434.834 286.998 434.834 275.869C434.834 271.683 436.146 267.797 438.401 264.624C439.85 262.554 438.401 259.703 435.87 259.703H406.444C402.418 259.703 399.174 262.968 399.174 266.969V294.357C399.174 296.886 396.505 298.542 394.227 297.415C391.604 296.104 388.636 295.368 385.507 295.368C373.199 295.368 363.536 306.751 366.527 319.582C368.068 326.044 374.717 332.551 381.182 333.954Z" fill="#F1A34F"/>
<path d="M103.188 370.608L120.443 370.746C120.443 370.746 119.845 366.584 108.227 365.503C103.717 352.994 90.4882 319.375 79.0077 320.962C67.6653 322.526 94.5375 353.385 105.466 365.388C103.924 365.388 102.475 365.526 101.141 365.733C98.5177 360.49 93.2951 353.086 84.9205 353.431C75.9938 353.799 88.1415 361.916 96.5161 366.929C92.2828 368.447 89.9821 370.539 89.9821 370.539L103.004 370.631C103.165 370.723 103.234 370.769 103.234 370.769C103.234 370.769 103.234 370.7 103.188 370.608Z" fill="#ACD29A"/>
<path d="M164.847 231.258L167.401 233.328C167.401 233.328 174.395 230.821 175.96 239.123C175.96 239.123 176.374 242.664 174.142 242.664C171.91 242.664 172.831 242.273 169.656 242.365C166.481 242.457 163.858 240.778 163.398 238.203L161.879 236.018L164.847 231.258Z" fill="#EA8E50"/>
<path d="M164.571 235.696C166.619 233.581 166.435 231.994 166.435 231.994C166.435 231.994 142.852 212.701 140.46 211.115C138.826 210.034 121.456 194.65 113.334 185.268C109.308 180.623 104.316 182.417 98.6098 184.049L93.9163 185.406C88.2336 187.039 86.7612 194.972 91.4316 198.812C104.546 209.666 126.356 221.876 130.452 224.452C140.598 230.821 160.43 238.387 160.43 238.387C160.43 238.387 162.822 237.513 164.571 235.696Z" fill="#1E3D70"/>
<path d="M192.157 354.075C192.157 354.075 197.885 358.352 206.651 356.098C206.651 356.098 213.714 354.489 215.279 358.007C215.279 358.007 204.442 363.503 201.682 365.02C199.611 366.147 197.448 367.941 195.93 369.343C194.733 370.447 192.847 370.286 191.811 369.021C191.328 368.424 190.799 367.734 190.201 366.929C188.521 364.675 184.633 357.34 184.633 357.34L192.157 354.075Z" fill="#233862"/>
<path d="M194.848 352.097C194.848 352.097 191.351 360.122 183.322 358.651C183.322 358.651 166.895 345.107 155.644 331.011C151.986 326.435 148.88 321.813 147.04 317.582C139.562 300.289 119.408 274.535 106.593 261.451L138.665 249.861C138.665 249.861 148.926 270.511 162.592 295.874C172.439 314.178 184.035 334.897 194.848 352.097Z" fill="#2B478B"/>
<path d="M162.592 295.897L155.621 331.034C151.963 326.458 148.857 321.836 147.017 317.605C139.539 300.312 119.385 274.558 106.57 261.474L138.642 249.884C138.642 249.884 148.926 270.534 162.592 295.897Z" fill="#233862"/>
<path d="M136.295 358.628C136.295 358.628 135.95 365.043 143.726 365.894C143.726 365.894 148.167 365.917 148.19 369.987L125.597 370.056C125.597 370.056 124.93 368.401 124.792 364.882C124.677 362.169 127.414 355.109 127.414 355.109L136.295 358.628Z" fill="#233862"/>
<path d="M128.128 249.884C128.128 249.884 142.415 265.567 151.48 293.828C156.403 309.211 142.438 347.866 139.723 361.295C139.723 361.295 130.359 362.1 123.94 359.617C123.94 359.617 123.457 331.861 127.207 310.499C129.301 298.542 108.411 284.906 99.2537 263.29C93.0418 248.574 100.588 248.826 109.883 248.482L128.128 249.884Z" fill="#2B478B"/>
<path d="M111.655 179.887C103.718 184.371 87.4287 180.232 87.4287 180.232C87.4287 180.232 94.0317 172.69 91.0408 160.526L97.2757 163.699L103.971 167.102C103.971 167.102 104.408 169.241 104.707 173.104C104.776 174.093 104.845 175.196 104.891 176.415C108.986 177.657 111.655 179.887 111.655 179.887Z" fill="#FFB07B"/>
<path d="M140.782 249.079C140.782 250.482 139.172 251.149 138.826 251.218C135.628 251.793 126.679 255.288 118.603 256.07C111.816 256.783 105.512 256.116 98.5871 254.713C97.6668 254.529 95.5272 253.954 95.3661 253.08C95.182 252.115 68.6549 199.042 89.2692 176.254C89.7524 175.725 93.8246 176.691 97.5518 177.565C100.98 178.37 104.132 177.933 106.962 176.806L110.459 178.646C114.738 181.037 122.86 189.522 123.803 196.168C124.286 199.548 126.219 202.055 126.771 205.044C126.978 206.148 127.185 207.228 127.415 208.263C127.829 210.31 128.266 212.264 128.726 214.127C129.946 219.163 131.211 223.486 132.476 227.234C133.811 231.212 135.122 234.524 136.296 237.283C137.814 240.87 139.102 243.538 139.908 245.607C140.46 247.01 140.782 248.16 140.782 249.079Z" fill="#2A4E96"/>
<path d="M139.884 245.584C102.452 227.947 89.4756 194.098 89.4756 194.098C89.4756 194.098 119.891 205.32 127.391 208.24C127.805 210.287 128.242 212.241 128.703 214.104C129.922 219.14 131.187 223.463 132.453 227.211C133.787 231.189 135.099 234.501 136.272 237.26C137.813 240.847 139.102 243.515 139.884 245.584Z" fill="#1E3D70"/>
<path d="M245.624 208.079L237.618 182.67C236.836 180.209 234.282 179.036 232.05 179.657C231.935 179.68 231.82 179.726 231.705 179.772L228.898 180.715C228.898 180.715 224.504 185.245 221.329 186.165C211.62 188.97 202.394 183.796 198.851 174.346C194.917 163.814 199.472 152.27 210.079 148.913C213.691 147.763 220.823 149.902 220.823 149.902L223.676 148.959C225.24 148.476 226.298 146.82 225.746 145.05L216.912 117.088C215.715 113.271 211.62 111.132 207.801 112.351L181.734 120.56C179.318 121.319 176.948 119.272 177.363 116.789C177.823 113.915 177.639 110.879 176.695 107.89C172.991 96.1854 159.256 90.4367 147.96 97.1052C142.277 100.462 138.09 108.741 138.688 115.317C139.148 120.169 141.195 124.308 144.209 127.367C145.935 129.114 145.176 132.081 142.829 132.816L116.601 141.072C112.782 142.267 110.665 146.361 111.862 150.178L140.666 241.445C141.84 245.17 145.82 247.24 149.57 246.067L240.793 217.323C244.704 216.104 246.844 211.965 245.624 208.079Z" fill="#4A75CB"/>
<path d="M135.927 116.237C136.387 121.089 138.435 125.228 141.449 128.286C143.174 130.034 142.415 133 140.068 133.736L113.84 141.992C110.021 143.187 107.904 147.28 109.101 151.098L137.906 242.365C139.079 246.09 143.059 248.16 146.809 246.987L238.032 218.243C241.92 217.024 244.06 212.885 242.841 208.999L234.811 183.589C233.776 180.301 229.589 179.312 227.219 181.819C224.918 184.233 221.973 186.096 218.522 187.085C208.813 189.89 198.437 184.693 194.894 175.242C190.96 164.711 196.666 153.167 207.272 149.833C211.252 148.568 215.347 148.66 219.028 149.856C221.421 150.615 223.699 148.361 222.94 145.97L214.105 118.008C212.909 114.191 208.813 112.052 204.994 113.271L178.927 121.48C176.511 122.239 174.142 120.192 174.556 117.709C175.016 114.811 174.832 111.799 173.889 108.81C170.184 97.1052 156.449 91.3565 145.153 98.025C139.516 101.382 135.329 109.661 135.927 116.237Z" fill="#699DEE"/>
<path d="M161.787 235.351L165.031 236.547C165.031 236.547 171.519 231.971 175.546 239.421C175.546 239.421 176.995 242.664 174.694 243.377C172.394 244.089 173.222 243.423 169.978 244.503C166.734 245.584 163.536 244.802 162.317 242.48L160.108 240.87L161.787 235.351Z" fill="#FFB07B"/>
<path d="M164.456 239.927C165.652 236.8 166.205 235.397 166.205 235.397C166.205 235.397 141.771 215.484 139.263 213.782C137.561 212.609 120.674 199.985 112.437 190.166C108.342 185.291 101.9 183.061 95.688 184.371L90.5574 185.452C84.3685 186.74 82.3439 194.581 87.1524 198.697C100.681 210.287 123.526 223.739 127.783 226.544C138.343 233.489 161.718 243.216 161.718 243.216C161.718 243.216 163.513 242.388 164.456 239.927Z" fill="#2A4E96"/>
<path d="M104.706 173.104C96.8839 173.541 91.7993 167.102 91.7993 167.102C91.7993 167.102 95.3424 165.148 97.252 163.699L103.947 167.102C103.97 167.102 104.407 169.241 104.706 173.104Z" fill="#EA8E50"/>
<path d="M108.043 165.079C108.043 165.079 96.1939 173.564 91.0173 166.113C85.8408 158.663 80.8252 154.731 88.1645 149.005C95.5037 143.256 98.9778 145.073 101.301 147.142C103.625 149.235 110.987 162.687 108.043 165.079Z" fill="#FFB07B"/>
<path d="M102.544 140.428C102.13 137.553 101.164 135.553 101.164 135.553C101.164 135.553 100.427 138.634 94.7906 138.197C89.1538 137.783 80.2501 138.749 77.2822 145.165C77.0982 145.579 76.9141 145.993 76.7761 146.43C76.2469 145.004 76.1089 142.888 76.1089 142.888C75.0505 145.648 76.1089 149.097 76.1089 149.097C76.0859 149.189 76.0859 149.304 76.0629 149.396C74.8205 150.454 73.7852 153.696 73.7852 153.696C74.1533 152.776 75.0736 152.201 75.8788 151.833C75.8558 156.823 77.8804 161.698 81.4235 163.147C86.6231 165.262 86.5771 163.653 91.7997 167.102C91.7997 167.102 93.2031 165.354 92.2368 164.205C91.2705 163.032 87.6814 161.33 89.683 159.652C91.7076 157.95 92.4438 159.859 93.1801 158.686C93.9163 157.513 90.2122 154.133 94.9746 150.937C99.7831 147.74 102.981 143.302 102.544 140.428Z" fill="#233862"/>
<path d="M407.387 370.125C407.387 370.125 401.405 361.272 392.018 361.985C389.165 362.192 384.541 362.905 379.157 363.641C375.108 349.499 363.926 315.88 348.857 313.994C333.465 312.063 363.581 349.453 375.913 364.078C373.658 364.376 371.335 364.652 368.988 364.928C362.477 357.961 351.111 347.659 341.61 348.441C332.085 349.246 349.915 359.065 362.753 365.503C354.862 366.101 347.384 366.032 342.806 364.262C331.602 359.938 321.317 370.125 321.317 370.125H407.387Z" fill="#82B378"/>
</svg>
