<svg width="627" height="507" viewBox="0 0 627 507" fill="none" xmlns="http://www.w3.org/2000/svg">
<path d="M601.415 506.052C564.504 506.052 26.7658 506.176 26.4444 505.236L26.395 505.113C26.395 505.113 26.3455 504.989 26.3455 504.94C26.1477 504.47 -56.4995 370.551 71.9832 277.308C122.269 240.836 68.8435 216.753 108.82 176.152C154.754 129.493 204.891 181.122 255.993 159.956C265.016 156.222 274.089 150.214 283.138 140.991C304.028 119.726 332.756 109.712 362.818 107.487C419.903 103.258 484.156 127.021 517.284 161.786C523.959 168.784 554.319 204.983 530.387 254.733C515.282 286.16 578.571 316.153 601.044 352.031C658.227 443.223 601.934 504.866 601.415 506.052Z" fill="#D0E5F3"/>
<path d="M479.982 504.285C479.982 504.285 530.113 476.43 538.289 462.8C546.464 449.142 533.463 449.057 533.463 449.057C533.463 449.057 555.292 425.631 551.602 416.402C547.912 407.174 536.472 416.374 536.472 416.374C536.472 416.374 549.615 382.839 542.49 379.886C529.233 374.377 512.826 410.581 512.826 410.581C512.826 410.581 515.977 395.049 507.092 395.986C493.693 397.406 495.935 432.076 495.935 432.076C495.935 432.076 493.778 418.844 485.886 423.558C471.693 431.991 479.982 504.285 479.982 504.285Z" fill="#3C8F7C"/>
<path d="M482.679 418.305C488.839 414.471 495.623 424.438 495.623 424.438C495.623 424.438 493.664 397.378 507.063 395.958C515.948 395.021 512.797 410.553 512.797 410.553C512.797 410.553 529.233 374.349 542.462 379.858L479.868 503.718C478.988 495.341 470.472 425.858 482.679 418.305Z" fill="#50BFA5"/>
<path d="M481.316 504.541C481.316 504.541 523.585 507.693 534.23 502.525C544.875 497.329 536.813 491.99 536.813 491.99C536.813 491.99 559.948 486.255 561.396 479.014C562.844 471.773 552.113 472.852 552.113 472.852C552.113 472.852 573.801 457.263 570.565 452.521C564.547 443.69 539.595 459.591 539.595 459.591C539.595 459.591 547.855 451.186 541.951 448.148C533.009 443.576 520.348 466.122 520.348 466.122C520.348 466.122 520.945 460.699 514.103 460.415C501.783 459.932 481.316 504.541 481.316 504.541Z" fill="#3C8F7C"/>
<path d="M513.592 456.496C520.433 456.752 520.32 466.094 520.32 466.094C520.32 466.094 533.037 439.488 541.979 444.059C547.912 447.098 541.61 458.285 541.61 458.285C541.61 458.285 564.518 443.633 570.536 452.464L481.174 504.286C484.041 498.72 502.124 456.07 513.592 456.496Z" fill="#50BFA5"/>
<path d="M460.508 80.061L449.92 95.3944C449.807 96.3598 450.516 96.9561 452.305 98.4043C455.484 101.017 458.635 103.629 461.701 106.355C462.183 106.781 462.467 107.831 462.325 108.513C461.502 112.46 460.452 116.322 459.685 120.269C459.458 121.49 459.117 122.086 457.868 122.398C452.787 123.704 447.734 125.124 442.738 126.487C442.341 131.258 444.328 142.9 446.23 146.563C451.198 146.137 456.307 145.768 461.36 145.2C462.95 145.029 463.603 145.37 464.397 146.847C466.243 150.254 468.4 153.491 470.614 156.7C471.523 157.977 471.92 158.915 471.012 160.419C468.655 164.338 466.526 168.399 464.227 172.345C463.603 173.396 463.603 174.191 464.625 174.901C469.394 178.252 474.191 181.602 478.96 184.953C480.124 185.776 480.692 184.783 481.259 184.101C484.155 180.75 487.079 177.4 489.86 173.936C490.911 172.629 491.819 172.402 493.466 172.857C497.752 174.106 502.152 175.043 506.836 176.207C508.227 181.205 509.731 186.685 511.321 192.336C518.134 192.279 524.691 191.001 531.249 188.673C530.766 182.994 530.312 177.315 529.886 172.317C534.314 169.336 538.487 166.666 542.49 163.77C543.654 162.918 544.335 162.947 545.47 163.6C549.359 165.871 553.334 168.029 557.223 170.273C558.074 170.755 558.727 171.011 559.494 170.159C563.468 165.9 567.016 161.385 569.543 156.103C570.11 154.939 569.826 154.286 568.946 153.548C565.398 150.538 561.935 147.471 558.386 144.49C557.535 143.78 557.251 143.212 557.535 141.963C558.585 137.675 559.437 133.33 560.175 128.986C560.374 127.879 560.828 127.566 561.736 127.311C566.789 125.919 571.842 124.471 577.008 122.995C576.81 116.236 575.873 109.706 573.573 103.26C567.783 103.743 562.02 104.225 556.513 104.68C553.504 99.966 550.608 95.3944 547.514 90.5104C549.473 87.0178 551.772 82.9857 553.987 78.9251C555.803 75.6029 556.172 76.2276 553.078 73.5868C552.794 73.3313 552.567 72.9621 552.34 72.6782C549.473 70.6905 546.578 68.7029 543.71 66.7152C543.001 66.4028 542.206 66.1757 541.581 65.7214C539.935 64.5572 538.771 64.6423 537.437 66.3461C534.598 69.9238 531.561 73.3313 528.523 76.7387C528.126 77.193 527.189 77.477 526.593 77.3634C522.704 76.6251 518.872 75.5745 514.983 75.035C513.081 74.7794 512.485 74.0412 512.031 72.3374C510.782 67.5387 509.362 62.7683 507.858 57.5151C501.158 58.6793 494.658 59.8151 488.044 60.951C488.129 62.2287 488.157 62.9386 488.214 63.6769C488.583 68.1633 488.924 72.6498 489.378 77.1362C489.52 78.414 489.066 78.9535 487.987 79.6066C484.353 81.8782 480.89 84.377 477.257 86.677C476.689 87.0462 475.582 87.0462 474.986 86.7338C471.721 85.0017 468.542 83.1276 465.306 81.3387C462.666 79.9758 461.672 79.4363 460.508 80.061ZM485.319 107.973C494.771 94.2586 513.535 90.8227 527.246 100.278C540.957 109.734 544.392 128.503 534.939 142.218C525.486 155.933 506.722 159.369 493.011 149.913C479.301 140.458 475.866 121.688 485.319 107.973Z" fill="#9BC1F9"/>
<path d="M486.795 110.642C486.766 110.642 486.766 110.642 486.738 110.614C486.284 110.444 485.801 110.302 485.319 110.16C485.148 110.103 485.006 110.075 484.836 110.018C484.666 109.961 484.495 109.933 484.325 109.904C484.155 109.876 483.984 109.819 483.786 109.791C483.615 109.762 483.445 109.734 483.275 109.677C483.076 109.649 482.906 109.62 482.707 109.563C482.537 109.535 482.395 109.507 482.224 109.478C482.026 109.45 481.799 109.421 481.6 109.393C481.458 109.365 481.288 109.365 481.146 109.336C480.919 109.308 480.663 109.308 480.436 109.279C480.323 109.279 480.181 109.251 480.067 109.251C479.698 109.223 479.329 109.223 478.96 109.223H308.042C307.645 109.223 307.248 109.223 306.85 109.251C306.055 109.279 305.289 109.365 304.522 109.478C304.153 109.535 303.756 109.592 303.387 109.677C293.622 111.665 286.128 119.842 285.106 129.894C285.021 130.661 284.992 131.456 284.992 132.251V416.743V481.654C284.992 491.621 291.322 500.14 300.208 503.348C300.236 503.348 300.293 503.377 300.321 503.377C300.747 503.547 301.201 503.661 301.655 503.803C301.826 503.86 301.968 503.888 302.138 503.945C302.308 504.002 302.479 504.03 302.649 504.058C302.819 504.087 302.989 504.144 303.188 504.172C303.359 504.2 303.529 504.229 303.699 504.285C303.898 504.314 304.068 504.342 304.267 504.399C304.437 504.427 304.579 504.456 304.749 504.484C304.948 504.513 305.175 504.541 305.374 504.569C305.516 504.598 305.686 504.598 305.828 504.626C306.055 504.655 306.311 504.655 306.538 504.683C306.651 504.683 306.793 504.711 306.907 504.711C307.276 504.74 307.645 504.74 308.014 504.74H478.932C479.726 504.74 480.521 504.711 481.288 504.626C492.132 503.519 500.761 494.887 501.868 484.04C501.953 483.273 501.982 482.478 501.982 481.683V197.219V132.308C502.01 122.341 495.68 113.851 486.795 110.642Z" fill="#13375B"/>
<path d="M487.845 139.492H293.196V472.142H487.845V139.492Z" fill="#D4EEFC"/>
<path d="M377.789 291.889L363.596 276.925C363.596 276.925 348.409 285.273 330.724 293.252C325.869 284.79 317.921 256.906 317.495 255.6C317.07 254.265 306.055 253.186 307.276 261.08C308.497 268.974 311.818 311.17 320.419 314.549C327.942 317.53 377.789 291.889 377.789 291.889Z" fill="#F7A491"/>
<path d="M301.088 241.97C302.479 239.784 304.977 239.443 306.027 238.591C308.553 236.575 309.774 237.541 310.171 237.001C310.91 236.036 305.09 225.814 307.673 223.599C309.064 222.406 316.814 240.238 318.148 245.605C318.744 248.019 317.041 254.237 317.467 255.572C317.524 255.799 317.808 256.736 318.233 258.184C314.77 258.496 310.171 259.121 307.106 260.285C305.999 254.635 304.21 253.527 302.053 249.609C299.64 245.207 300.605 242.737 301.088 241.97Z" fill="#F7A491"/>
<path d="M366.491 235.667C368.251 227.347 370.068 218.999 378.328 213.007C385.028 208.152 392.21 206.76 399.817 209.543C421.42 217.38 409.781 234.502 436.578 252.789C444.896 258.468 448.075 260.456 454.036 268.009C462.41 278.6 466.981 292.798 462.779 304.497C454.093 328.689 427.154 335.675 413.074 330.535C386.844 320.994 364.986 287.715 363.539 278.629C361.977 268.917 365.355 241.033 366.491 235.667Z" fill="#13375B"/>
<path d="M362.29 301.316C363.596 300.72 363.823 300.947 362.971 302.821C358.174 313.498 363.823 320.625 365.157 322.84C365.895 324.061 365.583 347.629 365.242 365.66C363.511 381.334 360.842 415.408 361.438 472.171H436.295C433.995 448.972 435.159 415.778 432.775 403.738C430.22 390.79 416.736 369.408 412.79 363.332C412.563 357.283 413.387 352.116 413.983 348.538C415.743 337.151 418.354 326.105 421.903 315.173C424.259 307.933 428.318 320.625 430.532 327.014C435.727 324.913 450.261 318.382 450.261 318.382C431.185 266.845 421.874 271.076 399.732 270.763C371.998 270.337 374.894 266.958 337.934 287.999L344.463 308.699C344.463 308.642 355.931 304.241 362.29 301.316Z" fill="white"/>
<path d="M390.053 384.287C389.797 384.316 388.605 384.174 387.64 384.202C386.306 384.23 385.142 384.429 385.142 384.429C385.142 384.429 384.631 383.975 383.609 383.52C383.183 383.322 382.502 383.265 382.048 383.038C381.565 382.811 381.168 382.413 380.713 382.214C379.549 381.703 378.442 381.59 378.102 382.214C377.818 382.725 384.347 386.729 384.347 386.729C390.422 386.758 396.752 389.853 410.832 380.681C418.865 377.16 457.841 357.908 458.635 353.706C459.061 351.349 453.1 333.119 448.217 319.262C444.442 320.937 436.437 324.515 431.952 326.389C436.068 335.107 440.922 346.663 440.411 348.083C440.269 348.452 439.787 349.105 413.443 366.37C412.791 366.796 412.109 367.25 411.4 367.704C409.554 368.925 407.567 370.203 405.467 371.595L397.944 370.799C397.944 370.799 386.05 371.623 385.681 372.986C385.539 373.611 386.504 373.923 387.725 374.093H387.753C387.924 374.122 388.122 374.15 388.293 374.178H388.321C389.627 374.32 391.018 374.349 391.33 374.462C391.699 374.604 392.466 374.888 393.118 375.343C385.709 378.381 386.277 377.302 383.808 377.132C383.183 377.075 382.53 377.274 381.962 377.217C380.969 377.132 380.174 376.535 379.408 376.478C378.272 376.422 377.364 376.933 377.165 377.16C376.91 377.416 377.392 377.813 378.329 378.239C384.063 380.738 388.804 379.772 390.337 380.141C391.358 380.397 389.485 380.766 386.589 380.454C385.851 380.369 384.915 380.653 383.949 380.425C383.297 380.283 382.729 379.858 382.104 379.716C381.508 379.574 380.94 379.574 380.429 379.488C379.777 379.375 378.897 378.892 378.386 378.835C376.484 378.608 375.547 378.949 375.348 379.119C374.922 379.517 383.552 382.839 383.552 382.839C383.552 382.839 389.513 383.691 390.848 383.691C390.791 383.691 391.614 384.06 390.053 384.287Z" fill="#F7A491"/>
<path d="M398.994 309.324L409.356 310.119C412.052 310.318 414.408 308.302 414.607 305.604C414.806 302.907 412.79 300.55 410.094 300.351L399.732 299.556C397.036 299.357 394.68 301.373 394.481 304.071C394.282 306.768 396.298 309.125 398.994 309.324Z" fill="#24B390"/>
<path d="M405.155 312.93C405.183 312.845 407.284 303.872 407.738 294.132C408.362 280.73 405.694 272.268 399.818 268.974C395.191 266.39 390.053 266.163 385.681 268.35C380.259 271.047 379.01 277.266 377.903 283.115C376.512 290.413 376.711 301.174 376.569 308.074L378.755 308.131C378.897 301.26 378.698 290.611 380.06 283.541C381.026 278.487 382.048 272.637 386.675 270.309C390.45 268.435 394.737 268.634 398.767 270.905C408.788 276.499 405.694 301.458 403.054 312.447L405.155 312.93Z" fill="#184655"/>
<path d="M386.93 339.764C388.747 333.63 393.147 315.94 389.4 310.602C385.511 305.235 375.007 305.32 370.068 306.91C365.782 308.188 364.93 314.293 364.845 318.751C364.731 324.26 365.924 333.346 366.804 338.77L368.649 338.514C368.081 333.318 367.655 328.746 367.4 323.692C367.229 319.83 367.144 310.715 370.835 309.523C374.866 308.216 383.183 308.302 386.504 311.51C386.93 311.908 387.242 312.362 387.384 312.618C389.683 316.849 386.107 334.596 385.142 339.309L386.93 339.764Z" fill="#184655"/>
<path d="M398.398 315.997C398.398 318.921 400.669 321.307 403.508 321.307C406.318 321.307 408.617 318.921 408.617 315.997C408.617 313.072 406.346 310.687 403.508 310.687C400.697 310.687 398.398 313.072 398.398 315.997Z" fill="#184655"/>
<path d="M400.981 315.997C400.981 317.445 402.116 318.637 403.507 318.637C404.898 318.637 406.034 317.473 406.034 315.997C406.034 314.52 404.898 313.356 403.507 313.356C402.116 313.356 400.981 314.549 400.981 315.997Z" fill="#9BC1F9"/>
<path d="M383.523 338.23C382.87 339.991 384.148 341.808 386.05 341.78C387.1 341.751 388.065 341.098 388.434 340.104C389.087 338.344 387.81 336.526 385.908 336.555C384.829 336.583 383.892 337.236 383.523 338.23Z" fill="#24B390"/>
<path d="M364.958 337.747C364.305 339.508 365.583 341.325 367.456 341.297C368.507 341.268 369.472 340.615 369.841 339.621C370.494 337.861 369.216 336.044 367.314 336.072C366.264 336.101 365.327 336.782 364.958 337.747Z" fill="#24B390"/>
<path d="M396.979 250.318C396.979 250.318 398.682 263.977 399.676 268.719C400.726 273.688 402.287 289.305 392.011 291.832C381.735 294.359 384.914 274.852 384.744 269.798C384.574 264.743 381.65 247.167 381.65 247.167L396.979 250.318Z" fill="#F7A491"/>
<path d="M397.547 254.691C397.433 254.748 397.348 254.833 397.234 254.89C391.557 258.156 386.618 257.644 382.899 255.089C382.246 250.716 381.65 247.167 381.65 247.167L396.979 250.318C396.979 250.318 397.206 252.136 397.547 254.691Z" fill="#F47458"/>
<path d="M393.913 214.768C393.913 214.768 399.931 216.471 403.422 222.434C406.885 228.426 408.617 245.605 395.843 252.931C383.069 260.257 373.985 248.501 374.354 237.512C374.723 226.552 377.789 212.013 393.913 214.768Z" fill="#F7A491"/>
<path d="M371.516 232.827C371.374 235.695 372.594 238.08 374.241 238.165C375.887 238.251 377.335 236.007 377.477 233.139C377.619 230.272 376.398 227.886 374.752 227.801C373.105 227.716 371.658 229.988 371.516 232.827Z" fill="#F7A491"/>
<path d="M392.096 214.313C392.096 214.313 398.994 232.288 405.75 234.219C412.506 236.121 411.967 244.98 411.967 244.98C411.967 244.98 412.819 224.536 406.659 219.538C400.47 214.512 392.096 214.313 392.096 214.313Z" fill="#13375B"/>
<path d="M401.435 236.433L400.016 236.746C392.408 238.449 376.682 233.707 376.682 233.707C376.682 233.707 377.42 242.453 375.603 245.321C375.603 245.321 377.846 253.073 385.027 255.203C392.209 257.332 402.287 248.359 402.287 248.359C402.287 248.359 399.391 241.743 401.435 236.433Z" fill="white"/>
<path d="M401.748 248.643C405.353 247.337 409.44 233.139 405.977 233.594C404.813 233.764 403.337 234.673 401.577 236.291C400.868 236.944 400.3 237.569 399.931 237.967C399.193 238.79 399.193 238.875 399.193 239.017H399.988C399.988 239.131 399.959 239.188 399.931 239.188C400.243 238.705 403.82 234.673 406.091 234.36C406.148 234.36 406.318 234.332 406.432 234.815C407.084 237.456 404.161 246.94 401.492 247.905L401.748 248.643Z" fill="white"/>
<path d="M375.575 227.744L377.392 234.247L376.767 234.786L374.752 227.801C374.752 227.801 375.093 227.659 375.575 227.744Z" fill="white"/>
<path d="M402.826 237.739C401.776 240.551 402.457 243.39 404.359 244.1C406.233 244.81 408.617 243.106 409.639 240.295C410.661 237.484 410.008 234.644 408.106 233.934C406.233 233.225 403.876 234.928 402.826 237.739Z" fill="#F7A491"/>
<path opacity="0.6" d="M418.979 128.276H363.539C362.772 128.276 362.148 127.651 362.148 126.884V125.521C362.148 124.755 362.772 124.13 363.539 124.13H418.979C419.745 124.13 420.369 124.755 420.369 125.521V126.884C420.369 127.651 419.745 128.276 418.979 128.276Z" fill="white"/>
<path d="M487.845 458.2H293.196V472.171H487.845V458.2Z" fill="#A4DEE3"/>
<path opacity="0.2" d="M487.845 139.492H293.196V157.154H487.845V139.492Z" fill="#3CB4C5"/>
<path d="M388.945 52.2052L392.039 62.1719C392.436 62.5694 392.919 62.4274 394.196 62.1719C396.439 61.6892 398.682 61.178 400.952 60.7805C401.322 60.7237 401.861 60.9509 402.116 61.2348C403.564 62.9385 404.898 64.7558 406.374 66.4596C406.829 66.9991 406.97 67.3398 406.687 67.9929C405.494 70.662 404.387 73.388 403.252 76.0571C405.211 77.8744 411.03 81.0263 413.301 81.4806C414.834 79.1522 416.423 76.767 417.928 74.3534C418.382 73.5868 418.779 73.4164 419.688 73.5868C421.817 73.9559 424.003 74.1263 426.16 74.2399C427.04 74.2966 427.579 74.4386 427.92 75.3473C428.828 77.7325 429.879 80.0893 430.815 82.4461C431.071 83.0708 431.412 83.3547 432.065 83.156C435.187 82.2189 438.31 81.2535 441.432 80.3164C442.199 80.0893 441.943 79.493 441.858 79.0102C441.375 76.5683 440.921 74.1263 440.382 71.7127C440.183 70.804 440.382 70.3213 441.148 69.7534C443.192 68.2768 445.122 66.6867 447.252 65.0398C449.92 66.1472 452.872 67.3966 455.91 68.646C458.237 65.6361 459.94 62.3139 461.189 58.6225C458.521 56.862 455.881 55.1015 453.525 53.5681C453.752 50.5866 454.008 47.8323 454.121 45.0779C454.15 44.2829 454.405 43.9705 455.086 43.715C457.442 42.7779 459.742 41.7841 462.098 40.8471C462.609 40.6483 462.949 40.4495 462.836 39.7964C462.325 36.5878 461.559 33.4643 460.139 30.5112C459.827 29.8581 459.43 29.7729 458.805 29.8865C456.25 30.3976 453.695 30.8803 451.169 31.3914C450.544 31.5334 450.204 31.4482 449.778 30.8803C448.245 28.9495 446.627 27.0754 444.981 25.2297C444.555 24.7754 444.583 24.463 444.782 23.9519C445.917 21.2543 447.024 18.5284 448.16 15.7457C445.123 13.5025 441.915 11.6568 438.281 10.4358C436.493 13.1617 434.705 15.8309 433.001 18.4148C429.907 18.1025 426.898 17.7901 423.662 17.4778C422.81 15.4049 421.817 13.0197 420.795 10.6345C419.972 8.67526 420.369 8.73205 418.127 9.18638C417.928 9.21477 417.672 9.18638 417.474 9.18638C415.6 9.75428 413.727 10.3506 411.853 10.9185C411.456 11.1173 411.087 11.4012 410.689 11.5148C409.611 11.8271 409.241 12.3666 409.525 13.5592C410.121 16.0296 410.576 18.5568 411.001 21.084C411.058 21.4247 410.86 21.9358 410.604 22.163C408.929 23.6112 407.141 24.9457 405.551 26.4791C404.785 27.2173 404.245 27.2457 403.337 26.8482C400.782 25.7408 398.199 24.7186 395.36 23.5544C393.572 26.905 391.812 30.1705 390.024 33.4643C390.62 33.8618 390.932 34.1174 391.273 34.3162C393.373 35.7075 395.474 37.0989 397.603 38.4619C398.199 38.8594 398.284 39.2285 398.227 39.9384C397.972 42.3236 397.858 44.7088 397.631 47.094C397.603 47.4631 397.234 47.9459 396.865 48.1162C394.991 48.9681 393.033 49.7064 391.131 50.5014C389.655 51.2113 389.058 51.4669 388.945 52.2052ZM409.809 50.9274C407.056 42.0397 412.023 32.584 420.937 29.8297C429.822 27.0754 439.275 32.0445 442.028 40.9606C444.782 49.8483 439.814 59.304 430.901 62.0583C421.987 64.7842 412.563 59.8151 409.809 50.9274Z" fill="#CAE1F9"/>
<path opacity="0.2" d="M469.309 23.4408L470.983 28.8075C471.182 29.0063 471.466 28.9495 472.147 28.8075C473.368 28.5519 474.56 28.268 475.781 28.0408C475.979 28.0124 476.263 28.126 476.405 28.2964C477.2 29.2334 477.91 30.1989 478.705 31.1075C478.96 31.3915 479.045 31.5902 478.875 31.931C478.222 33.3791 477.626 34.8557 477.03 36.3038C478.08 37.2977 481.231 39.0014 482.452 39.2285C483.275 37.9508 484.155 36.673 484.95 35.3668C485.205 34.9693 485.404 34.8557 485.915 34.9409C487.079 35.1396 488.243 35.2248 489.407 35.31C489.889 35.3384 490.173 35.4236 490.372 35.9063C490.854 37.2125 491.422 38.4619 491.933 39.7397C492.075 40.0804 492.245 40.2224 492.614 40.1372C494.317 39.6261 495.992 39.115 497.695 38.6039C498.121 38.4903 497.979 38.1495 497.923 37.894C497.667 36.5878 497.412 35.2532 497.128 33.947C497.014 33.4643 497.128 33.1804 497.554 32.8964C498.661 32.1013 499.711 31.2495 500.846 30.3408C502.294 30.9371 503.884 31.6186 505.53 32.3001C506.779 30.6532 507.716 28.8643 508.369 26.8766C506.921 25.9396 505.502 24.9741 504.224 24.1507C504.338 22.5322 504.48 21.0556 504.537 19.5507C504.565 19.1247 504.679 18.9544 505.048 18.8124C506.325 18.3013 507.574 17.7618 508.823 17.2506C509.107 17.1371 509.277 17.0235 509.221 16.6827C508.937 14.9506 508.539 13.2469 507.744 11.6568C507.574 11.316 507.375 11.2592 507.035 11.316C505.672 11.6 504.281 11.8555 502.919 12.1395C502.578 12.1963 502.408 12.1679 502.152 11.8555C501.329 10.8049 500.449 9.7827 499.569 8.78886C499.342 8.53331 499.342 8.36294 499.455 8.10738C500.08 6.63083 500.676 5.18267 501.272 3.67772C499.626 2.45673 497.894 1.4629 495.935 0.809805C494.97 2.28636 494.005 3.73451 493.097 5.12588C491.422 4.95551 489.804 4.78514 488.044 4.61477C487.59 3.50735 487.05 2.20117 486.511 0.923386C486.057 -0.127237 486.284 -0.0988423 485.063 0.12832C484.95 0.156715 484.836 0.12832 484.694 0.12832C483.672 0.440667 482.679 0.753015 481.657 1.06536C481.458 1.17894 481.231 1.32092 481.032 1.37771C480.436 1.54808 480.238 1.83203 480.408 2.48512C480.72 3.8197 480.976 5.18267 481.203 6.54564C481.231 6.71601 481.118 6.99996 481.004 7.11355C480.096 7.90861 479.13 8.61849 478.279 9.44195C477.853 9.83949 477.569 9.83949 477.087 9.64072C475.724 9.04442 474.305 8.47652 472.772 7.85182C471.807 9.66912 470.841 11.4296 469.876 13.2185C470.189 13.4457 470.359 13.5593 470.558 13.6728C471.693 14.4111 472.829 15.1778 473.964 15.9161C474.305 16.1148 474.333 16.342 474.305 16.7111C474.163 17.9889 474.106 19.2951 473.992 20.5729C473.964 20.7717 473.765 21.0272 473.595 21.1124C472.573 21.5667 471.523 21.9643 470.501 22.4186C469.678 22.9013 469.394 23.0433 469.309 23.4408ZM480.578 22.7309C479.102 17.9321 481.77 12.821 486.596 11.316C491.394 9.83949 496.503 12.5086 498.008 17.3358C499.484 22.1346 496.815 27.2458 491.99 28.7507C487.192 30.2273 482.083 27.5581 480.578 22.7309Z" fill="#9BC1F9"/>
<path d="M309.603 376.564H316.785C315.621 375.769 314.145 375.286 312.527 375.286H132.611C123.186 375.286 115.579 382.044 115.579 390.392V399.99C115.579 408.338 123.215 415.096 132.611 415.096L310.54 415.039L309.603 376.564Z" fill="#86B1F2"/>
<path d="M207.467 375.314C198.468 375.314 191.173 381.789 191.173 389.768V400.615C191.173 408.594 198.468 415.068 207.467 415.068H319.482V412.654H319.028L290.555 410.269L284.793 390.25C284.793 390.25 295.892 379.176 296.63 378.892C297.368 378.608 319.028 377.728 319.028 377.728H319.482V375.314H207.467V375.314Z" fill="#466EB6"/>
<path d="M312.215 395.106C312.215 383.407 319.028 377.728 319.028 377.728H209.767C201.506 377.728 194.807 383.663 194.807 391.017V399.365C194.807 406.691 201.506 412.654 209.767 412.654H319.028C319.028 412.654 312.215 409.871 312.215 395.106Z" fill="#FAE0B2"/>
<path d="M194.778 391.017V399.365C194.778 400.473 194.92 401.523 195.204 402.545C198.894 394.538 205.962 386.843 219.389 384.373C250.785 378.58 318.999 377.728 318.999 377.728H209.766C201.477 377.728 194.778 383.691 194.778 391.017Z" fill="#DAEEF7"/>
<path d="M306.651 456.156H314.77C313.436 455.162 311.789 454.537 309.972 454.537H106.325C95.6795 454.537 87.0215 462.999 87.0215 473.448V485.46C87.0215 495.909 95.6511 504.371 106.325 504.371L307.701 504.314L306.651 456.156Z" fill="#50BFA5"/>
<path d="M191.031 454.594C180.84 454.594 172.58 462.687 172.58 472.682V486.255C172.58 496.25 180.84 504.342 191.031 504.342H317.807V501.304H317.296L285.077 498.322L278.576 473.25C278.576 473.25 291.152 459.393 291.975 459.052C292.798 458.683 317.324 457.604 317.324 457.604H317.835V454.594H191.031V454.594Z" fill="#3C8F7C"/>
<path d="M309.575 479.411C309.575 464.759 317.296 457.661 317.296 457.661H193.614C184.247 457.661 176.667 465.1 176.667 474.272V484.721C176.667 493.893 184.247 501.333 193.614 501.333H317.296C317.296 501.333 309.575 497.84 309.575 479.411Z" fill="#FAE0B2"/>
<path d="M176.696 474.272V484.721C176.696 486.084 176.866 487.419 177.178 488.697C181.351 478.701 189.356 469.047 204.572 465.952C240.112 458.711 317.325 457.632 317.325 457.632H193.614C184.275 457.632 176.696 465.072 176.696 474.272Z" fill="#DAEEF7"/>
<path d="M80.3218 416.289H72.2031C73.5373 415.494 75.2121 415.011 77.0005 415.011H293.224C303.869 415.011 312.527 421.741 312.527 430.032V439.573C312.527 447.864 303.897 454.594 293.224 454.594L79.2999 454.537L80.3218 416.289Z" fill="#F47458"/>
<path d="M195.97 415.039C206.161 415.039 214.422 421.457 214.422 429.407V440.169C214.422 448.091 206.161 454.537 195.97 454.537H69.166V452.123H69.677L101.925 449.738L108.454 429.862C108.454 429.862 95.8781 418.873 95.0549 418.589C94.2317 418.305 69.7054 417.453 69.7054 417.453H69.1944V415.068H195.97V415.039Z" fill="#B75742"/>
<path d="M77.3697 434.717C77.3697 423.104 69.6484 417.453 69.6484 417.453H193.387C202.755 417.453 210.334 423.359 210.334 430.628V438.92C210.334 446.189 202.755 452.095 193.387 452.095H69.6484C69.6484 452.123 77.3697 449.341 77.3697 434.717Z" fill="#FAE0B2"/>
<path d="M210.334 430.628V438.92C210.334 439.999 210.164 441.078 209.852 442.071C205.679 434.121 197.674 426.482 182.458 424.012C146.918 418.276 69.6772 417.424 69.6772 417.424H193.416C202.755 417.453 210.334 423.359 210.334 430.628Z" fill="#DAEEF7"/>
<path d="M553.503 504.087H79.7258C79.3284 504.087 79.0161 504.399 79.0161 504.797C79.0161 505.194 79.3284 505.507 79.7258 505.507H553.503C553.901 505.507 554.213 505.194 554.213 504.797C554.213 504.399 553.872 504.087 553.503 504.087Z" fill="#355389"/>
<path d="M183.253 53.3978C238.04 53.4829 282.437 84.2918 282.437 122.228C282.437 141.196 271.337 158.347 253.368 170.755L266.313 208.294L228.814 183.164C215.16 188.048 199.66 190.774 183.224 190.745C128.438 190.66 84.0405 159.851 84.0405 121.915C84.0689 84.0078 128.494 53.3126 183.253 53.3978Z" fill="#9BC1F9"/>
<path d="M241.479 109.084C246.226 94.269 238.067 78.4103 223.257 73.6623C208.446 68.9144 192.592 77.0752 187.846 91.8899C183.099 106.705 191.258 122.563 206.068 127.311C220.878 132.059 236.732 123.898 241.479 109.084Z" fill="#C5DDF9"/>
<path d="M214.649 129.696C206.843 129.696 199.519 126.657 193.983 121.149C188.448 115.64 185.439 108.286 185.439 100.477C185.439 92.6683 188.476 85.3423 193.983 79.8053C199.49 74.2966 206.843 71.2583 214.649 71.2583C222.455 71.2583 229.779 74.2966 235.315 79.8053C240.822 85.3139 243.859 92.6683 243.859 100.477C243.859 108.286 240.822 115.612 235.315 121.149C229.808 126.657 222.455 129.696 214.649 129.696ZM214.649 73.3596C199.689 73.3596 187.54 85.5411 187.54 100.477C187.54 115.441 199.718 127.594 214.649 127.594C229.609 127.594 241.759 115.413 241.759 100.477C241.787 85.5127 229.609 73.3596 214.649 73.3596Z" fill="#355389"/>
<path d="M228.9 91.1066C221.547 85.9954 218.056 96.3597 218.056 96.3597C218.056 96.3597 214.593 85.9954 207.212 91.1066C200.229 95.9622 207.978 110.018 218.056 114.902C228.133 110.018 235.883 95.9622 228.9 91.1066Z" fill="#E25A44"/>
<path d="M209.341 111.608L207.751 101.84H203.323L202.585 107.235L199.491 95.9621L196.595 103.118H192.252V102.436H196.141L199.604 93.8325L202.358 103.856L202.727 101.13H208.319L209.369 107.491L211.811 93.5769L213.854 101.897H224.925V102.578H213.315L211.924 96.8992L209.341 111.608Z" fill="white"/>
<path d="M177.302 122.268C180.567 103.417 167.936 85.4879 149.091 82.222C130.245 78.9561 112.321 91.5904 109.056 110.442C105.791 129.293 118.422 147.222 137.267 150.488C156.113 153.754 174.037 141.119 177.302 122.268Z" fill="#C5DDF9"/>
<path d="M143.199 152.298C133.604 152.298 124.577 148.55 117.793 141.764C111.008 134.977 107.261 125.948 107.261 116.35C107.261 106.752 111.008 97.7227 117.793 90.9362C124.577 84.1498 133.604 80.4016 143.199 80.4016C152.794 80.4016 161.821 84.1498 168.605 90.9362C175.39 97.7227 179.137 106.752 179.137 116.35C179.137 125.948 175.39 134.977 168.605 141.764C161.821 148.55 152.794 152.298 143.199 152.298ZM143.199 82.9856C124.804 82.9856 109.844 97.9499 109.844 116.35C109.844 134.75 124.804 149.714 143.199 149.714C161.594 149.714 176.554 134.75 176.554 116.35C176.554 97.9499 161.594 82.9856 143.199 82.9856Z" fill="#355389"/>
<path d="M128.807 133.529C125.77 127.225 123.158 121.234 123.243 114.447C123.328 109.365 126.366 105.986 131.39 105.645C142.773 104.821 154.128 105.333 165.511 105.56C167.612 105.588 167.271 106.923 166.817 108.115C165.54 111.523 163.127 114.192 161.083 117.117C157.705 121.944 152.709 122.796 147.457 123.136C145.555 123.25 143.682 123.136 141.78 123.449C136.869 124.301 133.235 126.97 130.454 130.973C129.999 131.683 129.545 132.422 128.807 133.529Z" fill="#E25A44"/>
<path d="M157.676 125.294C151.147 131.201 143.852 135.432 134.967 136.369C133.576 136.511 133.491 135.971 134.058 134.92C136.869 129.781 141.07 126.544 146.975 126.089C150.551 125.806 154.128 125.862 157.676 125.294Z" fill="#E25A44"/>
<path d="M144.704 95.8486L139.764 110.359L143.767 109.62L139.253 119.928L151.148 107.065L146.265 106.525L153.305 97.5807L144.704 95.8486Z" fill="white"/>
<path d="M211.242 172.235C220.277 163.198 220.277 148.545 211.242 139.508C202.207 130.47 187.559 130.47 178.524 139.508C169.489 148.545 169.489 163.198 178.524 172.235C187.559 181.273 202.207 181.273 211.242 172.235Z" fill="#C5DDF9"/>
<path d="M194.892 179.87C188.476 179.87 182.458 177.371 177.945 172.857C173.403 168.313 170.933 162.293 170.933 155.905C170.933 149.487 173.431 143.467 177.945 138.953C182.487 134.409 188.505 131.939 194.892 131.939C201.307 131.939 207.325 134.438 211.839 138.953C216.381 143.496 218.85 149.516 218.85 155.905C218.85 162.322 216.352 168.342 211.839 172.857C207.297 177.371 201.279 179.87 194.892 179.87ZM194.892 133.614C182.629 133.614 172.636 143.609 172.636 155.876C172.636 168.143 182.629 178.138 194.892 178.138C207.155 178.138 217.147 168.143 217.147 155.876C217.147 143.609 207.155 133.614 194.892 133.614Z" fill="#355389"/>
<path d="M205.234 166.283C210.966 160.55 210.966 151.255 205.234 145.522C199.503 139.789 190.211 139.789 184.479 145.522C178.748 151.255 178.748 160.55 184.479 166.283C190.211 172.016 199.503 172.016 205.234 166.283Z" fill="white"/>
<path d="M204.271 165.319C209.47 160.118 209.47 151.686 204.271 146.486C199.071 141.285 190.642 141.285 185.443 146.486C180.244 151.686 180.244 160.118 185.443 165.319C190.642 170.52 199.071 170.52 204.271 165.319Z" fill="#E25A44"/>
<path d="M196.283 147.017L193.615 146.989L193.53 154.57L185.95 154.598L185.979 157.268L193.501 157.239L193.416 164.792L196.113 164.821L196.198 157.239H203.749V154.542L196.226 154.57L196.283 147.017Z" fill="white"/>
<path d="M309.007 339.025C309.177 338.032 304.465 338.032 304.039 337.123C303.642 336.214 309.66 335.107 309.745 334.227C309.887 332.608 303.074 335.022 303.103 334.283C303.131 333.545 310.029 330.706 309.035 329.598C308.042 328.491 302.194 333.29 301.854 332.466C301.513 331.671 307.701 328.491 307.275 326.673C307.048 325.708 297.368 333.403 296.063 333.091C294.728 332.778 296.517 327.696 295.41 327.185C294.303 326.673 292.94 336.612 292.316 337.066C291.691 337.52 277.923 346.266 273.012 348.424C272.104 346.806 265.603 338.344 264.78 336.811C262.254 339.338 257.854 338.372 255.214 340.729C258.28 345.755 267.222 360.805 268.84 361.23C273.751 362.508 292.259 346.522 295.381 343.427C298.476 340.332 300.633 340.786 302.876 339.593C305.061 338.429 308.837 340.019 309.007 339.025Z" fill="#F7A491"/>
<path d="M267.818 339.735C267.818 339.735 260.863 321.023 256.52 316.622C252.177 312.249 242.837 312.277 240.027 317.133C237.217 322.017 255.214 344.562 255.214 344.562L267.818 339.735Z" fill="#244A41"/>
<path d="M243.348 327.241C250.416 327.099 249.621 313.413 249.621 313.413C250.246 313.47 250.785 313.526 251.154 313.612C250.785 313.526 250.246 313.47 249.621 313.413C246.925 313.186 244.739 311.113 244.313 308.415C244.001 306.456 243.774 304.298 244.001 302.821C244.54 299.471 235.314 301.657 235.314 301.657L234.094 309.636C233.753 311.965 231.993 313.81 229.722 314.322C229.751 314.35 236.28 327.383 243.348 327.241Z" fill="#F7A491"/>
<path d="M209.454 485.971C209.454 485.971 206.899 488.469 206.843 489.378C206.786 490.287 206.616 500.083 207.666 501.02C208.716 501.929 211.754 502.582 210.788 503.604C210.05 504.371 204.345 504.229 200.569 504.002C199.462 503.945 198.071 495.114 197.645 493.808C197.021 491.934 195.459 487.674 196.056 486.368C196.339 485.715 197.674 484.409 199.576 483.188C201.563 481.882 203.465 479.014 203.465 479.014L209.454 485.971Z" fill="#F48C7F"/>
<path d="M235.826 491.792C235.826 491.792 233.555 498.237 233.555 498.266C233.384 499.288 232.731 501.815 232.731 502.752C232.731 506.245 248.429 499.799 244.909 498.237C244.597 498.095 243.604 496.988 243.49 495.795C243.32 493.95 244.824 491.678 244.824 491.678L235.826 491.792Z" fill="#F7A491"/>
<path d="M260.465 371.51C260.465 371.51 263.247 382.754 263.247 382.924C263.247 401.665 265.291 438.579 264.581 442.1C262.878 450.675 244.398 494.489 244.398 494.489L234.406 493.297L241.304 446.303L231.794 413.932L235.882 378.012L260.465 371.51Z" fill="#EAB054"/>
<path d="M212.491 379.886L216.38 422.252L200.398 482.052C200.398 482.052 203.152 488.47 207.183 489.378L238.238 444.059L257.541 386.076L256.888 373.185L212.491 379.886Z" fill="#F7CC7F"/>
<path d="M199.66 483.103C199.66 483.103 205.536 499.686 207.836 500.481C208.432 500.679 211.384 501.219 211.923 502.525C212.094 502.923 211.923 504.229 211.923 504.229H199.689C199.689 504.229 198.156 496.931 197.531 493.723C197.531 493.723 194.295 485.886 194.664 485.176C195.005 484.466 199.66 483.103 199.66 483.103Z" fill="#50BFA5"/>
<path d="M231.823 503.888L233.612 498.181C233.612 498.181 237.387 499.771 239.289 499.515C241.191 499.26 244.853 498.181 244.853 498.181C252.375 500.679 258.564 501.872 257.428 503.888H231.823Z" fill="#50BFA5"/>
<path opacity="0.5" d="M244.03 302.85C244.569 299.499 235.343 301.686 235.343 301.686L235.201 302.679C235.457 303.333 235.797 303.9 236.195 304.326C238.239 306.541 241.475 307.876 244.257 307.989C243.973 306.172 243.802 304.213 244.03 302.85Z" fill="#F47458"/>
<path d="M233.838 284.876C233.583 284.79 231.454 299.84 234.917 303.56C238.38 307.308 246.158 307.393 248.599 304.44C251.268 301.175 250.416 286.239 245.023 282.405C239.629 278.572 233.838 284.876 233.838 284.876Z" fill="#F7A491"/>
<path d="M242.951 275.136C238.778 275.988 236.081 278.543 235.087 279.623C233.185 279.85 230.631 280.9 227.962 285.302C224.698 290.725 227.111 296.745 230.915 299.698C234.718 302.651 234.662 306.058 234.662 306.058L235.258 304.298C235.712 302.963 235.882 301.544 235.74 300.152C235.655 299.3 235.485 298.392 235.116 297.653C234.207 295.694 237.074 294.388 237.898 292.741C238.522 291.492 238.551 288.595 239.516 286.494L240.68 284.904C240.68 284.904 243.376 282.803 246.016 283.399C248.685 283.995 248.287 274.057 242.951 275.136Z" fill="#184655"/>
<path d="M237.727 295.155C237.756 296.802 236.989 298.165 236.052 298.193C235.087 298.221 234.292 296.887 234.264 295.212C234.236 293.565 235.002 292.202 235.939 292.173C236.904 292.173 237.699 293.508 237.727 295.155Z" fill="#F7A491"/>
<path d="M248.401 300.294L244.938 300.834C244.938 300.834 244.824 299.499 246.329 299.215C248.202 298.875 248.401 300.294 248.401 300.294Z" fill="white"/>
<path d="M255.185 319.404C253.425 315.77 251.495 313.697 251.495 313.697C251.126 313.583 250.473 313.47 249.622 313.413C249.622 313.413 250.416 327.071 243.348 327.241C236.28 327.383 229.751 314.35 229.751 314.35C227.962 314.747 225.975 315.202 224.726 315.571C224.726 315.571 218.538 316.735 216.863 325.992C215.188 335.249 212.066 370.004 211.839 377.188C211.668 382.413 219.673 386.985 230.773 389.001C233.441 389.711 236.876 390.222 241.077 390.08C242.127 390.108 243.178 390.137 244.256 390.108C256.576 389.966 260.976 386.474 262.481 384.401C262.736 384.287 262.992 384.174 263.247 384.032C263.247 384.032 263.219 383.719 263.162 383.18C263.219 383.009 263.247 382.924 263.247 382.924C263.247 382.924 272.274 348.85 255.185 319.404Z" fill="#327F6B"/>
<path d="M222.484 341.638C222.484 341.638 214.791 358.419 212.747 364.184C210.703 369.948 206.786 391.784 206.672 392.636C206.559 393.487 214.365 401.438 213.116 402.063C211.867 402.716 209.341 397.803 208.063 398.769C206.814 399.734 205.395 413.449 204.486 413.023C202.755 412.2 205.026 404.618 204.146 404.391C203.266 404.164 202.499 412.541 200.91 412.711C199.32 412.853 202.357 404.845 201.818 404.334C201.25 403.823 197.929 411.49 196.794 410.326C196.169 409.673 199.916 403.568 198.894 403.341C197.872 403.113 194.324 407.344 193.671 406.521C193.018 405.726 197.134 403.369 197.929 400.586C198.724 397.775 200.711 396.157 200.683 391.358C200.654 386.559 198.184 366.881 201.193 357.425C204.203 347.97 208.517 336.044 208.517 336.044L222.484 341.638Z" fill="#F7A491"/>
<path d="M202.329 344.364L217.601 354.558C217.601 354.558 225.351 341.893 229.808 337.464C235.4 331.927 227.764 314.975 224.187 315.94C216.154 318.098 202.329 344.364 202.329 344.364Z" fill="#244A41"/>
<path d="M126.081 315.855C123.952 310.744 121.795 305.604 116.26 303.02C111.803 300.919 107.119 301.714 103.173 304.696C91.9319 313.157 101.725 322.471 88.9229 338.514C84.9487 343.483 80.123 347.516 77.7385 353.365C74.4172 361.543 78.363 365.461 84.75 369.38C115.209 388.121 131.191 349.645 130.595 340.843C130.197 334.283 127.472 319.149 126.081 315.855Z" fill="#F7CC7F"/>
<path d="M157.705 415.522C156.428 415.324 153.305 413.08 152.198 412.882C151.346 412.711 149.501 412.456 148.706 412.314C147.741 408.707 143.71 386.758 143.171 380.994C142.575 374.775 137.295 350.156 137.295 350.156L125.883 352.229C125.883 352.229 130.624 372.958 131.93 383.01C133.065 391.642 142.518 411.064 143.739 413.109C143.739 413.165 143.739 413.194 143.739 413.251C143.909 416.289 145.385 415.295 145.385 415.295L147.77 415.891C147.77 415.891 156.201 416.715 156.768 416.914C157.336 417.141 158.982 415.721 157.705 415.522Z" fill="#F7A491"/>
<path d="M127.359 334.425C135.421 337.151 140.02 359.072 140.02 359.072C140.02 359.072 127.359 362.593 124.123 360.748C124.123 360.748 120.433 344.449 119.127 345.017L127.359 334.425Z" fill="#B75742"/>
<path d="M188.504 453.146C190.974 459.648 193.5 466.179 193.614 466.946C193.671 467.315 193.16 469.076 193.217 469.445C198.156 476.203 205.281 477.679 211.384 478.105C208.262 475.067 203.72 472.199 203.493 471.234C203.152 469.7 201.846 462.374 200.938 452.919C197.106 454.679 192.706 453.543 188.504 453.146Z" fill="#F7A491"/>
<path d="M117.396 386.701L108.652 411.291C108.652 411.291 126.167 414.585 132.696 415.778C139.253 416.97 175.816 418.589 176.753 419.214C177.434 419.696 184.985 444.145 188.363 457.604C192.195 458.456 198.752 457.434 202.244 456.241C200.37 436.961 193.955 406.123 191.372 403.085C180.358 390.108 117.396 386.701 117.396 386.701Z" fill="#13375B"/>
<path d="M160.6 466.406C161.792 473.25 163.439 480.121 163.41 480.888C163.41 481.257 162.559 482.904 162.53 483.273C166.136 490.826 172.835 493.637 178.768 495.199C176.27 491.621 172.324 487.958 172.296 486.965C172.239 485.403 172.068 478.474 172.523 468.905C168.463 469.899 164.631 467.599 160.6 466.406Z" fill="#F7A491"/>
<path d="M106.835 382.186L102.606 389.399C96.1618 400.387 101.101 414.528 112.967 419.157C113.024 419.185 113.08 419.214 113.166 419.242C119.382 421.656 155.008 430.06 155.774 430.884C156.37 431.48 159.209 456.922 160.004 470.779C163.609 472.313 170.223 472.568 173.885 472.029C175.645 452.72 174.935 420.52 173.119 416.97C166.306 403.738 106.835 382.186 106.835 382.186Z" fill="#355389"/>
<path d="M163.212 481.456C161.395 481.797 159.493 485.829 158.642 487.05C157.677 488.441 157.932 489.463 158.046 489.69C158.358 490.258 176.724 501.077 181.209 501.844C181.635 501.929 182.373 501.645 182.543 501.474C184.303 499.913 176.242 488.469 172.608 486.964C170.28 485.999 167.47 486.169 163.212 481.456Z" fill="#13375B"/>
<path d="M193.586 466.946C191.911 467.429 190.69 472.625 190.066 473.988C189.356 475.521 189.839 476.515 189.981 476.685C190.378 477.196 210.448 484.352 214.99 484.267C215.415 484.267 216.097 483.869 216.239 483.671C217.658 481.825 207.609 472.085 203.777 471.29C201.336 470.779 198.667 470.779 193.586 466.946Z" fill="#13375B"/>
<path d="M119.723 334.369C119.922 334.369 120.234 334.283 120.546 334.198C122.051 333.943 125.315 333.545 127.87 334.624C130.964 335.93 137.635 345.5 137.351 358.05C137.238 359.981 140.048 368.982 140.048 375.797C140.048 382.612 138.487 389.228 138.345 389.313C134.655 391.699 104.763 390.478 103.23 388.462C101.697 386.445 101.555 357.34 100.817 356.119L99.3413 334.709C101.896 333.914 115.749 334.34 119.723 334.369Z" fill="#F47458"/>
<path d="M110.696 326.475C110.696 326.475 112.144 333.914 111.831 336.839C111.547 339.764 112.938 349.219 119.127 349.248C125.315 349.276 121.256 337.038 120.66 334.17C120.063 331.302 119.666 322.84 119.666 322.84L110.696 326.475Z" fill="#F7A491"/>
<path d="M119.865 326.021C119.78 323.579 119.013 322.585 119.013 322.585L110.696 326.446C110.696 326.446 110.98 327.951 111.292 329.911C114.925 330.649 118.814 328.349 119.865 326.021Z" fill="#F47458"/>
<path d="M107.659 305.973C107.659 305.973 104.451 307.762 103.287 311.596C102.123 315.457 103.457 325.396 111.718 327.781C120.007 330.166 123.584 322.301 121.88 316.139C120.149 310.005 116.459 302.225 107.659 305.973Z" fill="#F7A491"/>
<path d="M122.902 313.782C122.732 315.429 121.824 316.707 120.859 316.593C119.893 316.48 119.24 315.088 119.411 313.441C119.581 311.794 120.49 310.517 121.455 310.63C122.42 310.715 123.073 312.135 122.902 313.782Z" fill="#F7A491"/>
<path d="M108.624 305.462C108.624 305.462 107.12 316.565 103.543 318.552C99.966 320.54 101.471 325.481 101.471 325.481C101.471 325.481 98.2061 314.066 101.045 310.375C103.855 306.712 108.624 305.462 108.624 305.462Z" fill="#F7CC7F"/>
<path d="M105.643 320.143C106.608 321.591 106.608 323.295 105.643 323.948C104.678 324.601 103.088 323.976 102.123 322.528C101.158 321.08 101.158 319.376 102.123 318.723C103.088 318.07 104.678 318.723 105.643 320.143Z" fill="#F7A491"/>
<path d="M114.074 323.664L118.133 322.869C118.133 322.869 117.48 322.017 116.004 322.215C114.244 322.499 114.074 323.664 114.074 323.664Z" fill="white"/>
<path d="M63.0345 413.307C63.148 413.052 63.3751 413.023 63.6022 413.023C65.9015 412.967 68.2293 412.853 70.5002 412.512C70.8692 412.456 71.2667 412.37 71.6073 412.228C72.2318 411.973 72.8847 411.973 73.5092 412.172C73.8499 412.257 74.2189 412.285 74.5595 412.285C75.7234 412.285 79.0163 411.149 80.7195 410.865C81.1169 410.809 81.4292 410.496 81.5143 410.127C83.1892 403.511 86.7659 388.66 87.2485 383.776C87.8446 377.529 92.1594 349.361 92.1594 349.361L103.685 352.57C103.685 352.57 102.549 373.497 99.7387 383.578C97.6381 391.131 90.9104 407.458 87.362 412.683C85.5737 416.005 82.5363 416.118 81.9117 416.175C81.5711 416.232 81.2305 416.402 81.0034 416.658C80.5776 417.141 80.095 417.567 79.5556 417.936C79.1582 418.191 78.8176 418.532 78.5621 418.93C78.0795 419.639 77.6253 420.406 77.1995 421.144C76.9156 421.656 76.6034 421.798 76.1776 421.684C75.7234 421.57 75.4963 421.23 75.4963 420.662C75.4963 419.838 75.7802 419.1 76.1776 418.39C76.575 417.737 76.5466 417.339 76.0924 416.743C75.8369 416.402 75.5531 416.062 75.2124 415.778C74.8718 415.494 74.5028 415.295 74.0202 415.352C73.197 415.551 72.3454 415.721 71.4938 415.835L70.7841 415.977C70.7557 415.977 70.415 416.062 70.415 416.062C70.3583 416.09 69.1376 416.204 68.7118 416.204C68.3712 416.204 67.8318 416.232 67.3493 416.26C66.9235 416.289 66.0435 416.062 66.0151 416.062C65.6177 416.062 65.2486 415.891 64.9364 415.636C64.8228 415.522 64.6809 415.409 64.7661 415.21C64.8228 415.039 64.9648 414.954 65.1351 414.926C65.419 414.869 66.8383 414.699 66.8383 414.642C66.4125 414.642 65.0783 414.614 64.6525 414.585C64.0848 414.557 63.5738 414.358 63.1764 413.932C63.1196 413.733 62.9209 413.591 63.0345 413.307Z" fill="#F7A491"/>
<path d="M99.1709 334.624C93.4651 333.602 88.7812 359.073 88.7812 359.073C88.7812 359.073 101.442 362.594 104.678 360.748C104.678 360.748 108.368 344.449 109.674 345.017L99.1709 334.624Z" fill="#F47458"/>
</svg>
