<svg width="511" height="368" viewBox="0 0 511 368" fill="none" xmlns="http://www.w3.org/2000/svg">
<path d="M45.5657 366.719C45.5657 366.719 -41.2084 292.644 24.7588 222.436C94.9984 147.679 32.7697 51.7111 128.11 12.9866C231.184 -28.8777 257.695 44.8547 300.847 33.5343C386.916 10.9574 496.078 22.0643 477.898 131.766C455.105 269.448 548.651 251.891 493.087 367.188L45.5657 366.719Z" fill="#D0E5F3"/>
<path d="M300.826 143.599C300.826 143.599 315.224 82.5752 363.824 75.847C363.824 75.847 373.288 74.6936 376.428 85.0956C379.568 95.4976 360.791 95.583 349.169 99.7694C337.527 103.956 310.439 121.705 300.826 143.599Z" fill="#B6CBFB"/>
<path d="M299.715 132.193C299.715 132.193 294.674 81.6354 330.114 63.6936C330.114 63.6936 337.057 60.3188 342.205 67.4528C347.353 74.5868 332.976 79.6063 325.179 85.8645C317.403 92.1442 301.317 112.884 299.715 132.193Z" fill="#B6CBFB"/>
<g opacity="0.8">
<path opacity="0.8" d="M190.467 179.376C190.467 179.376 211.295 167.714 201.575 151.865C201.575 151.865 193.8 142.146 185.468 139.647C185.468 139.647 189.912 163.271 185.468 163.826C181.025 164.381 182.413 137.148 182.413 137.148C182.413 137.148 160.453 126.597 151.844 127.43C151.844 127.43 165.452 150.498 161.008 149.943C156.565 149.387 141.291 126.041 141.291 126.041C141.291 126.041 118.775 121.855 115.164 135.205C111.554 148.533 117.386 155.197 120.719 156.03C124.051 156.863 145.456 156.585 144.901 159.362C144.346 162.139 129.905 166.581 121.83 164.082C121.83 164.082 130.716 186.04 142.38 184.908C154.044 183.797 157.654 176.578 164.896 176.022C172.117 175.467 177.393 177.411 173.783 179.354C170.173 181.298 157.953 179.995 152.1 184.951C146.268 189.906 141.547 192.96 152.378 195.182C163.209 197.403 182.67 196.015 186.558 187.685C190.467 179.376 190.467 179.376 190.467 179.376Z" fill="#AEC3FF"/>
<g opacity="0.8">
<path opacity="0.8" d="M125.461 139.37C125.461 139.37 183.802 158.251 190.488 179.376C190.488 179.376 190.21 188.817 196.042 199.646V203.811C196.042 203.811 189.933 189.65 186.6 187.706C186.579 187.706 199.631 169.358 125.461 139.37Z" fill="#AEC3FF"/>
<path opacity="0.8" d="M196.021 199.646C196.021 199.646 205.015 213.316 199.888 229.933L197.581 229.314C197.581 229.314 199.824 210.988 195.124 201.782C190.403 192.576 196.021 199.646 196.021 199.646Z" fill="#AEC3FF"/>
</g>
</g>
<g opacity="0.5">
<path opacity="0.5" d="M202.046 273.57C202.046 273.57 215.696 232.667 183.482 223.333C183.482 223.333 161.286 219.809 147.101 226.58C147.101 226.58 181.73 252.724 176.475 258.854C171.22 265.005 139.988 226.943 139.988 226.943C139.988 226.943 97.8397 239.502 87.3507 251.079C87.3507 251.079 133.536 265.326 126.935 269.982C120.334 274.638 71.5639 262.079 71.5639 262.079C71.5639 262.079 36.4441 283.844 47.8302 306.037C59.2164 328.229 75.1101 330.044 80.5575 327.118C86.0262 324.171 114.246 297.835 116.895 302.213C119.523 306.592 105.637 330.087 91.8368 336.538C91.8368 336.538 130.375 355.056 144.602 339.379C158.829 323.722 154.877 309.689 163.85 300.163C172.822 290.637 182.243 286.835 179.765 293.819C177.286 300.804 159.385 313.897 157.633 327.61C155.86 341.322 153.275 351.148 170.451 340.938C187.626 330.749 211.915 305.268 206.98 289.419C202.046 273.57 202.046 273.57 202.046 273.57Z" fill="#91AEEF"/>
<g opacity="0.5">
<path opacity="0.5" d="M66.6074 299.116C66.6074 299.116 167.481 253.471 202.045 273.57C202.045 273.57 213.795 287.967 206.98 289.419C206.98 289.419 202.131 249.071 66.6074 299.116Z" fill="#D2E0FF"/>
</g>
</g>
<path d="M351.22 277.949C351.22 277.949 355.236 253.493 374.142 257.38C374.142 257.38 386.383 261.524 391.766 268.786C391.766 268.786 367.156 272.801 368.182 277.33C369.207 281.858 395.291 270.879 395.291 270.879C395.291 270.879 413.342 288.565 415.585 297.258C415.585 297.258 388.263 292.132 390.377 296.275C392.492 300.419 420.669 307.083 420.669 307.083C420.669 307.083 432.696 327.567 420.947 335.811C409.219 344.056 400.631 340.703 398.645 337.755C396.658 334.786 389.352 313.833 386.853 315.349C384.332 316.866 385.101 332.543 390.399 339.528C390.399 339.528 365.832 338.61 362.799 326.841C359.765 315.072 365.533 308.984 363.525 301.743C361.517 294.502 357.757 290.038 357.138 294.246C356.518 298.454 362.115 309.924 359.338 317.378C356.561 324.833 355.236 330.514 349.255 320.732C343.252 310.949 337.74 291.469 344.491 284.741C351.22 277.949 351.22 277.949 351.22 277.949Z" fill="#BBD0FF"/>
<path d="M413.235 327.246C413.235 327.246 374.163 276.988 351.22 277.949C351.22 277.949 342.098 281.559 329.473 279.7L325.414 281.174C325.414 281.174 341.393 282.135 344.469 284.699C344.469 284.677 357.735 265.454 413.235 327.246Z" fill="#BBD0FF"/>
<path d="M329.451 279.679C329.451 279.679 312.938 275.728 298.519 286.621L299.95 288.65C299.95 288.65 317.04 279.978 327.678 281.324C338.338 282.669 329.451 279.679 329.451 279.679Z" fill="#BBD0FF"/>
<path d="M343.871 176.663C343.871 176.663 318.407 162.395 330.285 143.043C330.285 143.043 339.791 131.168 349.981 128.092C349.981 128.092 344.555 156.948 349.981 157.632C355.407 158.315 353.719 125.038 353.719 125.038C353.719 125.038 380.551 112.136 391.082 113.162C391.082 113.162 374.441 141.356 379.867 140.673C385.293 139.989 403.985 111.474 403.985 111.474C403.985 111.474 431.5 106.391 435.922 122.688C440.344 138.985 433.209 147.144 429.129 148.148C425.049 149.174 398.901 148.832 399.585 152.228C400.268 155.624 417.935 161.049 427.783 157.995C427.783 157.995 416.91 184.822 402.639 183.455C388.369 182.088 383.969 173.267 375.125 172.583C366.302 171.9 359.85 174.271 364.251 176.663C368.673 179.034 383.605 177.432 390.741 183.498C397.876 189.564 403.643 193.302 390.399 196.015C377.154 198.727 353.378 197.04 348.614 186.851C343.871 176.663 343.871 176.663 343.871 176.663Z" fill="#B6CBFB"/>
<path d="M423.361 127.75C423.361 127.75 352.032 150.84 343.893 176.642C343.893 176.642 344.235 188.197 337.1 201.44V206.545C337.1 206.545 344.576 189.222 348.657 186.851C348.635 186.851 332.678 164.424 423.361 127.75Z" fill="#B6CBFB"/>
<path d="M337.078 201.44C337.078 201.44 326.076 218.143 332.357 238.477L335.177 237.708C335.177 237.708 332.421 215.323 338.189 204.046C343.957 192.789 337.078 201.44 337.078 201.44Z" fill="#B6CBFB"/>
<path d="M363.418 106.028H173.015V366.377H363.418V106.028Z" fill="#739AF0"/>
<path d="M355.301 113.055H181.133V359.2H355.301V113.055Z" fill="#F3FAFF"/>
<path d="M232.104 106.028V114.892C232.104 119.783 236.077 123.756 240.969 123.756H288.564C293.456 123.756 297.43 119.783 297.43 114.892V106.028H232.104Z" fill="#2B478B"/>
<path d="M222.896 324.363H201.342V326.541H222.896V324.363Z" fill="#AEC3FF"/>
<path d="M249.429 324.363H227.874V326.541H249.429V324.363Z" fill="#AEC3FF"/>
<path d="M231.228 329.19H201.342V331.369H231.228V329.19Z" fill="#AEC3FF"/>
<path d="M226.379 142.787H234.262C236.462 142.787 238.15 143.407 239.282 144.539C240.243 145.5 240.756 146.845 240.756 148.533C240.756 151.31 239.26 153.061 237.06 153.873L241.268 160.024H236.825L233.087 154.513H230.16V160.024H226.357V142.787H226.379ZM234.005 151.181C235.864 151.181 236.91 150.199 236.91 148.682C236.91 147.059 235.778 146.226 233.92 146.226H230.139V151.181H234.005Z" fill="#8C9DF4"/>
<path d="M243.917 152.655V142.787H247.719V152.548C247.719 155.368 249.129 156.82 251.437 156.82C253.744 156.82 255.154 155.411 255.154 152.677V142.787H258.956V152.527C258.956 157.76 256.029 160.323 251.394 160.323C246.758 160.323 243.917 157.717 243.917 152.655Z" fill="#8C9DF4"/>
<path d="M262.823 142.787H266.626V156.585H275.235V160.046H262.845V142.787H262.823Z" fill="#8C9DF4"/>
<path d="M278.098 142.787H291.107V146.162H281.857V149.665H289.996V153.04H281.857V156.671H291.214V160.046H278.076V142.787H278.098Z" fill="#8C9DF4"/>
<path d="M293.414 157.525L295.657 154.834C297.217 156.115 298.84 156.927 300.805 156.927C302.365 156.927 303.305 156.308 303.305 155.261C303.305 154.3 302.707 153.809 299.823 153.061C296.341 152.164 294.098 151.203 294.098 147.743C294.098 144.603 296.618 142.552 300.143 142.552C302.664 142.552 304.8 143.343 306.552 144.752L304.587 147.614C303.048 146.546 301.553 145.906 300.1 145.906C298.648 145.906 297.879 146.568 297.879 147.465C297.879 148.597 298.626 148.96 301.596 149.729C305.099 150.647 307.065 151.908 307.065 154.962C307.065 158.379 304.458 160.302 300.72 160.302C298.135 160.28 295.486 159.383 293.414 157.525Z" fill="#8C9DF4"/>
<path d="M313.494 164.104H219.927V165.321H313.494V164.104Z" fill="#8C9DF4"/>
<path d="M337.868 204.516H306.358V173.032H337.868V204.516ZM307.854 203.042H336.394V174.506H307.854V203.042Z" fill="#AFCDFB"/>
<path d="M322.915 198.193C322.252 198.193 321.633 197.894 321.206 197.382L311.486 185.634C310.695 184.694 310.845 183.284 311.785 182.494C312.725 181.704 314.135 181.853 314.925 182.793L322.637 192.127L336.587 168.717C337.206 167.671 338.573 167.308 339.642 167.948C340.688 168.568 341.051 169.935 340.411 171.003L324.859 197.125C324.496 197.745 323.833 198.151 323.107 198.215C323.022 198.193 322.957 198.193 322.915 198.193Z" fill="#F99746"/>
<path d="M282.069 177.667H212.086V180.743H282.069V177.667Z" fill="#AEC3FF"/>
<path d="M276.579 191.401H212.086V194.477H276.579V191.401Z" fill="#AEC3FF"/>
<path d="M282.07 184.545H262.993V187.62H282.07V184.545Z" fill="#AEC3FF"/>
<path d="M257.695 184.545H212.086V187.62H257.695V184.545Z" fill="#AEC3FF"/>
<path d="M196.406 180.422L193.266 181.298L192.625 178.82L197.303 177.325H199.44V194.84H196.406V180.422Z" fill="#AEC3FF"/>
<path d="M201.448 193.729C201.448 193.11 201.94 192.618 202.559 192.618C203.179 192.618 203.67 193.11 203.67 193.729C203.67 194.349 203.179 194.84 202.559 194.84C201.94 194.818 201.448 194.327 201.448 193.729Z" fill="#AEC3FF"/>
<path d="M338.125 251.57H306.615V220.065H338.125V251.57ZM308.111 250.096H336.651V221.56H308.111V250.096Z" fill="#AFCDFB"/>
<path d="M323.15 245.248C322.488 245.248 321.868 244.949 321.441 244.436L311.721 232.689C310.931 231.749 311.08 230.339 312.02 229.549C312.96 228.758 314.37 228.908 315.161 229.848L322.872 239.182L336.822 215.772C337.442 214.725 338.809 214.362 339.877 215.003C340.924 215.622 341.287 216.989 340.646 218.057L325.094 244.18C324.731 244.799 324.069 245.205 323.342 245.269C323.257 245.248 323.214 245.248 323.15 245.248Z" fill="#F99746"/>
<path d="M192.497 239.481L198.436 234.419C200.807 232.411 201.662 231.3 201.662 229.762C201.662 228.054 200.444 227.071 198.863 227.071C197.282 227.071 196.193 227.925 194.868 229.656L192.732 227.968C194.377 225.64 196.022 224.337 199.098 224.337C202.473 224.337 204.802 226.409 204.802 229.549C204.802 232.261 203.349 233.714 200.316 236.234L196.77 239.203H204.994V241.873H192.518V239.481H192.497Z" fill="#AEC3FF"/>
<path d="M207.045 240.784C207.045 240.186 207.536 239.694 208.134 239.694C208.733 239.694 209.224 240.186 209.224 240.784C209.224 241.382 208.733 241.873 208.134 241.873C207.536 241.873 207.045 241.382 207.045 240.784Z" fill="#AEC3FF"/>
<path d="M286.193 224.722H212.663V227.797H286.193V224.722Z" fill="#AEC3FF"/>
<path d="M280.425 238.456H212.663V241.531H280.425V238.456Z" fill="#AEC3FF"/>
<path d="M286.192 231.578H266.154V234.654H286.192V231.578Z" fill="#AEC3FF"/>
<path d="M260.6 231.578H212.663V234.654H260.6V231.578Z" fill="#AEC3FF"/>
<path d="M338.124 298.967H306.614V267.462H338.124V298.967ZM308.11 297.493H336.65V268.957H308.11V297.493Z" fill="#AFCDFB"/>
<path d="M323.149 292.644C322.487 292.644 321.867 292.345 321.44 291.833L311.72 280.085C310.93 279.145 311.079 277.735 312.019 276.945C312.959 276.155 314.369 276.304 315.16 277.244L322.871 286.578L336.821 263.168C337.441 262.122 338.808 261.759 339.876 262.399C340.923 263.019 341.286 264.386 340.645 265.454L325.093 291.576C324.73 292.196 324.068 292.601 323.341 292.666C323.256 292.644 323.213 292.644 323.149 292.644Z" fill="#F99746"/>
<path d="M286.193 272.118H212.663V275.194H286.193V272.118Z" fill="#AEC3FF"/>
<path d="M280.425 285.852H212.663V288.928H280.425V285.852Z" fill="#AEC3FF"/>
<path d="M286.192 278.974H266.154V282.05H286.192V278.974Z" fill="#AEC3FF"/>
<path d="M260.6 278.974H212.663V282.05H260.6V278.974Z" fill="#AEC3FF"/>
<path d="M192.283 286.151L194.355 284.229C195.573 285.66 196.919 286.45 198.799 286.45C200.465 286.45 201.725 285.446 201.725 283.844C201.725 282.178 200.209 281.238 197.837 281.238H196.47L195.979 279.38L200.55 274.532H193.245V271.947H204.417V274.168L199.717 278.996C202.388 279.38 204.695 280.747 204.695 283.801C204.695 286.92 202.281 289.141 198.777 289.141C195.808 289.12 193.714 287.881 192.283 286.151Z" fill="#AEC3FF"/>
<path d="M205.528 288.031C205.528 287.433 206.02 286.963 206.596 286.963C207.195 286.963 207.665 287.454 207.665 288.031C207.665 288.607 207.173 289.099 206.596 289.099C205.998 289.12 205.528 288.629 205.528 288.031Z" fill="#AEC3FF"/>
<path d="M281.023 331.326C274.7 331.326 269.188 326.841 267.928 320.668C267.821 320.176 268.141 319.685 268.633 319.578C269.124 319.472 269.615 319.792 269.722 320.283C270.812 325.623 275.554 329.489 281.023 329.489C286.428 329.489 291.17 325.666 292.302 320.39C292.409 319.899 292.901 319.578 293.392 319.685C293.883 319.792 294.204 320.283 294.097 320.775C292.772 326.883 287.282 331.326 281.023 331.326Z" fill="#AEC3FF"/>
<path d="M268.826 316.503C268.762 316.503 268.719 316.503 268.655 316.481C268.164 316.396 267.843 315.905 267.929 315.413C269.146 309.155 274.658 304.605 281.045 304.605C287.176 304.605 292.517 308.749 294.012 314.708C294.141 315.2 293.842 315.691 293.35 315.819C292.859 315.947 292.368 315.648 292.239 315.157C290.958 310.031 286.343 306.442 281.045 306.442C275.534 306.442 270.77 310.372 269.723 315.776C269.638 316.182 269.253 316.503 268.826 316.503Z" fill="#AEC3FF"/>
<path d="M281.023 336.943C270.556 336.943 262.032 328.421 262.032 317.955C262.032 307.489 270.556 298.967 281.023 298.967C291.491 298.967 300.015 307.489 300.015 317.955C300.015 328.421 291.512 336.943 281.023 336.943ZM281.023 301.572C271.987 301.572 264.638 308.92 264.638 317.955C264.638 326.99 271.987 334.338 281.023 334.338C290.06 334.338 297.408 326.99 297.408 317.955C297.43 308.92 290.081 301.572 281.023 301.572Z" fill="#AEC3FF"/>
<path d="M284.783 315.584H277.264V316.78H284.783V315.584Z" fill="#AEC3FF"/>
<path d="M284.783 320.497H277.264V321.693H284.783V320.497Z" fill="#AEC3FF"/>
<path d="M286.556 317.955H275.49V319.151H286.556V317.955Z" fill="#AEC3FF"/>
<path d="M157.805 236.298C157.805 236.298 158.403 234.974 158.787 234.333C159.172 233.692 160.817 231.856 161.094 232.283C161.372 232.71 162.483 235.508 161.885 236.298C161.287 237.089 161.928 238.456 158.98 239.289L157.805 236.298Z" fill="#FFB27D"/>
<path d="M125.1 227.904C125.1 227.904 140.181 240.485 146.056 239.31C150.649 238.392 157.699 235.978 157.699 235.978L159.109 239.588C159.109 239.588 152.785 248.174 146.184 248.217C135.866 248.302 128.261 243.753 128.261 243.753L125.1 227.904Z" fill="#6980E2"/>
<path d="M98.6523 360.588C98.6523 360.588 99.0796 367.637 100.447 367.744C100.639 367.765 107.368 367.765 107.368 367.765L115.977 367.722C115.977 367.722 115.913 365.651 113.414 365.202C110.893 364.753 106.685 363.002 105.168 359.67C103.566 356.167 98.6523 360.588 98.6523 360.588Z" fill="#1C4B8E"/>
<path d="M98.1613 361.08C98.1613 361.08 100.789 361.955 102.818 361.955C105.104 361.955 107.176 361.336 107.176 361.336C107.176 361.336 107.668 356.573 110.381 346.064C111.812 340.553 113.841 333.483 116.725 324.705C124.715 300.398 127.15 286.194 127.364 284.848C127.385 284.784 127.385 284.741 127.385 284.741L127.364 284.72L102.818 273.933C102.818 273.933 105.852 307.425 101.985 320.283C101.451 322.077 100.981 324.171 100.575 326.435C98.0972 340.425 98.1613 361.08 98.1613 361.08Z" fill="#FFA561"/>
<path d="M110.38 346.085C111.811 340.575 113.841 333.505 116.725 324.726C124.714 300.419 127.15 286.215 127.363 284.869C127.363 284.827 127.363 284.784 127.363 284.741L102.818 273.955C102.818 273.955 105.851 307.446 101.985 320.305C101.408 322.099 110.38 346.085 110.38 346.085Z" fill="#F4904D"/>
<path d="M117.836 360.588C117.836 360.588 118.263 367.637 119.63 367.744C119.823 367.765 126.552 367.765 126.552 367.765L135.161 367.722C135.161 367.722 135.097 365.651 132.597 365.202C130.077 364.753 125.868 363.002 124.351 359.67C122.749 356.167 117.836 360.588 117.836 360.588Z" fill="#1C4B8E"/>
<path d="M131.743 274.745C131.743 274.745 132.063 296.446 128.303 323.081C124.543 349.716 125.825 361.037 125.825 361.037C125.825 361.037 123.24 361.87 122.194 361.955C119.545 362.169 116.832 361.336 116.832 361.336C116.832 361.336 111.448 334.679 113.008 321.351C114.546 308.023 105.638 275.6 105.638 275.6L131.743 274.745Z" fill="#FFA561"/>
<path d="M114.332 223.953L119.117 227.092L123.475 225.854C124.266 224.722 124.479 222.522 124.501 220.621C124.522 218.741 124.33 217.139 124.33 217.139L117.857 214.277L115.443 213.209C115.443 213.252 115.635 215.195 115.657 215.473C116.126 220.535 114.332 223.953 114.332 223.953Z" fill="#FFB27D"/>
<path d="M131.871 280.768C125.911 286.535 103.331 285.553 101.942 279.209C100.554 272.865 103.459 225.191 113.649 222.201C115.764 221.582 127.065 225.234 127.065 225.234C127.065 225.234 128.838 229.869 130.013 235.786C130.248 236.939 130.888 249.114 131.401 260.52C131.636 265.86 131.828 271.007 131.935 274.788C131.978 278.333 131.999 280.64 131.871 280.768Z" fill="#8C9DF4"/>
<path d="M116.17 215.58C117.473 217.801 122.088 219.745 124.523 220.621C124.544 218.741 124.352 217.139 124.352 217.139L117.879 214.277C116.448 214.277 115.594 214.597 116.17 215.58Z" fill="#FCA56B"/>
<path d="M126.787 216.755C126.787 216.755 116.362 220.001 114.44 213.487C112.517 206.972 109.868 202.999 116.448 200.65C123.027 198.3 125.057 200.393 126.232 202.422C127.407 204.43 129.458 215.751 126.787 216.755Z" fill="#FFB27D"/>
<path d="M125.826 201.803C125.826 201.803 125.163 209.386 123.583 209.065C122.023 208.745 120.293 208.04 120.506 210.325C120.741 212.611 118.99 216.541 116.725 216.52C111.876 216.498 106.599 204.046 107.924 201.696C111.769 194.861 131.358 193.473 125.826 201.803Z" fill="#163560"/>
<path d="M124.288 222.372C124.16 222.308 116.533 218.89 115.636 219.189C114.739 219.489 113.628 222.201 113.628 222.201L127.044 225.234C127.065 225.234 125.997 223.098 124.288 222.372Z" fill="#6980E2"/>
<path d="M171.734 259.302L129.009 299.522C128.176 300.312 127.108 300.569 126.659 300.077L125.206 298.539C124.758 298.048 125.057 297.023 125.911 296.233L168.636 256.013C169.469 255.223 170.538 254.966 170.986 255.458L172.439 256.996C172.887 257.465 172.567 258.512 171.734 259.302Z" fill="#1F4D84"/>
<path d="M147.765 281.858L129.009 299.501C128.176 300.291 127.108 300.547 126.659 300.056L125.206 298.518C124.758 298.027 125.057 297.002 125.911 296.211L144.668 278.568L147.765 281.858Z" fill="#739AF0"/>
<path d="M161.907 244.116C163.552 249.52 166.586 254.582 170.986 258.726C184.466 271.392 205.658 270.751 218.326 257.273C230.823 243.988 230.374 223.184 217.407 210.454C217.236 210.283 217.065 210.112 216.873 209.941C203.415 197.275 182.223 197.916 169.534 211.372C161.032 220.45 158.532 233.009 161.907 244.116ZM171.499 213.209C178.869 205.37 189.38 202.252 199.249 203.96C204.995 204.964 210.528 207.591 215.1 211.885C227.511 223.547 228.11 243.069 216.424 255.479C212.131 260.05 206.769 263.019 201.086 264.364C191.345 266.671 180.664 264.194 172.824 256.825C160.412 245.12 159.814 225.619 171.499 213.209Z" fill="#1F4D84"/>
<g opacity="0.5">
<path opacity="0.5" d="M216.424 255.479C212.13 260.05 206.768 263.019 201.086 264.364C191.345 266.671 180.663 264.194 172.823 256.825C160.412 245.162 159.814 225.64 171.499 213.23C178.869 205.391 189.379 202.273 199.249 203.982C204.995 204.986 210.528 207.613 215.1 211.906C227.49 223.547 228.088 243.069 216.424 255.479Z" fill="#B3CFF9"/>
</g>
<path d="M131.893 274.788C108.351 258.021 110.317 235.636 110.317 235.636C118.926 240.485 127.449 251.207 131.38 260.52C131.594 265.838 131.786 271.007 131.893 274.788Z" fill="#6980E2"/>
<path d="M155.134 267.141C156.801 266.757 157.912 265.497 158.147 265.283C158.147 265.283 158.851 265.326 158.04 266.842C157.976 266.97 157.826 267.291 157.698 267.526C157.655 267.611 157.719 267.718 157.826 267.739C158.787 267.803 159.749 267.44 161.586 267.825C161.842 267.867 161.906 268.487 161.906 268.743C161.885 269.192 161.928 269.683 161.415 270.345C161.116 270.73 160.283 271.157 158.446 271.904C157.741 272.182 155.733 271.969 153.853 271.328L152.336 270.623L152.806 267.825L153.19 267.91C153.767 268.038 154.494 267.312 155.134 267.141Z" fill="#FFB27D"/>
<path d="M117.622 225.234C117.622 225.234 96.4732 229.271 123.838 259.879C128.218 264.77 151.866 271.157 151.866 271.157C151.866 271.157 154.259 269.106 153.062 267.462C153.062 267.462 136.784 255.629 133.195 253.749C131.593 252.895 126.936 234.867 124.308 230.531C121.681 226.217 117.622 225.234 117.622 225.234Z" fill="#8C9DF4"/>
<path d="M158.382 236.661C158.382 236.661 159.065 235.337 159.215 234.632C159.343 233.927 160.219 231.898 160.582 231.535C160.732 231.386 161.202 231.578 161.266 232.197C161.287 232.475 161.159 232.945 160.924 233.543C160.539 234.483 160.604 235.764 160.475 236.192C160.134 237.281 158.382 236.661 158.382 236.661Z" fill="#FFB27D"/>
<path d="M228.258 357.79C228.258 358.153 228.279 358.516 228.322 358.858C228.45 359.969 228.792 361.016 229.305 361.977C229.71 362.724 230.202 363.386 230.8 363.963C232.381 365.544 234.56 366.526 236.974 366.526H359.701C364.529 366.526 368.438 362.617 368.438 357.812C368.438 355.398 367.455 353.219 365.875 351.639C364.294 350.058 362.115 349.076 359.701 349.076H236.974C232.167 349.054 228.258 352.963 228.258 357.79Z" fill="#2B478B"/>
<path d="M237.614 347.474H279.698C280.425 347.474 281.044 346.876 281.044 346.128C281.044 345.402 280.446 344.782 279.698 344.782H237.614C236.888 344.782 236.269 345.38 236.269 346.128C236.269 346.876 236.867 347.474 237.614 347.474Z" fill="#2B478B"/>
<path d="M239.919 349.056H244.49V347.475H239.919V349.056Z" fill="#233862"/>
<path d="M229.305 361.955C229.711 362.703 230.202 363.365 230.8 363.942C232.381 365.522 234.56 366.505 236.974 366.505H262.972V361.955H229.305Z" fill="#233862"/>
<path d="M384.695 355.227V360.332C384.695 360.887 384.609 361.443 384.481 361.955C383.776 364.582 381.384 366.505 378.521 366.505H250.667C247.826 366.505 245.412 364.582 244.707 361.955C244.557 361.443 244.493 360.887 244.493 360.332V355.227C244.493 351.81 247.249 349.054 250.667 349.054H378.521C381.918 349.054 384.695 351.81 384.695 355.227Z" fill="#F99746"/>
<path d="M384.46 361.955C383.755 364.582 381.362 366.505 378.5 366.505H250.646C247.804 366.505 245.391 364.582 244.686 361.955H384.46Z" fill="#EF873A"/>
<path d="M371.984 357.812C371.984 360.524 372.967 362.938 374.526 364.54C374.569 364.582 374.591 364.604 374.633 364.647C375.83 365.843 377.346 366.569 379.013 366.569C381.597 366.569 388.006 362.66 392.001 360.076C393.988 358.773 395.355 357.812 395.355 357.812C395.355 357.812 393.988 356.85 392.001 355.547C388.028 352.963 381.619 349.054 379.013 349.054C378.265 349.054 377.539 349.204 376.855 349.46C375.723 349.909 374.697 350.742 373.886 351.788C373.01 352.963 372.369 354.415 372.113 356.06C372.113 356.081 372.113 356.103 372.113 356.124C372.027 356.68 371.984 357.235 371.984 357.812Z" fill="#8C9DF4"/>
<path d="M371.984 357.812C371.984 360.524 372.967 362.938 374.526 364.54L394.201 357.769L372.113 356.124C372.027 356.68 371.984 357.235 371.984 357.812Z" fill="#6980E2"/>
<path d="M373.907 351.81L393.539 357.171L376.877 349.481C375.723 349.93 374.698 350.742 373.907 351.81Z" fill="#9FB1FF"/>
<path d="M390.698 357.812C390.698 358.858 391.232 359.734 391.98 360.076C393.967 358.773 395.334 357.812 395.334 357.812C395.334 357.812 393.967 356.85 391.98 355.547C391.232 355.889 390.698 356.765 390.698 357.812Z" fill="#182D4C"/>
<path d="M425.519 198.279C422.271 196.591 419.665 197.659 419.665 197.659C409.71 196.485 406.805 208.083 406.955 212.077C407.083 216.071 407.553 220.364 403.109 225.533C390.271 240.506 417.144 241.168 417.144 241.168C417.379 229.207 431.714 233.564 431.094 234.782C449.487 239.203 432.91 202.123 425.519 198.279Z" fill="#163560"/>
<path d="M387.152 245.782C387.152 245.782 385.4 243.112 383.99 243.069C382.58 243.027 379.974 242.279 380.188 242.813C380.401 243.326 382.025 243.39 382.174 243.71C382.324 244.03 379.782 244.5 379.034 244.543C378.308 244.586 376.577 244.543 376.641 244.906C376.684 245.269 379.739 246.786 381.897 246.572C384.054 246.359 386.724 247.192 386.724 247.192L387.152 245.782Z" fill="#FFB27D"/>
<path d="M412.444 246.636C412.444 246.636 411.483 248.516 409.774 250.673C407.702 253.279 404.498 256.291 400.46 256.867C398.537 257.145 396.658 256.739 394.927 255.97C390.035 253.792 386.361 248.815 386.361 248.815C385.506 246.465 386.916 244.863 386.916 244.863C386.916 244.863 396.786 247.085 397.726 246.615C398.666 246.145 404.455 233.329 405.48 231.193C407.702 226.665 411.205 225.362 411.205 225.362L412.444 246.636Z" fill="#FFA561"/>
<path d="M409.775 250.673C407.703 253.279 404.498 256.291 400.461 256.867C398.538 257.145 396.658 256.739 394.928 255.97C395.12 255.992 399.991 256.59 401.956 253.108C403.943 249.562 406.079 243.924 409.027 245.803C410.309 246.636 410.245 248.644 409.775 250.673Z" fill="#F4904D"/>
<path d="M449.274 353.155C449.274 353.155 452.286 355.911 451.687 357.854C451.089 359.798 448.376 361.101 448.013 363.493C447.65 365.885 446.176 367.188 444.851 367.188C443.527 367.188 438.55 367.188 438.55 367.188C438.55 367.188 437.567 365.501 439.917 365.01C442.267 364.497 443.164 361.699 443.014 359.093C442.865 356.487 443.228 353.027 443.228 353.027L448.227 351.874L449.274 353.155Z" fill="#1C4B8E"/>
<path d="M423.788 354.309C423.788 354.309 424.877 365.95 423.553 366.59L406.634 366.548C406.634 366.548 406.634 364.604 409.347 364.155C412.06 363.728 416.845 362.126 417.657 358.581C418.447 355.078 423.788 354.309 423.788 354.309Z" fill="#1C4B8E"/>
<path d="M436.798 238.776C436.798 238.776 437.055 242.322 436.798 246.594C436.628 249.413 433.765 253.215 433.359 254.155C432.334 256.504 431.202 256.889 431.202 256.889L422.315 259.067L419.196 259.836L409.348 256.889C409.348 256.889 404.862 244.372 406.656 237.324C408.451 230.275 411.206 225.384 411.206 225.384C411.206 225.384 417.893 222.756 429.706 224.722L436.798 238.776Z" fill="#FFA561"/>
<path d="M434.191 247.747C434.02 250.566 433.764 253.215 433.358 254.133C432.333 256.483 431.201 256.867 431.201 256.867L422.314 259.046L418.447 257.914C418.447 257.914 431.329 255.97 429.898 244.885L434.191 247.747Z" fill="#F2CCAA"/>
<path d="M409.966 258.79C409.966 258.79 405.096 273.976 404.775 279.145C404.455 284.314 414.111 352.579 414.495 354.949C414.858 357.192 417.657 358.623 417.657 358.623C417.657 358.623 418.939 359.371 420.776 358.858C423.318 358.132 424.108 357.278 424.108 357.278C424.108 357.278 427.911 308.6 425.561 291.213C423.211 273.827 423.19 258.79 423.19 258.79H409.966Z" fill="#6980E2"/>
<path d="M430.624 258.341C430.624 258.341 438.058 268.316 438.763 275.066C439.447 281.815 439.853 305.524 441.327 312.103C442.801 318.681 448.227 331.347 448.227 351.852C448.227 351.852 447.672 353.027 445.92 353.646C445.364 353.839 444.617 354.031 443.89 354.202C442.459 354.522 440.985 353.839 440.323 352.514C436.649 345.124 424.963 321.287 424.365 316.332C423.938 312.829 420.242 289.654 412.189 276.048C410.245 272.78 413.385 259.794 413.385 259.794L430.624 258.341Z" fill="#8C9DF4"/>
<path d="M409.176 256.44C409.176 256.44 411.142 257.999 415.03 258.063C419.687 258.149 431.201 256.889 431.201 256.889C431.201 256.889 431.714 258.32 431.692 259.836C431.692 259.836 417.636 263.382 409.476 260.349C409.476 260.349 408.429 258.363 409.176 256.44Z" fill="#233862"/>
<path d="M413.919 262.079C412.744 262.079 411.804 261.011 411.804 259.687C411.804 258.363 412.765 257.295 413.919 257.295C415.094 257.295 416.033 258.363 416.033 259.687C416.033 260.99 415.094 262.079 413.919 262.079ZM413.919 257.978C413.128 257.978 412.509 258.747 412.509 259.665C412.509 260.605 413.15 261.353 413.919 261.353C414.709 261.353 415.328 260.584 415.328 259.665C415.328 258.726 414.709 257.978 413.919 257.978Z" fill="white"/>
<path d="M444.83 260.477L433.401 270.409C432.568 271.135 431.329 271.05 430.602 270.217L416.033 253.493C415.307 252.66 415.392 251.421 416.226 250.695L427.654 240.762C428.488 240.036 429.727 240.122 430.453 240.955L445.022 257.679C445.748 258.512 445.663 259.772 444.83 260.477Z" fill="#2B478B"/>
<path d="M427.954 259.238C427.783 259.281 421.887 259.986 421.887 261.203C421.887 262.613 423.617 264.514 425.241 264.407C425.903 264.364 428.958 261.566 428.958 261.566L427.954 259.238Z" fill="#FFB27D"/>
<path d="M424.92 224.059C424.258 222.436 423.852 219.958 423.873 216.883L423.425 216.968L415.926 218.463C415.926 218.463 416.097 220.813 416.097 223.056C416.097 223.077 416.097 223.098 416.097 223.12C416.097 225.042 414.794 226.986 417.892 227.755C418.832 227.968 426.33 227.477 424.92 224.059Z" fill="#FFB27D"/>
<path d="M415.905 218.442C415.905 218.442 416.076 220.791 416.076 223.034C420.263 222.906 422.485 219.083 423.403 216.968L415.905 218.442Z" fill="#E8945B"/>
<path d="M414.517 220.557C414.517 220.557 424.45 220.727 424.45 214.533C424.45 208.339 425.754 204.195 419.409 203.832C413.064 203.469 411.825 205.819 411.334 207.89C410.821 209.962 411.932 220.343 414.517 220.557Z" fill="#FFB27D"/>
<path d="M414.88 203.683C414.88 203.683 417.593 210.945 421.78 212.013C425.946 213.081 427.762 211.97 427.762 211.97C427.762 211.97 424.557 209.428 423.895 204.986C423.895 204.986 416.931 200.244 414.88 203.683Z" fill="#163560"/>
<path d="M415.564 204.281C415.564 204.281 413.556 205.028 412.723 206.502C411.911 207.933 411.228 209.834 411.377 212.184C411.377 212.184 409.326 207.25 411.633 204.473C414.069 201.504 415.564 204.281 415.564 204.281Z" fill="#163560"/>
<path d="M427.954 259.238C427.954 259.238 426.544 258.79 425.604 258.918C424.664 259.046 423.959 258.897 423.959 259.174C423.959 259.43 425.177 259.559 425.433 259.687C425.689 259.794 427.954 259.238 427.954 259.238Z" fill="#FFB27D"/>
<path d="M429.706 224.7C429.706 224.7 436.755 225.191 439.447 231.77C442.139 238.349 447.266 249.37 447.266 251.207C447.266 253.044 444.403 258.79 429.022 262.058C429.022 262.058 427.441 260.392 427.527 259.067C427.527 259.067 437.118 250.823 437.097 249.862C437.054 248.046 435.516 245.632 427.099 237.195C424.835 234.91 429.706 224.7 429.706 224.7Z" fill="#FFA561"/>
<path d="M191.173 29.4759C191.173 29.4759 185.512 28.5147 181.923 31.2273C178.334 33.94 177.758 33.0642 175.749 34.7303C173.72 36.3963 175.792 38.4041 174.681 39.5148C173.571 40.6254 173.528 42.7827 175.173 43.3381C176.818 43.8934 175.707 46.9264 179.296 47.3109C182.885 47.7167 181.282 49.3614 184.679 49.6177C188.076 49.874 190.895 49.9808 192.69 50.7284C194.484 51.476 196.108 50.707 196.621 49.3401C197.133 47.9731 198.565 49.7459 198.992 47.8663C199.419 46.008 197.924 45.2604 198.757 43.7439C199.569 42.2701 201.641 31.505 191.173 29.4759Z" fill="#233862"/>
<path d="M200.957 138.003C200.572 138.451 200.53 138.964 200.722 139.498C201.085 140.48 202.281 141.591 203.67 142.702C203.841 142.851 204.012 142.979 204.14 143.086C204.183 143.108 204.204 143.15 204.247 143.172C204.268 143.193 204.311 143.214 204.332 143.236C205.635 144.41 205.144 144.688 207.472 147.08C210.143 149.814 211.959 149.857 212.471 149.601C212.898 149.387 212.001 147.935 211.019 146.311C210.976 146.226 210.933 146.162 210.869 146.076C210.741 145.863 210.613 145.649 210.463 145.414C209.288 143.449 209.587 142.531 209.844 139.583C210.057 137.191 213.454 126.234 213.454 126.234L208.391 125.401C208.391 125.401 206.938 134.115 205.251 135.482C204.354 136.208 203.349 136.23 202.495 136.764C202.431 136.807 202.367 136.849 202.324 136.871C201.833 137.191 201.341 137.533 200.957 138.003Z" fill="#FFB27D"/>
<path d="M200.957 138.003C200.572 138.451 200.53 138.964 200.722 139.498C201.17 140.48 202.345 141.591 203.691 142.68C203.862 142.83 204.012 142.958 204.161 143.086C204.204 143.108 204.225 143.15 204.268 143.172C204.289 143.193 204.332 143.214 204.353 143.236C205.657 144.41 205.165 144.688 207.494 147.08C210.164 149.814 211.98 149.857 212.493 149.601C212.92 149.387 212.023 147.935 211.04 146.311C210.527 146.119 208.135 145.179 206.297 142.873C204.695 140.843 203.606 138.259 202.516 136.742C202.452 136.785 202.388 136.828 202.345 136.849C201.833 137.191 201.341 137.533 200.957 138.003Z" fill="#233862"/>
<path d="M241.76 134.542C242.08 136.102 244.302 135.824 246.801 135.205C249.279 134.585 248.702 135.311 252.249 134.884C255.795 134.457 256.842 133.133 256.948 132.62C257.034 132.15 255.282 132.001 253.402 131.787C253.167 131.766 252.932 131.744 252.697 131.702C250.582 131.445 249.023 130.1 247.079 128.989C245.242 127.942 242.486 123.628 242.486 123.628L237.637 124.055C237.637 124.055 240.222 127.9 241.204 129.587C241.781 130.57 241.76 131.873 241.696 132.898C241.674 133.432 241.631 133.987 241.76 134.542Z" fill="#FFB27D"/>
<path d="M246.779 135.205C249.257 134.585 248.681 135.311 252.227 134.884C255.773 134.457 256.82 133.133 256.926 132.62C257.012 132.15 255.26 132.001 253.38 131.787L253.359 131.83C253.359 131.83 251.244 133.346 248.296 133.432C245.903 133.517 243.34 132.834 241.674 132.876C241.631 133.432 241.61 133.987 241.716 134.542C242.08 136.102 244.301 135.824 246.779 135.205Z" fill="#233862"/>
<path d="M222.917 103.614L218.453 115.874L212.642 131.873C212.642 131.873 211.04 132.043 209.481 131.616C208.049 131.21 206.426 130.164 206.426 130.164C206.426 130.164 207.943 113.034 210.955 103.166C211.724 100.645 212.599 98.5947 213.561 97.4413C218.282 91.7597 222.917 103.614 222.917 103.614Z" fill="#ED7D2B"/>
<path d="M218.153 84.2412C215.163 83.3014 206.703 84.6043 198.179 86.3131L196.364 83.3868L177.949 82.0839C177.949 82.0839 172.181 94.8355 175.364 104.148C175.984 105.964 178.932 106.028 178.932 106.028C178.932 106.028 189.72 106.156 193.287 106.113C202.452 106.049 212.62 99.684 213.945 99.4063C216.102 98.9578 217 103.272 219.2 107.801C221.4 112.329 239.687 127.772 239.687 127.772C239.687 127.772 242.485 127.772 243.639 127.344C244.878 126.874 245.326 126.255 245.326 126.255C245.326 126.255 224.882 86.3558 218.153 84.2412Z" fill="#F99746"/>
<path d="M190.575 55.0216C190.596 55.043 187.349 56.175 185.17 55.2352C183.119 54.3381 181.538 50.9847 181.581 50.9847C182.521 50.942 183.525 50.109 184.273 44.7692L184.678 44.9187L191.365 47.2682C191.365 47.2682 190.895 49.4041 190.596 51.4546C190.34 53.142 190.211 54.7867 190.575 55.0216Z" fill="#FFB27D"/>
<path d="M191.365 47.2468C191.365 47.2468 191.087 48.742 190.682 50.8993C186.836 50.2371 185.234 46.9692 184.679 44.8973L191.365 47.2468Z" fill="#ED975D"/>
<path d="M192.369 49.3614C192.369 49.3614 183.247 48.208 184.038 42.5264C184.85 36.8449 184.209 32.872 190.083 33.3847C195.958 33.8759 196.77 36.2041 196.962 38.1691C197.154 40.1342 194.762 49.5109 192.369 49.3614Z" fill="#FFB27D"/>
<path d="M196.621 35.072C196.621 35.072 190.81 40.1555 186.837 40.5827C182.863 41.0099 181.347 39.7497 181.347 39.7497C181.347 39.7497 183.675 37.7846 185.064 34.6448C185.47 33.7264 186.345 33.0856 187.35 32.9788C190.191 32.7011 195.574 32.5516 196.621 35.072Z" fill="#233862"/>
<path d="M192.968 34.6448C192.968 34.6448 194.933 36.5245 195.553 37.9128C196.151 39.2585 196.364 42.4837 195.894 43.7866C195.894 43.7866 198.907 37.8488 197.155 34.9866C195.296 31.9322 192.968 34.6448 192.968 34.6448Z" fill="#233862"/>
<path d="M198.351 68.3926C198.201 86.8684 198.372 83.0024 196.364 84.7752C195.872 85.2024 194.505 85.4587 192.711 85.5868C187.05 85.9927 177.095 85.1383 176.71 84.0917C175.386 80.482 176.283 79.3499 175.172 73.8178C175.044 73.2198 174.916 72.6004 174.745 71.8955C173.805 68.0935 172.908 66.812 176.091 60.6605C178.975 55.1071 181.987 50.5789 182.265 50.7498C190.019 55.2779 190.596 51.4119 190.596 51.4119C190.596 51.4119 198.436 59.4003 198.351 68.3926Z" fill="#8C9DF4"/>
<path d="M218.453 115.874L212.642 131.873C212.642 131.873 211.04 132.043 209.481 131.616C208.049 131.21 206.426 130.164 206.426 130.164C206.426 130.164 207.943 113.034 210.955 103.166L218.453 115.874Z" fill="#F99746"/>
<path d="M190.596 51.4333C190.596 51.4333 198.543 52.7148 199.504 56.1323C200.465 59.5498 206.083 79.5849 206.083 79.5849C206.083 79.5849 202.046 80.3324 200.187 78.4955C198.308 76.6373 193.586 61.2585 193.586 61.2585L190.596 51.4333Z" fill="#8C9DF4"/>
<path d="M192.733 85.5869C187.072 85.9927 177.117 85.1383 176.732 84.0917C175.408 80.482 176.305 79.3499 175.194 73.8179L177.865 66.1071C177.865 66.1071 177.48 74.6722 180.022 76.915C182.564 79.1577 190.383 81.1868 191.643 83.0665C192.22 83.9635 192.605 84.8606 192.733 85.5869Z" fill="#6980E2"/>
<path d="M186.217 82.0412C186.217 82.0412 191.792 80.7596 192.69 81.2509C193.587 81.7422 195.809 83.5363 196.086 84.1558C196.364 84.7752 194.078 83.6859 193.33 83.4936C192.839 83.3655 191.579 83.814 190.959 84.0276C188.332 84.9247 186.708 84.4762 186.708 84.4762L186.217 82.0412Z" fill="#FFB27D"/>
<path d="M182.265 50.7498C182.265 50.7498 174.767 51.2624 172.203 54.8935C168.593 60.0197 161.479 81.7849 165.666 84.6684C170.366 87.8937 186.965 85.3733 186.965 85.3733C186.965 85.3733 187.499 82.7888 186.73 81.5499C185.961 80.3111 173.442 78.3674 172.844 77.7907C172.267 77.214 179.979 66.4916 179.958 64.7615C179.936 63.0314 182.265 50.7498 182.265 50.7498Z" fill="#8C9DF4"/>
<path d="M192.989 82.7888C192.989 82.7888 194.164 84.2839 194.549 84.4762C194.933 84.6471 195.19 84.6043 195.19 84.6043L194.399 83.1946L192.989 82.7888Z" fill="#FFB27D"/>
<path d="M192.689 81.2509L196.107 82.8742C196.107 82.8742 195.958 83.1092 195.552 83.0878C195.125 83.0664 194.078 82.682 194.078 82.682L192.689 81.2509Z" fill="#FFB27D"/>
<path d="M193.821 86.9111L220.738 86.7189L228.685 66.5343L201.811 66.7266L193.821 86.9111Z" fill="#233862"/>
<path d="M221.037 85.9286L185.49 86.1849L185.512 86.9752L220.738 86.7189L221.037 85.9286Z" fill="#233862"/>
<path d="M213.881 76.7014C214.073 75.9965 213.667 75.4198 212.962 75.4198C212.257 75.4198 211.509 75.9965 211.317 76.7227C211.125 77.4276 211.531 78.0043 212.236 78.0043C212.941 77.9829 213.667 77.4062 213.881 76.7014Z" fill="#EBF3FA"/>
<path d="M56.8884 366.441H76.5418C77.5886 365.544 75.8155 363.515 73.957 363.386C73.1452 363.322 72.1198 363.493 70.9662 363.75C70.6885 360.161 69.1504 344.013 63.3398 344.676C56.8029 345.402 63.3398 351.788 65.1984 355.569C66.5656 358.367 68.0182 362.383 68.6804 364.284C68.1464 364.39 67.5909 364.518 67.0355 364.625C66.1597 361.955 62.9339 353.006 58.8324 353.54C54.0044 354.159 55.9484 357.748 59.3664 359.862C61.8658 361.421 64.942 363.664 66.416 364.732C65.177 364.924 63.8952 365.074 62.5708 365.031C59.1742 364.924 57.5292 365.907 56.8884 366.441Z" fill="#A8D29F"/>
<path d="M482.065 366.398H460.339C459.164 365.416 461.151 363.173 463.202 363.023C464.099 362.959 465.231 363.151 466.513 363.408C466.812 359.435 468.521 341.578 474.951 342.305C482.193 343.116 474.951 350.165 472.9 354.351C471.383 357.448 469.781 361.891 469.055 363.984C469.653 364.113 470.251 364.241 470.871 364.348C471.832 361.4 475.399 351.489 479.928 352.066C485.248 352.749 483.111 356.722 479.33 359.072C476.553 360.802 473.156 363.28 471.533 364.454C472.9 364.668 474.331 364.839 475.784 364.796C479.544 364.711 481.36 365.8 482.065 366.398Z" fill="#A8D29F"/>
</svg>
