<svg width="65" height="64" viewBox="0 0 65 64" fill="none" xmlns="http://www.w3.org/2000/svg">
<g clip-path="url(#clip0)">
<path d="M32.5 64C26.7083 64 21.3542 62.5729 16.4375 59.7188C11.5208 56.8646 7.63542 52.9792 4.78125 48.0625C1.92708 43.1458 0.5 37.7917 0.5 32C0.5 26.2083 1.92708 20.8542 4.78125 15.9375C7.63542 11.0208 11.5208 7.13542 16.4375 4.28125C21.3542 1.42708 26.7083 0 32.5 0C38.2917 0 43.6458 1.42708 48.5625 4.28125C53.4792 7.13542 57.3646 11.0208 60.2188 15.9375C63.0729 20.8542 64.5 26.2083 64.5 32C64.5 37.7917 63.0729 43.1458 60.2188 48.0625C57.3646 52.9792 53.4792 56.8646 48.5625 59.7188C43.6458 62.5729 38.2917 64 32.5 64ZM8.5 32H32.5V8C25.875 8 20.2188 10.3438 15.5312 15.0312C10.8438 19.7188 8.5 25.375 8.5 32ZM36.5 36H8.875C9.83333 41.7083 12.5312 46.4688 16.9688 50.2812C21.4062 54.0938 26.5833 56 32.5 56C35.75 56 38.8333 55.3854 41.75 54.1562C44.6667 52.9271 47.25 51.2083 49.5 49L36.5 36Z" fill="#1074AB"/>
<path d="M32.5 32L49.5 49C49.5 49 61.5 40.5 55 23C48.5 5.5 32.5 8 32.5 8V32Z" fill="#801FBC"/>
</g>
<defs>
<clipPath id="clip0">
<rect width="64" height="64" fill="white" transform="translate(0.5)"/>
</clipPath>
</defs>
</svg>
