<svg width="64" height="64" viewBox="0 0 64 64" fill="none" xmlns="http://www.w3.org/2000/svg">
<path d="M52 44C50.5758 44.0074 49.18 44.3992 47.96 45.134L40.334 37.506C41.4205 35.8753 42.0003 33.9595 42.0003 32C42.0003 30.0405 41.4205 28.1247 40.334 26.494L45.428 21.4C46.7166 22.0207 48.1833 22.1653 49.5683 21.8081C50.9533 21.4509 52.1672 20.6151 52.9949 19.4486C53.8227 18.2821 54.2108 16.8603 54.0906 15.4351C53.9704 14.0098 53.3497 12.6731 52.3383 11.6617C51.3269 10.6503 49.9902 10.0296 48.5649 9.90937C47.1397 9.78918 45.7179 10.1773 44.5514 11.0051C43.3849 11.8328 42.5491 13.0467 42.1919 14.4317C41.8347 15.8167 41.9793 17.2834 42.6 18.572L37.506 23.666C35.8753 22.5795 33.9595 21.9997 32 21.9997C30.0405 21.9997 28.1247 22.5795 26.494 23.666L18.866 16.038C19.6005 14.8186 19.9922 13.4235 20 12C20 10.4178 19.5308 8.87103 18.6518 7.55544C17.7727 6.23985 16.5233 5.21447 15.0615 4.60897C13.5997 4.00347 11.9911 3.84504 10.4393 4.15372C8.88743 4.4624 7.46197 5.22433 6.34315 6.34315C5.22433 7.46197 4.4624 8.88743 4.15372 10.4393C3.84504 11.9911 4.00347 13.5997 4.60897 15.0615C5.21447 16.5233 6.23985 17.7727 7.55544 18.6518C8.87103 19.5308 10.4178 20 12 20C13.4242 19.9926 14.82 19.6008 16.04 18.866L23.666 26.494C22.5795 28.1247 21.9997 30.0405 21.9997 32C21.9997 33.9595 22.5795 35.8753 23.666 37.506L16.038 45.134C14.8185 44.3996 13.4235 44.0079 12 44C10.4178 44 8.87103 44.4692 7.55544 45.3482C6.23985 46.2273 5.21447 47.4767 4.60897 48.9385C4.00347 50.4003 3.84504 52.0089 4.15372 53.5607C4.4624 55.1126 5.22433 56.538 6.34315 57.6569C7.46197 58.7757 8.88743 59.5376 10.4393 59.8463C11.9911 60.155 13.5997 59.9965 15.0615 59.391C16.5233 58.7855 17.7727 57.7602 18.6518 56.4446C19.5308 55.129 20 53.5823 20 52C19.9926 50.5758 19.6008 49.18 18.866 47.96L26.494 40.334C27.5576 41.0429 28.7481 41.54 30 41.798V48.368C28.6656 48.8398 27.5409 49.7681 26.8247 50.989C26.1086 52.2098 25.8471 53.6445 26.0864 55.0395C26.3258 56.4345 27.0505 57.6999 28.1327 58.6122C29.2148 59.5245 30.5846 60.0249 32 60.0249C33.4154 60.0249 34.7852 59.5245 35.8673 58.6122C36.9495 57.6999 37.6743 56.4345 37.9136 55.0395C38.1529 53.6445 37.8914 52.2098 37.1753 50.989C36.4591 49.7681 35.3344 48.8398 34 48.368V41.798C35.2519 41.54 36.4424 41.0429 37.506 40.334L45.134 47.962C44.3995 49.1814 44.0078 50.5765 44 52C44 53.5823 44.4692 55.129 45.3482 56.4446C46.2273 57.7602 47.4767 58.7855 48.9385 59.391C50.4003 59.9965 52.0089 60.155 53.5607 59.8463C55.1126 59.5376 56.538 58.7757 57.6569 57.6569C58.7757 56.538 59.5376 55.1126 59.8463 53.5607C60.155 52.0089 59.9965 50.4003 59.391 48.9385C58.7855 47.4767 57.7602 46.2273 56.4446 45.3482C55.129 44.4692 53.5823 44 52 44ZM32 26C33.1867 26 34.3467 26.3519 35.3334 27.0112C36.3201 27.6705 37.0892 28.6075 37.5433 29.7039C37.9974 30.8003 38.1162 32.0067 37.8847 33.1705C37.6532 34.3344 37.0818 35.4035 36.2426 36.2426C35.4035 37.0818 34.3344 37.6532 33.1705 37.8847C32.0067 38.1162 30.8003 37.9974 29.7039 37.5433C28.6075 37.0892 27.6705 36.3201 27.0112 35.3334C26.3519 34.3467 26 33.1867 26 32C26.0016 30.4092 26.6342 28.884 27.7591 27.7591C28.884 26.6342 30.4092 26.0016 32 26ZM8 12C8 11.2089 8.2346 10.4355 8.67413 9.77772C9.11365 9.11993 9.73836 8.60724 10.4693 8.30448C11.2002 8.00173 12.0044 7.92252 12.7804 8.07686C13.5563 8.2312 14.269 8.61217 14.8284 9.17158C15.3878 9.73099 15.7688 10.4437 15.9231 11.2196C16.0775 11.9956 15.9983 12.7998 15.6955 13.5307C15.3928 14.2616 14.8801 14.8864 14.2223 15.3259C13.5645 15.7654 12.7911 16 12 16C10.9395 15.9989 9.92266 15.5772 9.17275 14.8273C8.42283 14.0773 8.00106 13.0605 8 12ZM12 56C11.2089 56 10.4355 55.7654 9.77772 55.3259C9.11993 54.8864 8.60724 54.2616 8.30448 53.5307C8.00173 52.7998 7.92252 51.9956 8.07686 51.2196C8.2312 50.4437 8.61217 49.731 9.17158 49.1716C9.73099 48.6122 10.4437 48.2312 11.2196 48.0769C11.9956 47.9225 12.7998 48.0017 13.5307 48.3045C14.2616 48.6072 14.8864 49.1199 15.3259 49.7777C15.7654 50.4355 16 51.2089 16 52C15.9989 53.0605 15.5772 54.0773 14.8273 54.8273C14.0773 55.5772 13.0605 55.9989 12 56ZM52 56C51.2089 56 50.4355 55.7654 49.7777 55.3259C49.1199 54.8864 48.6072 54.2616 48.3045 53.5307C48.0017 52.7998 47.9225 51.9956 48.0769 51.2196C48.2312 50.4437 48.6122 49.731 49.1716 49.1716C49.731 48.6122 50.4437 48.2312 51.2196 48.0769C51.9956 47.9225 52.7998 48.0017 53.5307 48.3045C54.2616 48.6072 54.8864 49.1199 55.3259 49.7777C55.7654 50.4355 56 51.2089 56 52C55.9984 53.0604 55.5765 54.0769 54.8267 54.8267C54.0769 55.5765 53.0604 55.9984 52 56Z" fill="#1074AB"/>
<circle cx="32" cy="54" r="6" fill="#801FBC"/>
<circle cx="48" cy="16" r="6" fill="#801FBC"/>
<circle cx="12" cy="12" r="6" stroke="#801FBC" stroke-width="4"/>
</svg>
