<svg width="64" height="64" viewBox="0 0 64 64" fill="none" xmlns="http://www.w3.org/2000/svg">
<path d="M56 42.6667V10.6667H8.00002V42.6667H56ZM56 5.33334C57.4145 5.33334 58.7711 5.89525 59.7713 6.89544C60.7714 7.89563 61.3334 9.25219 61.3334 10.6667V42.6667C61.3334 44.0812 60.7714 45.4377 59.7713 46.4379C58.7711 47.4381 57.4145 48 56 48H37.3334V53.3333H42.6667V58.6667H21.3334V53.3333H26.6667V48H8.00002C6.58553 48 5.22898 47.4381 4.22878 46.4379C3.22859 45.4377 2.66669 44.0812 2.66669 42.6667V10.6667C2.66669 7.70668 5.04002 5.33334 8.00002 5.33334H56ZM13.3334 16H37.3334V29.3333H13.3334V16ZM40 16H50.6667V21.3333H40V16ZM50.6667 24V37.3333H40V24H50.6667ZM13.3334 32H24V37.3333H13.3334V32ZM26.6667 32H37.3334V37.3333H26.6667V32Z" fill="#1074AB"/>
<path d="M13.3333 16H37.3333V29.3334H13.3333V16ZM40 16H50.6666V21.3334H40V16ZM50.6666 24V37.3334H40V24H50.6666ZM13.3333 32H24V37.3334H13.3333V32ZM26.6666 32H37.3333V37.3334H26.6666V32Z" fill="#801FBC"/>
</svg>
