<svg width="64" height="64" viewBox="0 0 64 64" fill="none" xmlns="http://www.w3.org/2000/svg">
<path d="M49.0933 10.6667L42.6666 17.0934V17.5734L49.0933 24.0001H58.6667V29.3334H46.9067L42.6666 25.0934V32.0001H40C38.5855 32.0001 37.2289 31.4382 36.2287 30.438C35.2286 29.4378 34.6666 28.0812 34.6666 26.6667V20.0001H26.2933C26.0533 20.9867 25.6533 21.9201 25.12 22.8001L40.48 50.6667H53.3333C54.7478 50.6667 56.1044 51.2287 57.1046 52.2288C58.1047 53.229 58.6667 54.5856 58.6667 56.0001V58.6667H5.33332V56.0001C5.33332 54.5856 5.89522 53.229 6.89541 52.2288C7.89561 51.2287 9.25216 50.6667 10.6667 50.6667H28.2933L15.7867 28.0001C13.4515 27.9606 11.1936 27.1569 9.35865 25.712C7.52371 24.2672 6.21282 22.2608 5.62665 20.0001C5.27839 18.6413 5.20155 17.2272 5.40053 15.8387C5.59951 14.4501 6.07041 13.1145 6.78625 11.9082C7.5021 10.7019 8.44885 9.64867 9.57228 8.80875C10.6957 7.96883 11.9738 7.35874 13.3333 7.01342C19.0133 5.54675 24.8266 8.96008 26.2933 14.6667H34.6666V8.00008C34.6666 6.58559 35.2286 5.22904 36.2287 4.22885C37.2289 3.22865 38.5855 2.66675 40 2.66675H42.6666V9.57341L46.9067 5.33341H58.6667V10.6667H49.0933ZM16 12.0001C14.5855 12.0001 13.2289 12.562 12.2287 13.5622C11.2286 14.5624 10.6667 15.9189 10.6667 17.3334C10.6667 18.7479 11.2286 20.1045 12.2287 21.1047C13.2289 22.1048 14.5855 22.6667 16 22.6667C17.4145 22.6667 18.771 22.1048 19.7712 21.1047C20.7714 20.1045 21.3333 18.7479 21.3333 17.3334C21.3333 15.9189 20.7714 14.5624 19.7712 13.5622C18.771 12.562 17.4145 12.0001 16 12.0001Z" fill="#1074AB"/>
<path d="M10.3431 11.6431C11.8434 10.1428 13.8783 9.29999 16 9.29999C18.1217 9.29999 20.1566 10.1428 21.6569 11.6431C23.1571 13.1434 24 15.1783 24 17.3C24 19.4217 23.1571 21.4566 21.6569 22.9568C20.1566 24.4571 18.1217 25.3 16 25.3C13.8783 25.3 11.8434 24.4571 10.3431 22.9568C8.84285 21.4566 8 19.4217 8 17.3C8 15.1783 8.84285 13.1434 10.3431 11.6431Z" stroke="#801FBC" stroke-width="5"/>
</svg>
