<svg width="65" height="65" viewBox="0 0 65 65" fill="none" xmlns="http://www.w3.org/2000/svg">
<path d="M8.5 10.5C8.5 9.96957 8.71071 9.46086 9.08579 9.08579C9.46086 8.71071 9.96957 8.5 10.5 8.5C11.0304 8.5 11.5391 8.71071 11.9142 9.08579C12.2893 9.46086 12.5 9.96957 12.5 10.5V52.5H54.5C55.0304 52.5 55.5391 52.7107 55.9142 53.0858C56.2893 53.4609 56.5 53.9696 56.5 54.5C56.5 55.0304 56.2893 55.5391 55.9142 55.9142C55.5391 56.2893 55.0304 56.5 54.5 56.5H10.5C9.96957 56.5 9.46086 56.2893 9.08579 55.9142C8.71071 55.5391 8.5 55.0304 8.5 54.5V10.5Z" fill="#801FBC"/>
<path d="M45.8333 11.1666C44.7827 11.1666 43.7425 11.3736 42.7718 11.7756C41.8012 12.1776 40.9193 12.7669 40.1765 13.5098C39.4336 14.2526 38.8443 15.1346 38.4423 16.1052C38.0402 17.0758 37.8333 18.1161 37.8333 19.1666C37.8333 20.2172 38.0402 21.2575 38.4423 22.2281C38.8443 23.1987 39.4336 24.0806 40.1765 24.8235C40.9193 25.5663 41.8012 26.1556 42.7718 26.5577C43.7425 26.9597 44.7827 27.1666 45.8333 27.1666C47.955 27.1666 49.9899 26.3238 51.4902 24.8235C52.9905 23.3232 53.8333 21.2884 53.8333 19.1666C53.8333 17.0449 52.9905 15.0101 51.4902 13.5098C49.9899 12.0095 47.955 11.1666 45.8333 11.1666ZM41.8333 19.1666C41.8333 18.1058 42.2547 17.0883 43.0049 16.3382C43.755 15.5881 44.7724 15.1666 45.8333 15.1666C46.8942 15.1666 47.9116 15.5881 48.6617 16.3382C49.4119 17.0883 49.8333 18.1058 49.8333 19.1666C49.8333 20.2275 49.4119 21.2449 48.6617 21.9951C47.9116 22.7452 46.8942 23.1666 45.8333 23.1666C44.7724 23.1666 43.755 22.7452 43.0049 21.9951C42.2547 21.2449 41.8333 20.2275 41.8333 19.1666Z" fill="#801FBC"/>
<path d="M16.5 24.5C16.5 22.3783 17.3429 20.3434 18.8431 18.8431C20.3434 17.3429 22.3783 16.5 24.5 16.5C26.6217 16.5 28.6566 17.3429 30.1569 18.8431C31.6571 20.3434 32.5 22.3783 32.5 24.5C32.5 26.6217 31.6571 28.6566 30.1569 30.1569C28.6566 31.6571 26.6217 32.5 24.5 32.5C22.3783 32.5 20.3434 31.6571 18.8431 30.1569C17.3429 28.6566 16.5 26.6217 16.5 24.5ZM24.5 20.5C23.4391 20.5 22.4217 20.9214 21.6716 21.6716C20.9214 22.4217 20.5 23.4391 20.5 24.5C20.5 25.5609 20.9214 26.5783 21.6716 27.3284C22.4217 28.0786 23.4391 28.5 24.5 28.5C25.5609 28.5 26.5783 28.0786 27.3284 27.3284C28.0786 26.5783 28.5 25.5609 28.5 24.5C28.5 23.4391 28.0786 22.4217 27.3284 21.6716C26.5783 20.9214 25.5609 20.5 24.5 20.5Z" fill="#1074AB"/>
<path d="M40.5 32.5C38.3783 32.5 36.3434 33.3429 34.8431 34.8431C33.3429 36.3434 32.5 38.3783 32.5 40.5C32.5 42.6217 33.3429 44.6566 34.8431 46.1569C36.3434 47.6571 38.3783 48.5 40.5 48.5C42.6217 48.5 44.6566 47.6571 46.1569 46.1569C47.6571 44.6566 48.5 42.6217 48.5 40.5C48.5 38.3783 47.6571 36.3434 46.1569 34.8431C44.6566 33.3429 42.6217 32.5 40.5 32.5ZM36.5 40.5C36.5 39.4391 36.9214 38.4217 37.6716 37.6716C38.4217 36.9214 39.4391 36.5 40.5 36.5C41.5609 36.5 42.5783 36.9214 43.3284 37.6716C44.0786 38.4217 44.5 39.4391 44.5 40.5C44.5 41.5609 44.0786 42.5783 43.3284 43.3284C42.5783 44.0786 41.5609 44.5 40.5 44.5C39.4391 44.5 38.4217 44.0786 37.6716 43.3284C36.9214 42.5783 36.5 41.5609 36.5 40.5Z" fill="#1074AB"/>
</svg>
