<svg width="565" height="375" viewBox="0 0 565 375" fill="none" xmlns="http://www.w3.org/2000/svg">
<path d="M501.17 165.382C477.973 145.596 450.007 26.2619 354.204 88.4142C304.708 120.526 221.248 60.8486 152.167 81.4594C88.7271 100.39 82.6115 162.76 88.7509 183.084C101.151 224.135 62.5625 230.255 26.7668 247.882C-29.3907 275.549 12.2291 373.815 65.2743 374.289C118.319 374.763 439.264 374.289 439.264 374.289C439.264 374.289 516.417 372.525 548.462 329.995C582.947 284.213 561.08 216.493 501.17 165.382Z" fill="#D0E5F3"/>
<path d="M185.753 363.269C185.753 363.269 186.424 374.104 188.519 374.26C188.799 374.282 199.153 374.282 199.153 374.282L212.37 374.204C212.37 374.204 212.285 371.02 208.421 370.347C204.558 369.674 198.091 366.957 195.749 361.851C193.289 356.478 185.753 363.269 185.753 363.269Z" fill="#744A1A"/>
<path d="M180.989 236.805C180.989 236.805 186.746 238.284 190.406 237.179C194.066 236.075 200.362 237.89 201.381 239.223C202.401 240.555 202.024 241.088 200.213 241.55C198.402 242.012 191.99 244.746 187.773 243.162C183.556 241.579 178.054 241.522 178.054 241.522L180.989 236.805Z" fill="#F7D38E"/>
<path d="M131.222 186.789C131.222 186.789 137.691 232.775 148.402 236.881C153.686 238.914 177.044 243.518 183.959 243.992C183.959 243.992 185.651 242.617 185.239 237.03C185.239 237.03 160.767 228.044 157.292 223.158C152.117 215.888 160.503 193.452 154.011 186.623C147.518 179.794 136.579 176.847 131.222 186.789Z" fill="#B94F4F"/>
<path d="M132.049 363.935V353.903H116.267C116.062 353.903 115.865 353.821 115.72 353.676C115.575 353.532 115.493 353.336 115.491 353.131V351.533C115.492 351.327 115.574 351.131 115.719 350.985C115.864 350.84 116.061 350.758 116.267 350.758H132.049V293.695C132.051 292.923 132.358 292.184 132.903 291.638C133.449 291.093 134.188 290.786 134.96 290.784H138.082C138.853 290.786 139.592 291.093 140.138 291.638C140.683 292.184 140.991 292.923 140.992 293.695V350.755H156.775C156.98 350.756 157.177 350.838 157.322 350.983C157.467 351.128 157.549 351.325 157.55 351.53V353.138C157.549 353.343 157.466 353.539 157.321 353.684C157.176 353.828 156.98 353.91 156.775 353.91H140.992V363.935C152.411 364.798 161.561 368.913 164.128 374.22H108.914C111.481 368.908 120.631 364.807 132.049 363.935Z" fill="#6DB5DF"/>
<path d="M133.402 283.649C135.299 286.804 137.409 289.824 139.72 292.69C146.672 301.46 154.241 308.704 155.559 315.545C155.86 317.032 156.269 318.495 156.782 319.923C157.332 321.49 158.012 323.138 158.799 324.84C161.748 331.24 166.162 338.429 170.566 344.957C178.182 356.241 185.341 365.656 185.341 365.656L198.473 365.096C197.947 363.781 192.22 348.2 184.558 329.161C181.446 321.429 178.139 313.21 174.939 305.281C174.515 304.222 174.088 303.169 173.669 302.124C172.692 299.697 171.732 297.307 170.793 294.982L157.872 262.879C157.872 262.879 129.117 251.975 126.132 259.046C123.674 264.854 125.68 270.555 133.402 283.649Z" fill="#855103"/>
<path d="M155.343 332.311C155.343 332.311 146.21 338.18 147.096 340.086C147.215 340.34 152.261 349.381 152.261 349.381L158.773 360.884C158.773 360.884 161.511 359.256 160.217 355.555C158.922 351.855 158.138 344.889 161.456 340.349C164.945 335.58 155.343 332.311 155.343 332.311Z" fill="#744A1A"/>
<path d="M167.702 257.698C167.702 257.698 203.794 280.183 207.824 295.288C211.854 310.392 159.811 342.627 159.811 342.627C159.811 342.627 154.106 337.592 153.098 333.899C153.098 333.899 176.62 305.717 181.723 299.4C184.857 295.52 135.386 285.969 129.337 276.568C123.288 267.167 125.457 259.264 125.457 259.264L167.702 257.698Z" fill="#9E6208"/>
<path d="M173.455 286.567H99.5861C98.1028 286.567 96.9004 287.769 96.9004 289.253V304.027C96.9004 305.511 98.1028 306.713 99.5861 306.713H173.455C174.939 306.713 176.141 305.511 176.141 304.027V289.253C176.141 287.769 174.939 286.567 173.455 286.567Z" fill="#054E76"/>
<path d="M151.012 178.907C153.135 180.216 154.999 181.903 156.512 183.885C147.864 186.12 133.519 178.108 133.519 178.108C133.519 178.108 139.084 174.37 141.147 166.152C141.251 165.738 141.345 165.313 141.429 164.877C141.717 163.392 141.876 161.885 141.903 160.373L145.873 163.929L152.48 169.855C152.48 169.855 152.33 172.31 151.503 176.532C151.365 177.274 151.202 178.066 151.012 178.907Z" fill="#F7D38E"/>
<path d="M124.416 219.697C125.654 236.357 123.57 261.68 124.976 266.067C126.189 269.86 140.459 267.613 145.973 266.35C148.014 265.876 150.477 265.214 153.041 264.425C160.153 262.218 167.923 259.07 168.757 256.73C168.789 256.643 168.814 256.554 168.833 256.463C168.903 256.139 168.898 255.803 168.819 255.481C168.542 254.296 167.47 253.002 167.344 250.051C167.205 246.756 167.226 242.875 167.107 238.706C167.107 238.232 167.093 237.722 167.043 237.255V237.084V236.817C166.923 232.166 166.681 227.273 166.399 222.423C166.218 219.375 166.012 216.36 165.773 213.468C165.152 206.006 164.315 199.371 163.206 195.175C161.397 188.337 157.403 183.876 153.769 180.607L151.14 178.353C148.208 178.993 144.74 178.568 141.604 177.082C138.21 175.47 137.036 174.316 136.446 174.752C128.59 180.799 122.954 199.333 124.416 219.697Z" fill="#AB1010"/>
<path d="M152.999 264.458C160.11 262.251 167.883 259.103 168.715 256.764C168.748 256.677 168.774 256.587 168.793 256.496L168.779 255.514C168.499 254.329 167.43 253.035 167.304 250.084C167.164 246.789 167.186 242.911 167.067 238.739C167.067 238.265 167.067 237.755 167.003 237.288V237.118C167.003 237.027 167.003 236.94 167.003 236.85L140.094 224.649C140.094 224.649 138.534 246.331 152.999 264.458Z" fill="#B94F4F"/>
<path d="M152.487 169.859C152.487 169.859 152.337 172.315 151.51 176.537C145.072 174.463 142.135 168.629 141.158 166.166C140.881 165.469 140.76 165.038 140.76 165.038L141.441 164.891L145.88 163.943L152.487 169.859Z" fill="#EAB349"/>
<path d="M155.096 169.793C155.096 169.793 140.928 171.393 140.068 162.554C139.208 153.714 136.802 147.966 145.812 146.572C154.821 145.179 156.91 148.381 157.915 151.261C158.92 154.141 158.761 169.151 155.096 169.793Z" fill="#F7D38E"/>
<path d="M140.13 163.163C140.13 163.163 141.028 151.429 153.925 150.213C162.76 149.381 157.834 141.777 156.893 140.566C156.893 140.566 150.126 141.493 143.187 142.64C128.624 145.046 138.7 161.335 140.13 163.163Z" fill="#D4973C"/>
<path d="M208.712 248.333L209.952 248.736L220.504 216.259L219.264 215.856L208.712 248.333Z" fill="black"/>
<path d="M174.113 247.98L209.939 248.743L209.984 246.601L174.159 245.838L174.113 247.98Z" fill="black"/>
<path d="M178.021 243.878C178.021 243.878 183.579 245.983 187.339 245.3C191.098 244.617 197.162 247.104 198.022 248.543C198.883 249.982 198.456 250.465 196.6 250.724C194.744 250.982 188.067 252.995 184.058 250.961C180.05 248.927 174.577 248.258 174.577 248.258L178.021 243.878Z" fill="#F7D38E"/>
<path d="M134.076 188.685C134.076 188.685 135.436 235.096 145.629 240.36C150.659 242.968 173.363 250.117 180.183 251.338C180.183 251.338 182.015 250.153 182.221 244.558C182.221 244.558 158.889 232.931 155.973 227.693C151.631 219.894 162.44 198.52 156.741 191.018C151.043 183.515 140.495 179.386 134.076 188.685Z" fill="#AB1010"/>
<path d="M263.946 299.516H448.832C461.734 299.516 472.194 289.057 472.194 276.154L472.194 23.3629C472.194 10.4599 461.734 3.05176e-05 448.832 3.05176e-05H263.946C251.043 3.05176e-05 240.583 10.4599 240.583 23.3629L240.583 276.154C240.583 289.057 251.043 299.516 263.946 299.516Z" fill="url(#paint0_linear)"/>
<path d="M263.342 269.199H449.815L449.815 31.3915L263.342 31.3915V269.199Z" fill="white"/>
<path d="M423.373 258.759C420.764 258.759 418.261 257.723 416.416 255.877C414.57 254.032 413.534 251.529 413.534 248.92V112.891C413.534 110.282 414.571 107.78 416.416 105.935C418.262 104.09 420.764 103.054 423.373 103.054C425.983 103.054 428.485 104.09 430.33 105.935C432.175 107.78 433.212 110.282 433.213 112.891V248.92C433.213 251.529 432.176 254.032 430.331 255.877C428.486 257.723 425.983 258.759 423.373 258.759Z" fill="#801FBC"/>
<path d="M423.373 258.759C420.764 258.759 418.261 257.723 416.416 255.877C414.57 254.032 413.534 251.529 413.534 248.92V112.891C413.534 110.282 414.571 107.78 416.416 105.935C418.262 104.09 420.764 103.054 423.373 103.054C425.983 103.054 428.485 104.09 430.33 105.935C432.175 107.78 433.212 110.282 433.213 112.891V248.92C433.213 251.529 432.176 254.032 430.331 255.877C428.486 257.723 425.983 258.759 423.373 258.759Z" fill="#801FBC"/>
<path d="M391.136 258.76C389.844 258.76 388.564 258.505 387.37 258.01C386.177 257.516 385.092 256.791 384.179 255.877C383.265 254.964 382.541 253.879 382.046 252.685C381.552 251.491 381.298 250.212 381.298 248.92V69.4793C381.298 66.8703 382.335 64.3682 384.18 62.5233C386.024 60.6785 388.527 59.6421 391.136 59.6421C392.428 59.6418 393.707 59.896 394.901 60.3902C396.095 60.8845 397.179 61.609 398.093 62.5225C399.007 63.436 399.732 64.5206 400.226 65.7142C400.721 66.9079 400.975 68.1873 400.975 69.4793V248.92C400.975 250.212 400.721 251.492 400.227 252.686C399.732 253.88 399.008 254.964 398.094 255.878C397.18 256.792 396.095 257.517 394.901 258.011C393.707 258.506 392.428 258.76 391.136 258.76Z" fill="#801FBC"/>
<path d="M391.136 258.76C389.844 258.76 388.564 258.505 387.37 258.01C386.177 257.516 385.092 256.791 384.179 255.877C383.265 254.964 382.541 253.879 382.046 252.685C381.552 251.491 381.298 250.212 381.298 248.92V69.4793C381.298 66.8703 382.335 64.3682 384.18 62.5233C386.024 60.6785 388.527 59.6421 391.136 59.6421C392.428 59.6418 393.707 59.896 394.901 60.3902C396.095 60.8845 397.179 61.609 398.093 62.5225C399.007 63.436 399.732 64.5206 400.226 65.7142C400.721 66.9079 400.975 68.1873 400.975 69.4793V248.92C400.975 250.212 400.721 251.492 400.227 252.686C399.732 253.88 399.008 254.964 398.094 255.878C397.18 256.792 396.095 257.517 394.901 258.011C393.707 258.506 392.428 258.76 391.136 258.76Z" fill="#801FBC"/>
<path d="M355.961 258.759C353.351 258.759 350.849 257.723 349.003 255.878C347.158 254.032 346.121 251.529 346.121 248.92V150.548C346.122 147.938 347.159 145.436 349.004 143.591C350.849 141.747 353.352 140.71 355.961 140.71C358.57 140.71 361.072 141.747 362.917 143.592C364.762 145.436 365.798 147.939 365.798 150.548V248.92C365.798 250.212 365.544 251.491 365.05 252.685C364.556 253.879 363.831 254.964 362.918 255.877C362.004 256.791 360.92 257.516 359.726 258.01C358.532 258.505 357.253 258.759 355.961 258.759Z" fill="#801FBC"/>
<path d="M355.961 258.759C353.351 258.759 350.849 257.723 349.003 255.878C347.158 254.032 346.121 251.529 346.121 248.92V150.548C346.122 147.938 347.159 145.436 349.004 143.591C350.849 141.747 353.352 140.71 355.961 140.71C358.57 140.71 361.072 141.747 362.917 143.592C364.762 145.436 365.798 147.939 365.798 150.548V248.92C365.798 250.212 365.544 251.491 365.05 252.685C364.556 253.879 363.831 254.964 362.918 255.877C362.004 256.791 360.92 257.516 359.726 258.01C358.532 258.505 357.253 258.759 355.961 258.759Z" fill="#801FBC"/>
<path d="M321.732 258.759C319.122 258.759 316.62 257.723 314.774 255.878C312.929 254.032 311.892 251.529 311.892 248.92V96.073C311.892 93.4634 312.929 90.9606 314.774 89.1153C316.62 87.2701 319.122 86.2334 321.732 86.2334C324.342 86.2334 326.844 87.2701 328.69 89.1153C330.535 90.9606 331.572 93.4634 331.572 96.073V248.92C331.572 251.529 330.535 254.032 328.69 255.878C326.844 257.723 324.342 258.759 321.732 258.759Z" fill="#801FBC"/>
<path d="M321.732 258.759C319.122 258.759 316.62 257.723 314.774 255.878C312.929 254.032 311.892 251.529 311.892 248.92V96.073C311.892 93.4634 312.929 90.9606 314.774 89.1153C316.62 87.2701 319.122 86.2334 321.732 86.2334C324.342 86.2334 326.844 87.2701 328.69 89.1153C330.535 90.9606 331.572 93.4634 331.572 96.073V248.92C331.572 251.529 330.535 254.032 328.69 255.878C326.844 257.723 324.342 258.759 321.732 258.759Z" fill="#801FBC"/>
<path d="M297.165 173.652V248.92C297.165 250.212 296.911 251.492 296.417 252.686C295.922 253.88 295.198 254.965 294.284 255.878C293.37 256.792 292.285 257.517 291.091 258.011C289.897 258.506 288.618 258.76 287.326 258.76C286.033 258.76 284.754 258.505 283.56 258.011C282.367 257.516 281.282 256.791 280.369 255.877C279.455 254.964 278.731 253.879 278.236 252.685C277.742 251.491 277.488 250.212 277.488 248.92V173.652C277.488 171.043 278.525 168.54 280.369 166.695C282.214 164.85 284.716 163.813 287.326 163.812C289.935 163.812 292.438 164.849 294.283 166.694C296.128 168.54 297.165 171.042 297.165 173.652Z" fill="#801FBC"/>
<path d="M297.165 173.652V248.92C297.165 250.212 296.911 251.492 296.417 252.686C295.922 253.88 295.198 254.965 294.284 255.878C293.37 256.792 292.285 257.517 291.091 258.011C289.897 258.506 288.618 258.76 287.326 258.76C286.033 258.76 284.754 258.505 283.56 258.011C282.367 257.516 281.282 256.791 280.369 255.877C279.455 254.964 278.731 253.879 278.236 252.685C277.742 251.491 277.488 250.212 277.488 248.92V173.652C277.488 171.043 278.525 168.54 280.369 166.695C282.214 164.85 284.716 163.813 287.326 163.812C289.935 163.812 292.438 164.849 294.283 166.694C296.128 168.54 297.165 171.042 297.165 173.652Z" fill="#801FBC"/>
<path d="M312.826 74.0471H329.49C329.722 74.0385 329.953 74.0767 330.17 74.1595C330.387 74.2423 330.585 74.3679 330.752 74.5289C330.919 74.6899 331.052 74.8829 331.142 75.0964C331.233 75.3099 331.28 75.5396 331.28 75.7716C331.28 76.0036 331.233 76.2332 331.142 76.4467C331.052 76.6602 330.919 76.8532 330.752 77.0142C330.585 77.1752 330.387 77.3008 330.17 77.3836C329.953 77.4664 329.722 77.5046 329.49 77.496H312.826C312.38 77.4795 311.958 77.2906 311.648 76.969C311.338 76.6474 311.165 76.2182 311.165 75.7716C311.165 75.325 311.338 74.8957 311.648 74.5742C311.958 74.2526 312.38 74.0636 312.826 74.0471Z" fill="#1074AB"/>
<path d="M325.698 80.3217H329.49C329.947 80.3217 330.386 80.5032 330.709 80.8264C331.032 81.1496 331.214 81.5879 331.214 82.0449C331.214 82.502 331.032 82.9403 330.709 83.2635C330.386 83.5867 329.947 83.7682 329.49 83.7682H325.698C325.241 83.7682 324.802 83.5867 324.479 83.2635C324.156 82.9403 323.974 82.502 323.974 82.0449C323.974 81.5879 324.156 81.1496 324.479 80.8264C324.802 80.5032 325.241 80.3217 325.698 80.3217Z" fill="#1074AB"/>
<path d="M381.495 47.5885H398.159C398.605 47.6051 399.028 47.794 399.338 48.1156C399.648 48.4372 399.821 48.8664 399.821 49.313C399.821 49.7596 399.648 50.1888 399.338 50.5104C399.028 50.832 398.605 51.0209 398.159 51.0375H381.495C381.049 51.0209 380.626 50.832 380.316 50.5104C380.006 50.1888 379.833 49.7596 379.833 49.313C379.833 48.8664 380.006 48.4372 380.316 48.1156C380.626 47.794 381.049 47.6051 381.495 47.5885Z" fill="#1074AB"/>
<path d="M394.364 53.863H398.157C398.613 53.8643 399.051 54.0463 399.374 54.3692C399.697 54.6921 399.879 55.1297 399.88 55.5863C399.879 56.043 399.697 56.4806 399.374 56.8035C399.051 57.1264 398.613 57.3084 398.157 57.3096H394.364C393.907 57.3084 393.47 57.1264 393.147 56.8035C392.824 56.4806 392.642 56.043 392.641 55.5863C392.642 55.1297 392.824 54.6921 393.147 54.3692C393.47 54.0463 393.907 53.8643 394.364 53.863Z" fill="#1074AB"/>
<path d="M414.825 90.9624H431.489C431.946 90.9624 432.385 91.144 432.708 91.4671C433.031 91.7903 433.213 92.2287 433.213 92.6857C433.213 93.1427 433.031 93.5811 432.708 93.9042C432.385 94.2274 431.946 94.409 431.489 94.409H414.825C414.368 94.409 413.93 94.2274 413.607 93.9042C413.284 93.5811 413.102 93.1427 413.102 92.6857C413.102 92.2287 413.284 91.7903 413.607 91.4671C413.93 91.144 414.368 90.9624 414.825 90.9624Z" fill="#1074AB"/>
<path d="M427.692 97.2345H431.485C431.942 97.2357 432.379 97.4176 432.703 97.7405C433.026 98.0633 433.209 98.5009 433.21 98.9578C433.209 99.4149 433.026 99.8527 432.703 100.176C432.38 100.499 431.942 100.682 431.485 100.683H427.692C427.235 100.682 426.798 100.499 426.475 100.176C426.152 99.8525 425.97 99.4147 425.969 98.9578C425.97 98.5011 426.152 98.0635 426.475 97.7406C426.798 97.4177 427.235 97.2357 427.692 97.2345Z" fill="#1074AB"/>
<path d="M347.629 128.633H364.293C364.739 128.65 365.162 128.839 365.472 129.16C365.781 129.482 365.955 129.911 365.955 130.358C365.955 130.804 365.781 131.233 365.472 131.555C365.162 131.877 364.739 132.065 364.293 132.082H347.629C347.183 132.065 346.76 131.877 346.45 131.555C346.14 131.233 345.967 130.804 345.967 130.358C345.967 129.911 346.14 129.482 346.45 129.16C346.76 128.839 347.183 128.65 347.629 128.633Z" fill="#1074AB"/>
<path d="M360.498 134.907H364.291C364.747 134.909 365.185 135.091 365.508 135.414C365.831 135.736 366.013 136.174 366.014 136.631C366.013 137.087 365.831 137.525 365.508 137.848C365.185 138.171 364.747 138.353 364.291 138.354H360.498C360.041 138.353 359.604 138.171 359.281 137.848C358.958 137.525 358.776 137.087 358.775 136.631C358.776 136.174 358.958 135.736 359.281 135.414C359.604 135.091 360.041 134.909 360.498 134.907Z" fill="#1074AB"/>
<path d="M279.001 151.669H295.665C295.896 151.66 296.128 151.698 296.344 151.781C296.561 151.864 296.759 151.99 296.926 152.151C297.093 152.312 297.226 152.505 297.317 152.718C297.407 152.932 297.454 153.161 297.454 153.393C297.454 153.625 297.407 153.855 297.317 154.068C297.226 154.282 297.093 154.475 296.926 154.636C296.759 154.797 296.561 154.923 296.344 155.005C296.128 155.088 295.896 155.126 295.665 155.118H279.001C278.554 155.101 278.132 154.912 277.822 154.591C277.512 154.269 277.339 153.84 277.339 153.393C277.339 152.947 277.512 152.517 277.822 152.196C278.132 151.874 278.554 151.685 279.001 151.669Z" fill="#1074AB"/>
<path d="M291.862 157.943H295.655C296.112 157.943 296.55 158.125 296.874 158.448C297.197 158.771 297.378 159.209 297.378 159.667C297.378 160.124 297.197 160.562 296.874 160.885C296.55 161.208 296.112 161.39 295.655 161.39H291.862C291.405 161.39 290.967 161.208 290.644 160.885C290.321 160.562 290.139 160.124 290.139 159.667C290.139 159.209 290.321 158.771 290.644 158.448C290.967 158.125 291.405 157.943 291.862 157.943Z" fill="#1074AB"/>
<path d="M287.326 146.764C286.115 146.762 284.932 146.401 283.927 145.727C282.922 145.053 282.139 144.095 281.677 142.976C281.216 141.857 281.096 140.627 281.334 139.44C281.571 138.253 282.155 137.163 283.012 136.308C283.869 135.453 284.96 134.871 286.147 134.636C287.335 134.4 288.565 134.522 289.683 134.986C290.801 135.45 291.757 136.235 292.429 137.241C293.101 138.248 293.46 139.431 293.46 140.642C293.458 142.267 292.811 143.825 291.661 144.973C290.51 146.121 288.951 146.766 287.326 146.764ZM287.326 136.889C286.584 136.892 285.86 137.114 285.244 137.527C284.629 137.941 284.149 138.528 283.867 139.214C283.585 139.9 283.512 140.654 283.659 141.381C283.805 142.108 284.163 142.775 284.688 143.299C285.213 143.823 285.882 144.179 286.61 144.323C287.337 144.467 288.091 144.392 288.776 144.107C289.461 143.823 290.046 143.342 290.458 142.725C290.87 142.108 291.09 141.383 291.09 140.642C291.089 140.148 290.991 139.659 290.802 139.204C290.612 138.748 290.335 138.334 289.985 137.985C289.636 137.637 289.221 137.361 288.764 137.173C288.308 136.985 287.819 136.888 287.326 136.889Z" fill="#801FBC"/>
<path d="M287.326 146.764C286.115 146.762 284.932 146.401 283.927 145.727C282.922 145.053 282.139 144.095 281.677 142.976C281.216 141.857 281.096 140.627 281.334 139.44C281.571 138.253 282.155 137.163 283.012 136.308C283.869 135.453 284.96 134.871 286.147 134.636C287.335 134.4 288.565 134.522 289.683 134.986C290.801 135.45 291.757 136.235 292.429 137.241C293.101 138.248 293.46 139.431 293.46 140.642C293.458 142.267 292.811 143.825 291.661 144.973C290.51 146.121 288.951 146.766 287.326 146.764ZM287.326 136.889C286.584 136.892 285.86 137.114 285.244 137.527C284.629 137.941 284.149 138.528 283.867 139.214C283.585 139.9 283.512 140.654 283.659 141.381C283.805 142.108 284.163 142.775 284.688 143.299C285.213 143.823 285.882 144.179 286.61 144.323C287.337 144.467 288.091 144.392 288.776 144.107C289.461 143.823 290.046 143.342 290.458 142.725C290.87 142.108 291.09 141.383 291.09 140.642C291.089 140.148 290.991 139.659 290.802 139.204C290.612 138.748 290.335 138.334 289.985 137.985C289.636 137.637 289.221 137.361 288.764 137.173C288.308 136.985 287.819 136.888 287.326 136.889Z" fill="#E1B0FF"/>
<path d="M284.718 136.889C284.404 136.889 284.103 136.763 283.881 136.541L265.489 118.139H115.975C115.661 118.139 115.359 118.014 115.137 117.792C114.915 117.57 114.79 117.268 114.79 116.954C114.79 116.64 114.915 116.338 115.137 116.116C115.359 115.894 115.661 115.769 115.975 115.769H266.461L285.557 134.877C285.723 135.042 285.837 135.254 285.882 135.484C285.928 135.714 285.905 135.953 285.815 136.17C285.725 136.387 285.573 136.572 285.378 136.702C285.182 136.832 284.953 136.901 284.718 136.901V136.889Z" fill="#801FBC"/>
<path d="M284.718 136.889C284.404 136.889 284.103 136.763 283.881 136.541L265.489 118.139H115.975C115.661 118.139 115.359 118.014 115.137 117.792C114.915 117.57 114.79 117.268 114.79 116.954C114.79 116.64 114.915 116.338 115.137 116.116C115.359 115.894 115.661 115.769 115.975 115.769H266.461L285.557 134.877C285.723 135.042 285.837 135.254 285.882 135.484C285.928 135.714 285.905 135.953 285.815 136.17C285.725 136.387 285.573 136.572 285.378 136.702C285.182 136.832 284.953 136.901 284.718 136.901V136.889Z" fill="#E1B0FF"/>
<path d="M322.54 275.888C321.329 275.888 320.145 275.529 319.137 274.856C318.13 274.183 317.345 273.226 316.881 272.106C316.418 270.987 316.297 269.755 316.533 268.567C316.77 267.379 317.353 266.288 318.21 265.431C319.067 264.574 320.159 263.991 321.347 263.755C322.535 263.519 323.767 263.641 324.886 264.105C326.005 264.569 326.962 265.354 327.634 266.362C328.307 267.369 328.666 268.554 328.666 269.765C328.664 271.389 328.018 272.946 326.869 274.094C325.721 275.241 324.164 275.887 322.54 275.888ZM322.54 266.011C321.798 266.011 321.072 266.231 320.454 266.643C319.837 267.056 319.356 267.642 319.072 268.328C318.787 269.015 318.713 269.77 318.858 270.498C319.003 271.226 319.36 271.895 319.885 272.42C320.411 272.945 321.08 273.303 321.808 273.448C322.536 273.593 323.291 273.518 323.977 273.234C324.663 272.95 325.25 272.469 325.662 271.851C326.075 271.234 326.295 270.508 326.295 269.765C326.295 268.77 325.899 267.815 325.195 267.111C324.491 266.407 323.536 266.011 322.54 266.011Z" fill="#801FBC"/>
<path d="M322.54 275.888C321.329 275.888 320.145 275.529 319.137 274.856C318.13 274.183 317.345 273.226 316.881 272.106C316.418 270.987 316.297 269.755 316.533 268.567C316.77 267.379 317.353 266.288 318.21 265.431C319.067 264.574 320.159 263.991 321.347 263.755C322.535 263.519 323.767 263.641 324.886 264.105C326.005 264.569 326.962 265.354 327.634 266.362C328.307 267.369 328.666 268.554 328.666 269.765C328.664 271.389 328.018 272.946 326.869 274.094C325.721 275.241 324.164 275.887 322.54 275.888ZM322.54 266.011C321.798 266.011 321.072 266.231 320.454 266.643C319.837 267.056 319.356 267.642 319.072 268.328C318.787 269.015 318.713 269.77 318.858 270.498C319.003 271.226 319.36 271.895 319.885 272.42C320.411 272.945 321.08 273.303 321.808 273.448C322.536 273.593 323.291 273.518 323.977 273.234C324.663 272.95 325.25 272.469 325.662 271.851C326.075 271.234 326.295 270.508 326.295 269.765C326.295 268.77 325.899 267.815 325.195 267.111C324.491 266.407 323.536 266.011 322.54 266.011Z" fill="#E1B0FF"/>
<path d="M491.52 294.643H343.407L324.311 275.547C324.201 275.437 324.113 275.306 324.054 275.162C323.994 275.018 323.963 274.864 323.963 274.708C323.963 274.553 323.994 274.398 324.053 274.255C324.113 274.111 324.2 273.98 324.31 273.87C324.42 273.759 324.551 273.672 324.694 273.612C324.838 273.553 324.992 273.522 325.148 273.522C325.304 273.522 325.458 273.552 325.602 273.612C325.746 273.671 325.877 273.758 325.987 273.868L344.388 292.272H491.52C491.835 292.272 492.136 292.397 492.358 292.62C492.581 292.842 492.706 293.143 492.706 293.458C492.706 293.772 492.581 294.073 492.358 294.296C492.136 294.518 491.835 294.643 491.52 294.643Z" fill="#801FBC"/>
<path d="M491.52 294.643H343.407L324.311 275.547C324.201 275.437 324.113 275.306 324.054 275.162C323.994 275.018 323.963 274.864 323.963 274.708C323.963 274.553 323.994 274.398 324.053 274.255C324.113 274.111 324.2 273.98 324.31 273.87C324.42 273.759 324.551 273.672 324.694 273.612C324.838 273.553 324.992 273.522 325.148 273.522C325.304 273.522 325.458 273.552 325.602 273.612C325.746 273.671 325.877 273.758 325.987 273.868L344.388 292.272H491.52C491.835 292.272 492.136 292.397 492.358 292.62C492.581 292.842 492.706 293.143 492.706 293.458C492.706 293.772 492.581 294.073 492.358 294.296C492.136 294.518 491.835 294.643 491.52 294.643Z" fill="#E1B0FF"/>
<path d="M390.277 42.8476C389.066 42.8476 387.883 42.4885 386.876 41.8158C385.869 41.143 385.084 40.1867 384.621 39.0679C384.157 37.9491 384.036 36.7181 384.272 35.5303C384.509 34.3426 385.092 33.2517 385.948 32.3954C386.804 31.5391 387.895 30.956 389.083 30.7197C390.271 30.4835 391.502 30.6047 392.621 31.0681C393.739 31.5315 394.696 32.3163 395.368 33.3232C396.041 34.3301 396.4 35.5139 396.4 36.7248C396.398 38.3481 395.753 39.9044 394.605 41.0522C393.457 42.2001 391.901 42.8457 390.277 42.8476ZM390.277 32.9725C389.535 32.9725 388.81 33.1925 388.193 33.6049C387.576 34.0172 387.095 34.6032 386.811 35.2889C386.527 35.9745 386.452 36.729 386.597 37.4569C386.742 38.1848 387.099 38.8534 387.624 39.3782C388.149 39.9029 388.818 40.2603 389.545 40.4051C390.273 40.5499 391.028 40.4756 391.713 40.1916C392.399 39.9076 392.985 39.4266 393.397 38.8095C393.81 38.1925 394.03 37.467 394.03 36.7248C394.029 35.73 393.633 34.7763 392.929 34.0729C392.226 33.3695 391.272 32.9737 390.277 32.9725Z" fill="#801FBC"/>
<path d="M390.277 42.8476C389.066 42.8476 387.883 42.4885 386.876 41.8158C385.869 41.143 385.084 40.1867 384.621 39.0679C384.157 37.9491 384.036 36.7181 384.272 35.5303C384.509 34.3426 385.092 33.2517 385.948 32.3954C386.804 31.5391 387.895 30.956 389.083 30.7197C390.271 30.4835 391.502 30.6047 392.621 31.0681C393.739 31.5315 394.696 32.3163 395.368 33.3232C396.041 34.3301 396.4 35.5139 396.4 36.7248C396.398 38.3481 395.753 39.9044 394.605 41.0522C393.457 42.2001 391.901 42.8457 390.277 42.8476ZM390.277 32.9725C389.535 32.9725 388.81 33.1925 388.193 33.6049C387.576 34.0172 387.095 34.6032 386.811 35.2889C386.527 35.9745 386.452 36.729 386.597 37.4569C386.742 38.1848 387.099 38.8534 387.624 39.3782C388.149 39.9029 388.818 40.2603 389.545 40.4051C390.273 40.5499 391.028 40.4756 391.713 40.1916C392.399 39.9076 392.985 39.4266 393.397 38.8095C393.81 38.1925 394.03 37.467 394.03 36.7248C394.029 35.73 393.633 34.7763 392.929 34.0729C392.226 33.3695 391.272 32.9737 390.277 32.9725Z" fill="#E1B0FF"/>
<path d="M387.67 32.9725C387.356 32.9718 387.055 32.8464 386.833 32.624L368.429 14.2225H218.927C218.613 14.2225 218.311 14.0976 218.089 13.8753C217.867 13.6531 217.742 13.3516 217.742 13.0373C217.742 12.7229 217.867 12.4215 218.089 12.1992C218.311 11.9769 218.613 11.8521 218.927 11.8521H369.411L388.514 30.9481C388.68 31.1139 388.793 31.3253 388.839 31.5555C388.885 31.7856 388.862 32.0243 388.772 32.2411C388.682 32.4579 388.53 32.6432 388.334 32.7734C388.139 32.9036 387.909 32.9729 387.675 32.9725H387.67Z" fill="#801FBC"/>
<path d="M387.67 32.9725C387.356 32.9718 387.055 32.8464 386.833 32.624L368.429 14.2225H218.927C218.613 14.2225 218.311 14.0976 218.089 13.8753C217.867 13.6531 217.742 13.3516 217.742 13.0373C217.742 12.7229 217.867 12.4215 218.089 12.1992C218.311 11.9769 218.613 11.8521 218.927 11.8521H369.411L388.514 30.9481C388.68 31.1139 388.793 31.3253 388.839 31.5555C388.885 31.7856 388.862 32.0243 388.772 32.2411C388.682 32.4579 388.53 32.6432 388.334 32.7734C388.139 32.9036 387.909 32.9729 387.675 32.9725H387.67Z" fill="#E1B0FF"/>
<path d="M215.891 113.026H117.675C116.878 113.026 116.114 112.71 115.551 112.147C114.988 111.583 114.671 110.819 114.671 110.023C114.671 109.629 114.749 109.238 114.9 108.874C115.051 108.51 115.272 108.179 115.551 107.9C115.83 107.621 116.161 107.4 116.526 107.25C116.89 107.099 117.28 107.022 117.675 107.022H215.891C216.285 107.022 216.675 107.099 217.04 107.25C217.404 107.4 217.735 107.621 218.014 107.9C218.293 108.179 218.514 108.51 218.665 108.874C218.816 109.238 218.894 109.629 218.894 110.023C218.894 110.819 218.577 111.583 218.014 112.147C217.451 112.71 216.687 113.026 215.891 113.026Z" fill="#1074AB"/>
<path d="M215.891 103.545H155.601C154.805 103.545 154.041 103.228 153.478 102.665C152.914 102.102 152.598 101.338 152.598 100.541C152.598 100.147 152.676 99.7565 152.827 99.3923C152.978 99.028 153.199 98.6971 153.478 98.4184C153.757 98.1397 154.088 97.9187 154.452 97.768C154.817 97.6174 155.207 97.54 155.601 97.5403H215.891C216.285 97.54 216.675 97.6174 217.04 97.768C217.404 97.9187 217.735 98.1397 218.014 98.4184C218.293 98.6971 218.514 99.028 218.665 99.3923C218.816 99.7565 218.894 100.147 218.894 100.541C218.894 101.338 218.577 102.102 218.014 102.665C217.451 103.228 216.687 103.545 215.891 103.545Z" fill="#1074AB"/>
<path d="M215.891 94.0629H155.601C154.805 94.0629 154.041 93.7464 153.478 93.1832C152.914 92.62 152.598 91.8561 152.598 91.0595C152.598 90.6653 152.676 90.2748 152.827 89.9106C152.978 89.5463 153.199 89.2154 153.478 88.9367C153.757 88.658 154.088 88.437 154.452 88.2863C154.817 88.1357 155.207 88.0583 155.601 88.0586H215.891C216.285 88.0583 216.675 88.1357 217.04 88.2863C217.404 88.437 217.735 88.658 218.014 88.9367C218.293 89.2154 218.514 89.5463 218.665 89.9106C218.816 90.2748 218.894 90.6653 218.894 91.0595C218.894 91.8561 218.577 92.62 218.014 93.1832C217.451 93.7464 216.687 94.0629 215.891 94.0629Z" fill="#1074AB"/>
<path d="M318.157 8.4956H219.939C219.143 8.4956 218.38 8.17943 217.817 7.61664C217.254 7.05386 216.938 6.29055 216.938 5.49465C216.938 5.10036 217.015 4.70988 217.166 4.34551C217.317 3.98115 217.538 3.65004 217.816 3.37113C218.095 3.09221 218.426 2.87095 218.79 2.71999C219.154 2.56903 219.545 2.49133 219.939 2.49133H318.157C318.552 2.49133 318.942 2.56903 319.306 2.71999C319.671 2.87095 320.002 3.09221 320.28 3.37113C320.559 3.65004 320.78 3.98115 320.931 4.34551C321.081 4.70988 321.159 5.10036 321.158 5.49465C321.158 5.88874 321.081 6.27897 320.93 6.64306C320.779 7.00716 320.558 7.33798 320.279 7.61664C320.001 7.89531 319.67 8.11635 319.306 8.26717C318.942 8.41798 318.551 8.4956 318.157 8.4956Z" fill="#1074AB"/>
<path d="M405.972 339.42C414.32 331.073 414.32 317.539 405.972 309.192C397.625 300.845 384.092 300.845 375.745 309.192C367.398 317.539 367.398 331.073 375.745 339.42C384.092 347.767 397.625 347.767 405.972 339.42Z" fill="#1074AB"/>
<path d="M390.858 306.239C394.42 306.238 397.902 307.29 400.867 309.262C403.832 311.235 406.148 314.04 407.524 317.324C408.9 320.609 409.274 324.227 408.6 327.724C407.926 331.221 406.233 334.441 403.734 336.978L390.858 324.306L373.974 330.749C372.932 328.013 372.571 325.065 372.921 322.158C373.271 319.251 374.321 316.473 375.982 314.062C377.643 311.651 379.864 309.679 382.456 308.317C385.047 306.954 387.93 306.241 390.858 306.239Z" fill="white"/>
<path d="M393.492 315.133H401.181C401.327 315.133 401.467 315.191 401.57 315.294C401.673 315.397 401.731 315.537 401.731 315.683C401.731 315.828 401.673 315.968 401.57 316.072C401.467 316.175 401.327 316.233 401.181 316.233H393.492C393.346 316.233 393.206 316.175 393.103 316.072C393 315.968 392.942 315.828 392.942 315.683C392.942 315.537 393.001 315.397 393.104 315.294C393.207 315.191 393.346 315.133 393.492 315.133Z" fill="#801FBC"/>
<path d="M393.492 315.133H401.181C401.327 315.133 401.467 315.191 401.57 315.294C401.673 315.397 401.731 315.537 401.731 315.683C401.731 315.828 401.673 315.968 401.57 316.072C401.467 316.175 401.327 316.233 401.181 316.233H393.492C393.346 316.233 393.206 316.175 393.103 316.072C393 315.968 392.942 315.828 392.942 315.683C392.942 315.537 393.001 315.397 393.104 315.294C393.207 315.191 393.346 315.133 393.492 315.133Z" fill="#801FBC"/>
<path d="M393.492 316.873H401.181C401.327 316.873 401.467 316.931 401.57 317.034C401.673 317.137 401.731 317.277 401.731 317.423C401.731 317.568 401.673 317.708 401.57 317.811C401.467 317.915 401.327 317.973 401.181 317.973H393.492C393.346 317.973 393.206 317.915 393.103 317.811C393 317.708 392.942 317.568 392.942 317.423C392.942 317.277 393 317.137 393.103 317.034C393.206 316.931 393.346 316.873 393.492 316.873Z" fill="#801FBC"/>
<path d="M393.492 316.873H401.181C401.327 316.873 401.467 316.931 401.57 317.034C401.673 317.137 401.731 317.277 401.731 317.423C401.731 317.568 401.673 317.708 401.57 317.811C401.467 317.915 401.327 317.973 401.181 317.973H393.492C393.346 317.973 393.206 317.915 393.103 317.811C393 317.708 392.942 317.568 392.942 317.423C392.942 317.277 393 317.137 393.103 317.034C393.206 316.931 393.346 316.873 393.492 316.873Z" fill="#801FBC"/>
<path d="M398.012 318.613H401.188C401.334 318.613 401.474 318.671 401.577 318.774C401.68 318.877 401.738 319.017 401.738 319.162C401.738 319.308 401.68 319.448 401.577 319.551C401.474 319.654 401.334 319.712 401.188 319.712H398.012C397.866 319.712 397.726 319.654 397.623 319.551C397.52 319.448 397.462 319.308 397.462 319.162C397.462 319.017 397.52 318.877 397.623 318.774C397.726 318.671 397.866 318.613 398.012 318.613Z" fill="#801FBC"/>
<path d="M398.012 318.613H401.188C401.334 318.613 401.474 318.671 401.577 318.774C401.68 318.877 401.738 319.017 401.738 319.162C401.738 319.308 401.68 319.448 401.577 319.551C401.474 319.654 401.334 319.712 401.188 319.712H398.012C397.866 319.712 397.726 319.654 397.623 319.551C397.52 319.448 397.462 319.308 397.462 319.162C397.462 319.017 397.52 318.877 397.623 318.774C397.726 318.671 397.866 318.613 398.012 318.613Z" fill="#801FBC"/>
<path d="M372.141 314.275L380.597 305.819H372.141V314.275Z" fill="#1074AB"/>
<path d="M484.421 325.403C485.01 313.613 475.929 303.578 464.14 302.989C452.35 302.4 442.315 311.48 441.726 323.27C441.137 335.06 450.217 345.095 462.007 345.684C473.796 346.273 483.832 337.193 484.421 325.403Z" fill="#1074AB"/>
<path d="M444.97 324.306C444.97 320.23 446.348 316.273 448.88 313.079C451.413 309.885 454.951 307.641 458.92 306.713C462.889 305.784 467.056 306.224 470.743 307.963C474.43 309.701 477.421 312.636 479.229 316.289C481.038 319.942 481.558 324.099 480.705 328.085C479.852 332.072 477.676 335.652 474.53 338.245C471.385 340.838 467.456 342.291 463.38 342.369C459.304 342.446 455.323 341.143 452.081 338.671L463.037 324.306L446.155 330.749C445.37 328.692 444.968 326.508 444.97 324.306Z" fill="white"/>
<path d="M465.825 315.133H473.515C473.66 315.133 473.8 315.191 473.903 315.294C474.006 315.397 474.064 315.537 474.065 315.683C474.065 315.828 474.007 315.968 473.904 316.072C473.8 316.175 473.661 316.233 473.515 316.233H465.825C465.679 316.233 465.539 316.175 465.436 316.072C465.333 315.968 465.275 315.828 465.275 315.683C465.276 315.537 465.334 315.397 465.437 315.294C465.54 315.191 465.679 315.133 465.825 315.133Z" fill="#801FBC"/>
<path d="M465.825 315.133H473.515C473.66 315.133 473.8 315.191 473.903 315.294C474.006 315.397 474.064 315.537 474.065 315.683C474.065 315.828 474.007 315.968 473.904 316.072C473.8 316.175 473.661 316.233 473.515 316.233H465.825C465.679 316.233 465.539 316.175 465.436 316.072C465.333 315.968 465.275 315.828 465.275 315.683C465.276 315.537 465.334 315.397 465.437 315.294C465.54 315.191 465.679 315.133 465.825 315.133Z" fill="#801FBC"/>
<path d="M465.825 316.873H473.515C473.661 316.873 473.8 316.931 473.904 317.034C474.007 317.137 474.065 317.277 474.065 317.423C474.065 317.568 474.007 317.708 473.904 317.811C473.8 317.915 473.661 317.973 473.515 317.973H465.825C465.679 317.973 465.539 317.915 465.436 317.811C465.333 317.708 465.275 317.568 465.275 317.423C465.275 317.277 465.333 317.137 465.436 317.034C465.539 316.931 465.679 316.873 465.825 316.873Z" fill="#801FBC"/>
<path d="M465.825 316.873H473.515C473.661 316.873 473.8 316.931 473.904 317.034C474.007 317.137 474.065 317.277 474.065 317.423C474.065 317.568 474.007 317.708 473.904 317.811C473.8 317.915 473.661 317.973 473.515 317.973H465.825C465.679 317.973 465.539 317.915 465.436 317.811C465.333 317.708 465.275 317.568 465.275 317.423C465.275 317.277 465.333 317.137 465.436 317.034C465.539 316.931 465.679 316.873 465.825 316.873Z" fill="#801FBC"/>
<path d="M470.338 318.613H473.515C473.66 318.613 473.8 318.671 473.903 318.774C474.007 318.877 474.065 319.017 474.065 319.162C474.065 319.308 474.007 319.448 473.903 319.551C473.8 319.654 473.66 319.712 473.515 319.712H470.338C470.192 319.712 470.053 319.654 469.949 319.551C469.846 319.448 469.788 319.308 469.788 319.162C469.788 319.017 469.846 318.877 469.949 318.774C470.053 318.671 470.192 318.613 470.338 318.613Z" fill="#801FBC"/>
<path d="M470.338 318.613H473.515C473.66 318.613 473.8 318.671 473.903 318.774C474.007 318.877 474.065 319.017 474.065 319.162C474.065 319.308 474.007 319.448 473.903 319.551C473.8 319.654 473.66 319.712 473.515 319.712H470.338C470.192 319.712 470.053 319.654 469.949 319.551C469.846 319.448 469.788 319.308 469.788 319.162C469.788 319.017 469.846 318.877 469.949 318.774C470.053 318.671 470.192 318.613 470.338 318.613Z" fill="#801FBC"/>
<path d="M444.439 314.275L452.894 305.819H444.439V314.275Z" fill="#1074AB"/>
<path d="M541.282 375H47.1406C46.952 375 46.7711 374.925 46.6377 374.792C46.5044 374.658 46.4294 374.477 46.4294 374.289C46.4294 374.1 46.5044 373.919 46.6377 373.786C46.7711 373.653 46.952 373.578 47.1406 373.578H541.282C541.471 373.578 541.652 373.653 541.785 373.786C541.919 373.919 541.994 374.1 541.994 374.289C541.994 374.477 541.919 374.658 541.785 374.792C541.652 374.925 541.471 375 541.282 375Z" fill="#162453"/>
<defs>
<linearGradient id="paint0_linear" x1="240.586" y1="149.758" x2="472.197" y2="149.758" gradientUnits="userSpaceOnUse">
<stop stop-color="#2581C4"/>
<stop offset="1" stop-color="#2581C4"/>
</linearGradient>
</defs>
</svg>
