<svg width="777" height="319" viewBox="0 0 777 319" fill="none" xmlns="http://www.w3.org/2000/svg">
<path d="M49.5446 318.024C49.5446 318.024 7.04641 212.939 69.2212 150.195C149.415 69.2748 253.048 136.911 291.934 134.939C330.82 132.968 333.011 55.3127 449.197 46.0361C539.031 38.8645 686.567 38.3001 655.094 165.177C631.163 261.636 764.306 211.674 738.381 318.235L49.5446 318.024Z" fill="#D0E5F3"/>
<path d="M179.845 253.919C179.845 253.919 169.731 242.121 179.219 234.629C179.219 234.629 186.152 230.433 191.802 230.772C191.802 230.772 183.794 244.201 186.385 245.538C188.977 246.876 194.23 229.933 194.23 229.933C194.23 229.933 210.002 228.403 215.085 230.842C215.085 230.842 201.604 241.876 204.443 242.521C207.283 243.166 221.845 232.346 221.845 232.346C221.845 232.346 236.525 234.849 235.749 243.8C234.973 252.751 229.909 255.521 227.685 255.282C225.46 255.043 212.449 250.09 212.171 251.912C211.893 253.733 219.715 259.698 225.196 259.976C225.196 259.976 214.849 271.377 207.969 268.096C201.09 264.814 200.492 259.57 196.204 257.612C191.916 255.654 188.257 255.666 190.025 257.654C191.794 259.642 199.555 261.594 202.007 265.929C204.46 270.265 206.66 273.193 199.544 272.122C192.428 271.052 180.86 265.843 180.357 259.887L179.845 253.919Z" fill="#82CF46"/>
<path d="M228.519 244.053C228.519 244.053 188.649 242.515 179.856 253.919C179.856 253.919 177.91 259.759 171.917 265.062L170.983 267.606C170.983 267.606 177.89 260.323 180.362 259.881C180.351 259.881 176.486 245.755 228.519 244.053Z" fill="#69AB35"/>
<path d="M171.906 265.062C171.906 265.062 163.347 271.391 162.752 282.697L164.306 282.836C164.306 282.836 167.04 271.157 171.978 266.572C176.917 261.986 171.906 265.062 171.906 265.062Z" fill="#69AB35"/>
<path d="M144.49 239.084C144.49 239.084 160.574 230.074 153.069 217.85C153.069 217.85 147.063 210.342 140.628 208.412C140.628 208.412 144.059 226.643 140.628 227.071C137.197 227.499 138.27 206.494 138.27 206.494C138.27 206.494 121.327 198.343 114.678 198.986C114.678 198.986 125.187 216.782 121.755 216.357C118.324 215.931 106.528 197.912 106.528 197.912C106.528 197.912 89.1564 194.695 86.3673 204.989C83.5782 215.284 88.083 220.425 90.6524 221.07C93.2218 221.715 109.742 221.499 109.314 223.642C108.886 225.786 97.7322 229.221 91.5172 227.291C91.5172 227.291 98.3801 244.234 107.387 243.375C116.394 242.515 119.183 236.94 124.761 236.512C130.339 236.084 134.41 237.585 131.624 239.087C128.838 240.588 119.389 239.579 114.895 243.408C110.401 247.237 106.745 249.595 115.109 251.311C123.474 253.027 138.487 251.953 141.49 245.519L144.49 239.084Z" fill="#44A642"/>
<path d="M94.3036 208.198C94.3036 208.198 139.352 222.783 144.491 239.084C144.491 239.084 144.274 246.375 148.778 254.74V257.957C148.778 257.957 144.051 247.017 141.487 245.516C141.487 245.516 151.568 231.359 94.3036 208.198Z" fill="#3B9139"/>
<path d="M148.77 254.74C148.77 254.74 155.722 265.287 151.757 278.126L149.969 277.647C149.969 277.647 151.704 263.505 148.069 256.391C144.435 249.278 148.77 254.74 148.77 254.74Z" fill="#3B9139"/>
<path d="M170.079 226.66C170.079 226.66 148.876 214.786 158.781 198.671C158.781 198.671 166.695 188.778 175.187 186.233C175.187 186.233 170.666 210.262 175.187 210.829C179.709 211.396 178.299 183.689 178.299 183.689C178.299 183.689 200.612 172.944 209.39 173.798C209.39 173.798 195.537 197.264 200.061 196.697C204.585 196.13 220.135 172.385 220.135 172.385C220.135 172.385 243.035 168.144 246.711 181.714C250.387 195.284 244.447 202.069 241.055 202.918C237.662 203.766 215.895 203.474 216.459 206.31C217.024 209.147 231.725 213.66 239.923 211.115C239.923 211.115 230.877 233.45 219.003 232.318C207.13 231.187 203.454 223.837 196.104 223.273C188.754 222.708 183.382 224.688 187.055 226.665C190.729 228.642 203.184 227.313 209.11 232.36C215.035 237.407 219.852 240.519 208.832 242.78C197.811 245.04 178.015 243.628 174.072 235.147L170.079 226.66Z" fill="#4EA056"/>
<path d="M236.236 185.949C236.236 185.949 176.856 205.173 170.079 226.66C170.079 226.66 170.357 236.273 164.426 247.298V251.539C164.426 251.539 170.646 237.121 174.039 235.133C174.039 235.141 160.75 216.482 236.236 185.949Z" fill="#2E8136"/>
<path d="M164.426 247.298C164.426 247.298 155.269 261.202 160.488 278.126L162.846 277.494C162.846 277.494 160.558 258.863 165.349 249.476C170.14 240.088 164.426 247.298 164.426 247.298Z" fill="#2E8136"/>
<path d="M169.364 314.829C174.819 314.829 180.22 313.754 185.259 311.667C190.299 309.58 194.878 306.52 198.735 302.663C202.592 298.806 205.651 294.227 207.739 289.188C209.826 284.148 210.9 278.747 210.9 273.293H127.831C127.831 284.308 132.207 294.873 139.996 302.662C147.785 310.452 158.349 314.828 169.364 314.829Z" fill="#ECCFBB"/>
<path d="M179.586 314.503C177.874 314.715 176.15 314.821 174.425 314.82C163.411 314.82 152.848 310.444 145.06 302.657C137.271 294.869 132.894 284.307 132.892 273.293H143.209C143.211 283.414 146.909 293.187 153.607 300.775C160.305 308.363 169.543 313.245 179.586 314.503Z" fill="#FFEAF2"/>
<path d="M211.473 316.942H127.258C127.258 315.583 127.798 314.28 128.758 313.319C129.719 312.358 131.022 311.818 132.38 311.817H206.348C207.707 311.817 209.011 312.357 209.972 313.318C210.933 314.279 211.473 315.583 211.473 316.942Z" fill="#D6AA8C"/>
<path d="M211.846 273.293H126.466V274.566H211.846V273.293Z" fill="#D0CEF0"/>
<path d="M580.237 302.883C580.237 302.883 581.096 316.764 583.782 316.964C584.141 316.992 597.408 316.992 597.408 316.992L614.342 316.892C614.342 316.892 614.231 312.813 609.281 311.951C604.332 311.089 596.048 307.607 593.047 301.067C589.891 294.182 580.237 302.883 580.237 302.883Z" fill="#174668"/>
<path d="M571.199 138.691C571.199 138.691 579.194 143.237 581.43 143.237C583.665 143.237 592.453 141.538 594.902 142.789C597.352 144.041 601.785 149.077 602.616 150.72C604.112 153.679 596.596 152.372 593.042 149.853C592.788 149.672 592.499 149.546 592.194 149.482C591.888 149.419 591.573 149.42 591.268 149.486C589.427 149.889 585.604 150.581 583.76 149.9C581.277 148.979 568.204 147.953 568.204 147.953L571.199 138.691Z" fill="#CD8D51"/>
<path d="M510.373 76.7773C510.373 76.7773 518.66 135.679 532.383 140.954C539.154 143.56 569.089 149.46 577.931 150.053C577.931 150.053 580.1 148.293 579.572 141.132C579.572 141.132 548.219 129.623 543.764 123.363C537.135 114.045 547.88 85.3003 539.563 76.552C531.245 67.8038 517.233 64.0415 510.373 76.7773Z" fill="#0F5C87"/>
<path d="M513.165 200.874C515.596 204.913 518.301 208.78 521.26 212.45C530.158 223.693 539.866 232.966 541.559 241.728C541.943 243.635 542.466 245.51 543.125 247.34C543.831 249.348 544.701 251.458 545.708 253.641C549.49 261.85 555.14 271.051 560.785 279.413C570.543 293.873 579.717 305.933 579.717 305.933L596.54 305.216C595.867 303.531 588.529 283.568 578.713 259.175C574.725 249.273 570.487 238.739 566.397 228.587C565.852 227.23 565.309 225.881 564.767 224.541C563.519 221.432 562.287 218.37 561.086 215.392C551.87 192.487 544.526 174.237 544.526 174.237C544.526 174.237 507.681 160.294 503.855 169.348C500.702 176.792 503.271 184.086 513.165 200.874Z" fill="#424242"/>
<path d="M541.278 263.221C541.278 263.221 529.574 270.729 530.711 273.182C530.862 273.507 537.33 285.089 537.33 285.089L545.672 299.827C545.672 299.827 549.181 297.741 547.521 293C545.861 288.259 544.86 279.327 549.112 273.518C553.58 267.409 541.278 263.221 541.278 263.221Z" fill="#3D68CE"/>
<path d="M547.004 276.438C547.004 276.438 539.691 269.987 538.4 265.254C538.4 265.254 568.535 229.148 575.073 221.054C575.373 220.684 575.295 220.275 574.9 219.827C569.965 214.266 515.134 202.951 507.968 191.8C505.83 188.53 504.264 184.92 503.335 181.125C501.711 174.323 502.996 169.624 502.996 169.624L557.757 168.039C557.757 168.039 603.361 196.43 608.514 215.787C613.667 235.144 547.004 276.438 547.004 276.438Z" fill="#595959"/>
<path d="M574.9 219.827C569.964 214.266 515.134 202.951 507.968 191.8C505.83 188.53 504.264 184.92 503.335 181.125V174.195L526.61 170.536C526.61 170.536 533.211 190.835 552.749 198.46C571.068 205.593 574.536 218.251 574.9 219.827Z" fill="#484848"/>
<path d="M542.772 73.065C531.693 75.9152 513.326 65.6626 513.326 65.6626C513.326 65.6626 520.459 60.8714 523.101 50.3435C523.234 49.8124 523.354 49.2701 523.462 48.7112L529.151 47.5043L537.613 55.0847C537.613 55.0847 537.421 58.2325 536.362 63.6438C536.178 64.5865 535.97 65.5903 535.725 66.6804C538.446 68.3586 540.834 70.5228 542.772 73.065Z" fill="#CD8D51"/>
<path d="M501.6 118.984C503.185 140.326 501.099 172.783 502.898 178.405C504.453 183.255 522.155 180.371 529.218 178.753C531.835 178.152 535.002 177.299 538.272 176.286C547.399 173.458 557.343 169.424 558.408 166.429C558.45 166.316 558.483 166.201 558.508 166.084C558.598 165.67 558.591 165.241 558.488 164.83C558.132 163.303 556.762 161.651 556.6 157.878C556.419 153.657 556.447 148.687 556.289 143.343C556.289 142.742 556.272 142.083 556.208 141.485V141.263V140.921C556.055 134.962 555.741 128.686 555.374 122.479C555.143 118.586 554.879 114.709 554.57 111.008C553.775 101.445 552.702 92.9335 551.283 87.5694C548.964 78.8072 543.848 73.0928 539.193 68.905L535.825 66.0186C532.066 66.8528 527.625 66.2967 523.607 64.3891C519.258 62.3257 517.767 60.8436 516.997 61.4025C506.95 69.1469 499.726 92.8917 501.6 118.984Z" fill="#1074AB"/>
<path d="M538.272 176.3C547.399 173.472 557.343 169.437 558.408 166.443C558.45 166.33 558.483 166.215 558.508 166.098C558.508 165.681 558.508 165.263 558.488 164.844C558.132 163.317 556.761 161.665 556.6 157.892C556.419 153.671 556.447 148.701 556.289 143.357C556.289 142.756 556.272 142.097 556.208 141.499V141.263V140.921L519.316 93.9261C519.316 93.9261 494.506 145.556 538.272 176.3Z" fill="#0F5C87"/>
<path d="M537.616 55.0847C537.616 55.0847 537.424 58.2325 536.365 63.6438C528.1 60.9715 524.355 53.508 523.103 50.3435C523.237 49.8124 523.356 49.2701 523.465 48.7112L529.154 47.5043L537.616 55.0847Z" fill="#A86F3B"/>
<path d="M538.728 59.8564C538.728 59.8564 520.709 56.8477 522.753 45.6551C524.797 34.4626 523.851 26.5375 535.441 27.9835C547.032 29.4295 548.483 34.1011 548.708 38.0109C548.934 41.9206 543.467 60.3431 538.728 59.8564Z" fill="#CD8D51"/>
<path d="M609.662 155.619L611.252 156.135L624.772 114.524L623.182 114.008L609.662 155.619Z" fill="black"/>
<path d="M565.336 155.197L611.236 156.175L611.294 153.428L565.395 152.451L565.336 155.197Z" fill="black"/>
<path d="M566.266 157.352C566.266 157.352 581.004 161.245 586.543 160.834C592.083 160.422 596.674 157.794 597.372 156.421C598.07 155.047 599.529 152.611 595.764 153.062C591.999 153.512 586.866 154.313 586.696 153.587C586.527 152.861 589.755 152.934 589.755 152.934C589.755 152.934 590.731 151.515 589.502 151.463C588.273 151.41 584.689 150.439 583.357 151.104C582.025 151.769 580.798 154.229 579.825 154.127C578.852 154.024 567.484 149.004 567.484 149.004L566.266 157.352Z" fill="#CD8D51"/>
<path d="M514.03 79.1938C514.03 79.1938 515.773 138.652 528.832 145.409C535.275 148.746 564.367 157.906 573.101 159.471C573.101 159.471 575.448 157.961 575.712 150.787C575.712 150.787 545.819 135.89 542.085 129.178C536.523 119.186 550.369 91.8017 543.066 82.1831C535.764 72.5644 522.252 67.2949 514.03 79.1938Z" fill="#1074AB"/>
<path d="M523.103 50.3323C523.103 50.3323 522.898 46.4921 525.267 44.2925C525.267 44.2925 524.433 40.4412 525.965 39.8072C527.497 39.1732 527.806 42.41 528.504 41.9011C529.202 41.3922 532.31 38.9813 533.642 35.4275C534.974 31.8737 547.173 36.1783 548.594 36.8179C550.015 37.4575 554.587 35.1105 555.477 33.2029C555.477 33.2029 552.938 31.173 551.795 29.6491C550.652 28.1253 542.655 17.8448 531.496 20.7646C520.336 23.6844 518.804 29.0151 519.438 33.5839C520.072 38.1526 518.529 48.8085 523.103 50.3323Z" fill="black"/>
<path d="M184.364 73.1679L193.979 72.2502C194.355 72.2147 194.732 72.3003 195.055 72.4944C195.378 72.6886 195.631 72.9811 195.776 73.3292L203.034 90.8006C203.14 91.0556 203.184 91.3319 203.164 91.6074C203.144 91.8829 203.06 92.1498 202.918 92.3867C202.776 92.6236 202.58 92.8239 202.347 92.9715C202.113 93.1191 201.849 93.2099 201.574 93.2365L191.563 94.1903C191.181 94.227 190.798 94.1382 190.471 93.9375C190.145 93.7368 189.892 93.4351 189.753 93.078L182.884 75.5593C182.787 75.3052 182.749 75.0319 182.774 74.7608C182.8 74.4897 182.887 74.2282 183.031 73.9966C183.174 73.7651 183.369 73.5698 183.6 73.426C183.831 73.2822 184.093 73.1939 184.364 73.1679Z" fill="#5F95D3"/>
<path d="M306.274 304.02L301.172 306.726C301.172 306.726 273.589 277.478 266.952 249.412C265.77 244.406 265.283 239.457 265.798 234.768C265.798 234.768 265.395 233.498 264.686 231.248C264.655 231.151 264.624 231.05 264.591 230.948C264.285 229.963 263.918 228.804 263.506 227.488C262.177 223.248 260.345 217.444 258.262 210.837C253.46 195.629 242.478 161.34 237.787 147.072L271.526 134.867C271.526 134.867 275.358 143.604 280.856 167.346C281.704 170.447 282.555 173.873 283.358 177.607C284.256 181.837 285.096 186.461 285.794 191.455C287.102 200.875 287.774 210.373 287.807 219.883C287.827 224.132 287.724 228.537 287.471 233.083C287.287 236.42 287.782 240.869 288.711 245.911C292.963 269.01 306.274 304.02 306.274 304.02Z" fill="#A94D4D"/>
<path d="M324.739 316.942H297.487C297.487 316.942 296.47 312.593 298.258 309.634C299.843 307.015 299.236 305.524 298.063 303.358C299.51 303.985 301.078 304.28 302.654 304.223C304.014 304.145 305.449 303.528 306.708 302.797C307.882 304.134 312.907 309.829 314.478 310.958C316.246 312.237 324.191 311.781 324.739 316.942Z" fill="#8C8540"/>
<path d="M285.789 191.455L264.605 230.942C264.299 229.958 263.932 228.798 263.52 227.483C262.191 223.242 260.359 217.439 258.276 210.832C253.474 195.624 242.492 161.334 237.801 147.066L271.526 134.867C271.526 134.867 275.358 143.604 280.856 167.346C281.704 170.447 282.555 173.873 283.358 177.607C284.251 181.837 285.091 186.461 285.789 191.455Z" fill="#AE6262"/>
<path d="M193.968 104.362C193.799 104.51 185.718 96.2481 181.402 91.671L185.723 89.0376L209.326 103.856L193.968 104.362Z" fill="#E9C4BA"/>
<path d="M237.251 308.408C237.251 308.408 236.617 313.038 238.394 316.942H249.692C249.692 316.942 249.775 313.569 246.911 309.337C244.047 305.105 237.251 308.408 237.251 308.408Z" fill="#8C8540"/>
<path d="M259.513 7.02497C259.666 6.30198 261.593 -1.43129 273.592 0.234383C273.592 0.234383 267.605 -0.085403 266.143 2.31716C266.143 2.31716 270.692 -0.18551 273.765 1.4162C276.837 3.01791 277.758 9.03823 277.452 10.9152C277.146 12.7922 274.288 18.5206 272.132 18.6763C271.278 18.7014 270.427 18.5548 269.63 18.2453C270.062 19.2689 270.434 20.3172 270.742 21.3848C273.795 31.9794 267.23 40.6776 263.379 38.9313C260.912 37.8023 259.413 42.0874 259.413 42.0874L237.843 17.3805C237.843 17.3805 250.384 -0.096526 259.513 7.02497Z" fill="#AC3E00"/>
<path d="M237.437 73.2541C240.251 75.2006 243.78 76.8162 248.21 77.8395C264.813 81.677 271.176 67.6425 273.567 58.01C271.832 57.0493 269.917 56.4603 267.942 56.2804C266.741 56.1386 265.478 56.044 264.433 56.0023C262.569 54.573 259.791 48.7279 259.177 39.6543L258.396 39.8629L245.309 43.4361C245.309 43.4361 245.91 47.6072 246.202 51.5281C246.43 54.6064 246.48 57.5456 245.882 58.2658C244.862 58.4855 244.25 58.6301 244.25 58.6301C241.517 63.2759 239.236 68.173 237.437 73.2541Z" fill="#E9C4BA"/>
<path d="M245.309 43.4389C245.309 43.4389 245.91 47.5961 246.202 51.5308C253.615 50.7884 257.047 43.7308 258.396 39.8517L245.309 43.4389Z" fill="#C18A7A"/>
<path d="M243.096 47.3431C243.096 47.3431 260.692 46.3726 259.919 35.4248C259.146 24.477 260.895 16.9745 249.631 17.133C238.366 17.2915 236.478 21.6211 235.846 25.339C235.215 29.0569 238.497 47.3153 243.096 47.3431Z" fill="#E9C4BA"/>
<path d="M235.93 19.213C238.41 15.7259 240.515 16.3015 241.736 17.2081C250.965 11.2378 257.717 18.5984 257.717 18.5984C259.455 26.3845 265.442 30.4639 265.442 30.4639C265.442 30.4639 262.383 32.6885 254.858 31.2981C252.562 30.881 250.431 29.4211 248.582 27.5997C250.759 30.6412 253.341 33.3711 256.257 35.7139C247.142 32.2686 242.72 20.253 242.273 18.9794C241.269 20.0222 239.306 22.2746 238.808 24.3713C238.129 27.2215 238.149 32.9916 236.461 32.9137C236.461 32.9137 232.209 24.4436 235.93 19.213Z" fill="#AC3E00"/>
<path d="M240.257 57.7514C240.257 57.7514 268.923 50.7995 281.39 61.0716L274 116.5L275.15 147.951L219.084 134.405C219.084 134.405 220.664 128.908 231.414 114.29C242.164 99.6712 237.476 78.2288 240.257 57.7514Z" fill="#E9C4BA"/>
<path d="M256.961 138.279C256.961 138.279 256.927 138.574 256.869 139.136C256.844 139.375 256.81 139.667 256.774 140.009C256.532 142.261 256.076 146.58 255.487 152.2C253.949 166.937 251.535 190.599 249.889 209.277C248.602 223.882 247.784 235.441 248.221 237.296C249.55 242.882 248.221 309.648 248.221 309.648C243.457 311.934 236.23 309.648 236.23 309.648C236.23 309.648 223.544 249.481 225.321 241.119C227.098 232.758 224.128 225.62 224.128 225.62C214.276 179.723 215.355 154.285 217.313 142.097C217.691 139.58 218.254 137.095 218.998 134.661C219.185 134.039 219.411 133.429 219.674 132.834C241.413 126.995 256.961 138.279 256.961 138.279Z" fill="#A94D4D"/>
<path d="M275.152 147.937C268.912 150.544 262.247 151.985 255.487 152.188C250.05 152.345 244.615 151.828 239.306 150.651C228.555 148.315 220.369 143.977 217.313 142.097C217.691 139.58 218.254 137.095 218.998 134.661C225.619 129.948 241.981 134.458 255.351 139.455L256.774 139.998C267.013 143.924 275.152 147.937 275.152 147.937Z" fill="#992121"/>
<path d="M285.246 85.8508C283.856 96.3037 278.325 109.092 276.348 115.977C276.348 115.977 279.652 139.878 276.498 146.441C276.14 147.189 275.695 147.714 275.152 147.948C263.473 153.042 217.933 148.095 216.011 133.41C215.313 128.074 233.352 109.304 234.403 107.026C234.84 106.084 235.304 103.03 233.191 96.7013C230.193 105.945 224.654 116.617 219.087 118.438C212.969 120.441 188.777 102.405 188.777 102.405C188.777 102.405 188.638 100.216 191.697 98.1417C193.665 96.8098 198.184 96.3621 198.184 96.3621L213.659 103.286C215.605 99.9631 220.441 76.9747 225.841 66.5969C229.904 58.7941 240.749 57.6652 240.749 57.6652C240.749 57.6652 245.262 64.8228 256.179 63.8078C267.097 62.7929 269.09 56.1107 269.09 56.1107C269.09 56.1107 278.773 57.3982 281.757 59.8036C282.26 60.2207 287.06 72.1584 285.246 85.8508Z" fill="#9FAB10"/>
<path d="M276.348 115.978C276.348 115.978 279.652 139.878 276.498 146.441C267.981 142.167 256.877 132.937 260.256 118.519C265.164 97.569 285.247 85.8509 285.247 85.8509C283.862 96.3037 278.325 109.092 276.348 115.978Z" fill="#8E9910"/>
<path d="M269.076 99.9103C269.076 99.9103 256.952 101.668 255.985 102.574C255.017 103.481 251.672 108.736 252.092 110.566C252.511 112.396 252.461 114.281 253.204 114.151C253.946 114.02 256.368 109.373 257.283 109.159C258.198 108.945 258.952 108.325 259.063 108.728C259.174 109.131 257.203 111.092 257.3 111.648C257.397 112.204 258.952 111.553 259.647 110.474C260.342 109.395 262.086 108.859 262.347 108.189C262.608 107.518 263.81 105.288 265.442 105.391C267.074 105.494 269.076 99.9103 269.076 99.9103Z" fill="#E9C4BA"/>
<path d="M280.875 99.4348L269.076 99.9103L265.042 105.413L281.086 105.95L280.875 99.4348Z" fill="#E9C4BA"/>
<path d="M269.076 56.1107C269.076 56.1107 283.139 57.7792 287.009 63.8078C291.906 71.4326 309.2 96.7124 308.827 104.365C308.827 104.365 298.052 108.656 269.088 106.356C269.088 106.356 268.562 101.974 274.649 98.4615C274.649 98.4615 290.199 96.3315 291.912 94.8215L280.366 82.5529L269.076 56.1107Z" fill="#9FAB10"/>
<path d="M182.275 73.3597L191.888 72.4393C192.264 72.4042 192.642 72.4903 192.965 72.6849C193.289 72.8795 193.542 73.1725 193.687 73.521L200.945 90.9924C201.051 91.2475 201.096 91.5239 201.076 91.7994C201.056 92.075 200.971 92.3419 200.829 92.5786C200.686 92.8154 200.49 93.0154 200.257 93.1626C200.023 93.3097 199.758 93.3998 199.483 93.4256L189.472 94.3822C189.09 94.4184 188.707 94.3294 188.381 94.1288C188.054 93.9281 187.802 93.6266 187.662 93.2699L180.793 75.7512C180.695 75.4968 180.657 75.2232 180.682 74.9517C180.707 74.6802 180.795 74.4183 180.939 74.1865C181.083 73.9547 181.278 73.7594 181.51 73.616C181.742 73.4725 182.004 73.3848 182.275 73.3597Z" fill="#801FBC"/>
<path d="M182.275 73.3597L191.888 72.4393C192.264 72.4042 192.642 72.4903 192.965 72.6849C193.289 72.8795 193.542 73.1725 193.687 73.521L200.945 90.9924C201.051 91.2475 201.096 91.5239 201.076 91.7994C201.056 92.075 200.971 92.3419 200.829 92.5786C200.686 92.8154 200.49 93.0154 200.257 93.1626C200.023 93.3097 199.758 93.3998 199.483 93.4256L189.472 94.3822C189.09 94.4184 188.707 94.3294 188.381 94.1288C188.054 93.9281 187.802 93.6266 187.662 93.2699L180.793 75.7512C180.695 75.4968 180.657 75.2232 180.682 74.9517C180.707 74.6802 180.795 74.4183 180.939 74.1865C181.083 73.9547 181.278 73.7594 181.51 73.616C181.742 73.4725 182.004 73.3848 182.275 73.3597Z" fill="#801FBC"/>
<path d="M181.402 91.671C181.402 91.671 178.863 87.2913 179.052 86.2124C179.242 85.1334 181.872 80.1309 183.224 79.6331C185.634 78.7433 189.021 78.1927 188.09 80.7315C187.475 82.4 185.031 84.8359 185.468 85.5978C185.904 86.3598 185.726 89.0376 185.726 89.0376L181.402 91.671Z" fill="#E9C4BA"/>
<path d="M564.573 280.512C561.127 302.588 538.598 316.661 515.492 316.661H469.724L473.306 187.979C473.306 187.979 516.964 173.964 527.939 187.295C537.547 198.974 563.605 245.213 564.976 272.578C565.113 275.229 564.978 277.888 564.573 280.512Z" fill="#DBDAEF"/>
<path d="M443.082 201.605C443.082 201.605 504.814 170.091 516.513 190.677C522.722 201.608 539.81 245.213 541.073 272.578C542.296 299.168 519.26 316.653 495.563 316.653H453.476L443.082 201.605Z" fill="#465C99"/>
<path d="M454.689 219.077C454.169 221.754 449.169 224.24 441.753 226.44C440.446 226.826 439.064 227.205 437.618 227.577C412.368 234.023 367.651 237.624 363.388 235.722C357.499 233.094 321.349 104.654 321.349 104.654C321.349 104.654 355.855 103.358 383.262 102.724C392.636 102.513 401.179 102.374 407.227 102.394C407.922 102.393 408.616 102.441 409.304 102.538C411.646 102.819 413.809 103.93 415.402 105.669C419.815 110.41 420.911 119.776 424.993 130.14C429.033 140.376 433.991 153.151 438.694 165.828C439.903 169.095 441.099 172.354 442.256 175.561C442.584 176.467 442.908 177.368 443.229 178.263C450.178 197.693 455.528 214.739 454.689 219.077Z" fill="#C1D7EE"/>
<path d="M564.573 280.512C561.127 302.588 538.598 316.661 515.492 316.661H493.043C508.012 306.5 521.549 275.228 564.573 280.512Z" fill="#ADD1EC"/>
<path d="M443.229 178.247C442.081 178.061 440.601 177.816 438.924 177.532C438.6 177.221 438.332 176.856 438.132 176.453C437.456 174.968 437.918 170.7 438.688 165.806C433.986 153.128 429.028 140.354 424.987 130.118C420.905 119.765 419.81 110.399 415.397 105.647C413.802 103.912 411.639 102.805 409.298 102.527C405.656 102.577 401.81 102.641 397.842 102.713C396.435 105.511 394.004 108.147 389.808 110.355C371.085 120.21 384.975 140.52 384.975 140.52C385.109 140.612 392.405 155.111 392.405 155.111C392.38 154.099 393.362 152.286 395.044 149.978C396.287 158.648 398.306 167.496 400.723 173.837C399.399 180.533 395.995 190.504 394.188 198.129C392.734 204.213 392.283 208.796 394.686 209.024C394.982 209.048 395.279 209.048 395.575 209.024C395.428 211.342 395.935 213.654 397.038 215.698C401.729 224.769 424.289 226.401 441.747 226.434C449.163 224.235 454.163 221.749 454.683 219.071C455.528 214.739 450.178 197.693 443.229 178.247Z" fill="#B2CCE7"/>
<path d="M528.534 296.876C519.7 309.151 506.146 317.017 491.052 316.775L426.161 316.809H395.069L430.048 201.605C430.048 201.605 518.587 192.796 529.502 204.542C534.574 209.995 537.419 234.69 539.012 259.584C539.91 273.627 535.828 286.754 528.534 296.876Z" fill="#9FA9E7"/>
<path d="M528.534 296.876C519.7 309.151 506.146 317.017 491.052 316.775L426.161 316.809C433.797 310.396 457.811 292.208 483.525 293.07C503.018 293.72 518.496 293.442 528.534 296.876Z" fill="#465C99"/>
<path d="M448.754 120.98C448.754 120.98 454.146 128.961 457.222 145.729C459.914 160.419 462.277 165.842 466.167 168.856C470.058 171.871 491.725 180.761 491.725 180.761L490.107 184.559C490.107 184.559 458.342 180.232 454.775 174.924C451.207 169.615 437.606 138.254 438.663 131.03C439.72 123.805 448.754 120.98 448.754 120.98Z" fill="#E8C0B5"/>
<path d="M526.535 296.198C526.257 299.296 530.561 300.049 535.555 300.299C540.55 300.55 539.04 301.57 545.886 302.802C552.732 304.034 555.474 302.168 555.969 301.242C556.411 300.422 553.227 299.14 549.851 297.688C549.423 297.508 548.998 297.321 548.569 297.132C544.751 295.464 542.61 292.03 539.635 288.857C536.815 285.851 534.14 276.224 534.14 276.224L524.836 274.238C524.836 274.238 527.45 282.9 528.356 286.599C528.89 288.776 528.1 291.206 527.402 293.058C526.973 294.061 526.681 295.117 526.535 296.198Z" fill="#F0CBC1"/>
<path d="M535.556 300.299C540.561 300.547 539.04 301.57 545.886 302.802C552.732 304.034 555.474 302.168 555.969 301.242C556.411 300.422 553.227 299.14 549.851 297.688L549.799 297.747C546.417 298.724 542.833 298.767 539.429 297.872C534.902 296.64 530.531 293.934 527.402 293.061C526.979 294.061 526.692 295.113 526.549 296.189C526.248 299.296 530.567 300.044 535.556 300.299Z" fill="#1039AB"/>
<path d="M433.905 185.894C433.905 185.894 495.716 181.242 507.353 188.586C518.991 195.93 537.663 281.463 537.663 281.463C537.663 281.463 536.512 282.386 533.94 282.664C531.546 282.923 526.276 281.518 526.276 281.518C526.276 281.518 499.456 243.241 497.568 233.6C495.68 223.96 496.138 215.353 491.837 215.122C487.535 214.892 433.908 221.64 425.797 207.35C417.685 193.06 424.39 178.914 424.39 178.914L433.905 185.894Z" fill="#DECF4E"/>
<path d="M502.882 306.128C502.604 309.226 506.908 309.976 511.903 310.227C516.897 310.477 515.39 311.497 522.233 312.729C529.076 313.961 531.821 312.095 532.319 311.172C532.758 310.338 529.577 309.067 526.184 307.616C525.759 307.435 525.331 307.249 524.903 307.059C521.087 305.391 518.943 301.957 515.968 298.784C513.148 295.778 510.473 286.151 510.473 286.151L501.172 284.166C501.172 284.166 503.783 292.828 504.689 296.529C505.223 298.703 504.436 301.134 503.738 302.986C503.313 303.99 503.025 305.047 502.882 306.128Z" fill="#F0CBC1"/>
<path d="M511.902 310.227C516.908 310.474 515.389 311.498 522.233 312.729C529.076 313.961 531.821 312.095 532.319 311.172C532.758 310.338 529.577 309.067 526.184 307.616L526.132 307.674C522.751 308.651 519.168 308.694 515.765 307.799C511.235 306.57 506.866 303.864 503.738 302.988C503.314 303.989 503.026 305.042 502.882 306.12C502.595 309.22 506.908 309.976 511.902 310.227Z" fill="#1039AB"/>
<path d="M421.798 189.726C421.798 189.726 476.709 192.323 488.049 200.115C499.389 207.906 514.711 294.104 514.711 294.104C514.711 294.104 513.524 294.983 510.943 295.161C508.543 295.325 503.332 293.715 503.332 293.715C503.332 293.715 478.011 254.439 476.506 244.723C475.002 235.007 475.792 226.434 471.501 226.037C467.21 225.639 413.361 230.297 405.814 215.704C398.267 201.11 421.798 189.726 421.798 189.726Z" fill="#EADB59"/>
<path d="M441.363 68.8938C438.927 67.2838 435.905 66.9251 433.772 66.9084C434.356 66.3828 435.44 66.2493 435.44 66.2493C434.136 65.9713 431.111 67.0836 431.111 67.0836C413.272 58.8053 408.586 85.5755 408.561 91.8656C408.536 98.1556 408.092 105.366 398.576 110.374C379.85 120.221 393.754 140.531 393.754 140.531C393.89 140.623 401.187 155.125 401.187 155.125C401.062 150.031 426.197 124.876 438.916 117.69C442.175 113.519 443.743 105.875 443.86 105.274C442.943 111.356 441.666 114.729 440.604 116.586C451.549 107.78 447.823 73.1567 441.363 68.8938Z" fill="#D1B03A"/>
<path d="M419.49 111.787C419.49 111.787 424.34 111.998 429.451 112.485C432.926 112.813 436.633 113.197 438.591 114.014C443.432 116.039 442.923 124.606 432.768 123.018C422.613 121.431 418.781 114.331 419.49 111.787Z" fill="#E9C4BA"/>
<path d="M438.163 118.038C438.224 118.071 439.611 125.41 432.963 125.115C428.597 124.923 419.184 119.643 420.015 115.905C420.41 114.128 423.708 109.51 424.373 98.9983L425.168 99.2124L438.516 102.794C438.516 102.794 437.923 107.035 437.648 111.047C437.412 114.418 437.412 117.627 438.163 118.038Z" fill="#F0CBC1"/>
<path d="M438.524 102.794C438.524 102.794 437.932 107.035 437.657 111.047C430.093 110.33 426.55 103.153 425.165 99.2123L438.524 102.794Z" fill="#D2A599"/>
<path d="M423.867 97.644C423.867 97.644 420.316 91.1064 419.721 85.6868C419.295 81.8132 422.193 67.7481 436.319 70.743C439.165 71.3325 441.843 72.5536 444.155 74.3163C447.114 76.616 451.282 81.4294 445.456 93.484L443.88 97.58L423.867 97.644Z" fill="#D1B03A"/>
<path d="M440.804 106.765C440.804 106.765 422.86 105.864 423.591 94.6992C424.323 83.5345 422.501 75.8958 433.989 75.9986C445.476 76.1015 447.42 80.5062 448.084 84.2936C448.749 88.081 445.49 106.709 440.804 106.765Z" fill="#F0CBC1"/>
<path d="M442.17 76.2684C442.17 76.2684 436.388 89.0403 428.728 90.4752C421.067 91.9101 417.935 89.6744 417.935 89.6744C417.935 89.6744 424.017 85.4699 425.752 77.5392C425.752 77.5392 438.883 69.7976 442.17 76.2684Z" fill="#D1B03A"/>
<path d="M440.882 77.25C440.882 77.25 444.353 80.4201 445.053 83.3232C445.754 86.2263 445.768 92.1048 447.486 92.0214C447.486 92.0214 451.777 83.3649 447.959 78.0509C443.913 72.4143 440.882 77.25 440.882 77.25Z" fill="#D1B03A"/>
<path d="M458.76 186.828C457.305 188.563 452.773 189.097 447.915 189.887C444.102 190.518 440.095 191.308 437.248 192.979C430.78 196.778 409.643 209.614 403.451 209.03C401.048 208.804 401.504 204.219 402.953 198.138C405.241 188.53 410.035 175.191 410.035 169.387C410.035 166.223 411.089 158.732 412.496 150.167C412.61 149.474 412.727 148.776 412.844 148.076C415.625 131.422 419.479 111.787 419.479 111.787C419.479 111.787 423.778 121.164 432.153 121.164C440.529 121.164 438.591 114.012 438.591 114.012C438.591 114.012 446.232 114.91 448.045 116.853C449.858 118.797 454.441 127.203 455.339 129.495C455.339 129.495 455.526 132.412 448.301 133.802C448.301 133.802 450.061 141.719 450.27 146.997C450.426 150.89 447.609 163.1 446.8 170.692C446.522 173.381 446.474 175.488 446.911 176.445C447.467 177.671 449.277 178.892 451.332 180.09C455.406 182.476 460.492 184.762 458.76 186.828Z" fill="#4977D3"/>
<path d="M451.316 180.099C455.951 188.002 438.747 190.388 435.896 192.056C429.428 195.855 409.646 209.625 403.453 209.041C401.051 208.816 401.507 204.23 402.956 198.149C405.244 188.541 410.038 175.202 410.038 169.398C410.038 166.234 411.092 158.743 412.499 150.178L419.954 143.018C419.954 143.018 427.943 163.667 435.56 167.052C439.181 168.612 442.938 169.835 446.783 170.705C446.505 173.394 446.458 175.502 446.894 176.459C447.461 177.691 449.269 178.9 451.316 180.099Z" fill="#3D68CE"/>
<path d="M417.199 117.974C417.199 117.974 410.825 114.1 404.66 121.444C398.495 128.788 409.04 181.289 418.175 183.986C428.319 186.981 457.625 183.505 457.625 183.505L457.069 178.925C457.069 178.925 425.872 172.944 424.573 171.278C423.275 169.613 420.449 118.819 417.199 117.974Z" fill="#F0CBC1"/>
<path d="M419.49 111.787C419.49 111.787 406.398 112.969 402.597 117.276C398.796 121.584 397.683 133.252 397.683 133.252C397.683 133.252 409.212 142.556 423.102 138.947L419.49 111.787Z" fill="#4977D3"/>
<path d="M477.98 185.961H460.687V188.004H477.98V185.961Z" fill="#383241"/>
<path d="M474.307 187.724C474.474 187.048 490.201 162.349 490.201 162.349H525.197L507.645 187.059L474.307 187.724Z" fill="#383241"/>
<path d="M475.786 188.002C475.956 187.326 491.734 162.349 491.734 162.349H525.206L508.521 188.002H475.786Z" fill="#BBBBBB"/>
<path d="M505.284 175.26C504.94 176.261 503.849 177.071 502.848 177.071C501.847 177.071 501.316 176.261 501.661 175.26C502.006 174.259 503.096 173.447 504.097 173.447C505.098 173.447 505.629 174.259 505.284 175.26Z" fill="#383241"/>
<path d="M454.516 178.653C454.516 178.653 464.674 176.687 465.82 177.179C466.966 177.671 473.356 183.405 472.702 184.551C472.049 185.696 469.424 186.517 466.476 185.535C463.529 184.554 457.136 184.061 455.99 182.585C454.844 181.108 454.516 178.653 454.516 178.653Z" fill="#F0CBC1"/>
<path d="M474.757 281.668C471.045 303.08 450.682 316.647 429.804 316.647H387.717L391.009 187.979C391.009 187.979 431.166 173.964 441.252 187.295C450.089 198.974 474.065 245.213 475.313 272.578C475.461 275.619 475.274 278.668 474.757 281.668Z" fill="#DBDAEF"/>
<path d="M474.757 281.668C471.045 303.08 450.682 316.648 429.804 316.648H396.123C411.89 305.961 433.116 276.438 474.757 281.668Z" fill="#ADD1EC"/>
<path d="M409.513 316.553C409.196 316.575 408.881 316.597 408.567 316.614C407.902 316.65 407.232 316.672 406.565 316.684H405.895H363.808V316.661L361.378 316.692C357.045 316.745 352.518 316.798 348.308 316.831L346.228 316.85H345.472C341.326 316.878 337.655 316.889 335.039 316.873C331.554 316.867 328.074 316.599 324.63 316.069C320.636 315.473 316.737 314.357 313.032 312.752C311.768 312.194 310.537 311.569 309.342 310.877C307.743 309.959 306.217 308.919 304.778 307.766C301.044 304.782 297.827 301.011 295.068 296.365C293.033 292.872 291.344 289.19 290.024 285.37C288.197 280.22 286.726 274.358 285.597 267.729C283.978 258.274 283.055 247.251 282.777 234.51C282.662 229.378 282.653 223.966 282.749 218.273C282.899 209.169 283.306 199.311 283.97 188.7C284.893 173.781 286.306 157.324 288.175 139.202C289.879 122.654 291.842 111.089 294.704 108.453C298.919 104.56 307.712 103.003 313.83 102.377C317.628 101.988 320.387 101.957 320.387 101.957C327.861 101.957 334.505 107.324 336.904 115.305C341.787 131.541 350.508 160.57 359.584 190.941C359.631 191.094 359.676 191.244 359.72 191.397C360.243 193.141 360.766 194.89 361.289 196.641C361.367 196.908 361.447 197.175 361.531 197.442L363.119 196.733L363.174 196.708C365.351 195.743 367.812 194.687 370.471 193.61C371.861 193.054 373.277 192.498 374.748 191.923C378.902 190.332 383.385 188.758 387.928 187.401C389.944 186.798 391.974 186.236 393.993 185.733C396.585 185.09 399.157 184.548 401.662 184.145L401.882 184.109L402.766 183.975C413.572 182.387 422.952 183.489 426.831 190.332C433.04 201.296 450.125 245.029 451.388 272.475C452.572 297.794 431.875 314.876 409.513 316.553Z" fill="#9FA9E7"/>
<path d="M341.996 202.589C341.996 202.589 320.395 114.584 318.835 107.188C318.143 103.89 316.001 102.699 313.844 102.394C317.639 102.004 320.403 101.974 320.403 101.974C327.878 101.974 334.518 107.324 336.918 115.274C342.149 132.617 351.784 164.596 361.542 197.17C361.05 197.156 341.996 202.589 341.996 202.589Z" fill="#DBDAEF"/>
<path d="M421.589 244.91C415.808 235.355 420.663 233.561 419.776 212.155C418.889 190.749 408.931 192.52 404.788 188.383C404.032 187.621 403.398 186.066 402.783 183.986L401.899 184.12L401.679 184.156C399.176 184.559 396.602 185.101 394.01 185.744C391.991 186.241 389.961 186.803 387.945 187.412C383.401 188.769 378.919 190.343 374.764 191.934C373.293 192.49 371.864 193.063 370.487 193.622C366.909 216.076 361.375 316.703 361.375 316.703C361.422 316.753 361.464 316.798 361.511 316.842C366.03 316.803 370.913 316.75 375.56 316.695L377.531 316.667V316.689H409.293C409.335 316.667 409.379 316.639 409.421 316.611L409.51 316.558C418.038 311.275 416.133 300.655 414.126 294.001C413.317 286.885 410.174 278.551 407.605 270.801C408.4 268.443 409.521 267.095 414.326 265.32C419.665 263.354 421.067 254.951 421.067 254.951C422.493 258.708 419.231 263.894 419.145 264.033C419.337 263.808 427.307 254.353 421.589 244.91Z" fill="#949DD5"/>
<path d="M350.636 201.533C350.636 201.533 318.593 215.492 312.779 215.231C306.964 214.969 271.123 204.322 271.123 204.322L272.035 210.487C272.035 210.487 299.695 226.395 309.364 227.296C318.882 228.186 351.434 218.754 354.579 216.76C357.724 214.766 359.768 203.551 350.636 201.533Z" fill="#9C6140"/>
<path d="M355.449 150.178C355.449 150.178 367.27 147.934 373.157 152.233C383.821 160.019 384.394 186.867 388.39 190.869C392.386 194.87 402.016 193.16 402.88 213.857C403.745 234.554 399.043 236.281 404.635 245.519C410.227 254.756 402.269 264.002 402.269 264.002C402.269 264.002 405.528 258.902 404.132 255.223C404.132 255.223 402.775 263.346 397.614 265.251C392.453 267.156 391.691 268.549 390.865 271.343C390.865 271.343 346.837 248.783 346.79 232.78C346.743 216.777 338.139 200.929 342.357 193.994C342.357 193.994 340.472 196.961 340.241 200.259C340.241 200.259 337.703 195.396 342.102 190.869C346.501 186.341 336.941 176.965 338.356 166.12C339.329 158.665 344.557 150.503 355.449 150.178Z" fill="#452C06"/>
<path d="M346.743 216.78C349.557 218.726 353.086 220.342 357.515 221.362C374.119 225.2 380.482 211.165 382.87 201.533C381.136 200.571 379.22 199.983 377.245 199.806C376.046 199.664 374.784 199.569 373.738 199.528C371.875 198.101 369.094 192.256 368.483 183.18L367.701 183.391L354.615 186.973C354.615 186.973 355.213 191.144 355.508 195.062C355.736 198.14 355.769 201.079 355.188 201.8C354.167 202.022 353.553 202.167 353.553 202.167C350.822 206.809 348.541 211.703 346.743 216.78Z" fill="#B6714A"/>
<path d="M354.612 186.964C354.612 186.964 355.216 191.119 355.508 195.054C362.921 194.311 366.353 187.254 367.701 183.374L354.612 186.964Z" fill="#7E4C2F"/>
<path d="M352.399 190.869C352.399 190.869 369.998 189.898 369.225 178.947C368.452 167.997 370.201 160.497 358.936 160.656C347.671 160.814 345.78 165.144 345.152 168.862C344.524 172.58 347.802 190.838 352.399 190.869Z" fill="#B6714A"/>
<path d="M345.236 162.739C347.716 159.249 349.821 159.824 351.042 160.731C360.268 154.761 367.02 162.121 367.02 162.121C368.761 169.891 374.748 173.987 374.748 173.987C374.748 173.987 371.689 176.195 364.164 174.821C361.867 174.404 359.737 172.944 357.885 171.122C360.062 174.164 362.644 176.894 365.56 179.237C356.448 175.791 352.023 163.776 351.578 162.505C350.575 163.545 348.609 165.789 348.111 167.886C347.435 170.739 344.518 175.193 342.827 175.116C342.83 175.127 341.515 167.958 345.236 162.739Z" fill="#452C06"/>
<path d="M387.884 252.557C389.472 244.434 394.655 211.977 389.472 201.533C387.611 197.779 380.309 197.442 372.298 197.77C369.795 199.38 360.307 205.462 356.403 204.703L356.186 204.653C354.348 204.191 353.656 202.901 355.188 201.789C352.21 201.593 349.22 201.78 346.29 202.345C343.509 202.867 336.001 206.752 336.001 206.752C336.001 206.752 339.783 213.582 345.358 215.929C344.41 224.407 345.817 228.147 354.615 247.732C362.048 264.289 353.611 279.191 353.611 279.191C353.611 279.191 397.369 314.373 397.611 296.459C397.795 282.975 385.851 262.94 387.884 252.557Z" fill="#C5CA59"/>
<path d="M351.442 317.445C350.268 317.312 349.138 316.924 348.129 316.309C347.121 315.694 346.258 314.866 345.603 313.883L344.924 312.866C339.944 305.324 338.006 282.233 326.802 257.634C324.074 251.645 314.289 250.568 311.608 243.797C311.608 243.797 305.034 221.854 324.191 221.207C343.347 220.559 375.496 282.263 376.002 288.734C376.483 295.005 388.657 321.644 351.442 317.445Z" fill="#510841"/>
<path d="M275.294 316.942H302.546C302.546 316.942 303.566 312.593 301.775 309.634C300.19 307.015 300.799 305.524 301.973 303.358C300.525 303.985 298.955 304.28 297.379 304.223C296.022 304.145 294.598 303.528 293.325 302.797C292.151 304.134 287.126 309.829 285.558 310.958C283.798 312.237 275.85 311.781 275.294 316.942Z" fill="#8D4B8B"/>
<path d="M385.009 210.039C385.009 210.039 388.557 242.326 365.543 249.092C342.53 255.857 335.995 219.385 354.579 216.76C373.163 214.135 385.009 210.039 385.009 210.039Z" fill="#9EA248"/>
<path d="M310.974 227.552C309.331 239.86 302.91 278.718 291.612 297.663C287.963 303.781 300.788 307.198 300.866 307.182C302.587 306.731 305.454 303.987 306.778 302.796C315.954 294.521 334.585 271.096 334.585 252.304C334.585 243.144 334.744 225.65 328.084 221.204C323.996 218.465 311.625 222.664 310.974 227.552Z" fill="#720C5B"/>
<path d="M367.701 316.942C367.701 316.942 366.692 315.535 364.92 312.866C362.824 309.69 360.505 303.439 357.69 295.427C354.735 287.016 351.225 276.669 346.846 265.901C345.494 262.565 344.065 259.228 342.527 255.857C339.799 249.868 332.291 250.696 329.622 243.925C329.622 243.925 319.199 220.456 338.356 219.808C357.513 219.16 393.915 282.592 396.006 288.734C398.298 295.461 409.471 323.385 367.701 316.942Z" fill="#810C67"/>
<path d="M295.316 316.942H322.567C322.567 316.942 323.587 312.593 321.797 309.634C320.212 307.015 320.821 305.524 321.994 303.358C320.546 303.985 318.977 304.28 317.4 304.223C316.043 304.145 314.62 303.528 313.346 302.797C312.172 304.134 307.148 309.829 305.577 310.958C303.811 312.237 295.872 311.781 295.316 316.942Z" fill="#9E549B"/>
<path d="M357.696 295.427C354.74 287.016 351.231 276.669 346.851 265.901C347.997 257.746 350.466 250.607 354.621 247.732C354.615 247.732 364.69 278.949 357.696 295.427Z" fill="#640A50"/>
<path d="M326.891 226.679C325.248 238.987 322.937 278.71 311.625 297.663C307.979 303.781 320.801 307.198 320.882 307.182C322.603 306.731 325.47 303.987 326.791 302.797C335.967 294.521 354.598 271.096 354.598 252.304C354.598 243.144 343.851 226.384 337.188 221.938C333.1 219.199 327.542 221.791 326.891 226.679Z" fill="#810C67"/>
<path d="M267.867 188.46L295.791 185.493C296.187 185.451 296.585 185.541 296.925 185.749C297.264 185.958 297.524 186.272 297.665 186.645L307.656 212.898C307.758 213.165 307.795 213.452 307.763 213.737C307.732 214.021 307.633 214.293 307.476 214.532C307.318 214.77 307.106 214.968 306.857 215.108C306.608 215.249 306.329 215.328 306.044 215.339L278.336 216.451C277.968 216.465 277.605 216.366 277.295 216.167C276.984 215.968 276.743 215.679 276.601 215.339L266.396 190.949C266.287 190.69 266.241 190.409 266.26 190.129C266.279 189.849 266.363 189.577 266.506 189.335C266.649 189.094 266.847 188.889 267.083 188.737C267.319 188.585 267.587 188.49 267.867 188.46Z" fill="#D9D9D9"/>
<path d="M265.442 188.713L293.369 185.755C293.765 185.713 294.163 185.804 294.502 186.012C294.841 186.22 295.101 186.534 295.243 186.906L305.234 213.156C305.336 213.423 305.373 213.711 305.341 213.995C305.31 214.279 305.211 214.552 305.054 214.79C304.896 215.029 304.684 215.227 304.435 215.367C304.186 215.507 303.907 215.586 303.622 215.598L275.914 216.71C275.546 216.725 275.182 216.626 274.872 216.427C274.561 216.228 274.319 215.939 274.179 215.598L263.974 191.194C263.867 190.935 263.821 190.656 263.841 190.377C263.861 190.098 263.946 189.827 264.088 189.587C264.23 189.346 264.427 189.142 264.662 188.99C264.897 188.839 265.164 188.744 265.442 188.713Z" fill="#ECA9B9"/>
<path d="M280.92 200.971C280.578 200.034 281.061 199.275 281.999 199.275C282.505 199.309 282.992 199.487 283.401 199.787C283.811 200.088 284.127 200.498 284.312 200.971C284.654 201.908 284.17 202.667 283.233 202.667C282.296 202.667 281.262 201.908 280.92 200.971Z" fill="#D9D9D9"/>
<path d="M266.279 191.194C266.109 190.735 266.348 190.36 266.807 190.36C267.056 190.377 267.296 190.464 267.497 190.612C267.698 190.76 267.854 190.961 267.945 191.194C268.111 191.655 267.875 192.028 267.416 192.028C267.167 192.011 266.928 191.924 266.726 191.776C266.525 191.629 266.37 191.427 266.279 191.194Z" fill="#D9D9D9"/>
<path d="M382.87 201.533C382.87 201.533 344.171 215.784 338.356 215.492C334.599 215.303 303.357 204.322 303.357 204.322L300.554 209.627C300.554 209.627 330.959 229.171 339.321 229.073C355.822 228.884 383.671 218.754 386.813 216.76C389.956 214.766 392.005 203.551 382.87 201.533Z" fill="#B6714A"/>
<path d="M303.357 204.322C303.357 204.322 300.554 200.006 297.763 199.873C294.971 199.739 290.146 201.775 288.494 202.097C286.843 202.42 282.149 203.938 283.545 206.224C284.941 208.51 291.414 209.005 294.206 208.507C296.998 208.009 300.554 209.619 300.554 209.619L303.357 204.322Z" fill="#B6714A"/>
<path d="M298.522 200.012C298.522 200.012 294.072 197.976 292.81 197.595C291.548 197.214 291.795 197.595 292.176 198.805C292.557 200.014 294.843 201.155 294.843 201.533C294.843 201.911 298.522 200.012 298.522 200.012Z" fill="#B6714A"/>
<path d="M268.32 202.039C268.32 202.039 271.123 197.609 272.035 197.434C274.83 196.878 274.83 200.559 274.238 202.931C273.601 205.476 271.457 207.878 270.853 207.659C270.25 207.439 267.661 204.386 268.32 202.039Z" fill="#B6714A"/>
<path d="M268.212 202.926C268.212 202.926 267.316 207.895 272.035 210.487L268.212 202.926Z" fill="#B6714A"/>
<path d="M349.106 184.57C349.106 184.57 350.775 183.914 355.449 184.292C355.449 184.292 355.202 186.119 351.748 186.3C349.793 186.403 349.106 184.57 349.106 184.57Z" fill="white"/>
<path d="M362.932 208.557C362.932 208.557 366.394 219.516 378.282 222.007C378.282 222.007 397.911 215.962 388.137 202.587C388.137 202.589 378.474 195.409 362.932 208.557Z" fill="#C5CA59"/>
<path d="M775.245 316.942H0.878717C0.393415 316.942 0 317.336 0 317.821V318.121C0 318.607 0.393415 319 0.878717 319H775.245C775.73 319 776.124 318.607 776.124 318.121V317.821C776.124 317.336 775.73 316.942 775.245 316.942Z" fill="#46449C"/>
</svg>
