<svg width="624" height="333" viewBox="0 0 624 333" fill="none" xmlns="http://www.w3.org/2000/svg">
<path d="M42.8921 328.086C42.8921 328.086 -39.8318 202.504 24.4875 127.514C107.483 30.7983 180.815 111.643 221.053 109.284C261.292 106.926 263.558 14.1276 383.789 3.04124C476.747 -5.52659 629.413 -6.20464 596.841 145.435C572.082 260.706 642.044 201.002 615.217 328.347L42.8921 328.086Z" fill="#D0E5F3"/>
<path d="M11.1538 331.331L622.564 331.331C623.099 331.331 623.533 330.897 623.533 330.362C623.533 329.827 623.099 329.393 622.564 329.393L11.1538 329.393C10.6188 329.393 10.1852 329.827 10.1852 330.362C10.1852 330.897 10.6188 331.331 11.1538 331.331Z" fill="#1A3151"/>
<path opacity="0.08" d="M200.261 287.93C178.098 288.196 157.829 290.541 135.922 291.165C124.846 291.485 88.487 290.613 81.469 296.822C70.3875 306.615 99.6896 306.025 96.6867 313.42C96.0958 314.873 93.8582 315.9 92.4973 317.179C90.0514 319.474 90.6762 322.603 93.2576 324.851C104.567 334.678 145.914 331.82 163.282 331.99C263.776 332.958 364.546 334.096 464.483 330.847C486.036 330.144 507.463 329.263 528.899 328.425C538.722 328.047 551.014 327.064 551.053 324.86C551.15 319.281 532.464 325.136 538.649 314.006C540.635 310.427 550.893 309.72 545.691 303.588C539.971 296.851 526.754 291.65 514.544 289.945C502.072 288.206 489.237 288.492 476.553 287.925C453.266 286.913 429.878 286.719 406.518 286.627C353.528 286.424 300.537 286.768 247.556 287.3C231.815 287.475 216.016 287.741 200.261 287.93Z" fill="black"/>
<path d="M86.1082 114.696L86.0054 116.96L155.363 120.11L155.466 117.846L86.1082 114.696Z" fill="#95B7E3"/>
<path d="M105.971 51.2254L104.158 52.5863L154.516 119.657L156.329 118.296L105.971 51.2254Z" fill="#95B7E3"/>
<path d="M358.996 165.031L359.301 159.79L361.548 159.679L362.134 163.263L363.2 162.716L362.396 167.205L360.057 167.636L358.996 165.031Z" fill="#A5A5CF"/>
<path d="M388.264 185.784L371.632 184.322L363.437 164.682L358.914 166.164L363.2 193.33L389.184 198.053L388.264 185.784Z" fill="#1074AB"/>
<path d="M150.268 154.831L149.508 149.619L147.256 149.702L146.98 153.334L145.866 152.884L147.062 157.301L149.44 157.529L150.268 154.831Z" fill="#FCD87D"/>
<path d="M117.687 180.442L141.638 175.768L145.803 154.87L150.457 155.954L149.125 184.98L125.228 192.962L117.687 180.442Z" fill="#985F2B"/>
<path d="M217.038 312.447C216.831 312.176 216.558 311.964 216.245 311.83C215.932 311.696 215.59 311.645 215.251 311.682C214.928 311.735 214.622 311.866 214.361 312.063C214.099 312.261 213.89 312.519 213.75 312.815C213.594 313.226 213.507 313.659 213.493 314.098C213.309 316.365 213.324 321.746 216.341 322.521C217.61 322.845 218.661 321.945 219 320.806C219.508 319.092 218.753 314.331 217.038 312.447Z" fill="black"/>
<path d="M218.114 278.258L217.954 292.081C218.138 298.222 217.179 304.397 217.363 310.538C217.406 311.948 217.774 313.444 217.421 314.839C217.067 316.234 215.968 316.447 214.815 315.755C213.285 314.825 213.532 312.66 213.28 311.076C212.578 306.717 211.759 302.402 211.028 298.057C210.669 295.926 211.406 292.943 211.246 290.792L209.013 279.207L218.114 278.258Z" fill="#E2A273"/>
<path d="M202.319 255.925L208.335 282.651L209.613 307.889L219.155 307.671L221.746 237.08L203.254 237.414L202.319 255.925Z" fill="#5F5E5E"/>
<path d="M230.687 311.948C230.469 311.688 230.186 311.49 229.867 311.373C229.549 311.257 229.205 311.226 228.871 311.284C228.548 311.356 228.248 311.505 227.995 311.717C227.742 311.93 227.544 312.2 227.418 312.505C227.276 312.924 227.209 313.365 227.219 313.808C227.127 316.089 227.374 321.47 230.416 322.07C231.694 322.317 232.702 321.354 232.992 320.196C233.452 318.448 232.484 313.735 230.687 311.948Z" fill="black"/>
<path d="M225.655 280.2L226.468 293.989C226.531 297.825 227.045 301.632 227.437 305.443C227.805 308.979 227.229 312.665 229.079 315.885C229.66 316.893 230.832 317.566 231.651 316.341C232.28 315.372 231.907 313.817 232.028 312.747C232.513 308.388 233.137 304.029 233.665 299.636C233.922 297.491 233.045 294.546 233.104 292.371L234.789 280.694L225.655 280.2Z" fill="#E2A273"/>
<path d="M237.729 254.288L238.504 280.234L234.436 306.465L224.73 306.756L225.161 278.364L220.022 254.821L218.298 239.41L233.699 237.593L237.729 254.288Z" fill="#595959"/>
<path d="M225.548 184.501L208.96 184.104L199.341 201.99L202.76 218.743L203.37 238.794L227.03 239.119L234.818 237.855L232.75 216.428L233.937 187.814L225.548 184.501Z" fill="white"/>
<path d="M203.4 230.9L202.639 233.665L206.523 236.838L209.541 235.477L210.34 232.227L207.972 231.307L208.073 230.566L207.424 229.737L203.4 230.9Z" fill="#E2A273"/>
<path d="M208.979 184.738L188.715 206.974L185.668 215.968L202.232 233.336L207.26 229.96L196.638 215.43L206.771 207.918L208.979 184.738Z" fill="white"/>
<path d="M224.923 195.335L233.564 212.612L242.877 214.462L260.841 199.283L256.836 194.74L240.916 203.661L232.479 187.814L224.923 195.335Z" fill="#7CA5D5"/>
<path d="M224.512 170.601C222.008 163.336 212.403 166.053 210.432 172.538C209.139 176.761 212.403 182.225 216.777 183.455C216.796 183.604 216.808 183.755 216.811 183.905C216.826 184.584 216.889 185.26 217 185.93C217.038 186.182 220.874 185.445 221.296 185.363C221.446 185.352 221.587 185.282 221.688 185.169C221.843 184.927 221.591 184.201 221.567 183.954L221.465 182.985C223.625 181.934 224.986 179.687 225.364 177.405C225.742 175.124 225.262 172.785 224.512 170.601Z" fill="#E2A273"/>
<path d="M218.249 164.028C217.783 164.579 217.482 165.251 217.382 165.966C217.27 166.377 217.244 166.807 217.305 167.23C217.663 168.881 219.3 168.794 220.564 169.327C222.125 170.004 223.444 171.139 224.347 172.582C225.718 174.761 225.102 177.56 224.545 179.968C224.352 180.81 223.955 182.07 224.613 182.825C225.272 183.581 226.822 183.474 227.621 183.082C228.42 182.69 228.953 182.05 229.752 181.919C230.551 181.789 231.747 182.147 232.145 181.372C232.216 181.14 232.302 180.911 232.401 180.689C232.886 180.021 234.038 180.805 234.697 180.331C235.104 180.04 235.104 179.42 234.963 178.931C234.761 178.463 234.668 177.954 234.692 177.444C234.836 177.035 235.031 176.646 235.273 176.287C235.456 175.895 235.524 175.459 235.468 175.03C235.412 174.601 235.236 174.197 234.959 173.865C233.912 172.654 231.893 172.896 230.774 171.748C230.245 171.096 229.891 170.319 229.747 169.491C229.602 168.663 229.218 167.896 228.643 167.283C227.873 166.605 226.759 166.721 226.003 165.917C225.553 165.433 225.257 164.827 224.754 164.421C224.095 163.878 222.816 163.452 221.983 163.185C221.344 162.962 220.656 162.923 219.995 163.072C219.335 163.221 218.73 163.552 218.249 164.028Z" fill="#794630"/>
<path d="M212.176 175.633C212.132 178.025 213.319 180.612 212.219 182.719C211.12 184.825 208.345 185.227 205.967 185.339C205.579 185.339 200.59 185.789 200.571 185.692C200.198 184.026 199.811 182.326 198.939 180.849C198.067 179.372 196.614 178.171 194.943 178.069C195.178 177.988 195.375 177.825 195.498 177.609C195.621 177.393 195.661 177.14 195.611 176.897C195.505 176.41 195.351 175.935 195.151 175.478C194.975 174.891 194.963 174.266 195.117 173.673C195.27 173.079 195.584 172.539 196.023 172.112C197.791 170.465 200.988 171.143 202.504 169.259C203.438 168.087 203.327 166.392 203.821 164.958C204.79 162.193 207.797 161.616 210.059 160.367C212.447 159.049 214.699 158.328 217.455 158.788C220.845 159.354 223.412 162.837 222.095 166.111C220.404 170.31 213.643 169.947 212.379 174.209C212.247 174.672 212.179 175.151 212.176 175.633Z" fill="#794630"/>
<path d="M213.866 184.404L219.014 191.679L221.431 191.48L225.466 184.104L213.866 184.404Z" fill="#6EB5E0"/>
<path d="M419.409 50.4612L419.11 52.708L502.362 63.8014L502.661 61.5546L419.409 50.4612Z" fill="#95B7E3"/>
<path d="M142.174 126.38L140.623 128.034L227.978 209.98L229.529 208.327L142.174 126.38Z" fill="#95B7E3"/>
<path d="M420.637 56.1922L419.365 58.0683L527.178 131.173L528.45 129.297L420.637 56.1922Z" fill="#95B7E3"/>
<path d="M138.436 244.761C138.039 240.669 137.627 236.576 137.124 232.498C136.121 224.357 134.755 216.239 132.44 208.359C131.559 205.351 130.537 202.382 129.534 199.413L125.815 188.579C124.269 184.089 121.669 180.927 117.097 179.352C116.264 179.07 115.41 178.851 114.544 178.699C114.519 178.792 114.501 178.888 114.491 178.984C114.459 179.426 114.303 179.849 114.04 180.205L117.034 180.234C117.034 180.234 125.471 209.725 125.781 214.806C125.897 216.743 126.289 220.957 126.725 225.398L131.307 226.071L131.505 243.066L132.271 243.279C133.724 243.662 134.905 244.732 136.116 245.556C137.899 246.781 138.678 247.27 138.436 244.761Z" fill="#985F2B"/>
<path d="M102.765 224.996C103.598 220.845 104.252 217.019 104.31 214.941C104.489 208.688 105.279 188.051 105.279 188.051L109.154 180.161H109.87H109.715C109.788 179.589 109.766 179.008 109.652 178.442C102.872 178.849 95.9603 182.394 94.0182 188.976C93.8509 189.517 93.7405 190.074 93.6888 190.637C93.4176 194.028 94.4541 196.522 93.4757 199.917C92.6281 202.872 91.858 205.865 91.2962 208.887C90.4777 213.246 89.7221 217.605 89.1313 221.964C88.4533 226.726 88.0346 231.522 87.8768 236.329C87.8768 236.857 87.7558 238.329 87.6928 240.092C87.5717 243.778 87.6492 248.709 89.2039 248.893C89.4933 248.898 89.7785 248.823 90.0273 248.675C92.0227 247.706 93.5968 246.437 95.3549 245.328L95.4469 226.1L102.765 224.996Z" fill="#985F2B"/>
<path d="M119.15 240.514L118.133 240.591L114.854 272.131L118.38 318.007H118.414V317.314H124.303L131.767 266.232L131.5 243.066C127.931 242.04 124.066 240.456 120.361 240.49L119.15 240.514Z" fill="#0A5D8B"/>
<path d="M126.725 225.398C127.418 232.43 128.217 240.025 128.217 240.025C128.217 240.025 124.512 240.112 119.155 240.509H120.342C124.071 240.475 127.936 242.059 131.481 243.086L131.283 226.09L126.725 225.398Z" fill="#985F2B"/>
<path d="M118.419 318.007V320.462L124.71 323.606L127.858 320.462L124.71 317.314H124.308L124.206 318.007H118.419Z" fill="#2B426B"/>
<path d="M118.419 318.007H124.206L124.308 317.314H118.419V318.007Z" fill="#2B426B"/>
<path d="M109.904 241.4L109.473 241.453C106.921 242.047 104.327 242.447 101.714 242.65C100.205 243.03 98.7357 243.554 97.3261 244.214C96.6601 244.538 96.0132 244.901 95.3888 245.299V249.304L102.533 317.314H108.388V318.007H108.422L114.864 272.388L114.893 272.131L114.743 270.232L109.904 241.4Z" fill="#0A5D8B"/>
<path d="M101.714 242.65C99.1569 242.785 98.8421 242.311 98.8421 242.311C98.8421 242.311 101.147 233.05 102.765 224.996L95.4663 226.071L95.3743 245.299C95.9987 244.901 96.6456 244.538 97.3116 244.214C98.7258 243.553 100.2 243.03 101.714 242.65Z" fill="#985F2B"/>
<path d="M109.904 241.4L114.709 270.257L114.859 272.155L118.138 240.616C115.644 240.79 112.854 241.052 109.904 241.4Z" fill="#074F78"/>
<path d="M102.499 317.314H102.063L98.9147 320.462L102.063 323.606L108.354 320.462V318.007H102.571L102.499 317.314Z" fill="#2B426B"/>
<path d="M102.499 317.314L102.571 318.007H108.354V317.314H102.499Z" fill="#2B426B"/>
<path d="M113.614 180.495C113.364 180.559 113.103 180.568 112.849 180.52L109.885 180.166H109.168L105.293 188.056C105.293 188.056 104.494 208.693 104.325 214.946C104.267 217.024 103.613 220.85 102.78 225.001L107.081 224.371L106.761 222.463L109.081 222.802L108.916 222.531L109.885 184.482L109.255 182.007C109.214 181.846 109.21 181.677 109.244 181.514C109.277 181.352 109.348 181.199 109.45 181.067C109.552 180.936 109.682 180.83 109.831 180.757C109.981 180.684 110.145 180.646 110.311 180.646H114.186C114.389 180.645 114.589 180.702 114.762 180.809C114.935 180.916 115.075 181.07 115.165 181.252C115.255 181.435 115.293 181.639 115.273 181.842C115.253 182.044 115.177 182.237 115.053 182.399L113.464 184.482L117.615 222.792L120.036 222.439L119.838 224.376L126.735 225.393C126.299 220.952 125.906 216.733 125.79 214.801C125.48 209.72 117.043 180.229 117.043 180.229L114.05 180.2C114.019 180.238 113.985 180.273 113.948 180.307C113.853 180.394 113.738 180.459 113.614 180.495Z" fill="white"/>
<path d="M118.138 240.591L119.155 240.514C118.816 240.514 118.482 240.514 118.143 240.543L118.138 240.591Z" fill="white"/>
<path d="M118.143 240.543C118.482 240.543 118.816 240.543 119.155 240.514C124.512 240.112 128.217 240.03 128.217 240.03C128.217 240.03 127.418 232.435 126.725 225.403L119.828 224.386L118.143 240.543Z" fill="white"/>
<path d="M109.066 222.797L106.746 222.458L107.066 224.366L109.754 223.969L109.066 222.797Z" fill="white"/>
<path d="M106.378 241.71C104.809 241.944 103.252 242.258 101.714 242.65C104.324 242.447 106.914 242.047 109.463 241.453L109.894 241.4L109.865 241.211C108.706 241.363 107.544 241.529 106.378 241.71Z" fill="white"/>
<path d="M117.169 223.993L119.828 224.381L120.027 222.458L117.615 222.812L117.687 223.485L117.169 223.993Z" fill="white"/>
<path d="M109.875 241.197L107.066 224.352L102.765 224.981C101.147 233.036 98.842 242.296 98.842 242.296C98.842 242.296 99.1569 242.781 101.714 242.635C103.252 242.244 104.809 241.93 106.378 241.696C107.541 241.521 108.706 241.355 109.875 241.197Z" fill="white"/>
<path d="M109.875 241.197L109.904 241.386C112.834 241.037 115.644 240.775 118.138 240.577V240.528C115.387 240.651 112.633 240.874 109.875 241.197Z" fill="white"/>
<path d="M118.143 240.543L119.828 224.381L117.169 223.988L112.481 228.604L109.754 223.974L107.066 224.371L109.875 241.216C112.626 240.88 115.382 240.656 118.143 240.543Z" fill="white"/>
<path d="M117.615 222.792L113.459 184.457L115.048 182.375C115.172 182.213 115.248 182.02 115.268 181.817C115.288 181.615 115.25 181.411 115.16 181.228C115.07 181.046 114.93 180.892 114.757 180.785C114.584 180.678 114.384 180.621 114.181 180.621H110.306C110.14 180.621 109.976 180.659 109.827 180.732C109.677 180.806 109.547 180.912 109.445 181.043C109.343 181.175 109.272 181.327 109.239 181.49C109.205 181.653 109.209 181.821 109.25 181.982L109.88 184.457L108.911 222.506L109.076 222.778L113.396 223.412L117.615 222.792Z" fill="#ED2F2F"/>
<path d="M113.387 223.431L109.066 222.797L109.754 223.969L113.387 223.431Z" fill="#ED2F2F"/>
<path d="M117.169 223.993L117.687 223.485L117.615 222.812L113.386 223.431L117.169 223.993Z" fill="#ED2F2F"/>
<path d="M109.754 223.969L112.481 228.599L117.169 223.993L113.387 223.432L109.754 223.969Z" fill="#ED2F2F"/>
<path d="M114.544 178.718C114.932 177.052 116.767 176.296 117.76 174.843C118.84 173.151 119.511 171.231 119.722 169.235V169.133C119.576 169.215 119.424 169.283 119.266 169.337C119.068 168.537 119.446 167.729 119.62 166.915C119.662 166.709 119.675 166.499 119.659 166.29C118.315 166.034 117.007 165.621 115.76 165.06C113.585 164.091 109.352 163.123 107.095 164.222C105.308 165.108 105.855 167.937 105.947 169.724C105.997 170.182 105.98 170.646 105.899 171.099C105.753 171.506 105.561 171.894 105.327 172.257C105.528 172.975 105.889 173.637 106.383 174.194C107.836 175.807 109.289 176.616 109.652 178.427C111.289 178.329 112.931 178.427 114.544 178.718Z" fill="#FCD87D"/>
<path d="M109.73 180.171H109.885L114.04 180.21C114.303 179.854 114.459 179.431 114.491 178.989C114.501 178.893 114.519 178.797 114.544 178.703C112.935 178.42 111.298 178.329 109.667 178.432C109.783 179.004 109.804 179.592 109.73 180.171Z" fill="#FCD87D"/>
<path d="M112.854 180.52C113.108 180.568 113.369 180.559 113.619 180.495C113.739 180.459 113.85 180.396 113.944 180.311C113.98 180.278 114.014 180.243 114.045 180.205L109.89 180.166L112.854 180.52Z" fill="#A5A5CF"/>
<path d="M119.765 166.29C119.908 167.222 119.898 168.171 119.736 169.099C120.721 168.464 121.447 167.499 121.785 166.377C121.111 166.436 120.432 166.407 119.765 166.29Z" fill="black"/>
<path d="M119.765 166.29H119.673C119.69 166.499 119.677 166.709 119.634 166.915C119.46 167.714 119.082 168.523 119.281 169.336C119.438 169.283 119.591 169.215 119.736 169.133C119.902 168.193 119.912 167.233 119.765 166.29Z" fill="#2B426B"/>
<path d="M105.226 166.774C105.208 166.065 105.332 165.358 105.589 164.697C106.117 163.568 107.337 162.948 108.524 162.575C111.556 161.636 115.019 161.868 117.687 163.587C118.421 164.015 119.028 164.63 119.445 165.37C119.504 165.486 119.556 165.606 119.6 165.728C119.421 164.852 119.014 163.98 119.155 163.355C119.353 162.444 120.608 162.251 121.305 162.75C121.55 162.947 121.751 163.194 121.893 163.475C122.036 163.755 122.118 164.063 122.134 164.377C122.16 165.014 122.058 165.65 121.833 166.246L121.785 166.377C122.201 166.34 122.61 166.239 122.996 166.077C124.899 165.239 126.449 161.912 126.386 159.863C126.392 159.391 126.28 158.924 126.061 158.506C125.842 158.088 125.523 157.73 125.132 157.465C124.395 156.981 123.543 156.555 123.092 155.761C122.744 155.146 122.695 154.385 122.347 153.765C121.722 152.646 120.366 152.312 119.184 151.939C116.234 150.971 114.641 149.895 111.517 151.111C109.294 151.973 106.417 152.08 104.354 153.349C103.46 153.946 102.71 154.735 102.16 155.659C100.072 158.919 99.5734 163.505 100.929 166.905C101.237 167.645 101.607 168.358 102.034 169.036C102.857 170.373 103.743 172.025 105.206 172.678C105.229 172.526 105.275 172.377 105.342 172.238C104.848 170.518 105.153 168.581 105.226 166.774Z" fill="black"/>
<path d="M105.962 169.705C105.87 167.917 105.322 165.089 107.11 164.203C109.367 163.084 113.6 164.091 115.774 165.04C117.021 165.602 118.33 166.015 119.673 166.271C119.663 166.088 119.639 165.907 119.601 165.728C119.556 165.606 119.504 165.486 119.446 165.37C119.028 164.63 118.422 164.015 117.687 163.587C115.019 161.868 111.556 161.65 108.524 162.575C107.337 162.948 106.102 163.568 105.589 164.697C105.332 165.358 105.208 166.065 105.226 166.774C105.153 168.581 104.848 170.518 105.342 172.238C105.575 171.875 105.767 171.486 105.913 171.08C105.995 170.626 106.011 170.163 105.962 169.705Z" fill="#D3B15A"/>
<path d="M122.134 164.377C122.118 164.063 122.036 163.755 121.893 163.475C121.751 163.194 121.55 162.947 121.305 162.75C120.608 162.265 119.368 162.444 119.155 163.355C119.014 163.98 119.421 164.852 119.601 165.728C119.671 165.911 119.726 166.099 119.765 166.29C120.432 166.407 121.111 166.436 121.785 166.377L121.833 166.246C122.058 165.65 122.16 165.014 122.134 164.377Z" fill="black"/>
<path d="M119.6 165.728C119.639 165.907 119.663 166.088 119.673 166.271H119.765C119.725 166.086 119.67 165.904 119.6 165.728Z" fill="#2B426B"/>
<path d="M499.253 172.843C497.941 174.94 498.585 177.628 499.161 179.934C499.399 180.873 499.806 182.205 498.895 182.907C497.878 183.697 496.202 182.946 495.674 181.939C495.354 181.223 495.209 180.441 495.253 179.658C495.214 176.18 495.161 171.317 496.488 168.092C497.549 165.51 502.3 161.82 505.114 164.566C505.58 165.091 505.885 165.741 505.99 166.435C506.108 166.828 506.139 167.241 506.083 167.646C505.758 169.235 504.145 169.162 502.915 169.68C501.402 170.339 500.125 171.442 499.253 172.843Z" fill="#BC8803"/>
<path d="M502.256 182.82C501.228 182.303 500.336 181.552 499.652 180.626C498.968 179.701 498.511 178.627 498.319 177.493C497.912 175.294 498.357 173.046 499.065 170.944C501.414 163.946 510.873 166.498 512.907 172.703C514.675 178.088 508.509 185.702 502.256 182.82Z" fill="#E4C79B"/>
<path d="M511.459 175.875C511.265 176.752 511.415 177.812 511.255 178.708C510.969 180.389 509.947 182.365 510.073 184.036C511.979 184.273 513.913 183.98 515.663 183.188C517.261 182.433 517.576 180.66 518.385 179.057C519.21 177.613 519.874 176.083 520.365 174.495C522.608 165.685 515.459 158.231 506.62 159.732C503.273 160.304 500.808 163.66 502.169 166.794C503.622 170.184 508.601 170.475 510.708 173.303C511.193 174.074 511.453 174.964 511.459 175.875Z" fill="#BC8803"/>
<path d="M502.256 182.225L502.053 184.21C502.019 184.511 501.762 185.324 501.912 185.591C501.959 185.65 502.018 185.699 502.084 185.734C502.151 185.769 502.225 185.79 502.3 185.794C502.721 185.876 506.485 186.564 506.528 186.278C506.644 185.518 506.716 184.751 506.741 183.983C506.741 183.363 507.003 182.273 506.843 181.745C506.116 182.016 505.343 182.145 504.567 182.123C503.801 182.123 503.036 182.123 502.276 182.07L502.256 182.225Z" fill="#E4C79B"/>
<path d="M474.402 237.874L471.782 237.366L469.162 241.095L470.659 243.739L473.724 244.248L474.853 240.475L474.402 237.874Z" fill="#E4C79B"/>
<path d="M499.069 191.044L487.082 190.952L483.266 217.678L471.763 236.717L474.955 240.402L490.167 225.102L499.069 191.044Z" fill="#6D1064"/>
<path d="M495.093 314.999C495.262 314.651 495.518 314.352 495.836 314.131C496.154 313.911 496.524 313.776 496.909 313.74C497.284 313.722 497.658 313.794 498 313.949C498.342 314.104 498.642 314.338 498.876 314.631C499.153 315.045 499.358 315.504 499.481 315.987C500.246 318.409 501.544 324.337 498.348 325.892C497.001 326.546 495.602 325.8 494.957 324.628C493.945 322.865 493.63 317.469 495.093 314.999Z" fill="#6D1064"/>
<path d="M500.891 277.347L500.469 292.846C500.576 299.738 499.365 306.654 499.471 313.551C499.471 315.14 499.893 316.815 499.471 318.394C499.05 319.973 497.762 320.182 496.464 319.363C494.725 318.298 495.045 315.866 494.778 314.084C494.052 309.192 493.18 304.32 492.42 299.433C492.042 297.04 492.943 293.698 492.797 291.277L490.434 278.238L500.891 277.347Z" fill="#E4C79B"/>
<path d="M506.068 315.605C506.293 315.285 506.596 315.027 506.949 314.858C507.302 314.688 507.692 314.612 508.083 314.636C508.454 314.677 508.81 314.806 509.12 315.013C509.43 315.221 509.686 315.5 509.865 315.827C510.07 316.287 510.191 316.779 510.223 317.28C510.558 319.814 510.814 325.848 507.385 326.875C505.932 327.301 504.697 326.347 504.252 325.083C503.578 323.18 504.194 317.808 506.068 315.605Z" fill="#6D1064"/>
<path d="M503.08 277.313L503.971 292.812C504.077 299.704 505.496 306.582 505.598 313.478C505.598 315.062 505.278 316.752 505.758 318.322C506.237 319.891 507.516 320.051 508.79 319.218C510.5 318.094 510.107 315.677 510.316 313.89C510.897 308.974 511.618 304.082 512.253 299.171C512.553 296.75 511.551 293.456 511.628 291.03L513.594 277.924L503.08 277.313Z" fill="#E4C79B"/>
<path d="M510.974 185.048L496.992 185.852L489.393 191.582C489.393 191.582 490.182 215.479 489.877 224.323C489.572 233.167 489.005 240.354 488.235 253.295C487.392 267.535 491.025 284.666 491.025 284.666L520.569 284.215C520.569 284.215 526.589 251.808 523.475 243.405C520.361 235.002 522.225 226.643 522.119 219.77C522.012 212.897 519.16 189.858 519.16 189.858L510.974 185.048Z" fill="#E37294"/>
<path d="M517.581 186.869L524.749 192.802C524.749 192.802 521.712 219.257 521.581 223.64C521.45 228.023 523.877 241.037 523.877 241.037L513.469 240.068C510.338 235.134 508.312 229.581 507.531 223.79C506.397 214.515 512.631 184.782 512.631 184.782L517.581 186.869Z" fill="#6D1064"/>
<path d="M492.027 187.257L486.671 190.976C486.671 190.976 489.121 219.751 489.373 224.124C489.625 228.498 485.983 242.495 485.983 242.495L497.408 240.33C500.205 235.254 501.93 229.657 502.474 223.887C503.254 214.583 496.57 185.048 496.57 185.048L492.027 187.257Z" fill="#6D1064"/>
<path d="M538.852 164.546L541.957 165.588L545.773 161.248L544.393 157.659L540.741 156.55L538.736 161.171L538.852 164.546Z" fill="#A5A5CF"/>
<path d="M512.781 199.036L533.68 192.303L544.185 164.387L537.961 162.837L525.611 184.05L512.858 186.753L512.781 199.036Z" fill="#6D1064"/>
<path d="M328.499 138.605L228.108 208.197L229.399 210.06L329.791 140.468L328.499 138.605Z" fill="#95B7E3"/>
<path d="M225.52 73.9538L224.326 75.8801L328.56 140.533L329.754 138.607L225.52 73.9538Z" fill="#95B7E3"/>
<path d="M135.442 120.044L135.228 122.3L329.044 140.69L329.258 138.433L135.442 120.044Z" fill="#95B7E3"/>
<path d="M419.237 50.7708L325.489 138.744L327.04 140.397L420.788 52.4236L419.237 50.7708Z" fill="#95B7E3"/>
<path d="M326.901 138.643L325.664 140.542L449.684 221.328L450.921 219.429L326.901 138.643Z" fill="#95B7E3"/>
<path d="M532.259 129.092L329.117 135.725L329.191 137.99L532.333 131.358L532.259 129.092Z" fill="#95B7E3"/>
<path d="M320.923 191.65C354.768 191.65 382.205 164.213 382.205 130.367C382.205 96.5218 354.768 69.0847 320.923 69.0847C287.077 69.0847 259.64 96.5218 259.64 130.367C259.64 164.213 287.077 191.65 320.923 191.65Z" fill="#1074AB"/>
<path d="M222.724 96.7546C238.581 96.7546 251.436 83.9001 251.436 68.0434C251.436 52.1866 238.581 39.3322 222.724 39.3322C206.868 39.3322 194.013 52.1866 194.013 68.0434C194.013 83.9001 206.868 96.7546 222.724 96.7546Z" fill="#D76EE0"/>
<path d="M121.949 118.981C121.949 110.328 125.387 102.03 131.505 95.9115C137.623 89.7932 145.921 86.356 154.574 86.356C172.596 86.356 188.889 100.963 188.889 118.981C188.889 136.998 172.596 151.595 154.574 151.595C145.923 151.595 137.626 148.16 131.508 142.043C125.39 135.927 121.952 127.631 121.949 118.981Z" fill="#ED1F1F"/>
<path d="M233.099 234.896C247.318 234.896 258.846 223.368 258.846 209.149C258.846 194.929 247.318 183.401 233.099 183.401C218.879 183.401 207.352 194.929 207.352 209.149C207.352 223.368 218.879 234.896 233.099 234.896Z" fill="#26B7E4"/>
<path d="M419.266 82.2488C434.989 82.2488 447.735 69.5028 447.735 53.7798C447.735 38.0568 434.989 25.3108 419.266 25.3108C403.543 25.3108 390.797 38.0568 390.797 53.7798C390.797 69.5028 403.543 82.2488 419.266 82.2488Z" fill="#FF9900"/>
<path d="M450.288 248.074C467.42 248.074 481.309 234.185 481.309 217.053C481.309 199.92 467.42 186.031 450.288 186.031C433.155 186.031 419.266 199.92 419.266 217.053C419.266 234.185 433.155 248.074 450.288 248.074Z" fill="#EB0EA0"/>
<path d="M552.693 155.114C566.43 141.376 566.43 119.103 552.693 105.366C538.955 91.6285 516.682 91.6285 502.945 105.366C489.207 119.103 489.207 141.376 502.945 155.114C516.682 168.851 538.955 168.851 552.693 155.114Z" fill="#38A611"/>
<path d="M502.518 80.0548C512.113 80.0548 519.891 72.2767 519.891 62.6819C519.891 53.087 512.113 45.3089 502.518 45.3089C492.923 45.3089 485.145 53.087 485.145 62.6819C485.145 72.2767 492.923 80.0548 502.518 80.0548Z" fill="#801FBC"/>
<path d="M502.518 80.0548C512.113 80.0548 519.891 72.2767 519.891 62.6819C519.891 53.087 512.113 45.3089 502.518 45.3089C492.923 45.3089 485.145 53.087 485.145 62.6819C485.145 72.2767 492.923 80.0548 502.518 80.0548Z" fill="#801FBC"/>
<path d="M106.746 69.2832C116.341 69.2832 124.119 61.5051 124.119 51.9103C124.119 42.3154 116.341 34.5373 106.746 34.5373C97.1516 34.5373 89.3734 42.3154 89.3734 51.9103C89.3734 61.5051 97.1516 69.2832 106.746 69.2832Z" fill="#006ED5"/>
<path d="M104.576 120.196C106.99 109.97 100.657 99.7236 90.4305 97.31C80.2045 94.8964 69.9581 101.23 67.5446 111.456C65.131 121.682 71.4642 131.928 81.6902 134.342C91.9162 136.755 102.163 130.422 104.576 120.196Z" fill="#E7B400"/>
<path d="M139.206 225.863C150.938 225.863 160.449 216.352 160.449 204.62C160.449 192.888 150.938 183.377 139.206 183.377C127.474 183.377 117.964 192.888 117.964 204.62C117.964 216.352 127.474 225.863 139.206 225.863Z" fill="#0B956B"/>
<path d="M113.275 210.171L116.627 209.953L118.545 207.7L119.228 207.86L119.063 208.713L121.189 207.294L123.252 207.512L124.613 209.914L124.202 212.733L121.673 213.832L118.414 213.464L113.842 213.963L113.275 210.171Z" fill="#FCD87D"/>
<path d="M115.033 208.553L96.7207 209.037L100.445 180.917L87.9446 193.233L86.0605 219.184L92.7976 222.855L117.789 214.883L115.033 208.553Z" fill="#985F2B"/>
<path d="M375.25 189.635L380.205 184.83L393.543 185.721C393.543 185.721 394.885 195.209 400.939 216.404C406.993 237.598 398.13 264.58 398.13 264.58C398.13 264.58 363.786 256.419 356.933 255.073L365.534 216.326L375.25 189.635Z" fill="#1074AB"/>
<path d="M386.23 240.664V248.22L376.156 280.965L378.674 314.97L372.378 316.229L362.299 274.669L362.687 262.44L367.336 237.501L386.23 240.664Z" fill="#164D80"/>
<path d="M378.238 249.61L388.361 318.879H392.962L395.868 281.096L402.169 243.313L378.238 249.61Z" fill="#164D80"/>
<path d="M373.201 315.585L368.397 320.671L369.782 323.252L379.701 318.491L377.875 314.718L373.201 315.585Z" fill="black"/>
<path d="M388.448 317.905L382.52 321.635L383.222 324.478L394.013 322.346L393.185 318.239L388.448 317.905Z" fill="black"/>
<path d="M386.288 165.278C389.102 168.252 394.178 168.348 396.585 171.671C398.149 173.836 398.11 176.936 396.938 179.42C396.427 180.591 395.586 181.588 394.517 182.287C393.806 182.691 393.022 182.951 392.211 183.053C391.143 183.209 390.054 183.168 389 182.932C388.824 183.89 388.734 184.863 388.729 185.838C386.855 185.101 384.37 185.717 382.491 184.98C382.912 183.9 383.944 181.469 384.37 180.389C383.97 179.985 383.611 179.542 383.3 179.067C382.373 177.574 381.868 175.859 381.836 174.103C381.804 172.346 382.248 170.614 383.12 169.089C384.006 167.687 385.071 166.405 386.288 165.278Z" fill="#DC9D52"/>
<path d="M386.22 166.881L396.551 174.286L391.858 183.053L396.396 183.368L405.681 170.484L392.788 158.192L384.041 156.332L381.222 159.897L383.183 167.976L386.22 166.881Z" fill="black"/>
<path d="M379.648 185.353L397.67 185.407C397.67 185.407 400.3 191.587 406.354 212.781C412.408 233.975 403.54 260.957 403.54 260.957C403.54 260.957 372.824 245.778 365.965 244.432L370.944 212.708L379.648 185.353Z" fill="white"/>
<path d="M406.581 213.236C400.522 192.037 397.67 185.407 397.67 185.407L380.234 184.753V184.83C380.563 185.697 380.912 186.554 381.202 187.436C382.392 190.901 383.263 194.468 383.803 198.091C384.772 204.46 384.854 211.008 384.651 217.435C384.454 223.609 383.807 229.761 382.714 235.84C381.241 243.848 378.984 251.691 375.977 259.257C389.891 262.081 406.301 265.413 406.301 265.413C406.301 265.413 412.655 234.416 406.581 213.236Z" fill="#1074AB"/>
<path d="M373.129 218.157C372.451 221.015 371.724 224.231 372.305 227.006C372.305 227.006 374.175 230.91 374.335 230.75C374.335 230.624 376.466 228.871 377.061 227.563C378.074 225.335 378.292 222.55 378.316 220.031C378.388 211.1 377.861 202.111 379.367 193.296C381.125 192.759 382.631 191.47 381.551 189.635C378.132 190.933 377.769 198.629 377.023 201.772L373.129 218.157Z" fill="#2B426B"/>
<path d="M259.204 200.624L260.56 198.091L257.475 194.139L254.23 194.798L252.729 197.791L254.836 199.21L254.579 199.912L255.024 200.862L259.204 200.624Z" fill="#E2A273"/>
<path d="M346.96 175.662L344.994 170.615L347.115 169.68L349.227 172.838L350.021 171.932L351.179 176.451L349.106 177.72L346.96 175.662Z" fill="#DC9D52"/>
<path d="M391.795 192.023L369.554 194.11L351.3 174.79L347.319 177.517L361.994 203.06L391.795 208.015V192.023Z" fill="#1074AB"/>
<path d="M449.857 205.841C448.378 204.358 446.43 203.437 444.347 203.235C442.263 203.033 440.174 203.563 438.439 204.734C436.704 205.905 435.43 207.643 434.838 209.651C434.245 211.658 434.37 213.81 435.191 215.735H441.187L443.71 211.318C443.976 210.855 444.362 210.472 444.828 210.21C445.293 209.948 445.821 209.818 446.355 209.831C446.889 209.845 447.41 210.004 447.861 210.292C448.311 210.579 448.675 210.984 448.912 211.464L451.465 216.564L453.329 213.997C453.568 213.67 453.871 213.397 454.22 213.193C454.566 212.985 454.953 212.852 455.354 212.805C455.755 212.755 456.162 212.788 456.55 212.902C456.938 213.014 457.298 213.208 457.606 213.469L460.328 215.735H466.9C467.667 213.793 467.742 211.646 467.111 209.655C466.481 207.664 465.184 205.951 463.438 204.804C461.693 203.658 459.606 203.147 457.528 203.359C455.451 203.57 453.509 204.491 452.031 205.966L451.014 206.979L449.857 205.841Z" fill="white"/>
<path d="M450.137 232.479L439.966 221.635H442.897C443.417 221.636 443.929 221.499 444.379 221.237C444.829 220.976 445.202 220.6 445.459 220.148L446.098 219.034L448.35 223.548C448.573 223.998 448.907 224.384 449.319 224.671C449.74 224.961 450.23 225.136 450.74 225.177C451.25 225.219 451.762 225.126 452.225 224.909C452.689 224.693 453.089 224.359 453.382 223.94L456.255 219.998L457.368 220.932C457.901 221.374 458.571 221.615 459.262 221.615H462.168L451.852 232.479C451.74 232.594 451.607 232.686 451.46 232.75C451.307 232.816 451.142 232.849 450.975 232.847C450.809 232.849 450.644 232.816 450.491 232.75C450.345 232.684 450.213 232.59 450.103 232.474L450.137 232.479Z" fill="white"/>
<path d="M447.328 212.253C447.233 212.064 447.089 211.905 446.911 211.79C446.734 211.676 446.528 211.612 446.317 211.604C446.106 211.596 445.896 211.645 445.711 211.745C445.525 211.846 445.369 211.995 445.26 212.176L442.064 217.503H435.259C434.944 217.504 434.643 217.629 434.421 217.852C434.201 218.073 434.077 218.373 434.077 218.685C434.077 218.997 434.201 219.297 434.421 219.518C434.643 219.741 434.944 219.866 435.259 219.867H442.732C442.936 219.867 443.136 219.814 443.313 219.712C443.49 219.61 443.639 219.465 443.744 219.29L446.166 215.232L449.948 222.753C450.035 222.937 450.171 223.093 450.341 223.204C450.508 223.317 450.702 223.385 450.903 223.402C451.106 223.42 451.31 223.385 451.495 223.3C451.68 223.215 451.84 223.084 451.958 222.918L455.935 217.445L458.511 219.591C458.722 219.77 458.99 219.868 459.267 219.867H466.348C466.661 219.867 466.962 219.742 467.184 219.521C467.405 219.299 467.53 218.998 467.53 218.685C467.53 218.372 467.405 218.071 467.184 217.849C466.962 217.628 466.661 217.503 466.348 217.503H459.688L456.472 214.825C456.286 214.67 456.056 214.577 455.814 214.558C455.572 214.539 455.33 214.595 455.121 214.718C454.981 214.799 454.859 214.908 454.763 215.038L451.184 219.964L447.309 212.253H447.328Z" fill="white"/>
<path d="M530.522 129.316V126.183L532.9 127.098C533.119 127.183 533.353 127.225 533.588 127.224C533.952 127.216 534.307 127.106 534.611 126.907C534.916 126.707 535.158 126.425 535.31 126.094C535.462 125.762 535.517 125.395 535.469 125.034C535.422 124.673 535.273 124.332 535.041 124.051C533.848 122.763 532.26 121.911 530.527 121.63V121.455C530.566 121.181 530.546 120.901 530.467 120.635C530.389 120.368 530.254 120.122 530.072 119.913C529.89 119.703 529.666 119.535 529.413 119.42C529.161 119.304 528.886 119.245 528.609 119.245C528.331 119.245 528.057 119.304 527.805 119.42C527.552 119.535 527.327 119.703 527.146 119.913C526.964 120.122 526.829 120.368 526.751 120.635C526.672 120.901 526.652 121.181 526.691 121.455V121.635C523.354 122.259 520.942 124.483 520.942 127.204C520.942 129.926 523.364 132.159 526.691 132.784V135.918L524.318 135.002C523.921 134.867 523.49 134.864 523.092 134.994C522.693 135.124 522.347 135.38 522.106 135.724C521.866 136.067 521.743 136.48 521.756 136.899C521.77 137.318 521.919 137.722 522.182 138.049C523.372 139.337 524.96 140.189 526.691 140.47V140.645C526.652 140.919 526.672 141.199 526.751 141.466C526.829 141.732 526.964 141.978 527.146 142.188C527.327 142.397 527.552 142.565 527.805 142.68C528.057 142.796 528.331 142.855 528.609 142.855C528.886 142.855 529.161 142.796 529.413 142.68C529.666 142.565 529.89 142.397 530.072 142.188C530.254 141.978 530.389 141.732 530.467 141.466C530.546 141.199 530.566 140.919 530.527 140.645V140.456C533.869 139.831 536.281 137.613 536.281 134.886C536.281 132.159 533.864 129.931 530.522 129.316ZM526.686 128.861C525.48 128.473 524.749 127.766 524.749 127.224C524.749 126.681 525.456 125.979 526.686 125.592V128.861ZM530.522 136.528V133.263C531.728 133.651 532.459 134.358 532.459 134.896C532.459 135.433 531.728 136.131 530.522 136.518V136.528Z" fill="white"/>
<path d="M542.16 117.494C539.026 114.362 534.902 112.415 530.492 111.982C526.083 111.55 521.66 112.66 517.976 115.123C514.293 117.585 511.577 121.249 510.292 125.489C509.006 129.73 509.231 134.284 510.927 138.378C512.622 142.471 515.685 145.85 519.592 147.939C523.5 150.028 528.011 150.698 532.357 149.834C536.703 148.971 540.615 146.627 543.427 143.203C546.239 139.779 547.777 135.486 547.779 131.055C547.786 128.535 547.294 126.039 546.329 123.711C545.365 121.383 543.948 119.27 542.16 117.494ZM542.776 136.92C541.318 140.44 538.604 143.291 535.161 144.92C531.718 146.549 527.792 146.839 524.146 145.734C520.501 144.628 517.398 142.206 515.439 138.939C513.481 135.672 512.807 131.794 513.55 128.058C514.293 124.322 516.399 120.996 519.458 118.727C522.518 116.457 526.312 115.407 530.102 115.78C533.893 116.154 537.41 117.923 539.968 120.746C542.526 123.568 543.943 127.241 543.943 131.05C543.945 133.065 543.548 135.06 542.776 136.92Z" fill="white"/>
<path d="M172.121 133.593C172.12 134.496 171.806 135.37 171.232 136.068C170.659 136.765 169.861 137.242 168.975 137.417C168.089 137.592 167.17 137.455 166.374 137.028C165.578 136.602 164.955 135.913 164.61 135.078C164.265 134.244 164.22 133.316 164.483 132.452C164.745 131.588 165.299 130.842 166.05 130.341C166.801 129.839 167.703 129.614 168.602 129.703C169.5 129.791 170.34 130.189 170.978 130.827C171.343 131.189 171.631 131.621 171.828 132.095C172.024 132.57 172.124 133.079 172.121 133.593ZM148.66 129.684C147.887 129.684 147.132 129.914 146.489 130.343C145.846 130.772 145.345 131.383 145.049 132.097C144.754 132.811 144.676 133.597 144.827 134.355C144.978 135.114 145.35 135.81 145.897 136.357C146.443 136.903 147.14 137.275 147.898 137.426C148.656 137.577 149.442 137.5 150.156 137.204C150.87 136.908 151.481 136.407 151.91 135.764C152.34 135.122 152.569 134.366 152.569 133.593C152.574 133.078 152.476 132.568 152.281 132.092C152.086 131.616 151.798 131.183 151.434 130.819C151.07 130.455 150.638 130.167 150.162 129.973C149.685 129.778 149.175 129.68 148.66 129.684ZM149.053 123.093L148.99 123.33C148.99 123.458 149.041 123.582 149.132 123.672C149.222 123.763 149.346 123.814 149.474 123.814H172.117V127.728H148.66C147.623 127.726 146.628 127.314 145.895 126.58C145.161 125.846 144.748 124.852 144.747 123.814C144.753 123.159 144.919 122.516 145.231 121.94L147.89 117.15L140.853 102.31H136.944V98.3965H143.338L145.173 102.31H174.093C174.605 102.316 175.094 102.522 175.456 102.884C175.818 103.246 176.024 103.735 176.03 104.247C176.017 104.583 175.937 104.912 175.793 105.216L168.794 117.867C168.454 118.477 167.957 118.985 167.356 119.339C166.754 119.693 166.068 119.88 165.37 119.881H150.811L149.053 123.068V123.093ZM151.6 115.997H154.506V112.084H149.736L151.6 115.997ZM156.492 112.084V115.997H162.357V112.084H156.492ZM162.357 110.146V106.233H156.482V110.146H162.357ZM168.436 112.084H164.309V115.997H166.247L168.436 112.084ZM171.7 106.218H164.3V110.132H169.521L171.7 106.218ZM146.999 106.218L148.835 110.132H154.506V106.218H146.999Z" fill="white"/>
<path d="M152.085 204.557L150.205 198.929C149.933 198.109 149.409 197.395 148.709 196.89C148.008 196.384 147.166 196.111 146.302 196.11H133.801C132.937 196.111 132.095 196.384 131.394 196.89C130.694 197.395 130.17 198.109 129.897 198.929L128.018 204.557C127.52 204.768 127.094 205.12 126.793 205.569C126.492 206.02 126.332 206.549 126.333 207.09V211.207C126.334 211.686 126.461 212.157 126.702 212.572C126.943 212.987 127.288 213.331 127.703 213.57V215.324C127.703 215.504 127.739 215.683 127.808 215.849C127.877 216.016 127.979 216.167 128.107 216.295C128.234 216.422 128.386 216.523 128.553 216.591C128.72 216.66 128.899 216.695 129.079 216.694H130.45C130.813 216.694 131.162 216.55 131.419 216.293C131.676 216.036 131.82 215.687 131.82 215.324V213.953H148.288V215.324C148.288 215.504 148.323 215.683 148.392 215.849C148.462 216.016 148.563 216.167 148.691 216.295C148.818 216.422 148.97 216.523 149.137 216.591C149.304 216.66 149.483 216.695 149.663 216.694H151.034C151.397 216.694 151.746 216.55 152.003 216.293C152.26 216.036 152.404 215.687 152.404 215.324V213.59C152.822 213.353 153.169 213.009 153.411 212.594C153.653 212.179 153.78 211.707 153.78 211.226V207.11C153.782 206.564 153.622 206.03 153.321 205.575C153.019 205.121 152.588 204.766 152.085 204.557ZM133.791 198.856H146.302C146.59 198.858 146.87 198.949 147.104 199.117C147.338 199.286 147.513 199.523 147.605 199.796L149.121 204.344H130.982L132.498 199.796C132.59 199.523 132.765 199.285 132.998 199.116C133.232 198.948 133.513 198.857 133.801 198.856H133.791ZM131.128 211.207C130.857 211.207 130.589 211.154 130.338 211.052C130.09 210.945 129.864 210.794 129.67 210.606C129.331 210.269 129.12 209.826 129.072 209.35C129.024 208.875 129.143 208.398 129.408 208C129.672 207.603 130.067 207.309 130.524 207.17C130.981 207.031 131.472 207.054 131.913 207.237C132.355 207.419 132.719 207.749 132.944 208.171C133.17 208.592 133.242 209.078 133.149 209.547C133.055 210.015 132.802 210.437 132.433 210.739C132.064 211.042 131.6 211.207 131.123 211.207H131.128ZM148.966 211.207C148.492 211.206 148.033 211.041 147.667 210.74C147.301 210.439 147.051 210.02 146.96 209.555C146.868 209.09 146.94 208.608 147.164 208.191C147.387 207.773 147.749 207.446 148.187 207.265C148.625 207.084 149.112 207.06 149.565 207.198C150.018 207.336 150.41 207.626 150.673 208.02C150.936 208.414 151.055 208.887 151.008 209.359C150.962 209.83 150.753 210.271 150.419 210.606C150.033 210.991 149.51 211.207 148.966 211.207ZM130.823 193.369C131.061 193.786 131.405 194.132 131.82 194.373C132.235 194.614 132.706 194.741 133.186 194.741C133.666 194.741 134.137 194.614 134.552 194.373C134.968 194.132 135.312 193.786 135.55 193.369H144.544C144.782 193.786 145.126 194.132 145.541 194.373C145.956 194.614 146.427 194.741 146.907 194.741C147.387 194.741 147.859 194.614 148.274 194.373C148.689 194.132 149.033 193.786 149.271 193.369H146.907V190.623H149.271C149.033 190.206 148.689 189.86 148.274 189.619C147.859 189.378 147.387 189.251 146.907 189.251C146.427 189.251 145.956 189.378 145.541 189.619C145.126 189.86 144.782 190.206 144.544 190.623H135.559C135.321 190.206 134.977 189.86 134.562 189.619C134.147 189.378 133.676 189.251 133.196 189.251C132.716 189.251 132.244 189.378 131.829 189.619C131.414 189.86 131.07 190.206 130.832 190.623H133.196V193.369H130.823Z" fill="white"/>
<path d="M416.573 33.9029C417.26 33.3209 418.131 33.0015 419.031 33.0015C419.931 33.0015 420.802 33.3209 421.489 33.9029L432.929 43.5556C433.354 43.9115 433.695 44.3561 433.929 44.8582C434.164 45.3602 434.285 45.9075 434.285 46.4616V51.2371C433.316 50.3725 432.054 49.9113 430.756 49.948C429.458 49.9846 428.223 50.5164 427.305 51.4342C426.386 52.3521 425.853 53.5865 425.816 54.8844C425.778 56.1824 426.239 57.4455 427.103 58.4149H426.216C425.648 58.4148 425.087 58.5417 424.574 58.7864C424.061 59.0311 423.61 59.3874 423.252 59.8291V54.5887C423.253 54.4217 423.221 54.2561 423.158 54.1015C423.095 53.947 423.002 53.8064 422.884 53.6878C422.645 53.4498 422.321 53.3158 421.983 53.3149H416.045C415.708 53.3149 415.384 53.4491 415.145 53.688C414.906 53.9268 414.772 54.2508 414.772 54.5887V63.0645C414.772 63.4539 414.696 63.8396 414.547 64.1995C414.398 64.5594 414.18 64.8865 413.905 65.1618C413.629 65.4372 413.302 65.6555 412.943 65.8042C412.583 65.953 412.197 66.0292 411.807 66.0286H406.722C406.333 66.0284 405.948 65.9511 405.589 65.8009C405.226 65.6561 404.896 65.4385 404.62 65.1616C404.344 64.8837 404.125 64.5547 403.976 64.1929C403.826 63.834 403.748 63.4487 403.748 63.0596V46.447C403.75 45.8932 403.872 45.3464 404.106 44.8445C404.34 44.3426 404.681 43.8978 405.104 43.5411L416.573 33.9029ZM427.505 55.0342C427.51 54.2509 427.787 53.4938 428.288 52.8914C428.788 52.289 429.482 51.8786 430.251 51.7299C431.02 51.5812 431.817 51.7035 432.507 52.0758C433.196 52.4482 433.735 53.0477 434.032 53.7725C434.329 54.4973 434.366 55.3026 434.137 56.0515C433.907 56.8005 433.425 57.447 432.773 57.881C432.121 58.315 431.339 58.5098 430.559 58.4323C429.78 58.3548 429.051 58.0098 428.498 57.4559C428.177 57.1353 427.924 56.7537 427.753 56.3336C427.583 55.9135 427.498 55.4634 427.505 55.01V55.0342ZM426.216 60.0955C425.654 60.0955 425.114 60.319 424.716 60.7168C424.318 61.1147 424.095 61.6543 424.095 62.2169V62.7012V62.8804C424.186 63.7215 424.487 64.526 424.972 65.2197C425.897 66.542 427.66 67.6995 430.856 67.6995C434.053 67.6995 435.821 66.542 436.746 65.2197C437.23 64.526 437.531 63.7215 437.622 62.8804V62.7012C437.622 62.5801 437.622 62.459 437.622 62.338V62.1927C437.622 61.6309 437.4 61.092 437.003 60.6943C436.606 60.2966 436.068 60.0726 435.506 60.0713L426.216 60.0955Z" fill="white"/>
<path d="M233.51 61.5097L230.667 56.1821L225.098 54.3271V54.3658L216.438 56.8408C215.825 57.0165 215.286 57.3872 214.902 57.8966C214.518 58.4061 214.311 59.0267 214.312 59.6644V67.3653H217.247V59.6693L223.998 57.7319L221.015 66.8761L218.312 74.4462C218.186 74.8093 217.921 75.1075 217.575 75.2755C217.229 75.4434 216.83 75.4674 216.467 75.3422L210.384 73.3177L209.454 76.1026L215.532 78.1271C216.624 78.4921 217.816 78.4146 218.852 77.9112C219.888 77.4078 220.685 76.5186 221.073 75.4343L223.281 69.2058L224.855 69.7191L229.287 74.1508C229.425 74.2869 229.534 74.4491 229.608 74.6279C229.682 74.8068 229.719 74.9986 229.718 75.1921V84.9853H232.658V75.1921C232.66 74.6131 232.547 74.0396 232.325 73.5049C232.103 72.9702 231.776 72.485 231.365 72.0778L226.938 67.6462L229.394 60.1197L231.161 63.3018C231.356 63.6426 231.634 63.9279 231.97 64.13C232.31 64.3276 232.696 64.4312 233.089 64.4302H240.717V61.5097H233.51Z" fill="white"/>
<path d="M227.398 53.2131C227.828 53.5753 228.343 53.8218 228.895 53.9293C229.447 54.0367 230.017 54.0015 230.551 53.8271C231.086 53.6526 231.567 53.3447 231.949 52.9324C232.331 52.5201 232.602 52.017 232.735 51.4709C232.869 50.9248 232.86 50.3537 232.711 49.8117C232.562 49.2696 232.278 48.7745 231.884 48.3733C231.49 47.9721 231 47.678 230.461 47.5189C229.922 47.3598 229.351 47.3409 228.803 47.4641C228.07 47.6288 227.415 48.0378 226.945 48.6239C226.475 49.2101 226.218 49.9385 226.216 50.6898C226.214 51.1736 226.32 51.6518 226.526 52.0895C226.73 52.5282 227.028 52.9168 227.398 53.2276V53.2131Z" fill="white"/>
<path d="M238.339 191.228H232.668C232.367 191.23 232.079 191.349 231.866 191.561C231.653 191.773 231.532 192.061 231.53 192.362V197.389C229.009 197.754 226.705 199.015 225.038 200.941C223.371 202.867 222.454 205.328 222.453 207.875H221.315C220.416 207.875 219.553 208.232 218.918 208.868C218.282 209.504 217.925 210.366 217.925 211.265V220.371C217.926 220.672 218.046 220.96 218.26 221.172C218.473 221.385 218.762 221.504 219.063 221.504H230.033C230.083 221.504 230.132 221.495 230.178 221.476C230.224 221.457 230.265 221.428 230.299 221.392C230.37 221.322 230.41 221.226 230.411 221.126V216.583C230.412 216.383 230.492 216.192 230.633 216.05C230.775 215.909 230.966 215.829 231.166 215.827H234.949C235.15 215.827 235.342 215.907 235.485 216.048C235.627 216.19 235.708 216.382 235.709 216.583V221.126C235.709 221.226 235.749 221.322 235.82 221.393C235.891 221.464 235.987 221.504 236.087 221.504H247.057C247.359 221.503 247.648 221.383 247.861 221.17C247.966 221.065 248.049 220.94 248.106 220.803C248.162 220.666 248.191 220.519 248.191 220.371V211.28C248.191 210.38 247.833 209.518 247.198 208.882C246.562 208.246 245.699 207.889 244.8 207.889H243.623C243.624 205.211 242.609 202.632 240.784 200.672C238.959 198.711 236.458 197.516 233.787 197.326V195.766H238.325C238.526 195.768 238.719 195.689 238.862 195.549C239.004 195.405 239.084 195.212 239.085 195.011V191.984C239.084 191.783 239.003 191.591 238.861 191.449C238.718 191.308 238.526 191.228 238.325 191.228H238.339ZM238.339 205.981V209.008C238.339 209.309 238.22 209.597 238.007 209.809C237.795 210.022 237.507 210.141 237.206 210.141C236.905 210.141 236.617 210.022 236.405 209.809C236.192 209.597 236.073 209.309 236.073 209.008V205.981C236.072 205.833 236.101 205.686 236.157 205.549C236.214 205.411 236.297 205.287 236.402 205.182C236.507 205.076 236.633 204.992 236.771 204.934C236.908 204.877 237.056 204.847 237.206 204.847C237.355 204.847 237.503 204.877 237.641 204.934C237.779 204.992 237.905 205.076 238.01 205.182C238.115 205.287 238.198 205.411 238.255 205.549C238.311 205.686 238.34 205.833 238.339 205.981ZM232.668 204.872C232.968 204.874 233.254 204.995 233.466 205.207C233.678 205.419 233.799 205.705 233.801 206.005V209.032C233.8 209.334 233.68 209.623 233.467 209.836C233.363 209.942 233.238 210.026 233.101 210.084C232.964 210.141 232.816 210.171 232.668 210.17C232.366 210.169 232.078 210.049 231.864 209.836C231.651 209.623 231.531 209.334 231.53 209.032V206.005C231.532 205.705 231.653 205.417 231.866 205.205C232.079 204.993 232.367 204.873 232.668 204.872ZM229.277 206.005V209.032C229.259 209.321 229.131 209.591 228.92 209.789C228.709 209.986 228.431 210.096 228.142 210.096C227.853 210.096 227.574 209.986 227.364 209.789C227.153 209.591 227.025 209.321 227.006 209.032V206.005C227.025 205.717 227.153 205.446 227.364 205.249C227.574 205.051 227.853 204.941 228.142 204.941C228.431 204.941 228.709 205.051 228.92 205.249C229.131 205.446 229.259 205.717 229.277 206.005ZM223.587 211.653C223.888 211.654 224.177 211.774 224.391 211.987C224.495 212.092 224.579 212.216 224.635 212.353C224.692 212.491 224.72 212.638 224.72 212.786V216.569C224.721 216.718 224.692 216.865 224.636 217.003C224.579 217.141 224.496 217.267 224.391 217.372C224.232 217.532 224.03 217.641 223.809 217.685C223.589 217.729 223.36 217.707 223.152 217.62C222.944 217.534 222.767 217.388 222.643 217.201C222.518 217.014 222.452 216.793 222.453 216.569V212.786C222.453 212.485 222.573 212.197 222.785 211.984C222.998 211.772 223.286 211.653 223.587 211.653ZM243.638 212.786V216.569C243.619 216.857 243.491 217.127 243.28 217.325C243.069 217.523 242.791 217.632 242.502 217.632C242.213 217.632 241.935 217.523 241.724 217.325C241.513 217.127 241.385 216.857 241.366 216.569V212.786C241.385 212.497 241.513 212.227 241.724 212.029C241.935 211.832 242.213 211.722 242.502 211.722C242.791 211.722 243.069 211.832 243.28 212.029C243.491 212.227 243.619 212.497 243.638 212.786Z" fill="white"/>
<path d="M86.4819 107.173C86.9197 107.173 87.3477 107.043 87.7116 106.799C88.0756 106.556 88.3593 106.211 88.5269 105.806C88.6944 105.402 88.7382 104.957 88.6528 104.527C88.5674 104.098 88.3566 103.704 88.0471 103.394C87.7375 103.084 87.3431 102.874 86.9138 102.788C86.4844 102.703 86.0394 102.747 85.6349 102.914C85.2305 103.082 84.8848 103.365 84.6416 103.729C84.3984 104.093 84.2685 104.521 84.2685 104.959C84.2698 105.546 84.5034 106.108 84.9183 106.523C85.3331 106.938 85.8953 107.171 86.4819 107.173ZM93.6743 114.922V126.546H92.57V114.922C92.5772 114.845 92.5682 114.767 92.5437 114.693C92.5191 114.62 92.4794 114.552 92.4272 114.495C92.375 114.438 92.3114 114.392 92.2405 114.36C92.1696 114.329 92.093 114.313 92.0154 114.313C91.9379 114.313 91.8612 114.329 91.7903 114.36C91.7194 114.392 91.6559 114.438 91.6037 114.495C91.5515 114.552 91.5118 114.62 91.4872 114.693C91.4626 114.767 91.4537 114.845 91.4609 114.922V116.026H90.3566V115.271C88.7658 114.849 87.3863 113.856 86.4819 112.481C86.13 113.441 85.9465 114.456 85.9395 115.479C85.9395 115.731 85.9395 115.987 85.9734 116.244L88.1529 119.353V126.546H85.9395V121.005L83.9683 118.196L83.7261 122.114L80.4036 126.541L78.6358 125.214L81.5127 121.373V115.474C81.519 114.203 81.7049 112.939 82.0648 111.72L80.4036 112.689V116.602H78.1902V111.396L84.1668 108.006C84.4996 107.83 84.8708 107.74 85.2469 107.744C85.6223 107.754 85.9897 107.856 86.3173 108.039C86.6904 108.261 86.9915 108.585 87.1842 108.974L88.0609 110.824C88.4293 111.556 88.9943 112.17 89.6924 112.597C90.3906 113.025 91.1942 113.25 92.013 113.246C92.2326 113.245 92.4501 113.288 92.6529 113.373C92.8557 113.457 93.0397 113.58 93.1943 113.736C93.3489 113.892 93.4709 114.077 93.5533 114.281C93.6357 114.484 93.6768 114.702 93.6743 114.922Z" fill="white"/>
<path d="M104.983 42.0493C105.474 42.0435 105.951 41.893 106.356 41.6165C106.761 41.34 107.074 40.95 107.258 40.4955C107.442 40.041 107.487 39.5424 107.388 39.0624C107.289 38.5823 107.05 38.1423 106.701 37.7977C106.352 37.4532 105.91 37.2194 105.428 37.1259C104.947 37.0323 104.449 37.0832 103.997 37.2721C103.545 37.4609 103.158 37.7794 102.887 38.1873C102.615 38.5953 102.47 39.0745 102.47 39.5647C102.472 39.8928 102.538 40.2175 102.666 40.5199C102.793 40.8224 102.979 41.0969 103.212 41.3276C103.445 41.5583 103.722 41.7408 104.026 41.8646C104.33 41.9884 104.655 42.0512 104.983 42.0493Z" fill="white"/>
<path fill-rule="evenodd" clip-rule="evenodd" d="M115.275 62.3137C115.001 62.3141 114.732 62.2458 114.491 62.1152C114.248 61.9876 114.043 61.7989 113.895 61.5679L111.745 57.33H104.136C103.914 57.3306 103.695 57.2861 103.492 57.1992C103.29 57.1143 103.108 56.9909 102.954 56.8359C102.798 56.6798 102.674 56.494 102.591 56.2893C102.508 56.0847 102.467 55.8654 102.47 55.6445V45.6285C102.458 45.4025 102.491 45.1763 102.57 44.9639C102.648 44.7514 102.768 44.5571 102.924 44.3928C103.08 44.2285 103.267 44.0976 103.475 44.0082C103.683 43.9187 103.907 43.8726 104.133 43.8726C104.36 43.8726 104.584 43.9187 104.792 44.0082C105 44.0976 105.187 44.2285 105.343 44.3928C105.499 44.5571 105.619 44.7514 105.697 44.9639C105.775 45.1763 105.809 45.4025 105.797 45.6285V53.9639H112.646C112.919 53.9635 113.188 54.0315 113.428 54.1618C113.668 54.2921 113.872 54.4805 114.021 54.7097L115.852 58.4633L116.956 58.008C117.153 57.9106 117.367 57.853 117.586 57.8385C117.805 57.8229 118.025 57.8513 118.233 57.922C118.441 57.9927 118.632 58.1043 118.797 58.2502C118.96 58.3952 119.094 58.5714 119.189 58.7684C119.385 59.1679 119.416 59.6284 119.276 60.0507C119.135 60.473 118.834 60.8231 118.438 61.0254L116.016 62.1394C115.786 62.2544 115.533 62.3141 115.275 62.3137Z" fill="white"/>
<path fill-rule="evenodd" clip-rule="evenodd" d="M103.109 64.0428C101.202 64.0464 99.3433 63.4418 97.8033 62.3167C96.2634 61.1917 95.1223 59.6048 94.546 57.7868C93.9698 55.9688 93.9882 54.0144 94.5988 52.2077C95.2094 50.4009 96.3803 48.8359 97.9412 47.7402C98.062 47.6543 98.1986 47.5934 98.3432 47.561C98.4887 47.5319 98.6385 47.5319 98.784 47.561C98.9295 47.5843 99.0683 47.6388 99.1908 47.7208C99.3175 47.7991 99.4264 47.903 99.5105 48.026C99.5954 48.1455 99.6563 48.2804 99.6897 48.4231C99.7211 48.5684 99.7211 48.7186 99.6897 48.8639C99.665 49.0098 99.6124 49.1496 99.5347 49.2755C99.4537 49.4001 99.3502 49.5085 99.2295 49.5952C98.4694 50.1382 97.8308 50.8337 97.3547 51.6373C96.8785 52.441 96.5752 53.3352 96.4641 54.2627C96.353 55.1902 96.4366 56.1307 96.7095 57.024C96.9823 57.9174 97.4386 58.7441 98.049 59.4512C98.6594 60.1583 99.4105 60.7304 100.255 61.1308C101.098 61.5312 102.017 61.7512 102.95 61.7768C103.884 61.8023 104.813 61.6328 105.678 61.2791C106.542 60.9254 107.324 60.3953 107.972 59.7226C108.072 59.6067 108.194 59.5125 108.332 59.4455C108.47 59.3786 108.62 59.3403 108.773 59.3331C108.925 59.3259 109.078 59.3499 109.222 59.4037C109.365 59.4574 109.496 59.5397 109.606 59.6456C109.717 59.7516 109.805 59.8789 109.865 60.0198C109.924 60.1607 109.955 60.3124 109.954 60.4654C109.953 60.6185 109.922 60.7699 109.861 60.9103C109.8 61.0507 109.711 61.1772 109.599 61.2821C108.76 62.1608 107.752 62.8595 106.634 63.3358C105.517 63.8121 104.314 64.0559 103.099 64.0525L103.109 64.0428Z" fill="white"/>
<path d="M304.649 151.416C306.882 151.416 308.882 150.297 310.577 148.844H310.708L311.013 150.976H314.2V139.763C314.2 134.818 312.064 131.873 307.419 131.873C304.441 131.873 301.83 133.094 299.898 134.295L301.351 136.94C302.944 135.922 304.775 135.041 306.737 135.041C309.483 135.041 310.262 136.94 310.296 139.105C302.547 139.952 299.157 142.011 299.157 146.016C299.176 149.319 301.443 151.416 304.649 151.416ZM305.831 148.336C304.174 148.336 302.925 147.59 302.925 145.759C302.925 143.662 304.79 142.238 310.311 141.594V146.166C308.795 147.556 307.473 148.336 305.845 148.336H305.831Z" fill="white"/>
<path d="M318.825 150.975H320.792V146.098L324.666 141.492L330.478 150.975H332.648L325.805 140.102L331.699 132.924H329.495L320.86 143.58H320.792V124.047H318.825V150.975Z" fill="white"/>
<path d="M334.678 150.975H338.552V132.348H334.678V150.975ZM336.615 128.856C336.931 128.878 337.248 128.833 337.546 128.725C337.844 128.616 338.116 128.447 338.344 128.227C338.572 128.007 338.752 127.741 338.871 127.448C338.991 127.154 339.047 126.838 339.037 126.522C339.037 125.132 338.02 124.216 336.615 124.216C336.31 124.216 336.009 124.276 335.727 124.393C335.446 124.509 335.19 124.68 334.975 124.896C334.759 125.111 334.588 125.367 334.472 125.648C334.355 125.93 334.295 126.231 334.295 126.536C334.295 126.841 334.355 127.142 334.472 127.424C334.588 127.705 334.759 127.961 334.975 128.177C335.19 128.392 335.446 128.563 335.727 128.679C336.009 128.796 336.31 128.856 336.615 128.856Z" fill="white"/>
<path d="M345.909 151.416C346.358 151.423 346.805 151.355 347.231 151.213L346.926 149.658C346.715 149.704 346.499 149.726 346.282 149.726C345.798 149.726 345.473 149.353 345.473 148.505V124.047H343.507V148.302C343.507 150.399 344.287 151.416 345.909 151.416Z" fill="white"/>
<path d="M355.179 151.416C357.485 151.416 359.65 150.162 361.476 148.675H361.543L361.747 150.975H363.408V139.526C363.408 135.53 361.883 132.45 357.596 132.45C354.647 132.45 352.143 133.869 350.753 134.818L351.629 136.242C353.255 134.961 355.247 134.232 357.315 134.159C360.735 134.159 361.514 136.94 361.447 139.613C353.484 140.528 349.929 142.427 349.929 146.423C349.929 149.789 352.269 151.416 355.179 151.416ZM355.586 149.755C353.586 149.755 351.896 148.81 351.896 146.336C351.896 143.56 354.317 141.899 361.447 141.085V146.946C359.311 148.81 357.586 149.755 355.586 149.755Z" fill="white"/>
<path fill-rule="evenodd" clip-rule="evenodd" d="M280.195 143.066L279.43 148.641L286.656 144.195L280.195 143.066ZM279.357 142.921L278.495 149.416L278.912 149.474L279.135 149.832L288.056 144.33L287.833 143.967L287.906 143.551L280.307 142.228L281.217 135.579L280.379 135.467L279.464 142.083L273.453 141.032L273.308 141.865L279.357 142.921Z" fill="white"/>
<path d="M288.608 147.236C290.363 147.236 291.785 145.814 291.785 144.059C291.785 142.305 290.363 140.882 288.608 140.882C286.853 140.882 285.431 142.305 285.431 144.059C285.431 145.814 286.853 147.236 288.608 147.236Z" fill="white"/>
<path d="M279.033 151.387C279.969 151.387 280.728 150.628 280.728 149.692C280.728 148.756 279.969 147.997 279.033 147.997C278.097 147.997 277.338 148.756 277.338 149.692C277.338 150.628 278.097 151.387 279.033 151.387Z" fill="white"/>
<path d="M272.979 142.524C273.797 142.524 274.461 141.86 274.461 141.042C274.461 140.223 273.797 139.56 272.979 139.56C272.16 139.56 271.497 140.223 271.497 141.042C271.497 141.86 272.16 142.524 272.979 142.524Z" fill="white"/>
<path d="M281.028 137.869C282.315 137.869 283.358 136.826 283.358 135.54C283.358 134.253 282.315 133.21 281.028 133.21C279.742 133.21 278.699 134.253 278.699 135.54C278.699 136.826 279.742 137.869 281.028 137.869Z" fill="white"/>
<path d="M292.686 112.849V115.028H291.407V108.848H293.829C294.252 108.838 294.671 108.926 295.055 109.105C295.391 109.262 295.675 109.513 295.873 109.827C296.063 110.151 296.161 110.521 296.154 110.897C296.17 111.171 296.122 111.444 296.015 111.696C295.907 111.949 295.743 112.172 295.534 112.35C295.039 112.726 294.426 112.913 293.805 112.878L292.686 112.849ZM292.686 111.812H293.829C294.106 111.833 294.381 111.748 294.599 111.575C294.691 111.488 294.762 111.381 294.808 111.263C294.854 111.145 294.874 111.019 294.866 110.892C294.874 110.757 294.854 110.621 294.806 110.494C294.759 110.367 294.685 110.252 294.59 110.155C294.495 110.058 294.381 109.982 294.255 109.932C294.129 109.883 293.994 109.86 293.858 109.865H292.686V111.812Z" fill="white"/>
<path d="M302.126 112.088C302.136 112.64 302.025 113.187 301.801 113.692C301.604 114.13 301.282 114.5 300.876 114.757C300.458 115 299.982 115.128 299.498 115.128C299.014 115.128 298.539 115 298.12 114.757C297.71 114.504 297.383 114.135 297.181 113.696C296.952 113.202 296.838 112.662 296.847 112.118V111.808C296.836 111.254 296.948 110.705 297.176 110.2C297.374 109.759 297.697 109.387 298.106 109.129C298.524 108.885 298.999 108.756 299.484 108.756C299.968 108.756 300.443 108.885 300.862 109.129C301.271 109.387 301.596 109.759 301.796 110.2C302.024 110.705 302.136 111.254 302.126 111.808V112.088ZM300.833 111.808C300.866 111.289 300.742 110.773 300.479 110.326C300.371 110.17 300.226 110.044 300.057 109.96C299.887 109.875 299.699 109.834 299.51 109.841C299.317 109.831 299.125 109.871 298.951 109.955C298.778 110.04 298.629 110.167 298.517 110.326C298.26 110.765 298.137 111.27 298.164 111.779V112.084C298.138 112.591 298.259 113.096 298.513 113.537C298.62 113.705 298.769 113.842 298.946 113.933C299.123 114.025 299.321 114.069 299.52 114.06C299.709 114.068 299.897 114.027 300.067 113.943C300.236 113.858 300.381 113.732 300.489 113.575C300.745 113.135 300.867 112.631 300.842 112.122L300.833 111.808Z" fill="white"/>
<path d="M307.88 113.256L308.713 108.848H309.977L308.601 115.043H307.318L306.315 110.912L305.308 115.057H304.024L302.649 108.863H303.923L304.76 113.265L305.782 108.863H306.862L307.88 113.256Z" fill="white"/>
<path d="M314.403 112.365H311.953V114.026H314.82V115.048H310.664V108.848H314.82V109.88H311.953V111.333H314.403V112.365Z" fill="white"/>
<path d="M317.876 112.776H316.859V115.043H315.58V108.848H317.881C318.485 108.806 319.085 108.977 319.576 109.333C319.776 109.501 319.934 109.714 320.038 109.955C320.141 110.195 320.187 110.457 320.172 110.718C320.184 111.088 320.09 111.455 319.901 111.774C319.695 112.075 319.405 112.309 319.068 112.447L320.409 114.98V115.038H319.039L317.876 112.776ZM316.859 111.74H317.886C318.157 111.759 318.424 111.672 318.632 111.498C318.721 111.411 318.791 111.306 318.837 111.19C318.883 111.074 318.904 110.949 318.898 110.824C318.909 110.569 318.818 110.32 318.646 110.132C318.542 110.041 318.42 109.972 318.289 109.929C318.157 109.886 318.019 109.869 317.881 109.88H316.859V111.74Z" fill="white"/>
<path d="M324.875 112.365H322.419V114.026H325.301V115.048H321.145V108.848H325.291V109.88H322.419V111.333H324.875V112.365Z" fill="white"/>
<path d="M326.047 115.043V108.848H327.955C328.463 108.842 328.964 108.969 329.408 109.216C329.837 109.462 330.187 109.825 330.416 110.263C330.662 110.74 330.785 111.271 330.774 111.808V112.093C330.784 112.626 330.663 113.154 330.42 113.629C330.193 114.065 329.845 114.426 329.418 114.67C328.974 114.919 328.473 115.048 327.965 115.043H326.047ZM327.326 109.88V114.021H327.941C328.156 114.034 328.372 113.998 328.571 113.914C328.771 113.83 328.948 113.701 329.088 113.537C329.376 113.127 329.518 112.632 329.49 112.132V111.808C329.531 111.293 329.392 110.779 329.098 110.355C328.959 110.19 328.783 110.061 328.584 109.977C328.386 109.893 328.17 109.856 327.955 109.87L327.326 109.88Z" fill="white"/>
<path d="M333.883 115.043V108.848H336.058C336.659 108.809 337.257 108.959 337.768 109.279C337.961 109.426 338.115 109.618 338.216 109.839C338.318 110.059 338.363 110.301 338.349 110.543C338.354 110.829 338.273 111.109 338.116 111.347C337.954 111.573 337.726 111.743 337.463 111.832C337.762 111.902 338.029 112.073 338.218 112.316C338.403 112.574 338.498 112.885 338.489 113.202C338.507 113.457 338.464 113.713 338.365 113.949C338.266 114.184 338.113 114.393 337.918 114.559C337.448 114.9 336.875 115.07 336.295 115.043H333.883ZM335.162 111.444H336.131C336.775 111.444 337.099 111.178 337.099 110.674C337.11 110.561 337.094 110.446 337.051 110.341C337.007 110.236 336.939 110.142 336.852 110.069C336.622 109.925 336.352 109.859 336.082 109.88H335.162V111.444ZM335.162 112.345V114.021H336.257C336.509 114.036 336.759 113.959 336.959 113.803C337.044 113.731 337.112 113.64 337.156 113.538C337.201 113.435 337.221 113.324 337.216 113.212C337.23 113.094 337.217 112.973 337.178 112.86C337.138 112.748 337.073 112.645 336.988 112.562C336.903 112.478 336.8 112.415 336.686 112.377C336.573 112.34 336.452 112.329 336.334 112.345H335.162Z" fill="white"/>
<path d="M341.352 111.638L342.64 108.848H344.035L342.001 112.796V115.043H340.703V112.796L338.668 108.848H340.068L341.352 111.638Z" fill="white"/>
</svg>
