<svg width="732" height="357" viewBox="0 0 732 357" fill="none" xmlns="http://www.w3.org/2000/svg">
<path d="M51.2464 355.538C51.2768 355.561 689.896 355.459 689.896 355.459C710.919 310.613 710.886 288.702 713.279 262.996C726.488 120.918 619.476 99.0748 588.12 93.1506C492.126 75.0106 535.82 -14.7474 285.681 2.0933C262.762 3.63832 208.704 16.0972 190.08 24.1719C177.013 29.8276 127.773 55.1431 113.336 97.9655C108.777 111.483 107.678 126.741 112.277 143.678C128.563 203.607 86.1157 200.162 55.1115 228.715C13.7202 266.838 18.0463 329.174 51.2464 355.538Z" fill="#D0E5F3"/>
<path d="M431.655 355.497H431.741C431.864 355.498 431.985 355.473 432.098 355.426C432.211 355.379 432.314 355.309 432.4 355.221C432.485 355.134 432.553 355.03 432.597 354.916C432.642 354.802 432.664 354.68 432.661 354.557L431.268 294.173L427.165 293.694L430.665 354.563C430.679 354.815 430.79 355.053 430.974 355.227C431.158 355.401 431.402 355.498 431.655 355.497Z" fill="#88A2E0"/>
<path d="M455.57 355.497H455.656C455.779 355.498 455.9 355.473 456.013 355.426C456.126 355.379 456.229 355.309 456.314 355.221C456.4 355.134 456.467 355.03 456.512 354.916C456.557 354.802 456.579 354.68 456.576 354.557L455.183 294.173L451.079 293.694L454.577 354.563C454.592 354.816 454.703 355.053 454.888 355.227C455.072 355.401 455.317 355.498 455.57 355.497Z" fill="#578AD6"/>
<path d="M389.578 355.497H389.491C389.369 355.497 389.248 355.473 389.135 355.425C389.022 355.378 388.92 355.308 388.834 355.221C388.748 355.133 388.681 355.029 388.636 354.916C388.591 354.802 388.569 354.68 388.572 354.557L389.965 294.173L394.071 293.694L390.56 354.563C390.545 354.814 390.436 355.05 390.253 355.224C390.071 355.397 389.829 355.495 389.578 355.497Z" fill="#88A2E0"/>
<path d="M458.288 290.429V249.05C458.288 245.557 456.9 242.207 454.43 239.737C451.96 237.267 448.61 235.88 445.117 235.88H415.293C411.799 235.881 408.448 237.268 405.976 239.737C403.505 242.207 402.114 245.556 402.11 249.05V292.01L458.288 290.429Z" fill="#88A2E0"/>
<path d="M454.329 296.961H396.771V290.429H458.288V293.002C458.288 294.052 457.871 295.059 457.128 295.802C456.386 296.544 455.379 296.961 454.329 296.961Z" fill="#578AD6"/>
<path d="M389.874 296.961H433.418C435.035 296.961 436.346 295.65 436.346 294.033V293.357C436.346 291.74 435.035 290.429 433.418 290.429H389.874C388.257 290.429 386.946 291.74 386.946 293.357V294.033C386.946 295.65 388.257 296.961 389.874 296.961Z" fill="#9FC9EA"/>
<path d="M490.216 72.65H318.357V221.007H490.216V72.65Z" fill="#1074AB"/>
<path d="M486.873 75.1194H321.627V218.046H486.873V75.1194Z" fill="#C8D8FB"/>
<path d="M379.383 137.308H343.174V92.0918L349.313 86.5551H379.383V137.308Z" fill="white"/>
<path d="M343.174 92.0918H349.116L349.313 86.5551L343.174 92.0918Z" fill="#88A2E0"/>
<path d="M367.073 90.9572H355.481V91.5093H367.073V90.9572Z" fill="#88A2E0"/>
<path d="M369.804 92.6136H352.75V93.1658H369.804V92.6136Z" fill="#88A2E0"/>
<path d="M375.774 103.251H347.459V103.961H375.774V103.251Z" fill="#88A2E0"/>
<path d="M375.774 105.407H347.459V106.116H375.774V105.407Z" fill="#88A2E0"/>
<path d="M375.774 107.562H347.459V108.271H375.774V107.562Z" fill="#88A2E0"/>
<path d="M375.774 109.718H347.459V110.427H375.774V109.718Z" fill="#88A2E0"/>
<path d="M375.774 132.789H347.459V133.498H375.774V132.789Z" fill="#88A2E0"/>
<path d="M421.195 200.038H384.983V154.822L391.125 149.288H421.195V200.038Z" fill="white"/>
<path d="M384.983 154.822H390.928L391.125 149.288L384.983 154.822Z" fill="#88A2E0"/>
<path d="M408.888 153.69H397.292V154.242H408.888V153.69Z" fill="#88A2E0"/>
<path d="M411.616 155.346H394.562V155.899H411.616V155.346Z" fill="#88A2E0"/>
<path d="M417.585 165.984H389.271V166.693H417.585V165.984Z" fill="#88A2E0"/>
<path d="M417.585 168.14H389.271V168.849H417.585V168.14Z" fill="#88A2E0"/>
<path d="M417.585 170.295H389.271V171.004H417.585V170.295Z" fill="#88A2E0"/>
<path d="M417.585 172.451H389.271V173.16H417.585V172.451Z" fill="#88A2E0"/>
<path d="M417.585 179.084H389.271V179.793H417.585V179.084Z" fill="#88A2E0"/>
<path d="M417.585 181.239H389.271V181.949H417.585V181.239Z" fill="#88A2E0"/>
<path d="M417.585 183.739H389.271V184.448H417.585V183.739Z" fill="#88A2E0"/>
<path d="M441.627 86.5551H421.633V104.184H441.627V86.5551Z" fill="#88A2E0"/>
<path d="M430.756 88.6498C430.756 88.4762 430.807 88.3064 430.903 88.1619C430.999 88.0174 431.136 87.9047 431.296 87.8381C431.456 87.7714 431.633 87.7539 431.803 87.7876C431.973 87.8213 432.129 87.9048 432.252 88.0276C432.375 88.1503 432.458 88.3066 432.492 88.4769C432.526 88.6471 432.508 88.8235 432.442 88.9838C432.375 89.144 432.262 89.2808 432.118 89.3769C431.973 89.473 431.803 89.5241 431.63 89.5236C431.398 89.5236 431.176 89.4315 431.012 89.2676C430.848 89.1038 430.756 88.8815 430.756 88.6498Z" fill="#CCB619"/>
<path d="M440.984 109.748L421.039 111.139L422.265 128.725L442.211 127.333L440.984 109.748Z" fill="white"/>
<path d="M430.366 113.664C430.354 113.492 430.394 113.32 430.48 113.17C430.566 113.02 430.695 112.899 430.849 112.823C431.004 112.746 431.178 112.717 431.349 112.739C431.52 112.761 431.681 112.833 431.811 112.946C431.942 113.059 432.035 113.209 432.081 113.375C432.126 113.542 432.121 113.718 432.067 113.882C432.012 114.046 431.91 114.19 431.774 114.295C431.637 114.401 431.473 114.464 431.301 114.477C431.186 114.485 431.07 114.471 430.961 114.434C430.852 114.398 430.751 114.34 430.664 114.265C430.577 114.189 430.506 114.097 430.455 113.994C430.404 113.891 430.374 113.779 430.366 113.664Z" fill="#88A2E0"/>
<path d="M374.537 174.685L354.592 176.076L355.818 193.661L375.764 192.27L374.537 174.685Z" fill="white"/>
<path d="M363.923 178.605C363.911 178.433 363.951 178.261 364.037 178.111C364.123 177.962 364.251 177.841 364.406 177.764C364.56 177.687 364.734 177.658 364.906 177.68C365.077 177.702 365.238 177.774 365.368 177.887C365.498 178.001 365.592 178.15 365.637 178.317C365.683 178.483 365.678 178.66 365.623 178.823C365.569 178.987 365.467 179.131 365.33 179.237C365.194 179.343 365.029 179.406 364.857 179.418C364.742 179.427 364.627 179.412 364.518 179.376C364.409 179.339 364.308 179.282 364.221 179.206C364.134 179.13 364.063 179.039 364.012 178.935C363.961 178.832 363.93 178.72 363.923 178.605Z" fill="#88A2E0"/>
<path d="M349.459 187.3L329.466 187.506L329.648 205.134L349.641 204.928L349.459 187.3Z" fill="white"/>
<path d="M338.61 190.618C338.608 190.445 338.657 190.275 338.752 190.13C338.846 189.985 338.982 189.871 339.141 189.803C339.301 189.734 339.477 189.715 339.647 189.747C339.817 189.779 339.974 189.86 340.098 189.982C340.222 190.103 340.308 190.258 340.343 190.427C340.379 190.597 340.364 190.773 340.299 190.934C340.235 191.095 340.124 191.233 339.981 191.331C339.838 191.429 339.669 191.483 339.496 191.485C339.264 191.487 339.04 191.397 338.874 191.234C338.708 191.072 338.613 190.851 338.61 190.618Z" fill="#88A2E0"/>
<path d="M471.268 123.867L451.586 120.35L448.485 137.704L468.168 141.22L471.268 123.867Z" fill="#E2EBFF"/>
<path d="M460.251 124.345C460.278 124.197 460.348 124.061 460.452 123.953C460.556 123.845 460.69 123.77 460.837 123.738C460.983 123.706 461.136 123.718 461.276 123.773C461.416 123.828 461.536 123.923 461.622 124.046C461.708 124.169 461.755 124.315 461.758 124.465C461.761 124.616 461.719 124.763 461.639 124.89C461.558 125.016 461.441 125.116 461.304 125.176C461.166 125.237 461.014 125.255 460.866 125.229C460.768 125.211 460.674 125.175 460.589 125.121C460.505 125.067 460.432 124.997 460.375 124.915C460.318 124.832 460.277 124.74 460.256 124.642C460.235 124.544 460.233 124.443 460.251 124.345Z" fill="#3697D5"/>
<path d="M409.844 109.349L389.966 111.502L391.864 129.028L411.742 126.875L409.844 109.349Z" fill="#E2EBFF"/>
<path d="M399.402 112.904C399.387 112.755 399.416 112.604 399.486 112.471C399.555 112.338 399.663 112.229 399.795 112.157C399.927 112.086 400.077 112.055 400.227 112.068C400.376 112.082 400.518 112.139 400.635 112.234C400.752 112.328 400.838 112.455 400.883 112.598C400.928 112.741 400.929 112.894 400.887 113.039C400.845 113.183 400.761 113.311 400.646 113.407C400.531 113.504 400.39 113.564 400.241 113.58C400.141 113.591 400.041 113.582 399.944 113.554C399.848 113.526 399.759 113.479 399.681 113.416C399.603 113.354 399.538 113.276 399.491 113.188C399.443 113.1 399.413 113.004 399.402 112.904Z" fill="#3697D5"/>
<path d="M357.943 151.022L338.389 155.193L342.066 172.433L361.621 168.263L357.943 151.022Z" fill="#6FBCDE"/>
<path d="M348.245 156.094C348.119 156.012 348.02 155.894 347.961 155.756C347.902 155.618 347.885 155.466 347.912 155.318C347.94 155.171 348.01 155.035 348.115 154.927C348.219 154.819 348.354 154.745 348.5 154.714C348.647 154.682 348.8 154.695 348.939 154.751C349.079 154.806 349.199 154.901 349.284 155.025C349.37 155.148 349.417 155.294 349.419 155.444C349.421 155.595 349.379 155.742 349.298 155.868C349.244 155.952 349.174 156.025 349.091 156.082C349.009 156.139 348.916 156.179 348.818 156.2C348.72 156.221 348.619 156.222 348.521 156.204C348.422 156.186 348.328 156.148 348.245 156.094Z" fill="#CCB619"/>
<path d="M410.364 104.184H391.335V91.3979L396.604 86.5551H410.364V104.184Z" fill="white"/>
<path d="M391.231 91.3979H396.431L396.604 86.5551L391.231 91.3979Z" fill="#88A2E0"/>
<path d="M400.919 88.1863C400.919 88.0625 400.956 87.9416 401.025 87.8387C401.094 87.7358 401.191 87.6556 401.306 87.6083C401.42 87.5609 401.546 87.5486 401.667 87.5727C401.788 87.5968 401.9 87.6564 401.987 87.7439C402.075 87.8314 402.134 87.9429 402.159 88.0642C402.183 88.1856 402.17 88.3114 402.123 88.4257C402.076 88.54 401.995 88.6377 401.893 88.7064C401.79 88.7752 401.669 88.8119 401.545 88.8119C401.379 88.8112 401.221 88.7451 401.103 88.6279C400.986 88.5107 400.92 88.352 400.919 88.1863Z" fill="#88A2E0"/>
<path d="M465.97 208.852H446.938V196.066L452.207 191.226H465.97V208.852Z" fill="white"/>
<path d="M446.837 196.066H452.034L452.207 191.226L446.837 196.066Z" fill="#88A2E0"/>
<path d="M456.522 192.857C456.522 192.734 456.559 192.613 456.628 192.51C456.697 192.407 456.794 192.327 456.909 192.279C457.023 192.232 457.149 192.22 457.27 192.244C457.391 192.268 457.503 192.328 457.59 192.415C457.678 192.503 457.737 192.614 457.762 192.735C457.786 192.857 457.773 192.983 457.726 193.097C457.679 193.211 457.598 193.309 457.496 193.378C457.393 193.446 457.272 193.483 457.148 193.483C456.982 193.483 456.823 193.417 456.706 193.3C456.588 193.182 456.522 193.023 456.522 192.857Z" fill="#88A2E0"/>
<path d="M474.65 183.478H455.621V170.69L460.889 165.85H474.65V183.478Z" fill="white"/>
<path d="M455.517 170.69H460.717L460.889 165.85L455.517 170.69Z" fill="#88A2E0"/>
<path d="M465.205 167.481C465.205 167.357 465.242 167.236 465.31 167.134C465.379 167.031 465.477 166.951 465.591 166.903C465.705 166.856 465.831 166.843 465.953 166.868C466.074 166.892 466.185 166.951 466.273 167.039C466.36 167.126 466.42 167.238 466.444 167.359C466.468 167.48 466.456 167.606 466.408 167.721C466.361 167.835 466.281 167.933 466.178 168.001C466.075 168.07 465.954 168.107 465.83 168.107C465.748 168.107 465.667 168.091 465.591 168.06C465.515 168.028 465.446 167.982 465.387 167.924C465.329 167.866 465.283 167.797 465.252 167.721C465.22 167.645 465.205 167.563 465.205 167.481Z" fill="#88A2E0"/>
<path d="M449.537 183.478H430.505V170.69L435.774 165.85H449.537V183.478Z" fill="#6FBCDE"/>
<path d="M430.404 170.69H435.601L435.774 165.85L430.404 170.69Z" fill="#75D5D3"/>
<path d="M440.089 167.481C440.089 167.357 440.126 167.236 440.195 167.134C440.264 167.031 440.361 166.951 440.476 166.903C440.59 166.856 440.716 166.843 440.837 166.868C440.958 166.892 441.07 166.951 441.157 167.039C441.245 167.126 441.305 167.238 441.329 167.359C441.353 167.48 441.34 167.606 441.293 167.721C441.246 167.835 441.166 167.933 441.063 168.001C440.96 168.07 440.839 168.107 440.715 168.107C440.633 168.107 440.552 168.091 440.476 168.059C440.4 168.028 440.331 167.982 440.273 167.924C440.215 167.865 440.169 167.796 440.137 167.721C440.106 167.645 440.089 167.563 440.089 167.481Z" fill="#D3BE32"/>
<path d="M480.019 99.7713H460.99V86.9832L466.259 82.1429H480.019V99.7713Z" fill="#6FBCDE"/>
<path d="M460.889 86.9832H466.086L466.259 82.1429L460.889 86.9832Z" fill="#75D5D3"/>
<path d="M470.574 83.7741C470.574 83.6503 470.611 83.5294 470.68 83.4265C470.749 83.3236 470.846 83.2434 470.961 83.1961C471.075 83.1487 471.201 83.1363 471.322 83.1605C471.443 83.1846 471.555 83.2442 471.642 83.3317C471.73 83.4192 471.789 83.5307 471.814 83.652C471.838 83.7734 471.825 83.8992 471.778 84.0135C471.731 84.1278 471.651 84.2255 471.548 84.2943C471.445 84.363 471.324 84.3997 471.2 84.3997C471.034 84.399 470.876 84.3329 470.758 84.2157C470.641 84.0985 470.575 83.9398 470.574 83.7741Z" fill="#D3BE32"/>
<path d="M291.829 28.08H255.63C253.961 28.08 252.608 29.4329 252.608 31.1017V66.0393C252.608 67.7081 253.961 69.061 255.63 69.061H291.829C293.497 69.061 294.85 67.7081 294.85 66.0393V31.1017C294.85 29.4329 293.497 28.08 291.829 28.08Z" fill="#1074AB"/>
<path d="M290.261 29.8555H257.2C255.675 29.8555 254.439 31.0915 254.439 32.6163V64.5247C254.439 66.0494 255.675 67.2855 257.2 67.2855H290.261C291.785 67.2855 293.021 66.0494 293.021 64.5247V32.6163C293.021 31.0915 291.785 29.8555 290.261 29.8555Z" fill="#C8D8FB"/>
<path d="M272.855 33.5939C272.855 33.4205 272.907 33.251 273.003 33.1068C273.099 32.9626 273.237 32.8503 273.397 32.7841C273.557 32.7178 273.733 32.7006 273.903 32.7346C274.074 32.7686 274.23 32.8524 274.352 32.9752C274.475 33.098 274.558 33.2544 274.591 33.4245C274.625 33.5947 274.607 33.771 274.54 33.9311C274.474 34.0912 274.361 34.2278 274.217 34.3238C274.072 34.4198 273.902 34.4708 273.729 34.4703C273.614 34.4706 273.5 34.4482 273.394 34.4042C273.287 34.3603 273.191 34.2957 273.11 34.2142C273.028 34.1327 272.964 34.036 272.92 33.9295C272.877 33.8231 272.855 33.709 272.855 33.5939Z" fill="#1074AB"/>
<path d="M279.914 34.8325C279.998 34.6814 280.125 34.5585 280.279 34.4795C280.432 34.4005 280.606 34.3688 280.778 34.3885C280.949 34.4082 281.111 34.4784 281.243 34.5902C281.375 34.702 281.471 34.8504 281.518 35.0166C281.566 35.1828 281.563 35.3593 281.51 35.5239C281.457 35.6884 281.357 35.8336 281.221 35.9411C281.086 36.0485 280.922 36.1134 280.749 36.1275C280.577 36.1417 280.405 36.1044 280.254 36.0204C280.052 35.9073 279.902 35.719 279.839 35.4964C279.775 35.2738 279.802 35.0352 279.914 34.8325Z" fill="#1074AB"/>
<path d="M285.955 39.6372C286.1 39.5428 286.269 39.4934 286.442 39.4952C286.615 39.4971 286.783 39.55 286.925 39.6475C287.068 39.745 287.179 39.8825 287.243 40.0428C287.308 40.2031 287.323 40.3788 287.288 40.5479C287.252 40.717 287.168 40.8718 287.044 40.9928C286.921 41.1138 286.765 41.1955 286.595 41.2276C286.425 41.2597 286.25 41.2408 286.091 41.1732C285.932 41.1056 285.796 40.9924 285.702 40.8479C285.639 40.7518 285.595 40.6443 285.574 40.5314C285.553 40.4185 285.554 40.3025 285.577 40.1901C285.601 40.0776 285.646 39.9709 285.711 39.876C285.776 39.7812 285.859 39.7 285.955 39.6372Z" fill="#1074AB"/>
<path d="M288.961 47.0761C289.135 47.0761 289.304 47.1276 289.449 47.224C289.593 47.3204 289.705 47.4574 289.771 47.6177C289.838 47.778 289.855 47.9543 289.821 48.1244C289.787 48.2944 289.703 48.4506 289.58 48.573C289.457 48.6955 289.301 48.7788 289.131 48.8123C288.961 48.8458 288.784 48.8281 288.624 48.7614C288.464 48.6947 288.328 48.5819 288.232 48.4375C288.136 48.2931 288.085 48.1234 288.085 47.9499C288.085 47.835 288.108 47.7211 288.152 47.615C288.196 47.5088 288.261 47.4123 288.342 47.3312C288.423 47.25 288.52 47.1857 288.626 47.1419C288.733 47.0981 288.846 47.0758 288.961 47.0761Z" fill="#1074AB"/>
<path d="M287.429 55.708C287.551 55.8302 287.634 55.9859 287.668 56.1554C287.702 56.3249 287.684 56.5005 287.618 56.6602C287.552 56.8198 287.44 56.9563 287.297 57.0523C287.153 57.1483 286.984 57.1995 286.811 57.1995C286.638 57.1995 286.469 57.1483 286.326 57.0523C286.182 56.9563 286.07 56.8198 286.004 56.6602C285.938 56.5005 285.92 56.3249 285.954 56.1554C285.988 55.9859 286.071 55.8302 286.193 55.708C286.357 55.5446 286.579 55.4529 286.811 55.4529C287.043 55.4529 287.265 55.5446 287.429 55.708Z" fill="#1074AB"/>
<path d="M281.935 61.2168C282.058 61.3393 282.142 61.4955 282.175 61.6655C282.209 61.8355 282.192 62.0118 282.126 62.172C282.06 62.3322 281.947 62.4691 281.803 62.5655C281.659 62.6618 281.489 62.7132 281.316 62.7132C281.143 62.7132 280.973 62.6618 280.829 62.5655C280.685 62.4691 280.573 62.3322 280.506 62.172C280.44 62.0118 280.423 61.8355 280.457 61.6655C280.491 61.4955 280.574 61.3393 280.697 61.2168C280.861 61.0527 281.084 60.9605 281.316 60.9605C281.548 60.9605 281.771 61.0527 281.935 61.2168Z" fill="#1074AB"/>
<path d="M272.855 64.0561C272.855 63.8827 272.907 63.7131 273.003 63.569C273.099 63.4248 273.237 63.3125 273.397 63.2462C273.557 63.18 273.733 63.1628 273.903 63.1968C274.074 63.2308 274.23 63.3145 274.352 63.4373C274.475 63.5601 274.558 63.7165 274.591 63.8867C274.625 64.0569 274.607 64.2331 274.54 64.3932C274.474 64.5533 274.361 64.69 274.217 64.786C274.072 64.882 273.902 64.933 273.729 64.9325C273.614 64.9328 273.5 64.9103 273.394 64.8664C273.287 64.8224 273.191 64.7578 273.11 64.6764C273.028 64.5949 272.964 64.4981 272.92 64.3917C272.877 64.2852 272.855 64.1712 272.855 64.0561Z" fill="#1074AB"/>
<path d="M267.516 34.8325C267.432 34.6814 267.305 34.5585 267.152 34.4795C266.998 34.4005 266.824 34.3688 266.652 34.3885C266.481 34.4082 266.319 34.4784 266.187 34.5902C266.055 34.702 265.959 34.8504 265.912 35.0166C265.864 35.1828 265.867 35.3593 265.92 35.5239C265.973 35.6884 266.073 35.8336 266.209 35.9411C266.344 36.0485 266.508 36.1134 266.681 36.1275C266.853 36.1417 267.026 36.1044 267.177 36.0204C267.379 35.9073 267.528 35.719 267.591 35.4964C267.655 35.2738 267.628 35.0352 267.516 34.8325Z" fill="#1074AB"/>
<path d="M261.468 39.6372C261.323 39.542 261.153 39.492 260.979 39.4934C260.806 39.4949 260.637 39.5478 260.493 39.6454C260.35 39.7431 260.239 39.8811 260.174 40.042C260.109 40.2029 260.093 40.3794 260.129 40.5492C260.164 40.719 260.249 40.8744 260.373 40.9958C260.497 41.1172 260.654 41.1991 260.825 41.2311C260.995 41.263 261.172 41.2437 261.331 41.1755C261.491 41.1073 261.626 40.9933 261.721 40.8479C261.847 40.6537 261.892 40.4172 261.844 40.1903C261.797 39.9634 261.661 39.7645 261.468 39.6372Z" fill="#1074AB"/>
<path d="M258.471 47.0761C258.298 47.0756 258.128 47.1266 257.984 47.2228C257.839 47.3189 257.726 47.4557 257.66 47.6159C257.593 47.7762 257.576 47.9526 257.609 48.1228C257.643 48.293 257.727 48.4494 257.849 48.5721C257.972 48.6949 258.128 48.7784 258.299 48.8121C258.469 48.8458 258.645 48.8283 258.805 48.7616C258.966 48.695 259.102 48.5823 259.199 48.4378C259.295 48.2933 259.346 48.1235 259.345 47.9499C259.345 47.7182 259.253 47.4959 259.089 47.3321C258.925 47.1682 258.703 47.0761 258.471 47.0761Z" fill="#1074AB"/>
<path d="M260.001 55.708C259.879 55.8302 259.796 55.9859 259.762 56.1554C259.728 56.3249 259.746 56.5005 259.812 56.6602C259.878 56.8198 259.99 56.9563 260.134 57.0523C260.277 57.1483 260.446 57.1995 260.619 57.1995C260.792 57.1995 260.961 57.1483 261.105 57.0523C261.248 56.9563 261.36 56.8198 261.426 56.6602C261.493 56.5005 261.51 56.3249 261.476 56.1554C261.443 55.9859 261.359 55.8302 261.237 55.708C261.073 55.5446 260.851 55.4529 260.619 55.4529C260.388 55.4529 260.165 55.5446 260.001 55.708Z" fill="#1074AB"/>
<path d="M265.495 61.2168C265.372 61.3393 265.289 61.4955 265.255 61.6655C265.221 61.8355 265.238 62.0118 265.304 62.172C265.371 62.3322 265.483 62.4691 265.627 62.5655C265.771 62.6618 265.941 62.7132 266.114 62.7132C266.288 62.7132 266.457 62.6618 266.601 62.5655C266.745 62.4691 266.858 62.3322 266.924 62.172C266.99 62.0118 267.007 61.8355 266.974 61.6655C266.94 61.4955 266.856 61.3393 266.733 61.2168C266.569 61.0527 266.346 60.9605 266.114 60.9605C265.882 60.9605 265.659 61.0527 265.495 61.2168Z" fill="#1074AB"/>
<path d="M273.494 47.95C273.494 47.7765 273.545 47.607 273.641 47.4628C273.738 47.3186 273.875 47.2063 274.035 47.1401C274.195 47.0738 274.372 47.0566 274.542 47.0906C274.712 47.1247 274.868 47.2084 274.99 47.3312C275.113 47.454 275.196 47.6104 275.23 47.7806C275.263 47.9507 275.246 48.127 275.179 48.2871C275.112 48.4472 274.999 48.5839 274.855 48.6799C274.71 48.7758 274.541 48.8268 274.367 48.8263C274.252 48.8263 274.139 48.8036 274.032 48.7596C273.926 48.7155 273.83 48.6509 273.749 48.5695C273.667 48.4881 273.603 48.3914 273.559 48.2851C273.516 48.1788 273.493 48.0649 273.494 47.95Z" fill="#801FBC"/>
<path d="M273.494 47.95C273.494 47.7765 273.545 47.607 273.641 47.4628C273.738 47.3186 273.875 47.2063 274.035 47.1401C274.195 47.0738 274.372 47.0566 274.542 47.0906C274.712 47.1247 274.868 47.2084 274.99 47.3312C275.113 47.454 275.196 47.6104 275.23 47.7806C275.263 47.9507 275.246 48.127 275.179 48.2871C275.112 48.4472 274.999 48.5839 274.855 48.6799C274.71 48.7758 274.541 48.8268 274.367 48.8263C274.252 48.8263 274.139 48.8036 274.032 48.7596C273.926 48.7155 273.83 48.6509 273.749 48.5695C273.667 48.4881 273.603 48.3914 273.559 48.2851C273.516 48.1788 273.493 48.0649 273.494 47.95Z" fill="#801FBC"/>
<path d="M274.486 37.0183H274.248V47.9499H274.486V37.0183Z" fill="#801FBC"/>
<path d="M274.486 37.0183H274.248V47.9499H274.486V37.0183Z" fill="#801FBC"/>
<path d="M279.832 43.1036L274.037 47.6539L274.48 48.2177L280.275 43.6673L279.832 43.1036Z" fill="#801FBC"/>
<path d="M279.832 43.1036L274.037 47.6539L274.48 48.2177L280.275 43.6673L279.832 43.1036Z" fill="#801FBC"/>
<path d="M514.668 353.329C514.496 355.68 511.178 355.705 507.414 355.269C503.651 354.834 504.651 355.776 499.38 355.859C494.109 355.943 492.288 354.19 492.035 353.438C491.807 352.769 494.345 352.207 497.06 351.546L498.088 351.293C501.151 350.515 503.177 348.223 505.796 346.227C508.278 344.333 511.479 337.471 511.479 337.471L518.678 337.147C518.678 337.147 515.638 343.297 514.506 345.946C513.838 347.506 514.124 349.421 514.412 350.893C514.606 351.69 514.692 352.509 514.668 353.329Z" fill="#8A4B00"/>
<path d="M507.422 355.277C503.658 354.841 504.659 355.783 499.388 355.867C494.117 355.951 492.296 354.198 492.043 353.446C491.815 352.777 494.353 352.215 497.068 351.554L497.101 351.602C499.506 352.753 502.178 353.232 504.833 352.987C508.379 352.633 511.981 351.156 514.42 350.893C514.613 351.692 514.698 352.514 514.673 353.337C514.504 355.687 511.186 355.712 507.422 355.277Z" fill="#1D2D61"/>
<path d="M564.398 353.836C564.228 356.186 560.91 356.214 557.146 355.781C553.382 355.348 554.383 356.287 549.112 356.379C543.841 356.47 542.02 354.717 541.767 353.965C541.539 353.296 544.077 352.731 546.792 352.068C547.131 351.987 547.476 351.898 547.805 351.814C550.867 351.034 552.891 348.74 555.51 346.749C557.99 344.852 555.51 333.614 555.51 333.614L563.43 332.854C563.43 332.854 563.05 342.314 563.055 346.617C563.055 348.314 563.838 349.945 564.132 351.414C564.326 352.206 564.415 353.02 564.398 353.836Z" fill="#8A4B00"/>
<path d="M557.146 355.771C553.382 355.338 554.383 356.277 549.112 356.368C543.841 356.46 542.02 354.707 541.767 353.955C541.539 353.286 544.077 352.721 546.792 352.058L546.822 352.108C549.229 353.257 551.902 353.734 554.558 353.486C558.104 353.126 561.703 351.647 564.144 351.379C564.336 352.18 564.422 353.002 564.398 353.825C564.228 356.176 560.91 356.204 557.146 355.771Z" fill="#1D2D61"/>
<path d="M541.288 159.627C539.926 154.019 541.901 151.408 543.684 150.017C544.53 147.956 545.495 146.471 546.47 145.907C548.271 144.893 550.427 144.772 551.936 144.861C551.604 144.584 551.208 144.396 550.784 144.313C551.718 144.174 553.805 145.104 553.805 145.104C566.819 140.089 568.863 159.247 568.589 163.7C568.316 168.152 568.354 173.39 575.124 176.898C588.041 183.59 570.831 208.812 570.831 208.812C571.16 205.215 554.565 186.234 545.905 180.55C543.798 177.445 543.048 171.964 542.993 171.534C543.357 175.88 544.1 178.319 544.766 179.692C540.827 176.052 540.25 167.329 541.288 159.627Z" fill="black"/>
<path d="M546.427 180.824C546.384 180.844 550.609 183.038 553.785 182.169C556.774 181.353 558.727 177.478 558.686 177.471C557.42 177.217 557.055 175.48 557.083 168.005L556.51 168.119L546.886 170.024C546.886 170.024 547.104 173.063 547.111 175.903C547.121 178.311 546.977 180.568 546.427 180.824Z" fill="#8A4B00"/>
<path d="M546.891 170.024C546.891 170.024 547.108 173.063 547.116 175.903C552.498 175.751 555.345 170.837 556.51 168.119L546.891 170.024Z" fill="#5E3402"/>
<path d="M507.749 341.283C507.638 341.628 507.609 341.994 507.662 342.352C507.716 342.71 507.851 343.051 508.058 343.348C508.265 343.646 508.537 343.891 508.854 344.066C509.171 344.242 509.525 344.341 509.886 344.358L513.645 344.535L517.622 344.657C518.112 344.672 518.599 344.573 519.045 344.37C519.492 344.166 519.885 343.862 520.195 343.481C523.371 339.589 533.14 326.608 539.067 307.751C539.234 307.224 539.409 306.687 539.596 306.145C543.509 294.732 551.625 280.409 555.9 267.441C556.575 265.376 557.188 263.427 557.739 261.593C557.916 261.003 558.086 260.425 558.245 259.855C561.399 248.906 562.31 241.718 563.151 234.036L532.274 234.289C532.274 234.289 525.777 284.806 507.749 341.283Z" fill="#1074AB"/>
<path d="M536.6 216.542C536.679 231.232 534.445 237.539 534.445 237.539C534.445 237.539 547.663 244.256 563.377 239.312C563.562 239.254 575.5 236.5 575.5 236.5C575.247 235.905 572.256 225.547 572 225C568.682 217.878 567.703 215.037 567.3 212.849C566.568 208.758 566.54 204.529 566.918 200.539C567.536 193.985 568.809 187.508 570.717 181.206C566.437 180.234 562.427 178.522 557.972 176.85C556.946 178.116 553.813 179.461 551.095 179.401C547.965 179.332 546.949 177.992 547.111 176.528C543.778 178.385 541.116 180.138 541.116 180.138C538.282 185.061 532.532 189.843 532.117 197.396C532.023 199.253 536.597 216.129 536.6 216.542Z" fill="white"/>
<path d="M563.154 218.178C564.504 220.09 567.09 231.701 573.539 233.16C570.221 224.885 567.713 221.255 567.31 218.723C566.578 213.973 566.551 209.057 566.928 204.422C564.773 200.646 563.164 198.057 563.164 198.057C562.994 197.447 559.74 187.379 558.696 196.378C557.653 205.377 561.647 216.05 563.154 218.178Z" fill="#44A8D9"/>
<path d="M545.093 172.724C545.093 172.724 557.83 172.934 557.838 165.002C557.845 157.069 559.497 151.75 551.364 151.281C543.231 150.813 541.65 153.837 541.002 156.484C540.354 159.13 541.769 172.466 545.093 172.724Z" fill="#8A4B00"/>
<path d="M545.569 151.086C545.569 151.086 549.056 160.394 554.408 161.77C559.76 163.145 562.083 161.714 562.083 161.714C562.083 161.714 557.977 158.452 557.123 152.758C557.118 152.758 548.195 146.651 545.569 151.086Z" fill="black"/>
<path d="M546.427 151.841C546.427 151.841 543.824 153.92 543.188 155.939C542.552 157.958 542.268 162.119 541.055 161.977C541.055 161.977 538.429 155.645 541.382 152.072C544.513 148.277 546.427 151.841 546.427 151.841Z" fill="black"/>
<path d="M525.05 226.739L519.035 245.082L522.467 246.457L532.413 230.252L525.05 226.739Z" fill="#8A4B00"/>
<path d="M541.263 179.056C541.263 179.056 534.171 181.87 532.117 186.259C530.063 190.649 526.955 220.085 525.716 223.107C524.478 226.128 523.548 228.525 523.548 228.525C523.548 228.525 527.125 231.536 530.721 231.759C534.318 231.982 541.263 179.056 541.263 179.056Z" fill="#9B2727"/>
<path d="M547.121 176.538C547.121 176.538 539.753 194.744 539.523 198.43C539.292 202.115 538.656 258.678 538.656 258.678C538.656 258.678 539.09 261.279 534.097 260.197C529.105 259.116 527.813 258.029 527.813 258.029C527.813 258.029 532.601 223.122 531.301 210.985C530.002 198.847 541.263 179.056 541.263 179.056L547.121 176.538Z" fill="#BD3333"/>
<path d="M513.655 344.535L517.961 344.667C518.341 344.679 518.719 344.603 519.066 344.446C519.413 344.29 519.719 344.056 519.962 343.763C522.864 340.247 532.986 327.092 539.064 307.751C539.232 307.224 539.406 306.687 539.594 306.145C543.507 294.732 551.622 280.409 555.897 267.441C556.573 265.376 557.186 263.427 557.736 261.593C557.914 261.003 558.083 260.425 558.243 259.855L553.696 256.403C553.696 256.403 540.045 278.51 535.82 299.312C532.145 317.383 517.454 339.128 513.655 344.535Z" fill="#19316F"/>
<path d="M553.228 301.249C553.154 310.821 553.608 332.15 554.773 342.58C554.824 343.041 555.044 343.467 555.39 343.776C555.736 344.085 556.183 344.255 556.647 344.254H559.869C561.227 344.254 562.242 344.254 562.908 344.234C563.192 344.23 563.466 344.129 563.684 343.946C563.902 343.764 564.05 343.512 564.104 343.233C567.308 326.932 569.6 313.387 571.279 301.695C572.685 291.898 573.931 283.499 574.891 276.271C575.859 268.994 576.53 262.902 576.77 257.756C576.808 256.945 576.836 256.155 576.852 255.39C576.867 254.625 576.872 253.87 576.864 253.149L550.186 250.547C550.53 268.262 553.271 295.371 553.228 301.249Z" fill="#1074AB"/>
<path d="M559.869 344.254C561.087 344.254 562.032 344.254 562.701 344.239C563.045 344.233 563.377 344.109 563.641 343.888C563.906 343.667 564.086 343.361 564.152 343.023C567.336 326.813 569.615 313.336 571.287 301.685C572.693 291.888 573.939 283.489 574.899 276.261C575.866 268.984 576.537 262.892 576.778 257.746L566.989 263.503C566.989 263.503 573.237 265.709 570.854 282.395C568.47 299.081 563.187 341.893 559.869 344.254Z" fill="#19316F"/>
<path d="M558.608 257.589C558.608 257.589 560.487 264.379 566.989 263.513C573.491 262.647 582.735 258.744 582.735 258.744C582.735 258.744 579.949 249.965 576.502 238.43C572.32 224.467 567.131 206.466 564.702 195.119C564.018 191.938 563.549 189.294 563.377 187.379L557.98 176.898C557.98 176.898 549.938 194.95 549.502 199.501C549.067 204.052 558.608 257.589 558.608 257.589Z" fill="#BD3333"/>
<path d="M565.099 198.827L557.979 176.898C557.997 176.898 566.971 179.568 571.482 181.847C571.482 181.847 574.303 185.484 576.041 193.876C576.041 193.876 577.887 214.019 573.761 221.39C573.761 221.39 560.758 223.988 539.953 216.831V212.069C539.953 212.069 562.708 213.262 567.369 213.804L565.099 198.827Z" fill="#8A4B00"/>
<path d="M558.896 209.035C559.188 216.405 560.923 230.708 576.373 238.365L576.494 238.423C572.313 224.459 567.123 206.459 564.694 195.112C561.862 199.349 558.739 204.979 558.896 209.035Z" fill="#BD3333"/>
<path d="M557.98 176.898C557.98 176.898 571.175 177.828 574.354 184.907C577.533 191.986 578.543 215.536 574.499 222.471C574.499 222.471 568.926 224.059 559.079 222.218L558.714 222.147C558.714 222.147 555.571 214.455 558.39 212.938C558.39 212.938 566.697 213.371 565.829 210.625C564.96 207.88 557.98 176.898 557.98 176.898Z" fill="#BD3333"/>
<path d="M524.893 215.014L525.281 216.266L546.936 209.528C547.02 209.423 547.078 209.299 547.103 209.167C547.129 209.034 547.122 208.898 547.083 208.769C547.057 208.642 546.991 208.526 546.895 208.439C546.799 208.352 546.678 208.298 546.549 208.285L524.893 215.014Z" fill="#FFB800"/>
<path d="M523.328 216.197L524.893 215.014L525.281 216.266L523.328 216.197Z" fill="#690C0C"/>
<path d="M519.888 244.58C519.888 244.58 514.397 247.619 513.673 249.927C512.948 252.234 513.447 257.085 514.319 257.019C515.19 256.953 516.492 251.814 517.216 251.447C517.941 251.079 518.949 250 518.949 250.796C518.949 251.591 518.227 253.037 518.589 253.252C518.951 253.468 520.109 251.226 520.902 250.796C521.694 250.365 522.031 246.789 522.804 245.829C523.576 244.869 519.888 244.58 519.888 244.58Z" fill="#8A4B00"/>
<path d="M539.971 212.069C539.971 212.069 535.058 209.045 532.996 209.511C530.934 209.977 525.684 213.778 528.209 214.602C530.734 215.425 532.783 214.561 533.753 215.161C534.723 215.762 535.442 216.853 539.971 216.838C544.5 216.823 539.971 212.069 539.971 212.069Z" fill="#8A4B00"/>
<path d="M153.615 179.563C152.792 177.975 171.583 172.255 171.879 187.921C171.879 187.921 207.086 187.055 190.273 167.436C184.447 160.645 185.053 155.025 185.227 149.8C185.402 144.574 181.603 129.388 168.574 130.917C168.574 130.917 165.162 129.529 160.905 131.738C151.209 136.773 129.528 185.345 153.615 179.563Z" fill="#5F2E12"/>
<path d="M211.163 197.09C211.163 197.09 213.443 193.6 215.302 193.544C217.161 193.488 220.568 192.518 220.294 193.202C220.021 193.886 217.901 193.962 217.696 194.364C217.49 194.767 220.841 195.393 221.799 195.459C222.756 195.524 225.013 195.459 224.944 195.94C224.876 196.421 220.877 198.402 218.055 198.128C215.234 197.855 211.743 198.936 211.743 198.936L211.163 197.09Z" fill="#D5A579"/>
<path d="M178.027 198.217C179.029 200.088 180.202 201.863 181.532 203.518C184.255 206.927 188.452 210.863 193.722 211.643C196.24 212.016 198.702 211.474 200.966 210.468C207.369 207.626 212.182 201.097 212.182 201.097C213.311 198.019 211.465 195.932 211.465 195.932C211.465 195.932 198.547 198.84 197.306 198.224C196.065 197.609 188.892 176.921 187.175 174.32C185.458 171.719 179.635 170.371 179.635 170.371L178.027 198.217Z" fill="#E0C788"/>
<path d="M181.532 203.518C184.255 206.927 188.452 210.863 193.722 211.643C196.24 212.016 198.702 211.474 200.966 210.468C200.713 210.501 194.323 211.291 191.775 206.732C189.174 202.082 186.362 194.694 182.502 197.156C180.843 198.219 180.909 200.854 181.532 203.518Z" fill="#BB9A45"/>
<path d="M129.799 337.752C129.799 337.752 125.856 341.351 126.626 343.91C127.396 346.468 130.954 348.172 131.438 351.298C131.922 354.423 133.844 356.128 135.574 356.128H143.831C143.831 356.128 145.097 353.929 142.028 353.266C138.958 352.602 137.788 348.93 137.975 345.52C138.163 342.111 137.686 337.562 137.686 337.562L131.144 336.043L129.799 337.752Z" fill="#61461D"/>
<path d="M163.184 339.28C163.184 339.28 161.766 354.53 163.498 355.381L185.658 355.338C185.658 355.338 185.658 352.779 182.112 352.21C178.566 351.64 172.3 349.558 171.241 344.918C170.182 340.277 163.184 339.28 163.184 339.28Z" fill="#61461D"/>
<path d="M147.392 229.88C151.951 219.652 154.737 216.709 154.21 213.54C153.813 211.177 155.419 169.49 155.419 169.49C155.958 169.322 157.045 169.173 157.637 169.041C158.556 168.842 159.409 168.414 160.118 167.796C160.827 167.178 161.367 166.391 161.69 165.508C162.465 163.332 163.083 160.123 163.068 156.101L163.653 156.215L173.498 158.16C173.498 158.16 173.275 161.253 173.267 164.166V164.237C173.259 165.465 173.651 166.664 174.385 167.649C175.118 168.635 176.153 169.355 177.333 169.7L179.653 170.363C179.653 170.363 183.259 180.662 183.958 191.239C184.657 201.816 177.398 206.416 184.014 227.554C190.754 249.144 144.877 235.53 147.392 229.88Z" fill="#D5A579"/>
<path d="M173.498 158.16C173.498 158.16 173.275 161.253 173.267 164.166C167.771 164.009 164.866 158.996 163.676 156.215L173.498 158.16Z" fill="#CD8644"/>
<path d="M175.322 160.919C175.322 160.919 162.316 161.134 162.308 153.031C162.3 144.929 160.613 139.504 168.916 139.025C177.219 138.546 178.837 141.634 179.498 144.344C180.159 147.054 178.703 160.655 175.322 160.919Z" fill="#D5A579"/>
<path d="M174.84 138.825C174.84 138.825 171.279 148.331 165.816 149.734C160.353 151.137 157.979 149.675 157.979 149.675C157.979 149.675 162.171 146.347 163.045 140.535C163.042 140.535 172.153 134.301 174.84 138.825Z" fill="#5F2E12"/>
<path d="M173.956 139.597C173.956 139.597 176.598 140.585 177.685 142.51C178.997 144.758 179.609 147.346 179.442 149.944C179.442 149.944 182.125 143.485 179.111 139.83C175.914 135.958 173.956 139.597 173.956 139.597Z" fill="#2D1304"/>
<path d="M172.485 155.894C172.819 156.272 173.235 156.567 173.702 156.758C174.169 156.948 174.674 157.027 175.177 156.99C175.598 156.966 176.005 156.83 176.357 156.597C176.709 156.365 176.993 156.043 177.181 155.666C177.181 155.666 174.531 155.027 172.485 155.894Z" fill="#DDE5F9"/>
<path d="M146.144 187.936C145.944 191.347 145.944 194.768 146.144 198.179C146.361 201.884 150.107 206.844 150.639 208.072C151.974 211.149 153.476 211.648 153.476 211.648L165.127 214.5L169.218 215.513L182.11 211.643C182.11 211.643 187.986 195.241 185.625 186.009C183.265 176.777 179.66 170.363 179.66 170.363C179.66 170.363 169.134 180.672 155.424 169.49L146.144 187.936Z" fill="#E0C788"/>
<path d="M149.542 199.686C149.763 203.389 150.102 206.839 150.634 208.067C151.969 211.144 153.471 211.643 153.471 211.643L165.122 214.495L170.187 213.011C170.187 213.011 153.316 210.453 155.186 195.94L149.542 199.686Z" fill="#EEBCC1"/>
<path d="M181.281 214.133C181.281 214.133 187.682 234.033 188.079 240.794C188.477 247.554 175.866 336.98 175.36 340.1C174.881 343.041 171.229 344.913 171.229 344.913C171.229 344.913 169.549 345.903 167.151 345.224C163.825 344.287 162.774 343.162 162.774 343.162C162.774 343.162 157.795 279.396 160.879 256.613C162.753 242.527 163.792 228.342 163.992 214.133H181.281Z" fill="#BB7E22"/>
<path d="M154.211 213.54C154.211 213.54 144.464 226.617 143.555 235.457C142.646 244.296 142.132 275.349 140.194 283.965C138.256 292.582 131.147 309.167 131.147 336.048C131.147 336.048 131.886 337.588 134.168 338.408C135.04 338.702 135.927 338.948 136.825 339.143C137.74 339.351 138.699 339.246 139.546 338.843C140.394 338.441 141.082 337.765 141.498 336.924C146.311 327.244 161.624 296.019 162.409 289.538C162.964 284.951 167.802 254.585 178.351 236.782C180.884 232.504 176.796 215.506 176.796 215.506L154.211 213.54Z" fill="#C58627"/>
<path d="M172.781 156.109C172.781 156.109 173.007 157.064 175.38 156.917C175.38 156.917 177.373 156.795 177.312 155.744C177.312 155.744 175.38 155.01 172.781 156.109Z" fill="white"/>
<path d="M182.302 211.063C182.302 211.063 179.736 213.09 174.64 213.196C168.561 213.317 153.473 211.643 153.473 211.643C153.058 212.885 152.841 214.184 152.83 215.493C152.83 215.493 171.249 220.138 181.922 216.172C181.922 216.172 183.297 213.581 182.302 211.063Z" fill="#61461D"/>
<path d="M173.323 215.291C173.323 213.556 174.569 212.147 176.109 212.147C177.649 212.147 178.895 213.556 178.895 215.291C178.895 217.026 177.649 218.434 176.109 218.434C174.569 218.434 173.323 217.031 173.323 215.291ZM174.245 215.291C174.245 216.516 175.078 217.512 176.102 217.512C177.125 217.512 177.958 216.516 177.958 215.291C177.958 214.065 177.125 213.067 176.102 213.067C175.078 213.067 174.258 214.072 174.258 215.291H174.245Z" fill="white"/>
<path d="M134.974 214.912L153.742 231.428L176.35 205.738L157.582 189.222L134.974 214.912Z" fill="#801FBC"/>
<path d="M134.974 214.912L153.742 231.428L176.35 205.738L157.582 189.222L134.974 214.912Z" fill="#801FBC"/>
<path d="M157.729 214.721C157.729 214.721 164.633 215.544 164.633 217.172C164.633 218.801 162.908 222.185 162.055 222.334C161.201 222.484 156.429 217.775 156.429 217.775L157.729 214.721Z" fill="#D5A579"/>
<path d="M155.416 169.49C155.416 169.49 146.187 170.136 142.648 178.74C139.11 187.343 132.395 201.788 132.395 204.215C132.395 206.641 136.144 214.133 156.287 218.441C156.287 218.441 158.369 216.248 158.243 214.516C158.243 214.516 145.67 203.716 145.705 202.454C145.769 200.066 147.765 196.915 158.805 185.872C161.806 182.871 155.416 169.49 155.416 169.49Z" fill="#E0C788"/>
<path d="M257.41 355.659H257.334C257.212 355.659 257.091 355.634 256.978 355.587C256.866 355.539 256.764 355.469 256.678 355.382C256.593 355.294 256.526 355.191 256.481 355.077C256.436 354.963 256.415 354.842 256.417 354.72L257.81 294.335L261.913 293.856L258.413 354.722C258.399 354.977 258.286 355.217 258.1 355.392C257.913 355.567 257.666 355.662 257.41 355.659Z" fill="#88A2E0"/>
<path d="M233.495 355.659H233.407C233.284 355.659 233.163 355.634 233.051 355.587C232.938 355.539 232.836 355.469 232.751 355.382C232.665 355.294 232.598 355.191 232.554 355.077C232.509 354.963 232.487 354.842 232.49 354.72L233.883 294.335L237.986 293.856L234.486 354.722C234.471 354.975 234.361 355.213 234.177 355.388C233.993 355.562 233.749 355.659 233.495 355.659Z" fill="#578AD6"/>
<path d="M299.485 355.659H299.574C299.696 355.659 299.817 355.634 299.93 355.587C300.043 355.539 300.145 355.47 300.231 355.382C300.316 355.295 300.383 355.191 300.429 355.077C300.474 354.964 300.496 354.842 300.493 354.72L299.098 294.335L294.995 293.856L298.495 354.722C298.509 354.975 298.62 355.213 298.804 355.388C298.988 355.562 299.232 355.659 299.485 355.659Z" fill="#88A2E0"/>
<path d="M230.775 290.591V249.213C230.778 245.718 232.169 242.368 234.641 239.899C237.113 237.429 240.464 236.042 243.958 236.042H273.77C277.263 236.042 280.613 237.43 283.083 239.9C285.553 242.37 286.94 245.72 286.94 249.213V292.172L230.775 290.591Z" fill="#88A2E0"/>
<path d="M230.775 290.591H292.287V297.123H234.734C233.684 297.123 232.677 296.706 231.935 295.964C231.192 295.221 230.775 294.214 230.775 293.165V290.591Z" fill="#578AD6"/>
<path d="M299.191 290.591H255.647C254.03 290.591 252.719 291.902 252.719 293.519V294.195C252.719 295.812 254.03 297.123 255.647 297.123H299.191C300.809 297.123 302.119 295.812 302.119 294.195V293.519C302.119 291.902 300.809 290.591 299.191 290.591Z" fill="#88A2E0"/>
<path d="M297.502 280.28C293.232 287.714 287.86 290.581 287.86 290.581H265.513C265.513 290.581 300.759 274.609 297.502 280.28Z" fill="#275800"/>
<path d="M280.34 337.79C280.072 338.084 279.895 338.449 279.829 338.841C279.763 339.234 279.812 339.636 279.97 340.001C280.504 341.473 282.265 343.119 284.311 344.761C284.564 344.973 284.818 345.163 285.008 345.343C285.061 345.389 285.114 345.434 285.162 345.482C285.21 345.531 285.243 345.556 285.284 345.591C287.191 347.349 286.472 347.752 289.899 351.321C293.807 355.386 296.497 355.459 297.261 355.087C297.91 354.773 296.595 352.615 295.136 350.193C295.066 350.077 294.997 349.958 294.924 349.839L294.344 348.866C292.637 345.948 293.077 344.581 293.48 340.239C293.809 336.714 298.969 320.534 298.969 320.534L291.479 319.245C291.479 319.245 289.225 332.127 286.74 334.113C285.413 335.169 283.924 335.181 282.647 335.967L282.394 336.134C281.638 336.591 280.947 337.148 280.34 337.79Z" fill="#F9D0B6"/>
<path d="M280.34 337.79C280.072 338.084 279.895 338.449 279.829 338.841C279.763 339.233 279.812 339.636 279.97 340.001C280.623 341.473 282.341 343.109 284.316 344.745C284.57 344.961 284.803 345.158 285.008 345.343C285.061 345.389 285.114 345.434 285.162 345.482C285.21 345.531 285.243 345.556 285.284 345.591C287.191 347.349 286.472 347.752 289.899 351.321C293.807 355.386 296.497 355.459 297.261 355.087C297.91 354.773 296.595 352.615 295.136 350.193C292.403 349.125 290 347.354 288.171 345.059C285.818 342.058 284.25 338.201 282.647 335.967L282.394 336.134C281.638 336.591 280.947 337.148 280.34 337.79Z" fill="black"/>
<path d="M340.714 333.115C341.178 335.425 344.473 335.04 348.153 334.128C351.834 333.216 350.96 334.298 356.198 333.717C361.435 333.137 363.036 331.185 363.183 330.405C363.325 329.713 360.736 329.47 357.96 329.138C357.611 329.1 357.261 329.055 356.909 329.012C353.776 328.619 351.479 326.595 348.632 324.936C345.935 323.361 341.91 316.95 341.91 316.95L334.727 317.52C334.727 317.52 338.496 323.247 339.955 325.737C340.813 327.201 340.768 329.136 340.659 330.633C340.568 331.459 340.586 332.293 340.714 333.115Z" fill="#F9D0B6"/>
<path d="M348.153 334.14C351.833 333.241 350.96 334.31 356.198 333.73C361.435 333.15 363.036 331.197 363.183 330.417C363.325 329.726 360.736 329.483 357.96 329.151L357.935 329.204C355.691 330.645 353.098 331.452 350.433 331.537C346.887 331.623 343.113 330.605 340.659 330.645C340.57 331.463 340.588 332.289 340.714 333.102C341.17 335.425 344.463 335.04 348.153 334.14Z" fill="black"/>
<path d="M313.183 287.177L306.471 305.249L297.702 328.844C296.137 328.961 294.563 328.818 293.044 328.419C290.947 327.814 288.538 326.225 288.538 326.225C288.538 326.225 290.973 300.897 295.516 286.346C296.679 282.613 297.983 279.594 299.422 277.894C306.471 269.574 313.183 287.177 313.183 287.177Z" fill="#275800"/>
<path d="M306.354 258.475C301.955 257.057 289.407 258.88 276.801 261.347L274.162 256.993L246.932 254.866C246.932 254.866 237.948 274.791 242.879 287.488C243.601 289.353 245.04 290.551 247.487 290.591H247.887H269.352C282.895 290.591 298.011 281.283 299.967 280.891C303.168 280.252 304.447 286.653 307.649 293.375C310.85 300.097 337.736 323.14 337.736 323.14C337.736 323.14 341.867 323.183 343.561 322.543C345.398 321.854 346.069 320.96 346.069 320.96C346.069 320.96 316.278 261.677 306.354 258.475Z" fill="#408B06"/>
<path d="M273.091 177.709C269.603 175.877 264.294 175.629 263.433 175.515C253.114 174.127 246.904 189.121 246.539 193.663C245.866 202.036 241.436 203.313 235.202 208.558C222.7 219.072 226.365 231.29 233.201 235.832C237.305 238.554 244.533 235.832 244.533 235.832C244.635 235.903 264.304 224.834 274 219.495C288.536 217.431 281.978 182.377 273.091 177.709Z" fill="#C54700"/>
<path d="M265.875 214.951C265.918 214.979 261.103 216.623 257.886 215.204C254.847 213.867 252.567 208.872 252.608 208.872C253.986 208.809 255.498 207.606 256.66 199.704L257.246 199.914L267.108 203.46C267.108 203.46 266.394 206.623 265.931 209.637C265.546 212.17 265.335 214.594 265.875 214.951Z" fill="#F9D0B6"/>
<path d="M267.111 203.465C267.111 203.465 266.397 206.628 265.933 209.642C260.27 208.629 258.046 202.979 257.248 199.916L267.111 203.465Z" fill="#EBB38D"/>
<path d="M268.58 206.606C268.58 206.606 255.088 204.795 256.344 196.411C257.6 188.027 256.706 182.144 265.373 182.946C274.041 183.749 275.231 187.197 275.505 190.099C275.778 193.002 272.121 206.861 268.58 206.606Z" fill="#F9D0B6"/>
<path d="M275.001 185.502C275.001 185.502 266.364 192.946 260.49 193.546C254.616 194.147 252.385 192.26 252.385 192.26C254.73 190.162 256.618 187.604 257.932 184.745C258.23 184.072 258.704 183.492 259.302 183.064C259.901 182.636 260.603 182.376 261.336 182.311C265.538 181.949 273.488 181.781 275.001 185.502Z" fill="#B44101"/>
<path d="M269.603 184.836C269.603 184.836 272.49 187.622 273.402 189.702C274.279 191.7 274.542 196.484 273.843 198.384C273.843 198.384 278.344 189.631 275.796 185.375C273.093 180.867 269.603 184.836 269.603 184.836Z" fill="#B44101"/>
<path d="M277.234 234.826C276.827 262.138 277.123 256.431 274.137 259.022C273.415 259.645 271.391 260.018 268.729 260.195C260.353 260.75 245.632 259.369 245.073 257.822C243.14 252.467 244.505 250.803 242.895 242.604C242.725 241.733 242.517 240.791 242.274 239.763C240.929 234.132 239.622 232.215 244.389 223.168C248.712 214.974 253.203 208.323 253.608 208.563C265.006 215.334 265.933 209.642 265.933 209.642C265.933 209.642 277.435 221.506 277.234 234.826Z" fill="white"/>
<path d="M306.471 305.249L297.702 328.844C296.137 328.961 294.563 328.817 293.044 328.419C290.947 327.814 288.538 326.225 288.538 326.225C288.538 326.225 290.973 300.897 295.516 286.346L306.471 305.249Z" fill="#408B06"/>
<path d="M265.946 209.642C265.946 209.642 277.683 211.631 279.061 216.684C280.438 221.737 288.549 251.444 288.549 251.444C288.549 251.444 282.584 252.515 279.826 249.76C277.067 247.004 270.236 224.178 270.236 224.178L265.946 209.642Z" fill="white"/>
<path d="M268.732 260.195C260.356 260.75 245.635 259.369 245.075 257.822C243.143 252.467 244.508 250.803 242.897 242.604L246.934 231.232C246.934 231.232 246.268 243.896 250.002 247.229C253.735 250.563 265.295 253.66 267.111 256.444C267.985 257.779 268.56 259.108 268.732 260.195Z" fill="#E0E0E0"/>
<path d="M259.135 254.866C259.135 254.866 267.395 253.027 268.729 253.762C270.064 254.496 273.319 257.163 273.729 258.093C274.139 259.022 270.761 257.389 269.661 257.095C268.95 256.902 267.078 257.553 266.153 257.855C262.253 259.154 259.864 258.485 259.864 258.485L259.135 254.866Z" fill="#F9D0B6"/>
<path d="M253.601 208.558C253.601 208.558 242.507 209.24 238.657 214.597C233.272 222.129 222.536 254.271 228.683 258.556C235.605 263.384 260.184 259.823 260.184 259.823C260.184 259.823 261.002 256.001 259.864 254.152C258.727 252.303 240.233 249.314 239.379 248.46C238.525 247.607 250.047 231.815 250.047 229.257C250.047 226.698 253.601 208.558 253.601 208.558Z" fill="white"/>
<path d="M269.129 256.069C269.129 256.069 270.859 258.3 271.427 258.566C271.712 258.722 272.037 258.792 272.361 258.766L271.194 256.667L269.129 256.069Z" fill="#BFA899"/>
<path d="M268.732 253.762L273.765 256.206C273.765 256.206 273.549 256.555 272.931 256.527C272.313 256.5 270.748 255.927 270.748 255.927L268.732 253.762Z" fill="#BFA899"/>
<path d="M271.427 261.98H311.24L323.218 232.197H283.465L271.427 261.98Z" fill="#D3BE32"/>
<path d="M311.706 260.82H259.135V261.98H311.24L311.706 260.82Z" fill="#D3BE32"/>
<path d="M301.19 247.09C301.491 246.041 300.886 245.193 299.837 245.193C298.789 245.193 297.7 246.041 297.398 247.09C297.097 248.139 297.705 248.985 298.751 248.985C299.302 248.954 299.83 248.756 300.266 248.418C300.702 248.079 301.024 247.616 301.19 247.09Z" fill="white"/>
<path d="M479.366 356.761H479.482C479.649 356.755 479.812 356.715 479.963 356.646C480.114 356.576 480.25 356.477 480.363 356.355C480.476 356.232 480.564 356.089 480.621 355.933C480.679 355.776 480.705 355.61 480.698 355.444L478.854 270.899L473.429 270.23L478.056 355.452C478.066 355.796 478.207 356.123 478.451 356.367C478.694 356.61 479.022 356.751 479.366 356.761Z" fill="#3697D5"/>
<path d="M259.333 356.761H259.216C259.05 356.755 258.886 356.715 258.735 356.646C258.584 356.576 258.448 356.477 258.335 356.355C258.222 356.232 258.135 356.089 258.077 355.933C258.02 355.776 257.994 355.61 258 355.444L259.844 270.899L265.269 270.23L260.642 355.452C260.632 355.796 260.491 356.123 260.248 356.367C260.004 356.61 259.677 356.751 259.333 356.761Z" fill="#3697D5"/>
<path d="M485.901 262.254H253.707C251.805 262.254 250.263 263.796 250.263 265.699V269.012C250.263 270.914 251.805 272.456 253.707 272.456H485.901C487.803 272.456 489.345 270.914 489.345 269.012V265.699C489.345 263.796 487.803 262.254 485.901 262.254Z" fill="#3697D5"/>
<path d="M203.104 117.352C202.225 95.6429 220.421 85.9979 239.027 85.9979C257.633 85.9979 277.878 90.8102 279.63 119.684C280.76 138.255 270.859 149.691 242.355 149.691C232.73 149.691 225.269 148.171 219.544 145.468L205.295 158.133L212.298 140.633C206.095 134.853 203.481 126.721 203.104 117.352Z" fill="white"/>
<path d="M625.958 356.667C625.958 356.667 626.479 352.59 627.693 350.166C628.906 347.742 636.621 349.284 636.621 349.284C636.621 349.284 638.163 350.606 638.495 356.779L625.958 356.667Z" fill="#3D2810"/>
<path d="M599.672 356.622C601.483 355.515 600.452 347.25 600.452 347.25C600.452 347.25 592.005 340.493 590.843 345.665C589.68 350.837 582.819 353.162 578.911 353.798C576.216 354.233 575.38 355.728 575.111 356.612L599.672 356.622Z" fill="#3D2810"/>
<path d="M617.169 296.576C616.872 298.082 616.665 299.605 616.548 301.135C615.763 316.454 603.654 351.475 601.488 352.298C598.137 353.565 592.861 350.875 590.09 349.993C588.946 349.629 588.173 348.474 588.429 347.303C594.424 319.739 596.628 280.045 597.431 256.543C597.836 244.704 599.867 236.533 599.867 236.533C599.867 236.533 629.4 228.654 629.575 238.62C629.739 247.435 619.803 282.025 617.169 296.576Z" fill="#7A5224"/>
<path d="M617.169 296.576L597.441 256.54C597.846 244.702 599.877 236.531 599.877 236.531C599.877 236.531 629.41 228.651 629.585 238.618C629.739 247.435 619.803 282.025 617.169 296.576Z" fill="#64421B"/>
<path d="M610.599 238.648L626.208 351.809C626.208 351.809 633.065 353.461 638.396 352.139C638.396 352.139 642.968 291.961 642.588 277.421C642.208 262.88 645.868 238.491 641.752 235.801C637.636 233.111 610.599 238.648 610.599 238.648Z" fill="#7A5224"/>
<path d="M644.794 236.764C644.83 237.259 644.694 237.752 644.41 238.16C644.125 238.567 643.709 238.864 643.231 239C641.053 239.633 638.543 240.074 633.7 241.077C627.714 242.285 621.622 242.897 615.515 242.903C603.555 242.979 599.029 238.851 599.029 238.851C598.522 238.851 599.3 236.356 600.009 224.457C600.25 220.425 600.48 215.316 600.647 208.86C600.799 203.047 600.9 196.145 600.9 187.954C600.913 178.104 616.163 167.504 616.444 167.504C616.444 168.922 618.681 171.539 622.123 171.767C626.211 172.02 631.223 169.994 631.223 167.646C631.223 167.62 638.612 179.464 641.236 192.082C642.575 198.447 642.039 198.275 644.794 236.764Z" fill="#81B1DE"/>
<path d="M616.455 167.512C616.455 167.512 602.271 167.392 598.862 172.177C595.452 176.961 587.971 202.71 591.871 211.279C595.772 219.847 603.081 207.733 607.136 202.487C611.191 197.242 616.455 167.512 616.455 167.512Z" fill="#81B1DE"/>
<path d="M616.31 165.349V166.815C616.31 166.815 615.91 171.397 621.556 172.068C627.201 172.739 631.391 171.212 631.236 167.674C630.73 164.936 630.256 162.122 630.223 159.857C630.212 158.938 630.28 158.02 630.426 157.112L619.486 156.894L616.265 157.418L616.31 165.349Z" fill="#FFC8A3"/>
<path d="M616.267 157.418L616.31 165.349C617.544 165.925 618.89 166.221 620.251 166.217C625.279 166.217 628.528 162.532 630.225 159.857C630.214 158.938 630.282 158.02 630.428 157.112L619.489 156.894L616.267 157.418Z" fill="#785A0C"/>
<path d="M631.267 155.351C630 162.19 621.183 161.957 617.374 161.526C616.303 161.407 615.629 161.273 615.629 161.273C614.421 160.952 613.745 159.047 613.433 156.555C612.81 151.621 613.595 144.377 614.428 142.523C615.695 139.737 618.048 136.72 626.923 138.896C635.798 141.071 632.893 146.601 631.267 155.351Z" fill="#FFC8A3"/>
<path d="M601.954 186.7C601.954 186.7 596.471 198.812 596.635 202.442C598.432 202.416 600.223 202.646 601.954 203.125C606.242 204.399 601.954 186.7 601.954 186.7Z" fill="#5C92CF"/>
<path d="M611.705 136.013C614.644 135.679 617.515 134.903 620.221 133.711C623.959 132.085 628.678 133.876 630.21 134.681C630.155 134.351 630.027 134.036 629.835 133.762C629.835 133.762 630.524 134.248 630.626 134.929C630.697 134.983 630.727 135.018 630.709 135.031C630.691 135.043 631.489 134.889 631.991 135.114C631.991 135.114 631.639 135.064 631.515 135.289C631.499 135.312 631.481 135.333 631.459 135.35C637.284 138.169 637.831 147.388 635.952 149.534C633.695 152.102 630.284 157.91 630.284 157.91C630.284 157.91 629.997 156.517 630.41 154.257C630.823 151.998 628.87 151.998 626.406 150.965C623.941 149.931 625.996 147.064 623.838 145.319C621.68 143.574 613.777 144.6 613.879 143.265C610.946 142.196 611.705 136.32 611.705 136.013Z" fill="#9C7512"/>
<path d="M633.052 209.387C630.737 218.685 605.698 223.489 600.009 224.464C600.25 220.432 600.48 215.324 600.647 208.867L633.052 209.387Z" fill="#5C92CF"/>
<path d="M627.556 212.408C627.809 212.408 633.128 211.613 634.078 211.142C635.028 210.671 639.397 204.463 636.537 202.872C633.678 201.282 626.008 207.644 626.008 207.644L627.556 212.408Z" fill="#FFC8A3"/>
<path d="M595.154 214.252C595.154 214.252 615.758 215.369 629.585 212.408C629.585 212.408 629.934 208.414 625.59 206.641C625.59 206.641 604.039 202.082 598.862 203.348C593.684 204.615 595.154 214.252 595.154 214.252Z" fill="#81B1DE"/>
<path d="M642.472 198.083C638.196 203.239 632.594 207.454 626.444 208.434C625.23 206.356 624.698 203.949 624.924 201.553C625.141 199.294 625.912 197.125 627.168 195.236C627.651 194.463 628.056 193.645 628.379 192.794C631.745 184.208 631.244 167.661 631.244 167.661C631.244 167.661 645.534 169.158 649.987 175.513C652.707 179.411 649.229 189.932 642.472 198.083Z" fill="#81B1DE"/>
<path d="M617.374 161.526C616.303 161.407 615.629 161.273 615.629 161.273C614.421 160.952 613.744 159.047 613.433 156.555C615.697 157.112 616.726 158.862 617.169 159.609C617.364 159.941 617.404 160.693 617.374 161.526Z" fill="#785A0C"/>
<path d="M611.617 165.394C611.617 165.394 606.683 157.249 610.52 156.897C614.357 156.544 615.9 159.138 616.455 160.093C617.009 161.048 616.31 165.351 616.31 165.351L611.617 165.394Z" fill="#FFC8A3"/>
<path d="M630.418 201.276C630.269 202.254 629.986 203.206 629.577 204.106C628.827 205.743 627.758 207.214 626.434 208.434C613.618 202.649 611.024 182.782 610.588 171.868C610.414 167.479 610.588 164.538 610.588 164.538C616.371 162.623 617.997 165.949 617.997 165.949C617.997 165.949 624.835 182.184 628.364 192.797C629.726 196.852 630.6 200.094 630.418 201.276Z" fill="#81B1DE"/>
<path d="M642.472 198.083C638.196 203.239 632.594 207.454 626.444 208.434C613.628 202.649 611.034 182.782 610.599 171.868C610.599 171.868 616.677 193.865 624.919 201.553C626.411 202.946 627.976 203.868 629.59 204.108C629.59 204.108 639.997 201.165 642.183 198.394C642.26 198.274 642.357 198.168 642.472 198.083Z" fill="#5C92CF"/>
<path d="M409.019 262.252H369.206L357.228 232.471H396.981L409.019 262.252Z" fill="#1074AB"/>
<path d="M368.74 261.091H421.311V262.252H369.206L368.74 261.091Z" fill="#1074AB"/>
<path d="M379.256 247.361C378.955 246.315 379.56 245.467 380.609 245.467C381.16 245.497 381.688 245.695 382.124 246.034C382.559 246.372 382.882 246.835 383.048 247.361C383.347 248.41 382.742 249.258 381.695 249.258C381.144 249.228 380.615 249.03 380.179 248.691C379.744 248.352 379.422 247.888 379.256 247.361Z" fill="white"/>
<path d="M731.984 356.006V356.26C731.97 356.467 731.876 356.66 731.721 356.799C731.566 356.937 731.363 357.009 731.156 356.999H0.828231C0.620828 357.009 0.417881 356.937 0.263009 356.799C0.108137 356.66 0.013702 356.467 0 356.26L0 356.006C0.0136988 355.799 0.108222 355.606 0.263171 355.468C0.418121 355.33 0.621073 355.259 0.828231 355.269H731.163C731.369 355.261 731.57 355.333 731.724 355.471C731.877 355.609 731.97 355.801 731.984 356.006Z" fill="#1074AB"/>
</svg>
