<svg width="686" height="387" viewBox="0 0 686 387" fill="none" xmlns="http://www.w3.org/2000/svg">
<path d="M26.3285 385.385C26.4894 382.569 -39.8078 298.004 37.3963 219.925C72.2496 184.68 131.205 203.777 121.878 100.824C113.825 11.9187 252.898 -40.317 339.332 39.0545C395.173 90.3352 451.706 21.9243 540.294 60.7396C628.883 99.5549 570.547 205.056 606.9 214.995C678.522 234.577 714.073 320.748 656.982 384.428L26.3285 385.385Z" fill="#D0E5F3"/>
<path d="M324.82 179.852C324.444 179.077 324.031 178.291 323.589 177.515L324.836 176.807C325.292 177.612 325.721 178.417 326.11 179.221L324.82 179.852ZM322.213 175.257C321.738 174.53 321.231 173.798 320.705 173.081L321.861 172.231C322.398 172.969 322.934 173.725 323.414 174.474L322.213 175.257ZM179.725 191.073C178.816 191.169 177.904 191.244 177.013 191.298L176.928 189.866C177.797 189.815 178.687 189.739 179.57 189.646L179.725 191.073ZM182.408 190.716L182.188 189.3C183.052 189.165 183.931 189.01 184.803 188.833L185.072 190.241C184.208 190.418 183.306 190.579 182.424 190.724L182.408 190.716ZM174.277 191.389C173.365 191.389 172.448 191.389 171.552 191.338L171.619 189.906C172.488 189.943 173.379 189.962 174.267 189.954L174.277 191.389ZM187.754 189.651L187.413 188.256C188.264 188.049 189.13 187.819 189.983 187.575L190.38 188.953C189.506 189.203 188.623 189.439 187.754 189.651ZM168.848 191.134C167.941 191.043 167.032 190.922 166.144 190.778L166.375 189.361C167.233 189.503 168.116 189.629 168.995 189.71L168.848 191.134ZM192.974 188.154L192.526 186.791C193.358 186.523 194.205 186.223 195.04 185.914L195.536 187.255C194.685 187.575 193.822 187.875 192.974 188.154ZM198.071 186.276L197.534 184.949C198.339 184.616 199.171 184.262 199.983 183.9L200.568 185.209C199.729 185.582 198.892 185.941 198.063 186.279L198.071 186.276ZM163.467 190.254C162.574 190.053 161.683 189.82 160.822 189.565L161.23 188.192C162.061 188.436 162.922 188.661 163.783 188.857L163.467 190.254ZM319.082 170.986C318.527 170.308 317.942 169.645 317.347 168.98L318.42 168.014C319.031 168.685 319.629 169.38 320.201 170.074L319.082 170.986ZM203.012 184.066L202.387 182.776C203.175 182.392 203.978 181.99 204.766 181.577L205.431 182.846C204.627 183.267 203.814 183.677 203.012 184.066ZM158.215 188.707C157.356 188.39 156.506 188.041 155.682 187.671L156.273 186.362C157.064 186.722 157.882 187.057 158.711 187.363L158.215 188.707ZM207.803 181.558L207.103 180.308C207.87 179.879 208.645 179.428 209.412 178.967L210.147 180.198C209.38 180.667 208.591 181.123 207.813 181.558H207.803ZM315.501 167.073C314.879 166.45 314.23 165.836 313.575 165.246L314.538 164.173C315.209 164.779 315.879 165.409 316.512 166.051L315.501 167.073ZM153.239 186.456C152.434 186.024 151.629 185.555 150.878 185.067L151.653 183.859C152.386 184.329 153.147 184.777 153.92 185.201L153.239 186.456ZM212.465 178.79L211.698 177.58C212.441 177.11 213.192 176.622 213.938 176.126L214.742 177.32C213.98 177.819 213.216 178.315 212.465 178.79ZM216.966 175.788L216.143 174.629C216.861 174.125 217.591 173.599 218.31 173.071L219.16 174.224C218.433 174.747 217.693 175.278 216.966 175.788ZM148.628 183.503C147.901 182.953 147.184 182.371 146.503 181.77L147.453 180.697C148.107 181.274 148.794 181.832 149.491 182.36L148.628 183.503ZM311.574 163.508C310.895 162.95 310.19 162.402 309.482 161.874L310.337 160.723C311.064 161.26 311.786 161.826 312.483 162.4L311.574 163.508ZM221.32 172.585L220.445 171.448L220.657 171.284C221.303 170.785 221.947 170.295 222.591 169.814L223.45 170.962C222.813 171.436 222.174 171.922 221.534 172.419L221.32 172.585ZM307.314 160.345C306.585 159.854 305.831 159.374 305.077 158.918L305.82 157.689C306.593 158.159 307.365 158.65 308.114 159.154L307.314 160.345ZM144.523 179.879C143.89 179.224 143.276 178.537 142.697 177.835L143.804 176.92C144.357 177.593 144.947 178.261 145.553 178.881L144.523 179.879ZM225.596 169.38L224.756 168.215C225.491 167.679 226.231 167.164 226.966 166.659L227.771 167.84C227.066 168.339 226.331 168.859 225.596 169.38ZM302.765 157.598C301.99 157.18 301.196 156.775 300.402 156.391L301.024 155.098C301.829 155.492 302.652 155.903 303.438 156.337L302.765 157.598ZM229.995 166.343L229.206 165.147C229.963 164.648 230.727 164.154 231.476 163.682L232.243 164.894C231.51 165.364 230.754 165.849 230.006 166.343H229.995ZM141.039 175.648C140.518 174.903 140.019 174.125 139.558 173.336L140.797 172.612C141.24 173.368 141.715 174.114 142.214 174.828L141.039 175.648ZM234.528 163.497L233.79 162.266C234.563 161.804 235.349 161.346 236.127 160.903L236.835 162.153C236.057 162.588 235.293 163.041 234.528 163.497ZM297.995 155.297C297.191 154.953 296.354 154.626 295.527 154.32L296.026 152.979C296.871 153.293 297.722 153.631 298.556 153.982L297.995 155.297ZM239.174 160.863L238.496 159.607C239.3 159.183 240.105 158.765 240.896 158.36L241.543 159.642C240.751 160.028 239.955 160.442 239.174 160.863ZM293.019 153.462C292.18 153.194 291.321 152.947 290.471 152.721L290.839 151.335C291.71 151.565 292.59 151.823 293.451 152.094L293.019 153.462ZM243.93 158.465L243.321 157.166C244.126 156.783 244.968 156.407 245.786 156.048L246.361 157.365C245.567 157.73 244.748 158.086 243.941 158.465H243.93ZM138.268 170.914C137.874 170.109 137.506 169.251 137.173 168.4L138.515 167.88C138.831 168.685 139.185 169.506 139.563 170.294L138.268 170.914ZM287.89 152.096C287.032 151.911 286.155 151.745 285.283 151.6L285.519 150.184C286.412 150.334 287.311 150.506 288.202 150.693L287.89 152.096ZM248.831 156.335L248.295 154.993C249.134 154.658 249.987 154.331 250.824 154.022L251.318 155.364C250.494 155.68 249.657 156.002 248.831 156.335ZM282.657 151.238C281.783 151.133 280.895 151.048 280.015 150.983L280.122 149.553C281.021 149.618 281.933 149.706 282.829 149.822L282.657 151.238ZM253.834 154.511L253.383 153.148C254.244 152.864 255.116 152.593 255.972 152.343L256.377 153.719C255.535 153.953 254.679 154.221 253.834 154.511ZM277.367 150.844C276.493 150.817 275.599 150.811 274.712 150.825L274.693 149.39C275.599 149.39 276.514 149.39 277.41 149.409L277.367 150.844ZM258.947 152.99L258.59 151.611C259.464 151.386 260.352 151.174 261.229 150.983L261.535 152.383C260.671 152.571 259.802 152.778 258.944 152.998L258.947 152.99ZM272.059 150.913C271.181 150.964 270.291 151.034 269.411 151.12L269.269 149.693C270.167 149.604 271.079 149.532 271.975 149.481L272.059 150.913ZM264.145 151.855L263.877 150.444C264.77 150.283 265.672 150.138 266.56 150.015L266.758 151.436C265.9 151.56 265.028 151.707 264.143 151.863L264.145 151.855ZM136.269 165.809C136.001 164.945 135.773 164.052 135.572 163.159L136.972 162.848C137.163 163.706 137.388 164.562 137.64 165.393L136.269 165.809ZM135.076 160.468C135.027 160.138 134.982 159.808 134.942 159.476C134.875 158.902 134.815 158.32 134.773 157.746L136.202 157.638C136.245 158.191 136.299 158.752 136.366 159.304C136.406 159.623 136.446 159.943 136.495 160.256L135.076 160.468ZM136.095 155.002H134.66C134.66 154.1 134.676 153.18 134.73 152.268L136.162 152.351C136.122 153.244 136.098 154.132 136.106 155.002H136.095ZM136.398 149.728L134.974 149.556C135.081 148.676 135.218 147.78 135.379 146.895L136.795 147.11V147.166C136.645 148.008 136.513 148.877 136.409 149.728H136.398ZM137.342 144.51L135.942 144.194C136.143 143.311 136.363 142.423 136.599 141.557L137.983 141.933C137.747 142.78 137.533 143.647 137.342 144.51ZM186.413 137.252C185.486 137.339 184.555 137.364 183.626 137.324L183.693 135.889C184.554 135.929 185.417 135.907 186.276 135.825L186.413 137.252ZM189.146 136.806L188.846 135.417C189.696 135.23 190.535 134.996 191.359 134.717L191.818 136.077C190.941 136.368 190.049 136.612 189.146 136.806ZM180.831 136.954C179.91 136.753 179.012 136.463 178.148 136.087L178.725 134.773C179.502 135.111 180.311 135.372 181.139 135.551L180.831 136.954ZM194.369 135.052L193.779 133.746C194.567 133.389 195.351 132.989 196.11 132.555L196.823 133.799C196.032 134.266 195.206 134.687 194.377 135.063L194.369 135.052ZM199.146 132.321L198.328 131.173C199.044 130.669 199.739 130.13 200.399 129.564L201.33 130.655C200.649 131.238 199.906 131.804 199.154 132.332L199.146 132.321ZM138.721 139.376L137.364 138.952C137.632 138.091 137.938 137.225 138.249 136.382L139.59 136.879C139.29 137.7 139 138.545 138.729 139.387L138.721 139.376ZM175.702 134.674C174.938 134.107 174.243 133.452 173.631 132.724L174.728 131.801C175.269 132.443 175.883 133.021 176.557 133.523L175.702 134.674ZM203.331 128.759L202.298 127.761C202.907 127.131 203.487 126.468 204.02 125.792L205.147 126.683C204.592 127.396 203.98 128.094 203.331 128.759ZM140.561 134.408L139.25 133.856C139.601 133.021 139.977 132.187 140.363 131.374L141.658 131.991C141.28 132.783 140.913 133.587 140.561 134.408ZM172.045 130.368C171.608 129.537 171.248 128.667 170.972 127.769L172.341 127.343C172.591 128.157 172.915 128.947 173.309 129.703L172.045 130.368ZM206.749 124.429L205.533 123.662C205.997 122.927 206.419 122.167 206.797 121.385L208.09 122.007C207.687 122.838 207.24 123.645 206.749 124.427V124.429ZM142.855 129.62L141.591 128.944C142.015 128.139 142.466 127.351 142.933 126.575L144.167 127.31C143.711 128.067 143.271 128.845 142.855 129.62ZM170.353 125.06C170.315 124.81 170.278 124.558 170.248 124.298C170.17 123.657 170.117 122.986 170.09 122.305L171.525 122.249C171.549 122.892 171.6 123.525 171.673 124.126C171.702 124.368 171.734 124.606 171.769 124.84L170.353 125.06ZM209.147 119.461L207.789 118.995C208.072 118.175 208.304 117.34 208.484 116.492L209.887 116.79C209.693 117.69 209.446 118.578 209.147 119.448V119.461ZM145.572 125.076L144.376 124.287C144.872 123.536 145.392 122.785 145.926 122.053L147.085 122.898C146.565 123.598 146.055 124.33 145.572 125.062V125.076ZM171.536 119.617L170.101 119.561C170.138 118.646 170.205 117.729 170.302 116.835L171.729 116.991C171.635 117.836 171.568 118.721 171.536 119.604V119.617ZM210.305 114.035L208.876 113.911C208.951 113.048 208.972 112.181 208.94 111.315L210.373 111.264C210.407 112.188 210.384 113.113 210.305 114.035ZM148.697 120.776L147.579 119.877C148.142 119.174 148.732 118.474 149.328 117.796L150.401 118.743C149.821 119.405 149.247 120.089 148.697 120.776ZM152.203 116.79L151.17 115.795C151.798 115.145 152.447 114.499 153.102 113.879L154.089 114.92C153.451 115.526 152.815 116.151 152.203 116.79ZM172.11 114.376L170.699 114.107C170.865 113.209 171.066 112.31 171.3 111.425L172.687 111.795C172.461 112.664 172.268 113.514 172.11 114.378V114.376ZM208.613 108.791C208.424 107.972 208.14 107.178 207.768 106.425L209.05 105.786C209.474 106.64 209.796 107.54 210.01 108.469L208.613 108.791ZM156.055 113.134L155.114 112.061C155.795 111.47 156.498 110.886 157.206 110.322L158.099 111.446C157.407 111.988 156.718 112.56 156.055 113.134ZM173.462 109.311L172.121 108.831C172.426 107.972 172.772 107.117 173.143 106.288L174.452 106.878C174.092 107.669 173.754 108.488 173.462 109.311ZM206.389 104.348C205.843 103.704 205.229 103.12 204.557 102.608L205.431 101.47C206.184 102.046 206.873 102.701 207.486 103.423L206.389 104.348ZM160.216 109.848L159.373 108.686C160.106 108.15 160.857 107.634 161.611 107.138L162.399 108.335C161.664 108.807 160.929 109.316 160.216 109.834V109.848ZM164.647 106.921L163.899 105.69C164.674 105.226 165.471 104.772 166.262 104.348L166.946 105.609C166.182 106.012 165.404 106.454 164.647 106.908V106.921ZM175.613 104.544L174.36 103.839C174.749 103.136 175.165 102.436 175.61 101.755C175.138 101.921 174.667 102.093 174.197 102.27L173.69 100.928C174.537 100.606 175.401 100.301 176.254 100.022L176.702 101.384L175.981 101.626L176.976 102.286C176.49 103.007 176.034 103.772 175.613 104.531V104.544ZM202.398 101.248C201.631 100.855 200.837 100.519 200.021 100.242L200.485 98.8843C201.366 99.1841 202.224 99.5472 203.052 99.9707L202.398 101.248ZM169.32 104.378L168.692 103.088C169.497 102.691 170.337 102.31 171.166 101.953L171.734 103.267C170.927 103.619 170.114 103.992 169.32 104.378ZM197.513 99.5361C196.689 99.3591 195.82 99.2169 194.93 99.1123L195.093 97.6879C196.029 97.7952 196.947 97.9561 197.813 98.1332L197.513 99.5361ZM179.24 100.609L178.955 99.5764L178.508 100.14L177.376 99.2598C177.928 98.549 178.518 97.8435 179.135 97.1621L180.208 98.1225C179.918 98.4426 179.636 98.7663 179.361 99.0935C180.079 98.9031 180.801 98.7287 181.507 98.5731L181.818 99.9734C180.962 100.172 180.096 100.386 179.24 100.62V100.609ZM192.309 98.9111C191.453 98.8843 190.565 98.8897 189.672 98.9245L189.616 97.4921C190.544 97.4545 191.464 97.4492 192.354 97.4787L192.309 98.9111ZM184.417 99.4717L184.184 98.0554C185.093 97.9079 186.002 97.7872 186.89 97.6906L187.038 99.1177C186.179 99.2196 185.3 99.3376 184.417 99.4825V99.4717ZM182.032 96.2286L181.034 95.1959C181.678 94.5736 182.36 93.9566 183.057 93.3638L183.985 94.4555C183.312 95.0403 182.655 95.6385 182.032 96.2394V96.2286ZM186.056 92.8058L185.192 91.6604C185.903 91.1239 186.649 90.5874 187.411 90.0804L188.215 91.2714C187.464 91.7784 186.74 92.2961 186.048 92.8139L186.056 92.8058ZM190.445 89.8551L189.704 88.6265C190.466 88.1678 191.263 87.7118 192.067 87.2853L192.751 88.5461C191.957 88.9699 191.179 89.4125 190.436 89.8631L190.445 89.8551ZM195.117 87.3202L194.487 86.0326C195.292 85.6436 196.118 85.2574 196.955 84.8899L197.532 86.2016C196.705 86.5691 195.893 86.9446 195.109 87.3255L195.117 87.3202ZM199.991 85.1742L199.455 83.833C200.284 83.503 201.137 83.1811 201.998 82.8726L202.481 84.2139C201.636 84.5385 200.796 84.855 199.983 85.1796L199.991 85.1742ZM205.013 83.3716L204.573 82.0062C205.423 81.738 206.298 81.4697 207.167 81.2015L207.567 82.5776C206.703 82.8431 205.842 83.106 205.005 83.3769L205.013 83.3716ZM210.145 81.8828L209.769 80.4987C210.635 80.276 211.523 80.0587 212.406 79.8575L212.725 81.2551C211.864 81.4536 210.99 81.6682 210.136 81.8882L210.145 81.8828ZM215.357 80.6891L215.088 79.2835C215.979 79.1038 216.878 78.9375 217.771 78.7872L218.012 80.2009C217.114 80.3565 216.228 80.5201 215.349 80.6945L215.357 80.6891ZM223.267 79.4847C223.267 79.4847 222.283 79.5652 220.63 79.7932L220.434 78.3715C222.138 78.1354 223.117 78.0576 223.152 78.0549L223.267 79.4847Z" fill="#801FBC"/>
<path d="M324.82 179.852C324.444 179.077 324.031 178.291 323.589 177.515L324.836 176.807C325.292 177.612 325.721 178.417 326.11 179.221L324.82 179.852ZM322.213 175.257C321.738 174.53 321.231 173.798 320.705 173.081L321.861 172.231C322.398 172.969 322.934 173.725 323.414 174.474L322.213 175.257ZM179.725 191.073C178.816 191.169 177.904 191.244 177.013 191.298L176.928 189.866C177.797 189.815 178.687 189.739 179.57 189.646L179.725 191.073ZM182.408 190.716L182.188 189.3C183.052 189.165 183.931 189.01 184.803 188.833L185.072 190.241C184.208 190.418 183.306 190.579 182.424 190.724L182.408 190.716ZM174.277 191.389C173.365 191.389 172.448 191.389 171.552 191.338L171.619 189.906C172.488 189.943 173.379 189.962 174.267 189.954L174.277 191.389ZM187.754 189.651L187.413 188.256C188.264 188.049 189.13 187.819 189.983 187.575L190.38 188.953C189.506 189.203 188.623 189.439 187.754 189.651ZM168.848 191.134C167.941 191.043 167.032 190.922 166.144 190.778L166.375 189.361C167.233 189.503 168.116 189.629 168.995 189.71L168.848 191.134ZM192.974 188.154L192.526 186.791C193.358 186.523 194.205 186.223 195.04 185.914L195.536 187.255C194.685 187.575 193.822 187.875 192.974 188.154ZM198.071 186.276L197.534 184.949C198.339 184.616 199.171 184.262 199.983 183.9L200.568 185.209C199.729 185.582 198.892 185.941 198.063 186.279L198.071 186.276ZM163.467 190.254C162.574 190.053 161.683 189.82 160.822 189.565L161.23 188.192C162.061 188.436 162.922 188.661 163.783 188.857L163.467 190.254ZM319.082 170.986C318.527 170.308 317.942 169.645 317.347 168.98L318.42 168.014C319.031 168.685 319.629 169.38 320.201 170.074L319.082 170.986ZM203.012 184.066L202.387 182.776C203.175 182.392 203.978 181.99 204.766 181.577L205.431 182.846C204.627 183.267 203.814 183.677 203.012 184.066ZM158.215 188.707C157.356 188.39 156.506 188.041 155.682 187.671L156.273 186.362C157.064 186.722 157.882 187.057 158.711 187.363L158.215 188.707ZM207.803 181.558L207.103 180.308C207.87 179.879 208.645 179.428 209.412 178.967L210.147 180.198C209.38 180.667 208.591 181.123 207.813 181.558H207.803ZM315.501 167.073C314.879 166.45 314.23 165.836 313.575 165.246L314.538 164.173C315.209 164.779 315.879 165.409 316.512 166.051L315.501 167.073ZM153.239 186.456C152.434 186.024 151.629 185.555 150.878 185.067L151.653 183.859C152.386 184.329 153.147 184.777 153.92 185.201L153.239 186.456ZM212.465 178.79L211.698 177.58C212.441 177.11 213.192 176.622 213.938 176.126L214.742 177.32C213.98 177.819 213.216 178.315 212.465 178.79ZM216.966 175.788L216.143 174.629C216.861 174.125 217.591 173.599 218.31 173.071L219.16 174.224C218.433 174.747 217.693 175.278 216.966 175.788ZM148.628 183.503C147.901 182.953 147.184 182.371 146.503 181.77L147.453 180.697C148.107 181.274 148.794 181.832 149.491 182.36L148.628 183.503ZM311.574 163.508C310.895 162.95 310.19 162.402 309.482 161.874L310.337 160.723C311.064 161.26 311.786 161.826 312.483 162.4L311.574 163.508ZM221.32 172.585L220.445 171.448L220.657 171.284C221.303 170.785 221.947 170.295 222.591 169.814L223.45 170.962C222.813 171.436 222.174 171.922 221.534 172.419L221.32 172.585ZM307.314 160.345C306.585 159.854 305.831 159.374 305.077 158.918L305.82 157.689C306.593 158.159 307.365 158.65 308.114 159.154L307.314 160.345ZM144.523 179.879C143.89 179.224 143.276 178.537 142.697 177.835L143.804 176.92C144.357 177.593 144.947 178.261 145.553 178.881L144.523 179.879ZM225.596 169.38L224.756 168.215C225.491 167.679 226.231 167.164 226.966 166.659L227.771 167.84C227.066 168.339 226.331 168.859 225.596 169.38ZM302.765 157.598C301.99 157.18 301.196 156.775 300.402 156.391L301.024 155.098C301.829 155.492 302.652 155.903 303.438 156.337L302.765 157.598ZM229.995 166.343L229.206 165.147C229.963 164.648 230.727 164.154 231.476 163.682L232.243 164.894C231.51 165.364 230.754 165.849 230.006 166.343H229.995ZM141.039 175.648C140.518 174.903 140.019 174.125 139.558 173.336L140.797 172.612C141.24 173.368 141.715 174.114 142.214 174.828L141.039 175.648ZM234.528 163.497L233.79 162.266C234.563 161.804 235.349 161.346 236.127 160.903L236.835 162.153C236.057 162.588 235.293 163.041 234.528 163.497ZM297.995 155.297C297.191 154.953 296.354 154.626 295.527 154.32L296.026 152.979C296.871 153.293 297.722 153.631 298.556 153.982L297.995 155.297ZM239.174 160.863L238.496 159.607C239.3 159.183 240.105 158.765 240.896 158.36L241.543 159.642C240.751 160.028 239.955 160.442 239.174 160.863ZM293.019 153.462C292.18 153.194 291.321 152.947 290.471 152.721L290.839 151.335C291.71 151.565 292.59 151.823 293.451 152.094L293.019 153.462ZM243.93 158.465L243.321 157.166C244.126 156.783 244.968 156.407 245.786 156.048L246.361 157.365C245.567 157.73 244.748 158.086 243.941 158.465H243.93ZM138.268 170.914C137.874 170.109 137.506 169.251 137.173 168.4L138.515 167.88C138.831 168.685 139.185 169.506 139.563 170.294L138.268 170.914ZM287.89 152.096C287.032 151.911 286.155 151.745 285.283 151.6L285.519 150.184C286.412 150.334 287.311 150.506 288.202 150.693L287.89 152.096ZM248.831 156.335L248.295 154.993C249.134 154.658 249.987 154.331 250.824 154.022L251.318 155.364C250.494 155.68 249.657 156.002 248.831 156.335ZM282.657 151.238C281.783 151.133 280.895 151.048 280.015 150.983L280.122 149.553C281.021 149.618 281.933 149.706 282.829 149.822L282.657 151.238ZM253.834 154.511L253.383 153.148C254.244 152.864 255.116 152.593 255.972 152.343L256.377 153.719C255.535 153.953 254.679 154.221 253.834 154.511ZM277.367 150.844C276.493 150.817 275.599 150.811 274.712 150.825L274.693 149.39C275.599 149.39 276.514 149.39 277.41 149.409L277.367 150.844ZM258.947 152.99L258.59 151.611C259.464 151.386 260.352 151.174 261.229 150.983L261.535 152.383C260.671 152.571 259.802 152.778 258.944 152.998L258.947 152.99ZM272.059 150.913C271.181 150.964 270.291 151.034 269.411 151.12L269.269 149.693C270.167 149.604 271.079 149.532 271.975 149.481L272.059 150.913ZM264.145 151.855L263.877 150.444C264.77 150.283 265.672 150.138 266.56 150.015L266.758 151.436C265.9 151.56 265.028 151.707 264.143 151.863L264.145 151.855ZM136.269 165.809C136.001 164.945 135.773 164.052 135.572 163.159L136.972 162.848C137.163 163.706 137.388 164.562 137.64 165.393L136.269 165.809ZM135.076 160.468C135.027 160.138 134.982 159.808 134.942 159.476C134.875 158.902 134.815 158.32 134.773 157.746L136.202 157.638C136.245 158.191 136.299 158.752 136.366 159.304C136.406 159.623 136.446 159.943 136.495 160.256L135.076 160.468ZM136.095 155.002H134.66C134.66 154.1 134.676 153.18 134.73 152.268L136.162 152.351C136.122 153.244 136.098 154.132 136.106 155.002H136.095ZM136.398 149.728L134.974 149.556C135.081 148.676 135.218 147.78 135.379 146.895L136.795 147.11V147.166C136.645 148.008 136.513 148.877 136.409 149.728H136.398ZM137.342 144.51L135.942 144.194C136.143 143.311 136.363 142.423 136.599 141.557L137.983 141.933C137.747 142.78 137.533 143.647 137.342 144.51ZM186.413 137.252C185.486 137.339 184.555 137.364 183.626 137.324L183.693 135.889C184.554 135.929 185.417 135.907 186.276 135.825L186.413 137.252ZM189.146 136.806L188.846 135.417C189.696 135.23 190.535 134.996 191.359 134.717L191.818 136.077C190.941 136.368 190.049 136.612 189.146 136.806ZM180.831 136.954C179.91 136.753 179.012 136.463 178.148 136.087L178.725 134.773C179.502 135.111 180.311 135.372 181.139 135.551L180.831 136.954ZM194.369 135.052L193.779 133.746C194.567 133.389 195.351 132.989 196.11 132.555L196.823 133.799C196.032 134.266 195.206 134.687 194.377 135.063L194.369 135.052ZM199.146 132.321L198.328 131.173C199.044 130.669 199.739 130.13 200.399 129.564L201.33 130.655C200.649 131.238 199.906 131.804 199.154 132.332L199.146 132.321ZM138.721 139.376L137.364 138.952C137.632 138.091 137.938 137.225 138.249 136.382L139.59 136.879C139.29 137.7 139 138.545 138.729 139.387L138.721 139.376ZM175.702 134.674C174.938 134.107 174.243 133.452 173.631 132.724L174.728 131.801C175.269 132.443 175.883 133.021 176.557 133.523L175.702 134.674ZM203.331 128.759L202.298 127.761C202.907 127.131 203.487 126.468 204.02 125.792L205.147 126.683C204.592 127.396 203.98 128.094 203.331 128.759ZM140.561 134.408L139.25 133.856C139.601 133.021 139.977 132.187 140.363 131.374L141.658 131.991C141.28 132.783 140.913 133.587 140.561 134.408ZM172.045 130.368C171.608 129.537 171.248 128.667 170.972 127.769L172.341 127.343C172.591 128.157 172.915 128.947 173.309 129.703L172.045 130.368ZM206.749 124.429L205.533 123.662C205.997 122.927 206.419 122.167 206.797 121.385L208.09 122.007C207.687 122.838 207.24 123.645 206.749 124.427V124.429ZM142.855 129.62L141.591 128.944C142.015 128.139 142.466 127.351 142.933 126.575L144.167 127.31C143.711 128.067 143.271 128.845 142.855 129.62ZM170.353 125.06C170.315 124.81 170.278 124.558 170.248 124.298C170.17 123.657 170.117 122.986 170.09 122.305L171.525 122.249C171.549 122.892 171.6 123.525 171.673 124.126C171.702 124.368 171.734 124.606 171.769 124.84L170.353 125.06ZM209.147 119.461L207.789 118.995C208.072 118.175 208.304 117.34 208.484 116.492L209.887 116.79C209.693 117.69 209.446 118.578 209.147 119.448V119.461ZM145.572 125.076L144.376 124.287C144.872 123.536 145.392 122.785 145.926 122.053L147.085 122.898C146.565 123.598 146.055 124.33 145.572 125.062V125.076ZM171.536 119.617L170.101 119.561C170.138 118.646 170.205 117.729 170.302 116.835L171.729 116.991C171.635 117.836 171.568 118.721 171.536 119.604V119.617ZM210.305 114.035L208.876 113.911C208.951 113.048 208.972 112.181 208.94 111.315L210.373 111.264C210.407 112.188 210.384 113.113 210.305 114.035ZM148.697 120.776L147.579 119.877C148.142 119.174 148.732 118.474 149.328 117.796L150.401 118.743C149.821 119.405 149.247 120.089 148.697 120.776ZM152.203 116.79L151.17 115.795C151.798 115.145 152.447 114.499 153.102 113.879L154.089 114.92C153.451 115.526 152.815 116.151 152.203 116.79ZM172.11 114.376L170.699 114.107C170.865 113.209 171.066 112.31 171.3 111.425L172.687 111.795C172.461 112.664 172.268 113.514 172.11 114.378V114.376ZM208.613 108.791C208.424 107.972 208.14 107.178 207.768 106.425L209.05 105.786C209.474 106.64 209.796 107.54 210.01 108.469L208.613 108.791ZM156.055 113.134L155.114 112.061C155.795 111.47 156.498 110.886 157.206 110.322L158.099 111.446C157.407 111.988 156.718 112.56 156.055 113.134ZM173.462 109.311L172.121 108.831C172.426 107.972 172.772 107.117 173.143 106.288L174.452 106.878C174.092 107.669 173.754 108.488 173.462 109.311ZM206.389 104.348C205.843 103.704 205.229 103.12 204.557 102.608L205.431 101.47C206.184 102.046 206.873 102.701 207.486 103.423L206.389 104.348ZM160.216 109.848L159.373 108.686C160.106 108.15 160.857 107.634 161.611 107.138L162.399 108.335C161.664 108.807 160.929 109.316 160.216 109.834V109.848ZM164.647 106.921L163.899 105.69C164.674 105.226 165.471 104.772 166.262 104.348L166.946 105.609C166.182 106.012 165.404 106.454 164.647 106.908V106.921ZM175.613 104.544L174.36 103.839C174.749 103.136 175.165 102.436 175.61 101.755C175.138 101.921 174.667 102.093 174.197 102.27L173.69 100.928C174.537 100.606 175.401 100.301 176.254 100.022L176.702 101.384L175.981 101.626L176.976 102.286C176.49 103.007 176.034 103.772 175.613 104.531V104.544ZM202.398 101.248C201.631 100.855 200.837 100.519 200.021 100.242L200.485 98.8843C201.366 99.1841 202.224 99.5472 203.052 99.9707L202.398 101.248ZM169.32 104.378L168.692 103.088C169.497 102.691 170.337 102.31 171.166 101.953L171.734 103.267C170.927 103.619 170.114 103.992 169.32 104.378ZM197.513 99.5361C196.689 99.3591 195.82 99.2169 194.93 99.1123L195.093 97.6879C196.029 97.7952 196.947 97.9561 197.813 98.1332L197.513 99.5361ZM179.24 100.609L178.955 99.5764L178.508 100.14L177.376 99.2598C177.928 98.549 178.518 97.8435 179.135 97.1621L180.208 98.1225C179.918 98.4426 179.636 98.7663 179.361 99.0935C180.079 98.9031 180.801 98.7287 181.507 98.5731L181.818 99.9734C180.962 100.172 180.096 100.386 179.24 100.62V100.609ZM192.309 98.9111C191.453 98.8843 190.565 98.8897 189.672 98.9245L189.616 97.4921C190.544 97.4545 191.464 97.4492 192.354 97.4787L192.309 98.9111ZM184.417 99.4717L184.184 98.0554C185.093 97.9079 186.002 97.7872 186.89 97.6906L187.038 99.1177C186.179 99.2196 185.3 99.3376 184.417 99.4825V99.4717ZM182.032 96.2286L181.034 95.1959C181.678 94.5736 182.36 93.9566 183.057 93.3638L183.985 94.4555C183.312 95.0403 182.655 95.6385 182.032 96.2394V96.2286ZM186.056 92.8058L185.192 91.6604C185.903 91.1239 186.649 90.5874 187.411 90.0804L188.215 91.2714C187.464 91.7784 186.74 92.2961 186.048 92.8139L186.056 92.8058ZM190.445 89.8551L189.704 88.6265C190.466 88.1678 191.263 87.7118 192.067 87.2853L192.751 88.5461C191.957 88.9699 191.179 89.4125 190.436 89.8631L190.445 89.8551ZM195.117 87.3202L194.487 86.0326C195.292 85.6436 196.118 85.2574 196.955 84.8899L197.532 86.2016C196.705 86.5691 195.893 86.9446 195.109 87.3255L195.117 87.3202ZM199.991 85.1742L199.455 83.833C200.284 83.503 201.137 83.1811 201.998 82.8726L202.481 84.2139C201.636 84.5385 200.796 84.855 199.983 85.1796L199.991 85.1742ZM205.013 83.3716L204.573 82.0062C205.423 81.738 206.298 81.4697 207.167 81.2015L207.567 82.5776C206.703 82.8431 205.842 83.106 205.005 83.3769L205.013 83.3716ZM210.145 81.8828L209.769 80.4987C210.635 80.276 211.523 80.0587 212.406 79.8575L212.725 81.2551C211.864 81.4536 210.99 81.6682 210.136 81.8882L210.145 81.8828ZM215.357 80.6891L215.088 79.2835C215.979 79.1038 216.878 78.9375 217.771 78.7872L218.012 80.2009C217.114 80.3565 216.228 80.5201 215.349 80.6945L215.357 80.6891ZM223.267 79.4847C223.267 79.4847 222.283 79.5652 220.63 79.7932L220.434 78.3715C222.138 78.1354 223.117 78.0576 223.152 78.0549L223.267 79.4847Z" fill="#801FBC"/>
<path d="M230.234 237.466H173.172V383.996H230.234V237.466Z" fill="#8AC4EA"/>
<path d="M144 304H87V384H144V304Z" fill="#8AC4EA"/>
<path d="M319.002 189.573H261.94V383.996H319.002V189.573Z" fill="#8AC4EA"/>
<path d="M405.133 137.882H342.653V383.993H405.133V137.882Z" fill="#8AC4EA"/>
<path d="M484.456 103.812H427.395V383.996H484.456V103.812Z" fill="#8AC4EA"/>
<path d="M405.133 219.901L525.061 161.844L471.575 275.852L462.532 224.126L405.133 219.901Z" fill="#801FBC"/>
<path d="M405.133 219.901L525.061 161.844L471.575 275.852L462.532 224.126L405.133 219.901Z" fill="#801FBC"/>
<path d="M377.544 181.035C376.493 176.716 376.746 172.183 378.272 168.009C379.797 163.835 382.526 160.207 386.114 157.583C389.702 154.96 393.986 153.459 398.427 153.271C402.867 153.083 407.264 154.216 411.06 156.527C414.857 158.837 417.883 162.222 419.756 166.252C421.629 170.282 422.265 174.778 421.583 179.169C420.901 183.561 418.932 187.652 415.925 190.925C412.919 194.198 409.009 196.505 404.69 197.556C398.9 198.965 392.786 198.016 387.695 194.918C382.604 191.819 378.953 186.826 377.544 181.035Z" fill="#FFD84F"/>
<path d="M404.28 195.874C399.677 196.994 394.829 196.484 390.56 194.43C386.292 192.376 382.868 188.905 380.871 184.61C378.874 180.314 378.429 175.459 379.611 170.872C380.792 166.284 383.528 162.249 387.352 159.452C391.175 156.656 395.85 155.272 400.58 155.536C405.309 155.8 409.801 157.696 413.29 160.9C416.778 164.105 419.048 168.42 419.712 173.11C420.376 177.8 419.393 182.576 416.931 186.622C415.538 188.924 413.703 190.927 411.532 192.515C409.36 194.103 406.896 195.245 404.28 195.874ZM394.891 157.274C391.192 158.174 387.842 160.151 385.265 162.954C382.689 165.758 381.002 169.263 380.418 173.026C379.834 176.788 380.378 180.64 381.983 184.093C383.587 187.546 386.18 190.446 389.433 192.425C392.685 194.405 396.452 195.376 400.256 195.215C404.06 195.054 407.732 193.768 410.805 191.521C413.879 189.273 416.217 186.165 417.524 182.589C418.831 179.012 419.049 175.129 418.148 171.429C416.936 166.47 413.807 162.195 409.446 159.541C405.085 156.887 399.85 156.072 394.889 157.274H394.891Z" fill="#EAAC0C"/>
<path d="M403.583 181.088C403.544 180.69 403.433 180.302 403.255 179.943C403.083 179.611 402.836 179.324 402.534 179.103C402.171 178.839 401.771 178.629 401.348 178.478C400.787 178.278 400.213 178.118 399.629 178.001C398.473 177.745 397.416 177.46 396.458 177.145C395.573 176.863 394.731 176.461 393.955 175.951C393.258 175.489 392.665 174.885 392.217 174.178C391.328 172.635 391.084 170.804 391.538 169.082C391.763 168.314 392.146 167.603 392.662 166.992C393.214 166.351 393.875 165.814 394.615 165.404C395.454 164.941 396.359 164.608 397.298 164.417L396.89 161.042L399.604 160.715L400.02 164.135C400.952 164.134 401.877 164.286 402.759 164.586C403.575 164.858 404.328 165.292 404.973 165.861C405.618 166.43 406.142 167.123 406.514 167.899C406.939 168.777 407.212 169.721 407.319 170.691L402.413 171.284C402.261 170.032 401.867 169.123 401.23 168.556C400.909 168.279 400.531 168.076 400.124 167.961C399.716 167.846 399.288 167.822 398.869 167.891C398.42 167.934 397.983 168.061 397.579 168.264C397.252 168.429 396.967 168.666 396.742 168.956C396.534 169.234 396.39 169.554 396.321 169.894C396.249 170.26 396.237 170.635 396.284 171.005C396.323 171.364 396.424 171.713 396.581 172.038C396.747 172.356 396.984 172.631 397.273 172.843C397.639 173.108 398.041 173.318 398.467 173.468C399.055 173.68 399.654 173.859 400.262 174.004C401.41 174.279 402.46 174.579 403.411 174.903C404.294 175.191 405.134 175.597 405.908 176.11C406.643 176.593 407.259 177.237 407.708 177.993C408.158 178.749 408.429 179.598 408.502 180.474C408.621 181.328 408.559 182.197 408.322 183.025C408.096 183.789 407.708 184.495 407.185 185.096C406.629 185.731 405.961 186.257 405.213 186.649C404.364 187.097 403.455 187.422 402.515 187.615L402.896 190.753L400.197 191.078L399.819 187.958C398.878 187.979 397.939 187.883 397.021 187.674C396.128 187.476 395.28 187.112 394.521 186.601C393.746 186.063 393.097 185.364 392.619 184.551C392.065 183.576 391.723 182.495 391.616 181.378L396.52 180.783C396.576 181.422 396.758 182.044 397.056 182.612C397.292 183.051 397.63 183.427 398.041 183.709C398.423 183.965 398.857 184.131 399.312 184.195C399.772 184.262 400.24 184.267 400.702 184.211C401.178 184.163 401.643 184.036 402.078 183.835C402.434 183.671 402.754 183.437 403.017 183.146C403.257 182.879 403.431 182.559 403.524 182.212C403.619 181.846 403.64 181.463 403.583 181.088Z" fill="#EAAC0C"/>
<path d="M533.111 131.955C541.658 123.408 541.658 109.551 533.111 101.003C524.564 92.4563 510.706 92.4563 502.159 101.003C493.612 109.551 493.612 123.408 502.159 131.955C510.706 140.502 524.564 140.502 533.111 131.955Z" fill="#FFD84F"/>
<path d="M518.427 136.662C513.818 136.842 509.288 135.419 505.61 132.635C501.933 129.851 499.334 125.878 498.257 121.392C497.18 116.907 497.692 112.187 499.705 108.036C501.719 103.886 505.109 100.562 509.298 98.6308C513.487 96.6996 518.216 96.2807 522.679 97.4453C527.143 98.61 531.064 101.286 533.776 105.018C536.487 108.75 537.821 113.306 537.549 117.911C537.278 122.516 535.418 126.884 532.287 130.272C530.514 132.2 528.376 133.758 525.997 134.855C523.618 135.952 521.045 136.566 518.427 136.662ZM516.911 98.0018C513.206 98.1474 509.626 99.3886 506.626 101.568C503.626 103.748 501.34 106.769 500.056 110.248C498.772 113.727 498.549 117.509 499.415 121.115C500.281 124.721 502.197 127.99 504.92 130.507C507.643 133.024 511.052 134.677 514.715 135.257C518.377 135.838 522.13 135.318 525.498 133.766C528.866 132.213 531.697 129.697 533.635 126.535C535.573 123.372 536.529 119.707 536.383 116.001C536.181 111.035 534.018 106.351 530.368 102.977C526.718 99.6029 521.879 97.8138 516.911 98.0018Z" fill="#EAAC0C"/>
<path d="M520.613 122.412C520.652 122.024 520.621 121.633 520.522 121.256C520.417 120.906 520.233 120.584 519.986 120.315C519.689 119.993 519.347 119.716 518.972 119.491C518.475 119.191 517.958 118.927 517.424 118.7C516.446 118.273 515.491 117.797 514.562 117.273C513.777 116.835 513.055 116.294 512.416 115.663C511.841 115.086 511.392 114.395 511.099 113.635C510.549 111.989 510.669 110.193 511.434 108.635C511.797 107.946 512.3 107.341 512.912 106.859C513.561 106.353 514.295 105.967 515.079 105.719C515.969 105.439 516.896 105.295 517.829 105.293L518.097 101.993L520.753 102.203L520.484 105.548C521.375 105.727 522.229 106.051 523.014 106.508C523.741 106.925 524.377 107.484 524.884 108.152C525.391 108.819 525.758 109.582 525.965 110.395C526.198 111.314 526.273 112.267 526.185 113.211L521.388 112.833C521.485 111.599 521.284 110.655 520.785 110C520.532 109.674 520.21 109.407 519.843 109.218C519.475 109.029 519.071 108.924 518.658 108.909C518.22 108.866 517.779 108.902 517.354 109.016C517.011 109.112 516.693 109.282 516.423 109.515C516.173 109.737 515.974 110.012 515.841 110.32C515.701 110.654 515.616 111.009 515.589 111.371C515.557 111.722 515.586 112.076 515.675 112.417C515.771 112.753 515.944 113.061 516.179 113.319C516.478 113.641 516.822 113.919 517.201 114.142C517.72 114.457 518.258 114.741 518.811 114.993C519.855 115.477 520.799 115.965 521.643 116.457C522.43 116.903 523.151 117.453 523.789 118.093C524.399 118.696 524.863 119.43 525.146 120.238C525.429 121.047 525.524 121.91 525.423 122.761C525.371 123.598 525.145 124.415 524.758 125.159C524.394 125.844 523.888 126.444 523.274 126.919C522.62 127.415 521.881 127.788 521.093 128.019C520.196 128.282 519.266 128.418 518.33 128.421L518.089 131.487L515.45 131.28L515.691 128.228C514.789 128.067 513.91 127.797 513.073 127.423C512.259 127.06 511.521 126.547 510.897 125.91C510.261 125.248 509.777 124.456 509.478 123.587C509.135 122.551 509.017 121.454 509.13 120.368L513.926 120.749C513.859 121.371 513.914 122 514.089 122.6C514.233 123.064 514.482 123.487 514.819 123.837C515.135 124.154 515.518 124.396 515.94 124.545C516.367 124.697 516.811 124.792 517.263 124.826C517.726 124.873 518.194 124.842 518.647 124.735C519.02 124.648 519.371 124.485 519.68 124.258C519.959 124.048 520.185 123.778 520.342 123.466C520.502 123.137 520.594 122.778 520.613 122.412Z" fill="#EAAC0C"/>
<path d="M464.885 156.16C464.832 153.175 465.666 150.242 467.28 147.731C468.895 145.22 471.218 143.244 473.955 142.053C476.693 140.862 479.722 140.51 482.66 141.04C485.597 141.571 488.312 142.961 490.46 145.034C492.608 147.107 494.092 149.771 494.727 152.688C495.361 155.605 495.116 158.645 494.022 161.423C492.929 164.2 491.036 166.592 488.584 168.294C486.132 169.996 483.23 170.933 480.245 170.986C478.263 171.021 476.293 170.666 474.448 169.94C472.604 169.214 470.92 168.131 469.494 166.755C468.068 165.378 466.926 163.734 466.136 161.916C465.345 160.098 464.92 158.142 464.885 156.16Z" fill="#FFD84F"/>
<path d="M480.223 169.822C477.042 169.877 473.94 168.828 471.446 166.853C468.952 164.878 467.219 162.099 466.544 158.99C465.869 155.881 466.292 152.634 467.743 149.802C469.193 146.97 471.58 144.729 474.498 143.46C477.415 142.191 480.683 141.972 483.743 142.842C486.803 143.712 489.468 145.615 491.282 148.229C493.096 150.843 493.948 154.005 493.692 157.176C493.437 160.347 492.09 163.332 489.88 165.621C488.628 166.925 487.13 167.968 485.473 168.689C483.815 169.41 482.031 169.795 480.223 169.822ZM479.751 143.14C477.194 143.185 474.708 143.987 472.608 145.446C470.507 146.904 468.885 148.952 467.948 151.331C467.011 153.71 466.801 156.314 467.343 158.813C467.886 161.312 469.157 163.594 470.996 165.371C472.836 167.148 475.16 168.339 477.677 168.795C480.193 169.251 482.788 168.95 485.133 167.931C487.479 166.912 489.47 165.221 490.854 163.071C492.239 160.921 492.954 158.409 492.911 155.852C492.849 152.422 491.429 149.157 488.961 146.773C486.494 144.39 483.181 143.083 479.751 143.14Z" fill="#EAAC0C"/>
<path d="M481.946 160.028C481.978 159.759 481.962 159.487 481.897 159.224C481.834 158.98 481.714 158.755 481.549 158.566C481.35 158.339 481.12 158.142 480.864 157.982C480.526 157.768 480.173 157.578 479.808 157.413C479.139 157.105 478.487 156.762 477.855 156.386C477.316 156.071 476.824 155.685 476.39 155.237C476.002 154.831 475.703 154.348 475.513 153.818C475.157 152.676 475.267 151.439 475.819 150.377C476.078 149.906 476.433 149.496 476.862 149.172C477.318 148.834 477.83 148.579 478.375 148.419C478.993 148.239 479.634 148.154 480.277 148.166L480.505 145.894L482.334 146.08L482.101 148.381C482.712 148.519 483.296 148.756 483.831 149.081C484.325 149.38 484.755 149.775 485.093 150.243C485.432 150.71 485.673 151.241 485.803 151.804C485.95 152.442 485.987 153.101 485.913 153.751L482.611 153.438C482.697 152.587 482.571 151.935 482.235 151.474C482.066 151.245 481.849 151.056 481.598 150.921C481.348 150.786 481.071 150.707 480.787 150.691C480.485 150.654 480.18 150.672 479.885 150.744C479.647 150.806 479.426 150.92 479.236 151.077C479.058 151.228 478.916 151.417 478.82 151.63C478.72 151.859 478.657 152.102 478.633 152.351C478.606 152.592 478.62 152.836 478.676 153.073C478.738 153.306 478.853 153.521 479.011 153.703C479.213 153.929 479.446 154.125 479.703 154.285C480.057 154.51 480.423 154.714 480.8 154.897C481.515 155.254 482.159 155.605 482.731 155.948C483.268 156.268 483.758 156.657 484.191 157.107C484.602 157.532 484.91 158.045 485.093 158.607C485.276 159.169 485.329 159.765 485.248 160.35C485.2 160.927 485.032 161.487 484.754 161.995C484.493 162.462 484.136 162.868 483.705 163.186C483.247 163.52 482.732 163.766 482.184 163.913C481.561 164.081 480.917 164.16 480.272 164.149L480.06 166.26L478.244 166.077L478.456 163.977C477.839 163.846 477.241 163.64 476.674 163.363C476.118 163.102 475.615 162.737 475.194 162.29C474.768 161.827 474.446 161.278 474.249 160.68C474.029 159.96 473.964 159.201 474.059 158.454L477.361 158.786C477.305 159.214 477.334 159.649 477.447 160.066C477.539 160.387 477.704 160.681 477.93 160.927C478.144 161.151 478.405 161.324 478.694 161.434C478.986 161.546 479.291 161.618 479.601 161.649C479.92 161.687 480.242 161.673 480.556 161.606C480.815 161.551 481.059 161.444 481.275 161.292C481.472 161.153 481.632 160.969 481.744 160.755C481.86 160.529 481.928 160.282 481.946 160.028Z" fill="#EAAC0C"/>
<path d="M438.787 134.72C459.084 133.34 474.419 115.767 473.039 95.4704C471.659 75.1735 454.086 59.8384 433.789 61.2186C413.492 62.5987 398.157 80.1714 399.538 100.468C400.918 120.765 418.49 136.1 438.787 134.72Z" fill="#FFD84F"/>
<path d="M446.971 130.258C439.601 132.699 431.612 132.509 424.365 129.719C417.119 126.93 411.065 121.714 407.233 114.961C403.401 108.208 402.029 100.335 403.352 92.6843C404.674 85.0332 408.608 78.0774 414.484 73.0019C420.36 67.9264 427.814 65.0453 435.576 64.8495C443.338 64.6538 450.927 67.1555 457.052 71.9283C463.176 76.7012 467.456 83.4499 469.162 91.0245C470.868 98.5992 469.895 106.531 466.409 113.469C464.44 117.414 461.709 120.929 458.372 123.811C455.036 126.693 451.161 128.885 446.971 130.258ZM426.512 68.4409C420.587 70.4031 415.376 74.0783 411.54 79.0018C407.703 83.9253 405.413 89.8759 404.958 96.1011C404.503 102.326 405.905 108.547 408.985 113.975C412.066 119.404 416.687 123.797 422.264 126.6C427.842 129.402 434.125 130.488 440.319 129.719C446.513 128.951 452.341 126.363 457.064 122.282C461.788 118.202 465.195 112.812 466.855 106.795C468.516 100.778 468.355 94.4043 466.393 88.4789C463.753 80.5389 458.072 73.9699 450.596 70.2133C443.119 66.4568 434.458 65.8193 426.512 68.4409Z" fill="#EAAC0C"/>
<path d="M443.87 106.194C443.75 105.549 443.517 104.931 443.181 104.367C442.853 103.849 442.412 103.413 441.891 103.09C441.263 102.707 440.582 102.417 439.871 102.229C438.927 101.975 437.966 101.79 436.995 101.674C435.217 101.438 433.451 101.112 431.706 100.698C430.223 100.356 428.793 99.8148 427.456 99.0881C426.256 98.4245 425.208 97.5171 424.38 96.4244C423.498 95.1933 422.901 93.7812 422.633 92.2907C422.339 90.938 422.326 89.5391 422.596 88.1812C422.86 86.8976 423.391 85.6838 424.154 84.6189C424.971 83.4986 425.98 82.5322 427.135 81.7647C428.441 80.8972 429.872 80.2333 431.378 79.7958L430.268 74.3289L434.662 73.433L435.791 78.9669C437.314 78.8417 438.847 78.9677 440.33 79.3398C441.698 79.678 442.984 80.2872 444.112 81.1313C445.241 81.9754 446.188 83.0373 446.899 84.2541C447.704 85.6336 448.269 87.1404 448.567 88.7096L440.633 90.3191C440.214 88.2804 439.449 86.8498 438.337 86.0272C437.224 85.2045 435.909 84.947 434.391 85.2546C433.663 85.3861 432.965 85.6507 432.333 86.0352C431.821 86.3492 431.384 86.7735 431.056 87.2772C430.752 87.7584 430.56 88.3022 430.496 88.8679C430.424 89.4737 430.452 90.0872 430.579 90.6839C430.691 91.2666 430.902 91.8256 431.204 92.3363C431.516 92.8334 431.939 93.2512 432.441 93.5568C433.073 93.9401 433.758 94.2301 434.474 94.4179C435.461 94.6835 436.464 94.8904 437.475 95.0376C439.389 95.338 441.143 95.6885 442.738 96.0891C444.22 96.4429 445.646 96.9951 446.979 97.7308C448.247 98.4207 449.341 99.3905 450.177 100.566C451.014 101.742 451.572 103.094 451.808 104.517C452.113 105.896 452.127 107.323 451.848 108.707C451.578 109.985 451.04 111.192 450.268 112.246C449.442 113.355 448.419 114.302 447.25 115.041C445.918 115.886 444.473 116.538 442.958 116.977L443.994 122.053L439.63 122.946L438.597 117.898C437.063 118.054 435.515 118.023 433.988 117.804C432.501 117.595 431.067 117.108 429.761 116.369C428.425 115.593 427.272 114.537 426.384 113.273C425.425 111.946 424.737 110.262 424.321 108.222L432.255 106.599C432.435 107.637 432.818 108.628 433.382 109.518C433.827 110.203 434.428 110.772 435.136 111.178C435.795 111.545 436.529 111.759 437.282 111.803C438.042 111.851 438.806 111.798 439.552 111.645C440.323 111.5 441.066 111.228 441.749 110.84C442.31 110.526 442.802 110.1 443.195 109.59C443.549 109.12 443.791 108.575 443.9 107.997C444.008 107.4 443.998 106.787 443.87 106.194Z" fill="#EAAC0C"/>
<path d="M290.908 87.8594C287.595 88.6856 284.435 89.4689 281.479 89.9812C271.906 91.6175 264.51 90.2682 261.321 77.5051C258.131 64.7419 264.027 60.069 273.244 57.0164C276.093 56.0721 279.253 55.2808 282.563 54.4546C289.639 52.6869 297.472 53.4675 303.712 55.5276C309.846 57.5421 314.442 60.7879 315.246 64.0444C316.174 67.757 313.637 72.7812 309.152 77.3334C304.586 81.9526 297.985 86.0916 290.908 87.8594Z" fill="#378AD6"/>
<path d="M273.244 57.0137L262.372 49.9132L245.204 53.5721L263.035 66.0992L273.244 57.0137Z" fill="#1074AB"/>
<path d="M281.453 89.8766L275.194 101.256L258.324 106.1L268.172 86.6603L281.453 89.8766Z" fill="#1074AB"/>
<path d="M281.479 89.9812C271.906 91.6175 264.51 90.2682 261.321 77.505C258.131 64.7419 264.027 60.069 273.244 57.0164L281.479 89.9812Z" fill="#1074AB"/>
<path d="M238.97 83.0871C238.97 83.0871 243.748 71.9522 252.114 73.6663C260.647 75.4153 259.572 84.6108 253.169 85.4558C246.766 86.3007 242.704 82.1536 238.97 83.0871Z" fill="#1074AB"/>
<path d="M289.859 61.3485C291.443 60.9531 293.108 61.0361 294.644 61.587C296.18 62.1378 297.518 63.1318 298.489 64.4432C299.461 65.7546 300.021 67.3246 300.1 68.9546C300.179 70.5846 299.773 72.2014 298.933 73.6006C298.093 74.9997 296.857 76.1185 295.382 76.8152C293.906 77.512 292.257 77.7556 290.643 77.5151C289.029 77.2747 287.522 76.561 286.314 75.4644C285.105 74.3677 284.249 72.9373 283.853 71.3541C283.591 70.3028 283.538 69.21 283.697 68.1381C283.857 67.0663 284.226 66.0364 284.784 65.1073C285.342 64.1782 286.077 63.368 286.948 62.7231C287.819 62.0781 288.808 61.6111 289.859 61.3485V61.3485Z" fill="#801FBC"/>
<path d="M291.852 78.1569C289.611 78.1638 287.451 77.3151 285.813 75.7841C284.175 74.253 283.184 72.1549 283.04 69.9177C282.896 67.6804 283.611 65.4726 285.039 63.7446C286.467 62.0165 288.501 60.8984 290.725 60.6182C292.95 60.3381 295.197 60.9171 297.009 62.237C298.821 63.557 300.061 65.5185 300.477 67.7216C300.892 69.9246 300.452 72.2031 299.245 74.0924C298.038 75.9817 296.156 77.3394 293.982 77.8886C293.286 78.0645 292.571 78.1546 291.852 78.1569ZM291.852 61.6517C290.249 61.6519 288.686 62.1526 287.38 63.0839C286.075 64.0152 285.093 65.3306 284.571 66.8468C284.05 68.3629 284.014 70.0041 284.47 71.5414C284.925 73.0787 285.849 74.4355 287.113 75.4225C288.377 76.4095 289.917 76.9774 291.519 77.0471C293.121 77.1168 294.704 76.6848 296.049 75.8113C297.394 74.9378 298.432 73.6664 299.019 72.1745C299.607 70.6825 299.714 69.0445 299.326 67.4887C298.913 65.8197 297.953 64.3373 296.598 63.279C295.243 62.2207 293.572 61.6477 291.852 61.6517Z" fill="#8AC4EA"/>
<path d="M309.157 77.3226L303.712 55.5276C309.846 57.5421 314.442 60.7879 315.246 64.0444C316.18 67.7462 313.653 72.7705 309.157 77.3226Z" fill="#1074AB"/>
<path d="M555.901 197.062C555.901 197.062 572.573 214.348 573.361 220.856C574.15 227.364 565.376 237.519 565.376 237.519L555.901 197.062Z" fill="#977620"/>
<path d="M548.369 376.216C548.369 376.216 547.778 385.385 546.005 385.514C545.769 385.53 537.006 385.514 537.006 385.514L525.82 385.425C525.82 385.425 525.9 382.743 529.17 382.166C532.44 381.589 537.918 379.317 539.9 375.001C542.003 370.449 548.369 376.216 548.369 376.216Z" fill="#B17F33"/>
<path d="M573.284 376.27C573.284 376.27 572.693 385.439 570.92 385.568C570.684 385.584 561.921 385.568 561.921 385.568L550.735 385.479C550.735 385.479 550.815 382.797 554.085 382.22C557.355 381.643 562.835 379.371 564.815 375.055C566.918 370.511 573.284 376.27 573.284 376.27Z" fill="#87550A"/>
<path d="M536.193 277.636C536.193 277.636 539.079 296.354 549.919 329.593C560.759 362.831 562.218 377.217 562.218 377.217L573.925 376.914C573.925 376.914 574.104 340.615 569.112 323.9C564.12 307.186 568.147 263.687 568.147 263.687L536.193 277.636Z" fill="#093269"/>
<path d="M530.525 264.62C530.525 264.62 530.047 292.816 534.852 327.449C539.656 362.083 537.969 376.772 537.969 376.772L549.654 377.185C549.654 377.185 556.711 342.581 554.75 325.234C552.789 307.886 564.439 265.795 564.439 265.795L530.525 264.62Z" fill="#2E6AC1"/>
<path d="M553.286 198.688L547.052 202.755L538.06 201.059C538.186 200.332 538.784 197.325 539.332 194.6C539.366 194.439 539.399 194.278 539.431 194.12C539.898 191.802 540.303 189.809 540.303 189.809L548.715 186.121L551.851 184.745C551.851 184.793 551.601 187.317 551.569 187.695C550.979 194.233 553.286 198.688 553.286 198.688Z" fill="#FFD4AD"/>
<path d="M540.372 196.601C540.547 196.526 551.215 193.404 552.371 193.79C553.527 194.176 554.208 196.416 554.208 196.416L536.772 200.319C536.772 200.319 538.143 197.532 540.372 196.601Z" fill="#977620"/>
<path d="M568.922 268.185C567.098 276.426 537.025 277.338 529.288 269.838C528.408 268.982 528.374 265.009 528.72 259.666C529.393 249.204 531.515 233.496 531.614 225.462C531.703 221.615 532.141 217.784 532.92 214.016C533.849 209.359 535.133 204.78 536.762 200.319C536.762 200.319 551.462 195.603 554.198 196.416C567.441 200.335 570.749 259.948 568.922 268.185Z" fill="#B8902A"/>
<path d="M528.714 259.663C529.388 249.202 531.509 233.493 531.609 225.459C531.698 221.612 532.135 217.781 532.915 214.013L541.767 212.473C541.767 212.473 550.322 247.78 528.714 259.663Z" fill="#977620"/>
<path d="M533.543 245.108C533.543 245.108 534.141 246.549 532.875 247.522C531.609 248.496 530.785 250.049 531.072 251.195C531.359 252.34 534.13 254.213 535.096 253.915C536.062 253.617 538.02 252.112 537.811 251.501C537.601 250.889 539.152 246.205 536.797 244.395C534.441 242.584 533.543 245.108 533.543 245.108Z" fill="#FFD4AD"/>
<path d="M543.516 198.219C543.516 198.219 534.895 199.812 528.009 209.917C521.123 220.022 516.587 227.533 517.842 231.181C519.098 234.829 530.603 247.504 532.596 247.509C534.589 247.514 537.792 246.074 537.98 242.823C537.98 242.823 529.889 230.639 531.493 228.82C532.177 228.045 542.049 220.065 543.449 223.683C545.759 229.665 543.516 198.219 543.516 198.219Z" fill="#B8902A"/>
<path d="M550.936 187.803C549.085 190.922 542.202 193.61 539.332 194.6C539.366 194.439 539.399 194.278 539.431 194.12C539.898 191.802 540.303 189.809 540.303 189.809L548.715 186.121C550.571 186.099 551.7 186.518 550.936 187.803Z" fill="#FCBF86"/>
<path d="M537.137 189.291C537.137 189.291 550.662 193.543 553.181 185.077C555.7 176.611 559.142 171.461 550.611 168.39C542.081 165.318 539.433 168.046 537.907 170.667C536.381 173.288 533.682 187.966 537.137 189.291Z" fill="#FFD4AD"/>
<path d="M538.441 169.852C538.441 169.852 539.28 179.71 541.322 179.286C543.363 178.862 545.209 178.551 544.906 181.52C544.603 184.49 541.767 187.915 548.047 188.455C554.326 188.994 563.393 172.813 561.674 169.742C556.714 160.882 531.268 159.039 538.441 169.852Z" fill="#093269"/>
<path d="M456.87 322.468H456.105V328.747H456.87V322.468Z" fill="#D4BC15"/>
<path d="M451.529 280.42C451.529 280.42 447.996 285.393 444.758 285.461C441.521 285.528 436.593 283.156 436.593 283.156C436.593 283.156 433.621 276.531 435.635 273.937C436.326 273.69 437.069 273.623 437.792 273.742C438.516 273.861 439.198 274.161 439.774 274.615C440.18 274.92 440.547 275.272 440.869 275.664C441.307 276.211 441.9 276.613 442.57 276.818C444.879 277.52 447.623 275.868 448.648 277.464C449.151 278.242 449.752 278.952 450.435 279.578C450.775 279.889 451.141 280.171 451.529 280.42Z" fill="#FFF1F9"/>
<path d="M405.476 316.293C405.476 316.293 417.963 286.037 440.437 285.461C440.437 285.461 461.183 287.767 462.334 316.293H405.476Z" fill="#FFF1F9"/>
<path d="M434.291 286.386C434.291 286.386 443.299 288.39 446.078 287.212C446.078 287.212 446.499 283.457 442.704 283.972C440.107 284.334 438.412 283.087 437.422 282.58C436.003 281.863 433.905 284.809 434.291 286.386Z" fill="#B58845"/>
<path d="M442.119 280.707C441.542 281.139 439.774 274.615 439.774 274.615C440.18 274.92 440.547 275.272 440.869 275.664C441.307 276.211 441.9 276.613 442.57 276.818C442.575 277.008 442.68 280.286 442.119 280.707Z" fill="#B0CDE2"/>
<path d="M450.435 279.578C450.308 279.653 446.143 282.148 445.577 282.148C445.011 282.148 448.648 277.464 448.648 277.464C449.151 278.242 449.751 278.952 450.435 279.578Z" fill="#B0CDE2"/>
<path d="M417.674 307.84C417.443 307.642 426.51 294.49 429.007 294.393C431.504 294.297 437.116 297.274 441.177 297.66C445.239 298.047 449.176 296.891 449.946 299.291C450.716 301.692 452.827 310.206 451.529 311.569C450.231 312.932 422.66 312.1 417.674 307.84Z" fill="#C0DDED"/>
<path opacity="0.5" d="M426.215 353.507C426.215 353.523 426.215 353.539 426.215 353.552C426.097 355.656 425.759 357.742 425.206 359.776C425.125 360.071 425.042 360.363 424.954 360.656C424.387 362.518 423.644 364.323 422.735 366.045C421.576 368.247 420.157 370.303 418.51 372.169C418.468 372.22 418.419 372.273 418.374 372.322C416.229 374.719 413.739 376.784 410.986 378.448C410.387 378.806 409.775 379.152 409.149 379.486C408.725 379.708 408.298 379.921 407.869 380.125C407.459 380.361 407.027 380.565 406.619 380.814C405.279 381.587 403.842 382.179 402.346 382.574V379.838C402.346 379.814 402.346 379.79 402.346 379.768C402.346 379.747 402.346 379.677 402.346 379.634C402.356 379.583 402.37 379.533 402.386 379.484C402.478 379.187 402.664 378.928 402.916 378.745C403.168 378.563 403.473 378.467 403.784 378.472H396.592C396.281 378.476 395.977 378.379 395.725 378.196C395.474 378.013 395.289 377.753 395.197 377.456C395.18 377.408 395.166 377.358 395.157 377.308C395.15 377.264 395.145 377.219 395.144 377.174C395.142 377.151 395.142 377.128 395.144 377.104V373.558C395.142 373.535 395.142 373.512 395.144 373.488C395.145 373.444 395.15 373.399 395.157 373.354C395.166 373.304 395.18 373.255 395.197 373.207C395.289 372.91 395.474 372.65 395.726 372.467C395.977 372.285 396.281 372.188 396.592 372.193H399.419C399.223 372.099 399.052 371.96 398.919 371.787C398.786 371.615 398.696 371.414 398.655 371.2C398.655 371.171 398.655 371.141 398.655 371.112C398.653 371.091 398.653 371.071 398.655 371.05C398.653 371.027 398.653 371.004 398.655 370.98V367.434C398.654 367.411 398.654 367.388 398.655 367.364C398.656 367.32 398.662 367.276 398.671 367.233C398.68 367.183 398.692 367.134 398.708 367.085C398.8 366.787 398.985 366.527 399.237 366.344C399.49 366.16 399.794 366.064 400.106 366.069H401.716C401.404 366.073 401.1 365.977 400.848 365.794C400.597 365.611 400.41 365.352 400.318 365.055C400.302 365.006 400.288 364.955 400.278 364.905C400.278 364.862 400.278 364.816 400.278 364.773V361.061C400.307 360.73 400.45 360.421 400.684 360.186C400.918 359.951 401.227 359.806 401.557 359.776H396.737C396.376 359.785 396.025 359.656 395.755 359.415C395.485 359.174 395.318 358.84 395.286 358.48C395.284 358.456 395.284 358.432 395.286 358.408V354.864C395.284 354.84 395.284 354.816 395.286 354.792C395.284 354.773 395.284 354.754 395.286 354.735C395.322 354.441 395.451 354.166 395.653 353.95C395.856 353.734 396.121 353.587 396.412 353.531C396.104 353.501 395.813 353.37 395.586 353.159C395.358 352.949 395.206 352.669 395.152 352.364C395.149 352.325 395.149 352.285 395.152 352.246C395.15 352.222 395.15 352.198 395.152 352.174V348.641C395.15 348.617 395.15 348.592 395.152 348.568C395.153 348.524 395.158 348.48 395.165 348.437C395.175 348.386 395.188 348.336 395.205 348.287C395.297 347.99 395.483 347.731 395.734 347.548C395.986 347.365 396.289 347.269 396.6 347.273H399.419C399.223 347.179 399.052 347.041 398.919 346.869C398.786 346.697 398.696 346.496 398.655 346.283C398.655 346.253 398.655 346.224 398.655 346.194C398.654 346.174 398.654 346.153 398.655 346.133C398.653 346.109 398.653 346.084 398.655 346.06V342.517C398.654 342.493 398.654 342.468 398.655 342.444C398.656 342.4 398.662 342.356 398.671 342.313C398.679 342.263 398.692 342.215 398.708 342.168C398.799 341.869 398.985 341.608 399.237 341.425C399.489 341.241 399.794 341.144 400.106 341.149H405.6C405.288 341.153 404.984 341.056 404.732 340.873C404.48 340.689 404.294 340.43 404.202 340.132C404.202 340.086 404.175 340.035 404.165 339.987C404.162 339.942 404.162 339.898 404.165 339.853C404.163 339.83 404.163 339.806 404.165 339.783V336.237C404.163 336.214 404.163 336.191 404.165 336.167C404.192 335.837 404.336 335.527 404.569 335.292C404.803 335.057 405.111 334.912 405.441 334.882H396.737C396.5 334.884 396.266 334.828 396.055 334.72C395.844 334.612 395.662 334.455 395.524 334.263V334.236L396.436 328.667V328.638L397.735 320.692C399.238 320.893 400.727 321.193 402.19 321.591L402.445 321.661H402.464C403.313 321.897 404.153 322.165 404.983 322.465H405.004C408.836 323.853 412.381 325.934 415.461 328.603C415.514 328.648 415.57 328.697 415.621 328.748C417.239 330.166 418.706 331.746 420.002 333.463C420.27 333.809 420.517 334.158 420.764 334.515C420.844 334.633 420.927 334.751 421.005 334.872C421.402 335.456 421.778 336.057 422.137 336.674C422.965 338.103 423.676 339.595 424.264 341.138C425.023 343.116 425.57 345.169 425.895 347.262C425.895 347.316 425.911 347.367 425.919 347.418C426.224 349.432 426.323 351.472 426.215 353.507Z" fill="#EAAC0C"/>
<path d="M472.849 379.838V383.384C472.849 383.661 472.755 383.93 472.581 384.146C472.381 384.386 472.115 384.564 471.817 384.656C471.72 384.69 471.62 384.715 471.519 384.728C471.424 384.743 471.328 384.75 471.232 384.749H403.98C403.175 384.749 402.488 384.242 402.37 383.588C402.37 383.542 402.37 383.499 402.37 383.454C402.37 383.408 402.37 383.405 402.37 383.384V379.838C402.37 379.814 402.37 379.79 402.37 379.768C402.37 379.747 402.37 379.677 402.37 379.634C402.491 378.977 403.175 378.472 403.98 378.472H471.234C471.33 378.472 471.426 378.478 471.521 378.491C471.623 378.507 471.722 378.531 471.819 378.564C472.117 378.657 472.383 378.834 472.584 379.073C472.756 379.291 472.85 379.56 472.849 379.838Z" fill="#F7C74D"/>
<path d="M439.823 384.736H403.792C403.481 384.741 403.177 384.645 402.925 384.463C402.673 384.28 402.487 384.021 402.394 383.725C402.378 383.674 402.365 383.625 402.354 383.574C402.343 383.523 402.354 383.486 402.354 383.44C402.354 383.395 402.354 383.392 402.354 383.371V379.838C402.354 379.814 402.354 379.789 402.354 379.768C402.354 379.747 402.354 379.677 402.354 379.634C402.365 379.583 402.378 379.533 402.394 379.484C402.486 379.187 402.673 378.927 402.925 378.745C403.177 378.563 403.481 378.467 403.792 378.472H435.399C436.075 381.023 437.645 383.246 439.823 384.736Z" fill="#FFD84F"/>
<path d="M464.665 378.456H463.901V384.736H464.665V378.456Z" fill="#EAAC0C"/>
<path d="M462.076 378.456H461.312V384.736H462.076V378.456Z" fill="#EAAC0C"/>
<path d="M458.976 378.456H458.211V384.736H458.976V378.456Z" fill="#EAAC0C"/>
<path d="M454.219 378.456H453.455V384.736H454.219V378.456Z" fill="#EAAC0C"/>
<path d="M449.19 378.456H448.425V384.736H449.19V378.456Z" fill="#EAAC0C"/>
<path d="M441.48 378.456H440.716V384.736H441.48V378.456Z" fill="#EAAC0C"/>
<path d="M434.259 378.456H433.495V384.736H434.259V378.456Z" fill="#EAAC0C"/>
<path d="M427.813 378.456H427.049V384.736H427.813V378.456Z" fill="#EAAC0C"/>
<path d="M467.128 378.456H466.363V384.736H467.128V378.456Z" fill="#EAAC0C"/>
<path d="M468.753 378.456H467.989V384.736H468.753V378.456Z" fill="#EAAC0C"/>
<path d="M470.325 378.456H469.561V384.736H470.325V378.456Z" fill="#EAAC0C"/>
<path d="M471.508 378.48V384.715C471.413 384.728 471.317 384.736 471.221 384.736H470.744V378.456H471.221C471.317 378.456 471.413 378.464 471.508 378.48Z" fill="#EAAC0C"/>
<path d="M472.57 379.06V384.13C472.37 384.371 472.105 384.549 471.806 384.642V378.55C472.105 378.642 472.37 378.819 472.57 379.06Z" fill="#EAAC0C"/>
<path d="M465.658 373.545V377.091C465.657 377.369 465.563 377.638 465.389 377.855C465.343 377.913 465.291 377.967 465.236 378.016C465.06 378.176 464.852 378.295 464.625 378.365C464.528 378.397 464.428 378.42 464.327 378.435C464.233 378.45 464.138 378.458 464.043 378.459H396.774C395.97 378.459 395.286 377.949 395.165 377.295C395.158 377.25 395.153 377.206 395.152 377.161C395.15 377.137 395.15 377.114 395.152 377.091V373.545C395.15 373.521 395.15 373.498 395.152 373.475C395.153 373.43 395.158 373.385 395.165 373.341C395.286 372.686 395.97 372.179 396.774 372.179H464.032C464.074 372.177 464.116 372.177 464.158 372.179H464.214C464.234 372.177 464.254 372.177 464.273 372.179H464.316C464.417 372.194 464.517 372.217 464.614 372.249L464.778 372.311L464.882 372.362L464.941 372.397L464.998 372.429C465.067 372.471 465.133 372.519 465.193 372.574L465.25 372.627L465.285 372.659C465.285 372.659 465.285 372.659 465.301 372.678H465.317L465.376 372.748C465.562 372.971 465.662 373.254 465.658 373.545Z" fill="#F7C74D"/>
<path d="M432.631 378.459H396.6C396.289 378.463 395.985 378.366 395.734 378.183C395.482 377.999 395.297 377.74 395.205 377.442C395.188 377.394 395.174 377.345 395.165 377.295C395.158 377.25 395.153 377.206 395.152 377.161C395.15 377.137 395.15 377.114 395.152 377.091V373.545C395.15 373.522 395.15 373.498 395.152 373.475C395.153 373.43 395.158 373.385 395.165 373.341C395.174 373.291 395.188 373.241 395.205 373.193C395.297 372.896 395.482 372.637 395.734 372.454C395.985 372.271 396.289 372.175 396.6 372.179H428.208C428.208 372.23 428.234 372.281 428.251 372.332C428.944 374.826 430.495 376.996 432.631 378.459Z" fill="#FFD84F"/>
<path d="M457.473 372.179H456.709V378.459H457.473V372.179Z" fill="#EAAC0C"/>
<path d="M454.887 372.179H454.123V378.459H454.887V372.179Z" fill="#EAAC0C"/>
<path d="M451.784 372.179H451.019V378.459H451.784V372.179Z" fill="#EAAC0C"/>
<path d="M447.028 372.179H446.263V378.459H447.028V372.179Z" fill="#EAAC0C"/>
<path d="M441.998 372.179H441.234V378.459H441.998V372.179Z" fill="#EAAC0C"/>
<path d="M434.289 372.179H433.524V378.459H434.289V372.179Z" fill="#EAAC0C"/>
<path d="M427.07 372.179H426.306V378.459H427.07V372.179Z" fill="#EAAC0C"/>
<path d="M420.624 372.179H419.86V378.459H420.624V372.179Z" fill="#EAAC0C"/>
<path d="M459.936 372.179H459.171V378.459H459.936V372.179Z" fill="#EAAC0C"/>
<path d="M461.564 372.179H460.8V378.459H461.564V372.179Z" fill="#EAAC0C"/>
<path d="M463.136 372.179H462.372V378.459H463.136V372.179Z" fill="#EAAC0C"/>
<path d="M464.316 372.201V378.435C464.221 378.449 464.125 378.456 464.029 378.456H463.552V372.179H464.029C464.125 372.18 464.221 372.187 464.316 372.201Z" fill="#EAAC0C"/>
<path d="M465.379 372.783V377.853C465.179 378.094 464.913 378.272 464.614 378.365V372.271C464.913 372.363 465.179 372.541 465.379 372.783Z" fill="#EAAC0C"/>
<path d="M469.131 367.421V370.967C469.132 371.245 469.038 371.515 468.863 371.731C468.663 371.971 468.399 372.147 468.101 372.241C468.003 372.273 467.903 372.297 467.801 372.313C467.707 372.325 467.612 372.332 467.516 372.332H400.248C399.991 372.332 399.736 372.28 399.5 372.179C399.288 372.094 399.099 371.96 398.95 371.787C398.801 371.615 398.695 371.409 398.641 371.187C398.641 371.157 398.641 371.128 398.641 371.098C398.64 371.078 398.64 371.057 398.641 371.037C398.64 371.013 398.64 370.99 398.641 370.967V367.421C398.64 367.397 398.64 367.374 398.641 367.351C398.643 367.307 398.648 367.263 398.658 367.219C398.776 366.562 399.462 366.055 400.267 366.055H467.525C467.62 366.056 467.715 366.063 467.809 366.077C467.911 366.09 468.012 366.113 468.109 366.146C468.407 366.241 468.671 366.419 468.871 366.659C469.043 366.875 469.135 367.144 469.131 367.421Z" fill="#F7C74D"/>
<path d="M436.107 372.327H400.077C399.844 372.327 399.615 372.275 399.406 372.174C399.21 372.08 399.039 371.941 398.906 371.769C398.773 371.596 398.682 371.395 398.641 371.182C398.641 371.152 398.641 371.123 398.641 371.093C398.64 371.072 398.64 371.052 398.641 371.031C398.64 371.008 398.64 370.985 398.641 370.962V367.415C398.64 367.392 398.64 367.369 398.641 367.346C398.643 367.301 398.648 367.257 398.658 367.214C398.666 367.164 398.679 367.115 398.695 367.067C398.786 366.769 398.972 366.508 399.224 366.325C399.476 366.142 399.781 366.045 400.093 366.05H431.698C432.349 368.516 433.836 370.681 435.904 372.174C435.957 372.23 436.032 372.284 436.107 372.327Z" fill="#FFD84F"/>
<path d="M460.95 366.055H460.185V372.335H460.95V366.055Z" fill="#EAAC0C"/>
<path d="M458.361 366.055H457.597V372.335H458.361V366.055Z" fill="#EAAC0C"/>
<path d="M455.258 366.055H454.493V372.335H455.258V366.055Z" fill="#EAAC0C"/>
<path d="M450.502 366.055H449.737V372.335H450.502V366.055Z" fill="#EAAC0C"/>
<path d="M445.472 366.055H444.708V372.335H445.472V366.055Z" fill="#EAAC0C"/>
<path d="M437.763 366.055H436.998V372.335H437.763V366.055Z" fill="#EAAC0C"/>
<path d="M430.544 366.055H429.78V372.335H430.544V366.055Z" fill="#EAAC0C"/>
<path d="M424.098 366.055H423.334V372.335H424.098V366.055Z" fill="#EAAC0C"/>
<path d="M463.412 366.055H462.648V372.335H463.412V366.055Z" fill="#EAAC0C"/>
<path d="M465.038 366.055H464.273V372.335H465.038V366.055Z" fill="#EAAC0C"/>
<path d="M466.61 366.055H465.845V372.335H466.61V366.055Z" fill="#EAAC0C"/>
<path d="M467.793 366.077V372.311C467.698 372.326 467.602 372.333 467.506 372.332H467.018V366.055H467.495C467.595 366.055 467.694 366.062 467.793 366.077Z" fill="#EAAC0C"/>
<path d="M468.852 366.659V371.731C468.652 371.971 468.388 372.147 468.091 372.241V366.157C468.388 366.247 468.652 366.422 468.852 366.659Z" fill="#EAAC0C"/>
<path d="M470.744 361.144V364.687C470.745 364.965 470.65 365.235 470.475 365.452C470.452 365.481 470.427 365.509 470.4 365.535C470.268 365.676 470.111 365.791 469.936 365.873C469.863 365.908 469.788 365.939 469.711 365.964C469.614 365.996 469.514 366.019 469.413 366.034L469.274 366.05H469.126H401.86C401.056 366.05 400.369 365.543 400.251 364.886C400.251 364.843 400.251 364.797 400.251 364.754V361.061C400.294 360.395 400.905 359.853 401.683 359.776C401.748 359.776 401.812 359.776 401.877 359.776H469.131C469.181 359.773 469.23 359.773 469.279 359.776C469.326 359.778 469.372 359.784 469.418 359.792C469.52 359.805 469.619 359.829 469.716 359.862C470.015 359.954 470.281 360.131 470.481 360.371C470.656 360.59 470.749 360.863 470.744 361.144Z" fill="#F7C74D"/>
<path d="M437.717 366.055H401.686C401.375 366.06 401.071 365.963 400.819 365.78C400.567 365.598 400.381 365.338 400.289 365.041C400.272 364.992 400.259 364.942 400.248 364.891C400.248 364.848 400.248 364.803 400.248 364.76V361.061C400.277 360.73 400.421 360.421 400.655 360.186C400.889 359.951 401.198 359.806 401.528 359.776C401.584 359.776 401.641 359.776 401.7 359.776H433.307C433.977 362.33 435.542 364.558 437.717 366.055Z" fill="#FFD84F"/>
<path d="M462.559 359.776H461.795V366.055H462.559V359.776Z" fill="#EAAC0C"/>
<path d="M459.973 359.776H459.209V366.055H459.973V359.776Z" fill="#EAAC0C"/>
<path d="M456.87 359.776H456.105V366.055H456.87V359.776Z" fill="#EAAC0C"/>
<path d="M452.114 359.776H451.349V366.055H452.114V359.776Z" fill="#EAAC0C"/>
<path d="M447.084 359.776H446.32V366.055H447.084V359.776Z" fill="#EAAC0C"/>
<path d="M439.375 359.776H438.61V366.055H439.375V359.776Z" fill="#EAAC0C"/>
<path d="M432.156 359.776H431.392V366.055H432.156V359.776Z" fill="#EAAC0C"/>
<path d="M425.71 359.776H424.946V366.055H425.71V359.776Z" fill="#EAAC0C"/>
<path d="M465.022 359.776H464.257V366.055H465.022V359.776Z" fill="#EAAC0C"/>
<path d="M466.65 359.776H465.885V366.055H466.65V359.776Z" fill="#EAAC0C"/>
<path d="M468.222 359.776H467.458V366.055H468.222V359.776Z" fill="#EAAC0C"/>
<path d="M469.402 359.797V366.034C469.307 366.048 469.211 366.055 469.115 366.055H468.627V359.776H469.104C469.204 359.775 469.304 359.783 469.402 359.797Z" fill="#EAAC0C"/>
<path d="M470.464 360.379V365.452C470.265 365.692 469.999 365.87 469.7 365.962V359.867C469.999 359.961 470.264 360.139 470.464 360.379Z" fill="#EAAC0C"/>
<path d="M465.797 354.875V358.418C465.799 358.696 465.704 358.965 465.529 359.18C465.33 359.423 465.064 359.602 464.764 359.695C464.667 359.726 464.567 359.748 464.467 359.762C464.435 359.765 464.404 359.765 464.373 359.762H464.324H396.917C396.05 359.762 395.337 359.185 395.291 358.467C395.29 358.442 395.29 358.418 395.291 358.394V354.851C395.29 354.826 395.29 354.802 395.291 354.778C395.29 354.759 395.29 354.741 395.291 354.722C395.345 354.42 395.491 354.143 395.71 353.929C395.929 353.714 396.209 353.573 396.512 353.525C396.528 353.524 396.544 353.524 396.56 353.525C396.676 353.503 396.793 353.491 396.911 353.491H464.166H464.311H464.373C464.398 353.488 464.423 353.488 464.448 353.491C464.549 353.505 464.648 353.527 464.746 353.558C465.045 353.651 465.311 353.83 465.51 354.073C465.701 354.296 465.804 354.581 465.797 354.875Z" fill="#F7C74D"/>
<path d="M432.773 359.786H396.737C396.376 359.795 396.025 359.666 395.755 359.426C395.485 359.185 395.318 358.851 395.286 358.491C395.284 358.467 395.284 358.442 395.286 358.418V354.875C395.284 354.851 395.284 354.826 395.286 354.802C395.284 354.784 395.284 354.765 395.286 354.746C395.322 354.452 395.451 354.177 395.653 353.961C395.856 353.744 396.121 353.598 396.412 353.542C396.433 353.539 396.454 353.539 396.474 353.542C396.562 353.525 396.652 353.516 396.742 353.517H428.347L428.361 353.563C429.038 356.095 430.597 358.302 432.757 359.786H432.773Z" fill="#FFD84F"/>
<path d="M457.615 353.507H456.851V359.786H457.615V353.507Z" fill="#EAAC0C"/>
<path d="M455.027 353.507H454.262V359.786H455.027V353.507Z" fill="#EAAC0C"/>
<path d="M451.926 353.507H451.161V359.786H451.926V353.507Z" fill="#EAAC0C"/>
<path d="M447.17 353.507H446.406V359.786H447.17V353.507Z" fill="#EAAC0C"/>
<path d="M442.14 353.507H441.376V359.786H442.14V353.507Z" fill="#EAAC0C"/>
<path d="M434.428 353.507H433.664V359.786H434.428V353.507Z" fill="#EAAC0C"/>
<path d="M427.21 353.507H426.445V359.786H427.21V353.507Z" fill="#EAAC0C"/>
<path d="M460.078 353.507H459.313V359.786H460.078V353.507Z" fill="#EAAC0C"/>
<path d="M461.706 353.507H460.942V359.786H461.706V353.507Z" fill="#EAAC0C"/>
<path d="M463.276 353.507H462.511V359.786H463.276V353.507Z" fill="#EAAC0C"/>
<path d="M464.458 353.528V359.765C464.363 359.779 464.268 359.786 464.171 359.786H463.694V353.507H464.171C464.268 353.507 464.363 353.514 464.458 353.528Z" fill="#EAAC0C"/>
<path d="M465.521 354.11V359.183C465.32 359.423 465.055 359.601 464.756 359.695V353.601C465.055 353.693 465.321 353.87 465.521 354.11Z" fill="#EAAC0C"/>
<path d="M465.658 348.641V352.184C465.658 352.462 465.563 352.732 465.389 352.949C465.342 353.007 465.291 353.061 465.236 353.112C465.06 353.271 464.851 353.39 464.625 353.461C464.549 353.485 464.472 353.505 464.394 353.52H464.332C464.238 353.534 464.143 353.541 464.048 353.542H396.774C396.705 353.546 396.635 353.546 396.565 353.542H396.485C396.172 353.51 395.876 353.381 395.639 353.174C395.402 352.967 395.236 352.691 395.162 352.385C395.16 352.346 395.16 352.307 395.162 352.267C395.161 352.243 395.161 352.219 395.162 352.195V348.641C395.161 348.617 395.161 348.592 395.162 348.568C395.164 348.524 395.169 348.48 395.176 348.437C395.296 347.782 395.98 347.273 396.785 347.273H464.043H464.169H464.225H464.284C464.298 347.27 464.313 347.27 464.327 347.273C464.428 347.286 464.528 347.309 464.625 347.342L464.788 347.404C464.991 347.493 465.173 347.621 465.325 347.782L465.384 347.852C465.565 348.074 465.662 348.354 465.658 348.641Z" fill="#F7C74D"/>
<path d="M432.631 353.55H396.517C396.485 353.55 396.453 353.55 396.423 353.55C396.114 353.519 395.824 353.389 395.596 353.178C395.369 352.968 395.216 352.688 395.162 352.383C395.16 352.344 395.16 352.304 395.162 352.265C395.161 352.241 395.161 352.216 395.162 352.192V348.641C395.161 348.617 395.161 348.592 395.162 348.568C395.164 348.524 395.169 348.48 395.176 348.437C395.185 348.386 395.199 348.336 395.216 348.287C395.308 347.99 395.493 347.731 395.745 347.548C395.996 347.365 396.3 347.269 396.611 347.273H428.218C428.218 347.326 428.245 347.377 428.261 347.428C428.947 349.896 430.474 352.046 432.577 353.507L432.631 353.55Z" fill="#FFD84F"/>
<path d="M457.473 347.273H456.709V353.552H457.473V347.273Z" fill="#EAAC0C"/>
<path d="M454.887 347.273H454.123V353.552H454.887V347.273Z" fill="#EAAC0C"/>
<path d="M451.784 347.273H451.019V353.552H451.784V347.273Z" fill="#EAAC0C"/>
<path d="M447.028 347.273H446.263V353.552H447.028V347.273Z" fill="#EAAC0C"/>
<path d="M441.998 347.273H441.234V353.552H441.998V347.273Z" fill="#EAAC0C"/>
<path d="M434.289 347.273H433.524V353.552H434.289V347.273Z" fill="#EAAC0C"/>
<path d="M427.07 347.273H426.306V353.552H427.07V347.273Z" fill="#EAAC0C"/>
<path d="M459.936 347.273H459.171V353.552H459.936V347.273Z" fill="#EAAC0C"/>
<path d="M461.564 347.273H460.8V353.552H461.564V347.273Z" fill="#EAAC0C"/>
<path d="M463.136 347.273H462.372V353.552H463.136V347.273Z" fill="#EAAC0C"/>
<path d="M464.316 347.297V353.531C464.221 353.545 464.125 353.552 464.029 353.552H463.552V347.273H464.029C464.125 347.273 464.221 347.281 464.316 347.297Z" fill="#EAAC0C"/>
<path d="M465.379 347.876V352.949C465.179 353.19 464.913 353.368 464.614 353.461V347.38C464.911 347.468 465.177 347.641 465.379 347.876Z" fill="#EAAC0C"/>
<path d="M469.131 342.517V346.06C469.133 346.338 469.038 346.609 468.863 346.825C468.664 347.066 468.4 347.244 468.101 347.337C468.003 347.368 467.903 347.391 467.801 347.407C467.707 347.421 467.612 347.428 467.516 347.428H400.248C399.991 347.429 399.736 347.376 399.5 347.273C399.288 347.188 399.1 347.054 398.95 346.882C398.801 346.71 398.695 346.504 398.641 346.283C398.641 346.253 398.641 346.224 398.641 346.194C398.64 346.174 398.64 346.153 398.641 346.133C398.64 346.108 398.64 346.084 398.641 346.06V342.517C398.64 342.492 398.64 342.468 398.641 342.444C398.643 342.4 398.648 342.356 398.658 342.313C398.776 341.658 399.462 341.149 400.267 341.149H467.525C467.62 341.148 467.715 341.156 467.809 341.173C467.911 341.186 468.012 341.209 468.109 341.242C468.408 341.334 468.673 341.512 468.871 341.755C469.043 341.971 469.135 342.24 469.131 342.517Z" fill="#F7C74D"/>
<path d="M436.107 347.428H400.077C399.844 347.429 399.614 347.376 399.406 347.273C399.21 347.179 399.039 347.041 398.906 346.869C398.773 346.697 398.682 346.496 398.641 346.283C398.641 346.253 398.641 346.224 398.641 346.194C398.64 346.174 398.64 346.153 398.641 346.133C398.64 346.108 398.64 346.084 398.641 346.06V342.517C398.64 342.493 398.64 342.468 398.641 342.444C398.643 342.4 398.648 342.356 398.658 342.313C398.666 342.263 398.678 342.215 398.695 342.168C398.786 341.869 398.971 341.608 399.223 341.425C399.476 341.241 399.781 341.144 400.093 341.149H431.697C432.347 343.615 433.833 345.78 435.901 347.273C435.957 347.326 436.032 347.38 436.107 347.428Z" fill="#FFD84F"/>
<path d="M460.95 341.151H460.185V347.431H460.95V341.151Z" fill="#EAAC0C"/>
<path d="M458.361 341.151H457.597V347.431H458.361V341.151Z" fill="#EAAC0C"/>
<path d="M455.258 341.151H454.493V347.431H455.258V341.151Z" fill="#EAAC0C"/>
<path d="M450.502 341.151H449.737V347.431H450.502V341.151Z" fill="#EAAC0C"/>
<path d="M445.472 341.151H444.708V347.431H445.472V341.151Z" fill="#EAAC0C"/>
<path d="M437.763 341.151H436.998V347.431H437.763V341.151Z" fill="#EAAC0C"/>
<path d="M430.544 341.151H429.78V347.431H430.544V341.151Z" fill="#EAAC0C"/>
<path d="M463.412 341.151H462.648V347.431H463.412V341.151Z" fill="#EAAC0C"/>
<path d="M465.038 341.151H464.273V347.431H465.038V341.151Z" fill="#EAAC0C"/>
<path d="M466.61 341.151H465.845V347.431H466.61V341.151Z" fill="#EAAC0C"/>
<path d="M467.793 341.173V347.407C467.698 347.421 467.602 347.428 467.506 347.428H467.018V341.149H467.495C467.595 341.148 467.694 341.156 467.793 341.173Z" fill="#EAAC0C"/>
<path d="M468.852 341.747V346.819C468.654 347.06 468.389 347.238 468.091 347.332V341.237C468.389 341.33 468.653 341.507 468.852 341.747Z" fill="#EAAC0C"/>
<path d="M474.628 336.237V339.783C474.628 340.06 474.533 340.329 474.359 340.545L474.287 340.631C474.181 340.741 474.06 340.836 473.928 340.912C473.858 340.951 473.787 340.985 473.713 341.014C473.676 341.03 473.639 341.043 473.6 341.055C473.503 341.088 473.402 341.111 473.3 341.124C473.206 341.14 473.111 341.147 473.016 341.146H405.745C404.94 341.146 404.256 340.639 404.135 339.984C404.133 339.94 404.133 339.895 404.135 339.85C404.134 339.827 404.134 339.804 404.135 339.78V336.234C404.134 336.211 404.134 336.188 404.135 336.164C404.175 335.502 404.787 334.957 405.568 334.88C405.631 334.876 405.695 334.876 405.758 334.88H473.016C473.111 334.88 473.206 334.887 473.3 334.901C473.402 334.917 473.502 334.94 473.6 334.971C473.861 335.055 474.098 335.201 474.29 335.397L474.362 335.483C474.533 335.697 474.627 335.963 474.628 336.237Z" fill="#F7C74D"/>
<path d="M441.604 341.148H405.57C405.259 341.153 404.954 341.056 404.703 340.872C404.451 340.689 404.265 340.429 404.173 340.132C404.173 340.086 404.146 340.035 404.135 339.987C404.133 339.942 404.133 339.897 404.135 339.853C404.134 339.83 404.134 339.806 404.135 339.783V336.237C404.134 336.214 404.134 336.19 404.135 336.167C404.163 335.837 404.306 335.527 404.54 335.292C404.773 335.057 405.082 334.912 405.412 334.882C405.469 334.878 405.527 334.878 405.584 334.882H437.191C437.863 337.432 439.429 339.656 441.604 341.148Z" fill="#FFD84F"/>
<path d="M466.446 334.872H465.682V341.151H466.446V334.872Z" fill="#EAAC0C"/>
<path d="M463.858 334.872H463.093V341.151H463.858V334.872Z" fill="#EAAC0C"/>
<path d="M460.754 334.872H459.99V341.151H460.754V334.872Z" fill="#EAAC0C"/>
<path d="M455.998 334.872H455.233V341.151H455.998V334.872Z" fill="#EAAC0C"/>
<path d="M450.968 334.872H450.204V341.151H450.968V334.872Z" fill="#EAAC0C"/>
<path d="M443.259 334.872H442.494V341.151H443.259V334.872Z" fill="#EAAC0C"/>
<path d="M436.04 334.872H435.276V341.151H436.04V334.872Z" fill="#EAAC0C"/>
<path d="M429.594 334.872H428.83V341.151H429.594V334.872Z" fill="#EAAC0C"/>
<path d="M468.909 334.872H468.144V341.151H468.909V334.872Z" fill="#EAAC0C"/>
<path d="M470.534 334.872H469.77V341.151H470.534V334.872Z" fill="#EAAC0C"/>
<path d="M472.106 334.872H471.342V341.151H472.106V334.872Z" fill="#EAAC0C"/>
<path d="M473.289 334.893V341.127C473.194 341.141 473.098 341.148 473.002 341.149H472.525V334.872H473.002C473.098 334.872 473.194 334.879 473.289 334.893Z" fill="#EAAC0C"/>
<path d="M474.349 335.475V340.545C474.15 340.786 473.885 340.964 473.587 341.057V334.963C473.885 335.056 474.15 335.234 474.349 335.475Z" fill="#EAAC0C"/>
<path d="M465.797 329.971V333.514C465.799 333.792 465.704 334.061 465.529 334.276C465.255 334.595 464.873 334.802 464.456 334.858H464.362H464.3H396.917C396.651 334.864 396.388 334.809 396.148 334.696C395.907 334.582 395.697 334.415 395.533 334.206C395.392 334.018 395.308 333.794 395.291 333.56C395.29 333.537 395.29 333.513 395.291 333.49V329.971C395.29 329.947 395.29 329.922 395.291 329.898C395.329 329.597 395.461 329.315 395.668 329.093C395.875 328.871 396.147 328.72 396.445 328.662C396.599 328.621 396.757 328.602 396.917 328.603H464.247H464.29C464.343 328.605 464.395 328.611 464.448 328.619C464.549 328.634 464.648 328.657 464.746 328.689C464.792 328.703 464.838 328.721 464.882 328.742C465.056 328.812 465.215 328.912 465.354 329.037L465.373 329.056C465.5 329.169 465.602 329.308 465.672 329.464C465.742 329.619 465.778 329.787 465.778 329.957L465.797 329.971Z" fill="#F7C74D"/>
<path d="M432.773 334.882H396.737C396.5 334.884 396.266 334.828 396.055 334.72C395.844 334.612 395.662 334.455 395.524 334.263C395.382 334.064 395.3 333.828 395.286 333.584C395.284 333.561 395.284 333.538 395.286 333.514V329.971C395.284 329.947 395.284 329.922 395.286 329.898C395.311 329.588 395.438 329.296 395.648 329.066C395.858 328.837 396.138 328.684 396.445 328.632C396.541 328.613 396.639 328.603 396.737 328.603H428.342C428.355 328.651 428.371 328.699 428.385 328.748C429.075 331.239 430.622 333.407 432.752 334.872L432.773 334.882Z" fill="#FFD84F"/>
<path d="M457.615 328.603H456.851V334.882H457.615V328.603Z" fill="#EAAC0C"/>
<path d="M455.027 328.603H454.262V334.882H455.027V328.603Z" fill="#EAAC0C"/>
<path d="M451.926 328.603H451.161V334.882H451.926V328.603Z" fill="#EAAC0C"/>
<path d="M447.17 328.603H446.406V334.882H447.17V328.603Z" fill="#EAAC0C"/>
<path d="M442.14 328.603H441.376V334.882H442.14V328.603Z" fill="#EAAC0C"/>
<path d="M434.428 328.603H433.664V334.882H434.428V328.603Z" fill="#EAAC0C"/>
<path d="M427.21 328.603H426.445V334.882H427.21V328.603Z" fill="#EAAC0C"/>
<path d="M420.764 328.603H419.999V334.882H420.764V328.603Z" fill="#EAAC0C"/>
<path d="M460.078 328.603H459.313V334.882H460.078V328.603Z" fill="#EAAC0C"/>
<path d="M461.706 328.603H460.942V334.882H461.706V328.603Z" fill="#EAAC0C"/>
<path d="M463.276 328.603H462.511V334.882H463.276V328.603Z" fill="#EAAC0C"/>
<path d="M464.458 328.624V334.858C464.364 334.874 464.268 334.881 464.171 334.88H463.694V328.603H464.171C464.268 328.603 464.363 328.61 464.458 328.624Z" fill="#EAAC0C"/>
<path d="M465.521 329.206V334.276C465.321 334.517 465.055 334.695 464.756 334.788V328.694C465.055 328.787 465.321 328.965 465.521 329.206Z" fill="#EAAC0C"/>
<path d="M470.744 323.836V327.38C470.745 327.658 470.65 327.928 470.475 328.144C470.275 328.385 470.009 328.563 469.711 328.656C469.522 328.717 469.324 328.748 469.126 328.748H401.86C401.611 328.748 401.364 328.698 401.133 328.603C400.901 328.515 400.695 328.368 400.538 328.175C400.381 327.982 400.279 327.751 400.24 327.506C400.24 327.49 400.24 327.471 400.24 327.452V323.774C400.28 323.109 400.895 322.567 401.675 322.489C401.739 322.485 401.802 322.485 401.866 322.489H469.121C469.217 322.49 469.313 322.497 469.408 322.511C469.509 322.526 469.608 322.55 469.705 322.583C470.004 322.675 470.27 322.852 470.47 323.093C470.642 323.303 470.738 323.565 470.744 323.836Z" fill="#F7C74D"/>
<path d="M437.717 328.748H401.686C401.462 328.747 401.24 328.698 401.037 328.603C400.819 328.505 400.631 328.353 400.49 328.16C400.349 327.968 400.26 327.742 400.232 327.506C400.232 327.49 400.232 327.471 400.232 327.452V323.774C400.26 323.444 400.404 323.134 400.638 322.899C400.872 322.664 401.181 322.519 401.512 322.489C401.569 322.485 401.626 322.485 401.683 322.489H433.291C433.946 324.955 435.437 327.116 437.51 328.603L437.717 328.748Z" fill="#FFD84F"/>
<path d="M462.559 322.468H461.795V328.747H462.559V322.468Z" fill="#EAAC0C"/>
<path d="M459.973 322.468H459.209V328.747H459.973V322.468Z" fill="#EAAC0C"/>
<path d="M452.114 322.468H451.349V328.747H452.114V322.468Z" fill="#EAAC0C"/>
<path d="M447.084 322.468H446.32V328.747H447.084V322.468Z" fill="#EAAC0C"/>
<path d="M439.375 322.468H438.61V328.747H439.375V322.468Z" fill="#EAAC0C"/>
<path d="M432.156 322.468H431.392V328.747H432.156V322.468Z" fill="#EAAC0C"/>
<path d="M425.71 322.468H424.946V328.747H425.71V322.468Z" fill="#EAAC0C"/>
<path d="M465.022 322.468H464.257V328.747H465.022V322.468Z" fill="#EAAC0C"/>
<path d="M466.65 322.468H465.885V328.747H466.65V322.468Z" fill="#EAAC0C"/>
<path d="M468.222 322.468H467.458V328.747H468.222V322.468Z" fill="#EAAC0C"/>
<path d="M469.402 322.489V328.726C469.307 328.74 469.211 328.747 469.115 328.747H468.627V322.468H469.104C469.204 322.468 469.304 322.475 469.402 322.489Z" fill="#EAAC0C"/>
<path d="M470.464 323.071V328.144C470.265 328.385 469.999 328.562 469.7 328.654V322.559C469.999 322.653 470.264 322.831 470.464 323.071Z" fill="#EAAC0C"/>
<path d="M472.849 317.567V321.111C472.849 321.388 472.755 321.658 472.581 321.875C472.381 322.116 472.115 322.293 471.817 322.385C471.719 322.417 471.62 322.441 471.519 322.457H471.425H471.371H403.98C403.113 322.457 402.397 321.88 402.354 321.162C402.354 321.137 402.354 321.113 402.354 321.089V317.546C402.354 317.521 402.354 317.497 402.354 317.473C402.397 316.754 403.113 316.177 403.98 316.177H471.234C471.33 316.178 471.426 316.185 471.521 316.199C471.623 316.215 471.722 316.239 471.819 316.271C472.118 316.363 472.384 316.54 472.584 316.781C472.761 317.004 472.855 317.282 472.849 317.567Z" fill="#F7C74D"/>
<path d="M439.823 322.479H403.792C403.431 322.487 403.08 322.358 402.811 322.117C402.541 321.877 402.373 321.543 402.341 321.183C402.341 321.159 402.341 321.135 402.341 321.111V317.567C402.341 317.543 402.341 317.519 402.341 317.495C402.373 317.135 402.541 316.801 402.811 316.56C403.08 316.32 403.431 316.191 403.792 316.199H435.397C436.068 318.75 437.634 320.975 439.809 322.468L439.823 322.479Z" fill="#FFD84F"/>
<path d="M464.665 316.199H463.901V322.479H464.665V316.199Z" fill="#EAAC0C"/>
<path d="M462.076 316.199H461.312V322.479H462.076V316.199Z" fill="#EAAC0C"/>
<path d="M458.976 316.199H458.211V322.479H458.976V316.199Z" fill="#EAAC0C"/>
<path d="M454.219 316.199H453.455V322.479H454.219V316.199Z" fill="#EAAC0C"/>
<path d="M449.19 316.199H448.425V322.479H449.19V316.199Z" fill="#EAAC0C"/>
<path d="M441.48 316.199H440.716V322.479H441.48V316.199Z" fill="#EAAC0C"/>
<path d="M434.259 316.199H433.495V322.479H434.259V316.199Z" fill="#EAAC0C"/>
<path d="M427.813 316.199H427.049V322.479H427.813V316.199Z" fill="#EAAC0C"/>
<path d="M467.128 316.199H466.363V322.479H467.128V316.199Z" fill="#EAAC0C"/>
<path d="M468.756 316.199H467.991V322.479H468.756V316.199Z" fill="#EAAC0C"/>
<path d="M470.325 316.199H469.561V322.479H470.325V316.199Z" fill="#EAAC0C"/>
<path d="M471.508 316.22V322.457C471.413 322.471 471.317 322.478 471.221 322.479H470.744V316.199H471.221C471.317 316.199 471.413 316.206 471.508 316.22Z" fill="#EAAC0C"/>
<path d="M472.57 316.8V321.872C472.37 322.113 472.105 322.29 471.806 322.382V316.29C472.105 316.382 472.37 316.559 472.57 316.8Z" fill="#EAAC0C"/>
<path d="M361.741 365.238C358.583 359.508 357.194 352.97 357.751 346.452C358.308 339.933 360.786 333.726 364.871 328.615C368.955 323.504 374.464 319.719 380.699 317.739C386.935 315.759 393.618 315.673 399.903 317.49C406.188 319.308 411.793 322.949 416.008 327.952C420.224 332.955 422.862 339.096 423.587 345.598C424.313 352.101 423.095 358.672 420.086 364.482C417.077 370.291 412.413 375.078 406.683 378.237C399 382.472 389.948 383.482 381.52 381.045C373.092 378.607 365.977 372.921 361.741 365.238V365.238Z" fill="#F4CE5C"/>
<path d="M405.399 378.91C404.991 379.157 404.575 379.398 404.157 379.632L403.727 379.862C403.4 380.037 403.076 380.203 402.746 380.367C395.301 384.011 386.759 384.729 378.81 382.377C370.862 380.025 364.086 374.775 359.823 367.665C355.56 360.556 354.121 352.106 355.791 343.987C357.46 335.867 362.117 328.671 368.839 323.82C369.921 323.039 371.047 322.322 372.214 321.674C372.64 321.441 373.067 321.216 373.496 321.004C373.925 320.792 374.336 320.599 374.757 320.411C376.038 319.841 377.354 319.352 378.697 318.949C380.652 318.36 382.657 317.956 384.687 317.742C392.162 316.948 399.685 318.722 406.017 322.774C412.349 326.825 417.112 332.912 419.523 340.032C421.935 347.152 421.849 354.881 419.282 361.946C416.715 369.011 411.818 374.991 405.399 378.902V378.91Z" fill="#FFD84F"/>
<path d="M388.416 380.657C385.615 380.654 382.828 380.257 380.138 379.476C372.983 377.388 366.886 372.667 363.073 366.263C359.26 359.859 358.015 352.248 359.59 344.963C361.164 337.678 365.439 331.26 371.556 327.002C377.673 322.743 385.176 320.96 392.554 322.012C399.932 323.064 406.638 326.873 411.321 332.671C416.004 338.47 418.315 345.827 417.791 353.261C417.266 360.696 413.944 367.656 408.494 372.739C403.043 377.822 395.869 380.651 388.416 380.657ZM388.325 322.179C382.003 322.19 375.86 324.279 370.841 328.124C365.822 331.968 362.205 337.355 360.548 343.456C358.89 349.557 359.283 356.033 361.666 361.889C364.049 367.744 368.29 372.655 373.737 375.864C379.184 379.074 385.534 380.405 391.811 379.652C398.088 378.899 403.944 376.105 408.478 371.699C413.011 367.292 415.971 361.519 416.902 355.265C417.833 349.012 416.684 342.627 413.631 337.091C411.153 332.55 407.492 328.765 403.037 326.137C398.581 323.509 393.497 322.137 388.325 322.165V322.179Z" fill="#EAAC0C"/>
<path d="M402.952 353.891C402.885 353.73 402.818 353.572 402.745 353.416C402.278 352.335 401.596 351.36 400.739 350.551C399.826 349.721 398.751 349.088 397.582 348.692C396.281 348.259 394.927 348.005 393.558 347.938C392.079 347.847 390.47 347.826 388.73 347.874C387.812 347.911 386.893 347.893 385.977 347.82C385.315 347.773 384.663 347.63 384.041 347.397C383.548 347.208 383.105 346.908 382.748 346.519C382.398 346.123 382.119 345.669 381.924 345.178C381.714 344.672 381.588 344.134 381.551 343.587C381.517 343.077 381.597 342.566 381.785 342.091C381.993 341.593 382.308 341.147 382.707 340.784C383.203 340.342 383.774 339.994 384.395 339.757C385.684 339.235 386.889 339.246 388.008 339.792C389.127 340.337 390.039 341.477 390.741 343.212L397.48 340.476C396.96 339.139 396.214 337.901 395.275 336.817C394.448 335.859 393.437 335.077 392.302 334.517C391.167 333.958 389.931 333.631 388.668 333.558C387.299 333.471 385.925 333.611 384.601 333.973L382.691 329.274L378.963 330.787L380.84 335.422C379.583 336.058 378.428 336.88 377.415 337.86C376.526 338.728 375.799 339.747 375.269 340.87C374.764 341.934 374.49 343.092 374.464 344.269C374.487 346.889 375.54 349.394 377.396 351.243C378.307 352.074 379.381 352.703 380.551 353.091C381.852 353.517 383.206 353.762 384.574 353.818C386.183 353.9 387.794 353.9 389.403 353.818C390.278 353.76 391.157 353.767 392.032 353.837C392.691 353.885 393.34 354.029 393.958 354.264C394.468 354.465 394.927 354.778 395.299 355.181C395.689 355.621 395.996 356.128 396.206 356.678C396.419 357.188 396.528 357.735 396.528 358.287C396.528 358.815 396.405 359.336 396.168 359.808C395.904 360.323 395.539 360.779 395.095 361.15C394.555 361.603 393.944 361.965 393.287 362.223C392.653 362.48 391.987 362.652 391.307 362.735C390.636 362.819 389.954 362.751 389.312 362.536C388.62 362.292 387.996 361.889 387.49 361.359C386.845 360.667 386.345 359.854 386.018 358.966L379.279 361.702C379.858 363.249 380.762 364.654 381.93 365.822C382.919 366.794 384.109 367.538 385.417 368.001C386.691 368.44 388.037 368.634 389.384 368.572C390.769 368.517 392.141 368.291 393.47 367.899L395.21 372.191L398.918 370.683L397.169 366.375C398.429 365.736 399.594 364.924 400.629 363.961C401.474 363.176 402.18 362.254 402.716 361.233C402.756 361.155 402.796 361.074 402.834 360.994C403.34 359.936 403.614 358.783 403.639 357.611C403.672 356.337 403.438 355.07 402.952 353.891Z" fill="#EAAC0C"/>
<path d="M485.017 229.566C455.4 253.681 419.916 272.217 379.553 284.661C346.765 294.766 310.439 300.96 271.578 303.068C260.983 303.642 250.655 303.895 240.73 303.895C220.638 303.895 202.116 302.873 185.973 301.451L192.505 270.549C214.769 272.362 241.35 273.314 270.071 271.756C306.641 269.774 340.7 263.977 371.294 254.556C408.111 243.206 440.311 226.436 466.993 204.705L485.017 229.566Z" fill="#801FBC"/>
<path d="M485.017 229.566C455.4 253.681 419.916 272.217 379.553 284.661C346.765 294.766 310.439 300.96 271.578 303.068C260.983 303.642 250.655 303.895 240.73 303.895C220.638 303.895 202.116 302.873 185.973 301.451L192.505 270.549C214.769 272.362 241.35 273.314 270.071 271.756C306.641 269.774 340.7 263.977 371.294 254.556C408.111 243.206 440.311 226.436 466.993 204.705L485.017 229.566Z" fill="#801FBC"/>
<path d="M676.446 384.111H1.05693C0.519147 384.111 0.0831909 384.547 0.0831909 385.085V386.026C0.0831909 386.564 0.519147 387 1.05693 387H676.446C676.984 387 677.42 386.564 677.42 386.026V385.085C677.42 384.547 676.984 384.111 676.446 384.111Z" fill="#2883C4"/>
</svg>
