<svg width="649" height="348" viewBox="0 0 649 348" fill="none" xmlns="http://www.w3.org/2000/svg">
<path d="M620.247 292.588C612.352 249.814 575.334 211.52 531.848 210.678C515.693 210.365 498.65 214.769 483.904 208.168C472.998 203.286 465.427 193.198 455.719 186.243C440.906 175.619 421.623 172.785 403.498 174.711C385.373 176.638 368.029 182.912 350.897 189.14C324.54 158.221 283.307 140.602 242.746 142.923C202.185 145.243 163.233 167.455 140.585 201.18C95.5064 200.618 52.7038 236.278 45.1164 280.716C41.2259 303.518 46.8634 327.204 59.027 346.822H615.41C621.528 328.972 623.37 309.515 620.247 292.588Z" fill="#D0E5F3"/>
<path d="M569.85 347.256L569.346 346.379C579.539 340.501 588.878 331.652 597.102 320.076C604.895 309.114 611.381 295.954 615.86 282.022C624.767 254.306 627.909 224.756 630.899 196.146C607.108 203.414 584.703 222.491 569.349 248.601C553.826 274.995 545.705 308.255 547.069 339.836L546.057 339.881C544.685 308.113 552.858 274.656 568.481 248.09C584.104 221.523 607.031 202.141 631.342 194.962L632.068 194.747L631.989 195.5C628.968 224.395 625.847 254.278 616.828 282.335C612.317 296.362 605.784 309.624 597.935 320.666C589.62 332.359 580.171 341.306 569.85 347.256Z" fill="#69AED5"/>
<path d="M549.422 341.469L548.415 341.383C549.331 330.742 552.653 320.05 558.573 308.698C564.285 297.736 571.648 287.732 577.426 280.243C578.825 278.416 580.281 276.557 581.68 274.761C593.914 259.057 606.562 242.807 612.485 223.016L613.453 223.308C607.477 243.29 594.77 259.605 582.478 275.384C581.078 277.18 579.635 279.037 578.228 280.861C572.474 288.324 565.145 298.284 559.468 309.172C553.614 320.398 550.327 330.973 549.422 341.469Z" fill="#69AED5"/>
<path d="M576.178 289.206C574.785 289.207 573.394 289.115 572.015 288.929L572.15 287.926C578.198 288.74 584.589 287.692 590.632 284.893C596.814 281.985 602.182 277.595 606.259 272.114L607.069 272.72C602.891 278.337 597.39 282.833 591.054 285.81C586.401 288.008 581.324 289.167 576.178 289.206V289.206Z" fill="#69AED5"/>
<path d="M586.142 269.266C582.83 257.604 585.102 243.609 591.931 233.58L592.766 234.149C586.1 243.945 583.882 257.604 587.117 268.977L586.142 269.266Z" fill="#69AED5"/>
<path d="M604.426 347.382L604.069 346.435C615.538 342.104 625.871 333.25 633.166 321.506C639.357 311.539 643.548 299.376 645.626 285.341C632.907 285.911 620.189 291.035 610.64 299.45L609.97 298.692C619.839 289.99 633.043 284.747 646.193 284.306L646.797 284.285L646.711 284.882C644.644 299.31 640.374 311.812 634.02 322.04C626.615 333.973 616.102 342.971 604.426 347.382Z" fill="#69AED5"/>
<path d="M573.671 344.702L573.241 343.788C596.301 332.898 617.067 317.703 634.424 299.019L635.168 299.719C617.721 318.493 596.848 333.761 573.671 344.702V344.702Z" fill="#69AED5"/>
<path d="M485.339 348C476.475 344.672 468.394 338.458 461.977 330.04C456.071 322.285 451.663 312.859 449.23 302.781C444.414 282.841 446.695 261.571 449.209 243.203L449.321 242.38L450 242.847C466.154 254.166 482.855 265.87 494.969 282.015C508.46 299.994 513.253 321.13 507.798 338.554L506.832 338.253C512.197 321.137 507.467 300.341 494.169 282.622C482.323 266.831 465.984 255.279 450.11 244.153C447.651 262.241 445.519 283.06 450.224 302.534C452.624 312.477 456.969 321.774 462.793 329.417C469.091 337.693 477.021 343.79 485.705 347.053L485.339 348Z" fill="#69AED5"/>
<path d="M460.264 261.518L459.356 261.967L498.373 340.946L499.281 340.498L460.264 261.518Z" fill="#69AED5"/>
<path d="M480.576 306.949C475.191 306.893 469.91 305.47 465.226 302.813C460.543 300.155 456.612 296.351 453.802 291.758L454.672 291.24C457.446 295.778 461.351 299.518 466.005 302.094C470.658 304.67 475.901 305.993 481.22 305.934L481.243 306.947L480.576 306.949Z" fill="#69AED5"/>
<path d="M101.174 346.556C89.652 344.189 78.8808 338.458 69.1615 329.529C60.4195 321.494 52.9254 311.103 47.4862 299.509C36.9482 277.022 33.7248 252.125 30.6296 228.047L30.5223 227.215L31.3084 227.509C61.3035 238.735 82.2675 251.649 97.2791 268.151C116.466 289.246 124.585 316.93 118.467 340.406L117.49 340.151C123.521 317.002 115.491 289.675 96.5304 268.832C81.7614 252.596 61.1613 239.849 31.7399 228.752C34.8047 252.494 38.0538 276.996 48.4028 299.077C53.7861 310.564 61.2009 320.836 69.8473 328.785C79.4289 337.595 90.0369 343.247 101.377 345.579L101.174 346.556Z" fill="#69AED5"/>
<path d="M111.675 340.655C103.376 324.454 93.5704 309.07 82.3887 294.706C71.2078 280.347 58.7014 267.072 45.0347 255.055L45.7017 254.294C59.4173 266.357 71.9674 279.683 83.1864 294.097C94.4074 308.506 104.247 323.94 112.575 340.193L111.675 340.655Z" fill="#69AED5"/>
<path d="M76.0376 289.104C66.3317 285.709 56.8305 281.755 47.5818 277.262L48.0226 276.352C57.2404 280.829 66.7096 284.768 76.3828 288.15L76.0376 289.104Z" fill="#69AED5"/>
<path d="M93.9437 283.321L91.6803 305.799L92.6875 305.901L94.951 283.422L93.9437 283.321Z" fill="#69AED5"/>
<path d="M60.177 346.283C54.2479 346.283 48.1416 344.518 42.4201 341.14C36.7476 337.791 31.5953 332.977 27.5228 327.232C24.2737 322.644 20.7587 314.404 17.0502 302.755C14.3026 294.095 12.4809 286.678 12.4623 286.606L12.271 285.829L13.0547 285.99C14.1066 286.204 38.9284 291.354 47.808 299.329L47.1316 300.082C43.5537 296.873 36.5004 293.591 26.7321 290.592C20.838 288.782 15.5784 287.573 13.6401 287.149C14.8507 291.903 21.4305 316.885 28.3462 326.647C32.337 332.279 37.382 336.991 42.9333 340.27C48.9673 343.832 55.4328 345.549 61.6301 345.234L61.6814 346.244C61.1838 346.269 60.6823 346.282 60.177 346.283Z" fill="#69AED5"/>
<path d="M56.8649 333.579C46.8628 319.673 35.346 306.921 22.5267 295.56L23.1961 294.802C36.0723 306.215 47.6406 319.023 57.6883 332.991L56.8649 333.579Z" fill="#69AED5"/>
<path d="M184.601 347.706L183.941 346.939C196.885 335.792 205.952 320.819 209.832 304.184C213.713 287.548 212.206 270.109 205.53 254.385C196.9 255.904 188.55 260.235 181.324 266.922C174.56 273.182 168.962 281.274 165.134 290.323C157.904 307.411 156.523 326.56 155.651 346.318L154.641 346.274C155.518 326.42 156.908 307.173 164.204 289.929C168.087 280.749 173.767 272.536 180.636 266.18C188.116 259.255 196.802 254.807 205.754 253.319L206.146 253.254L206.302 253.618C213.17 269.568 214.77 287.293 210.869 304.215C206.967 321.137 197.768 336.373 184.61 347.706H184.601Z" fill="#69AED5"/>
<path d="M168.787 344.128L167.826 343.818C174.942 321.734 184.909 300.672 197.474 281.166L198.325 281.714C185.807 301.146 175.877 322.128 168.787 344.128V344.128Z" fill="#69AED5"/>
<path d="M183.705 306.277L183.129 305.445C189.55 301.008 196.862 298.027 204.555 296.712L204.723 297.708C197.177 299.001 190.004 301.926 183.705 306.277Z" fill="#69AED5"/>
<path d="M418.673 315.957C417.822 315.957 416.991 315.705 416.283 315.232C415.576 314.76 415.025 314.088 414.699 313.302C414.374 312.516 414.289 311.651 414.454 310.817C414.62 309.983 415.03 309.216 415.632 308.615C416.233 308.013 416.999 307.604 417.834 307.438C418.668 307.272 419.533 307.357 420.319 307.682C421.105 308.008 421.776 308.559 422.249 309.266C422.722 309.974 422.974 310.805 422.974 311.656C422.973 312.796 422.519 313.89 421.713 314.696C420.906 315.502 419.813 315.956 418.673 315.957V315.957ZM418.673 308.367C418.022 308.367 417.387 308.56 416.846 308.921C416.305 309.283 415.883 309.796 415.634 310.397C415.386 310.998 415.32 311.66 415.447 312.298C415.574 312.935 415.887 313.521 416.347 313.981C416.807 314.441 417.393 314.755 418.031 314.881C418.669 315.008 419.33 314.943 419.931 314.694C420.532 314.445 421.046 314.024 421.407 313.483C421.769 312.942 421.962 312.306 421.962 311.656C421.96 310.784 421.613 309.948 420.997 309.332C420.38 308.715 419.545 308.368 418.673 308.367V308.367Z" fill="#69AED5"/>
<path d="M588.148 192.508C587.297 192.51 586.464 192.259 585.756 191.788C585.047 191.316 584.495 190.645 584.168 189.859C583.841 189.074 583.754 188.208 583.919 187.374C584.084 186.539 584.493 185.771 585.094 185.169C585.695 184.566 586.462 184.156 587.296 183.989C588.131 183.822 588.996 183.907 589.782 184.232C590.569 184.558 591.241 185.109 591.714 185.816C592.187 186.524 592.44 187.356 592.44 188.207C592.438 189.346 591.986 190.437 591.182 191.244C590.378 192.05 589.287 192.504 588.148 192.508V192.508ZM588.148 184.918C587.498 184.918 586.862 185.111 586.321 185.472C585.78 185.834 585.358 186.347 585.11 186.948C584.861 187.549 584.796 188.211 584.922 188.848C585.049 189.486 585.363 190.072 585.823 190.532C586.282 190.992 586.868 191.306 587.506 191.432C588.144 191.559 588.806 191.494 589.407 191.245C590.007 190.996 590.521 190.575 590.882 190.034C591.244 189.493 591.437 188.857 591.437 188.207C591.435 187.335 591.089 186.499 590.472 185.883C589.856 185.266 589.02 184.919 588.148 184.918V184.918Z" fill="#69AED5"/>
<path d="M644.815 260.557C646.911 260.557 648.61 258.858 648.61 256.762C648.61 254.666 646.911 252.967 644.815 252.967C642.719 252.967 641.02 254.666 641.02 256.762C641.02 258.858 642.719 260.557 644.815 260.557Z" fill="#69AED5"/>
<path d="M36.9342 189.725C39.03 189.725 40.729 188.026 40.729 185.93C40.729 183.835 39.03 182.136 36.9342 182.136C34.8383 182.136 33.1393 183.835 33.1393 185.93C33.1393 188.026 34.8383 189.725 36.9342 189.725Z" fill="#69AED5"/>
<path d="M4.30102 256.256C3.45036 256.256 2.6188 256.004 1.9115 255.531C1.2042 255.058 0.652931 254.387 0.327397 253.601C0.00186356 252.815 -0.083311 251.95 0.0826448 251.116C0.248601 250.281 0.658233 249.515 1.25974 248.913C1.86125 248.312 2.62762 247.902 3.46193 247.736C4.29625 247.57 5.16104 247.656 5.94695 247.981C6.73286 248.307 7.40458 248.858 7.87719 249.565C8.34979 250.273 8.60204 251.104 8.60204 251.955C8.6008 253.095 8.14727 254.188 7.34094 254.995C6.53461 255.801 5.44134 256.255 4.30102 256.256V256.256ZM4.30102 248.666C3.65057 248.666 3.01473 248.859 2.47389 249.22C1.93306 249.582 1.51154 250.095 1.26262 250.696C1.0137 251.297 0.948576 251.958 1.07547 252.596C1.20237 253.234 1.51559 253.82 1.97553 254.28C2.43547 254.74 3.02147 255.053 3.65942 255.18C4.29737 255.307 4.95863 255.242 5.55957 254.993C6.16051 254.744 6.67414 254.323 7.03551 253.782C7.39688 253.241 7.58976 252.605 7.58976 251.955C7.58853 251.083 7.24164 250.247 6.62515 249.631C6.00866 249.014 5.17287 248.667 4.30102 248.666Z" fill="#69AED5"/>
<path d="M238.296 306.091C237.445 306.091 236.613 305.839 235.906 305.367C235.198 304.895 234.647 304.223 234.321 303.437C233.995 302.651 233.909 301.787 234.075 300.952C234.241 300.118 234.65 299.351 235.252 298.749C235.853 298.148 236.619 297.738 237.454 297.571C238.288 297.405 239.153 297.49 239.939 297.816C240.725 298.141 241.397 298.693 241.87 299.4C242.342 300.107 242.595 300.939 242.595 301.79C242.593 302.93 242.14 304.023 241.334 304.829C240.529 305.635 239.436 306.089 238.296 306.091V306.091ZM238.296 298.501C237.646 298.501 237.01 298.694 236.469 299.055C235.928 299.417 235.507 299.93 235.258 300.531C235.009 301.132 234.944 301.793 235.07 302.431C235.197 303.069 235.511 303.655 235.971 304.115C236.43 304.575 237.016 304.888 237.654 305.015C238.292 305.142 238.954 305.077 239.555 304.828C240.156 304.579 240.669 304.158 241.031 303.617C241.392 303.076 241.585 302.44 241.585 301.79C241.584 300.918 241.237 300.082 240.62 299.466C240.004 298.849 239.168 298.502 238.296 298.501V298.501Z" fill="#69AED5"/>
<path d="M366.305 247.656H278.272V346.82H366.305V247.656Z" fill="#76B2E0"/>
<path d="M367.063 347.578H277.511V246.896H367.063V347.578ZM279.03 346.059H365.545V248.405H279.03V346.059Z" fill="#8881DC"/>
<path opacity="0.2" d="M366.305 247.656H278.272V289.915H366.305V247.656Z" fill="#7569D6"/>
<path d="M338.863 296.777C348.017 287.623 348.017 272.781 338.863 263.627C329.708 254.473 314.866 254.473 305.712 263.627C296.558 272.781 296.558 287.623 305.712 296.777C314.866 305.932 329.708 305.932 338.863 296.777Z" fill="white"/>
<path d="M504.059 0.758026H140.513C136.218 0.758026 132.737 4.23962 132.737 8.53438V266.924C132.737 271.219 136.218 274.701 140.513 274.701H504.059C508.354 274.701 511.835 271.219 511.835 266.924V8.53438C511.835 4.23962 508.354 0.758026 504.059 0.758026Z" fill="#76B2E0"/>
<path d="M503.403 275.461H141.176C138.739 275.458 136.402 274.489 134.679 272.765C132.956 271.042 131.986 268.706 131.983 266.269V9.19215C131.986 6.75599 132.955 4.42043 134.677 2.69737C136.4 0.974311 138.735 0.00431966 141.171 0L503.399 0C505.836 0.00308594 508.172 0.972532 509.895 2.69573C511.618 4.41892 512.588 6.75518 512.591 9.19215V266.269C512.588 268.705 511.619 271.041 509.897 272.764C508.175 274.487 505.84 275.457 503.403 275.461ZM141.171 1.51842C139.136 1.52089 137.186 2.33016 135.747 3.76873C134.309 5.2073 133.5 7.1577 133.497 9.19215V266.269C133.499 268.304 134.308 270.254 135.747 271.693C137.185 273.132 139.136 273.941 141.171 273.943H503.399C505.433 273.941 507.384 273.132 508.823 271.693C510.262 270.254 511.071 268.304 511.072 266.269V9.19215C511.071 7.15752 510.262 5.20675 508.823 3.76805C507.384 2.32935 505.433 1.52027 503.399 1.51842H141.171Z" fill="#8881DC"/>
<path d="M504.955 10.419H139.62V235.385H504.955V10.419Z" fill="white"/>
<path d="M505.715 236.146H138.862V9.66562H505.715V236.146ZM140.378 234.627H504.197V11.1794H140.378V234.627Z" fill="#8881DC"/>
<path d="M360.369 30.1071H277.735V39.7658H360.369V30.1071Z" fill="#76B2E0"/>
<path d="M426.181 49.1982H211.918V52.8111H426.181V49.1982Z" fill="#76B2E0"/>
<path d="M467.4 157.309H384.731V160.922H467.4V157.309Z" fill="#8881DC"/>
<path d="M455.915 166.287H384.731V169.9H455.915V166.287Z" fill="#8881DC"/>
<path d="M429.631 175.264H384.731V178.877H429.631V175.264Z" fill="#8881DC"/>
<path d="M457.443 191.974H384.731V195.587H457.443V191.974Z" fill="#76B2E0"/>
<path d="M447.343 200.951H384.731V204.564H447.343V200.951Z" fill="#76B2E0"/>
<path d="M206.043 148.45H170.954V203.452H206.043V148.45Z" fill="#76B2E0"/>
<path d="M254.395 148.364H214.951V166.532H254.395V148.364Z" fill="#8881DC"/>
<path d="M254.395 175.385H214.951V203.526H254.395V175.385Z" fill="#76B2E0"/>
<path d="M355.569 203.923H282.533C281.037 203.921 279.603 203.326 278.545 202.268C277.488 201.211 276.893 199.777 276.891 198.281V161.596C276.893 160.1 277.488 158.666 278.545 157.609C279.603 156.551 281.037 155.956 282.533 155.954H355.569C357.065 155.956 358.499 156.551 359.556 157.609C360.614 158.666 361.209 160.1 361.211 161.596V198.281C361.209 199.777 360.614 201.211 359.556 202.268C358.499 203.326 357.065 203.921 355.569 203.923V203.923ZM282.533 156.838C281.271 156.839 280.061 157.341 279.169 158.233C278.277 159.125 277.774 160.334 277.773 161.596V198.281C277.774 199.543 278.277 200.752 279.169 201.645C280.061 202.537 281.271 203.039 282.533 203.041H355.569C356.831 203.039 358.041 202.537 358.933 201.645C359.825 200.752 360.327 199.543 360.329 198.281V161.596C360.327 160.334 359.825 159.125 358.933 158.233C358.04 157.341 356.83 156.839 355.569 156.838H282.533Z" fill="#8881DC"/>
<path d="M285.668 193.753L284.877 193.357L289.866 183.379L296.033 189.837L303.376 173.979L313.223 183.229L324.055 172.395L334.644 178.865L348.231 164.701L348.868 165.312L334.789 179.99L324.188 173.51L313.242 184.459L303.663 175.46L296.29 191.386L290.095 184.897L285.668 193.753Z" fill="#1074AB"/>
<path d="M331.185 191.715H322.798V196.13H331.185V191.715Z" fill="#8881DC"/>
<path d="M351.272 193.481H336.704V194.365H351.272V193.481Z" fill="#1074AB"/>
<path d="M351.977 96.9432C350.512 91.5163 347.73 86.5348 343.879 82.4404C340.028 78.3461 335.225 75.2655 329.898 73.4719L319.052 105.793L351.977 96.9432Z" fill="#76B2E0"/>
<path d="M319.052 105.802L303.959 136.378C309.84 139.278 316.432 140.421 322.945 139.671C329.459 138.92 335.619 136.308 340.686 132.146C345.753 127.985 349.513 122.451 351.515 116.208C353.518 109.964 353.678 103.275 351.977 96.9431L319.052 105.802Z" fill="#8881DC"/>
<path d="M329.898 73.4719C321.697 70.705 312.751 71.1606 304.873 74.7463C296.996 78.3319 290.777 84.7792 287.477 92.7808C284.178 100.782 284.045 109.739 287.106 117.835C290.166 125.931 296.191 132.56 303.959 136.378L319.052 105.802L329.898 73.4719Z" fill="#1074AB"/>
<path d="M236.687 129.744H188.662V133.357H236.687V129.744Z" fill="#76B2E0"/>
<path d="M254.835 121.835H170.513V73.087H254.835V121.835ZM171.395 120.951H253.951V73.971H171.395V120.951Z" fill="#8881DC"/>
<path d="M248.657 83.7346C245.858 83.1724 243.087 84.9941 241.317 87.2332C240.499 88.3152 239.759 89.454 239.103 90.6409C238.381 91.9649 237.575 93.2418 236.691 94.4638C234.956 96.7379 232.26 98.6388 229.44 98.2097C224.866 97.5099 222.363 91.231 217.736 91.3126C215.573 91.35 213.721 92.8451 212.25 94.4335C210.778 96.0218 209.432 97.8272 207.515 98.8301C204.837 100.23 201.53 99.7771 198.752 98.5852C195.974 97.3933 193.537 95.532 190.896 94.0579C186.445 91.6052 181.467 90.2648 176.386 90.1511V113.993H248.96V83.8092C248.871 83.7812 248.762 83.7509 248.657 83.7346Z" fill="#76B2E0"/>
<path d="M198.752 98.5806C201.53 99.7725 204.837 100.227 207.515 98.8255C209.432 97.8225 210.78 96.0266 212.25 94.4288C213.719 92.8311 215.573 91.3454 217.736 91.308C222.363 91.2264 224.866 97.5077 229.44 98.2051C232.262 98.6342 234.956 96.7333 236.691 94.4592C237.575 93.2394 238.381 91.9649 239.103 90.6433C236.29 90.7739 233.48 90.9115 231.045 89.6123C228.609 88.3132 227.033 85.7988 224.616 84.4926C220.28 82.1485 214.979 84.3853 210.659 86.7598C208.077 88.1802 205.196 89.7056 202.337 89.0036C199.102 88.2129 197.206 84.9171 194.512 82.9509C189.352 79.1887 181.604 81.015 177.196 85.6402C176.682 86.1759 176.395 86.8897 176.396 87.6321V90.1371C181.476 90.2509 186.454 91.5912 190.906 94.044C193.537 95.5274 195.974 97.3864 198.752 98.5806Z" fill="#8881DC"/>
<path d="M467.82 141.346H383.369V73.0053H467.82V141.346ZM384.386 140.345H466.815V74.0339H384.386V140.345Z" fill="#8881DC"/>
<path d="M406.169 101.489H397.338V131.216H406.169V101.489Z" fill="#8881DC"/>
<path d="M406.169 86.4799H397.338V101.489H406.169V86.4799Z" fill="#76B2E0"/>
<path d="M422.062 86.4799H413.231V108.773H422.062V86.4799Z" fill="#76B2E0"/>
<path d="M422.062 108.773H413.231V131.216H422.062V108.773Z" fill="#8881DC"/>
<path d="M437.955 96.3018H429.125V131.216H437.955V96.3018Z" fill="#8881DC"/>
<path d="M437.955 86.4799H429.125V96.3018H437.955V86.4799Z" fill="#76B2E0"/>
<path d="M453.848 109.326H445.018V131.216H453.848V109.326Z" fill="#8881DC"/>
<path d="M453.848 86.4799H445.018V109.326H453.848V86.4799Z" fill="#76B2E0"/>
<path d="M108.036 219.179L62.9059 205.884L72.919 171.901L118.049 185.196L108.036 219.179ZM64.1607 205.185L107.353 217.915L116.795 185.895L73.6024 173.163L64.1607 205.185Z" fill="#8881DC"/>
<path d="M642.284 346.059H9.86621V347.578H642.284V346.059Z" fill="#081A47"/>
<path d="M144.202 347L130.813 330.607L130.841 318.513L114.576 319.082L115.919 347H144.202Z" fill="#081A47"/>
<path d="M130.528 272.934L113.436 275.861L114.11 291.166L130.49 290.655L130.528 272.934Z" fill="#E4BB6A"/>
<path d="M130.528 290.026L113.436 290.531L114.737 318.513L130.464 317.944L130.528 290.026Z" fill="#F8DDA9"/>
<path d="M130.733 329.782L123.88 333.655L124.567 335.408L131.42 331.535L130.733 329.782Z" fill="white"/>
<path d="M169.27 268.059L152.147 267.237L149.899 283.614L166.301 286.608L169.27 268.059Z" fill="#E4BB6A"/>
<path d="M173.828 331.047L162.903 308.774L164.316 300.24C159.499 298.905 152.061 296.853 147.883 295.724L144.202 321.641L173.828 331.047Z" fill="#081A47"/>
<path d="M165.852 286.047L149.461 283.189L147.62 295.982C151.658 297.068 158.829 299.011 163.464 300.282L165.852 286.047Z" fill="#F8DDA9"/>
<path d="M162.414 308.092L155.628 310.837L156.143 312.673L162.929 309.928L162.414 308.092Z" fill="white"/>
<path d="M180.665 270.495C180.665 270.495 173.416 281.452 159.967 277.903C146.517 274.354 148.952 283.699 141.421 285.64C133.889 287.582 112.932 271.781 105.942 286.608C105.942 286.608 101.78 230.467 103.676 194.935C104.191 185.349 105.143 177.248 106.748 172.17L138.913 171.639L145.993 171.521C145.993 171.521 146.017 171.706 146.073 172.074C146.194 172.836 146.445 174.395 146.839 176.619C149.469 191.25 158.692 234.653 180.665 270.495Z" fill="#7E47D7"/>
<path d="M151.039 196.738C142.496 203.425 124.676 214.913 99.7623 218.239C100.374 206.986 101.505 197.476 103.412 191.515L141.623 190.892L150.129 191.402C150.272 192.297 150.571 194.127 151.039 196.738Z" fill="#801FBC"/>
<path d="M151.039 196.738C142.496 203.425 124.676 214.913 99.7623 218.239C100.374 206.986 101.505 197.476 103.412 191.515L141.623 190.892L150.129 191.402C150.272 192.297 150.571 194.127 151.039 196.738Z" fill="#801FBC"/>
<path d="M108.813 254.207L118.04 216.603L76.1412 201.774L66.9146 239.377L108.813 254.207Z" fill="white"/>
<path d="M109.826 219.46L107.079 230.657L108 230.983L110.748 219.787L109.826 219.46Z" fill="#8881DC"/>
<path d="M104.07 217.421L97.4558 244.378L98.377 244.704L104.991 217.747L104.07 217.421Z" fill="#8881DC"/>
<path d="M98.3143 215.391L91.7 242.348L92.6212 242.674L99.2355 215.717L98.3143 215.391Z" fill="#8881DC"/>
<path d="M92.5589 213.348L85.9446 240.305L86.8658 240.631L93.4802 213.674L92.5589 213.348Z" fill="#8881DC"/>
<path d="M86.8061 211.314L81.7518 231.913L82.673 232.239L87.7273 211.64L86.8061 211.314Z" fill="#8881DC"/>
<path d="M184.083 125.995C184.083 125.995 178.366 154.185 163.943 162.419C160.338 164.505 156.275 165.173 152.334 164.328L149.751 158.819L132.807 122.729L138.723 120.245C138.723 120.245 152.002 126.178 159.213 139.405C159.213 139.405 165.932 138.646 174.892 122.543L184.083 125.995Z" fill="#D570D7"/>
<path d="M163.573 162.415C160.1 164.505 156.185 165.174 152.388 164.327L149.899 158.807L150.539 145.313C150.539 145.313 159.967 151.986 163.573 162.415Z" fill="#8B1F8D"/>
<path d="M127.26 120.245C98.7238 124.387 90.3314 171.803 93.5861 216.327L104.195 217.1C104.195 217.1 105.962 173.539 120.591 152.722L132.807 122.46L127.26 120.245Z" fill="#D570D7"/>
<path d="M131.923 122.524L151.602 138.473C151.602 138.473 157.044 169.042 156.723 196.131C156.723 196.131 118.643 213.046 99.7627 195.363L114.642 137.319L131.923 122.524Z" fill="#D570D7"/>
<path d="M149.451 90.0496C152.107 80.8836 142.785 70.1581 124.955 79.2667C124.955 79.2667 107.244 82.2646 110.39 112.703L129.029 113.408L149.451 90.0496Z" fill="#081A47"/>
<path d="M129.01 78.3708C131.551 68.0101 120.465 66.3521 118.617 72.7043C118.372 73.5538 112.969 70.5278 111.456 75.4676C109.723 81.1341 115.744 84.9004 122.545 83.4812L129.01 78.3708Z" fill="#081A47"/>
<path d="M141.921 101.23V120.078L133.668 131.639L124.829 120.434L125.302 100.874L141.921 101.23Z" fill="#F8DDA9"/>
<path d="M141.921 107.71V120.245C135.542 117.591 132.805 109.564 132.805 109.564L141.921 107.71Z" fill="#E4BA6A"/>
<path d="M149.217 90.1412C149.217 90.1412 154.95 120.308 133.134 110.195L125.968 101.998L130.427 85.4301L141.893 82.6421L149.217 90.1412Z" fill="#F8DDA9"/>
<path d="M148.758 89.3658C148.758 89.3658 144.199 82.2945 138.506 85.7148C132.813 89.135 133.102 101.127 127.174 98.1136C121.246 95.1005 124.677 85.8302 124.677 85.8302L133.392 79.2236L143.155 80.3263L148.758 89.3658Z" fill="#081A47"/>
<path d="M129.2 104.192C131.18 103.054 131.732 100.3 130.434 98.0415C129.136 95.7826 126.478 94.8736 124.499 96.0114C122.519 97.1491 121.967 99.9026 123.265 102.162C124.563 104.42 127.22 105.329 129.2 104.192Z" fill="#F8DDA9"/>
<path d="M132.807 139.616C134.066 139.616 135.086 138.595 135.086 137.337C135.086 136.078 134.066 135.058 132.807 135.058C131.548 135.058 130.528 136.078 130.528 137.337C130.528 138.595 131.548 139.616 132.807 139.616Z" fill="#8B1F8D"/>
<path d="M105.301 198.868L104.32 198.65C104.334 198.566 105.789 190.101 108.233 180.629C111.529 167.854 114.963 159.423 118.443 155.568L119.134 156.389C111.101 165.288 105.358 198.542 105.301 198.868Z" fill="#8B1F8D"/>
<path d="M101.541 171.521C99.9997 170.111 96.4114 170.264 96.3748 170.264L96.344 169.246C96.5039 169.246 100.271 169.087 102.041 170.706L101.541 171.521Z" fill="#8B1F8D"/>
<path d="M173.828 123.242C173.828 123.242 175.059 109.316 176.17 109.551C177.28 109.786 177.156 113.19 177.156 113.19C177.156 113.19 179.749 105.423 180.954 105.432C182.159 105.44 180.926 108.606 180.926 108.606C180.926 108.606 182.268 105.432 183.266 105.677C184.264 105.923 183.445 108.617 183.445 108.617C183.445 108.617 184.492 106.012 185.504 106.474C186.515 106.936 185.881 109.068 185.881 109.068C185.881 109.068 186.435 107.382 187.38 108.506C188.324 109.63 183.478 125.936 183.478 125.936L176.647 128.221L173.828 123.242Z" fill="#F8DDA9"/>
<path d="M104.32 216.77C104.32 216.77 102.953 230.276 101.75 230.05C100.546 229.823 100.698 226.42 100.698 226.42C100.698 226.42 97.8652 234.192 96.5635 234.192C95.2617 234.192 96.6055 231.019 96.6055 231.019C96.6055 231.019 95.1448 234.197 94.0674 233.96C92.99 233.723 93.8851 231.024 93.8851 231.024C93.8851 231.024 92.7446 233.631 91.6532 233.183C90.5617 232.735 91.2559 230.592 91.2559 230.592C91.2559 230.592 90.6506 232.281 89.6362 231.162C88.6219 230.042 93.9202 213.723 93.9202 213.723L101.305 211.403L104.32 216.77Z" fill="#F8DDA9"/>
<path d="M93.1838 59.7988C93.1838 49.7135 79.247 41.5368 62.0555 41.5368C44.864 41.5368 30.9301 49.7135 30.9301 59.7988C30.9301 69.8841 44.864 78.0608 62.0555 78.0608C65.6461 78.0688 69.2276 77.6985 72.7406 76.9558C75.0682 79.757 79.1006 82.2596 85.8968 83.7033C84.249 80.5634 82.9036 77.2739 81.8788 73.8792C88.7755 70.5298 93.1838 65.4671 93.1838 59.7988Z" fill="white"/>
<path d="M87.6876 85.0377L85.7015 84.6244C79.6744 83.3444 75.2087 81.1144 72.3932 77.9861C68.9914 78.6662 65.5302 79.0056 62.0611 78.9992C53.583 78.9992 45.5986 77.0533 39.5802 73.5232C33.4039 69.8983 30 65.0279 30 59.8044C30 54.581 33.4039 49.7105 39.5802 46.0857C45.6072 42.5556 53.583 40.6097 62.0611 40.6097C70.5391 40.6097 78.5236 42.5556 84.5449 46.0857C90.7212 49.7105 94.1222 54.581 94.1222 59.8044C94.1222 65.4526 90.0812 70.7306 83.0037 74.3698C83.9896 77.4372 85.2379 80.4139 86.7347 83.2669L87.6876 85.0377ZM73.0963 75.9225L73.458 76.3588C75.6851 79.0365 79.2784 81.0426 84.1574 82.3313C82.8833 79.689 81.82 76.9501 80.9774 74.1402L80.7593 73.3825L81.4682 73.041C88.319 69.7175 92.2509 64.8901 92.2509 59.7987C92.2509 50.2444 78.7044 42.4723 62.0553 42.4723C45.4063 42.4723 31.8626 50.2444 31.8626 59.7987C31.8626 69.353 45.4092 77.125 62.0553 77.125C65.5803 77.1333 69.0963 76.7706 72.5453 76.043L73.0963 75.9225Z" fill="#801FBC"/>
<path d="M87.6876 85.0377L85.7015 84.6244C79.6744 83.3444 75.2087 81.1144 72.3932 77.9861C68.9914 78.6662 65.5302 79.0056 62.0611 78.9992C53.583 78.9992 45.5986 77.0533 39.5802 73.5232C33.4039 69.8983 30 65.0279 30 59.8044C30 54.581 33.4039 49.7105 39.5802 46.0857C45.6072 42.5556 53.583 40.6097 62.0611 40.6097C70.5391 40.6097 78.5236 42.5556 84.5449 46.0857C90.7212 49.7105 94.1222 54.581 94.1222 59.8044C94.1222 65.4526 90.0812 70.7306 83.0037 74.3698C83.9896 77.4372 85.2379 80.4139 86.7347 83.2669L87.6876 85.0377ZM73.0963 75.9225L73.458 76.3588C75.6851 79.0365 79.2784 81.0426 84.1574 82.3313C82.8833 79.689 81.82 76.9501 80.9774 74.1402L80.7593 73.3825L81.4682 73.041C88.319 69.7175 92.2509 64.8901 92.2509 59.7987C92.2509 50.2444 78.7044 42.4723 62.0553 42.4723C45.4063 42.4723 31.8626 50.2444 31.8626 59.7987C31.8626 69.353 45.4092 77.125 62.0553 77.125C65.5803 77.1333 69.0963 76.7706 72.5453 76.043L73.0963 75.9225Z" fill="#801FBC"/>
<path d="M79.5915 55.2325H44.1064V56.4781H79.5915V55.2325Z" fill="#8881DC"/>
<path d="M70.2524 62.0804H44.1064V63.326H70.2524V62.0804Z" fill="#8881DC"/>
<path d="M533.424 316.734L533.144 335.588L529.513 347H549.201L548.085 316.238L533.424 316.734Z" fill="#45250D"/>
<path d="M505.414 319.176V334.553L490.138 347H520.9L519.042 317.468L505.414 319.176Z" fill="#45250D"/>
<path d="M505.579 333.939L504.594 335.481L509.134 339.598L510.12 338.056L505.579 333.939Z" fill="#CD9F68"/>
<path d="M530.744 179.654L530.662 180.023L527.93 192.718L521.978 220.387C521.12 225.062 520.48 229.789 520.061 234.546C517.157 266.035 520.909 306.283 522.857 323.641C522.977 324.715 522.901 325.806 522.635 326.842C522.368 327.878 521.916 328.835 521.311 329.648C520.705 330.462 519.959 331.114 519.122 331.56C518.285 332.005 517.377 332.236 516.459 332.234H505.62C504.398 332.232 503.202 331.823 502.169 331.054C501.136 330.285 500.308 329.188 499.781 327.888C485.972 293.791 488.217 242.867 490.988 230.404C495.373 210.689 498.382 181.275 498.382 181.275L507.584 180.81L530.744 179.654Z" fill="#BD9711"/>
<path d="M551.308 323.143C551.265 325.244 550.532 327.242 549.264 328.71C547.997 330.179 546.296 331.002 544.524 331.004H535.329C533.684 331.006 532.095 330.298 530.858 329.011C529.621 327.724 528.823 325.947 528.611 324.012C526.858 308.155 522.587 268.205 520.166 234.625C518.901 217.018 518.152 201.152 518.543 191.444C518.682 187.76 518.992 184.967 519.505 183.293L530.674 180.267L542.047 177.193C542.047 177.193 544.866 180.759 547.459 199.759C550.158 219.581 552.595 256.215 551.308 323.143Z" fill="#BD9711"/>
<path d="M518.678 260.866C518.157 248.906 518.484 238.708 519.69 229.69C520.087 226.767 521.474 224.122 523.568 222.296L531.451 215.338L531.974 216.07L524.091 223.028C522.163 224.706 520.886 227.139 520.52 229.828C519.326 238.784 518.998 248.923 519.516 260.827L518.678 260.866Z" fill="#7D4E07"/>
<path d="M496.383 264.558L496.29 263.828C500.986 263.255 505.011 263.174 508.595 263.583L508.509 264.313C504.988 263.903 501.024 263.984 496.383 264.558Z" fill="#7D4E07"/>
<path d="M533.298 263.327L533.204 262.598C537.902 262.024 541.925 261.944 545.509 262.353L545.423 263.083C541.9 262.678 537.933 262.761 533.298 263.327Z" fill="#7D4E07"/>
<path d="M509.858 321.16C502.814 321.16 497.598 319.089 497.521 319.057L497.71 317.735C497.832 317.785 509.814 322.532 521.929 317.468L522.13 318.788C517.86 320.583 513.601 321.16 509.858 321.16Z" fill="#7D4E07"/>
<path d="M538.347 321.16C537.223 321.16 536.159 321.11 535.189 321.038C532.46 320.84 529.742 320.395 527.052 319.706L527.211 318.529C527.347 318.568 541.033 322.323 550.142 317.468L550.431 318.593C546.658 320.604 542.16 321.16 538.347 321.16Z" fill="#7D4E07"/>
<path d="M547.97 211.647C542.844 208.508 535.769 206.459 528.727 205.121C525.573 204.512 522.402 204.057 519.423 203.708C509.999 202.61 502.442 202.61 502.442 202.61L508.832 193.786L531.48 192.68L531.4 193.031L545.064 189.498C545.064 189.498 546.033 193.031 547.97 211.647Z" fill="#94750A"/>
<path d="M527.086 89.829H509.782V119.361H527.086V89.829Z" fill="#E2A273"/>
<path d="M517.857 101.823C516.39 106.466 513.554 110.465 509.782 113.208V99.6729L517.857 101.823Z" fill="#CC7D43"/>
<path d="M501.351 73.8327L500.201 86.696C500.201 86.696 494.849 94.7219 498.19 94.7219C501.775 94.7219 501.204 96.3271 501.204 96.3271C501.204 96.3271 499.193 113.05 517.439 102.117L520.9 75.0632L501.351 73.8327Z" fill="#E2A273"/>
<path d="M501.706 74.4534C501.706 70.3588 506.185 60.5939 520.312 63.1915C533.814 65.6925 535.939 86.1833 528.963 95.5551C528.963 95.5551 525.401 101.629 520.602 90.5173L512.389 78.5479L510.645 74.7678L501.706 74.4534Z" fill="#081A47"/>
<path d="M521.703 89.5815C520.296 92.006 517.436 92.9861 515.31 91.7635C513.184 90.5409 512.603 87.5831 514.011 85.1552C515.418 82.7273 518.277 81.7506 520.404 82.9732C522.53 84.1958 523.11 87.1536 521.703 89.5815Z" fill="#E2A273"/>
<path d="M533.415 114.439C555.442 123.333 572.83 160.564 552.46 161.185C532.091 161.806 519.669 138.227 519.669 138.227L533.415 114.439Z" fill="#930808"/>
<path d="M437.472 141.724C437.472 141.724 426.966 136.898 426.61 137.974C426.254 139.051 428.737 140.386 428.737 140.386C428.737 140.386 421.977 139.373 421.415 140.438C420.854 141.503 423.691 141.764 423.691 141.764C423.691 141.764 420.796 141.594 420.498 142.577C420.199 143.56 422.508 143.975 422.508 143.975C422.508 143.975 420.159 143.791 420.009 144.879C419.858 145.968 421.681 146.313 421.681 146.313C421.681 146.313 420.217 146.08 420.575 147.392C420.933 148.704 434.838 151.353 434.838 151.353L439.688 146.317L437.472 141.724Z" fill="#E2A273"/>
<path d="M544.401 197.489L496.055 204.231C495.096 204.362 495.129 204.087 494.214 203.7C493.298 203.313 492.991 202.687 492.283 201.85C491.575 201.013 491.691 200.519 491.317 199.383C490.944 198.246 491.317 198.149 490.747 195.682L489.187 169.908L489.471 158.163V157.876C489.139 158.358 488.787 158.816 488.415 159.248C488.415 159.248 488.415 159.248 488.397 159.274C487.947 159.809 487.332 160.471 486.58 161.196C480.162 167.388 461.836 169.908 435.381 151.353L437.452 142.546L467.98 144.145C467.98 144.145 481.677 130.012 493.837 120.302C501.779 113.972 510.973 110.453 520.332 110.767C524.561 110.902 529.103 111.765 533.296 113.96C543.6 119.404 548.709 167.983 550.391 187.992C550.488 189.118 550.409 190.258 550.16 191.346C549.911 192.433 549.496 193.447 548.94 194.33C548.383 195.212 547.696 195.945 546.917 196.488C546.138 197.03 545.283 197.37 544.401 197.489Z" fill="#930808"/>
<path d="M464.47 156.275C463.329 148.303 468.212 144.142 468.421 143.97L469.219 144.965C468.347 145.776 467.618 146.734 467.065 147.797C465.739 150.271 465.283 153.058 465.715 156.083L464.47 156.275Z" fill="#670404"/>
<path d="M492.598 153.814C492.598 153.814 492.584 162.572 489.134 168.746L489.134 158.355C490.424 156.724 491.91 154.827 492.598 153.814Z" fill="#670404"/>
<path d="M480.496 164.887L480.327 163.647C487.851 162.03 498.324 147.054 498.431 146.903L499.217 147.707C497.233 150.489 495.12 153.131 492.887 155.62C487.999 161.048 483.829 164.167 480.496 164.887Z" fill="#670404"/>
<path d="M539.05 35.1976C539.05 25.1123 552.987 16.9356 570.179 16.9356C587.37 16.9356 601.304 25.1123 601.304 35.1976C601.304 45.2829 587.37 53.4596 570.179 53.4596C566.588 53.4676 563.007 53.0973 559.494 52.3546C557.166 55.1558 553.134 57.6585 546.337 59.1021C547.987 55.9628 549.332 52.6732 550.355 49.278C543.453 45.9286 539.05 40.8659 539.05 35.1976Z" fill="white"/>
<path d="M544.547 60.4366L545.517 58.6572C547.014 55.8044 548.262 52.8277 549.248 49.7601C542.167 46.1209 538.126 40.843 538.126 35.1947C538.126 29.9713 541.527 25.1009 547.704 21.476C553.731 17.9459 561.709 16 570.187 16C578.665 16 586.65 17.9459 592.668 21.476C598.848 25.1009 602.248 29.9713 602.248 35.1947C602.248 40.4182 598.848 45.2886 592.668 48.9135C586.641 52.4436 578.665 54.3895 570.187 54.3895C566.718 54.3957 563.257 54.0563 559.855 53.3764C557.04 56.5047 552.568 58.7347 546.547 60.0147L544.547 60.4366ZM570.179 17.8713C553.533 17.8713 539.986 25.6433 539.986 35.1976C539.986 40.289 543.915 45.1164 550.766 48.4399L551.475 48.7815L551.257 49.5391C550.415 52.3494 549.352 55.0884 548.077 57.7302C552.956 56.4416 556.549 54.4354 558.776 51.7577L559.138 51.3214L559.689 51.442C563.138 52.1694 566.654 52.5321 570.179 52.524C586.825 52.524 600.371 44.7519 600.371 35.1976C600.371 25.6433 586.828 17.8713 570.179 17.8713Z" fill="#801FBC"/>
<path d="M544.547 60.4366L545.517 58.6572C547.014 55.8044 548.262 52.8277 549.248 49.7601C542.167 46.1209 538.126 40.843 538.126 35.1947C538.126 29.9713 541.527 25.1009 547.704 21.476C553.731 17.9459 561.709 16 570.187 16C578.665 16 586.65 17.9459 592.668 21.476C598.848 25.1009 602.248 29.9713 602.248 35.1947C602.248 40.4182 598.848 45.2886 592.668 48.9135C586.641 52.4436 578.665 54.3895 570.187 54.3895C566.718 54.3957 563.257 54.0563 559.855 53.3764C557.04 56.5047 552.568 58.7347 546.547 60.0147L544.547 60.4366ZM570.179 17.8713C553.533 17.8713 539.986 25.6433 539.986 35.1976C539.986 40.289 543.915 45.1164 550.766 48.4399L551.475 48.7815L551.257 49.5391C550.415 52.3494 549.352 55.0884 548.077 57.7302C552.956 56.4416 556.549 54.4354 558.776 51.7577L559.138 51.3214L559.689 51.442C563.138 52.1694 566.654 52.5321 570.179 52.524C586.825 52.524 600.371 44.7519 600.371 35.1976C600.371 25.6433 586.828 17.8713 570.179 17.8713Z" fill="#801FBC"/>
<path d="M588.128 30.6314H552.643V31.877H588.128V30.6314Z" fill="#8881DC"/>
<path d="M578.789 37.4793H552.643V38.7249H578.789V37.4793Z" fill="#8881DC"/>
</svg>
