<svg width="164" height="49" viewBox="0 0 164 49" fill="none" xmlns="http://www.w3.org/2000/svg">
<path d="M59.5802 48.5296C63.5442 48.5296 67.0878 46.5476 70.0909 43.9649H70.3312L70.8717 47.7488H76.5175V27.8685C76.5175 19.0995 72.7336 13.8741 64.5052 13.8741C59.2198 13.8741 54.5951 16.0364 51.1716 18.1986L53.7542 22.8834C56.5771 21.0815 59.8204 19.5199 63.304 19.5199C68.169 19.5199 69.5504 22.8834 69.6104 26.7273C55.8564 28.2288 49.8502 31.8926 49.8502 38.9798C49.8502 44.8058 53.8743 48.5296 59.5802 48.5296ZM61.6823 43.064C58.7393 43.064 56.517 41.7426 56.517 38.4993C56.517 34.7755 59.8204 32.2529 69.6104 31.1118V39.2201C66.9077 41.6826 64.5653 43.064 61.6823 43.064Z" fill="white"/>
<path d="M84.6976 47.7488H88.1811V39.1L95.0882 30.9316L105.419 47.7488H109.263L97.1303 28.4691L107.581 15.7361H103.617L88.3013 34.5954H88.1811V0H84.6976V47.7488Z" fill="white"/>
<path d="M112.835 47.7488H119.742V14.715H112.835V47.7488ZM116.259 8.5287C118.782 8.5287 120.583 6.90705 120.583 4.38447C120.583 1.92195 118.782 0.300293 116.259 0.300293C113.736 0.300293 111.995 1.92195 111.995 4.38447C111.995 6.90705 113.736 8.5287 116.259 8.5287Z" fill="white"/>
<path d="M132.722 48.5296C133.863 48.5296 134.464 48.3494 135.065 48.1692L134.524 45.4064C133.863 45.5265 133.623 45.5265 133.383 45.5265C132.542 45.5265 131.942 44.8659 131.942 43.3643V0H128.458V43.004C128.458 46.7278 129.839 48.5296 132.722 48.5296Z" fill="white"/>
<path d="M149.155 48.5295C153.239 48.5295 157.083 46.3073 160.327 43.6646H160.447L160.807 47.7487H163.75V27.448C163.75 20.3607 161.047 14.8951 153.419 14.8951C148.194 14.8951 143.75 17.4177 141.287 19.0994L142.849 21.622C145.071 19.9403 148.735 17.9583 152.939 17.9583C159.005 17.9583 160.387 22.8833 160.266 27.6282C146.152 29.2498 139.846 32.6133 139.846 39.7005C139.846 45.6466 143.99 48.5295 149.155 48.5295ZM149.876 45.5865C146.332 45.5865 143.329 43.9048 143.329 39.5203C143.329 34.5953 147.654 31.6523 160.266 30.2108V40.6014C156.483 43.9048 153.419 45.5865 149.876 45.5865Z" fill="white"/>
<path fill-rule="evenodd" clip-rule="evenodd" d="M16.1941 33.7216L14.8407 43.6107L27.6581 35.7197L16.1941 33.7216ZM14.7139 33.4636L13.1376 44.9812L13.8816 45.083L14.2751 45.7222L30.1326 35.9596L29.7389 35.32L29.8678 34.5807L16.3978 32.2329L18.0107 20.4476L16.523 20.244L14.9176 31.9749L4.25734 30.1169L3.99951 31.5961L14.7139 33.4636Z" fill="white"/>
<ellipse cx="31.1175" cy="35.4815" rx="5.63076" ry="5.63076" transform="rotate(90.4843 31.1175 35.4815)" fill="white"/>
<circle cx="14.1401" cy="45.4737" r="3.00307" transform="rotate(90.4843 14.1401 45.4737)" fill="white"/>
<circle cx="3.40169" cy="30.1297" r="2.62953" transform="rotate(90.4843 3.40169 30.1297)" fill="white"/>
<circle cx="17.677" cy="20.3806" r="4.12922" transform="rotate(90.4843 17.677 20.3806)" fill="white"/>
</svg>
