<svg width="32" height="32" viewBox="0 0 32 32" fill="none" xmlns="http://www.w3.org/2000/svg">
<g clip-path="url(#clip0)">
<path d="M16 0C7.16334 0 0 7.16334 0 16C0 24.8367 7.16334 32 16 32C24.8367 32 32 24.8367 32 16C32 7.16334 24.8367 0 16 0ZM12.0833 22.6317H8.84334V12.205H12.0833V22.6317ZM10.4433 10.925C9.42001 10.925 8.75834 10.2 8.75834 9.30334C8.75834 8.38834 9.44001 7.68501 10.485 7.68501C11.53 7.68501 12.17 8.38834 12.19 9.30334C12.19 10.2 11.53 10.925 10.4433 10.925ZM23.9167 22.6317H20.6767V16.8533C20.6767 15.5083 20.2067 14.595 19.035 14.595C18.14 14.595 17.6084 15.2133 17.3734 15.8083C17.2867 16.02 17.265 16.32 17.265 16.6183V22.63H14.0233V15.53C14.0233 14.2283 13.9817 13.14 13.9383 12.2033H16.7533L16.9017 13.6517H16.9667C17.3933 12.9717 18.4384 11.9683 20.1867 11.9683C22.3184 11.9683 23.9167 13.3967 23.9167 16.4667V22.6317Z" fill="white"/>
</g>
<defs>
<clipPath id="clip0">
<rect width="32" height="32" fill="white"/>
</clipPath>
</defs>
</svg>
