<svg width="32" height="32" viewBox="0 0 32 32" fill="none" xmlns="http://www.w3.org/2000/svg">
<g clip-path="url(#clip0)">
<path d="M21 16C21 17.3261 20.4732 18.5978 19.5356 19.5355C18.5979 20.4732 17.3261 21 16 21C14.674 21 13.4022 20.4732 12.4645 19.5355C11.5268 18.5978 11 17.3261 11 16C11 15.715 11.03 15.4366 11.0817 15.1666H9.33338V21.8283C9.33338 22.2916 9.70838 22.6666 10.1717 22.6666H21.83C22.0521 22.6662 22.2649 22.5777 22.4217 22.4205C22.5786 22.2633 22.6667 22.0504 22.6667 21.8283V15.1666H20.9184C20.97 15.4366 21 15.715 21 16ZM16 19.3333C16.4379 19.3332 16.8714 19.2469 17.2759 19.0792C17.6804 18.9115 18.0479 18.6659 18.3574 18.3562C18.6669 18.0465 18.9124 17.6789 19.0799 17.2743C19.2473 16.8697 19.3335 16.4362 19.3334 15.9983C19.3333 15.5605 19.2469 15.1269 19.0792 14.7224C18.9116 14.318 18.6659 13.9505 18.3562 13.641C18.0465 13.3314 17.6789 13.0859 17.2744 12.9185C16.8698 12.751 16.4362 12.6649 15.9984 12.665C15.1141 12.6652 14.2661 13.0167 13.641 13.6421C13.0159 14.2676 12.6648 15.1157 12.665 16C12.6653 16.8843 13.0168 17.7322 13.6422 18.3573C14.2676 18.9825 15.1158 19.3335 16 19.3333ZM20 12.5H21.9984C22.1311 12.5 22.2585 12.4474 22.3525 12.3536C22.4465 12.2599 22.4996 12.1327 22.5 12V10.0017C22.5 9.8686 22.4472 9.741 22.3531 9.64692C22.259 9.55284 22.1314 9.49999 21.9984 9.49999H20C19.867 9.49999 19.7394 9.55284 19.6453 9.64692C19.5512 9.741 19.4984 9.8686 19.4984 10.0017V12C19.5 12.275 19.725 12.5 20 12.5ZM16 0C11.7566 0 7.68692 1.68571 4.68635 4.68629C1.68577 7.68686 6.10352e-05 11.7565 6.10352e-05 16C6.10352e-05 20.2434 1.68577 24.3131 4.68635 27.3137C7.68692 30.3143 11.7566 32 16 32C18.1012 32 20.1818 31.5861 22.123 30.782C24.0642 29.978 25.828 28.7994 27.3137 27.3137C28.7995 25.8279 29.978 24.0641 30.7821 22.1229C31.5862 20.1817 32 18.1011 32 16C32 13.8988 31.5862 11.8183 30.7821 9.87705C29.978 7.93585 28.7995 6.17202 27.3137 4.68629C25.828 3.20055 24.0642 2.022 22.123 1.21793C20.1818 0.413852 18.1012 0 16 0ZM24.3334 22.4816C24.3334 23.5 23.5 24.3333 22.4817 24.3333H9.51838C8.50005 24.3333 7.66672 23.5 7.66672 22.4816V9.51832C7.66672 8.49999 8.50005 7.66666 9.51838 7.66666H22.4817C23.5 7.66666 24.3334 8.49999 24.3334 9.51832V22.4816Z" fill="white"/>
</g>
<defs>
<clipPath id="clip0">
<rect width="32" height="32" fill="white"/>
</clipPath>
</defs>
</svg>
