<svg width="158" height="47" viewBox="0 0 158 47" fill="none" xmlns="http://www.w3.org/2000/svg">
<path d="M56.9759 46.9999C60.8151 46.9999 64.247 45.0803 67.1554 42.5791H67.3881L67.9116 46.2437H73.3794V26.99C73.3794 18.4974 69.7148 13.4368 61.7458 13.4368C56.6269 13.4368 52.148 15.5308 48.8324 17.6249L51.3336 22.162C54.0675 20.417 57.2086 18.9046 60.5824 18.9046C65.294 18.9046 66.6319 22.162 66.6901 25.8848C53.3695 27.339 47.5527 30.8873 47.5527 37.7511C47.5527 43.3935 51.45 46.9999 56.9759 46.9999ZM59.0118 41.7066C56.1616 41.7066 54.0094 40.4269 54.0094 37.2858C54.0094 33.6794 57.2086 31.2363 66.6901 30.1311V37.9838C64.0725 40.3687 61.8039 41.7066 59.0118 41.7066Z" fill="url(#paint0_linear)"/>
<path d="M81.3016 46.2438H84.6754V37.8676L91.3648 29.9567L101.37 46.2438H105.092L93.3425 27.5718L103.464 15.2401H99.6247L84.7917 33.505H84.6754V0H81.3016V46.2438Z" fill="#515151"/>
<path d="M108.553 46.2438H115.242V14.2512H108.553V46.2438ZM111.868 8.25983C114.311 8.25983 116.056 6.68929 116.056 4.24622C116.056 1.86132 114.311 0.290771 111.868 0.290771C109.425 0.290771 107.738 1.86132 107.738 4.24622C107.738 6.68929 109.425 8.25983 111.868 8.25983Z" fill="url(#paint1_linear)"/>
<path d="M127.813 47C128.918 47 129.5 46.8255 130.081 46.651L129.558 43.9752C128.918 44.0916 128.685 44.0916 128.452 44.0916C127.638 44.0916 127.056 43.4517 127.056 41.9975V0H123.683V41.6485C123.683 45.2549 125.021 47 127.813 47Z" fill="#515151"/>
<path d="M143.728 47C147.683 47 151.406 44.8478 154.547 42.2884H154.663L155.012 46.2439H157.862V26.583C157.862 19.7191 155.245 14.4258 147.858 14.4258C142.797 14.4258 138.492 16.8689 136.108 18.4976L137.62 20.9406C139.772 19.3119 143.32 17.3924 147.392 17.3924C153.267 17.3924 154.605 22.1622 154.489 26.7575C140.819 28.328 134.711 31.5854 134.711 38.4493C134.711 44.208 138.725 47 143.728 47ZM144.426 44.1498C140.994 44.1498 138.085 42.5211 138.085 38.2748C138.085 33.505 142.273 30.6547 154.489 29.2587V39.3218C150.824 42.5211 147.858 44.1498 144.426 44.1498Z" fill="#515151"/>
<path fill-rule="evenodd" clip-rule="evenodd" d="M14.9574 32.6587L13.6467 42.2361L26.06 34.5939L14.9574 32.6587ZM13.5238 32.4089L11.9972 43.5634L12.7177 43.662L13.0988 44.2811L28.4566 34.8262L28.0753 34.2068L28.2001 33.4908L15.1547 31.217L16.7167 19.8031L15.2759 19.606L13.7211 30.9671L3.39685 29.1676L3.14716 30.6003L13.5238 32.4089Z" fill="#801FBC"/>
<circle cx="29.4104" cy="34.3633" r="5.45328" transform="rotate(90.4843 29.4104 34.3633)" fill="#1081BF"/>
<circle cx="12.968" cy="44.0405" r="2.90842" transform="rotate(90.4843 12.968 44.0405)" fill="#6DA5C4"/>
<circle cx="2.56809" cy="29.1801" r="2.54665" transform="rotate(90.4843 2.56809 29.1801)" fill="#1F84BC"/>
<circle cx="16.3935" cy="19.7383" r="3.99907" transform="rotate(90.4843 16.3935 19.7383)" fill="#53A8D8"/>
<defs>
<linearGradient id="paint0_linear" x1="60.466" y1="13.4368" x2="71.6198" y2="47.2617" gradientUnits="userSpaceOnUse">
<stop stop-color="#1074AB"/>
<stop offset="1" stop-color="#64B2DD"/>
</linearGradient>
<linearGradient id="paint1_linear" x1="107.611" y1="-8.79057e-05" x2="119.609" y2="49.443" gradientUnits="userSpaceOnUse">
<stop stop-color="#1074AB"/>
<stop offset="1" stop-color="#64B2DD"/>
</linearGradient>
</defs>
</svg>
